G04 #@! TF.GenerationSoftware,KiCad,Pcbnew,(5.1.5)-3*
G04 #@! TF.CreationDate,2022-02-08T11:31:35-03:00*
G04 #@! TF.ProjectId,bq24160,62713234-3136-4302-9e6b-696361645f70,rev?*
G04 #@! TF.SameCoordinates,Original*
G04 #@! TF.FileFunction,Soldermask,Bot*
G04 #@! TF.FilePolarity,Negative*
%FSLAX46Y46*%
G04 Gerber Fmt 4.6, Leading zero omitted, Abs format (unit mm)*
G04 Created by KiCad (PCBNEW (5.1.5)-3) date 2022-02-08 11:31:35*
%MOMM*%
%LPD*%
G04 APERTURE LIST*
%ADD10C,0.100000*%
G04 APERTURE END LIST*
D10*
G36*
X96671000Y-116551000D02*
G01*
X93569000Y-116551000D01*
X93569000Y-113449000D01*
X96671000Y-113449000D01*
X96671000Y-116551000D01*
G37*
G36*
X99302585Y-113478802D02*
G01*
X99452410Y-113508604D01*
X99734674Y-113625521D01*
X99988705Y-113795259D01*
X100204741Y-114011295D01*
X100374479Y-114265326D01*
X100491396Y-114547590D01*
X100551000Y-114847240D01*
X100551000Y-115152760D01*
X100491396Y-115452410D01*
X100374479Y-115734674D01*
X100204741Y-115988705D01*
X99988705Y-116204741D01*
X99734674Y-116374479D01*
X99452410Y-116491396D01*
X99302585Y-116521198D01*
X99152761Y-116551000D01*
X98847239Y-116551000D01*
X98697415Y-116521198D01*
X98547590Y-116491396D01*
X98265326Y-116374479D01*
X98011295Y-116204741D01*
X97795259Y-115988705D01*
X97625521Y-115734674D01*
X97508604Y-115452410D01*
X97449000Y-115152760D01*
X97449000Y-114847240D01*
X97508604Y-114547590D01*
X97625521Y-114265326D01*
X97795259Y-114011295D01*
X98011295Y-113795259D01*
X98265326Y-113625521D01*
X98547590Y-113508604D01*
X98697415Y-113478802D01*
X98847239Y-113449000D01*
X99152761Y-113449000D01*
X99302585Y-113478802D01*
G37*
G36*
X73160721Y-90470174D02*
G01*
X73260995Y-90511709D01*
X73260996Y-90511710D01*
X73351242Y-90572010D01*
X73427990Y-90648758D01*
X73427991Y-90648760D01*
X73488291Y-90739005D01*
X73529826Y-90839279D01*
X73551000Y-90945730D01*
X73551000Y-91054270D01*
X73529826Y-91160721D01*
X73488291Y-91260995D01*
X73488290Y-91260996D01*
X73427990Y-91351242D01*
X73351242Y-91427990D01*
X73305812Y-91458345D01*
X73260995Y-91488291D01*
X73185611Y-91519516D01*
X73164000Y-91531067D01*
X73145059Y-91546612D01*
X73129513Y-91565554D01*
X73117962Y-91587165D01*
X73110849Y-91610614D01*
X73108447Y-91635000D01*
X73110849Y-91659386D01*
X73117962Y-91682835D01*
X73129513Y-91704446D01*
X73145058Y-91723387D01*
X73164000Y-91738933D01*
X73185611Y-91750484D01*
X73260995Y-91781709D01*
X73260996Y-91781710D01*
X73351242Y-91842010D01*
X73427990Y-91918758D01*
X73427991Y-91918760D01*
X73488291Y-92009005D01*
X73529826Y-92109279D01*
X73551000Y-92215730D01*
X73551000Y-92324270D01*
X73529826Y-92430721D01*
X73488291Y-92530995D01*
X73488290Y-92530996D01*
X73427990Y-92621242D01*
X73351242Y-92697990D01*
X73305812Y-92728345D01*
X73260995Y-92758291D01*
X73185611Y-92789516D01*
X73164000Y-92801067D01*
X73145059Y-92816612D01*
X73129513Y-92835554D01*
X73117962Y-92857165D01*
X73110849Y-92880614D01*
X73108447Y-92905000D01*
X73110849Y-92929386D01*
X73117962Y-92952835D01*
X73129513Y-92974446D01*
X73145058Y-92993387D01*
X73164000Y-93008933D01*
X73185611Y-93020484D01*
X73260995Y-93051709D01*
X73260996Y-93051710D01*
X73351242Y-93112010D01*
X73427990Y-93188758D01*
X73427991Y-93188760D01*
X73488291Y-93279005D01*
X73529826Y-93379279D01*
X73551000Y-93485730D01*
X73551000Y-93594270D01*
X73529826Y-93700721D01*
X73488291Y-93800995D01*
X73488290Y-93800996D01*
X73427990Y-93891242D01*
X73351242Y-93967990D01*
X73305812Y-93998345D01*
X73260995Y-94028291D01*
X73160721Y-94069826D01*
X73054270Y-94091000D01*
X72945730Y-94091000D01*
X72839279Y-94069826D01*
X72739005Y-94028291D01*
X72694188Y-93998345D01*
X72648758Y-93967990D01*
X72572010Y-93891242D01*
X72511710Y-93800996D01*
X72511709Y-93800995D01*
X72470174Y-93700721D01*
X72449000Y-93594270D01*
X72449000Y-93485730D01*
X72470174Y-93379279D01*
X72511709Y-93279005D01*
X72572009Y-93188760D01*
X72572010Y-93188758D01*
X72648758Y-93112010D01*
X72739004Y-93051710D01*
X72739005Y-93051709D01*
X72814389Y-93020484D01*
X72836000Y-93008933D01*
X72854941Y-92993388D01*
X72870487Y-92974446D01*
X72882038Y-92952835D01*
X72889151Y-92929386D01*
X72891553Y-92905000D01*
X72889151Y-92880614D01*
X72882038Y-92857165D01*
X72870487Y-92835554D01*
X72854942Y-92816613D01*
X72836000Y-92801067D01*
X72814389Y-92789516D01*
X72739005Y-92758291D01*
X72694188Y-92728345D01*
X72648758Y-92697990D01*
X72572010Y-92621242D01*
X72511710Y-92530996D01*
X72511709Y-92530995D01*
X72470174Y-92430721D01*
X72449000Y-92324270D01*
X72449000Y-92215730D01*
X72470174Y-92109279D01*
X72511709Y-92009005D01*
X72572009Y-91918760D01*
X72572010Y-91918758D01*
X72648758Y-91842010D01*
X72739004Y-91781710D01*
X72739005Y-91781709D01*
X72814389Y-91750484D01*
X72836000Y-91738933D01*
X72854941Y-91723388D01*
X72870487Y-91704446D01*
X72882038Y-91682835D01*
X72889151Y-91659386D01*
X72891553Y-91635000D01*
X72889151Y-91610614D01*
X72882038Y-91587165D01*
X72870487Y-91565554D01*
X72854942Y-91546613D01*
X72836000Y-91531067D01*
X72814389Y-91519516D01*
X72739005Y-91488291D01*
X72694188Y-91458345D01*
X72648758Y-91427990D01*
X72572010Y-91351242D01*
X72511710Y-91260996D01*
X72511709Y-91260995D01*
X72470174Y-91160721D01*
X72449000Y-91054270D01*
X72449000Y-90945730D01*
X72470174Y-90839279D01*
X72511709Y-90739005D01*
X72572009Y-90648760D01*
X72572010Y-90648758D01*
X72648758Y-90572010D01*
X72739004Y-90511710D01*
X72739005Y-90511709D01*
X72839279Y-90470174D01*
X72945730Y-90449000D01*
X73054270Y-90449000D01*
X73160721Y-90470174D01*
G37*
G36*
X116551000Y-85431000D02*
G01*
X113449000Y-85431000D01*
X113449000Y-82329000D01*
X116551000Y-82329000D01*
X116551000Y-85431000D01*
G37*
G36*
X115302585Y-78478802D02*
G01*
X115452410Y-78508604D01*
X115734674Y-78625521D01*
X115988705Y-78795259D01*
X116204741Y-79011295D01*
X116374479Y-79265326D01*
X116491396Y-79547590D01*
X116551000Y-79847240D01*
X116551000Y-80152760D01*
X116491396Y-80452410D01*
X116374479Y-80734674D01*
X116204741Y-80988705D01*
X115988705Y-81204741D01*
X115734674Y-81374479D01*
X115452410Y-81491396D01*
X115302585Y-81521198D01*
X115152761Y-81551000D01*
X114847239Y-81551000D01*
X114697415Y-81521198D01*
X114547590Y-81491396D01*
X114265326Y-81374479D01*
X114011295Y-81204741D01*
X113795259Y-80988705D01*
X113625521Y-80734674D01*
X113508604Y-80452410D01*
X113449000Y-80152760D01*
X113449000Y-79847240D01*
X113508604Y-79547590D01*
X113625521Y-79265326D01*
X113795259Y-79011295D01*
X114011295Y-78795259D01*
X114265326Y-78625521D01*
X114547590Y-78508604D01*
X114697415Y-78478802D01*
X114847239Y-78449000D01*
X115152761Y-78449000D01*
X115302585Y-78478802D01*
G37*
G36*
X103306564Y-77989389D02*
G01*
X103497833Y-78068615D01*
X103497835Y-78068616D01*
X103669973Y-78183635D01*
X103816365Y-78330027D01*
X103931385Y-78502167D01*
X104010611Y-78693436D01*
X104051000Y-78896484D01*
X104051000Y-79103516D01*
X104010611Y-79306564D01*
X103931385Y-79497833D01*
X103931384Y-79497835D01*
X103816365Y-79669973D01*
X103669973Y-79816365D01*
X103497835Y-79931384D01*
X103497834Y-79931385D01*
X103497833Y-79931385D01*
X103306564Y-80010611D01*
X103103516Y-80051000D01*
X102896484Y-80051000D01*
X102693436Y-80010611D01*
X102502167Y-79931385D01*
X102502166Y-79931385D01*
X102502165Y-79931384D01*
X102330027Y-79816365D01*
X102183635Y-79669973D01*
X102068616Y-79497835D01*
X102068615Y-79497833D01*
X101989389Y-79306564D01*
X101949000Y-79103516D01*
X101949000Y-78896484D01*
X101989389Y-78693436D01*
X102068615Y-78502167D01*
X102183635Y-78330027D01*
X102330027Y-78183635D01*
X102502165Y-78068616D01*
X102502167Y-78068615D01*
X102693436Y-77989389D01*
X102896484Y-77949000D01*
X103103516Y-77949000D01*
X103306564Y-77989389D01*
G37*
G36*
X107306564Y-77989389D02*
G01*
X107497833Y-78068615D01*
X107497835Y-78068616D01*
X107669973Y-78183635D01*
X107816365Y-78330027D01*
X107931385Y-78502167D01*
X108010611Y-78693436D01*
X108051000Y-78896484D01*
X108051000Y-79103516D01*
X108010611Y-79306564D01*
X107931385Y-79497833D01*
X107931384Y-79497835D01*
X107816365Y-79669973D01*
X107669973Y-79816365D01*
X107497835Y-79931384D01*
X107497834Y-79931385D01*
X107497833Y-79931385D01*
X107306564Y-80010611D01*
X107103516Y-80051000D01*
X106896484Y-80051000D01*
X106693436Y-80010611D01*
X106502167Y-79931385D01*
X106502166Y-79931385D01*
X106502165Y-79931384D01*
X106330027Y-79816365D01*
X106183635Y-79669973D01*
X106068616Y-79497835D01*
X106068615Y-79497833D01*
X105989389Y-79306564D01*
X105949000Y-79103516D01*
X105949000Y-78896484D01*
X105989389Y-78693436D01*
X106068615Y-78502167D01*
X106183635Y-78330027D01*
X106330027Y-78183635D01*
X106502165Y-78068616D01*
X106502167Y-78068615D01*
X106693436Y-77989389D01*
X106896484Y-77949000D01*
X107103516Y-77949000D01*
X107306564Y-77989389D01*
G37*
G36*
X85051000Y-77051000D02*
G01*
X81949000Y-77051000D01*
X81949000Y-73949000D01*
X85051000Y-73949000D01*
X85051000Y-77051000D01*
G37*
G36*
X79922585Y-73978802D02*
G01*
X80072410Y-74008604D01*
X80354674Y-74125521D01*
X80608705Y-74295259D01*
X80824741Y-74511295D01*
X80994479Y-74765326D01*
X81111396Y-75047590D01*
X81171000Y-75347240D01*
X81171000Y-75652760D01*
X81111396Y-75952410D01*
X80994479Y-76234674D01*
X80824741Y-76488705D01*
X80608705Y-76704741D01*
X80354674Y-76874479D01*
X80072410Y-76991396D01*
X79922585Y-77021198D01*
X79772761Y-77051000D01*
X79467239Y-77051000D01*
X79317415Y-77021198D01*
X79167590Y-76991396D01*
X78885326Y-76874479D01*
X78631295Y-76704741D01*
X78415259Y-76488705D01*
X78245521Y-76234674D01*
X78128604Y-75952410D01*
X78069000Y-75652760D01*
X78069000Y-75347240D01*
X78128604Y-75047590D01*
X78245521Y-74765326D01*
X78415259Y-74511295D01*
X78631295Y-74295259D01*
X78885326Y-74125521D01*
X79167590Y-74008604D01*
X79317415Y-73978802D01*
X79467239Y-73949000D01*
X79772761Y-73949000D01*
X79922585Y-73978802D01*
G37*
G36*
X92922585Y-73978802D02*
G01*
X93072410Y-74008604D01*
X93354674Y-74125521D01*
X93608705Y-74295259D01*
X93824741Y-74511295D01*
X93994479Y-74765326D01*
X94111396Y-75047590D01*
X94171000Y-75347240D01*
X94171000Y-75652760D01*
X94111396Y-75952410D01*
X93994479Y-76234674D01*
X93824741Y-76488705D01*
X93608705Y-76704741D01*
X93354674Y-76874479D01*
X93072410Y-76991396D01*
X92922585Y-77021198D01*
X92772761Y-77051000D01*
X92467239Y-77051000D01*
X92317415Y-77021198D01*
X92167590Y-76991396D01*
X91885326Y-76874479D01*
X91631295Y-76704741D01*
X91415259Y-76488705D01*
X91245521Y-76234674D01*
X91128604Y-75952410D01*
X91069000Y-75652760D01*
X91069000Y-75347240D01*
X91128604Y-75047590D01*
X91245521Y-74765326D01*
X91415259Y-74511295D01*
X91631295Y-74295259D01*
X91885326Y-74125521D01*
X92167590Y-74008604D01*
X92317415Y-73978802D01*
X92467239Y-73949000D01*
X92772761Y-73949000D01*
X92922585Y-73978802D01*
G37*
G36*
X98051000Y-77051000D02*
G01*
X94949000Y-77051000D01*
X94949000Y-73949000D01*
X98051000Y-73949000D01*
X98051000Y-77051000D01*
G37*
M02*
