G04 #@! TF.GenerationSoftware,KiCad,Pcbnew,(5.1.5)-3*
G04 #@! TF.CreationDate,2022-02-08T11:31:35-03:00*
G04 #@! TF.ProjectId,bq24160,62713234-3136-4302-9e6b-696361645f70,rev?*
G04 #@! TF.SameCoordinates,Original*
G04 #@! TF.FileFunction,Legend,Top*
G04 #@! TF.FilePolarity,Positive*
%FSLAX46Y46*%
G04 Gerber Fmt 4.6, Leading zero omitted, Abs format (unit mm)*
G04 Created by KiCad (PCBNEW (5.1.5)-3) date 2022-02-08 11:31:35*
%MOMM*%
%LPD*%
G04 APERTURE LIST*
%ADD10C,0.120000*%
%ADD11C,0.150000*%
G04 APERTURE END LIST*
D10*
X119830000Y-77910000D02*
X115000000Y-77910000D01*
X115000000Y-86040000D02*
X119830000Y-86040000D01*
X113090000Y-86040000D02*
X113090000Y-77910000D01*
X113090000Y-84770000D02*
X111700000Y-84770000D01*
X113090000Y-79180000D02*
X111700000Y-79180000D01*
X111700000Y-84770000D02*
X111700000Y-79180000D01*
X113090000Y-86040000D02*
X115000000Y-86040000D01*
X113090000Y-77910000D02*
X115000000Y-77910000D01*
X111950000Y-84770000D02*
X111950000Y-79180000D01*
X112840000Y-84770000D02*
X112840000Y-79180000D01*
X119570000Y-81590000D02*
X119830000Y-81590000D01*
X119570000Y-82360000D02*
X119570000Y-81590000D01*
X119830000Y-82360000D02*
X119570000Y-82360000D01*
X119830000Y-82360000D02*
X119830000Y-86040000D01*
X119830000Y-81590000D02*
X119830000Y-77910000D01*
X112800000Y-85080000D02*
X112800000Y-86380000D01*
X112800000Y-86380000D02*
X115000000Y-86380000D01*
X71890000Y-90240000D02*
X73000000Y-90240000D01*
X71890000Y-91000000D02*
X71890000Y-90240000D01*
X73563471Y-91760000D02*
X74110000Y-91760000D01*
X71890000Y-91760000D02*
X72436529Y-91760000D01*
X74110000Y-91760000D02*
X74110000Y-94235000D01*
X71890000Y-91760000D02*
X71890000Y-94235000D01*
X73307530Y-94235000D02*
X74110000Y-94235000D01*
X71890000Y-94235000D02*
X72692470Y-94235000D01*
X96803922Y-84290000D02*
X97321078Y-84290000D01*
X96803922Y-85710000D02*
X97321078Y-85710000D01*
X90741422Y-91710000D02*
X91258578Y-91710000D01*
X90741422Y-90290000D02*
X91258578Y-90290000D01*
X84758578Y-83290000D02*
X84241422Y-83290000D01*
X84758578Y-84710000D02*
X84241422Y-84710000D01*
X91696078Y-84772500D02*
X91178922Y-84772500D01*
X91696078Y-83352500D02*
X91178922Y-83352500D01*
X97321078Y-90710000D02*
X96803922Y-90710000D01*
X97321078Y-89290000D02*
X96803922Y-89290000D01*
X96741422Y-109710000D02*
X97258578Y-109710000D01*
X96741422Y-108290000D02*
X97258578Y-108290000D01*
X105258578Y-87710000D02*
X104741422Y-87710000D01*
X105258578Y-86290000D02*
X104741422Y-86290000D01*
X85540000Y-99062500D02*
X85540000Y-101747500D01*
X85540000Y-101747500D02*
X87460000Y-101747500D01*
X87460000Y-101747500D02*
X87460000Y-99062500D01*
X99000000Y-77700000D02*
X99000000Y-75500000D01*
X97700000Y-77700000D02*
X99000000Y-77700000D01*
X94210000Y-70670000D02*
X90530000Y-70670000D01*
X94980000Y-70670000D02*
X98660000Y-70670000D01*
X94980000Y-70670000D02*
X94980000Y-70930000D01*
X94980000Y-70930000D02*
X94210000Y-70930000D01*
X94210000Y-70930000D02*
X94210000Y-70670000D01*
X97390000Y-77660000D02*
X91800000Y-77660000D01*
X97390000Y-78550000D02*
X91800000Y-78550000D01*
X90530000Y-77410000D02*
X90530000Y-75500000D01*
X98660000Y-77410000D02*
X98660000Y-75500000D01*
X97390000Y-78800000D02*
X91800000Y-78800000D01*
X91800000Y-77410000D02*
X91800000Y-78800000D01*
X97390000Y-77410000D02*
X97390000Y-78800000D01*
X98660000Y-77410000D02*
X90530000Y-77410000D01*
X98660000Y-75500000D02*
X98660000Y-70670000D01*
X90530000Y-70670000D02*
X90530000Y-75500000D01*
X101090000Y-119830000D02*
X101090000Y-115000000D01*
X92960000Y-115000000D02*
X92960000Y-119830000D01*
X92960000Y-113090000D02*
X101090000Y-113090000D01*
X94230000Y-113090000D02*
X94230000Y-111700000D01*
X99820000Y-113090000D02*
X99820000Y-111700000D01*
X94230000Y-111700000D02*
X99820000Y-111700000D01*
X92960000Y-113090000D02*
X92960000Y-115000000D01*
X101090000Y-113090000D02*
X101090000Y-115000000D01*
X94230000Y-111950000D02*
X99820000Y-111950000D01*
X94230000Y-112840000D02*
X99820000Y-112840000D01*
X97410000Y-119570000D02*
X97410000Y-119830000D01*
X96640000Y-119570000D02*
X97410000Y-119570000D01*
X96640000Y-119830000D02*
X96640000Y-119570000D01*
X96640000Y-119830000D02*
X92960000Y-119830000D01*
X97410000Y-119830000D02*
X101090000Y-119830000D01*
X93920000Y-112800000D02*
X92620000Y-112800000D01*
X92620000Y-112800000D02*
X92620000Y-115000000D01*
X86000000Y-77700000D02*
X86000000Y-75500000D01*
X84700000Y-77700000D02*
X86000000Y-77700000D01*
X81210000Y-70670000D02*
X77530000Y-70670000D01*
X81980000Y-70670000D02*
X85660000Y-70670000D01*
X81980000Y-70670000D02*
X81980000Y-70930000D01*
X81980000Y-70930000D02*
X81210000Y-70930000D01*
X81210000Y-70930000D02*
X81210000Y-70670000D01*
X84390000Y-77660000D02*
X78800000Y-77660000D01*
X84390000Y-78550000D02*
X78800000Y-78550000D01*
X77530000Y-77410000D02*
X77530000Y-75500000D01*
X85660000Y-77410000D02*
X85660000Y-75500000D01*
X84390000Y-78800000D02*
X78800000Y-78800000D01*
X78800000Y-77410000D02*
X78800000Y-78800000D01*
X84390000Y-77410000D02*
X84390000Y-78800000D01*
X85660000Y-77410000D02*
X77530000Y-77410000D01*
X85660000Y-75500000D02*
X85660000Y-70670000D01*
X77530000Y-70670000D02*
X77530000Y-75500000D01*
X102145740Y-80260000D02*
G75*
G03X107854260Y-80260000I2854260J1260000D01*
G01*
X102145740Y-77740000D02*
G75*
G02X107854260Y-77740000I2854260J-1260000D01*
G01*
X90803922Y-103710000D02*
X91321078Y-103710000D01*
X90803922Y-102290000D02*
X91321078Y-102290000D01*
X82410000Y-99778922D02*
X82410000Y-100296078D01*
X80990000Y-99778922D02*
X80990000Y-100296078D01*
X77710000Y-100258578D02*
X77710000Y-99741422D01*
X76290000Y-100258578D02*
X76290000Y-99741422D01*
X95635000Y-93890000D02*
X96110000Y-93890000D01*
X96110000Y-93890000D02*
X96110000Y-94365000D01*
X92365000Y-98110000D02*
X91890000Y-98110000D01*
X91890000Y-98110000D02*
X91890000Y-97635000D01*
X95635000Y-98110000D02*
X96110000Y-98110000D01*
X96110000Y-98110000D02*
X96110000Y-97635000D01*
X92365000Y-93890000D02*
X91890000Y-93890000D01*
D11*
X109372380Y-82303333D02*
X110086666Y-82303333D01*
X110229523Y-82350952D01*
X110324761Y-82446190D01*
X110372380Y-82589047D01*
X110372380Y-82684285D01*
X110372380Y-81303333D02*
X110372380Y-81874761D01*
X110372380Y-81589047D02*
X109372380Y-81589047D01*
X109515238Y-81684285D01*
X109610476Y-81779523D01*
X109658095Y-81874761D01*
X71666666Y-89757380D02*
X71333333Y-89281190D01*
X71095238Y-89757380D02*
X71095238Y-88757380D01*
X71476190Y-88757380D01*
X71571428Y-88805000D01*
X71619047Y-88852619D01*
X71666666Y-88947857D01*
X71666666Y-89090714D01*
X71619047Y-89185952D01*
X71571428Y-89233571D01*
X71476190Y-89281190D01*
X71095238Y-89281190D01*
X72095238Y-89233571D02*
X72428571Y-89233571D01*
X72571428Y-89757380D02*
X72095238Y-89757380D01*
X72095238Y-88757380D01*
X72571428Y-88757380D01*
X73333333Y-89233571D02*
X73000000Y-89233571D01*
X73000000Y-89757380D02*
X73000000Y-88757380D01*
X73476190Y-88757380D01*
X74000000Y-88757380D02*
X74000000Y-88995476D01*
X73761904Y-88900238D02*
X74000000Y-88995476D01*
X74238095Y-88900238D01*
X73857142Y-89185952D02*
X74000000Y-88995476D01*
X74142857Y-89185952D01*
X74761904Y-88757380D02*
X74761904Y-88995476D01*
X74523809Y-88900238D02*
X74761904Y-88995476D01*
X75000000Y-88900238D01*
X74619047Y-89185952D02*
X74761904Y-88995476D01*
X74904761Y-89185952D01*
X96895833Y-83707142D02*
X96848214Y-83754761D01*
X96705357Y-83802380D01*
X96610119Y-83802380D01*
X96467261Y-83754761D01*
X96372023Y-83659523D01*
X96324404Y-83564285D01*
X96276785Y-83373809D01*
X96276785Y-83230952D01*
X96324404Y-83040476D01*
X96372023Y-82945238D01*
X96467261Y-82850000D01*
X96610119Y-82802380D01*
X96705357Y-82802380D01*
X96848214Y-82850000D01*
X96895833Y-82897619D01*
X97848214Y-83802380D02*
X97276785Y-83802380D01*
X97562500Y-83802380D02*
X97562500Y-82802380D01*
X97467261Y-82945238D01*
X97372023Y-83040476D01*
X97276785Y-83088095D01*
X90833333Y-89707142D02*
X90785714Y-89754761D01*
X90642857Y-89802380D01*
X90547619Y-89802380D01*
X90404761Y-89754761D01*
X90309523Y-89659523D01*
X90261904Y-89564285D01*
X90214285Y-89373809D01*
X90214285Y-89230952D01*
X90261904Y-89040476D01*
X90309523Y-88945238D01*
X90404761Y-88850000D01*
X90547619Y-88802380D01*
X90642857Y-88802380D01*
X90785714Y-88850000D01*
X90833333Y-88897619D01*
X91214285Y-88897619D02*
X91261904Y-88850000D01*
X91357142Y-88802380D01*
X91595238Y-88802380D01*
X91690476Y-88850000D01*
X91738095Y-88897619D01*
X91785714Y-88992857D01*
X91785714Y-89088095D01*
X91738095Y-89230952D01*
X91166666Y-89802380D01*
X91785714Y-89802380D01*
X84333333Y-86007142D02*
X84285714Y-86054761D01*
X84142857Y-86102380D01*
X84047619Y-86102380D01*
X83904761Y-86054761D01*
X83809523Y-85959523D01*
X83761904Y-85864285D01*
X83714285Y-85673809D01*
X83714285Y-85530952D01*
X83761904Y-85340476D01*
X83809523Y-85245238D01*
X83904761Y-85150000D01*
X84047619Y-85102380D01*
X84142857Y-85102380D01*
X84285714Y-85150000D01*
X84333333Y-85197619D01*
X84666666Y-85102380D02*
X85285714Y-85102380D01*
X84952380Y-85483333D01*
X85095238Y-85483333D01*
X85190476Y-85530952D01*
X85238095Y-85578571D01*
X85285714Y-85673809D01*
X85285714Y-85911904D01*
X85238095Y-86007142D01*
X85190476Y-86054761D01*
X85095238Y-86102380D01*
X84809523Y-86102380D01*
X84714285Y-86054761D01*
X84666666Y-86007142D01*
X91270833Y-86069642D02*
X91223214Y-86117261D01*
X91080357Y-86164880D01*
X90985119Y-86164880D01*
X90842261Y-86117261D01*
X90747023Y-86022023D01*
X90699404Y-85926785D01*
X90651785Y-85736309D01*
X90651785Y-85593452D01*
X90699404Y-85402976D01*
X90747023Y-85307738D01*
X90842261Y-85212500D01*
X90985119Y-85164880D01*
X91080357Y-85164880D01*
X91223214Y-85212500D01*
X91270833Y-85260119D01*
X92127976Y-85498214D02*
X92127976Y-86164880D01*
X91889880Y-85117261D02*
X91651785Y-85831547D01*
X92270833Y-85831547D01*
X96895833Y-92007142D02*
X96848214Y-92054761D01*
X96705357Y-92102380D01*
X96610119Y-92102380D01*
X96467261Y-92054761D01*
X96372023Y-91959523D01*
X96324404Y-91864285D01*
X96276785Y-91673809D01*
X96276785Y-91530952D01*
X96324404Y-91340476D01*
X96372023Y-91245238D01*
X96467261Y-91150000D01*
X96610119Y-91102380D01*
X96705357Y-91102380D01*
X96848214Y-91150000D01*
X96895833Y-91197619D01*
X97800595Y-91102380D02*
X97324404Y-91102380D01*
X97276785Y-91578571D01*
X97324404Y-91530952D01*
X97419642Y-91483333D01*
X97657738Y-91483333D01*
X97752976Y-91530952D01*
X97800595Y-91578571D01*
X97848214Y-91673809D01*
X97848214Y-91911904D01*
X97800595Y-92007142D01*
X97752976Y-92054761D01*
X97657738Y-92102380D01*
X97419642Y-92102380D01*
X97324404Y-92054761D01*
X97276785Y-92007142D01*
X96833333Y-107707142D02*
X96785714Y-107754761D01*
X96642857Y-107802380D01*
X96547619Y-107802380D01*
X96404761Y-107754761D01*
X96309523Y-107659523D01*
X96261904Y-107564285D01*
X96214285Y-107373809D01*
X96214285Y-107230952D01*
X96261904Y-107040476D01*
X96309523Y-106945238D01*
X96404761Y-106850000D01*
X96547619Y-106802380D01*
X96642857Y-106802380D01*
X96785714Y-106850000D01*
X96833333Y-106897619D01*
X97690476Y-106802380D02*
X97500000Y-106802380D01*
X97404761Y-106850000D01*
X97357142Y-106897619D01*
X97261904Y-107040476D01*
X97214285Y-107230952D01*
X97214285Y-107611904D01*
X97261904Y-107707142D01*
X97309523Y-107754761D01*
X97404761Y-107802380D01*
X97595238Y-107802380D01*
X97690476Y-107754761D01*
X97738095Y-107707142D01*
X97785714Y-107611904D01*
X97785714Y-107373809D01*
X97738095Y-107278571D01*
X97690476Y-107230952D01*
X97595238Y-107183333D01*
X97404761Y-107183333D01*
X97309523Y-107230952D01*
X97261904Y-107278571D01*
X97214285Y-107373809D01*
X104833333Y-89007142D02*
X104785714Y-89054761D01*
X104642857Y-89102380D01*
X104547619Y-89102380D01*
X104404761Y-89054761D01*
X104309523Y-88959523D01*
X104261904Y-88864285D01*
X104214285Y-88673809D01*
X104214285Y-88530952D01*
X104261904Y-88340476D01*
X104309523Y-88245238D01*
X104404761Y-88150000D01*
X104547619Y-88102380D01*
X104642857Y-88102380D01*
X104785714Y-88150000D01*
X104833333Y-88197619D01*
X105166666Y-88102380D02*
X105833333Y-88102380D01*
X105404761Y-89102380D01*
X85302380Y-100800595D02*
X84302380Y-100800595D01*
X84302380Y-100562500D01*
X84350000Y-100419642D01*
X84445238Y-100324404D01*
X84540476Y-100276785D01*
X84730952Y-100229166D01*
X84873809Y-100229166D01*
X85064285Y-100276785D01*
X85159523Y-100324404D01*
X85254761Y-100419642D01*
X85302380Y-100562500D01*
X85302380Y-100800595D01*
X85302380Y-99276785D02*
X85302380Y-99848214D01*
X85302380Y-99562500D02*
X84302380Y-99562500D01*
X84445238Y-99657738D01*
X84540476Y-99752976D01*
X84588095Y-99848214D01*
X94256666Y-80032380D02*
X94256666Y-80746666D01*
X94209047Y-80889523D01*
X94113809Y-80984761D01*
X93970952Y-81032380D01*
X93875714Y-81032380D01*
X95256666Y-81032380D02*
X94685238Y-81032380D01*
X94970952Y-81032380D02*
X94970952Y-80032380D01*
X94875714Y-80175238D01*
X94780476Y-80270476D01*
X94685238Y-80318095D01*
X96696666Y-109372380D02*
X96696666Y-110086666D01*
X96649047Y-110229523D01*
X96553809Y-110324761D01*
X96410952Y-110372380D01*
X96315714Y-110372380D01*
X97125238Y-109467619D02*
X97172857Y-109420000D01*
X97268095Y-109372380D01*
X97506190Y-109372380D01*
X97601428Y-109420000D01*
X97649047Y-109467619D01*
X97696666Y-109562857D01*
X97696666Y-109658095D01*
X97649047Y-109800952D01*
X97077619Y-110372380D01*
X97696666Y-110372380D01*
X81256666Y-80032380D02*
X81256666Y-80746666D01*
X81209047Y-80889523D01*
X81113809Y-80984761D01*
X80970952Y-81032380D01*
X80875714Y-81032380D01*
X81637619Y-80032380D02*
X82256666Y-80032380D01*
X81923333Y-80413333D01*
X82066190Y-80413333D01*
X82161428Y-80460952D01*
X82209047Y-80508571D01*
X82256666Y-80603809D01*
X82256666Y-80841904D01*
X82209047Y-80937142D01*
X82161428Y-80984761D01*
X82066190Y-81032380D01*
X81780476Y-81032380D01*
X81685238Y-80984761D01*
X81637619Y-80937142D01*
X104833333Y-83702380D02*
X104357142Y-83702380D01*
X104357142Y-82702380D01*
X105690476Y-83702380D02*
X105119047Y-83702380D01*
X105404761Y-83702380D02*
X105404761Y-82702380D01*
X105309523Y-82845238D01*
X105214285Y-82940476D01*
X105119047Y-82988095D01*
X90895833Y-101802380D02*
X90562500Y-101326190D01*
X90324404Y-101802380D02*
X90324404Y-100802380D01*
X90705357Y-100802380D01*
X90800595Y-100850000D01*
X90848214Y-100897619D01*
X90895833Y-100992857D01*
X90895833Y-101135714D01*
X90848214Y-101230952D01*
X90800595Y-101278571D01*
X90705357Y-101326190D01*
X90324404Y-101326190D01*
X91848214Y-101802380D02*
X91276785Y-101802380D01*
X91562500Y-101802380D02*
X91562500Y-100802380D01*
X91467261Y-100945238D01*
X91372023Y-101040476D01*
X91276785Y-101088095D01*
X83802380Y-100204166D02*
X83326190Y-100537500D01*
X83802380Y-100775595D02*
X82802380Y-100775595D01*
X82802380Y-100394642D01*
X82850000Y-100299404D01*
X82897619Y-100251785D01*
X82992857Y-100204166D01*
X83135714Y-100204166D01*
X83230952Y-100251785D01*
X83278571Y-100299404D01*
X83326190Y-100394642D01*
X83326190Y-100775595D01*
X82897619Y-99823214D02*
X82850000Y-99775595D01*
X82802380Y-99680357D01*
X82802380Y-99442261D01*
X82850000Y-99347023D01*
X82897619Y-99299404D01*
X82992857Y-99251785D01*
X83088095Y-99251785D01*
X83230952Y-99299404D01*
X83802380Y-99870833D01*
X83802380Y-99251785D01*
X75802380Y-100166666D02*
X75326190Y-100500000D01*
X75802380Y-100738095D02*
X74802380Y-100738095D01*
X74802380Y-100357142D01*
X74850000Y-100261904D01*
X74897619Y-100214285D01*
X74992857Y-100166666D01*
X75135714Y-100166666D01*
X75230952Y-100214285D01*
X75278571Y-100261904D01*
X75326190Y-100357142D01*
X75326190Y-100738095D01*
X74802380Y-99833333D02*
X74802380Y-99214285D01*
X75183333Y-99547619D01*
X75183333Y-99404761D01*
X75230952Y-99309523D01*
X75278571Y-99261904D01*
X75373809Y-99214285D01*
X75611904Y-99214285D01*
X75707142Y-99261904D01*
X75754761Y-99309523D01*
X75802380Y-99404761D01*
X75802380Y-99690476D01*
X75754761Y-99785714D01*
X75707142Y-99833333D01*
X93238095Y-92152380D02*
X93238095Y-92961904D01*
X93285714Y-93057142D01*
X93333333Y-93104761D01*
X93428571Y-93152380D01*
X93619047Y-93152380D01*
X93714285Y-93104761D01*
X93761904Y-93057142D01*
X93809523Y-92961904D01*
X93809523Y-92152380D01*
X94809523Y-93152380D02*
X94238095Y-93152380D01*
X94523809Y-93152380D02*
X94523809Y-92152380D01*
X94428571Y-92295238D01*
X94333333Y-92390476D01*
X94238095Y-92438095D01*
M02*
