G04 #@! TF.GenerationSoftware,KiCad,Pcbnew,(5.1.5)-3*
G04 #@! TF.CreationDate,2022-02-08T11:31:35-03:00*
G04 #@! TF.ProjectId,bq24160,62713234-3136-4302-9e6b-696361645f70,rev?*
G04 #@! TF.SameCoordinates,Original*
G04 #@! TF.FileFunction,Soldermask,Top*
G04 #@! TF.FilePolarity,Negative*
%FSLAX46Y46*%
G04 Gerber Fmt 4.6, Leading zero omitted, Abs format (unit mm)*
G04 Created by KiCad (PCBNEW (5.1.5)-3) date 2022-02-08 11:31:35*
%MOMM*%
%LPD*%
G04 APERTURE LIST*
%ADD10C,0.100000*%
G04 APERTURE END LIST*
D10*
G36*
X99302585Y-113478802D02*
G01*
X99452410Y-113508604D01*
X99734674Y-113625521D01*
X99988705Y-113795259D01*
X100204741Y-114011295D01*
X100374479Y-114265326D01*
X100491396Y-114547590D01*
X100551000Y-114847240D01*
X100551000Y-115152760D01*
X100491396Y-115452410D01*
X100374479Y-115734674D01*
X100204741Y-115988705D01*
X99988705Y-116204741D01*
X99734674Y-116374479D01*
X99452410Y-116491396D01*
X99302585Y-116521198D01*
X99152761Y-116551000D01*
X98847239Y-116551000D01*
X98697415Y-116521198D01*
X98547590Y-116491396D01*
X98265326Y-116374479D01*
X98011295Y-116204741D01*
X97795259Y-115988705D01*
X97625521Y-115734674D01*
X97508604Y-115452410D01*
X97449000Y-115152760D01*
X97449000Y-114847240D01*
X97508604Y-114547590D01*
X97625521Y-114265326D01*
X97795259Y-114011295D01*
X98011295Y-113795259D01*
X98265326Y-113625521D01*
X98547590Y-113508604D01*
X98697415Y-113478802D01*
X98847239Y-113449000D01*
X99152761Y-113449000D01*
X99302585Y-113478802D01*
G37*
G36*
X96671000Y-116551000D02*
G01*
X93569000Y-116551000D01*
X93569000Y-113449000D01*
X96671000Y-113449000D01*
X96671000Y-116551000D01*
G37*
G36*
X98309468Y-108253565D02*
G01*
X98348138Y-108265296D01*
X98383777Y-108284346D01*
X98415017Y-108309983D01*
X98440654Y-108341223D01*
X98459704Y-108376862D01*
X98471435Y-108415532D01*
X98476000Y-108461888D01*
X98476000Y-109538112D01*
X98471435Y-109584468D01*
X98459704Y-109623138D01*
X98440654Y-109658777D01*
X98415017Y-109690017D01*
X98383777Y-109715654D01*
X98348138Y-109734704D01*
X98309468Y-109746435D01*
X98263112Y-109751000D01*
X97611888Y-109751000D01*
X97565532Y-109746435D01*
X97526862Y-109734704D01*
X97491223Y-109715654D01*
X97459983Y-109690017D01*
X97434346Y-109658777D01*
X97415296Y-109623138D01*
X97403565Y-109584468D01*
X97399000Y-109538112D01*
X97399000Y-108461888D01*
X97403565Y-108415532D01*
X97415296Y-108376862D01*
X97434346Y-108341223D01*
X97459983Y-108309983D01*
X97491223Y-108284346D01*
X97526862Y-108265296D01*
X97565532Y-108253565D01*
X97611888Y-108249000D01*
X98263112Y-108249000D01*
X98309468Y-108253565D01*
G37*
G36*
X96434468Y-108253565D02*
G01*
X96473138Y-108265296D01*
X96508777Y-108284346D01*
X96540017Y-108309983D01*
X96565654Y-108341223D01*
X96584704Y-108376862D01*
X96596435Y-108415532D01*
X96601000Y-108461888D01*
X96601000Y-109538112D01*
X96596435Y-109584468D01*
X96584704Y-109623138D01*
X96565654Y-109658777D01*
X96540017Y-109690017D01*
X96508777Y-109715654D01*
X96473138Y-109734704D01*
X96434468Y-109746435D01*
X96388112Y-109751000D01*
X95736888Y-109751000D01*
X95690532Y-109746435D01*
X95651862Y-109734704D01*
X95616223Y-109715654D01*
X95584983Y-109690017D01*
X95559346Y-109658777D01*
X95540296Y-109623138D01*
X95528565Y-109584468D01*
X95524000Y-109538112D01*
X95524000Y-108461888D01*
X95528565Y-108415532D01*
X95540296Y-108376862D01*
X95559346Y-108341223D01*
X95584983Y-108309983D01*
X95616223Y-108284346D01*
X95651862Y-108265296D01*
X95690532Y-108253565D01*
X95736888Y-108249000D01*
X96388112Y-108249000D01*
X96434468Y-108253565D01*
G37*
G36*
X90496968Y-102253565D02*
G01*
X90535638Y-102265296D01*
X90571277Y-102284346D01*
X90602517Y-102309983D01*
X90628154Y-102341223D01*
X90647204Y-102376862D01*
X90658935Y-102415532D01*
X90663500Y-102461888D01*
X90663500Y-103538112D01*
X90658935Y-103584468D01*
X90647204Y-103623138D01*
X90628154Y-103658777D01*
X90602517Y-103690017D01*
X90571277Y-103715654D01*
X90535638Y-103734704D01*
X90496968Y-103746435D01*
X90450612Y-103751000D01*
X89799388Y-103751000D01*
X89753032Y-103746435D01*
X89714362Y-103734704D01*
X89678723Y-103715654D01*
X89647483Y-103690017D01*
X89621846Y-103658777D01*
X89602796Y-103623138D01*
X89591065Y-103584468D01*
X89586500Y-103538112D01*
X89586500Y-102461888D01*
X89591065Y-102415532D01*
X89602796Y-102376862D01*
X89621846Y-102341223D01*
X89647483Y-102309983D01*
X89678723Y-102284346D01*
X89714362Y-102265296D01*
X89753032Y-102253565D01*
X89799388Y-102249000D01*
X90450612Y-102249000D01*
X90496968Y-102253565D01*
G37*
G36*
X92371968Y-102253565D02*
G01*
X92410638Y-102265296D01*
X92446277Y-102284346D01*
X92477517Y-102309983D01*
X92503154Y-102341223D01*
X92522204Y-102376862D01*
X92533935Y-102415532D01*
X92538500Y-102461888D01*
X92538500Y-103538112D01*
X92533935Y-103584468D01*
X92522204Y-103623138D01*
X92503154Y-103658777D01*
X92477517Y-103690017D01*
X92446277Y-103715654D01*
X92410638Y-103734704D01*
X92371968Y-103746435D01*
X92325612Y-103751000D01*
X91674388Y-103751000D01*
X91628032Y-103746435D01*
X91589362Y-103734704D01*
X91553723Y-103715654D01*
X91522483Y-103690017D01*
X91496846Y-103658777D01*
X91477796Y-103623138D01*
X91466065Y-103584468D01*
X91461500Y-103538112D01*
X91461500Y-102461888D01*
X91466065Y-102415532D01*
X91477796Y-102376862D01*
X91496846Y-102341223D01*
X91522483Y-102309983D01*
X91553723Y-102284346D01*
X91589362Y-102265296D01*
X91628032Y-102253565D01*
X91674388Y-102249000D01*
X92325612Y-102249000D01*
X92371968Y-102253565D01*
G37*
G36*
X87084468Y-100466065D02*
G01*
X87123138Y-100477796D01*
X87158777Y-100496846D01*
X87190017Y-100522483D01*
X87215654Y-100553723D01*
X87234704Y-100589362D01*
X87246435Y-100628032D01*
X87251000Y-100674388D01*
X87251000Y-101325612D01*
X87246435Y-101371968D01*
X87234704Y-101410638D01*
X87215654Y-101446277D01*
X87190017Y-101477517D01*
X87158777Y-101503154D01*
X87123138Y-101522204D01*
X87084468Y-101533935D01*
X87038112Y-101538500D01*
X85961888Y-101538500D01*
X85915532Y-101533935D01*
X85876862Y-101522204D01*
X85841223Y-101503154D01*
X85809983Y-101477517D01*
X85784346Y-101446277D01*
X85765296Y-101410638D01*
X85753565Y-101371968D01*
X85749000Y-101325612D01*
X85749000Y-100674388D01*
X85753565Y-100628032D01*
X85765296Y-100589362D01*
X85784346Y-100553723D01*
X85809983Y-100522483D01*
X85841223Y-100496846D01*
X85876862Y-100477796D01*
X85915532Y-100466065D01*
X85961888Y-100461500D01*
X87038112Y-100461500D01*
X87084468Y-100466065D01*
G37*
G36*
X82284468Y-100441065D02*
G01*
X82323138Y-100452796D01*
X82358777Y-100471846D01*
X82390017Y-100497483D01*
X82415654Y-100528723D01*
X82434704Y-100564362D01*
X82446435Y-100603032D01*
X82451000Y-100649388D01*
X82451000Y-101300612D01*
X82446435Y-101346968D01*
X82434704Y-101385638D01*
X82415654Y-101421277D01*
X82390017Y-101452517D01*
X82358777Y-101478154D01*
X82323138Y-101497204D01*
X82284468Y-101508935D01*
X82238112Y-101513500D01*
X81161888Y-101513500D01*
X81115532Y-101508935D01*
X81076862Y-101497204D01*
X81041223Y-101478154D01*
X81009983Y-101452517D01*
X80984346Y-101421277D01*
X80965296Y-101385638D01*
X80953565Y-101346968D01*
X80949000Y-101300612D01*
X80949000Y-100649388D01*
X80953565Y-100603032D01*
X80965296Y-100564362D01*
X80984346Y-100528723D01*
X81009983Y-100497483D01*
X81041223Y-100471846D01*
X81076862Y-100452796D01*
X81115532Y-100441065D01*
X81161888Y-100436500D01*
X82238112Y-100436500D01*
X82284468Y-100441065D01*
G37*
G36*
X77584468Y-100403565D02*
G01*
X77623138Y-100415296D01*
X77658777Y-100434346D01*
X77690017Y-100459983D01*
X77715654Y-100491223D01*
X77734704Y-100526862D01*
X77746435Y-100565532D01*
X77751000Y-100611888D01*
X77751000Y-101263112D01*
X77746435Y-101309468D01*
X77734704Y-101348138D01*
X77715654Y-101383777D01*
X77690017Y-101415017D01*
X77658777Y-101440654D01*
X77623138Y-101459704D01*
X77584468Y-101471435D01*
X77538112Y-101476000D01*
X76461888Y-101476000D01*
X76415532Y-101471435D01*
X76376862Y-101459704D01*
X76341223Y-101440654D01*
X76309983Y-101415017D01*
X76284346Y-101383777D01*
X76265296Y-101348138D01*
X76253565Y-101309468D01*
X76249000Y-101263112D01*
X76249000Y-100611888D01*
X76253565Y-100565532D01*
X76265296Y-100526862D01*
X76284346Y-100491223D01*
X76309983Y-100459983D01*
X76341223Y-100434346D01*
X76376862Y-100415296D01*
X76415532Y-100403565D01*
X76461888Y-100399000D01*
X77538112Y-100399000D01*
X77584468Y-100403565D01*
G37*
G36*
X87084468Y-98591065D02*
G01*
X87123138Y-98602796D01*
X87158777Y-98621846D01*
X87190017Y-98647483D01*
X87215654Y-98678723D01*
X87234704Y-98714362D01*
X87246435Y-98753032D01*
X87251000Y-98799388D01*
X87251000Y-99450612D01*
X87246435Y-99496968D01*
X87234704Y-99535638D01*
X87215654Y-99571277D01*
X87190017Y-99602517D01*
X87158777Y-99628154D01*
X87123138Y-99647204D01*
X87084468Y-99658935D01*
X87038112Y-99663500D01*
X85961888Y-99663500D01*
X85915532Y-99658935D01*
X85876862Y-99647204D01*
X85841223Y-99628154D01*
X85809983Y-99602517D01*
X85784346Y-99571277D01*
X85765296Y-99535638D01*
X85753565Y-99496968D01*
X85749000Y-99450612D01*
X85749000Y-98799388D01*
X85753565Y-98753032D01*
X85765296Y-98714362D01*
X85784346Y-98678723D01*
X85809983Y-98647483D01*
X85841223Y-98621846D01*
X85876862Y-98602796D01*
X85915532Y-98591065D01*
X85961888Y-98586500D01*
X87038112Y-98586500D01*
X87084468Y-98591065D01*
G37*
G36*
X82284468Y-98566065D02*
G01*
X82323138Y-98577796D01*
X82358777Y-98596846D01*
X82390017Y-98622483D01*
X82415654Y-98653723D01*
X82434704Y-98689362D01*
X82446435Y-98728032D01*
X82451000Y-98774388D01*
X82451000Y-99425612D01*
X82446435Y-99471968D01*
X82434704Y-99510638D01*
X82415654Y-99546277D01*
X82390017Y-99577517D01*
X82358777Y-99603154D01*
X82323138Y-99622204D01*
X82284468Y-99633935D01*
X82238112Y-99638500D01*
X81161888Y-99638500D01*
X81115532Y-99633935D01*
X81076862Y-99622204D01*
X81041223Y-99603154D01*
X81009983Y-99577517D01*
X80984346Y-99546277D01*
X80965296Y-99510638D01*
X80953565Y-99471968D01*
X80949000Y-99425612D01*
X80949000Y-98774388D01*
X80953565Y-98728032D01*
X80965296Y-98689362D01*
X80984346Y-98653723D01*
X81009983Y-98622483D01*
X81041223Y-98596846D01*
X81076862Y-98577796D01*
X81115532Y-98566065D01*
X81161888Y-98561500D01*
X82238112Y-98561500D01*
X82284468Y-98566065D01*
G37*
G36*
X77584468Y-98528565D02*
G01*
X77623138Y-98540296D01*
X77658777Y-98559346D01*
X77690017Y-98584983D01*
X77715654Y-98616223D01*
X77734704Y-98651862D01*
X77746435Y-98690532D01*
X77751000Y-98736888D01*
X77751000Y-99388112D01*
X77746435Y-99434468D01*
X77734704Y-99473138D01*
X77715654Y-99508777D01*
X77690017Y-99540017D01*
X77658777Y-99565654D01*
X77623138Y-99584704D01*
X77584468Y-99596435D01*
X77538112Y-99601000D01*
X76461888Y-99601000D01*
X76415532Y-99596435D01*
X76376862Y-99584704D01*
X76341223Y-99565654D01*
X76309983Y-99540017D01*
X76284346Y-99508777D01*
X76265296Y-99473138D01*
X76253565Y-99434468D01*
X76249000Y-99388112D01*
X76249000Y-98736888D01*
X76253565Y-98690532D01*
X76265296Y-98651862D01*
X76284346Y-98616223D01*
X76309983Y-98584983D01*
X76341223Y-98559346D01*
X76376862Y-98540296D01*
X76415532Y-98528565D01*
X76461888Y-98524000D01*
X77538112Y-98524000D01*
X77584468Y-98528565D01*
G37*
G36*
X92905355Y-93600083D02*
G01*
X92910029Y-93601501D01*
X92914330Y-93603800D01*
X92920702Y-93609029D01*
X92941076Y-93622643D01*
X92963715Y-93632020D01*
X92987749Y-93636800D01*
X93012253Y-93636800D01*
X93036286Y-93632019D01*
X93058925Y-93622642D01*
X93079298Y-93609029D01*
X93085670Y-93603800D01*
X93089971Y-93601501D01*
X93094645Y-93600083D01*
X93105641Y-93599000D01*
X93394359Y-93599000D01*
X93405355Y-93600083D01*
X93410029Y-93601501D01*
X93414330Y-93603800D01*
X93420702Y-93609029D01*
X93441076Y-93622643D01*
X93463715Y-93632020D01*
X93487749Y-93636800D01*
X93512253Y-93636800D01*
X93536286Y-93632019D01*
X93558925Y-93622642D01*
X93579298Y-93609029D01*
X93585670Y-93603800D01*
X93589971Y-93601501D01*
X93594645Y-93600083D01*
X93605641Y-93599000D01*
X93894359Y-93599000D01*
X93905355Y-93600083D01*
X93910029Y-93601501D01*
X93914330Y-93603800D01*
X93920702Y-93609029D01*
X93941076Y-93622643D01*
X93963715Y-93632020D01*
X93987749Y-93636800D01*
X94012253Y-93636800D01*
X94036286Y-93632019D01*
X94058925Y-93622642D01*
X94079298Y-93609029D01*
X94085670Y-93603800D01*
X94089971Y-93601501D01*
X94094645Y-93600083D01*
X94105641Y-93599000D01*
X94394359Y-93599000D01*
X94405355Y-93600083D01*
X94410029Y-93601501D01*
X94414330Y-93603800D01*
X94420702Y-93609029D01*
X94441076Y-93622643D01*
X94463715Y-93632020D01*
X94487749Y-93636800D01*
X94512253Y-93636800D01*
X94536286Y-93632019D01*
X94558925Y-93622642D01*
X94579298Y-93609029D01*
X94585670Y-93603800D01*
X94589971Y-93601501D01*
X94594645Y-93600083D01*
X94605641Y-93599000D01*
X94894359Y-93599000D01*
X94905355Y-93600083D01*
X94910029Y-93601501D01*
X94914330Y-93603800D01*
X94920702Y-93609029D01*
X94941076Y-93622643D01*
X94963715Y-93632020D01*
X94987749Y-93636800D01*
X95012253Y-93636800D01*
X95036286Y-93632019D01*
X95058925Y-93622642D01*
X95079298Y-93609029D01*
X95085670Y-93603800D01*
X95089971Y-93601501D01*
X95094645Y-93600083D01*
X95105641Y-93599000D01*
X95394359Y-93599000D01*
X95405355Y-93600083D01*
X95410029Y-93601501D01*
X95414331Y-93603800D01*
X95418104Y-93606896D01*
X95421200Y-93610669D01*
X95423499Y-93614971D01*
X95424917Y-93619645D01*
X95426000Y-93630641D01*
X95426000Y-94449001D01*
X95428402Y-94473387D01*
X95435515Y-94496836D01*
X95447066Y-94518447D01*
X95462611Y-94537389D01*
X95481553Y-94552934D01*
X95503164Y-94564485D01*
X95526613Y-94571598D01*
X95550999Y-94574000D01*
X96369359Y-94574000D01*
X96380355Y-94575083D01*
X96385029Y-94576501D01*
X96389331Y-94578800D01*
X96393104Y-94581896D01*
X96396200Y-94585669D01*
X96398499Y-94589971D01*
X96399917Y-94594645D01*
X96401000Y-94605641D01*
X96401000Y-94894359D01*
X96399917Y-94905355D01*
X96398499Y-94910029D01*
X96396200Y-94914330D01*
X96390971Y-94920702D01*
X96377357Y-94941076D01*
X96367980Y-94963715D01*
X96363200Y-94987749D01*
X96363200Y-95012253D01*
X96367981Y-95036286D01*
X96377358Y-95058925D01*
X96390971Y-95079298D01*
X96396200Y-95085670D01*
X96398499Y-95089971D01*
X96399917Y-95094645D01*
X96401000Y-95105641D01*
X96401000Y-95394359D01*
X96399917Y-95405355D01*
X96398499Y-95410029D01*
X96396200Y-95414330D01*
X96390971Y-95420702D01*
X96377357Y-95441076D01*
X96367980Y-95463715D01*
X96363200Y-95487749D01*
X96363200Y-95512253D01*
X96367981Y-95536286D01*
X96377358Y-95558925D01*
X96390971Y-95579298D01*
X96396200Y-95585670D01*
X96398499Y-95589971D01*
X96399917Y-95594645D01*
X96401000Y-95605641D01*
X96401000Y-95894359D01*
X96399917Y-95905355D01*
X96398499Y-95910029D01*
X96396200Y-95914330D01*
X96390971Y-95920702D01*
X96377357Y-95941076D01*
X96367980Y-95963715D01*
X96363200Y-95987749D01*
X96363200Y-96012253D01*
X96367981Y-96036286D01*
X96377358Y-96058925D01*
X96390971Y-96079298D01*
X96396200Y-96085670D01*
X96398499Y-96089971D01*
X96399917Y-96094645D01*
X96401000Y-96105641D01*
X96401000Y-96394359D01*
X96399917Y-96405355D01*
X96398499Y-96410029D01*
X96396200Y-96414330D01*
X96390971Y-96420702D01*
X96377357Y-96441076D01*
X96367980Y-96463715D01*
X96363200Y-96487749D01*
X96363200Y-96512253D01*
X96367981Y-96536286D01*
X96377358Y-96558925D01*
X96390971Y-96579298D01*
X96396200Y-96585670D01*
X96398499Y-96589971D01*
X96399917Y-96594645D01*
X96401000Y-96605641D01*
X96401000Y-96894359D01*
X96399917Y-96905355D01*
X96398499Y-96910029D01*
X96396200Y-96914330D01*
X96390971Y-96920702D01*
X96377357Y-96941076D01*
X96367980Y-96963715D01*
X96363200Y-96987749D01*
X96363200Y-97012253D01*
X96367981Y-97036286D01*
X96377358Y-97058925D01*
X96390971Y-97079298D01*
X96396200Y-97085670D01*
X96398499Y-97089971D01*
X96399917Y-97094645D01*
X96401000Y-97105641D01*
X96401000Y-97394359D01*
X96399917Y-97405355D01*
X96398499Y-97410029D01*
X96396200Y-97414331D01*
X96393104Y-97418104D01*
X96389331Y-97421200D01*
X96385029Y-97423499D01*
X96380355Y-97424917D01*
X96369359Y-97426000D01*
X95550999Y-97426000D01*
X95526613Y-97428402D01*
X95503164Y-97435515D01*
X95481553Y-97447066D01*
X95462611Y-97462611D01*
X95447066Y-97481553D01*
X95435515Y-97503164D01*
X95428402Y-97526613D01*
X95426000Y-97550999D01*
X95426000Y-98369359D01*
X95424917Y-98380355D01*
X95423499Y-98385029D01*
X95421200Y-98389331D01*
X95418104Y-98393104D01*
X95414331Y-98396200D01*
X95410029Y-98398499D01*
X95405355Y-98399917D01*
X95394359Y-98401000D01*
X95105641Y-98401000D01*
X95094645Y-98399917D01*
X95089971Y-98398499D01*
X95085670Y-98396200D01*
X95079298Y-98390971D01*
X95058924Y-98377357D01*
X95036285Y-98367980D01*
X95012251Y-98363200D01*
X94987747Y-98363200D01*
X94963714Y-98367981D01*
X94941075Y-98377358D01*
X94920702Y-98390971D01*
X94914330Y-98396200D01*
X94910029Y-98398499D01*
X94905355Y-98399917D01*
X94894359Y-98401000D01*
X94605641Y-98401000D01*
X94594645Y-98399917D01*
X94589971Y-98398499D01*
X94585670Y-98396200D01*
X94579298Y-98390971D01*
X94558924Y-98377357D01*
X94536285Y-98367980D01*
X94512251Y-98363200D01*
X94487747Y-98363200D01*
X94463714Y-98367981D01*
X94441075Y-98377358D01*
X94420702Y-98390971D01*
X94414330Y-98396200D01*
X94410029Y-98398499D01*
X94405355Y-98399917D01*
X94394359Y-98401000D01*
X94105641Y-98401000D01*
X94094645Y-98399917D01*
X94089971Y-98398499D01*
X94085670Y-98396200D01*
X94079298Y-98390971D01*
X94058924Y-98377357D01*
X94036285Y-98367980D01*
X94012251Y-98363200D01*
X93987747Y-98363200D01*
X93963714Y-98367981D01*
X93941075Y-98377358D01*
X93920702Y-98390971D01*
X93914330Y-98396200D01*
X93910029Y-98398499D01*
X93905355Y-98399917D01*
X93894359Y-98401000D01*
X93605641Y-98401000D01*
X93594645Y-98399917D01*
X93589971Y-98398499D01*
X93585670Y-98396200D01*
X93579298Y-98390971D01*
X93558924Y-98377357D01*
X93536285Y-98367980D01*
X93512251Y-98363200D01*
X93487747Y-98363200D01*
X93463714Y-98367981D01*
X93441075Y-98377358D01*
X93420702Y-98390971D01*
X93414330Y-98396200D01*
X93410029Y-98398499D01*
X93405355Y-98399917D01*
X93394359Y-98401000D01*
X93105641Y-98401000D01*
X93094645Y-98399917D01*
X93089971Y-98398499D01*
X93085670Y-98396200D01*
X93079298Y-98390971D01*
X93058924Y-98377357D01*
X93036285Y-98367980D01*
X93012251Y-98363200D01*
X92987747Y-98363200D01*
X92963714Y-98367981D01*
X92941075Y-98377358D01*
X92920702Y-98390971D01*
X92914330Y-98396200D01*
X92910029Y-98398499D01*
X92905355Y-98399917D01*
X92894359Y-98401000D01*
X92605641Y-98401000D01*
X92594645Y-98399917D01*
X92589971Y-98398499D01*
X92585669Y-98396200D01*
X92581896Y-98393104D01*
X92578800Y-98389331D01*
X92576501Y-98385029D01*
X92575083Y-98380355D01*
X92574000Y-98369359D01*
X92574000Y-97550999D01*
X92571598Y-97526613D01*
X92564485Y-97503164D01*
X92552934Y-97481553D01*
X92537389Y-97462611D01*
X92518447Y-97447066D01*
X92496836Y-97435515D01*
X92473387Y-97428402D01*
X92449001Y-97426000D01*
X91630641Y-97426000D01*
X91619645Y-97424917D01*
X91614971Y-97423499D01*
X91610669Y-97421200D01*
X91606896Y-97418104D01*
X91603800Y-97414331D01*
X91601501Y-97410029D01*
X91600083Y-97405355D01*
X91599000Y-97394359D01*
X91599000Y-97105641D01*
X91600083Y-97094645D01*
X91601501Y-97089971D01*
X91603800Y-97085670D01*
X91609029Y-97079298D01*
X91622643Y-97058924D01*
X91632020Y-97036285D01*
X91636800Y-97012251D01*
X91636800Y-96987747D01*
X91632019Y-96963714D01*
X91622642Y-96941075D01*
X91609029Y-96920702D01*
X91603800Y-96914330D01*
X91601501Y-96910029D01*
X91600083Y-96905355D01*
X91599000Y-96894359D01*
X91599000Y-96605641D01*
X91600083Y-96594645D01*
X91601501Y-96589971D01*
X91603800Y-96585670D01*
X91609029Y-96579298D01*
X91622643Y-96558924D01*
X91632020Y-96536285D01*
X91636800Y-96512251D01*
X91636800Y-96487747D01*
X91632019Y-96463714D01*
X91622642Y-96441075D01*
X91609029Y-96420702D01*
X91603800Y-96414330D01*
X91601501Y-96410029D01*
X91600083Y-96405355D01*
X91599000Y-96394359D01*
X91599000Y-96105641D01*
X91600083Y-96094645D01*
X91601501Y-96089971D01*
X91603800Y-96085670D01*
X91609029Y-96079298D01*
X91622643Y-96058924D01*
X91632020Y-96036285D01*
X91636800Y-96012251D01*
X91636800Y-95987747D01*
X91632019Y-95963714D01*
X91622642Y-95941075D01*
X91609029Y-95920702D01*
X91603800Y-95914330D01*
X91601501Y-95910029D01*
X91600083Y-95905355D01*
X91599000Y-95894359D01*
X91599000Y-95605641D01*
X91600083Y-95594645D01*
X91601501Y-95589971D01*
X91603800Y-95585670D01*
X91609029Y-95579298D01*
X91622643Y-95558924D01*
X91632020Y-95536285D01*
X91636800Y-95512251D01*
X91636800Y-95487747D01*
X91632019Y-95463714D01*
X91622642Y-95441075D01*
X91609029Y-95420702D01*
X91603800Y-95414330D01*
X91601501Y-95410029D01*
X91600083Y-95405355D01*
X91599000Y-95394359D01*
X91599000Y-95105641D01*
X91600083Y-95094645D01*
X91601501Y-95089971D01*
X91603800Y-95085670D01*
X91609029Y-95079298D01*
X91622643Y-95058924D01*
X91632020Y-95036285D01*
X91636800Y-95012251D01*
X91636800Y-94987747D01*
X91632019Y-94963714D01*
X91622642Y-94941075D01*
X91609029Y-94920702D01*
X91603800Y-94914330D01*
X91601501Y-94910029D01*
X91600083Y-94905355D01*
X91599000Y-94894359D01*
X91599000Y-94605641D01*
X91600083Y-94594645D01*
X91601501Y-94589971D01*
X91603800Y-94585669D01*
X91606896Y-94581896D01*
X91610669Y-94578800D01*
X91614971Y-94576501D01*
X91619645Y-94575083D01*
X91630641Y-94574000D01*
X92449001Y-94574000D01*
X92473387Y-94571598D01*
X92496836Y-94564485D01*
X92518447Y-94552934D01*
X92537389Y-94537389D01*
X92552934Y-94518447D01*
X92564485Y-94496836D01*
X92571598Y-94473387D01*
X92574000Y-94449001D01*
X92574000Y-93630641D01*
X92575083Y-93619645D01*
X92576501Y-93614971D01*
X92578800Y-93610669D01*
X92581896Y-93606896D01*
X92585669Y-93603800D01*
X92589971Y-93601501D01*
X92594645Y-93600083D01*
X92605641Y-93599000D01*
X92894359Y-93599000D01*
X92905355Y-93600083D01*
G37*
G36*
X73160721Y-90470174D02*
G01*
X73260995Y-90511709D01*
X73260996Y-90511710D01*
X73351242Y-90572010D01*
X73427990Y-90648758D01*
X73455558Y-90690017D01*
X73488291Y-90739005D01*
X73529826Y-90839279D01*
X73551000Y-90945730D01*
X73551000Y-91054270D01*
X73529826Y-91160721D01*
X73488291Y-91260995D01*
X73488290Y-91260996D01*
X73427990Y-91351242D01*
X73351242Y-91427990D01*
X73305812Y-91458345D01*
X73260995Y-91488291D01*
X73185611Y-91519516D01*
X73164000Y-91531067D01*
X73145059Y-91546612D01*
X73129513Y-91565554D01*
X73117962Y-91587165D01*
X73110849Y-91610614D01*
X73108447Y-91635000D01*
X73110849Y-91659386D01*
X73117962Y-91682835D01*
X73129513Y-91704446D01*
X73145058Y-91723387D01*
X73164000Y-91738933D01*
X73185611Y-91750484D01*
X73260995Y-91781709D01*
X73260996Y-91781710D01*
X73351242Y-91842010D01*
X73427990Y-91918758D01*
X73427991Y-91918760D01*
X73488291Y-92009005D01*
X73529826Y-92109279D01*
X73551000Y-92215730D01*
X73551000Y-92324270D01*
X73529826Y-92430721D01*
X73488291Y-92530995D01*
X73488290Y-92530996D01*
X73427990Y-92621242D01*
X73351242Y-92697990D01*
X73305812Y-92728345D01*
X73260995Y-92758291D01*
X73185611Y-92789516D01*
X73164000Y-92801067D01*
X73145059Y-92816612D01*
X73129513Y-92835554D01*
X73117962Y-92857165D01*
X73110849Y-92880614D01*
X73108447Y-92905000D01*
X73110849Y-92929386D01*
X73117962Y-92952835D01*
X73129513Y-92974446D01*
X73145058Y-92993387D01*
X73164000Y-93008933D01*
X73185611Y-93020484D01*
X73260995Y-93051709D01*
X73260996Y-93051710D01*
X73351242Y-93112010D01*
X73427990Y-93188758D01*
X73427991Y-93188760D01*
X73488291Y-93279005D01*
X73529826Y-93379279D01*
X73551000Y-93485730D01*
X73551000Y-93594270D01*
X73529826Y-93700721D01*
X73488291Y-93800995D01*
X73488290Y-93800996D01*
X73427990Y-93891242D01*
X73351242Y-93967990D01*
X73305812Y-93998345D01*
X73260995Y-94028291D01*
X73160721Y-94069826D01*
X73054270Y-94091000D01*
X72945730Y-94091000D01*
X72839279Y-94069826D01*
X72739005Y-94028291D01*
X72694188Y-93998345D01*
X72648758Y-93967990D01*
X72572010Y-93891242D01*
X72511710Y-93800996D01*
X72511709Y-93800995D01*
X72470174Y-93700721D01*
X72449000Y-93594270D01*
X72449000Y-93485730D01*
X72470174Y-93379279D01*
X72511709Y-93279005D01*
X72572009Y-93188760D01*
X72572010Y-93188758D01*
X72648758Y-93112010D01*
X72739004Y-93051710D01*
X72739005Y-93051709D01*
X72814389Y-93020484D01*
X72836000Y-93008933D01*
X72854941Y-92993388D01*
X72870487Y-92974446D01*
X72882038Y-92952835D01*
X72889151Y-92929386D01*
X72891553Y-92905000D01*
X72889151Y-92880614D01*
X72882038Y-92857165D01*
X72870487Y-92835554D01*
X72854942Y-92816613D01*
X72836000Y-92801067D01*
X72814389Y-92789516D01*
X72739005Y-92758291D01*
X72694188Y-92728345D01*
X72648758Y-92697990D01*
X72572010Y-92621242D01*
X72511710Y-92530996D01*
X72511709Y-92530995D01*
X72470174Y-92430721D01*
X72449000Y-92324270D01*
X72449000Y-92215730D01*
X72470174Y-92109279D01*
X72511709Y-92009005D01*
X72572009Y-91918760D01*
X72572010Y-91918758D01*
X72648758Y-91842010D01*
X72739004Y-91781710D01*
X72739005Y-91781709D01*
X72814389Y-91750484D01*
X72836000Y-91738933D01*
X72854941Y-91723388D01*
X72870487Y-91704446D01*
X72882038Y-91682835D01*
X72889151Y-91659386D01*
X72891553Y-91635000D01*
X72889151Y-91610614D01*
X72882038Y-91587165D01*
X72870487Y-91565554D01*
X72854942Y-91546613D01*
X72836000Y-91531067D01*
X72814389Y-91519516D01*
X72739005Y-91488291D01*
X72694188Y-91458345D01*
X72648758Y-91427990D01*
X72572010Y-91351242D01*
X72511710Y-91260996D01*
X72511709Y-91260995D01*
X72470174Y-91160721D01*
X72449000Y-91054270D01*
X72449000Y-90945730D01*
X72470174Y-90839279D01*
X72511709Y-90739005D01*
X72544442Y-90690017D01*
X72572010Y-90648758D01*
X72648758Y-90572010D01*
X72739004Y-90511710D01*
X72739005Y-90511709D01*
X72839279Y-90470174D01*
X72945730Y-90449000D01*
X73054270Y-90449000D01*
X73160721Y-90470174D01*
G37*
G36*
X92309468Y-90253565D02*
G01*
X92348138Y-90265296D01*
X92383777Y-90284346D01*
X92415017Y-90309983D01*
X92440654Y-90341223D01*
X92459704Y-90376862D01*
X92471435Y-90415532D01*
X92476000Y-90461888D01*
X92476000Y-91538112D01*
X92471435Y-91584468D01*
X92459704Y-91623138D01*
X92440654Y-91658777D01*
X92415017Y-91690017D01*
X92383777Y-91715654D01*
X92348138Y-91734704D01*
X92309468Y-91746435D01*
X92263112Y-91751000D01*
X91611888Y-91751000D01*
X91565532Y-91746435D01*
X91526862Y-91734704D01*
X91491223Y-91715654D01*
X91459983Y-91690017D01*
X91434346Y-91658777D01*
X91415296Y-91623138D01*
X91403565Y-91584468D01*
X91399000Y-91538112D01*
X91399000Y-90461888D01*
X91403565Y-90415532D01*
X91415296Y-90376862D01*
X91434346Y-90341223D01*
X91459983Y-90309983D01*
X91491223Y-90284346D01*
X91526862Y-90265296D01*
X91565532Y-90253565D01*
X91611888Y-90249000D01*
X92263112Y-90249000D01*
X92309468Y-90253565D01*
G37*
G36*
X90434468Y-90253565D02*
G01*
X90473138Y-90265296D01*
X90508777Y-90284346D01*
X90540017Y-90309983D01*
X90565654Y-90341223D01*
X90584704Y-90376862D01*
X90596435Y-90415532D01*
X90601000Y-90461888D01*
X90601000Y-91538112D01*
X90596435Y-91584468D01*
X90584704Y-91623138D01*
X90565654Y-91658777D01*
X90540017Y-91690017D01*
X90508777Y-91715654D01*
X90473138Y-91734704D01*
X90434468Y-91746435D01*
X90388112Y-91751000D01*
X89736888Y-91751000D01*
X89690532Y-91746435D01*
X89651862Y-91734704D01*
X89616223Y-91715654D01*
X89584983Y-91690017D01*
X89559346Y-91658777D01*
X89540296Y-91623138D01*
X89528565Y-91584468D01*
X89524000Y-91538112D01*
X89524000Y-90461888D01*
X89528565Y-90415532D01*
X89540296Y-90376862D01*
X89559346Y-90341223D01*
X89584983Y-90309983D01*
X89616223Y-90284346D01*
X89651862Y-90265296D01*
X89690532Y-90253565D01*
X89736888Y-90249000D01*
X90388112Y-90249000D01*
X90434468Y-90253565D01*
G37*
G36*
X98371968Y-89253565D02*
G01*
X98410638Y-89265296D01*
X98446277Y-89284346D01*
X98477517Y-89309983D01*
X98503154Y-89341223D01*
X98522204Y-89376862D01*
X98533935Y-89415532D01*
X98538500Y-89461888D01*
X98538500Y-90538112D01*
X98533935Y-90584468D01*
X98522204Y-90623138D01*
X98503154Y-90658777D01*
X98477517Y-90690017D01*
X98446277Y-90715654D01*
X98410638Y-90734704D01*
X98371968Y-90746435D01*
X98325612Y-90751000D01*
X97674388Y-90751000D01*
X97628032Y-90746435D01*
X97589362Y-90734704D01*
X97553723Y-90715654D01*
X97522483Y-90690017D01*
X97496846Y-90658777D01*
X97477796Y-90623138D01*
X97466065Y-90584468D01*
X97461500Y-90538112D01*
X97461500Y-89461888D01*
X97466065Y-89415532D01*
X97477796Y-89376862D01*
X97496846Y-89341223D01*
X97522483Y-89309983D01*
X97553723Y-89284346D01*
X97589362Y-89265296D01*
X97628032Y-89253565D01*
X97674388Y-89249000D01*
X98325612Y-89249000D01*
X98371968Y-89253565D01*
G37*
G36*
X96496968Y-89253565D02*
G01*
X96535638Y-89265296D01*
X96571277Y-89284346D01*
X96602517Y-89309983D01*
X96628154Y-89341223D01*
X96647204Y-89376862D01*
X96658935Y-89415532D01*
X96663500Y-89461888D01*
X96663500Y-90538112D01*
X96658935Y-90584468D01*
X96647204Y-90623138D01*
X96628154Y-90658777D01*
X96602517Y-90690017D01*
X96571277Y-90715654D01*
X96535638Y-90734704D01*
X96496968Y-90746435D01*
X96450612Y-90751000D01*
X95799388Y-90751000D01*
X95753032Y-90746435D01*
X95714362Y-90734704D01*
X95678723Y-90715654D01*
X95647483Y-90690017D01*
X95621846Y-90658777D01*
X95602796Y-90623138D01*
X95591065Y-90584468D01*
X95586500Y-90538112D01*
X95586500Y-89461888D01*
X95591065Y-89415532D01*
X95602796Y-89376862D01*
X95621846Y-89341223D01*
X95647483Y-89309983D01*
X95678723Y-89284346D01*
X95714362Y-89265296D01*
X95753032Y-89253565D01*
X95799388Y-89249000D01*
X96450612Y-89249000D01*
X96496968Y-89253565D01*
G37*
G36*
X106309468Y-86253565D02*
G01*
X106348138Y-86265296D01*
X106383777Y-86284346D01*
X106415017Y-86309983D01*
X106440654Y-86341223D01*
X106459704Y-86376862D01*
X106471435Y-86415532D01*
X106476000Y-86461888D01*
X106476000Y-87538112D01*
X106471435Y-87584468D01*
X106459704Y-87623138D01*
X106440654Y-87658777D01*
X106415017Y-87690017D01*
X106383777Y-87715654D01*
X106348138Y-87734704D01*
X106309468Y-87746435D01*
X106263112Y-87751000D01*
X105611888Y-87751000D01*
X105565532Y-87746435D01*
X105526862Y-87734704D01*
X105491223Y-87715654D01*
X105459983Y-87690017D01*
X105434346Y-87658777D01*
X105415296Y-87623138D01*
X105403565Y-87584468D01*
X105399000Y-87538112D01*
X105399000Y-86461888D01*
X105403565Y-86415532D01*
X105415296Y-86376862D01*
X105434346Y-86341223D01*
X105459983Y-86309983D01*
X105491223Y-86284346D01*
X105526862Y-86265296D01*
X105565532Y-86253565D01*
X105611888Y-86249000D01*
X106263112Y-86249000D01*
X106309468Y-86253565D01*
G37*
G36*
X104434468Y-86253565D02*
G01*
X104473138Y-86265296D01*
X104508777Y-86284346D01*
X104540017Y-86309983D01*
X104565654Y-86341223D01*
X104584704Y-86376862D01*
X104596435Y-86415532D01*
X104601000Y-86461888D01*
X104601000Y-87538112D01*
X104596435Y-87584468D01*
X104584704Y-87623138D01*
X104565654Y-87658777D01*
X104540017Y-87690017D01*
X104508777Y-87715654D01*
X104473138Y-87734704D01*
X104434468Y-87746435D01*
X104388112Y-87751000D01*
X103736888Y-87751000D01*
X103690532Y-87746435D01*
X103651862Y-87734704D01*
X103616223Y-87715654D01*
X103584983Y-87690017D01*
X103559346Y-87658777D01*
X103540296Y-87623138D01*
X103528565Y-87584468D01*
X103524000Y-87538112D01*
X103524000Y-86461888D01*
X103528565Y-86415532D01*
X103540296Y-86376862D01*
X103559346Y-86341223D01*
X103584983Y-86309983D01*
X103616223Y-86284346D01*
X103651862Y-86265296D01*
X103690532Y-86253565D01*
X103736888Y-86249000D01*
X104388112Y-86249000D01*
X104434468Y-86253565D01*
G37*
G36*
X96496968Y-84253565D02*
G01*
X96535638Y-84265296D01*
X96571277Y-84284346D01*
X96602517Y-84309983D01*
X96628154Y-84341223D01*
X96647204Y-84376862D01*
X96658935Y-84415532D01*
X96663500Y-84461888D01*
X96663500Y-85538112D01*
X96658935Y-85584468D01*
X96647204Y-85623138D01*
X96628154Y-85658777D01*
X96602517Y-85690017D01*
X96571277Y-85715654D01*
X96535638Y-85734704D01*
X96496968Y-85746435D01*
X96450612Y-85751000D01*
X95799388Y-85751000D01*
X95753032Y-85746435D01*
X95714362Y-85734704D01*
X95678723Y-85715654D01*
X95647483Y-85690017D01*
X95621846Y-85658777D01*
X95602796Y-85623138D01*
X95591065Y-85584468D01*
X95586500Y-85538112D01*
X95586500Y-84461888D01*
X95591065Y-84415532D01*
X95602796Y-84376862D01*
X95621846Y-84341223D01*
X95647483Y-84309983D01*
X95678723Y-84284346D01*
X95714362Y-84265296D01*
X95753032Y-84253565D01*
X95799388Y-84249000D01*
X96450612Y-84249000D01*
X96496968Y-84253565D01*
G37*
G36*
X98371968Y-84253565D02*
G01*
X98410638Y-84265296D01*
X98446277Y-84284346D01*
X98477517Y-84309983D01*
X98503154Y-84341223D01*
X98522204Y-84376862D01*
X98533935Y-84415532D01*
X98538500Y-84461888D01*
X98538500Y-85538112D01*
X98533935Y-85584468D01*
X98522204Y-85623138D01*
X98503154Y-85658777D01*
X98477517Y-85690017D01*
X98446277Y-85715654D01*
X98410638Y-85734704D01*
X98371968Y-85746435D01*
X98325612Y-85751000D01*
X97674388Y-85751000D01*
X97628032Y-85746435D01*
X97589362Y-85734704D01*
X97553723Y-85715654D01*
X97522483Y-85690017D01*
X97496846Y-85658777D01*
X97477796Y-85623138D01*
X97466065Y-85584468D01*
X97461500Y-85538112D01*
X97461500Y-84461888D01*
X97466065Y-84415532D01*
X97477796Y-84376862D01*
X97496846Y-84341223D01*
X97522483Y-84309983D01*
X97553723Y-84284346D01*
X97589362Y-84265296D01*
X97628032Y-84253565D01*
X97674388Y-84249000D01*
X98325612Y-84249000D01*
X98371968Y-84253565D01*
G37*
G36*
X116551000Y-85431000D02*
G01*
X113449000Y-85431000D01*
X113449000Y-82329000D01*
X116551000Y-82329000D01*
X116551000Y-85431000D01*
G37*
G36*
X90871968Y-83316065D02*
G01*
X90910638Y-83327796D01*
X90946277Y-83346846D01*
X90977517Y-83372483D01*
X91003154Y-83403723D01*
X91022204Y-83439362D01*
X91033935Y-83478032D01*
X91038500Y-83524388D01*
X91038500Y-84600612D01*
X91033935Y-84646968D01*
X91022204Y-84685638D01*
X91003154Y-84721277D01*
X90977517Y-84752517D01*
X90946277Y-84778154D01*
X90910638Y-84797204D01*
X90871968Y-84808935D01*
X90825612Y-84813500D01*
X90174388Y-84813500D01*
X90128032Y-84808935D01*
X90089362Y-84797204D01*
X90053723Y-84778154D01*
X90022483Y-84752517D01*
X89996846Y-84721277D01*
X89977796Y-84685638D01*
X89966065Y-84646968D01*
X89961500Y-84600612D01*
X89961500Y-83524388D01*
X89966065Y-83478032D01*
X89977796Y-83439362D01*
X89996846Y-83403723D01*
X90022483Y-83372483D01*
X90053723Y-83346846D01*
X90089362Y-83327796D01*
X90128032Y-83316065D01*
X90174388Y-83311500D01*
X90825612Y-83311500D01*
X90871968Y-83316065D01*
G37*
G36*
X92746968Y-83316065D02*
G01*
X92785638Y-83327796D01*
X92821277Y-83346846D01*
X92852517Y-83372483D01*
X92878154Y-83403723D01*
X92897204Y-83439362D01*
X92908935Y-83478032D01*
X92913500Y-83524388D01*
X92913500Y-84600612D01*
X92908935Y-84646968D01*
X92897204Y-84685638D01*
X92878154Y-84721277D01*
X92852517Y-84752517D01*
X92821277Y-84778154D01*
X92785638Y-84797204D01*
X92746968Y-84808935D01*
X92700612Y-84813500D01*
X92049388Y-84813500D01*
X92003032Y-84808935D01*
X91964362Y-84797204D01*
X91928723Y-84778154D01*
X91897483Y-84752517D01*
X91871846Y-84721277D01*
X91852796Y-84685638D01*
X91841065Y-84646968D01*
X91836500Y-84600612D01*
X91836500Y-83524388D01*
X91841065Y-83478032D01*
X91852796Y-83439362D01*
X91871846Y-83403723D01*
X91897483Y-83372483D01*
X91928723Y-83346846D01*
X91964362Y-83327796D01*
X92003032Y-83316065D01*
X92049388Y-83311500D01*
X92700612Y-83311500D01*
X92746968Y-83316065D01*
G37*
G36*
X85809468Y-83253565D02*
G01*
X85848138Y-83265296D01*
X85883777Y-83284346D01*
X85915017Y-83309983D01*
X85940654Y-83341223D01*
X85959704Y-83376862D01*
X85971435Y-83415532D01*
X85976000Y-83461888D01*
X85976000Y-84538112D01*
X85971435Y-84584468D01*
X85959704Y-84623138D01*
X85940654Y-84658777D01*
X85915017Y-84690017D01*
X85883777Y-84715654D01*
X85848138Y-84734704D01*
X85809468Y-84746435D01*
X85763112Y-84751000D01*
X85111888Y-84751000D01*
X85065532Y-84746435D01*
X85026862Y-84734704D01*
X84991223Y-84715654D01*
X84959983Y-84690017D01*
X84934346Y-84658777D01*
X84915296Y-84623138D01*
X84903565Y-84584468D01*
X84899000Y-84538112D01*
X84899000Y-83461888D01*
X84903565Y-83415532D01*
X84915296Y-83376862D01*
X84934346Y-83341223D01*
X84959983Y-83309983D01*
X84991223Y-83284346D01*
X85026862Y-83265296D01*
X85065532Y-83253565D01*
X85111888Y-83249000D01*
X85763112Y-83249000D01*
X85809468Y-83253565D01*
G37*
G36*
X83934468Y-83253565D02*
G01*
X83973138Y-83265296D01*
X84008777Y-83284346D01*
X84040017Y-83309983D01*
X84065654Y-83341223D01*
X84084704Y-83376862D01*
X84096435Y-83415532D01*
X84101000Y-83461888D01*
X84101000Y-84538112D01*
X84096435Y-84584468D01*
X84084704Y-84623138D01*
X84065654Y-84658777D01*
X84040017Y-84690017D01*
X84008777Y-84715654D01*
X83973138Y-84734704D01*
X83934468Y-84746435D01*
X83888112Y-84751000D01*
X83236888Y-84751000D01*
X83190532Y-84746435D01*
X83151862Y-84734704D01*
X83116223Y-84715654D01*
X83084983Y-84690017D01*
X83059346Y-84658777D01*
X83040296Y-84623138D01*
X83028565Y-84584468D01*
X83024000Y-84538112D01*
X83024000Y-83461888D01*
X83028565Y-83415532D01*
X83040296Y-83376862D01*
X83059346Y-83341223D01*
X83084983Y-83309983D01*
X83116223Y-83284346D01*
X83151862Y-83265296D01*
X83190532Y-83253565D01*
X83236888Y-83249000D01*
X83888112Y-83249000D01*
X83934468Y-83253565D01*
G37*
G36*
X115302585Y-78478802D02*
G01*
X115452410Y-78508604D01*
X115734674Y-78625521D01*
X115988705Y-78795259D01*
X116204741Y-79011295D01*
X116374479Y-79265326D01*
X116491396Y-79547590D01*
X116551000Y-79847240D01*
X116551000Y-80152760D01*
X116491396Y-80452410D01*
X116374479Y-80734674D01*
X116204741Y-80988705D01*
X115988705Y-81204741D01*
X115734674Y-81374479D01*
X115452410Y-81491396D01*
X115302585Y-81521198D01*
X115152761Y-81551000D01*
X114847239Y-81551000D01*
X114697415Y-81521198D01*
X114547590Y-81491396D01*
X114265326Y-81374479D01*
X114011295Y-81204741D01*
X113795259Y-80988705D01*
X113625521Y-80734674D01*
X113508604Y-80452410D01*
X113449000Y-80152760D01*
X113449000Y-79847240D01*
X113508604Y-79547590D01*
X113625521Y-79265326D01*
X113795259Y-79011295D01*
X114011295Y-78795259D01*
X114265326Y-78625521D01*
X114547590Y-78508604D01*
X114697415Y-78478802D01*
X114847239Y-78449000D01*
X115152761Y-78449000D01*
X115302585Y-78478802D01*
G37*
G36*
X103306564Y-77989389D02*
G01*
X103497833Y-78068615D01*
X103497835Y-78068616D01*
X103669973Y-78183635D01*
X103816365Y-78330027D01*
X103931385Y-78502167D01*
X104010611Y-78693436D01*
X104051000Y-78896484D01*
X104051000Y-79103516D01*
X104010611Y-79306564D01*
X103931385Y-79497833D01*
X103931384Y-79497835D01*
X103816365Y-79669973D01*
X103669973Y-79816365D01*
X103497835Y-79931384D01*
X103497834Y-79931385D01*
X103497833Y-79931385D01*
X103306564Y-80010611D01*
X103103516Y-80051000D01*
X102896484Y-80051000D01*
X102693436Y-80010611D01*
X102502167Y-79931385D01*
X102502166Y-79931385D01*
X102502165Y-79931384D01*
X102330027Y-79816365D01*
X102183635Y-79669973D01*
X102068616Y-79497835D01*
X102068615Y-79497833D01*
X101989389Y-79306564D01*
X101949000Y-79103516D01*
X101949000Y-78896484D01*
X101989389Y-78693436D01*
X102068615Y-78502167D01*
X102183635Y-78330027D01*
X102330027Y-78183635D01*
X102502165Y-78068616D01*
X102502167Y-78068615D01*
X102693436Y-77989389D01*
X102896484Y-77949000D01*
X103103516Y-77949000D01*
X103306564Y-77989389D01*
G37*
G36*
X107306564Y-77989389D02*
G01*
X107497833Y-78068615D01*
X107497835Y-78068616D01*
X107669973Y-78183635D01*
X107816365Y-78330027D01*
X107931385Y-78502167D01*
X108010611Y-78693436D01*
X108051000Y-78896484D01*
X108051000Y-79103516D01*
X108010611Y-79306564D01*
X107931385Y-79497833D01*
X107931384Y-79497835D01*
X107816365Y-79669973D01*
X107669973Y-79816365D01*
X107497835Y-79931384D01*
X107497834Y-79931385D01*
X107497833Y-79931385D01*
X107306564Y-80010611D01*
X107103516Y-80051000D01*
X106896484Y-80051000D01*
X106693436Y-80010611D01*
X106502167Y-79931385D01*
X106502166Y-79931385D01*
X106502165Y-79931384D01*
X106330027Y-79816365D01*
X106183635Y-79669973D01*
X106068616Y-79497835D01*
X106068615Y-79497833D01*
X105989389Y-79306564D01*
X105949000Y-79103516D01*
X105949000Y-78896484D01*
X105989389Y-78693436D01*
X106068615Y-78502167D01*
X106183635Y-78330027D01*
X106330027Y-78183635D01*
X106502165Y-78068616D01*
X106502167Y-78068615D01*
X106693436Y-77989389D01*
X106896484Y-77949000D01*
X107103516Y-77949000D01*
X107306564Y-77989389D01*
G37*
G36*
X98051000Y-77051000D02*
G01*
X94949000Y-77051000D01*
X94949000Y-73949000D01*
X98051000Y-73949000D01*
X98051000Y-77051000D01*
G37*
G36*
X92922585Y-73978802D02*
G01*
X93072410Y-74008604D01*
X93354674Y-74125521D01*
X93608705Y-74295259D01*
X93824741Y-74511295D01*
X93994479Y-74765326D01*
X94111396Y-75047590D01*
X94171000Y-75347240D01*
X94171000Y-75652760D01*
X94111396Y-75952410D01*
X93994479Y-76234674D01*
X93824741Y-76488705D01*
X93608705Y-76704741D01*
X93354674Y-76874479D01*
X93072410Y-76991396D01*
X92922585Y-77021198D01*
X92772761Y-77051000D01*
X92467239Y-77051000D01*
X92317415Y-77021198D01*
X92167590Y-76991396D01*
X91885326Y-76874479D01*
X91631295Y-76704741D01*
X91415259Y-76488705D01*
X91245521Y-76234674D01*
X91128604Y-75952410D01*
X91069000Y-75652760D01*
X91069000Y-75347240D01*
X91128604Y-75047590D01*
X91245521Y-74765326D01*
X91415259Y-74511295D01*
X91631295Y-74295259D01*
X91885326Y-74125521D01*
X92167590Y-74008604D01*
X92317415Y-73978802D01*
X92467239Y-73949000D01*
X92772761Y-73949000D01*
X92922585Y-73978802D01*
G37*
G36*
X85051000Y-77051000D02*
G01*
X81949000Y-77051000D01*
X81949000Y-73949000D01*
X85051000Y-73949000D01*
X85051000Y-77051000D01*
G37*
G36*
X79922585Y-73978802D02*
G01*
X80072410Y-74008604D01*
X80354674Y-74125521D01*
X80608705Y-74295259D01*
X80824741Y-74511295D01*
X80994479Y-74765326D01*
X81111396Y-75047590D01*
X81171000Y-75347240D01*
X81171000Y-75652760D01*
X81111396Y-75952410D01*
X80994479Y-76234674D01*
X80824741Y-76488705D01*
X80608705Y-76704741D01*
X80354674Y-76874479D01*
X80072410Y-76991396D01*
X79922585Y-77021198D01*
X79772761Y-77051000D01*
X79467239Y-77051000D01*
X79317415Y-77021198D01*
X79167590Y-76991396D01*
X78885326Y-76874479D01*
X78631295Y-76704741D01*
X78415259Y-76488705D01*
X78245521Y-76234674D01*
X78128604Y-75952410D01*
X78069000Y-75652760D01*
X78069000Y-75347240D01*
X78128604Y-75047590D01*
X78245521Y-74765326D01*
X78415259Y-74511295D01*
X78631295Y-74295259D01*
X78885326Y-74125521D01*
X79167590Y-74008604D01*
X79317415Y-73978802D01*
X79467239Y-73949000D01*
X79772761Y-73949000D01*
X79922585Y-73978802D01*
G37*
M02*
