G04 #@! TF.GenerationSoftware,KiCad,Pcbnew,(5.1.5)-3*
G04 #@! TF.CreationDate,2022-02-08T11:29:21-03:00*
G04 #@! TF.ProjectId,bq24160,62713234-3136-4302-9e6b-696361645f70,rev?*
G04 #@! TF.SameCoordinates,Original*
G04 #@! TF.FileFunction,Copper,L1,Top*
G04 #@! TF.FilePolarity,Positive*
%FSLAX46Y46*%
G04 Gerber Fmt 4.6, Leading zero omitted, Abs format (unit mm)*
G04 Created by KiCad (PCBNEW (5.1.5)-3) date 2022-02-08 11:29:21*
%MOMM*%
%LPD*%
G04 APERTURE LIST*
%ADD10C,3.000000*%
%ADD11R,3.000000X3.000000*%
%ADD12O,1.000000X1.000000*%
%ADD13C,0.100000*%
%ADD14C,2.000000*%
%ADD15C,0.300000*%
%ADD16C,0.250000*%
%ADD17C,1.000000*%
%ADD18C,0.500000*%
%ADD19C,0.350000*%
%ADD20C,0.254000*%
G04 APERTURE END LIST*
D10*
X115000000Y-80000000D03*
D11*
X115000000Y-83880000D03*
D12*
X73000000Y-93540000D03*
X73000000Y-92270000D03*
X73000000Y-91000000D03*
G04 #@! TA.AperFunction,SMDPad,CuDef*
D13*
G36*
X96392642Y-84301174D02*
G01*
X96416303Y-84304684D01*
X96439507Y-84310496D01*
X96462029Y-84318554D01*
X96483653Y-84328782D01*
X96504170Y-84341079D01*
X96523383Y-84355329D01*
X96541107Y-84371393D01*
X96557171Y-84389117D01*
X96571421Y-84408330D01*
X96583718Y-84428847D01*
X96593946Y-84450471D01*
X96602004Y-84472993D01*
X96607816Y-84496197D01*
X96611326Y-84519858D01*
X96612500Y-84543750D01*
X96612500Y-85456250D01*
X96611326Y-85480142D01*
X96607816Y-85503803D01*
X96602004Y-85527007D01*
X96593946Y-85549529D01*
X96583718Y-85571153D01*
X96571421Y-85591670D01*
X96557171Y-85610883D01*
X96541107Y-85628607D01*
X96523383Y-85644671D01*
X96504170Y-85658921D01*
X96483653Y-85671218D01*
X96462029Y-85681446D01*
X96439507Y-85689504D01*
X96416303Y-85695316D01*
X96392642Y-85698826D01*
X96368750Y-85700000D01*
X95881250Y-85700000D01*
X95857358Y-85698826D01*
X95833697Y-85695316D01*
X95810493Y-85689504D01*
X95787971Y-85681446D01*
X95766347Y-85671218D01*
X95745830Y-85658921D01*
X95726617Y-85644671D01*
X95708893Y-85628607D01*
X95692829Y-85610883D01*
X95678579Y-85591670D01*
X95666282Y-85571153D01*
X95656054Y-85549529D01*
X95647996Y-85527007D01*
X95642184Y-85503803D01*
X95638674Y-85480142D01*
X95637500Y-85456250D01*
X95637500Y-84543750D01*
X95638674Y-84519858D01*
X95642184Y-84496197D01*
X95647996Y-84472993D01*
X95656054Y-84450471D01*
X95666282Y-84428847D01*
X95678579Y-84408330D01*
X95692829Y-84389117D01*
X95708893Y-84371393D01*
X95726617Y-84355329D01*
X95745830Y-84341079D01*
X95766347Y-84328782D01*
X95787971Y-84318554D01*
X95810493Y-84310496D01*
X95833697Y-84304684D01*
X95857358Y-84301174D01*
X95881250Y-84300000D01*
X96368750Y-84300000D01*
X96392642Y-84301174D01*
G37*
G04 #@! TD.AperFunction*
G04 #@! TA.AperFunction,SMDPad,CuDef*
G36*
X98267642Y-84301174D02*
G01*
X98291303Y-84304684D01*
X98314507Y-84310496D01*
X98337029Y-84318554D01*
X98358653Y-84328782D01*
X98379170Y-84341079D01*
X98398383Y-84355329D01*
X98416107Y-84371393D01*
X98432171Y-84389117D01*
X98446421Y-84408330D01*
X98458718Y-84428847D01*
X98468946Y-84450471D01*
X98477004Y-84472993D01*
X98482816Y-84496197D01*
X98486326Y-84519858D01*
X98487500Y-84543750D01*
X98487500Y-85456250D01*
X98486326Y-85480142D01*
X98482816Y-85503803D01*
X98477004Y-85527007D01*
X98468946Y-85549529D01*
X98458718Y-85571153D01*
X98446421Y-85591670D01*
X98432171Y-85610883D01*
X98416107Y-85628607D01*
X98398383Y-85644671D01*
X98379170Y-85658921D01*
X98358653Y-85671218D01*
X98337029Y-85681446D01*
X98314507Y-85689504D01*
X98291303Y-85695316D01*
X98267642Y-85698826D01*
X98243750Y-85700000D01*
X97756250Y-85700000D01*
X97732358Y-85698826D01*
X97708697Y-85695316D01*
X97685493Y-85689504D01*
X97662971Y-85681446D01*
X97641347Y-85671218D01*
X97620830Y-85658921D01*
X97601617Y-85644671D01*
X97583893Y-85628607D01*
X97567829Y-85610883D01*
X97553579Y-85591670D01*
X97541282Y-85571153D01*
X97531054Y-85549529D01*
X97522996Y-85527007D01*
X97517184Y-85503803D01*
X97513674Y-85480142D01*
X97512500Y-85456250D01*
X97512500Y-84543750D01*
X97513674Y-84519858D01*
X97517184Y-84496197D01*
X97522996Y-84472993D01*
X97531054Y-84450471D01*
X97541282Y-84428847D01*
X97553579Y-84408330D01*
X97567829Y-84389117D01*
X97583893Y-84371393D01*
X97601617Y-84355329D01*
X97620830Y-84341079D01*
X97641347Y-84328782D01*
X97662971Y-84318554D01*
X97685493Y-84310496D01*
X97708697Y-84304684D01*
X97732358Y-84301174D01*
X97756250Y-84300000D01*
X98243750Y-84300000D01*
X98267642Y-84301174D01*
G37*
G04 #@! TD.AperFunction*
G04 #@! TA.AperFunction,SMDPad,CuDef*
G36*
X92205142Y-90301174D02*
G01*
X92228803Y-90304684D01*
X92252007Y-90310496D01*
X92274529Y-90318554D01*
X92296153Y-90328782D01*
X92316670Y-90341079D01*
X92335883Y-90355329D01*
X92353607Y-90371393D01*
X92369671Y-90389117D01*
X92383921Y-90408330D01*
X92396218Y-90428847D01*
X92406446Y-90450471D01*
X92414504Y-90472993D01*
X92420316Y-90496197D01*
X92423826Y-90519858D01*
X92425000Y-90543750D01*
X92425000Y-91456250D01*
X92423826Y-91480142D01*
X92420316Y-91503803D01*
X92414504Y-91527007D01*
X92406446Y-91549529D01*
X92396218Y-91571153D01*
X92383921Y-91591670D01*
X92369671Y-91610883D01*
X92353607Y-91628607D01*
X92335883Y-91644671D01*
X92316670Y-91658921D01*
X92296153Y-91671218D01*
X92274529Y-91681446D01*
X92252007Y-91689504D01*
X92228803Y-91695316D01*
X92205142Y-91698826D01*
X92181250Y-91700000D01*
X91693750Y-91700000D01*
X91669858Y-91698826D01*
X91646197Y-91695316D01*
X91622993Y-91689504D01*
X91600471Y-91681446D01*
X91578847Y-91671218D01*
X91558330Y-91658921D01*
X91539117Y-91644671D01*
X91521393Y-91628607D01*
X91505329Y-91610883D01*
X91491079Y-91591670D01*
X91478782Y-91571153D01*
X91468554Y-91549529D01*
X91460496Y-91527007D01*
X91454684Y-91503803D01*
X91451174Y-91480142D01*
X91450000Y-91456250D01*
X91450000Y-90543750D01*
X91451174Y-90519858D01*
X91454684Y-90496197D01*
X91460496Y-90472993D01*
X91468554Y-90450471D01*
X91478782Y-90428847D01*
X91491079Y-90408330D01*
X91505329Y-90389117D01*
X91521393Y-90371393D01*
X91539117Y-90355329D01*
X91558330Y-90341079D01*
X91578847Y-90328782D01*
X91600471Y-90318554D01*
X91622993Y-90310496D01*
X91646197Y-90304684D01*
X91669858Y-90301174D01*
X91693750Y-90300000D01*
X92181250Y-90300000D01*
X92205142Y-90301174D01*
G37*
G04 #@! TD.AperFunction*
G04 #@! TA.AperFunction,SMDPad,CuDef*
G36*
X90330142Y-90301174D02*
G01*
X90353803Y-90304684D01*
X90377007Y-90310496D01*
X90399529Y-90318554D01*
X90421153Y-90328782D01*
X90441670Y-90341079D01*
X90460883Y-90355329D01*
X90478607Y-90371393D01*
X90494671Y-90389117D01*
X90508921Y-90408330D01*
X90521218Y-90428847D01*
X90531446Y-90450471D01*
X90539504Y-90472993D01*
X90545316Y-90496197D01*
X90548826Y-90519858D01*
X90550000Y-90543750D01*
X90550000Y-91456250D01*
X90548826Y-91480142D01*
X90545316Y-91503803D01*
X90539504Y-91527007D01*
X90531446Y-91549529D01*
X90521218Y-91571153D01*
X90508921Y-91591670D01*
X90494671Y-91610883D01*
X90478607Y-91628607D01*
X90460883Y-91644671D01*
X90441670Y-91658921D01*
X90421153Y-91671218D01*
X90399529Y-91681446D01*
X90377007Y-91689504D01*
X90353803Y-91695316D01*
X90330142Y-91698826D01*
X90306250Y-91700000D01*
X89818750Y-91700000D01*
X89794858Y-91698826D01*
X89771197Y-91695316D01*
X89747993Y-91689504D01*
X89725471Y-91681446D01*
X89703847Y-91671218D01*
X89683330Y-91658921D01*
X89664117Y-91644671D01*
X89646393Y-91628607D01*
X89630329Y-91610883D01*
X89616079Y-91591670D01*
X89603782Y-91571153D01*
X89593554Y-91549529D01*
X89585496Y-91527007D01*
X89579684Y-91503803D01*
X89576174Y-91480142D01*
X89575000Y-91456250D01*
X89575000Y-90543750D01*
X89576174Y-90519858D01*
X89579684Y-90496197D01*
X89585496Y-90472993D01*
X89593554Y-90450471D01*
X89603782Y-90428847D01*
X89616079Y-90408330D01*
X89630329Y-90389117D01*
X89646393Y-90371393D01*
X89664117Y-90355329D01*
X89683330Y-90341079D01*
X89703847Y-90328782D01*
X89725471Y-90318554D01*
X89747993Y-90310496D01*
X89771197Y-90304684D01*
X89794858Y-90301174D01*
X89818750Y-90300000D01*
X90306250Y-90300000D01*
X90330142Y-90301174D01*
G37*
G04 #@! TD.AperFunction*
G04 #@! TA.AperFunction,SMDPad,CuDef*
G36*
X83830142Y-83301174D02*
G01*
X83853803Y-83304684D01*
X83877007Y-83310496D01*
X83899529Y-83318554D01*
X83921153Y-83328782D01*
X83941670Y-83341079D01*
X83960883Y-83355329D01*
X83978607Y-83371393D01*
X83994671Y-83389117D01*
X84008921Y-83408330D01*
X84021218Y-83428847D01*
X84031446Y-83450471D01*
X84039504Y-83472993D01*
X84045316Y-83496197D01*
X84048826Y-83519858D01*
X84050000Y-83543750D01*
X84050000Y-84456250D01*
X84048826Y-84480142D01*
X84045316Y-84503803D01*
X84039504Y-84527007D01*
X84031446Y-84549529D01*
X84021218Y-84571153D01*
X84008921Y-84591670D01*
X83994671Y-84610883D01*
X83978607Y-84628607D01*
X83960883Y-84644671D01*
X83941670Y-84658921D01*
X83921153Y-84671218D01*
X83899529Y-84681446D01*
X83877007Y-84689504D01*
X83853803Y-84695316D01*
X83830142Y-84698826D01*
X83806250Y-84700000D01*
X83318750Y-84700000D01*
X83294858Y-84698826D01*
X83271197Y-84695316D01*
X83247993Y-84689504D01*
X83225471Y-84681446D01*
X83203847Y-84671218D01*
X83183330Y-84658921D01*
X83164117Y-84644671D01*
X83146393Y-84628607D01*
X83130329Y-84610883D01*
X83116079Y-84591670D01*
X83103782Y-84571153D01*
X83093554Y-84549529D01*
X83085496Y-84527007D01*
X83079684Y-84503803D01*
X83076174Y-84480142D01*
X83075000Y-84456250D01*
X83075000Y-83543750D01*
X83076174Y-83519858D01*
X83079684Y-83496197D01*
X83085496Y-83472993D01*
X83093554Y-83450471D01*
X83103782Y-83428847D01*
X83116079Y-83408330D01*
X83130329Y-83389117D01*
X83146393Y-83371393D01*
X83164117Y-83355329D01*
X83183330Y-83341079D01*
X83203847Y-83328782D01*
X83225471Y-83318554D01*
X83247993Y-83310496D01*
X83271197Y-83304684D01*
X83294858Y-83301174D01*
X83318750Y-83300000D01*
X83806250Y-83300000D01*
X83830142Y-83301174D01*
G37*
G04 #@! TD.AperFunction*
G04 #@! TA.AperFunction,SMDPad,CuDef*
G36*
X85705142Y-83301174D02*
G01*
X85728803Y-83304684D01*
X85752007Y-83310496D01*
X85774529Y-83318554D01*
X85796153Y-83328782D01*
X85816670Y-83341079D01*
X85835883Y-83355329D01*
X85853607Y-83371393D01*
X85869671Y-83389117D01*
X85883921Y-83408330D01*
X85896218Y-83428847D01*
X85906446Y-83450471D01*
X85914504Y-83472993D01*
X85920316Y-83496197D01*
X85923826Y-83519858D01*
X85925000Y-83543750D01*
X85925000Y-84456250D01*
X85923826Y-84480142D01*
X85920316Y-84503803D01*
X85914504Y-84527007D01*
X85906446Y-84549529D01*
X85896218Y-84571153D01*
X85883921Y-84591670D01*
X85869671Y-84610883D01*
X85853607Y-84628607D01*
X85835883Y-84644671D01*
X85816670Y-84658921D01*
X85796153Y-84671218D01*
X85774529Y-84681446D01*
X85752007Y-84689504D01*
X85728803Y-84695316D01*
X85705142Y-84698826D01*
X85681250Y-84700000D01*
X85193750Y-84700000D01*
X85169858Y-84698826D01*
X85146197Y-84695316D01*
X85122993Y-84689504D01*
X85100471Y-84681446D01*
X85078847Y-84671218D01*
X85058330Y-84658921D01*
X85039117Y-84644671D01*
X85021393Y-84628607D01*
X85005329Y-84610883D01*
X84991079Y-84591670D01*
X84978782Y-84571153D01*
X84968554Y-84549529D01*
X84960496Y-84527007D01*
X84954684Y-84503803D01*
X84951174Y-84480142D01*
X84950000Y-84456250D01*
X84950000Y-83543750D01*
X84951174Y-83519858D01*
X84954684Y-83496197D01*
X84960496Y-83472993D01*
X84968554Y-83450471D01*
X84978782Y-83428847D01*
X84991079Y-83408330D01*
X85005329Y-83389117D01*
X85021393Y-83371393D01*
X85039117Y-83355329D01*
X85058330Y-83341079D01*
X85078847Y-83328782D01*
X85100471Y-83318554D01*
X85122993Y-83310496D01*
X85146197Y-83304684D01*
X85169858Y-83301174D01*
X85193750Y-83300000D01*
X85681250Y-83300000D01*
X85705142Y-83301174D01*
G37*
G04 #@! TD.AperFunction*
G04 #@! TA.AperFunction,SMDPad,CuDef*
G36*
X92642642Y-83363674D02*
G01*
X92666303Y-83367184D01*
X92689507Y-83372996D01*
X92712029Y-83381054D01*
X92733653Y-83391282D01*
X92754170Y-83403579D01*
X92773383Y-83417829D01*
X92791107Y-83433893D01*
X92807171Y-83451617D01*
X92821421Y-83470830D01*
X92833718Y-83491347D01*
X92843946Y-83512971D01*
X92852004Y-83535493D01*
X92857816Y-83558697D01*
X92861326Y-83582358D01*
X92862500Y-83606250D01*
X92862500Y-84518750D01*
X92861326Y-84542642D01*
X92857816Y-84566303D01*
X92852004Y-84589507D01*
X92843946Y-84612029D01*
X92833718Y-84633653D01*
X92821421Y-84654170D01*
X92807171Y-84673383D01*
X92791107Y-84691107D01*
X92773383Y-84707171D01*
X92754170Y-84721421D01*
X92733653Y-84733718D01*
X92712029Y-84743946D01*
X92689507Y-84752004D01*
X92666303Y-84757816D01*
X92642642Y-84761326D01*
X92618750Y-84762500D01*
X92131250Y-84762500D01*
X92107358Y-84761326D01*
X92083697Y-84757816D01*
X92060493Y-84752004D01*
X92037971Y-84743946D01*
X92016347Y-84733718D01*
X91995830Y-84721421D01*
X91976617Y-84707171D01*
X91958893Y-84691107D01*
X91942829Y-84673383D01*
X91928579Y-84654170D01*
X91916282Y-84633653D01*
X91906054Y-84612029D01*
X91897996Y-84589507D01*
X91892184Y-84566303D01*
X91888674Y-84542642D01*
X91887500Y-84518750D01*
X91887500Y-83606250D01*
X91888674Y-83582358D01*
X91892184Y-83558697D01*
X91897996Y-83535493D01*
X91906054Y-83512971D01*
X91916282Y-83491347D01*
X91928579Y-83470830D01*
X91942829Y-83451617D01*
X91958893Y-83433893D01*
X91976617Y-83417829D01*
X91995830Y-83403579D01*
X92016347Y-83391282D01*
X92037971Y-83381054D01*
X92060493Y-83372996D01*
X92083697Y-83367184D01*
X92107358Y-83363674D01*
X92131250Y-83362500D01*
X92618750Y-83362500D01*
X92642642Y-83363674D01*
G37*
G04 #@! TD.AperFunction*
G04 #@! TA.AperFunction,SMDPad,CuDef*
G36*
X90767642Y-83363674D02*
G01*
X90791303Y-83367184D01*
X90814507Y-83372996D01*
X90837029Y-83381054D01*
X90858653Y-83391282D01*
X90879170Y-83403579D01*
X90898383Y-83417829D01*
X90916107Y-83433893D01*
X90932171Y-83451617D01*
X90946421Y-83470830D01*
X90958718Y-83491347D01*
X90968946Y-83512971D01*
X90977004Y-83535493D01*
X90982816Y-83558697D01*
X90986326Y-83582358D01*
X90987500Y-83606250D01*
X90987500Y-84518750D01*
X90986326Y-84542642D01*
X90982816Y-84566303D01*
X90977004Y-84589507D01*
X90968946Y-84612029D01*
X90958718Y-84633653D01*
X90946421Y-84654170D01*
X90932171Y-84673383D01*
X90916107Y-84691107D01*
X90898383Y-84707171D01*
X90879170Y-84721421D01*
X90858653Y-84733718D01*
X90837029Y-84743946D01*
X90814507Y-84752004D01*
X90791303Y-84757816D01*
X90767642Y-84761326D01*
X90743750Y-84762500D01*
X90256250Y-84762500D01*
X90232358Y-84761326D01*
X90208697Y-84757816D01*
X90185493Y-84752004D01*
X90162971Y-84743946D01*
X90141347Y-84733718D01*
X90120830Y-84721421D01*
X90101617Y-84707171D01*
X90083893Y-84691107D01*
X90067829Y-84673383D01*
X90053579Y-84654170D01*
X90041282Y-84633653D01*
X90031054Y-84612029D01*
X90022996Y-84589507D01*
X90017184Y-84566303D01*
X90013674Y-84542642D01*
X90012500Y-84518750D01*
X90012500Y-83606250D01*
X90013674Y-83582358D01*
X90017184Y-83558697D01*
X90022996Y-83535493D01*
X90031054Y-83512971D01*
X90041282Y-83491347D01*
X90053579Y-83470830D01*
X90067829Y-83451617D01*
X90083893Y-83433893D01*
X90101617Y-83417829D01*
X90120830Y-83403579D01*
X90141347Y-83391282D01*
X90162971Y-83381054D01*
X90185493Y-83372996D01*
X90208697Y-83367184D01*
X90232358Y-83363674D01*
X90256250Y-83362500D01*
X90743750Y-83362500D01*
X90767642Y-83363674D01*
G37*
G04 #@! TD.AperFunction*
G04 #@! TA.AperFunction,SMDPad,CuDef*
G36*
X98267642Y-89301174D02*
G01*
X98291303Y-89304684D01*
X98314507Y-89310496D01*
X98337029Y-89318554D01*
X98358653Y-89328782D01*
X98379170Y-89341079D01*
X98398383Y-89355329D01*
X98416107Y-89371393D01*
X98432171Y-89389117D01*
X98446421Y-89408330D01*
X98458718Y-89428847D01*
X98468946Y-89450471D01*
X98477004Y-89472993D01*
X98482816Y-89496197D01*
X98486326Y-89519858D01*
X98487500Y-89543750D01*
X98487500Y-90456250D01*
X98486326Y-90480142D01*
X98482816Y-90503803D01*
X98477004Y-90527007D01*
X98468946Y-90549529D01*
X98458718Y-90571153D01*
X98446421Y-90591670D01*
X98432171Y-90610883D01*
X98416107Y-90628607D01*
X98398383Y-90644671D01*
X98379170Y-90658921D01*
X98358653Y-90671218D01*
X98337029Y-90681446D01*
X98314507Y-90689504D01*
X98291303Y-90695316D01*
X98267642Y-90698826D01*
X98243750Y-90700000D01*
X97756250Y-90700000D01*
X97732358Y-90698826D01*
X97708697Y-90695316D01*
X97685493Y-90689504D01*
X97662971Y-90681446D01*
X97641347Y-90671218D01*
X97620830Y-90658921D01*
X97601617Y-90644671D01*
X97583893Y-90628607D01*
X97567829Y-90610883D01*
X97553579Y-90591670D01*
X97541282Y-90571153D01*
X97531054Y-90549529D01*
X97522996Y-90527007D01*
X97517184Y-90503803D01*
X97513674Y-90480142D01*
X97512500Y-90456250D01*
X97512500Y-89543750D01*
X97513674Y-89519858D01*
X97517184Y-89496197D01*
X97522996Y-89472993D01*
X97531054Y-89450471D01*
X97541282Y-89428847D01*
X97553579Y-89408330D01*
X97567829Y-89389117D01*
X97583893Y-89371393D01*
X97601617Y-89355329D01*
X97620830Y-89341079D01*
X97641347Y-89328782D01*
X97662971Y-89318554D01*
X97685493Y-89310496D01*
X97708697Y-89304684D01*
X97732358Y-89301174D01*
X97756250Y-89300000D01*
X98243750Y-89300000D01*
X98267642Y-89301174D01*
G37*
G04 #@! TD.AperFunction*
G04 #@! TA.AperFunction,SMDPad,CuDef*
G36*
X96392642Y-89301174D02*
G01*
X96416303Y-89304684D01*
X96439507Y-89310496D01*
X96462029Y-89318554D01*
X96483653Y-89328782D01*
X96504170Y-89341079D01*
X96523383Y-89355329D01*
X96541107Y-89371393D01*
X96557171Y-89389117D01*
X96571421Y-89408330D01*
X96583718Y-89428847D01*
X96593946Y-89450471D01*
X96602004Y-89472993D01*
X96607816Y-89496197D01*
X96611326Y-89519858D01*
X96612500Y-89543750D01*
X96612500Y-90456250D01*
X96611326Y-90480142D01*
X96607816Y-90503803D01*
X96602004Y-90527007D01*
X96593946Y-90549529D01*
X96583718Y-90571153D01*
X96571421Y-90591670D01*
X96557171Y-90610883D01*
X96541107Y-90628607D01*
X96523383Y-90644671D01*
X96504170Y-90658921D01*
X96483653Y-90671218D01*
X96462029Y-90681446D01*
X96439507Y-90689504D01*
X96416303Y-90695316D01*
X96392642Y-90698826D01*
X96368750Y-90700000D01*
X95881250Y-90700000D01*
X95857358Y-90698826D01*
X95833697Y-90695316D01*
X95810493Y-90689504D01*
X95787971Y-90681446D01*
X95766347Y-90671218D01*
X95745830Y-90658921D01*
X95726617Y-90644671D01*
X95708893Y-90628607D01*
X95692829Y-90610883D01*
X95678579Y-90591670D01*
X95666282Y-90571153D01*
X95656054Y-90549529D01*
X95647996Y-90527007D01*
X95642184Y-90503803D01*
X95638674Y-90480142D01*
X95637500Y-90456250D01*
X95637500Y-89543750D01*
X95638674Y-89519858D01*
X95642184Y-89496197D01*
X95647996Y-89472993D01*
X95656054Y-89450471D01*
X95666282Y-89428847D01*
X95678579Y-89408330D01*
X95692829Y-89389117D01*
X95708893Y-89371393D01*
X95726617Y-89355329D01*
X95745830Y-89341079D01*
X95766347Y-89328782D01*
X95787971Y-89318554D01*
X95810493Y-89310496D01*
X95833697Y-89304684D01*
X95857358Y-89301174D01*
X95881250Y-89300000D01*
X96368750Y-89300000D01*
X96392642Y-89301174D01*
G37*
G04 #@! TD.AperFunction*
G04 #@! TA.AperFunction,SMDPad,CuDef*
G36*
X98205142Y-108301174D02*
G01*
X98228803Y-108304684D01*
X98252007Y-108310496D01*
X98274529Y-108318554D01*
X98296153Y-108328782D01*
X98316670Y-108341079D01*
X98335883Y-108355329D01*
X98353607Y-108371393D01*
X98369671Y-108389117D01*
X98383921Y-108408330D01*
X98396218Y-108428847D01*
X98406446Y-108450471D01*
X98414504Y-108472993D01*
X98420316Y-108496197D01*
X98423826Y-108519858D01*
X98425000Y-108543750D01*
X98425000Y-109456250D01*
X98423826Y-109480142D01*
X98420316Y-109503803D01*
X98414504Y-109527007D01*
X98406446Y-109549529D01*
X98396218Y-109571153D01*
X98383921Y-109591670D01*
X98369671Y-109610883D01*
X98353607Y-109628607D01*
X98335883Y-109644671D01*
X98316670Y-109658921D01*
X98296153Y-109671218D01*
X98274529Y-109681446D01*
X98252007Y-109689504D01*
X98228803Y-109695316D01*
X98205142Y-109698826D01*
X98181250Y-109700000D01*
X97693750Y-109700000D01*
X97669858Y-109698826D01*
X97646197Y-109695316D01*
X97622993Y-109689504D01*
X97600471Y-109681446D01*
X97578847Y-109671218D01*
X97558330Y-109658921D01*
X97539117Y-109644671D01*
X97521393Y-109628607D01*
X97505329Y-109610883D01*
X97491079Y-109591670D01*
X97478782Y-109571153D01*
X97468554Y-109549529D01*
X97460496Y-109527007D01*
X97454684Y-109503803D01*
X97451174Y-109480142D01*
X97450000Y-109456250D01*
X97450000Y-108543750D01*
X97451174Y-108519858D01*
X97454684Y-108496197D01*
X97460496Y-108472993D01*
X97468554Y-108450471D01*
X97478782Y-108428847D01*
X97491079Y-108408330D01*
X97505329Y-108389117D01*
X97521393Y-108371393D01*
X97539117Y-108355329D01*
X97558330Y-108341079D01*
X97578847Y-108328782D01*
X97600471Y-108318554D01*
X97622993Y-108310496D01*
X97646197Y-108304684D01*
X97669858Y-108301174D01*
X97693750Y-108300000D01*
X98181250Y-108300000D01*
X98205142Y-108301174D01*
G37*
G04 #@! TD.AperFunction*
G04 #@! TA.AperFunction,SMDPad,CuDef*
G36*
X96330142Y-108301174D02*
G01*
X96353803Y-108304684D01*
X96377007Y-108310496D01*
X96399529Y-108318554D01*
X96421153Y-108328782D01*
X96441670Y-108341079D01*
X96460883Y-108355329D01*
X96478607Y-108371393D01*
X96494671Y-108389117D01*
X96508921Y-108408330D01*
X96521218Y-108428847D01*
X96531446Y-108450471D01*
X96539504Y-108472993D01*
X96545316Y-108496197D01*
X96548826Y-108519858D01*
X96550000Y-108543750D01*
X96550000Y-109456250D01*
X96548826Y-109480142D01*
X96545316Y-109503803D01*
X96539504Y-109527007D01*
X96531446Y-109549529D01*
X96521218Y-109571153D01*
X96508921Y-109591670D01*
X96494671Y-109610883D01*
X96478607Y-109628607D01*
X96460883Y-109644671D01*
X96441670Y-109658921D01*
X96421153Y-109671218D01*
X96399529Y-109681446D01*
X96377007Y-109689504D01*
X96353803Y-109695316D01*
X96330142Y-109698826D01*
X96306250Y-109700000D01*
X95818750Y-109700000D01*
X95794858Y-109698826D01*
X95771197Y-109695316D01*
X95747993Y-109689504D01*
X95725471Y-109681446D01*
X95703847Y-109671218D01*
X95683330Y-109658921D01*
X95664117Y-109644671D01*
X95646393Y-109628607D01*
X95630329Y-109610883D01*
X95616079Y-109591670D01*
X95603782Y-109571153D01*
X95593554Y-109549529D01*
X95585496Y-109527007D01*
X95579684Y-109503803D01*
X95576174Y-109480142D01*
X95575000Y-109456250D01*
X95575000Y-108543750D01*
X95576174Y-108519858D01*
X95579684Y-108496197D01*
X95585496Y-108472993D01*
X95593554Y-108450471D01*
X95603782Y-108428847D01*
X95616079Y-108408330D01*
X95630329Y-108389117D01*
X95646393Y-108371393D01*
X95664117Y-108355329D01*
X95683330Y-108341079D01*
X95703847Y-108328782D01*
X95725471Y-108318554D01*
X95747993Y-108310496D01*
X95771197Y-108304684D01*
X95794858Y-108301174D01*
X95818750Y-108300000D01*
X96306250Y-108300000D01*
X96330142Y-108301174D01*
G37*
G04 #@! TD.AperFunction*
G04 #@! TA.AperFunction,SMDPad,CuDef*
G36*
X106205142Y-86301174D02*
G01*
X106228803Y-86304684D01*
X106252007Y-86310496D01*
X106274529Y-86318554D01*
X106296153Y-86328782D01*
X106316670Y-86341079D01*
X106335883Y-86355329D01*
X106353607Y-86371393D01*
X106369671Y-86389117D01*
X106383921Y-86408330D01*
X106396218Y-86428847D01*
X106406446Y-86450471D01*
X106414504Y-86472993D01*
X106420316Y-86496197D01*
X106423826Y-86519858D01*
X106425000Y-86543750D01*
X106425000Y-87456250D01*
X106423826Y-87480142D01*
X106420316Y-87503803D01*
X106414504Y-87527007D01*
X106406446Y-87549529D01*
X106396218Y-87571153D01*
X106383921Y-87591670D01*
X106369671Y-87610883D01*
X106353607Y-87628607D01*
X106335883Y-87644671D01*
X106316670Y-87658921D01*
X106296153Y-87671218D01*
X106274529Y-87681446D01*
X106252007Y-87689504D01*
X106228803Y-87695316D01*
X106205142Y-87698826D01*
X106181250Y-87700000D01*
X105693750Y-87700000D01*
X105669858Y-87698826D01*
X105646197Y-87695316D01*
X105622993Y-87689504D01*
X105600471Y-87681446D01*
X105578847Y-87671218D01*
X105558330Y-87658921D01*
X105539117Y-87644671D01*
X105521393Y-87628607D01*
X105505329Y-87610883D01*
X105491079Y-87591670D01*
X105478782Y-87571153D01*
X105468554Y-87549529D01*
X105460496Y-87527007D01*
X105454684Y-87503803D01*
X105451174Y-87480142D01*
X105450000Y-87456250D01*
X105450000Y-86543750D01*
X105451174Y-86519858D01*
X105454684Y-86496197D01*
X105460496Y-86472993D01*
X105468554Y-86450471D01*
X105478782Y-86428847D01*
X105491079Y-86408330D01*
X105505329Y-86389117D01*
X105521393Y-86371393D01*
X105539117Y-86355329D01*
X105558330Y-86341079D01*
X105578847Y-86328782D01*
X105600471Y-86318554D01*
X105622993Y-86310496D01*
X105646197Y-86304684D01*
X105669858Y-86301174D01*
X105693750Y-86300000D01*
X106181250Y-86300000D01*
X106205142Y-86301174D01*
G37*
G04 #@! TD.AperFunction*
G04 #@! TA.AperFunction,SMDPad,CuDef*
G36*
X104330142Y-86301174D02*
G01*
X104353803Y-86304684D01*
X104377007Y-86310496D01*
X104399529Y-86318554D01*
X104421153Y-86328782D01*
X104441670Y-86341079D01*
X104460883Y-86355329D01*
X104478607Y-86371393D01*
X104494671Y-86389117D01*
X104508921Y-86408330D01*
X104521218Y-86428847D01*
X104531446Y-86450471D01*
X104539504Y-86472993D01*
X104545316Y-86496197D01*
X104548826Y-86519858D01*
X104550000Y-86543750D01*
X104550000Y-87456250D01*
X104548826Y-87480142D01*
X104545316Y-87503803D01*
X104539504Y-87527007D01*
X104531446Y-87549529D01*
X104521218Y-87571153D01*
X104508921Y-87591670D01*
X104494671Y-87610883D01*
X104478607Y-87628607D01*
X104460883Y-87644671D01*
X104441670Y-87658921D01*
X104421153Y-87671218D01*
X104399529Y-87681446D01*
X104377007Y-87689504D01*
X104353803Y-87695316D01*
X104330142Y-87698826D01*
X104306250Y-87700000D01*
X103818750Y-87700000D01*
X103794858Y-87698826D01*
X103771197Y-87695316D01*
X103747993Y-87689504D01*
X103725471Y-87681446D01*
X103703847Y-87671218D01*
X103683330Y-87658921D01*
X103664117Y-87644671D01*
X103646393Y-87628607D01*
X103630329Y-87610883D01*
X103616079Y-87591670D01*
X103603782Y-87571153D01*
X103593554Y-87549529D01*
X103585496Y-87527007D01*
X103579684Y-87503803D01*
X103576174Y-87480142D01*
X103575000Y-87456250D01*
X103575000Y-86543750D01*
X103576174Y-86519858D01*
X103579684Y-86496197D01*
X103585496Y-86472993D01*
X103593554Y-86450471D01*
X103603782Y-86428847D01*
X103616079Y-86408330D01*
X103630329Y-86389117D01*
X103646393Y-86371393D01*
X103664117Y-86355329D01*
X103683330Y-86341079D01*
X103703847Y-86328782D01*
X103725471Y-86318554D01*
X103747993Y-86310496D01*
X103771197Y-86304684D01*
X103794858Y-86301174D01*
X103818750Y-86300000D01*
X104306250Y-86300000D01*
X104330142Y-86301174D01*
G37*
G04 #@! TD.AperFunction*
G04 #@! TA.AperFunction,SMDPad,CuDef*
G36*
X86980142Y-100513674D02*
G01*
X87003803Y-100517184D01*
X87027007Y-100522996D01*
X87049529Y-100531054D01*
X87071153Y-100541282D01*
X87091670Y-100553579D01*
X87110883Y-100567829D01*
X87128607Y-100583893D01*
X87144671Y-100601617D01*
X87158921Y-100620830D01*
X87171218Y-100641347D01*
X87181446Y-100662971D01*
X87189504Y-100685493D01*
X87195316Y-100708697D01*
X87198826Y-100732358D01*
X87200000Y-100756250D01*
X87200000Y-101243750D01*
X87198826Y-101267642D01*
X87195316Y-101291303D01*
X87189504Y-101314507D01*
X87181446Y-101337029D01*
X87171218Y-101358653D01*
X87158921Y-101379170D01*
X87144671Y-101398383D01*
X87128607Y-101416107D01*
X87110883Y-101432171D01*
X87091670Y-101446421D01*
X87071153Y-101458718D01*
X87049529Y-101468946D01*
X87027007Y-101477004D01*
X87003803Y-101482816D01*
X86980142Y-101486326D01*
X86956250Y-101487500D01*
X86043750Y-101487500D01*
X86019858Y-101486326D01*
X85996197Y-101482816D01*
X85972993Y-101477004D01*
X85950471Y-101468946D01*
X85928847Y-101458718D01*
X85908330Y-101446421D01*
X85889117Y-101432171D01*
X85871393Y-101416107D01*
X85855329Y-101398383D01*
X85841079Y-101379170D01*
X85828782Y-101358653D01*
X85818554Y-101337029D01*
X85810496Y-101314507D01*
X85804684Y-101291303D01*
X85801174Y-101267642D01*
X85800000Y-101243750D01*
X85800000Y-100756250D01*
X85801174Y-100732358D01*
X85804684Y-100708697D01*
X85810496Y-100685493D01*
X85818554Y-100662971D01*
X85828782Y-100641347D01*
X85841079Y-100620830D01*
X85855329Y-100601617D01*
X85871393Y-100583893D01*
X85889117Y-100567829D01*
X85908330Y-100553579D01*
X85928847Y-100541282D01*
X85950471Y-100531054D01*
X85972993Y-100522996D01*
X85996197Y-100517184D01*
X86019858Y-100513674D01*
X86043750Y-100512500D01*
X86956250Y-100512500D01*
X86980142Y-100513674D01*
G37*
G04 #@! TD.AperFunction*
G04 #@! TA.AperFunction,SMDPad,CuDef*
G36*
X86980142Y-98638674D02*
G01*
X87003803Y-98642184D01*
X87027007Y-98647996D01*
X87049529Y-98656054D01*
X87071153Y-98666282D01*
X87091670Y-98678579D01*
X87110883Y-98692829D01*
X87128607Y-98708893D01*
X87144671Y-98726617D01*
X87158921Y-98745830D01*
X87171218Y-98766347D01*
X87181446Y-98787971D01*
X87189504Y-98810493D01*
X87195316Y-98833697D01*
X87198826Y-98857358D01*
X87200000Y-98881250D01*
X87200000Y-99368750D01*
X87198826Y-99392642D01*
X87195316Y-99416303D01*
X87189504Y-99439507D01*
X87181446Y-99462029D01*
X87171218Y-99483653D01*
X87158921Y-99504170D01*
X87144671Y-99523383D01*
X87128607Y-99541107D01*
X87110883Y-99557171D01*
X87091670Y-99571421D01*
X87071153Y-99583718D01*
X87049529Y-99593946D01*
X87027007Y-99602004D01*
X87003803Y-99607816D01*
X86980142Y-99611326D01*
X86956250Y-99612500D01*
X86043750Y-99612500D01*
X86019858Y-99611326D01*
X85996197Y-99607816D01*
X85972993Y-99602004D01*
X85950471Y-99593946D01*
X85928847Y-99583718D01*
X85908330Y-99571421D01*
X85889117Y-99557171D01*
X85871393Y-99541107D01*
X85855329Y-99523383D01*
X85841079Y-99504170D01*
X85828782Y-99483653D01*
X85818554Y-99462029D01*
X85810496Y-99439507D01*
X85804684Y-99416303D01*
X85801174Y-99392642D01*
X85800000Y-99368750D01*
X85800000Y-98881250D01*
X85801174Y-98857358D01*
X85804684Y-98833697D01*
X85810496Y-98810493D01*
X85818554Y-98787971D01*
X85828782Y-98766347D01*
X85841079Y-98745830D01*
X85855329Y-98726617D01*
X85871393Y-98708893D01*
X85889117Y-98692829D01*
X85908330Y-98678579D01*
X85928847Y-98666282D01*
X85950471Y-98656054D01*
X85972993Y-98647996D01*
X85996197Y-98642184D01*
X86019858Y-98638674D01*
X86043750Y-98637500D01*
X86956250Y-98637500D01*
X86980142Y-98638674D01*
G37*
G04 #@! TD.AperFunction*
D11*
X96500000Y-75500000D03*
D10*
X92620000Y-75500000D03*
X99000000Y-115000000D03*
D11*
X95120000Y-115000000D03*
X83500000Y-75500000D03*
D10*
X79620000Y-75500000D03*
D14*
X107000000Y-79000000D03*
X103000000Y-79000000D03*
G04 #@! TA.AperFunction,SMDPad,CuDef*
D13*
G36*
X92267642Y-102301174D02*
G01*
X92291303Y-102304684D01*
X92314507Y-102310496D01*
X92337029Y-102318554D01*
X92358653Y-102328782D01*
X92379170Y-102341079D01*
X92398383Y-102355329D01*
X92416107Y-102371393D01*
X92432171Y-102389117D01*
X92446421Y-102408330D01*
X92458718Y-102428847D01*
X92468946Y-102450471D01*
X92477004Y-102472993D01*
X92482816Y-102496197D01*
X92486326Y-102519858D01*
X92487500Y-102543750D01*
X92487500Y-103456250D01*
X92486326Y-103480142D01*
X92482816Y-103503803D01*
X92477004Y-103527007D01*
X92468946Y-103549529D01*
X92458718Y-103571153D01*
X92446421Y-103591670D01*
X92432171Y-103610883D01*
X92416107Y-103628607D01*
X92398383Y-103644671D01*
X92379170Y-103658921D01*
X92358653Y-103671218D01*
X92337029Y-103681446D01*
X92314507Y-103689504D01*
X92291303Y-103695316D01*
X92267642Y-103698826D01*
X92243750Y-103700000D01*
X91756250Y-103700000D01*
X91732358Y-103698826D01*
X91708697Y-103695316D01*
X91685493Y-103689504D01*
X91662971Y-103681446D01*
X91641347Y-103671218D01*
X91620830Y-103658921D01*
X91601617Y-103644671D01*
X91583893Y-103628607D01*
X91567829Y-103610883D01*
X91553579Y-103591670D01*
X91541282Y-103571153D01*
X91531054Y-103549529D01*
X91522996Y-103527007D01*
X91517184Y-103503803D01*
X91513674Y-103480142D01*
X91512500Y-103456250D01*
X91512500Y-102543750D01*
X91513674Y-102519858D01*
X91517184Y-102496197D01*
X91522996Y-102472993D01*
X91531054Y-102450471D01*
X91541282Y-102428847D01*
X91553579Y-102408330D01*
X91567829Y-102389117D01*
X91583893Y-102371393D01*
X91601617Y-102355329D01*
X91620830Y-102341079D01*
X91641347Y-102328782D01*
X91662971Y-102318554D01*
X91685493Y-102310496D01*
X91708697Y-102304684D01*
X91732358Y-102301174D01*
X91756250Y-102300000D01*
X92243750Y-102300000D01*
X92267642Y-102301174D01*
G37*
G04 #@! TD.AperFunction*
G04 #@! TA.AperFunction,SMDPad,CuDef*
G36*
X90392642Y-102301174D02*
G01*
X90416303Y-102304684D01*
X90439507Y-102310496D01*
X90462029Y-102318554D01*
X90483653Y-102328782D01*
X90504170Y-102341079D01*
X90523383Y-102355329D01*
X90541107Y-102371393D01*
X90557171Y-102389117D01*
X90571421Y-102408330D01*
X90583718Y-102428847D01*
X90593946Y-102450471D01*
X90602004Y-102472993D01*
X90607816Y-102496197D01*
X90611326Y-102519858D01*
X90612500Y-102543750D01*
X90612500Y-103456250D01*
X90611326Y-103480142D01*
X90607816Y-103503803D01*
X90602004Y-103527007D01*
X90593946Y-103549529D01*
X90583718Y-103571153D01*
X90571421Y-103591670D01*
X90557171Y-103610883D01*
X90541107Y-103628607D01*
X90523383Y-103644671D01*
X90504170Y-103658921D01*
X90483653Y-103671218D01*
X90462029Y-103681446D01*
X90439507Y-103689504D01*
X90416303Y-103695316D01*
X90392642Y-103698826D01*
X90368750Y-103700000D01*
X89881250Y-103700000D01*
X89857358Y-103698826D01*
X89833697Y-103695316D01*
X89810493Y-103689504D01*
X89787971Y-103681446D01*
X89766347Y-103671218D01*
X89745830Y-103658921D01*
X89726617Y-103644671D01*
X89708893Y-103628607D01*
X89692829Y-103610883D01*
X89678579Y-103591670D01*
X89666282Y-103571153D01*
X89656054Y-103549529D01*
X89647996Y-103527007D01*
X89642184Y-103503803D01*
X89638674Y-103480142D01*
X89637500Y-103456250D01*
X89637500Y-102543750D01*
X89638674Y-102519858D01*
X89642184Y-102496197D01*
X89647996Y-102472993D01*
X89656054Y-102450471D01*
X89666282Y-102428847D01*
X89678579Y-102408330D01*
X89692829Y-102389117D01*
X89708893Y-102371393D01*
X89726617Y-102355329D01*
X89745830Y-102341079D01*
X89766347Y-102328782D01*
X89787971Y-102318554D01*
X89810493Y-102310496D01*
X89833697Y-102304684D01*
X89857358Y-102301174D01*
X89881250Y-102300000D01*
X90368750Y-102300000D01*
X90392642Y-102301174D01*
G37*
G04 #@! TD.AperFunction*
G04 #@! TA.AperFunction,SMDPad,CuDef*
G36*
X82180142Y-98613674D02*
G01*
X82203803Y-98617184D01*
X82227007Y-98622996D01*
X82249529Y-98631054D01*
X82271153Y-98641282D01*
X82291670Y-98653579D01*
X82310883Y-98667829D01*
X82328607Y-98683893D01*
X82344671Y-98701617D01*
X82358921Y-98720830D01*
X82371218Y-98741347D01*
X82381446Y-98762971D01*
X82389504Y-98785493D01*
X82395316Y-98808697D01*
X82398826Y-98832358D01*
X82400000Y-98856250D01*
X82400000Y-99343750D01*
X82398826Y-99367642D01*
X82395316Y-99391303D01*
X82389504Y-99414507D01*
X82381446Y-99437029D01*
X82371218Y-99458653D01*
X82358921Y-99479170D01*
X82344671Y-99498383D01*
X82328607Y-99516107D01*
X82310883Y-99532171D01*
X82291670Y-99546421D01*
X82271153Y-99558718D01*
X82249529Y-99568946D01*
X82227007Y-99577004D01*
X82203803Y-99582816D01*
X82180142Y-99586326D01*
X82156250Y-99587500D01*
X81243750Y-99587500D01*
X81219858Y-99586326D01*
X81196197Y-99582816D01*
X81172993Y-99577004D01*
X81150471Y-99568946D01*
X81128847Y-99558718D01*
X81108330Y-99546421D01*
X81089117Y-99532171D01*
X81071393Y-99516107D01*
X81055329Y-99498383D01*
X81041079Y-99479170D01*
X81028782Y-99458653D01*
X81018554Y-99437029D01*
X81010496Y-99414507D01*
X81004684Y-99391303D01*
X81001174Y-99367642D01*
X81000000Y-99343750D01*
X81000000Y-98856250D01*
X81001174Y-98832358D01*
X81004684Y-98808697D01*
X81010496Y-98785493D01*
X81018554Y-98762971D01*
X81028782Y-98741347D01*
X81041079Y-98720830D01*
X81055329Y-98701617D01*
X81071393Y-98683893D01*
X81089117Y-98667829D01*
X81108330Y-98653579D01*
X81128847Y-98641282D01*
X81150471Y-98631054D01*
X81172993Y-98622996D01*
X81196197Y-98617184D01*
X81219858Y-98613674D01*
X81243750Y-98612500D01*
X82156250Y-98612500D01*
X82180142Y-98613674D01*
G37*
G04 #@! TD.AperFunction*
G04 #@! TA.AperFunction,SMDPad,CuDef*
G36*
X82180142Y-100488674D02*
G01*
X82203803Y-100492184D01*
X82227007Y-100497996D01*
X82249529Y-100506054D01*
X82271153Y-100516282D01*
X82291670Y-100528579D01*
X82310883Y-100542829D01*
X82328607Y-100558893D01*
X82344671Y-100576617D01*
X82358921Y-100595830D01*
X82371218Y-100616347D01*
X82381446Y-100637971D01*
X82389504Y-100660493D01*
X82395316Y-100683697D01*
X82398826Y-100707358D01*
X82400000Y-100731250D01*
X82400000Y-101218750D01*
X82398826Y-101242642D01*
X82395316Y-101266303D01*
X82389504Y-101289507D01*
X82381446Y-101312029D01*
X82371218Y-101333653D01*
X82358921Y-101354170D01*
X82344671Y-101373383D01*
X82328607Y-101391107D01*
X82310883Y-101407171D01*
X82291670Y-101421421D01*
X82271153Y-101433718D01*
X82249529Y-101443946D01*
X82227007Y-101452004D01*
X82203803Y-101457816D01*
X82180142Y-101461326D01*
X82156250Y-101462500D01*
X81243750Y-101462500D01*
X81219858Y-101461326D01*
X81196197Y-101457816D01*
X81172993Y-101452004D01*
X81150471Y-101443946D01*
X81128847Y-101433718D01*
X81108330Y-101421421D01*
X81089117Y-101407171D01*
X81071393Y-101391107D01*
X81055329Y-101373383D01*
X81041079Y-101354170D01*
X81028782Y-101333653D01*
X81018554Y-101312029D01*
X81010496Y-101289507D01*
X81004684Y-101266303D01*
X81001174Y-101242642D01*
X81000000Y-101218750D01*
X81000000Y-100731250D01*
X81001174Y-100707358D01*
X81004684Y-100683697D01*
X81010496Y-100660493D01*
X81018554Y-100637971D01*
X81028782Y-100616347D01*
X81041079Y-100595830D01*
X81055329Y-100576617D01*
X81071393Y-100558893D01*
X81089117Y-100542829D01*
X81108330Y-100528579D01*
X81128847Y-100516282D01*
X81150471Y-100506054D01*
X81172993Y-100497996D01*
X81196197Y-100492184D01*
X81219858Y-100488674D01*
X81243750Y-100487500D01*
X82156250Y-100487500D01*
X82180142Y-100488674D01*
G37*
G04 #@! TD.AperFunction*
G04 #@! TA.AperFunction,SMDPad,CuDef*
G36*
X77480142Y-98576174D02*
G01*
X77503803Y-98579684D01*
X77527007Y-98585496D01*
X77549529Y-98593554D01*
X77571153Y-98603782D01*
X77591670Y-98616079D01*
X77610883Y-98630329D01*
X77628607Y-98646393D01*
X77644671Y-98664117D01*
X77658921Y-98683330D01*
X77671218Y-98703847D01*
X77681446Y-98725471D01*
X77689504Y-98747993D01*
X77695316Y-98771197D01*
X77698826Y-98794858D01*
X77700000Y-98818750D01*
X77700000Y-99306250D01*
X77698826Y-99330142D01*
X77695316Y-99353803D01*
X77689504Y-99377007D01*
X77681446Y-99399529D01*
X77671218Y-99421153D01*
X77658921Y-99441670D01*
X77644671Y-99460883D01*
X77628607Y-99478607D01*
X77610883Y-99494671D01*
X77591670Y-99508921D01*
X77571153Y-99521218D01*
X77549529Y-99531446D01*
X77527007Y-99539504D01*
X77503803Y-99545316D01*
X77480142Y-99548826D01*
X77456250Y-99550000D01*
X76543750Y-99550000D01*
X76519858Y-99548826D01*
X76496197Y-99545316D01*
X76472993Y-99539504D01*
X76450471Y-99531446D01*
X76428847Y-99521218D01*
X76408330Y-99508921D01*
X76389117Y-99494671D01*
X76371393Y-99478607D01*
X76355329Y-99460883D01*
X76341079Y-99441670D01*
X76328782Y-99421153D01*
X76318554Y-99399529D01*
X76310496Y-99377007D01*
X76304684Y-99353803D01*
X76301174Y-99330142D01*
X76300000Y-99306250D01*
X76300000Y-98818750D01*
X76301174Y-98794858D01*
X76304684Y-98771197D01*
X76310496Y-98747993D01*
X76318554Y-98725471D01*
X76328782Y-98703847D01*
X76341079Y-98683330D01*
X76355329Y-98664117D01*
X76371393Y-98646393D01*
X76389117Y-98630329D01*
X76408330Y-98616079D01*
X76428847Y-98603782D01*
X76450471Y-98593554D01*
X76472993Y-98585496D01*
X76496197Y-98579684D01*
X76519858Y-98576174D01*
X76543750Y-98575000D01*
X77456250Y-98575000D01*
X77480142Y-98576174D01*
G37*
G04 #@! TD.AperFunction*
G04 #@! TA.AperFunction,SMDPad,CuDef*
G36*
X77480142Y-100451174D02*
G01*
X77503803Y-100454684D01*
X77527007Y-100460496D01*
X77549529Y-100468554D01*
X77571153Y-100478782D01*
X77591670Y-100491079D01*
X77610883Y-100505329D01*
X77628607Y-100521393D01*
X77644671Y-100539117D01*
X77658921Y-100558330D01*
X77671218Y-100578847D01*
X77681446Y-100600471D01*
X77689504Y-100622993D01*
X77695316Y-100646197D01*
X77698826Y-100669858D01*
X77700000Y-100693750D01*
X77700000Y-101181250D01*
X77698826Y-101205142D01*
X77695316Y-101228803D01*
X77689504Y-101252007D01*
X77681446Y-101274529D01*
X77671218Y-101296153D01*
X77658921Y-101316670D01*
X77644671Y-101335883D01*
X77628607Y-101353607D01*
X77610883Y-101369671D01*
X77591670Y-101383921D01*
X77571153Y-101396218D01*
X77549529Y-101406446D01*
X77527007Y-101414504D01*
X77503803Y-101420316D01*
X77480142Y-101423826D01*
X77456250Y-101425000D01*
X76543750Y-101425000D01*
X76519858Y-101423826D01*
X76496197Y-101420316D01*
X76472993Y-101414504D01*
X76450471Y-101406446D01*
X76428847Y-101396218D01*
X76408330Y-101383921D01*
X76389117Y-101369671D01*
X76371393Y-101353607D01*
X76355329Y-101335883D01*
X76341079Y-101316670D01*
X76328782Y-101296153D01*
X76318554Y-101274529D01*
X76310496Y-101252007D01*
X76304684Y-101228803D01*
X76301174Y-101205142D01*
X76300000Y-101181250D01*
X76300000Y-100693750D01*
X76301174Y-100669858D01*
X76304684Y-100646197D01*
X76310496Y-100622993D01*
X76318554Y-100600471D01*
X76328782Y-100578847D01*
X76341079Y-100558330D01*
X76355329Y-100539117D01*
X76371393Y-100521393D01*
X76389117Y-100505329D01*
X76408330Y-100491079D01*
X76428847Y-100478782D01*
X76450471Y-100468554D01*
X76472993Y-100460496D01*
X76496197Y-100454684D01*
X76519858Y-100451174D01*
X76543750Y-100450000D01*
X77456250Y-100450000D01*
X77480142Y-100451174D01*
G37*
G04 #@! TD.AperFunction*
G04 #@! TA.AperFunction,SMDPad,CuDef*
G36*
X95074865Y-94701202D02*
G01*
X95099095Y-94704796D01*
X95122855Y-94710748D01*
X95145918Y-94719000D01*
X95168061Y-94729472D01*
X95189070Y-94742065D01*
X95208745Y-94756657D01*
X95226894Y-94773106D01*
X95243343Y-94791255D01*
X95257935Y-94810930D01*
X95270528Y-94831939D01*
X95281000Y-94854082D01*
X95289252Y-94877145D01*
X95295204Y-94900905D01*
X95298798Y-94925135D01*
X95300000Y-94949600D01*
X95300000Y-97050400D01*
X95298798Y-97074865D01*
X95295204Y-97099095D01*
X95289252Y-97122855D01*
X95281000Y-97145918D01*
X95270528Y-97168061D01*
X95257935Y-97189070D01*
X95243343Y-97208745D01*
X95226894Y-97226894D01*
X95208745Y-97243343D01*
X95189070Y-97257935D01*
X95168061Y-97270528D01*
X95145918Y-97281000D01*
X95122855Y-97289252D01*
X95099095Y-97295204D01*
X95074865Y-97298798D01*
X95050400Y-97300000D01*
X92949600Y-97300000D01*
X92925135Y-97298798D01*
X92900905Y-97295204D01*
X92877145Y-97289252D01*
X92854082Y-97281000D01*
X92831939Y-97270528D01*
X92810930Y-97257935D01*
X92791255Y-97243343D01*
X92773106Y-97226894D01*
X92756657Y-97208745D01*
X92742065Y-97189070D01*
X92729472Y-97168061D01*
X92719000Y-97145918D01*
X92710748Y-97122855D01*
X92704796Y-97099095D01*
X92701202Y-97074865D01*
X92700000Y-97050400D01*
X92700000Y-94949600D01*
X92701202Y-94925135D01*
X92704796Y-94900905D01*
X92710748Y-94877145D01*
X92719000Y-94854082D01*
X92729472Y-94831939D01*
X92742065Y-94810930D01*
X92756657Y-94791255D01*
X92773106Y-94773106D01*
X92791255Y-94756657D01*
X92810930Y-94742065D01*
X92831939Y-94729472D01*
X92854082Y-94719000D01*
X92877145Y-94710748D01*
X92900905Y-94704796D01*
X92925135Y-94701202D01*
X92949600Y-94700000D01*
X95050400Y-94700000D01*
X95074865Y-94701202D01*
G37*
G04 #@! TD.AperFunction*
G04 #@! TA.AperFunction,SMDPad,CuDef*
G36*
X92418626Y-94625301D02*
G01*
X92424693Y-94626201D01*
X92430643Y-94627691D01*
X92436418Y-94629758D01*
X92441962Y-94632380D01*
X92447223Y-94635533D01*
X92452150Y-94639187D01*
X92456694Y-94643306D01*
X92460813Y-94647850D01*
X92464467Y-94652777D01*
X92467620Y-94658038D01*
X92470242Y-94663582D01*
X92472309Y-94669357D01*
X92473799Y-94675307D01*
X92474699Y-94681374D01*
X92475000Y-94687500D01*
X92475000Y-94812500D01*
X92474699Y-94818626D01*
X92473799Y-94824693D01*
X92472309Y-94830643D01*
X92470242Y-94836418D01*
X92467620Y-94841962D01*
X92464467Y-94847223D01*
X92460813Y-94852150D01*
X92456694Y-94856694D01*
X92452150Y-94860813D01*
X92447223Y-94864467D01*
X92441962Y-94867620D01*
X92436418Y-94870242D01*
X92430643Y-94872309D01*
X92424693Y-94873799D01*
X92418626Y-94874699D01*
X92412500Y-94875000D01*
X91712500Y-94875000D01*
X91706374Y-94874699D01*
X91700307Y-94873799D01*
X91694357Y-94872309D01*
X91688582Y-94870242D01*
X91683038Y-94867620D01*
X91677777Y-94864467D01*
X91672850Y-94860813D01*
X91668306Y-94856694D01*
X91664187Y-94852150D01*
X91660533Y-94847223D01*
X91657380Y-94841962D01*
X91654758Y-94836418D01*
X91652691Y-94830643D01*
X91651201Y-94824693D01*
X91650301Y-94818626D01*
X91650000Y-94812500D01*
X91650000Y-94687500D01*
X91650301Y-94681374D01*
X91651201Y-94675307D01*
X91652691Y-94669357D01*
X91654758Y-94663582D01*
X91657380Y-94658038D01*
X91660533Y-94652777D01*
X91664187Y-94647850D01*
X91668306Y-94643306D01*
X91672850Y-94639187D01*
X91677777Y-94635533D01*
X91683038Y-94632380D01*
X91688582Y-94629758D01*
X91694357Y-94627691D01*
X91700307Y-94626201D01*
X91706374Y-94625301D01*
X91712500Y-94625000D01*
X92412500Y-94625000D01*
X92418626Y-94625301D01*
G37*
G04 #@! TD.AperFunction*
G04 #@! TA.AperFunction,SMDPad,CuDef*
G36*
X92418626Y-95125301D02*
G01*
X92424693Y-95126201D01*
X92430643Y-95127691D01*
X92436418Y-95129758D01*
X92441962Y-95132380D01*
X92447223Y-95135533D01*
X92452150Y-95139187D01*
X92456694Y-95143306D01*
X92460813Y-95147850D01*
X92464467Y-95152777D01*
X92467620Y-95158038D01*
X92470242Y-95163582D01*
X92472309Y-95169357D01*
X92473799Y-95175307D01*
X92474699Y-95181374D01*
X92475000Y-95187500D01*
X92475000Y-95312500D01*
X92474699Y-95318626D01*
X92473799Y-95324693D01*
X92472309Y-95330643D01*
X92470242Y-95336418D01*
X92467620Y-95341962D01*
X92464467Y-95347223D01*
X92460813Y-95352150D01*
X92456694Y-95356694D01*
X92452150Y-95360813D01*
X92447223Y-95364467D01*
X92441962Y-95367620D01*
X92436418Y-95370242D01*
X92430643Y-95372309D01*
X92424693Y-95373799D01*
X92418626Y-95374699D01*
X92412500Y-95375000D01*
X91712500Y-95375000D01*
X91706374Y-95374699D01*
X91700307Y-95373799D01*
X91694357Y-95372309D01*
X91688582Y-95370242D01*
X91683038Y-95367620D01*
X91677777Y-95364467D01*
X91672850Y-95360813D01*
X91668306Y-95356694D01*
X91664187Y-95352150D01*
X91660533Y-95347223D01*
X91657380Y-95341962D01*
X91654758Y-95336418D01*
X91652691Y-95330643D01*
X91651201Y-95324693D01*
X91650301Y-95318626D01*
X91650000Y-95312500D01*
X91650000Y-95187500D01*
X91650301Y-95181374D01*
X91651201Y-95175307D01*
X91652691Y-95169357D01*
X91654758Y-95163582D01*
X91657380Y-95158038D01*
X91660533Y-95152777D01*
X91664187Y-95147850D01*
X91668306Y-95143306D01*
X91672850Y-95139187D01*
X91677777Y-95135533D01*
X91683038Y-95132380D01*
X91688582Y-95129758D01*
X91694357Y-95127691D01*
X91700307Y-95126201D01*
X91706374Y-95125301D01*
X91712500Y-95125000D01*
X92412500Y-95125000D01*
X92418626Y-95125301D01*
G37*
G04 #@! TD.AperFunction*
G04 #@! TA.AperFunction,SMDPad,CuDef*
G36*
X92418626Y-95625301D02*
G01*
X92424693Y-95626201D01*
X92430643Y-95627691D01*
X92436418Y-95629758D01*
X92441962Y-95632380D01*
X92447223Y-95635533D01*
X92452150Y-95639187D01*
X92456694Y-95643306D01*
X92460813Y-95647850D01*
X92464467Y-95652777D01*
X92467620Y-95658038D01*
X92470242Y-95663582D01*
X92472309Y-95669357D01*
X92473799Y-95675307D01*
X92474699Y-95681374D01*
X92475000Y-95687500D01*
X92475000Y-95812500D01*
X92474699Y-95818626D01*
X92473799Y-95824693D01*
X92472309Y-95830643D01*
X92470242Y-95836418D01*
X92467620Y-95841962D01*
X92464467Y-95847223D01*
X92460813Y-95852150D01*
X92456694Y-95856694D01*
X92452150Y-95860813D01*
X92447223Y-95864467D01*
X92441962Y-95867620D01*
X92436418Y-95870242D01*
X92430643Y-95872309D01*
X92424693Y-95873799D01*
X92418626Y-95874699D01*
X92412500Y-95875000D01*
X91712500Y-95875000D01*
X91706374Y-95874699D01*
X91700307Y-95873799D01*
X91694357Y-95872309D01*
X91688582Y-95870242D01*
X91683038Y-95867620D01*
X91677777Y-95864467D01*
X91672850Y-95860813D01*
X91668306Y-95856694D01*
X91664187Y-95852150D01*
X91660533Y-95847223D01*
X91657380Y-95841962D01*
X91654758Y-95836418D01*
X91652691Y-95830643D01*
X91651201Y-95824693D01*
X91650301Y-95818626D01*
X91650000Y-95812500D01*
X91650000Y-95687500D01*
X91650301Y-95681374D01*
X91651201Y-95675307D01*
X91652691Y-95669357D01*
X91654758Y-95663582D01*
X91657380Y-95658038D01*
X91660533Y-95652777D01*
X91664187Y-95647850D01*
X91668306Y-95643306D01*
X91672850Y-95639187D01*
X91677777Y-95635533D01*
X91683038Y-95632380D01*
X91688582Y-95629758D01*
X91694357Y-95627691D01*
X91700307Y-95626201D01*
X91706374Y-95625301D01*
X91712500Y-95625000D01*
X92412500Y-95625000D01*
X92418626Y-95625301D01*
G37*
G04 #@! TD.AperFunction*
G04 #@! TA.AperFunction,SMDPad,CuDef*
G36*
X92418626Y-96125301D02*
G01*
X92424693Y-96126201D01*
X92430643Y-96127691D01*
X92436418Y-96129758D01*
X92441962Y-96132380D01*
X92447223Y-96135533D01*
X92452150Y-96139187D01*
X92456694Y-96143306D01*
X92460813Y-96147850D01*
X92464467Y-96152777D01*
X92467620Y-96158038D01*
X92470242Y-96163582D01*
X92472309Y-96169357D01*
X92473799Y-96175307D01*
X92474699Y-96181374D01*
X92475000Y-96187500D01*
X92475000Y-96312500D01*
X92474699Y-96318626D01*
X92473799Y-96324693D01*
X92472309Y-96330643D01*
X92470242Y-96336418D01*
X92467620Y-96341962D01*
X92464467Y-96347223D01*
X92460813Y-96352150D01*
X92456694Y-96356694D01*
X92452150Y-96360813D01*
X92447223Y-96364467D01*
X92441962Y-96367620D01*
X92436418Y-96370242D01*
X92430643Y-96372309D01*
X92424693Y-96373799D01*
X92418626Y-96374699D01*
X92412500Y-96375000D01*
X91712500Y-96375000D01*
X91706374Y-96374699D01*
X91700307Y-96373799D01*
X91694357Y-96372309D01*
X91688582Y-96370242D01*
X91683038Y-96367620D01*
X91677777Y-96364467D01*
X91672850Y-96360813D01*
X91668306Y-96356694D01*
X91664187Y-96352150D01*
X91660533Y-96347223D01*
X91657380Y-96341962D01*
X91654758Y-96336418D01*
X91652691Y-96330643D01*
X91651201Y-96324693D01*
X91650301Y-96318626D01*
X91650000Y-96312500D01*
X91650000Y-96187500D01*
X91650301Y-96181374D01*
X91651201Y-96175307D01*
X91652691Y-96169357D01*
X91654758Y-96163582D01*
X91657380Y-96158038D01*
X91660533Y-96152777D01*
X91664187Y-96147850D01*
X91668306Y-96143306D01*
X91672850Y-96139187D01*
X91677777Y-96135533D01*
X91683038Y-96132380D01*
X91688582Y-96129758D01*
X91694357Y-96127691D01*
X91700307Y-96126201D01*
X91706374Y-96125301D01*
X91712500Y-96125000D01*
X92412500Y-96125000D01*
X92418626Y-96125301D01*
G37*
G04 #@! TD.AperFunction*
G04 #@! TA.AperFunction,SMDPad,CuDef*
G36*
X92418626Y-96625301D02*
G01*
X92424693Y-96626201D01*
X92430643Y-96627691D01*
X92436418Y-96629758D01*
X92441962Y-96632380D01*
X92447223Y-96635533D01*
X92452150Y-96639187D01*
X92456694Y-96643306D01*
X92460813Y-96647850D01*
X92464467Y-96652777D01*
X92467620Y-96658038D01*
X92470242Y-96663582D01*
X92472309Y-96669357D01*
X92473799Y-96675307D01*
X92474699Y-96681374D01*
X92475000Y-96687500D01*
X92475000Y-96812500D01*
X92474699Y-96818626D01*
X92473799Y-96824693D01*
X92472309Y-96830643D01*
X92470242Y-96836418D01*
X92467620Y-96841962D01*
X92464467Y-96847223D01*
X92460813Y-96852150D01*
X92456694Y-96856694D01*
X92452150Y-96860813D01*
X92447223Y-96864467D01*
X92441962Y-96867620D01*
X92436418Y-96870242D01*
X92430643Y-96872309D01*
X92424693Y-96873799D01*
X92418626Y-96874699D01*
X92412500Y-96875000D01*
X91712500Y-96875000D01*
X91706374Y-96874699D01*
X91700307Y-96873799D01*
X91694357Y-96872309D01*
X91688582Y-96870242D01*
X91683038Y-96867620D01*
X91677777Y-96864467D01*
X91672850Y-96860813D01*
X91668306Y-96856694D01*
X91664187Y-96852150D01*
X91660533Y-96847223D01*
X91657380Y-96841962D01*
X91654758Y-96836418D01*
X91652691Y-96830643D01*
X91651201Y-96824693D01*
X91650301Y-96818626D01*
X91650000Y-96812500D01*
X91650000Y-96687500D01*
X91650301Y-96681374D01*
X91651201Y-96675307D01*
X91652691Y-96669357D01*
X91654758Y-96663582D01*
X91657380Y-96658038D01*
X91660533Y-96652777D01*
X91664187Y-96647850D01*
X91668306Y-96643306D01*
X91672850Y-96639187D01*
X91677777Y-96635533D01*
X91683038Y-96632380D01*
X91688582Y-96629758D01*
X91694357Y-96627691D01*
X91700307Y-96626201D01*
X91706374Y-96625301D01*
X91712500Y-96625000D01*
X92412500Y-96625000D01*
X92418626Y-96625301D01*
G37*
G04 #@! TD.AperFunction*
G04 #@! TA.AperFunction,SMDPad,CuDef*
G36*
X92418626Y-97125301D02*
G01*
X92424693Y-97126201D01*
X92430643Y-97127691D01*
X92436418Y-97129758D01*
X92441962Y-97132380D01*
X92447223Y-97135533D01*
X92452150Y-97139187D01*
X92456694Y-97143306D01*
X92460813Y-97147850D01*
X92464467Y-97152777D01*
X92467620Y-97158038D01*
X92470242Y-97163582D01*
X92472309Y-97169357D01*
X92473799Y-97175307D01*
X92474699Y-97181374D01*
X92475000Y-97187500D01*
X92475000Y-97312500D01*
X92474699Y-97318626D01*
X92473799Y-97324693D01*
X92472309Y-97330643D01*
X92470242Y-97336418D01*
X92467620Y-97341962D01*
X92464467Y-97347223D01*
X92460813Y-97352150D01*
X92456694Y-97356694D01*
X92452150Y-97360813D01*
X92447223Y-97364467D01*
X92441962Y-97367620D01*
X92436418Y-97370242D01*
X92430643Y-97372309D01*
X92424693Y-97373799D01*
X92418626Y-97374699D01*
X92412500Y-97375000D01*
X91712500Y-97375000D01*
X91706374Y-97374699D01*
X91700307Y-97373799D01*
X91694357Y-97372309D01*
X91688582Y-97370242D01*
X91683038Y-97367620D01*
X91677777Y-97364467D01*
X91672850Y-97360813D01*
X91668306Y-97356694D01*
X91664187Y-97352150D01*
X91660533Y-97347223D01*
X91657380Y-97341962D01*
X91654758Y-97336418D01*
X91652691Y-97330643D01*
X91651201Y-97324693D01*
X91650301Y-97318626D01*
X91650000Y-97312500D01*
X91650000Y-97187500D01*
X91650301Y-97181374D01*
X91651201Y-97175307D01*
X91652691Y-97169357D01*
X91654758Y-97163582D01*
X91657380Y-97158038D01*
X91660533Y-97152777D01*
X91664187Y-97147850D01*
X91668306Y-97143306D01*
X91672850Y-97139187D01*
X91677777Y-97135533D01*
X91683038Y-97132380D01*
X91688582Y-97129758D01*
X91694357Y-97127691D01*
X91700307Y-97126201D01*
X91706374Y-97125301D01*
X91712500Y-97125000D01*
X92412500Y-97125000D01*
X92418626Y-97125301D01*
G37*
G04 #@! TD.AperFunction*
G04 #@! TA.AperFunction,SMDPad,CuDef*
G36*
X92818626Y-97525301D02*
G01*
X92824693Y-97526201D01*
X92830643Y-97527691D01*
X92836418Y-97529758D01*
X92841962Y-97532380D01*
X92847223Y-97535533D01*
X92852150Y-97539187D01*
X92856694Y-97543306D01*
X92860813Y-97547850D01*
X92864467Y-97552777D01*
X92867620Y-97558038D01*
X92870242Y-97563582D01*
X92872309Y-97569357D01*
X92873799Y-97575307D01*
X92874699Y-97581374D01*
X92875000Y-97587500D01*
X92875000Y-98287500D01*
X92874699Y-98293626D01*
X92873799Y-98299693D01*
X92872309Y-98305643D01*
X92870242Y-98311418D01*
X92867620Y-98316962D01*
X92864467Y-98322223D01*
X92860813Y-98327150D01*
X92856694Y-98331694D01*
X92852150Y-98335813D01*
X92847223Y-98339467D01*
X92841962Y-98342620D01*
X92836418Y-98345242D01*
X92830643Y-98347309D01*
X92824693Y-98348799D01*
X92818626Y-98349699D01*
X92812500Y-98350000D01*
X92687500Y-98350000D01*
X92681374Y-98349699D01*
X92675307Y-98348799D01*
X92669357Y-98347309D01*
X92663582Y-98345242D01*
X92658038Y-98342620D01*
X92652777Y-98339467D01*
X92647850Y-98335813D01*
X92643306Y-98331694D01*
X92639187Y-98327150D01*
X92635533Y-98322223D01*
X92632380Y-98316962D01*
X92629758Y-98311418D01*
X92627691Y-98305643D01*
X92626201Y-98299693D01*
X92625301Y-98293626D01*
X92625000Y-98287500D01*
X92625000Y-97587500D01*
X92625301Y-97581374D01*
X92626201Y-97575307D01*
X92627691Y-97569357D01*
X92629758Y-97563582D01*
X92632380Y-97558038D01*
X92635533Y-97552777D01*
X92639187Y-97547850D01*
X92643306Y-97543306D01*
X92647850Y-97539187D01*
X92652777Y-97535533D01*
X92658038Y-97532380D01*
X92663582Y-97529758D01*
X92669357Y-97527691D01*
X92675307Y-97526201D01*
X92681374Y-97525301D01*
X92687500Y-97525000D01*
X92812500Y-97525000D01*
X92818626Y-97525301D01*
G37*
G04 #@! TD.AperFunction*
G04 #@! TA.AperFunction,SMDPad,CuDef*
G36*
X93318626Y-97525301D02*
G01*
X93324693Y-97526201D01*
X93330643Y-97527691D01*
X93336418Y-97529758D01*
X93341962Y-97532380D01*
X93347223Y-97535533D01*
X93352150Y-97539187D01*
X93356694Y-97543306D01*
X93360813Y-97547850D01*
X93364467Y-97552777D01*
X93367620Y-97558038D01*
X93370242Y-97563582D01*
X93372309Y-97569357D01*
X93373799Y-97575307D01*
X93374699Y-97581374D01*
X93375000Y-97587500D01*
X93375000Y-98287500D01*
X93374699Y-98293626D01*
X93373799Y-98299693D01*
X93372309Y-98305643D01*
X93370242Y-98311418D01*
X93367620Y-98316962D01*
X93364467Y-98322223D01*
X93360813Y-98327150D01*
X93356694Y-98331694D01*
X93352150Y-98335813D01*
X93347223Y-98339467D01*
X93341962Y-98342620D01*
X93336418Y-98345242D01*
X93330643Y-98347309D01*
X93324693Y-98348799D01*
X93318626Y-98349699D01*
X93312500Y-98350000D01*
X93187500Y-98350000D01*
X93181374Y-98349699D01*
X93175307Y-98348799D01*
X93169357Y-98347309D01*
X93163582Y-98345242D01*
X93158038Y-98342620D01*
X93152777Y-98339467D01*
X93147850Y-98335813D01*
X93143306Y-98331694D01*
X93139187Y-98327150D01*
X93135533Y-98322223D01*
X93132380Y-98316962D01*
X93129758Y-98311418D01*
X93127691Y-98305643D01*
X93126201Y-98299693D01*
X93125301Y-98293626D01*
X93125000Y-98287500D01*
X93125000Y-97587500D01*
X93125301Y-97581374D01*
X93126201Y-97575307D01*
X93127691Y-97569357D01*
X93129758Y-97563582D01*
X93132380Y-97558038D01*
X93135533Y-97552777D01*
X93139187Y-97547850D01*
X93143306Y-97543306D01*
X93147850Y-97539187D01*
X93152777Y-97535533D01*
X93158038Y-97532380D01*
X93163582Y-97529758D01*
X93169357Y-97527691D01*
X93175307Y-97526201D01*
X93181374Y-97525301D01*
X93187500Y-97525000D01*
X93312500Y-97525000D01*
X93318626Y-97525301D01*
G37*
G04 #@! TD.AperFunction*
G04 #@! TA.AperFunction,SMDPad,CuDef*
G36*
X93818626Y-97525301D02*
G01*
X93824693Y-97526201D01*
X93830643Y-97527691D01*
X93836418Y-97529758D01*
X93841962Y-97532380D01*
X93847223Y-97535533D01*
X93852150Y-97539187D01*
X93856694Y-97543306D01*
X93860813Y-97547850D01*
X93864467Y-97552777D01*
X93867620Y-97558038D01*
X93870242Y-97563582D01*
X93872309Y-97569357D01*
X93873799Y-97575307D01*
X93874699Y-97581374D01*
X93875000Y-97587500D01*
X93875000Y-98287500D01*
X93874699Y-98293626D01*
X93873799Y-98299693D01*
X93872309Y-98305643D01*
X93870242Y-98311418D01*
X93867620Y-98316962D01*
X93864467Y-98322223D01*
X93860813Y-98327150D01*
X93856694Y-98331694D01*
X93852150Y-98335813D01*
X93847223Y-98339467D01*
X93841962Y-98342620D01*
X93836418Y-98345242D01*
X93830643Y-98347309D01*
X93824693Y-98348799D01*
X93818626Y-98349699D01*
X93812500Y-98350000D01*
X93687500Y-98350000D01*
X93681374Y-98349699D01*
X93675307Y-98348799D01*
X93669357Y-98347309D01*
X93663582Y-98345242D01*
X93658038Y-98342620D01*
X93652777Y-98339467D01*
X93647850Y-98335813D01*
X93643306Y-98331694D01*
X93639187Y-98327150D01*
X93635533Y-98322223D01*
X93632380Y-98316962D01*
X93629758Y-98311418D01*
X93627691Y-98305643D01*
X93626201Y-98299693D01*
X93625301Y-98293626D01*
X93625000Y-98287500D01*
X93625000Y-97587500D01*
X93625301Y-97581374D01*
X93626201Y-97575307D01*
X93627691Y-97569357D01*
X93629758Y-97563582D01*
X93632380Y-97558038D01*
X93635533Y-97552777D01*
X93639187Y-97547850D01*
X93643306Y-97543306D01*
X93647850Y-97539187D01*
X93652777Y-97535533D01*
X93658038Y-97532380D01*
X93663582Y-97529758D01*
X93669357Y-97527691D01*
X93675307Y-97526201D01*
X93681374Y-97525301D01*
X93687500Y-97525000D01*
X93812500Y-97525000D01*
X93818626Y-97525301D01*
G37*
G04 #@! TD.AperFunction*
G04 #@! TA.AperFunction,SMDPad,CuDef*
G36*
X94318626Y-97525301D02*
G01*
X94324693Y-97526201D01*
X94330643Y-97527691D01*
X94336418Y-97529758D01*
X94341962Y-97532380D01*
X94347223Y-97535533D01*
X94352150Y-97539187D01*
X94356694Y-97543306D01*
X94360813Y-97547850D01*
X94364467Y-97552777D01*
X94367620Y-97558038D01*
X94370242Y-97563582D01*
X94372309Y-97569357D01*
X94373799Y-97575307D01*
X94374699Y-97581374D01*
X94375000Y-97587500D01*
X94375000Y-98287500D01*
X94374699Y-98293626D01*
X94373799Y-98299693D01*
X94372309Y-98305643D01*
X94370242Y-98311418D01*
X94367620Y-98316962D01*
X94364467Y-98322223D01*
X94360813Y-98327150D01*
X94356694Y-98331694D01*
X94352150Y-98335813D01*
X94347223Y-98339467D01*
X94341962Y-98342620D01*
X94336418Y-98345242D01*
X94330643Y-98347309D01*
X94324693Y-98348799D01*
X94318626Y-98349699D01*
X94312500Y-98350000D01*
X94187500Y-98350000D01*
X94181374Y-98349699D01*
X94175307Y-98348799D01*
X94169357Y-98347309D01*
X94163582Y-98345242D01*
X94158038Y-98342620D01*
X94152777Y-98339467D01*
X94147850Y-98335813D01*
X94143306Y-98331694D01*
X94139187Y-98327150D01*
X94135533Y-98322223D01*
X94132380Y-98316962D01*
X94129758Y-98311418D01*
X94127691Y-98305643D01*
X94126201Y-98299693D01*
X94125301Y-98293626D01*
X94125000Y-98287500D01*
X94125000Y-97587500D01*
X94125301Y-97581374D01*
X94126201Y-97575307D01*
X94127691Y-97569357D01*
X94129758Y-97563582D01*
X94132380Y-97558038D01*
X94135533Y-97552777D01*
X94139187Y-97547850D01*
X94143306Y-97543306D01*
X94147850Y-97539187D01*
X94152777Y-97535533D01*
X94158038Y-97532380D01*
X94163582Y-97529758D01*
X94169357Y-97527691D01*
X94175307Y-97526201D01*
X94181374Y-97525301D01*
X94187500Y-97525000D01*
X94312500Y-97525000D01*
X94318626Y-97525301D01*
G37*
G04 #@! TD.AperFunction*
G04 #@! TA.AperFunction,SMDPad,CuDef*
G36*
X94818626Y-97525301D02*
G01*
X94824693Y-97526201D01*
X94830643Y-97527691D01*
X94836418Y-97529758D01*
X94841962Y-97532380D01*
X94847223Y-97535533D01*
X94852150Y-97539187D01*
X94856694Y-97543306D01*
X94860813Y-97547850D01*
X94864467Y-97552777D01*
X94867620Y-97558038D01*
X94870242Y-97563582D01*
X94872309Y-97569357D01*
X94873799Y-97575307D01*
X94874699Y-97581374D01*
X94875000Y-97587500D01*
X94875000Y-98287500D01*
X94874699Y-98293626D01*
X94873799Y-98299693D01*
X94872309Y-98305643D01*
X94870242Y-98311418D01*
X94867620Y-98316962D01*
X94864467Y-98322223D01*
X94860813Y-98327150D01*
X94856694Y-98331694D01*
X94852150Y-98335813D01*
X94847223Y-98339467D01*
X94841962Y-98342620D01*
X94836418Y-98345242D01*
X94830643Y-98347309D01*
X94824693Y-98348799D01*
X94818626Y-98349699D01*
X94812500Y-98350000D01*
X94687500Y-98350000D01*
X94681374Y-98349699D01*
X94675307Y-98348799D01*
X94669357Y-98347309D01*
X94663582Y-98345242D01*
X94658038Y-98342620D01*
X94652777Y-98339467D01*
X94647850Y-98335813D01*
X94643306Y-98331694D01*
X94639187Y-98327150D01*
X94635533Y-98322223D01*
X94632380Y-98316962D01*
X94629758Y-98311418D01*
X94627691Y-98305643D01*
X94626201Y-98299693D01*
X94625301Y-98293626D01*
X94625000Y-98287500D01*
X94625000Y-97587500D01*
X94625301Y-97581374D01*
X94626201Y-97575307D01*
X94627691Y-97569357D01*
X94629758Y-97563582D01*
X94632380Y-97558038D01*
X94635533Y-97552777D01*
X94639187Y-97547850D01*
X94643306Y-97543306D01*
X94647850Y-97539187D01*
X94652777Y-97535533D01*
X94658038Y-97532380D01*
X94663582Y-97529758D01*
X94669357Y-97527691D01*
X94675307Y-97526201D01*
X94681374Y-97525301D01*
X94687500Y-97525000D01*
X94812500Y-97525000D01*
X94818626Y-97525301D01*
G37*
G04 #@! TD.AperFunction*
G04 #@! TA.AperFunction,SMDPad,CuDef*
G36*
X95318626Y-97525301D02*
G01*
X95324693Y-97526201D01*
X95330643Y-97527691D01*
X95336418Y-97529758D01*
X95341962Y-97532380D01*
X95347223Y-97535533D01*
X95352150Y-97539187D01*
X95356694Y-97543306D01*
X95360813Y-97547850D01*
X95364467Y-97552777D01*
X95367620Y-97558038D01*
X95370242Y-97563582D01*
X95372309Y-97569357D01*
X95373799Y-97575307D01*
X95374699Y-97581374D01*
X95375000Y-97587500D01*
X95375000Y-98287500D01*
X95374699Y-98293626D01*
X95373799Y-98299693D01*
X95372309Y-98305643D01*
X95370242Y-98311418D01*
X95367620Y-98316962D01*
X95364467Y-98322223D01*
X95360813Y-98327150D01*
X95356694Y-98331694D01*
X95352150Y-98335813D01*
X95347223Y-98339467D01*
X95341962Y-98342620D01*
X95336418Y-98345242D01*
X95330643Y-98347309D01*
X95324693Y-98348799D01*
X95318626Y-98349699D01*
X95312500Y-98350000D01*
X95187500Y-98350000D01*
X95181374Y-98349699D01*
X95175307Y-98348799D01*
X95169357Y-98347309D01*
X95163582Y-98345242D01*
X95158038Y-98342620D01*
X95152777Y-98339467D01*
X95147850Y-98335813D01*
X95143306Y-98331694D01*
X95139187Y-98327150D01*
X95135533Y-98322223D01*
X95132380Y-98316962D01*
X95129758Y-98311418D01*
X95127691Y-98305643D01*
X95126201Y-98299693D01*
X95125301Y-98293626D01*
X95125000Y-98287500D01*
X95125000Y-97587500D01*
X95125301Y-97581374D01*
X95126201Y-97575307D01*
X95127691Y-97569357D01*
X95129758Y-97563582D01*
X95132380Y-97558038D01*
X95135533Y-97552777D01*
X95139187Y-97547850D01*
X95143306Y-97543306D01*
X95147850Y-97539187D01*
X95152777Y-97535533D01*
X95158038Y-97532380D01*
X95163582Y-97529758D01*
X95169357Y-97527691D01*
X95175307Y-97526201D01*
X95181374Y-97525301D01*
X95187500Y-97525000D01*
X95312500Y-97525000D01*
X95318626Y-97525301D01*
G37*
G04 #@! TD.AperFunction*
G04 #@! TA.AperFunction,SMDPad,CuDef*
G36*
X96293626Y-97125301D02*
G01*
X96299693Y-97126201D01*
X96305643Y-97127691D01*
X96311418Y-97129758D01*
X96316962Y-97132380D01*
X96322223Y-97135533D01*
X96327150Y-97139187D01*
X96331694Y-97143306D01*
X96335813Y-97147850D01*
X96339467Y-97152777D01*
X96342620Y-97158038D01*
X96345242Y-97163582D01*
X96347309Y-97169357D01*
X96348799Y-97175307D01*
X96349699Y-97181374D01*
X96350000Y-97187500D01*
X96350000Y-97312500D01*
X96349699Y-97318626D01*
X96348799Y-97324693D01*
X96347309Y-97330643D01*
X96345242Y-97336418D01*
X96342620Y-97341962D01*
X96339467Y-97347223D01*
X96335813Y-97352150D01*
X96331694Y-97356694D01*
X96327150Y-97360813D01*
X96322223Y-97364467D01*
X96316962Y-97367620D01*
X96311418Y-97370242D01*
X96305643Y-97372309D01*
X96299693Y-97373799D01*
X96293626Y-97374699D01*
X96287500Y-97375000D01*
X95587500Y-97375000D01*
X95581374Y-97374699D01*
X95575307Y-97373799D01*
X95569357Y-97372309D01*
X95563582Y-97370242D01*
X95558038Y-97367620D01*
X95552777Y-97364467D01*
X95547850Y-97360813D01*
X95543306Y-97356694D01*
X95539187Y-97352150D01*
X95535533Y-97347223D01*
X95532380Y-97341962D01*
X95529758Y-97336418D01*
X95527691Y-97330643D01*
X95526201Y-97324693D01*
X95525301Y-97318626D01*
X95525000Y-97312500D01*
X95525000Y-97187500D01*
X95525301Y-97181374D01*
X95526201Y-97175307D01*
X95527691Y-97169357D01*
X95529758Y-97163582D01*
X95532380Y-97158038D01*
X95535533Y-97152777D01*
X95539187Y-97147850D01*
X95543306Y-97143306D01*
X95547850Y-97139187D01*
X95552777Y-97135533D01*
X95558038Y-97132380D01*
X95563582Y-97129758D01*
X95569357Y-97127691D01*
X95575307Y-97126201D01*
X95581374Y-97125301D01*
X95587500Y-97125000D01*
X96287500Y-97125000D01*
X96293626Y-97125301D01*
G37*
G04 #@! TD.AperFunction*
G04 #@! TA.AperFunction,SMDPad,CuDef*
G36*
X96293626Y-96625301D02*
G01*
X96299693Y-96626201D01*
X96305643Y-96627691D01*
X96311418Y-96629758D01*
X96316962Y-96632380D01*
X96322223Y-96635533D01*
X96327150Y-96639187D01*
X96331694Y-96643306D01*
X96335813Y-96647850D01*
X96339467Y-96652777D01*
X96342620Y-96658038D01*
X96345242Y-96663582D01*
X96347309Y-96669357D01*
X96348799Y-96675307D01*
X96349699Y-96681374D01*
X96350000Y-96687500D01*
X96350000Y-96812500D01*
X96349699Y-96818626D01*
X96348799Y-96824693D01*
X96347309Y-96830643D01*
X96345242Y-96836418D01*
X96342620Y-96841962D01*
X96339467Y-96847223D01*
X96335813Y-96852150D01*
X96331694Y-96856694D01*
X96327150Y-96860813D01*
X96322223Y-96864467D01*
X96316962Y-96867620D01*
X96311418Y-96870242D01*
X96305643Y-96872309D01*
X96299693Y-96873799D01*
X96293626Y-96874699D01*
X96287500Y-96875000D01*
X95587500Y-96875000D01*
X95581374Y-96874699D01*
X95575307Y-96873799D01*
X95569357Y-96872309D01*
X95563582Y-96870242D01*
X95558038Y-96867620D01*
X95552777Y-96864467D01*
X95547850Y-96860813D01*
X95543306Y-96856694D01*
X95539187Y-96852150D01*
X95535533Y-96847223D01*
X95532380Y-96841962D01*
X95529758Y-96836418D01*
X95527691Y-96830643D01*
X95526201Y-96824693D01*
X95525301Y-96818626D01*
X95525000Y-96812500D01*
X95525000Y-96687500D01*
X95525301Y-96681374D01*
X95526201Y-96675307D01*
X95527691Y-96669357D01*
X95529758Y-96663582D01*
X95532380Y-96658038D01*
X95535533Y-96652777D01*
X95539187Y-96647850D01*
X95543306Y-96643306D01*
X95547850Y-96639187D01*
X95552777Y-96635533D01*
X95558038Y-96632380D01*
X95563582Y-96629758D01*
X95569357Y-96627691D01*
X95575307Y-96626201D01*
X95581374Y-96625301D01*
X95587500Y-96625000D01*
X96287500Y-96625000D01*
X96293626Y-96625301D01*
G37*
G04 #@! TD.AperFunction*
G04 #@! TA.AperFunction,SMDPad,CuDef*
G36*
X96293626Y-96125301D02*
G01*
X96299693Y-96126201D01*
X96305643Y-96127691D01*
X96311418Y-96129758D01*
X96316962Y-96132380D01*
X96322223Y-96135533D01*
X96327150Y-96139187D01*
X96331694Y-96143306D01*
X96335813Y-96147850D01*
X96339467Y-96152777D01*
X96342620Y-96158038D01*
X96345242Y-96163582D01*
X96347309Y-96169357D01*
X96348799Y-96175307D01*
X96349699Y-96181374D01*
X96350000Y-96187500D01*
X96350000Y-96312500D01*
X96349699Y-96318626D01*
X96348799Y-96324693D01*
X96347309Y-96330643D01*
X96345242Y-96336418D01*
X96342620Y-96341962D01*
X96339467Y-96347223D01*
X96335813Y-96352150D01*
X96331694Y-96356694D01*
X96327150Y-96360813D01*
X96322223Y-96364467D01*
X96316962Y-96367620D01*
X96311418Y-96370242D01*
X96305643Y-96372309D01*
X96299693Y-96373799D01*
X96293626Y-96374699D01*
X96287500Y-96375000D01*
X95587500Y-96375000D01*
X95581374Y-96374699D01*
X95575307Y-96373799D01*
X95569357Y-96372309D01*
X95563582Y-96370242D01*
X95558038Y-96367620D01*
X95552777Y-96364467D01*
X95547850Y-96360813D01*
X95543306Y-96356694D01*
X95539187Y-96352150D01*
X95535533Y-96347223D01*
X95532380Y-96341962D01*
X95529758Y-96336418D01*
X95527691Y-96330643D01*
X95526201Y-96324693D01*
X95525301Y-96318626D01*
X95525000Y-96312500D01*
X95525000Y-96187500D01*
X95525301Y-96181374D01*
X95526201Y-96175307D01*
X95527691Y-96169357D01*
X95529758Y-96163582D01*
X95532380Y-96158038D01*
X95535533Y-96152777D01*
X95539187Y-96147850D01*
X95543306Y-96143306D01*
X95547850Y-96139187D01*
X95552777Y-96135533D01*
X95558038Y-96132380D01*
X95563582Y-96129758D01*
X95569357Y-96127691D01*
X95575307Y-96126201D01*
X95581374Y-96125301D01*
X95587500Y-96125000D01*
X96287500Y-96125000D01*
X96293626Y-96125301D01*
G37*
G04 #@! TD.AperFunction*
G04 #@! TA.AperFunction,SMDPad,CuDef*
G36*
X96293626Y-95625301D02*
G01*
X96299693Y-95626201D01*
X96305643Y-95627691D01*
X96311418Y-95629758D01*
X96316962Y-95632380D01*
X96322223Y-95635533D01*
X96327150Y-95639187D01*
X96331694Y-95643306D01*
X96335813Y-95647850D01*
X96339467Y-95652777D01*
X96342620Y-95658038D01*
X96345242Y-95663582D01*
X96347309Y-95669357D01*
X96348799Y-95675307D01*
X96349699Y-95681374D01*
X96350000Y-95687500D01*
X96350000Y-95812500D01*
X96349699Y-95818626D01*
X96348799Y-95824693D01*
X96347309Y-95830643D01*
X96345242Y-95836418D01*
X96342620Y-95841962D01*
X96339467Y-95847223D01*
X96335813Y-95852150D01*
X96331694Y-95856694D01*
X96327150Y-95860813D01*
X96322223Y-95864467D01*
X96316962Y-95867620D01*
X96311418Y-95870242D01*
X96305643Y-95872309D01*
X96299693Y-95873799D01*
X96293626Y-95874699D01*
X96287500Y-95875000D01*
X95587500Y-95875000D01*
X95581374Y-95874699D01*
X95575307Y-95873799D01*
X95569357Y-95872309D01*
X95563582Y-95870242D01*
X95558038Y-95867620D01*
X95552777Y-95864467D01*
X95547850Y-95860813D01*
X95543306Y-95856694D01*
X95539187Y-95852150D01*
X95535533Y-95847223D01*
X95532380Y-95841962D01*
X95529758Y-95836418D01*
X95527691Y-95830643D01*
X95526201Y-95824693D01*
X95525301Y-95818626D01*
X95525000Y-95812500D01*
X95525000Y-95687500D01*
X95525301Y-95681374D01*
X95526201Y-95675307D01*
X95527691Y-95669357D01*
X95529758Y-95663582D01*
X95532380Y-95658038D01*
X95535533Y-95652777D01*
X95539187Y-95647850D01*
X95543306Y-95643306D01*
X95547850Y-95639187D01*
X95552777Y-95635533D01*
X95558038Y-95632380D01*
X95563582Y-95629758D01*
X95569357Y-95627691D01*
X95575307Y-95626201D01*
X95581374Y-95625301D01*
X95587500Y-95625000D01*
X96287500Y-95625000D01*
X96293626Y-95625301D01*
G37*
G04 #@! TD.AperFunction*
G04 #@! TA.AperFunction,SMDPad,CuDef*
G36*
X96293626Y-95125301D02*
G01*
X96299693Y-95126201D01*
X96305643Y-95127691D01*
X96311418Y-95129758D01*
X96316962Y-95132380D01*
X96322223Y-95135533D01*
X96327150Y-95139187D01*
X96331694Y-95143306D01*
X96335813Y-95147850D01*
X96339467Y-95152777D01*
X96342620Y-95158038D01*
X96345242Y-95163582D01*
X96347309Y-95169357D01*
X96348799Y-95175307D01*
X96349699Y-95181374D01*
X96350000Y-95187500D01*
X96350000Y-95312500D01*
X96349699Y-95318626D01*
X96348799Y-95324693D01*
X96347309Y-95330643D01*
X96345242Y-95336418D01*
X96342620Y-95341962D01*
X96339467Y-95347223D01*
X96335813Y-95352150D01*
X96331694Y-95356694D01*
X96327150Y-95360813D01*
X96322223Y-95364467D01*
X96316962Y-95367620D01*
X96311418Y-95370242D01*
X96305643Y-95372309D01*
X96299693Y-95373799D01*
X96293626Y-95374699D01*
X96287500Y-95375000D01*
X95587500Y-95375000D01*
X95581374Y-95374699D01*
X95575307Y-95373799D01*
X95569357Y-95372309D01*
X95563582Y-95370242D01*
X95558038Y-95367620D01*
X95552777Y-95364467D01*
X95547850Y-95360813D01*
X95543306Y-95356694D01*
X95539187Y-95352150D01*
X95535533Y-95347223D01*
X95532380Y-95341962D01*
X95529758Y-95336418D01*
X95527691Y-95330643D01*
X95526201Y-95324693D01*
X95525301Y-95318626D01*
X95525000Y-95312500D01*
X95525000Y-95187500D01*
X95525301Y-95181374D01*
X95526201Y-95175307D01*
X95527691Y-95169357D01*
X95529758Y-95163582D01*
X95532380Y-95158038D01*
X95535533Y-95152777D01*
X95539187Y-95147850D01*
X95543306Y-95143306D01*
X95547850Y-95139187D01*
X95552777Y-95135533D01*
X95558038Y-95132380D01*
X95563582Y-95129758D01*
X95569357Y-95127691D01*
X95575307Y-95126201D01*
X95581374Y-95125301D01*
X95587500Y-95125000D01*
X96287500Y-95125000D01*
X96293626Y-95125301D01*
G37*
G04 #@! TD.AperFunction*
G04 #@! TA.AperFunction,SMDPad,CuDef*
G36*
X96293626Y-94625301D02*
G01*
X96299693Y-94626201D01*
X96305643Y-94627691D01*
X96311418Y-94629758D01*
X96316962Y-94632380D01*
X96322223Y-94635533D01*
X96327150Y-94639187D01*
X96331694Y-94643306D01*
X96335813Y-94647850D01*
X96339467Y-94652777D01*
X96342620Y-94658038D01*
X96345242Y-94663582D01*
X96347309Y-94669357D01*
X96348799Y-94675307D01*
X96349699Y-94681374D01*
X96350000Y-94687500D01*
X96350000Y-94812500D01*
X96349699Y-94818626D01*
X96348799Y-94824693D01*
X96347309Y-94830643D01*
X96345242Y-94836418D01*
X96342620Y-94841962D01*
X96339467Y-94847223D01*
X96335813Y-94852150D01*
X96331694Y-94856694D01*
X96327150Y-94860813D01*
X96322223Y-94864467D01*
X96316962Y-94867620D01*
X96311418Y-94870242D01*
X96305643Y-94872309D01*
X96299693Y-94873799D01*
X96293626Y-94874699D01*
X96287500Y-94875000D01*
X95587500Y-94875000D01*
X95581374Y-94874699D01*
X95575307Y-94873799D01*
X95569357Y-94872309D01*
X95563582Y-94870242D01*
X95558038Y-94867620D01*
X95552777Y-94864467D01*
X95547850Y-94860813D01*
X95543306Y-94856694D01*
X95539187Y-94852150D01*
X95535533Y-94847223D01*
X95532380Y-94841962D01*
X95529758Y-94836418D01*
X95527691Y-94830643D01*
X95526201Y-94824693D01*
X95525301Y-94818626D01*
X95525000Y-94812500D01*
X95525000Y-94687500D01*
X95525301Y-94681374D01*
X95526201Y-94675307D01*
X95527691Y-94669357D01*
X95529758Y-94663582D01*
X95532380Y-94658038D01*
X95535533Y-94652777D01*
X95539187Y-94647850D01*
X95543306Y-94643306D01*
X95547850Y-94639187D01*
X95552777Y-94635533D01*
X95558038Y-94632380D01*
X95563582Y-94629758D01*
X95569357Y-94627691D01*
X95575307Y-94626201D01*
X95581374Y-94625301D01*
X95587500Y-94625000D01*
X96287500Y-94625000D01*
X96293626Y-94625301D01*
G37*
G04 #@! TD.AperFunction*
G04 #@! TA.AperFunction,SMDPad,CuDef*
G36*
X95318626Y-93650301D02*
G01*
X95324693Y-93651201D01*
X95330643Y-93652691D01*
X95336418Y-93654758D01*
X95341962Y-93657380D01*
X95347223Y-93660533D01*
X95352150Y-93664187D01*
X95356694Y-93668306D01*
X95360813Y-93672850D01*
X95364467Y-93677777D01*
X95367620Y-93683038D01*
X95370242Y-93688582D01*
X95372309Y-93694357D01*
X95373799Y-93700307D01*
X95374699Y-93706374D01*
X95375000Y-93712500D01*
X95375000Y-94412500D01*
X95374699Y-94418626D01*
X95373799Y-94424693D01*
X95372309Y-94430643D01*
X95370242Y-94436418D01*
X95367620Y-94441962D01*
X95364467Y-94447223D01*
X95360813Y-94452150D01*
X95356694Y-94456694D01*
X95352150Y-94460813D01*
X95347223Y-94464467D01*
X95341962Y-94467620D01*
X95336418Y-94470242D01*
X95330643Y-94472309D01*
X95324693Y-94473799D01*
X95318626Y-94474699D01*
X95312500Y-94475000D01*
X95187500Y-94475000D01*
X95181374Y-94474699D01*
X95175307Y-94473799D01*
X95169357Y-94472309D01*
X95163582Y-94470242D01*
X95158038Y-94467620D01*
X95152777Y-94464467D01*
X95147850Y-94460813D01*
X95143306Y-94456694D01*
X95139187Y-94452150D01*
X95135533Y-94447223D01*
X95132380Y-94441962D01*
X95129758Y-94436418D01*
X95127691Y-94430643D01*
X95126201Y-94424693D01*
X95125301Y-94418626D01*
X95125000Y-94412500D01*
X95125000Y-93712500D01*
X95125301Y-93706374D01*
X95126201Y-93700307D01*
X95127691Y-93694357D01*
X95129758Y-93688582D01*
X95132380Y-93683038D01*
X95135533Y-93677777D01*
X95139187Y-93672850D01*
X95143306Y-93668306D01*
X95147850Y-93664187D01*
X95152777Y-93660533D01*
X95158038Y-93657380D01*
X95163582Y-93654758D01*
X95169357Y-93652691D01*
X95175307Y-93651201D01*
X95181374Y-93650301D01*
X95187500Y-93650000D01*
X95312500Y-93650000D01*
X95318626Y-93650301D01*
G37*
G04 #@! TD.AperFunction*
G04 #@! TA.AperFunction,SMDPad,CuDef*
G36*
X94818626Y-93650301D02*
G01*
X94824693Y-93651201D01*
X94830643Y-93652691D01*
X94836418Y-93654758D01*
X94841962Y-93657380D01*
X94847223Y-93660533D01*
X94852150Y-93664187D01*
X94856694Y-93668306D01*
X94860813Y-93672850D01*
X94864467Y-93677777D01*
X94867620Y-93683038D01*
X94870242Y-93688582D01*
X94872309Y-93694357D01*
X94873799Y-93700307D01*
X94874699Y-93706374D01*
X94875000Y-93712500D01*
X94875000Y-94412500D01*
X94874699Y-94418626D01*
X94873799Y-94424693D01*
X94872309Y-94430643D01*
X94870242Y-94436418D01*
X94867620Y-94441962D01*
X94864467Y-94447223D01*
X94860813Y-94452150D01*
X94856694Y-94456694D01*
X94852150Y-94460813D01*
X94847223Y-94464467D01*
X94841962Y-94467620D01*
X94836418Y-94470242D01*
X94830643Y-94472309D01*
X94824693Y-94473799D01*
X94818626Y-94474699D01*
X94812500Y-94475000D01*
X94687500Y-94475000D01*
X94681374Y-94474699D01*
X94675307Y-94473799D01*
X94669357Y-94472309D01*
X94663582Y-94470242D01*
X94658038Y-94467620D01*
X94652777Y-94464467D01*
X94647850Y-94460813D01*
X94643306Y-94456694D01*
X94639187Y-94452150D01*
X94635533Y-94447223D01*
X94632380Y-94441962D01*
X94629758Y-94436418D01*
X94627691Y-94430643D01*
X94626201Y-94424693D01*
X94625301Y-94418626D01*
X94625000Y-94412500D01*
X94625000Y-93712500D01*
X94625301Y-93706374D01*
X94626201Y-93700307D01*
X94627691Y-93694357D01*
X94629758Y-93688582D01*
X94632380Y-93683038D01*
X94635533Y-93677777D01*
X94639187Y-93672850D01*
X94643306Y-93668306D01*
X94647850Y-93664187D01*
X94652777Y-93660533D01*
X94658038Y-93657380D01*
X94663582Y-93654758D01*
X94669357Y-93652691D01*
X94675307Y-93651201D01*
X94681374Y-93650301D01*
X94687500Y-93650000D01*
X94812500Y-93650000D01*
X94818626Y-93650301D01*
G37*
G04 #@! TD.AperFunction*
G04 #@! TA.AperFunction,SMDPad,CuDef*
G36*
X94318626Y-93650301D02*
G01*
X94324693Y-93651201D01*
X94330643Y-93652691D01*
X94336418Y-93654758D01*
X94341962Y-93657380D01*
X94347223Y-93660533D01*
X94352150Y-93664187D01*
X94356694Y-93668306D01*
X94360813Y-93672850D01*
X94364467Y-93677777D01*
X94367620Y-93683038D01*
X94370242Y-93688582D01*
X94372309Y-93694357D01*
X94373799Y-93700307D01*
X94374699Y-93706374D01*
X94375000Y-93712500D01*
X94375000Y-94412500D01*
X94374699Y-94418626D01*
X94373799Y-94424693D01*
X94372309Y-94430643D01*
X94370242Y-94436418D01*
X94367620Y-94441962D01*
X94364467Y-94447223D01*
X94360813Y-94452150D01*
X94356694Y-94456694D01*
X94352150Y-94460813D01*
X94347223Y-94464467D01*
X94341962Y-94467620D01*
X94336418Y-94470242D01*
X94330643Y-94472309D01*
X94324693Y-94473799D01*
X94318626Y-94474699D01*
X94312500Y-94475000D01*
X94187500Y-94475000D01*
X94181374Y-94474699D01*
X94175307Y-94473799D01*
X94169357Y-94472309D01*
X94163582Y-94470242D01*
X94158038Y-94467620D01*
X94152777Y-94464467D01*
X94147850Y-94460813D01*
X94143306Y-94456694D01*
X94139187Y-94452150D01*
X94135533Y-94447223D01*
X94132380Y-94441962D01*
X94129758Y-94436418D01*
X94127691Y-94430643D01*
X94126201Y-94424693D01*
X94125301Y-94418626D01*
X94125000Y-94412500D01*
X94125000Y-93712500D01*
X94125301Y-93706374D01*
X94126201Y-93700307D01*
X94127691Y-93694357D01*
X94129758Y-93688582D01*
X94132380Y-93683038D01*
X94135533Y-93677777D01*
X94139187Y-93672850D01*
X94143306Y-93668306D01*
X94147850Y-93664187D01*
X94152777Y-93660533D01*
X94158038Y-93657380D01*
X94163582Y-93654758D01*
X94169357Y-93652691D01*
X94175307Y-93651201D01*
X94181374Y-93650301D01*
X94187500Y-93650000D01*
X94312500Y-93650000D01*
X94318626Y-93650301D01*
G37*
G04 #@! TD.AperFunction*
G04 #@! TA.AperFunction,SMDPad,CuDef*
G36*
X93818626Y-93650301D02*
G01*
X93824693Y-93651201D01*
X93830643Y-93652691D01*
X93836418Y-93654758D01*
X93841962Y-93657380D01*
X93847223Y-93660533D01*
X93852150Y-93664187D01*
X93856694Y-93668306D01*
X93860813Y-93672850D01*
X93864467Y-93677777D01*
X93867620Y-93683038D01*
X93870242Y-93688582D01*
X93872309Y-93694357D01*
X93873799Y-93700307D01*
X93874699Y-93706374D01*
X93875000Y-93712500D01*
X93875000Y-94412500D01*
X93874699Y-94418626D01*
X93873799Y-94424693D01*
X93872309Y-94430643D01*
X93870242Y-94436418D01*
X93867620Y-94441962D01*
X93864467Y-94447223D01*
X93860813Y-94452150D01*
X93856694Y-94456694D01*
X93852150Y-94460813D01*
X93847223Y-94464467D01*
X93841962Y-94467620D01*
X93836418Y-94470242D01*
X93830643Y-94472309D01*
X93824693Y-94473799D01*
X93818626Y-94474699D01*
X93812500Y-94475000D01*
X93687500Y-94475000D01*
X93681374Y-94474699D01*
X93675307Y-94473799D01*
X93669357Y-94472309D01*
X93663582Y-94470242D01*
X93658038Y-94467620D01*
X93652777Y-94464467D01*
X93647850Y-94460813D01*
X93643306Y-94456694D01*
X93639187Y-94452150D01*
X93635533Y-94447223D01*
X93632380Y-94441962D01*
X93629758Y-94436418D01*
X93627691Y-94430643D01*
X93626201Y-94424693D01*
X93625301Y-94418626D01*
X93625000Y-94412500D01*
X93625000Y-93712500D01*
X93625301Y-93706374D01*
X93626201Y-93700307D01*
X93627691Y-93694357D01*
X93629758Y-93688582D01*
X93632380Y-93683038D01*
X93635533Y-93677777D01*
X93639187Y-93672850D01*
X93643306Y-93668306D01*
X93647850Y-93664187D01*
X93652777Y-93660533D01*
X93658038Y-93657380D01*
X93663582Y-93654758D01*
X93669357Y-93652691D01*
X93675307Y-93651201D01*
X93681374Y-93650301D01*
X93687500Y-93650000D01*
X93812500Y-93650000D01*
X93818626Y-93650301D01*
G37*
G04 #@! TD.AperFunction*
G04 #@! TA.AperFunction,SMDPad,CuDef*
G36*
X93318626Y-93650301D02*
G01*
X93324693Y-93651201D01*
X93330643Y-93652691D01*
X93336418Y-93654758D01*
X93341962Y-93657380D01*
X93347223Y-93660533D01*
X93352150Y-93664187D01*
X93356694Y-93668306D01*
X93360813Y-93672850D01*
X93364467Y-93677777D01*
X93367620Y-93683038D01*
X93370242Y-93688582D01*
X93372309Y-93694357D01*
X93373799Y-93700307D01*
X93374699Y-93706374D01*
X93375000Y-93712500D01*
X93375000Y-94412500D01*
X93374699Y-94418626D01*
X93373799Y-94424693D01*
X93372309Y-94430643D01*
X93370242Y-94436418D01*
X93367620Y-94441962D01*
X93364467Y-94447223D01*
X93360813Y-94452150D01*
X93356694Y-94456694D01*
X93352150Y-94460813D01*
X93347223Y-94464467D01*
X93341962Y-94467620D01*
X93336418Y-94470242D01*
X93330643Y-94472309D01*
X93324693Y-94473799D01*
X93318626Y-94474699D01*
X93312500Y-94475000D01*
X93187500Y-94475000D01*
X93181374Y-94474699D01*
X93175307Y-94473799D01*
X93169357Y-94472309D01*
X93163582Y-94470242D01*
X93158038Y-94467620D01*
X93152777Y-94464467D01*
X93147850Y-94460813D01*
X93143306Y-94456694D01*
X93139187Y-94452150D01*
X93135533Y-94447223D01*
X93132380Y-94441962D01*
X93129758Y-94436418D01*
X93127691Y-94430643D01*
X93126201Y-94424693D01*
X93125301Y-94418626D01*
X93125000Y-94412500D01*
X93125000Y-93712500D01*
X93125301Y-93706374D01*
X93126201Y-93700307D01*
X93127691Y-93694357D01*
X93129758Y-93688582D01*
X93132380Y-93683038D01*
X93135533Y-93677777D01*
X93139187Y-93672850D01*
X93143306Y-93668306D01*
X93147850Y-93664187D01*
X93152777Y-93660533D01*
X93158038Y-93657380D01*
X93163582Y-93654758D01*
X93169357Y-93652691D01*
X93175307Y-93651201D01*
X93181374Y-93650301D01*
X93187500Y-93650000D01*
X93312500Y-93650000D01*
X93318626Y-93650301D01*
G37*
G04 #@! TD.AperFunction*
G04 #@! TA.AperFunction,SMDPad,CuDef*
G36*
X92818626Y-93650301D02*
G01*
X92824693Y-93651201D01*
X92830643Y-93652691D01*
X92836418Y-93654758D01*
X92841962Y-93657380D01*
X92847223Y-93660533D01*
X92852150Y-93664187D01*
X92856694Y-93668306D01*
X92860813Y-93672850D01*
X92864467Y-93677777D01*
X92867620Y-93683038D01*
X92870242Y-93688582D01*
X92872309Y-93694357D01*
X92873799Y-93700307D01*
X92874699Y-93706374D01*
X92875000Y-93712500D01*
X92875000Y-94412500D01*
X92874699Y-94418626D01*
X92873799Y-94424693D01*
X92872309Y-94430643D01*
X92870242Y-94436418D01*
X92867620Y-94441962D01*
X92864467Y-94447223D01*
X92860813Y-94452150D01*
X92856694Y-94456694D01*
X92852150Y-94460813D01*
X92847223Y-94464467D01*
X92841962Y-94467620D01*
X92836418Y-94470242D01*
X92830643Y-94472309D01*
X92824693Y-94473799D01*
X92818626Y-94474699D01*
X92812500Y-94475000D01*
X92687500Y-94475000D01*
X92681374Y-94474699D01*
X92675307Y-94473799D01*
X92669357Y-94472309D01*
X92663582Y-94470242D01*
X92658038Y-94467620D01*
X92652777Y-94464467D01*
X92647850Y-94460813D01*
X92643306Y-94456694D01*
X92639187Y-94452150D01*
X92635533Y-94447223D01*
X92632380Y-94441962D01*
X92629758Y-94436418D01*
X92627691Y-94430643D01*
X92626201Y-94424693D01*
X92625301Y-94418626D01*
X92625000Y-94412500D01*
X92625000Y-93712500D01*
X92625301Y-93706374D01*
X92626201Y-93700307D01*
X92627691Y-93694357D01*
X92629758Y-93688582D01*
X92632380Y-93683038D01*
X92635533Y-93677777D01*
X92639187Y-93672850D01*
X92643306Y-93668306D01*
X92647850Y-93664187D01*
X92652777Y-93660533D01*
X92658038Y-93657380D01*
X92663582Y-93654758D01*
X92669357Y-93652691D01*
X92675307Y-93651201D01*
X92681374Y-93650301D01*
X92687500Y-93650000D01*
X92812500Y-93650000D01*
X92818626Y-93650301D01*
G37*
G04 #@! TD.AperFunction*
D15*
X94750000Y-86375000D02*
X94750000Y-94062500D01*
X96125000Y-85000000D02*
X94750000Y-86375000D01*
D16*
X92799990Y-94524990D02*
X92750000Y-94475000D01*
X92750000Y-94475000D02*
X92750000Y-94062500D01*
X92799990Y-94573012D02*
X92799990Y-94524990D01*
X94000000Y-95773022D02*
X92799990Y-94573012D01*
X94000000Y-96000000D02*
X94000000Y-95773022D01*
X95937500Y-95750000D02*
X94000000Y-95750000D01*
X95937500Y-95250000D02*
X95937500Y-95437500D01*
X95937500Y-96250000D02*
X95937500Y-96062500D01*
X92750000Y-94062500D02*
X92562500Y-94062500D01*
X92562500Y-94062500D02*
X92100000Y-93600000D01*
X93250000Y-96750000D02*
X94000000Y-96000000D01*
X92062500Y-96750000D02*
X93250000Y-96750000D01*
X95937500Y-95250000D02*
X95937500Y-95750000D01*
X95937500Y-95750000D02*
X95937500Y-96062500D01*
D15*
X93250000Y-92312500D02*
X93250000Y-94062500D01*
X93250000Y-92312500D02*
X92150000Y-92312500D01*
X92150000Y-92312500D02*
X91937500Y-92100000D01*
X91937500Y-91000000D02*
X91937500Y-92100000D01*
X93750000Y-89250000D02*
X93750000Y-94062500D01*
D17*
X85437500Y-77437500D02*
X85437500Y-84000000D01*
X83500000Y-75500000D02*
X85437500Y-77437500D01*
D18*
X91850000Y-89250000D02*
X93674990Y-89250000D01*
D17*
X85925000Y-84000000D02*
X85437500Y-84000000D01*
X91850000Y-89250000D02*
X91175000Y-89250000D01*
X91175000Y-89250000D02*
X85925000Y-84000000D01*
D16*
X92375000Y-84062500D02*
X93925000Y-84062500D01*
X94250000Y-93650000D02*
X94250000Y-94062500D01*
D17*
X92375000Y-84062500D02*
X93500000Y-84062500D01*
X96500000Y-81062500D02*
X96500000Y-75500000D01*
X93500000Y-84062500D02*
X96500000Y-81062500D01*
D15*
X94250000Y-94062500D02*
X94250000Y-88550000D01*
D17*
X92375000Y-84062500D02*
X92375000Y-85575000D01*
D18*
X94174990Y-88474990D02*
X94174990Y-88550000D01*
X92375000Y-85575000D02*
X92375000Y-86675000D01*
X92375000Y-86675000D02*
X94174990Y-88474990D01*
D15*
X97750000Y-94750000D02*
X95937500Y-94750000D01*
X98000000Y-94500000D02*
X97750000Y-94750000D01*
D18*
X98000000Y-90000000D02*
X98000000Y-94500000D01*
X98000000Y-90000000D02*
X100000000Y-90000000D01*
X100000000Y-90000000D02*
X101000000Y-89000000D01*
X103000000Y-79000000D02*
X101000000Y-81000000D01*
X101000000Y-89000000D02*
X101000000Y-81000000D01*
D15*
X95250000Y-90875000D02*
X96125000Y-90000000D01*
X95250000Y-94062500D02*
X95250000Y-90875000D01*
D17*
X95120000Y-109942500D02*
X96062500Y-109000000D01*
D19*
X94750000Y-97937500D02*
X95250000Y-97937500D01*
D17*
X96062500Y-101262500D02*
X96062500Y-109000000D01*
X95375000Y-100575000D02*
X96062500Y-101262500D01*
X95120000Y-115000000D02*
X95120000Y-109942500D01*
D16*
X95250000Y-100450000D02*
X95375000Y-100575000D01*
D18*
X95250000Y-97937500D02*
X95250000Y-100450000D01*
D16*
X94875000Y-100075000D02*
X95375000Y-100575000D01*
X94875000Y-98062500D02*
X94875000Y-100075000D01*
X94750000Y-97937500D02*
X94875000Y-98062500D01*
X94875000Y-100075000D02*
X94875000Y-100375000D01*
D17*
X109057500Y-83880000D02*
X105937500Y-87000000D01*
X115000000Y-83880000D02*
X109057500Y-83880000D01*
X105937500Y-93062500D02*
X105937500Y-87000000D01*
X102000000Y-97000000D02*
X105937500Y-93062500D01*
X102000000Y-97000000D02*
X96678352Y-97000000D01*
D16*
X95937500Y-96750000D02*
X96678352Y-96750000D01*
X95937500Y-96962500D02*
X96678352Y-96962500D01*
X95937500Y-96962500D02*
X95937500Y-97250000D01*
X95937500Y-96750000D02*
X95937500Y-96962500D01*
X96062500Y-97125000D02*
X96678352Y-97125000D01*
X95937500Y-97250000D02*
X96062500Y-97125000D01*
D17*
X115000000Y-83880000D02*
X110000000Y-83880000D01*
X110000000Y-83880000D02*
X110000000Y-79000000D01*
X110000000Y-79000000D02*
X107000000Y-79000000D01*
D18*
X87000000Y-103000000D02*
X86500000Y-102500000D01*
X90125000Y-103000000D02*
X87000000Y-103000000D01*
X86500000Y-101000000D02*
X86500000Y-102500000D01*
X86475000Y-99100000D02*
X86500000Y-99125000D01*
X81700000Y-99100000D02*
X86475000Y-99100000D01*
D15*
X86500000Y-98000000D02*
X86500000Y-99125000D01*
X87250000Y-97250000D02*
X86500000Y-98000000D01*
X92062500Y-97250000D02*
X87250000Y-97250000D01*
X93250000Y-97937500D02*
X93250000Y-102350000D01*
X93250000Y-102350000D02*
X92600000Y-103000000D01*
X92600000Y-103000000D02*
X92000000Y-103000000D01*
D16*
X81700000Y-100975000D02*
X81700000Y-101462500D01*
D18*
X81700000Y-100975000D02*
X86725000Y-106000000D01*
X93750000Y-105250000D02*
X93000000Y-106000000D01*
X86725000Y-106000000D02*
X93000000Y-106000000D01*
X81662500Y-100937500D02*
X81700000Y-100975000D01*
X77000000Y-100937500D02*
X81662500Y-100937500D01*
X93750000Y-104250000D02*
X93750000Y-105250000D01*
D15*
X93750000Y-97937500D02*
X93750000Y-104250000D01*
X92062500Y-95750000D02*
X82750000Y-95750000D01*
X82750000Y-95750000D02*
X78000000Y-91000000D01*
D18*
X78000000Y-91000000D02*
X73000000Y-91000000D01*
X73000000Y-92270000D02*
X77270000Y-92270000D01*
D15*
X77270000Y-92270000D02*
X81000000Y-96000000D01*
X81250000Y-96250000D02*
X81000000Y-96000000D01*
X83750000Y-96250000D02*
X81250000Y-96250000D01*
X83750000Y-96250000D02*
X91650000Y-96250000D01*
X91650000Y-96250000D02*
X92062500Y-96250000D01*
X92750000Y-99450000D02*
X92750000Y-97937500D01*
X79637510Y-100100000D02*
X92100000Y-100100000D01*
X78100000Y-96100000D02*
X78100000Y-98562490D01*
X75540000Y-93540000D02*
X78100000Y-96100000D01*
X78100000Y-98562490D02*
X79637510Y-100100000D01*
X73000000Y-93540000D02*
X75540000Y-93540000D01*
X92100000Y-100100000D02*
X92750000Y-99450000D01*
D20*
G36*
X119315001Y-119315000D02*
G01*
X70685000Y-119315000D01*
X70685000Y-98575000D01*
X75661928Y-98575000D01*
X75665000Y-98776750D01*
X75823750Y-98935500D01*
X76873000Y-98935500D01*
X76873000Y-98098750D01*
X76714250Y-97940000D01*
X76300000Y-97936928D01*
X76175518Y-97949188D01*
X76055820Y-97985498D01*
X75945506Y-98044463D01*
X75848815Y-98123815D01*
X75769463Y-98220506D01*
X75710498Y-98330820D01*
X75674188Y-98450518D01*
X75661928Y-98575000D01*
X70685000Y-98575000D01*
X70685000Y-90888212D01*
X71865000Y-90888212D01*
X71865000Y-91111788D01*
X71908617Y-91331067D01*
X71994176Y-91537624D01*
X72059241Y-91635000D01*
X71994176Y-91732376D01*
X71908617Y-91938933D01*
X71865000Y-92158212D01*
X71865000Y-92381788D01*
X71908617Y-92601067D01*
X71994176Y-92807624D01*
X72059241Y-92905000D01*
X71994176Y-93002376D01*
X71908617Y-93208933D01*
X71865000Y-93428212D01*
X71865000Y-93651788D01*
X71908617Y-93871067D01*
X71994176Y-94077624D01*
X72118388Y-94263520D01*
X72276480Y-94421612D01*
X72462376Y-94545824D01*
X72668933Y-94631383D01*
X72888212Y-94675000D01*
X73111788Y-94675000D01*
X73331067Y-94631383D01*
X73537624Y-94545824D01*
X73723520Y-94421612D01*
X73820132Y-94325000D01*
X75214843Y-94325000D01*
X77315000Y-96425157D01*
X77315001Y-97939783D01*
X77285750Y-97940000D01*
X77127000Y-98098750D01*
X77127000Y-98935500D01*
X77147000Y-98935500D01*
X77147000Y-99189500D01*
X77127000Y-99189500D01*
X77127000Y-99209500D01*
X76873000Y-99209500D01*
X76873000Y-99189500D01*
X75823750Y-99189500D01*
X75665000Y-99348250D01*
X75661928Y-99550000D01*
X75674188Y-99674482D01*
X75710498Y-99794180D01*
X75769463Y-99904494D01*
X75848815Y-100001185D01*
X75926564Y-100064992D01*
X75920208Y-100070208D01*
X75810542Y-100203836D01*
X75729053Y-100356291D01*
X75678872Y-100521715D01*
X75661928Y-100693750D01*
X75661928Y-101181250D01*
X75678872Y-101353285D01*
X75729053Y-101518709D01*
X75810542Y-101671164D01*
X75920208Y-101804792D01*
X76053836Y-101914458D01*
X76206291Y-101995947D01*
X76371715Y-102046128D01*
X76543750Y-102063072D01*
X77456250Y-102063072D01*
X77628285Y-102046128D01*
X77793709Y-101995947D01*
X77946164Y-101914458D01*
X78058215Y-101822500D01*
X80603965Y-101822500D01*
X80620208Y-101842292D01*
X80753836Y-101951958D01*
X80906291Y-102033447D01*
X81071715Y-102083628D01*
X81243750Y-102100572D01*
X81281521Y-102100572D01*
X81407754Y-102168046D01*
X81551015Y-102211503D01*
X81699555Y-102226133D01*
X86068470Y-106595049D01*
X86096183Y-106628817D01*
X86129951Y-106656530D01*
X86129953Y-106656532D01*
X86201452Y-106715210D01*
X86230941Y-106739411D01*
X86384687Y-106821589D01*
X86551510Y-106872195D01*
X86681523Y-106885000D01*
X86681533Y-106885000D01*
X86724999Y-106889281D01*
X86768465Y-106885000D01*
X92956531Y-106885000D01*
X93000000Y-106889281D01*
X93043469Y-106885000D01*
X93043477Y-106885000D01*
X93173490Y-106872195D01*
X93340313Y-106821589D01*
X93494059Y-106739411D01*
X93628817Y-106628817D01*
X93656534Y-106595044D01*
X94345049Y-105906530D01*
X94378817Y-105878817D01*
X94421746Y-105826509D01*
X94489410Y-105744060D01*
X94534508Y-105659687D01*
X94571589Y-105590313D01*
X94622195Y-105423490D01*
X94635000Y-105293477D01*
X94635000Y-105293467D01*
X94639281Y-105250001D01*
X94635000Y-105206535D01*
X94635000Y-104206523D01*
X94622195Y-104076510D01*
X94571589Y-103909687D01*
X94535000Y-103841233D01*
X94535000Y-101340131D01*
X94927500Y-101732631D01*
X94927501Y-108529867D01*
X94356860Y-109100509D01*
X94313552Y-109136051D01*
X94171717Y-109308877D01*
X94115384Y-109414270D01*
X94066324Y-109506054D01*
X94001423Y-109720002D01*
X93979509Y-109942500D01*
X93985001Y-109998261D01*
X93985000Y-112861928D01*
X93620000Y-112861928D01*
X93495518Y-112874188D01*
X93375820Y-112910498D01*
X93265506Y-112969463D01*
X93168815Y-113048815D01*
X93089463Y-113145506D01*
X93030498Y-113255820D01*
X92994188Y-113375518D01*
X92981928Y-113500000D01*
X92981928Y-116500000D01*
X92994188Y-116624482D01*
X93030498Y-116744180D01*
X93089463Y-116854494D01*
X93168815Y-116951185D01*
X93265506Y-117030537D01*
X93375820Y-117089502D01*
X93495518Y-117125812D01*
X93620000Y-117138072D01*
X96620000Y-117138072D01*
X96744482Y-117125812D01*
X96864180Y-117089502D01*
X96974494Y-117030537D01*
X97071185Y-116951185D01*
X97150537Y-116854494D01*
X97209502Y-116744180D01*
X97245812Y-116624482D01*
X97258072Y-116500000D01*
X97258072Y-116491653D01*
X97687952Y-116491653D01*
X97843962Y-116807214D01*
X98218745Y-116998020D01*
X98623551Y-117112044D01*
X99042824Y-117144902D01*
X99460451Y-117095334D01*
X99860383Y-116965243D01*
X100156038Y-116807214D01*
X100312048Y-116491653D01*
X99000000Y-115179605D01*
X97687952Y-116491653D01*
X97258072Y-116491653D01*
X97258072Y-116188315D01*
X97508347Y-116312048D01*
X98820395Y-115000000D01*
X99179605Y-115000000D01*
X100491653Y-116312048D01*
X100807214Y-116156038D01*
X100998020Y-115781255D01*
X101112044Y-115376449D01*
X101144902Y-114957176D01*
X101095334Y-114539549D01*
X100965243Y-114139617D01*
X100807214Y-113843962D01*
X100491653Y-113687952D01*
X99179605Y-115000000D01*
X98820395Y-115000000D01*
X97508347Y-113687952D01*
X97258072Y-113811685D01*
X97258072Y-113508347D01*
X97687952Y-113508347D01*
X99000000Y-114820395D01*
X100312048Y-113508347D01*
X100156038Y-113192786D01*
X99781255Y-113001980D01*
X99376449Y-112887956D01*
X98957176Y-112855098D01*
X98539549Y-112904666D01*
X98139617Y-113034757D01*
X97843962Y-113192786D01*
X97687952Y-113508347D01*
X97258072Y-113508347D01*
X97258072Y-113500000D01*
X97245812Y-113375518D01*
X97209502Y-113255820D01*
X97150537Y-113145506D01*
X97071185Y-113048815D01*
X96974494Y-112969463D01*
X96864180Y-112910498D01*
X96744482Y-112874188D01*
X96620000Y-112861928D01*
X96255000Y-112861928D01*
X96255000Y-110412631D01*
X96332106Y-110335525D01*
X96478285Y-110321128D01*
X96643709Y-110270947D01*
X96796164Y-110189458D01*
X96929792Y-110079792D01*
X96935008Y-110073436D01*
X96998815Y-110151185D01*
X97095506Y-110230537D01*
X97205820Y-110289502D01*
X97325518Y-110325812D01*
X97450000Y-110338072D01*
X97651750Y-110335000D01*
X97810500Y-110176250D01*
X97810500Y-109127000D01*
X98064500Y-109127000D01*
X98064500Y-110176250D01*
X98223250Y-110335000D01*
X98425000Y-110338072D01*
X98549482Y-110325812D01*
X98669180Y-110289502D01*
X98779494Y-110230537D01*
X98876185Y-110151185D01*
X98955537Y-110054494D01*
X99014502Y-109944180D01*
X99050812Y-109824482D01*
X99063072Y-109700000D01*
X99060000Y-109285750D01*
X98901250Y-109127000D01*
X98064500Y-109127000D01*
X97810500Y-109127000D01*
X97790500Y-109127000D01*
X97790500Y-108873000D01*
X97810500Y-108873000D01*
X97810500Y-107823750D01*
X98064500Y-107823750D01*
X98064500Y-108873000D01*
X98901250Y-108873000D01*
X99060000Y-108714250D01*
X99063072Y-108300000D01*
X99050812Y-108175518D01*
X99014502Y-108055820D01*
X98955537Y-107945506D01*
X98876185Y-107848815D01*
X98779494Y-107769463D01*
X98669180Y-107710498D01*
X98549482Y-107674188D01*
X98425000Y-107661928D01*
X98223250Y-107665000D01*
X98064500Y-107823750D01*
X97810500Y-107823750D01*
X97651750Y-107665000D01*
X97450000Y-107661928D01*
X97325518Y-107674188D01*
X97205820Y-107710498D01*
X97197500Y-107714945D01*
X97197500Y-101318252D01*
X97202991Y-101262500D01*
X97181077Y-101040001D01*
X97116176Y-100826053D01*
X97010784Y-100628877D01*
X96986252Y-100598985D01*
X96868949Y-100456051D01*
X96825635Y-100420504D01*
X96138143Y-99733012D01*
X96135000Y-99730433D01*
X96135000Y-98013072D01*
X96165940Y-98013072D01*
X96241905Y-98053676D01*
X96455853Y-98118577D01*
X96622600Y-98135000D01*
X101944249Y-98135000D01*
X102000000Y-98140491D01*
X102055751Y-98135000D01*
X102055752Y-98135000D01*
X102222499Y-98118577D01*
X102436447Y-98053676D01*
X102633623Y-97948284D01*
X102806449Y-97806449D01*
X102841996Y-97763135D01*
X106700641Y-93904491D01*
X106743949Y-93868949D01*
X106885784Y-93696123D01*
X106991176Y-93498947D01*
X107056077Y-93284999D01*
X107072500Y-93118252D01*
X107072500Y-93118251D01*
X107077991Y-93062500D01*
X107072500Y-93006749D01*
X107072500Y-87470131D01*
X109527632Y-85015000D01*
X109944248Y-85015000D01*
X110000000Y-85020491D01*
X110055751Y-85015000D01*
X112861928Y-85015000D01*
X112861928Y-85380000D01*
X112874188Y-85504482D01*
X112910498Y-85624180D01*
X112969463Y-85734494D01*
X113048815Y-85831185D01*
X113145506Y-85910537D01*
X113255820Y-85969502D01*
X113375518Y-86005812D01*
X113500000Y-86018072D01*
X116500000Y-86018072D01*
X116624482Y-86005812D01*
X116744180Y-85969502D01*
X116854494Y-85910537D01*
X116951185Y-85831185D01*
X117030537Y-85734494D01*
X117089502Y-85624180D01*
X117125812Y-85504482D01*
X117138072Y-85380000D01*
X117138072Y-82380000D01*
X117125812Y-82255518D01*
X117089502Y-82135820D01*
X117030537Y-82025506D01*
X116951185Y-81928815D01*
X116854494Y-81849463D01*
X116744180Y-81790498D01*
X116624482Y-81754188D01*
X116500000Y-81741928D01*
X116188315Y-81741928D01*
X116312048Y-81491653D01*
X115000000Y-80179605D01*
X113687952Y-81491653D01*
X113811685Y-81741928D01*
X113500000Y-81741928D01*
X113375518Y-81754188D01*
X113255820Y-81790498D01*
X113145506Y-81849463D01*
X113048815Y-81928815D01*
X112969463Y-82025506D01*
X112910498Y-82135820D01*
X112874188Y-82255518D01*
X112861928Y-82380000D01*
X112861928Y-82745000D01*
X111135000Y-82745000D01*
X111135000Y-80042824D01*
X112855098Y-80042824D01*
X112904666Y-80460451D01*
X113034757Y-80860383D01*
X113192786Y-81156038D01*
X113508347Y-81312048D01*
X114820395Y-80000000D01*
X115179605Y-80000000D01*
X116491653Y-81312048D01*
X116807214Y-81156038D01*
X116998020Y-80781255D01*
X117112044Y-80376449D01*
X117144902Y-79957176D01*
X117095334Y-79539549D01*
X116965243Y-79139617D01*
X116807214Y-78843962D01*
X116491653Y-78687952D01*
X115179605Y-80000000D01*
X114820395Y-80000000D01*
X113508347Y-78687952D01*
X113192786Y-78843962D01*
X113001980Y-79218745D01*
X112887956Y-79623551D01*
X112855098Y-80042824D01*
X111135000Y-80042824D01*
X111135000Y-79055752D01*
X111140491Y-79000000D01*
X111118577Y-78777501D01*
X111053676Y-78563553D01*
X111024168Y-78508347D01*
X113687952Y-78508347D01*
X115000000Y-79820395D01*
X116312048Y-78508347D01*
X116156038Y-78192786D01*
X115781255Y-78001980D01*
X115376449Y-77887956D01*
X114957176Y-77855098D01*
X114539549Y-77904666D01*
X114139617Y-78034757D01*
X113843962Y-78192786D01*
X113687952Y-78508347D01*
X111024168Y-78508347D01*
X110948284Y-78366377D01*
X110806449Y-78193551D01*
X110633623Y-78051716D01*
X110436447Y-77946324D01*
X110222499Y-77881423D01*
X110055752Y-77865000D01*
X110000000Y-77859509D01*
X109944249Y-77865000D01*
X108177239Y-77865000D01*
X108042252Y-77730013D01*
X107774463Y-77551082D01*
X107476912Y-77427832D01*
X107161033Y-77365000D01*
X106838967Y-77365000D01*
X106523088Y-77427832D01*
X106225537Y-77551082D01*
X105957748Y-77730013D01*
X105730013Y-77957748D01*
X105551082Y-78225537D01*
X105427832Y-78523088D01*
X105365000Y-78838967D01*
X105365000Y-79161033D01*
X105427832Y-79476912D01*
X105551082Y-79774463D01*
X105730013Y-80042252D01*
X105957748Y-80269987D01*
X106225537Y-80448918D01*
X106523088Y-80572168D01*
X106838967Y-80635000D01*
X107161033Y-80635000D01*
X107476912Y-80572168D01*
X107774463Y-80448918D01*
X108042252Y-80269987D01*
X108177239Y-80135000D01*
X108865001Y-80135000D01*
X108865000Y-82758468D01*
X108835001Y-82761423D01*
X108621053Y-82826324D01*
X108423877Y-82931716D01*
X108251051Y-83073551D01*
X108215509Y-83116859D01*
X105667894Y-85664475D01*
X105521715Y-85678872D01*
X105356291Y-85729053D01*
X105203836Y-85810542D01*
X105070208Y-85920208D01*
X105064992Y-85926564D01*
X105001185Y-85848815D01*
X104904494Y-85769463D01*
X104794180Y-85710498D01*
X104674482Y-85674188D01*
X104550000Y-85661928D01*
X104348250Y-85665000D01*
X104189500Y-85823750D01*
X104189500Y-86873000D01*
X104209500Y-86873000D01*
X104209500Y-87127000D01*
X104189500Y-87127000D01*
X104189500Y-88176250D01*
X104348250Y-88335000D01*
X104550000Y-88338072D01*
X104674482Y-88325812D01*
X104794180Y-88289502D01*
X104802501Y-88285054D01*
X104802500Y-92592368D01*
X101529869Y-95865000D01*
X96941250Y-95865000D01*
X96920978Y-95844728D01*
X96872203Y-95758340D01*
X96865030Y-95750000D01*
X96872203Y-95741660D01*
X96920978Y-95655272D01*
X96985000Y-95591250D01*
X96978457Y-95535000D01*
X97711447Y-95535000D01*
X97750000Y-95538797D01*
X97788553Y-95535000D01*
X97788561Y-95535000D01*
X97903887Y-95523641D01*
X98051860Y-95478754D01*
X98188233Y-95405862D01*
X98261955Y-95345359D01*
X98340313Y-95321589D01*
X98494059Y-95239411D01*
X98628817Y-95128817D01*
X98739411Y-94994059D01*
X98821589Y-94840313D01*
X98872195Y-94673490D01*
X98885000Y-94543477D01*
X98885000Y-91058215D01*
X98976958Y-90946164D01*
X99009651Y-90885000D01*
X99956531Y-90885000D01*
X100000000Y-90889281D01*
X100043469Y-90885000D01*
X100043477Y-90885000D01*
X100173490Y-90872195D01*
X100340313Y-90821589D01*
X100494059Y-90739411D01*
X100628817Y-90628817D01*
X100656534Y-90595044D01*
X101595050Y-89656529D01*
X101628817Y-89628817D01*
X101698631Y-89543750D01*
X101739411Y-89494059D01*
X101821589Y-89340314D01*
X101872195Y-89173490D01*
X101876328Y-89131522D01*
X101885000Y-89043477D01*
X101885000Y-89043469D01*
X101889281Y-89000000D01*
X101885000Y-88956531D01*
X101885000Y-87700000D01*
X102936928Y-87700000D01*
X102949188Y-87824482D01*
X102985498Y-87944180D01*
X103044463Y-88054494D01*
X103123815Y-88151185D01*
X103220506Y-88230537D01*
X103330820Y-88289502D01*
X103450518Y-88325812D01*
X103575000Y-88338072D01*
X103776750Y-88335000D01*
X103935500Y-88176250D01*
X103935500Y-87127000D01*
X103098750Y-87127000D01*
X102940000Y-87285750D01*
X102936928Y-87700000D01*
X101885000Y-87700000D01*
X101885000Y-86300000D01*
X102936928Y-86300000D01*
X102940000Y-86714250D01*
X103098750Y-86873000D01*
X103935500Y-86873000D01*
X103935500Y-85823750D01*
X103776750Y-85665000D01*
X103575000Y-85661928D01*
X103450518Y-85674188D01*
X103330820Y-85710498D01*
X103220506Y-85769463D01*
X103123815Y-85848815D01*
X103044463Y-85945506D01*
X102985498Y-86055820D01*
X102949188Y-86175518D01*
X102936928Y-86300000D01*
X101885000Y-86300000D01*
X101885000Y-81366578D01*
X102653475Y-80598103D01*
X102838967Y-80635000D01*
X103161033Y-80635000D01*
X103476912Y-80572168D01*
X103774463Y-80448918D01*
X104042252Y-80269987D01*
X104269987Y-80042252D01*
X104448918Y-79774463D01*
X104572168Y-79476912D01*
X104635000Y-79161033D01*
X104635000Y-78838967D01*
X104572168Y-78523088D01*
X104448918Y-78225537D01*
X104269987Y-77957748D01*
X104042252Y-77730013D01*
X103774463Y-77551082D01*
X103476912Y-77427832D01*
X103161033Y-77365000D01*
X102838967Y-77365000D01*
X102523088Y-77427832D01*
X102225537Y-77551082D01*
X101957748Y-77730013D01*
X101730013Y-77957748D01*
X101551082Y-78225537D01*
X101427832Y-78523088D01*
X101365000Y-78838967D01*
X101365000Y-79161033D01*
X101401897Y-79346525D01*
X100404951Y-80343471D01*
X100371184Y-80371183D01*
X100343471Y-80404951D01*
X100343468Y-80404954D01*
X100260590Y-80505941D01*
X100178412Y-80659687D01*
X100127805Y-80826510D01*
X100110719Y-81000000D01*
X100115001Y-81043479D01*
X100115000Y-88633421D01*
X99633422Y-89115000D01*
X99009651Y-89115000D01*
X98976958Y-89053836D01*
X98867292Y-88920208D01*
X98733664Y-88810542D01*
X98581209Y-88729053D01*
X98415785Y-88678872D01*
X98243750Y-88661928D01*
X97756250Y-88661928D01*
X97584215Y-88678872D01*
X97418791Y-88729053D01*
X97266336Y-88810542D01*
X97132708Y-88920208D01*
X97062500Y-89005756D01*
X96992292Y-88920208D01*
X96858664Y-88810542D01*
X96706209Y-88729053D01*
X96540785Y-88678872D01*
X96368750Y-88661928D01*
X95881250Y-88661928D01*
X95709215Y-88678872D01*
X95543791Y-88729053D01*
X95535000Y-88733752D01*
X95535000Y-86700157D01*
X95897085Y-86338072D01*
X96368750Y-86338072D01*
X96540785Y-86321128D01*
X96706209Y-86270947D01*
X96858664Y-86189458D01*
X96992292Y-86079792D01*
X96997508Y-86073436D01*
X97061315Y-86151185D01*
X97158006Y-86230537D01*
X97268320Y-86289502D01*
X97388018Y-86325812D01*
X97512500Y-86338072D01*
X97714250Y-86335000D01*
X97873000Y-86176250D01*
X97873000Y-85127000D01*
X98127000Y-85127000D01*
X98127000Y-86176250D01*
X98285750Y-86335000D01*
X98487500Y-86338072D01*
X98611982Y-86325812D01*
X98731680Y-86289502D01*
X98841994Y-86230537D01*
X98938685Y-86151185D01*
X99018037Y-86054494D01*
X99077002Y-85944180D01*
X99113312Y-85824482D01*
X99125572Y-85700000D01*
X99122500Y-85285750D01*
X98963750Y-85127000D01*
X98127000Y-85127000D01*
X97873000Y-85127000D01*
X97853000Y-85127000D01*
X97853000Y-84873000D01*
X97873000Y-84873000D01*
X97873000Y-83823750D01*
X98127000Y-83823750D01*
X98127000Y-84873000D01*
X98963750Y-84873000D01*
X99122500Y-84714250D01*
X99125572Y-84300000D01*
X99113312Y-84175518D01*
X99077002Y-84055820D01*
X99018037Y-83945506D01*
X98938685Y-83848815D01*
X98841994Y-83769463D01*
X98731680Y-83710498D01*
X98611982Y-83674188D01*
X98487500Y-83661928D01*
X98285750Y-83665000D01*
X98127000Y-83823750D01*
X97873000Y-83823750D01*
X97714250Y-83665000D01*
X97512500Y-83661928D01*
X97388018Y-83674188D01*
X97268320Y-83710498D01*
X97158006Y-83769463D01*
X97061315Y-83848815D01*
X96997508Y-83926564D01*
X96992292Y-83920208D01*
X96858664Y-83810542D01*
X96706209Y-83729053D01*
X96540785Y-83678872D01*
X96368750Y-83661928D01*
X95881250Y-83661928D01*
X95709215Y-83678872D01*
X95543791Y-83729053D01*
X95391336Y-83810542D01*
X95257708Y-83920208D01*
X95148042Y-84053836D01*
X95066553Y-84206291D01*
X95016372Y-84371715D01*
X94999428Y-84543750D01*
X94999428Y-85015415D01*
X94222190Y-85792653D01*
X94192236Y-85817236D01*
X94094138Y-85936768D01*
X94021246Y-86073141D01*
X93976359Y-86221114D01*
X93965000Y-86336440D01*
X93965000Y-86336447D01*
X93961203Y-86375000D01*
X93965000Y-86413553D01*
X93965000Y-87013422D01*
X93260000Y-86308422D01*
X93260000Y-86285735D01*
X93323284Y-86208623D01*
X93428676Y-86011447D01*
X93493577Y-85797499D01*
X93510000Y-85630752D01*
X93510000Y-85202006D01*
X93555751Y-85197500D01*
X93555752Y-85197500D01*
X93722499Y-85181077D01*
X93936447Y-85116176D01*
X94133623Y-85010784D01*
X94306449Y-84868949D01*
X94341996Y-84825635D01*
X97263146Y-81904487D01*
X97306449Y-81868949D01*
X97345318Y-81821588D01*
X97448284Y-81696123D01*
X97553676Y-81498947D01*
X97618577Y-81284999D01*
X97640491Y-81062500D01*
X97635000Y-81006748D01*
X97635000Y-77638072D01*
X98000000Y-77638072D01*
X98124482Y-77625812D01*
X98244180Y-77589502D01*
X98354494Y-77530537D01*
X98451185Y-77451185D01*
X98530537Y-77354494D01*
X98589502Y-77244180D01*
X98625812Y-77124482D01*
X98638072Y-77000000D01*
X98638072Y-74000000D01*
X98625812Y-73875518D01*
X98589502Y-73755820D01*
X98530537Y-73645506D01*
X98451185Y-73548815D01*
X98354494Y-73469463D01*
X98244180Y-73410498D01*
X98124482Y-73374188D01*
X98000000Y-73361928D01*
X95000000Y-73361928D01*
X94875518Y-73374188D01*
X94755820Y-73410498D01*
X94645506Y-73469463D01*
X94548815Y-73548815D01*
X94469463Y-73645506D01*
X94410498Y-73755820D01*
X94374188Y-73875518D01*
X94361928Y-74000000D01*
X94361928Y-74311685D01*
X94111653Y-74187952D01*
X92799605Y-75500000D01*
X94111653Y-76812048D01*
X94361928Y-76688315D01*
X94361928Y-77000000D01*
X94374188Y-77124482D01*
X94410498Y-77244180D01*
X94469463Y-77354494D01*
X94548815Y-77451185D01*
X94645506Y-77530537D01*
X94755820Y-77589502D01*
X94875518Y-77625812D01*
X95000000Y-77638072D01*
X95365001Y-77638072D01*
X95365000Y-80592367D01*
X93092804Y-82864565D01*
X92956209Y-82791553D01*
X92790785Y-82741372D01*
X92618750Y-82724428D01*
X92131250Y-82724428D01*
X91959215Y-82741372D01*
X91793791Y-82791553D01*
X91641336Y-82873042D01*
X91507708Y-82982708D01*
X91502492Y-82989064D01*
X91438685Y-82911315D01*
X91341994Y-82831963D01*
X91231680Y-82772998D01*
X91111982Y-82736688D01*
X90987500Y-82724428D01*
X90785750Y-82727500D01*
X90627000Y-82886250D01*
X90627000Y-83935500D01*
X90647000Y-83935500D01*
X90647000Y-84189500D01*
X90627000Y-84189500D01*
X90627000Y-85238750D01*
X90785750Y-85397500D01*
X90987500Y-85400572D01*
X91111982Y-85388312D01*
X91231680Y-85352002D01*
X91240000Y-85347555D01*
X91240000Y-85630752D01*
X91256423Y-85797499D01*
X91321325Y-86011447D01*
X91426717Y-86208623D01*
X91490001Y-86285734D01*
X91490001Y-86631522D01*
X91485719Y-86675000D01*
X91502805Y-86848490D01*
X91553412Y-87015313D01*
X91635590Y-87169059D01*
X91718468Y-87270046D01*
X91718471Y-87270049D01*
X91746184Y-87303817D01*
X91779951Y-87331529D01*
X92813421Y-88365000D01*
X92560735Y-88365000D01*
X92483623Y-88301716D01*
X92286447Y-88196324D01*
X92072499Y-88131423D01*
X91905752Y-88115000D01*
X91645132Y-88115000D01*
X88292632Y-84762500D01*
X89374428Y-84762500D01*
X89386688Y-84886982D01*
X89422998Y-85006680D01*
X89481963Y-85116994D01*
X89561315Y-85213685D01*
X89658006Y-85293037D01*
X89768320Y-85352002D01*
X89888018Y-85388312D01*
X90012500Y-85400572D01*
X90214250Y-85397500D01*
X90373000Y-85238750D01*
X90373000Y-84189500D01*
X89536250Y-84189500D01*
X89377500Y-84348250D01*
X89374428Y-84762500D01*
X88292632Y-84762500D01*
X86892632Y-83362500D01*
X89374428Y-83362500D01*
X89377500Y-83776750D01*
X89536250Y-83935500D01*
X90373000Y-83935500D01*
X90373000Y-82886250D01*
X90214250Y-82727500D01*
X90012500Y-82724428D01*
X89888018Y-82736688D01*
X89768320Y-82772998D01*
X89658006Y-82831963D01*
X89561315Y-82911315D01*
X89481963Y-83008006D01*
X89422998Y-83118320D01*
X89386688Y-83238018D01*
X89374428Y-83362500D01*
X86892632Y-83362500D01*
X86766996Y-83236865D01*
X86731449Y-83193551D01*
X86572500Y-83063105D01*
X86572500Y-77493252D01*
X86577991Y-77437500D01*
X86556077Y-77215001D01*
X86491176Y-77001053D01*
X86486152Y-76991653D01*
X91307952Y-76991653D01*
X91463962Y-77307214D01*
X91838745Y-77498020D01*
X92243551Y-77612044D01*
X92662824Y-77644902D01*
X93080451Y-77595334D01*
X93480383Y-77465243D01*
X93776038Y-77307214D01*
X93932048Y-76991653D01*
X92620000Y-75679605D01*
X91307952Y-76991653D01*
X86486152Y-76991653D01*
X86385784Y-76803877D01*
X86243949Y-76631051D01*
X86200641Y-76595509D01*
X85638072Y-76032940D01*
X85638072Y-75542824D01*
X90475098Y-75542824D01*
X90524666Y-75960451D01*
X90654757Y-76360383D01*
X90812786Y-76656038D01*
X91128347Y-76812048D01*
X92440395Y-75500000D01*
X91128347Y-74187952D01*
X90812786Y-74343962D01*
X90621980Y-74718745D01*
X90507956Y-75123551D01*
X90475098Y-75542824D01*
X85638072Y-75542824D01*
X85638072Y-74008347D01*
X91307952Y-74008347D01*
X92620000Y-75320395D01*
X93932048Y-74008347D01*
X93776038Y-73692786D01*
X93401255Y-73501980D01*
X92996449Y-73387956D01*
X92577176Y-73355098D01*
X92159549Y-73404666D01*
X91759617Y-73534757D01*
X91463962Y-73692786D01*
X91307952Y-74008347D01*
X85638072Y-74008347D01*
X85638072Y-74000000D01*
X85625812Y-73875518D01*
X85589502Y-73755820D01*
X85530537Y-73645506D01*
X85451185Y-73548815D01*
X85354494Y-73469463D01*
X85244180Y-73410498D01*
X85124482Y-73374188D01*
X85000000Y-73361928D01*
X82000000Y-73361928D01*
X81875518Y-73374188D01*
X81755820Y-73410498D01*
X81645506Y-73469463D01*
X81548815Y-73548815D01*
X81469463Y-73645506D01*
X81410498Y-73755820D01*
X81374188Y-73875518D01*
X81361928Y-74000000D01*
X81361928Y-74311685D01*
X81111653Y-74187952D01*
X79799605Y-75500000D01*
X81111653Y-76812048D01*
X81361928Y-76688315D01*
X81361928Y-77000000D01*
X81374188Y-77124482D01*
X81410498Y-77244180D01*
X81469463Y-77354494D01*
X81548815Y-77451185D01*
X81645506Y-77530537D01*
X81755820Y-77589502D01*
X81875518Y-77625812D01*
X82000000Y-77638072D01*
X84032940Y-77638072D01*
X84302500Y-77907632D01*
X84302501Y-82714946D01*
X84294180Y-82710498D01*
X84174482Y-82674188D01*
X84050000Y-82661928D01*
X83848250Y-82665000D01*
X83689500Y-82823750D01*
X83689500Y-83873000D01*
X83709500Y-83873000D01*
X83709500Y-84127000D01*
X83689500Y-84127000D01*
X83689500Y-85176250D01*
X83848250Y-85335000D01*
X84050000Y-85338072D01*
X84174482Y-85325812D01*
X84294180Y-85289502D01*
X84404494Y-85230537D01*
X84501185Y-85151185D01*
X84564992Y-85073436D01*
X84570208Y-85079792D01*
X84703836Y-85189458D01*
X84856291Y-85270947D01*
X85021715Y-85321128D01*
X85193750Y-85338072D01*
X85657941Y-85338072D01*
X89984868Y-89665000D01*
X89935498Y-89665000D01*
X89935498Y-89823748D01*
X89776750Y-89665000D01*
X89575000Y-89661928D01*
X89450518Y-89674188D01*
X89330820Y-89710498D01*
X89220506Y-89769463D01*
X89123815Y-89848815D01*
X89044463Y-89945506D01*
X88985498Y-90055820D01*
X88949188Y-90175518D01*
X88936928Y-90300000D01*
X88940000Y-90714250D01*
X89098750Y-90873000D01*
X89935500Y-90873000D01*
X89935500Y-90853000D01*
X90189500Y-90853000D01*
X90189500Y-90873000D01*
X90209500Y-90873000D01*
X90209500Y-91127000D01*
X90189500Y-91127000D01*
X90189500Y-92176250D01*
X90348250Y-92335000D01*
X90550000Y-92338072D01*
X90674482Y-92325812D01*
X90794180Y-92289502D01*
X90904494Y-92230537D01*
X91001185Y-92151185D01*
X91064992Y-92073436D01*
X91070208Y-92079792D01*
X91153440Y-92148099D01*
X91163859Y-92253886D01*
X91208746Y-92401859D01*
X91208747Y-92401860D01*
X91281639Y-92538233D01*
X91309236Y-92571859D01*
X91355155Y-92627812D01*
X91355159Y-92627816D01*
X91379737Y-92657764D01*
X91409685Y-92682342D01*
X91567653Y-92840310D01*
X91592236Y-92870264D01*
X91711767Y-92968362D01*
X91848140Y-93041254D01*
X91968175Y-93077666D01*
X91996112Y-93086141D01*
X92010490Y-93087557D01*
X92111439Y-93097500D01*
X92111446Y-93097500D01*
X92149999Y-93101297D01*
X92188552Y-93097500D01*
X92312000Y-93097500D01*
X92258340Y-93127797D01*
X92163508Y-93209362D01*
X92086412Y-93307862D01*
X92030013Y-93419509D01*
X91996479Y-93540014D01*
X91987098Y-93664746D01*
X91990000Y-93776750D01*
X92148748Y-93935498D01*
X91990000Y-93935498D01*
X91990000Y-93986928D01*
X91712500Y-93986928D01*
X91575825Y-94000389D01*
X91444403Y-94040256D01*
X91323283Y-94104996D01*
X91217121Y-94192121D01*
X91129996Y-94298283D01*
X91065256Y-94419403D01*
X91025389Y-94550825D01*
X91011928Y-94687500D01*
X91011928Y-94812500D01*
X91025389Y-94949175D01*
X91030190Y-94965000D01*
X83075158Y-94965000D01*
X79810158Y-91700000D01*
X88936928Y-91700000D01*
X88949188Y-91824482D01*
X88985498Y-91944180D01*
X89044463Y-92054494D01*
X89123815Y-92151185D01*
X89220506Y-92230537D01*
X89330820Y-92289502D01*
X89450518Y-92325812D01*
X89575000Y-92338072D01*
X89776750Y-92335000D01*
X89935500Y-92176250D01*
X89935500Y-91127000D01*
X89098750Y-91127000D01*
X88940000Y-91285750D01*
X88936928Y-91700000D01*
X79810158Y-91700000D01*
X78844121Y-90733964D01*
X78821589Y-90659687D01*
X78739411Y-90505941D01*
X78628817Y-90371183D01*
X78494059Y-90260589D01*
X78340313Y-90178411D01*
X78173490Y-90127805D01*
X78043477Y-90115000D01*
X73718450Y-90115000D01*
X73537624Y-89994176D01*
X73331067Y-89908617D01*
X73111788Y-89865000D01*
X72888212Y-89865000D01*
X72668933Y-89908617D01*
X72462376Y-89994176D01*
X72276480Y-90118388D01*
X72118388Y-90276480D01*
X71994176Y-90462376D01*
X71908617Y-90668933D01*
X71865000Y-90888212D01*
X70685000Y-90888212D01*
X70685000Y-84700000D01*
X82436928Y-84700000D01*
X82449188Y-84824482D01*
X82485498Y-84944180D01*
X82544463Y-85054494D01*
X82623815Y-85151185D01*
X82720506Y-85230537D01*
X82830820Y-85289502D01*
X82950518Y-85325812D01*
X83075000Y-85338072D01*
X83276750Y-85335000D01*
X83435500Y-85176250D01*
X83435500Y-84127000D01*
X82598750Y-84127000D01*
X82440000Y-84285750D01*
X82436928Y-84700000D01*
X70685000Y-84700000D01*
X70685000Y-83300000D01*
X82436928Y-83300000D01*
X82440000Y-83714250D01*
X82598750Y-83873000D01*
X83435500Y-83873000D01*
X83435500Y-82823750D01*
X83276750Y-82665000D01*
X83075000Y-82661928D01*
X82950518Y-82674188D01*
X82830820Y-82710498D01*
X82720506Y-82769463D01*
X82623815Y-82848815D01*
X82544463Y-82945506D01*
X82485498Y-83055820D01*
X82449188Y-83175518D01*
X82436928Y-83300000D01*
X70685000Y-83300000D01*
X70685000Y-76991653D01*
X78307952Y-76991653D01*
X78463962Y-77307214D01*
X78838745Y-77498020D01*
X79243551Y-77612044D01*
X79662824Y-77644902D01*
X80080451Y-77595334D01*
X80480383Y-77465243D01*
X80776038Y-77307214D01*
X80932048Y-76991653D01*
X79620000Y-75679605D01*
X78307952Y-76991653D01*
X70685000Y-76991653D01*
X70685000Y-75542824D01*
X77475098Y-75542824D01*
X77524666Y-75960451D01*
X77654757Y-76360383D01*
X77812786Y-76656038D01*
X78128347Y-76812048D01*
X79440395Y-75500000D01*
X78128347Y-74187952D01*
X77812786Y-74343962D01*
X77621980Y-74718745D01*
X77507956Y-75123551D01*
X77475098Y-75542824D01*
X70685000Y-75542824D01*
X70685000Y-74008347D01*
X78307952Y-74008347D01*
X79620000Y-75320395D01*
X80932048Y-74008347D01*
X80776038Y-73692786D01*
X80401255Y-73501980D01*
X79996449Y-73387956D01*
X79577176Y-73355098D01*
X79159549Y-73404666D01*
X78759617Y-73534757D01*
X78463962Y-73692786D01*
X78307952Y-74008347D01*
X70685000Y-74008347D01*
X70685000Y-70685000D01*
X119315000Y-70685000D01*
X119315001Y-119315000D01*
G37*
X119315001Y-119315000D02*
X70685000Y-119315000D01*
X70685000Y-98575000D01*
X75661928Y-98575000D01*
X75665000Y-98776750D01*
X75823750Y-98935500D01*
X76873000Y-98935500D01*
X76873000Y-98098750D01*
X76714250Y-97940000D01*
X76300000Y-97936928D01*
X76175518Y-97949188D01*
X76055820Y-97985498D01*
X75945506Y-98044463D01*
X75848815Y-98123815D01*
X75769463Y-98220506D01*
X75710498Y-98330820D01*
X75674188Y-98450518D01*
X75661928Y-98575000D01*
X70685000Y-98575000D01*
X70685000Y-90888212D01*
X71865000Y-90888212D01*
X71865000Y-91111788D01*
X71908617Y-91331067D01*
X71994176Y-91537624D01*
X72059241Y-91635000D01*
X71994176Y-91732376D01*
X71908617Y-91938933D01*
X71865000Y-92158212D01*
X71865000Y-92381788D01*
X71908617Y-92601067D01*
X71994176Y-92807624D01*
X72059241Y-92905000D01*
X71994176Y-93002376D01*
X71908617Y-93208933D01*
X71865000Y-93428212D01*
X71865000Y-93651788D01*
X71908617Y-93871067D01*
X71994176Y-94077624D01*
X72118388Y-94263520D01*
X72276480Y-94421612D01*
X72462376Y-94545824D01*
X72668933Y-94631383D01*
X72888212Y-94675000D01*
X73111788Y-94675000D01*
X73331067Y-94631383D01*
X73537624Y-94545824D01*
X73723520Y-94421612D01*
X73820132Y-94325000D01*
X75214843Y-94325000D01*
X77315000Y-96425157D01*
X77315001Y-97939783D01*
X77285750Y-97940000D01*
X77127000Y-98098750D01*
X77127000Y-98935500D01*
X77147000Y-98935500D01*
X77147000Y-99189500D01*
X77127000Y-99189500D01*
X77127000Y-99209500D01*
X76873000Y-99209500D01*
X76873000Y-99189500D01*
X75823750Y-99189500D01*
X75665000Y-99348250D01*
X75661928Y-99550000D01*
X75674188Y-99674482D01*
X75710498Y-99794180D01*
X75769463Y-99904494D01*
X75848815Y-100001185D01*
X75926564Y-100064992D01*
X75920208Y-100070208D01*
X75810542Y-100203836D01*
X75729053Y-100356291D01*
X75678872Y-100521715D01*
X75661928Y-100693750D01*
X75661928Y-101181250D01*
X75678872Y-101353285D01*
X75729053Y-101518709D01*
X75810542Y-101671164D01*
X75920208Y-101804792D01*
X76053836Y-101914458D01*
X76206291Y-101995947D01*
X76371715Y-102046128D01*
X76543750Y-102063072D01*
X77456250Y-102063072D01*
X77628285Y-102046128D01*
X77793709Y-101995947D01*
X77946164Y-101914458D01*
X78058215Y-101822500D01*
X80603965Y-101822500D01*
X80620208Y-101842292D01*
X80753836Y-101951958D01*
X80906291Y-102033447D01*
X81071715Y-102083628D01*
X81243750Y-102100572D01*
X81281521Y-102100572D01*
X81407754Y-102168046D01*
X81551015Y-102211503D01*
X81699555Y-102226133D01*
X86068470Y-106595049D01*
X86096183Y-106628817D01*
X86129951Y-106656530D01*
X86129953Y-106656532D01*
X86201452Y-106715210D01*
X86230941Y-106739411D01*
X86384687Y-106821589D01*
X86551510Y-106872195D01*
X86681523Y-106885000D01*
X86681533Y-106885000D01*
X86724999Y-106889281D01*
X86768465Y-106885000D01*
X92956531Y-106885000D01*
X93000000Y-106889281D01*
X93043469Y-106885000D01*
X93043477Y-106885000D01*
X93173490Y-106872195D01*
X93340313Y-106821589D01*
X93494059Y-106739411D01*
X93628817Y-106628817D01*
X93656534Y-106595044D01*
X94345049Y-105906530D01*
X94378817Y-105878817D01*
X94421746Y-105826509D01*
X94489410Y-105744060D01*
X94534508Y-105659687D01*
X94571589Y-105590313D01*
X94622195Y-105423490D01*
X94635000Y-105293477D01*
X94635000Y-105293467D01*
X94639281Y-105250001D01*
X94635000Y-105206535D01*
X94635000Y-104206523D01*
X94622195Y-104076510D01*
X94571589Y-103909687D01*
X94535000Y-103841233D01*
X94535000Y-101340131D01*
X94927500Y-101732631D01*
X94927501Y-108529867D01*
X94356860Y-109100509D01*
X94313552Y-109136051D01*
X94171717Y-109308877D01*
X94115384Y-109414270D01*
X94066324Y-109506054D01*
X94001423Y-109720002D01*
X93979509Y-109942500D01*
X93985001Y-109998261D01*
X93985000Y-112861928D01*
X93620000Y-112861928D01*
X93495518Y-112874188D01*
X93375820Y-112910498D01*
X93265506Y-112969463D01*
X93168815Y-113048815D01*
X93089463Y-113145506D01*
X93030498Y-113255820D01*
X92994188Y-113375518D01*
X92981928Y-113500000D01*
X92981928Y-116500000D01*
X92994188Y-116624482D01*
X93030498Y-116744180D01*
X93089463Y-116854494D01*
X93168815Y-116951185D01*
X93265506Y-117030537D01*
X93375820Y-117089502D01*
X93495518Y-117125812D01*
X93620000Y-117138072D01*
X96620000Y-117138072D01*
X96744482Y-117125812D01*
X96864180Y-117089502D01*
X96974494Y-117030537D01*
X97071185Y-116951185D01*
X97150537Y-116854494D01*
X97209502Y-116744180D01*
X97245812Y-116624482D01*
X97258072Y-116500000D01*
X97258072Y-116491653D01*
X97687952Y-116491653D01*
X97843962Y-116807214D01*
X98218745Y-116998020D01*
X98623551Y-117112044D01*
X99042824Y-117144902D01*
X99460451Y-117095334D01*
X99860383Y-116965243D01*
X100156038Y-116807214D01*
X100312048Y-116491653D01*
X99000000Y-115179605D01*
X97687952Y-116491653D01*
X97258072Y-116491653D01*
X97258072Y-116188315D01*
X97508347Y-116312048D01*
X98820395Y-115000000D01*
X99179605Y-115000000D01*
X100491653Y-116312048D01*
X100807214Y-116156038D01*
X100998020Y-115781255D01*
X101112044Y-115376449D01*
X101144902Y-114957176D01*
X101095334Y-114539549D01*
X100965243Y-114139617D01*
X100807214Y-113843962D01*
X100491653Y-113687952D01*
X99179605Y-115000000D01*
X98820395Y-115000000D01*
X97508347Y-113687952D01*
X97258072Y-113811685D01*
X97258072Y-113508347D01*
X97687952Y-113508347D01*
X99000000Y-114820395D01*
X100312048Y-113508347D01*
X100156038Y-113192786D01*
X99781255Y-113001980D01*
X99376449Y-112887956D01*
X98957176Y-112855098D01*
X98539549Y-112904666D01*
X98139617Y-113034757D01*
X97843962Y-113192786D01*
X97687952Y-113508347D01*
X97258072Y-113508347D01*
X97258072Y-113500000D01*
X97245812Y-113375518D01*
X97209502Y-113255820D01*
X97150537Y-113145506D01*
X97071185Y-113048815D01*
X96974494Y-112969463D01*
X96864180Y-112910498D01*
X96744482Y-112874188D01*
X96620000Y-112861928D01*
X96255000Y-112861928D01*
X96255000Y-110412631D01*
X96332106Y-110335525D01*
X96478285Y-110321128D01*
X96643709Y-110270947D01*
X96796164Y-110189458D01*
X96929792Y-110079792D01*
X96935008Y-110073436D01*
X96998815Y-110151185D01*
X97095506Y-110230537D01*
X97205820Y-110289502D01*
X97325518Y-110325812D01*
X97450000Y-110338072D01*
X97651750Y-110335000D01*
X97810500Y-110176250D01*
X97810500Y-109127000D01*
X98064500Y-109127000D01*
X98064500Y-110176250D01*
X98223250Y-110335000D01*
X98425000Y-110338072D01*
X98549482Y-110325812D01*
X98669180Y-110289502D01*
X98779494Y-110230537D01*
X98876185Y-110151185D01*
X98955537Y-110054494D01*
X99014502Y-109944180D01*
X99050812Y-109824482D01*
X99063072Y-109700000D01*
X99060000Y-109285750D01*
X98901250Y-109127000D01*
X98064500Y-109127000D01*
X97810500Y-109127000D01*
X97790500Y-109127000D01*
X97790500Y-108873000D01*
X97810500Y-108873000D01*
X97810500Y-107823750D01*
X98064500Y-107823750D01*
X98064500Y-108873000D01*
X98901250Y-108873000D01*
X99060000Y-108714250D01*
X99063072Y-108300000D01*
X99050812Y-108175518D01*
X99014502Y-108055820D01*
X98955537Y-107945506D01*
X98876185Y-107848815D01*
X98779494Y-107769463D01*
X98669180Y-107710498D01*
X98549482Y-107674188D01*
X98425000Y-107661928D01*
X98223250Y-107665000D01*
X98064500Y-107823750D01*
X97810500Y-107823750D01*
X97651750Y-107665000D01*
X97450000Y-107661928D01*
X97325518Y-107674188D01*
X97205820Y-107710498D01*
X97197500Y-107714945D01*
X97197500Y-101318252D01*
X97202991Y-101262500D01*
X97181077Y-101040001D01*
X97116176Y-100826053D01*
X97010784Y-100628877D01*
X96986252Y-100598985D01*
X96868949Y-100456051D01*
X96825635Y-100420504D01*
X96138143Y-99733012D01*
X96135000Y-99730433D01*
X96135000Y-98013072D01*
X96165940Y-98013072D01*
X96241905Y-98053676D01*
X96455853Y-98118577D01*
X96622600Y-98135000D01*
X101944249Y-98135000D01*
X102000000Y-98140491D01*
X102055751Y-98135000D01*
X102055752Y-98135000D01*
X102222499Y-98118577D01*
X102436447Y-98053676D01*
X102633623Y-97948284D01*
X102806449Y-97806449D01*
X102841996Y-97763135D01*
X106700641Y-93904491D01*
X106743949Y-93868949D01*
X106885784Y-93696123D01*
X106991176Y-93498947D01*
X107056077Y-93284999D01*
X107072500Y-93118252D01*
X107072500Y-93118251D01*
X107077991Y-93062500D01*
X107072500Y-93006749D01*
X107072500Y-87470131D01*
X109527632Y-85015000D01*
X109944248Y-85015000D01*
X110000000Y-85020491D01*
X110055751Y-85015000D01*
X112861928Y-85015000D01*
X112861928Y-85380000D01*
X112874188Y-85504482D01*
X112910498Y-85624180D01*
X112969463Y-85734494D01*
X113048815Y-85831185D01*
X113145506Y-85910537D01*
X113255820Y-85969502D01*
X113375518Y-86005812D01*
X113500000Y-86018072D01*
X116500000Y-86018072D01*
X116624482Y-86005812D01*
X116744180Y-85969502D01*
X116854494Y-85910537D01*
X116951185Y-85831185D01*
X117030537Y-85734494D01*
X117089502Y-85624180D01*
X117125812Y-85504482D01*
X117138072Y-85380000D01*
X117138072Y-82380000D01*
X117125812Y-82255518D01*
X117089502Y-82135820D01*
X117030537Y-82025506D01*
X116951185Y-81928815D01*
X116854494Y-81849463D01*
X116744180Y-81790498D01*
X116624482Y-81754188D01*
X116500000Y-81741928D01*
X116188315Y-81741928D01*
X116312048Y-81491653D01*
X115000000Y-80179605D01*
X113687952Y-81491653D01*
X113811685Y-81741928D01*
X113500000Y-81741928D01*
X113375518Y-81754188D01*
X113255820Y-81790498D01*
X113145506Y-81849463D01*
X113048815Y-81928815D01*
X112969463Y-82025506D01*
X112910498Y-82135820D01*
X112874188Y-82255518D01*
X112861928Y-82380000D01*
X112861928Y-82745000D01*
X111135000Y-82745000D01*
X111135000Y-80042824D01*
X112855098Y-80042824D01*
X112904666Y-80460451D01*
X113034757Y-80860383D01*
X113192786Y-81156038D01*
X113508347Y-81312048D01*
X114820395Y-80000000D01*
X115179605Y-80000000D01*
X116491653Y-81312048D01*
X116807214Y-81156038D01*
X116998020Y-80781255D01*
X117112044Y-80376449D01*
X117144902Y-79957176D01*
X117095334Y-79539549D01*
X116965243Y-79139617D01*
X116807214Y-78843962D01*
X116491653Y-78687952D01*
X115179605Y-80000000D01*
X114820395Y-80000000D01*
X113508347Y-78687952D01*
X113192786Y-78843962D01*
X113001980Y-79218745D01*
X112887956Y-79623551D01*
X112855098Y-80042824D01*
X111135000Y-80042824D01*
X111135000Y-79055752D01*
X111140491Y-79000000D01*
X111118577Y-78777501D01*
X111053676Y-78563553D01*
X111024168Y-78508347D01*
X113687952Y-78508347D01*
X115000000Y-79820395D01*
X116312048Y-78508347D01*
X116156038Y-78192786D01*
X115781255Y-78001980D01*
X115376449Y-77887956D01*
X114957176Y-77855098D01*
X114539549Y-77904666D01*
X114139617Y-78034757D01*
X113843962Y-78192786D01*
X113687952Y-78508347D01*
X111024168Y-78508347D01*
X110948284Y-78366377D01*
X110806449Y-78193551D01*
X110633623Y-78051716D01*
X110436447Y-77946324D01*
X110222499Y-77881423D01*
X110055752Y-77865000D01*
X110000000Y-77859509D01*
X109944249Y-77865000D01*
X108177239Y-77865000D01*
X108042252Y-77730013D01*
X107774463Y-77551082D01*
X107476912Y-77427832D01*
X107161033Y-77365000D01*
X106838967Y-77365000D01*
X106523088Y-77427832D01*
X106225537Y-77551082D01*
X105957748Y-77730013D01*
X105730013Y-77957748D01*
X105551082Y-78225537D01*
X105427832Y-78523088D01*
X105365000Y-78838967D01*
X105365000Y-79161033D01*
X105427832Y-79476912D01*
X105551082Y-79774463D01*
X105730013Y-80042252D01*
X105957748Y-80269987D01*
X106225537Y-80448918D01*
X106523088Y-80572168D01*
X106838967Y-80635000D01*
X107161033Y-80635000D01*
X107476912Y-80572168D01*
X107774463Y-80448918D01*
X108042252Y-80269987D01*
X108177239Y-80135000D01*
X108865001Y-80135000D01*
X108865000Y-82758468D01*
X108835001Y-82761423D01*
X108621053Y-82826324D01*
X108423877Y-82931716D01*
X108251051Y-83073551D01*
X108215509Y-83116859D01*
X105667894Y-85664475D01*
X105521715Y-85678872D01*
X105356291Y-85729053D01*
X105203836Y-85810542D01*
X105070208Y-85920208D01*
X105064992Y-85926564D01*
X105001185Y-85848815D01*
X104904494Y-85769463D01*
X104794180Y-85710498D01*
X104674482Y-85674188D01*
X104550000Y-85661928D01*
X104348250Y-85665000D01*
X104189500Y-85823750D01*
X104189500Y-86873000D01*
X104209500Y-86873000D01*
X104209500Y-87127000D01*
X104189500Y-87127000D01*
X104189500Y-88176250D01*
X104348250Y-88335000D01*
X104550000Y-88338072D01*
X104674482Y-88325812D01*
X104794180Y-88289502D01*
X104802501Y-88285054D01*
X104802500Y-92592368D01*
X101529869Y-95865000D01*
X96941250Y-95865000D01*
X96920978Y-95844728D01*
X96872203Y-95758340D01*
X96865030Y-95750000D01*
X96872203Y-95741660D01*
X96920978Y-95655272D01*
X96985000Y-95591250D01*
X96978457Y-95535000D01*
X97711447Y-95535000D01*
X97750000Y-95538797D01*
X97788553Y-95535000D01*
X97788561Y-95535000D01*
X97903887Y-95523641D01*
X98051860Y-95478754D01*
X98188233Y-95405862D01*
X98261955Y-95345359D01*
X98340313Y-95321589D01*
X98494059Y-95239411D01*
X98628817Y-95128817D01*
X98739411Y-94994059D01*
X98821589Y-94840313D01*
X98872195Y-94673490D01*
X98885000Y-94543477D01*
X98885000Y-91058215D01*
X98976958Y-90946164D01*
X99009651Y-90885000D01*
X99956531Y-90885000D01*
X100000000Y-90889281D01*
X100043469Y-90885000D01*
X100043477Y-90885000D01*
X100173490Y-90872195D01*
X100340313Y-90821589D01*
X100494059Y-90739411D01*
X100628817Y-90628817D01*
X100656534Y-90595044D01*
X101595050Y-89656529D01*
X101628817Y-89628817D01*
X101698631Y-89543750D01*
X101739411Y-89494059D01*
X101821589Y-89340314D01*
X101872195Y-89173490D01*
X101876328Y-89131522D01*
X101885000Y-89043477D01*
X101885000Y-89043469D01*
X101889281Y-89000000D01*
X101885000Y-88956531D01*
X101885000Y-87700000D01*
X102936928Y-87700000D01*
X102949188Y-87824482D01*
X102985498Y-87944180D01*
X103044463Y-88054494D01*
X103123815Y-88151185D01*
X103220506Y-88230537D01*
X103330820Y-88289502D01*
X103450518Y-88325812D01*
X103575000Y-88338072D01*
X103776750Y-88335000D01*
X103935500Y-88176250D01*
X103935500Y-87127000D01*
X103098750Y-87127000D01*
X102940000Y-87285750D01*
X102936928Y-87700000D01*
X101885000Y-87700000D01*
X101885000Y-86300000D01*
X102936928Y-86300000D01*
X102940000Y-86714250D01*
X103098750Y-86873000D01*
X103935500Y-86873000D01*
X103935500Y-85823750D01*
X103776750Y-85665000D01*
X103575000Y-85661928D01*
X103450518Y-85674188D01*
X103330820Y-85710498D01*
X103220506Y-85769463D01*
X103123815Y-85848815D01*
X103044463Y-85945506D01*
X102985498Y-86055820D01*
X102949188Y-86175518D01*
X102936928Y-86300000D01*
X101885000Y-86300000D01*
X101885000Y-81366578D01*
X102653475Y-80598103D01*
X102838967Y-80635000D01*
X103161033Y-80635000D01*
X103476912Y-80572168D01*
X103774463Y-80448918D01*
X104042252Y-80269987D01*
X104269987Y-80042252D01*
X104448918Y-79774463D01*
X104572168Y-79476912D01*
X104635000Y-79161033D01*
X104635000Y-78838967D01*
X104572168Y-78523088D01*
X104448918Y-78225537D01*
X104269987Y-77957748D01*
X104042252Y-77730013D01*
X103774463Y-77551082D01*
X103476912Y-77427832D01*
X103161033Y-77365000D01*
X102838967Y-77365000D01*
X102523088Y-77427832D01*
X102225537Y-77551082D01*
X101957748Y-77730013D01*
X101730013Y-77957748D01*
X101551082Y-78225537D01*
X101427832Y-78523088D01*
X101365000Y-78838967D01*
X101365000Y-79161033D01*
X101401897Y-79346525D01*
X100404951Y-80343471D01*
X100371184Y-80371183D01*
X100343471Y-80404951D01*
X100343468Y-80404954D01*
X100260590Y-80505941D01*
X100178412Y-80659687D01*
X100127805Y-80826510D01*
X100110719Y-81000000D01*
X100115001Y-81043479D01*
X100115000Y-88633421D01*
X99633422Y-89115000D01*
X99009651Y-89115000D01*
X98976958Y-89053836D01*
X98867292Y-88920208D01*
X98733664Y-88810542D01*
X98581209Y-88729053D01*
X98415785Y-88678872D01*
X98243750Y-88661928D01*
X97756250Y-88661928D01*
X97584215Y-88678872D01*
X97418791Y-88729053D01*
X97266336Y-88810542D01*
X97132708Y-88920208D01*
X97062500Y-89005756D01*
X96992292Y-88920208D01*
X96858664Y-88810542D01*
X96706209Y-88729053D01*
X96540785Y-88678872D01*
X96368750Y-88661928D01*
X95881250Y-88661928D01*
X95709215Y-88678872D01*
X95543791Y-88729053D01*
X95535000Y-88733752D01*
X95535000Y-86700157D01*
X95897085Y-86338072D01*
X96368750Y-86338072D01*
X96540785Y-86321128D01*
X96706209Y-86270947D01*
X96858664Y-86189458D01*
X96992292Y-86079792D01*
X96997508Y-86073436D01*
X97061315Y-86151185D01*
X97158006Y-86230537D01*
X97268320Y-86289502D01*
X97388018Y-86325812D01*
X97512500Y-86338072D01*
X97714250Y-86335000D01*
X97873000Y-86176250D01*
X97873000Y-85127000D01*
X98127000Y-85127000D01*
X98127000Y-86176250D01*
X98285750Y-86335000D01*
X98487500Y-86338072D01*
X98611982Y-86325812D01*
X98731680Y-86289502D01*
X98841994Y-86230537D01*
X98938685Y-86151185D01*
X99018037Y-86054494D01*
X99077002Y-85944180D01*
X99113312Y-85824482D01*
X99125572Y-85700000D01*
X99122500Y-85285750D01*
X98963750Y-85127000D01*
X98127000Y-85127000D01*
X97873000Y-85127000D01*
X97853000Y-85127000D01*
X97853000Y-84873000D01*
X97873000Y-84873000D01*
X97873000Y-83823750D01*
X98127000Y-83823750D01*
X98127000Y-84873000D01*
X98963750Y-84873000D01*
X99122500Y-84714250D01*
X99125572Y-84300000D01*
X99113312Y-84175518D01*
X99077002Y-84055820D01*
X99018037Y-83945506D01*
X98938685Y-83848815D01*
X98841994Y-83769463D01*
X98731680Y-83710498D01*
X98611982Y-83674188D01*
X98487500Y-83661928D01*
X98285750Y-83665000D01*
X98127000Y-83823750D01*
X97873000Y-83823750D01*
X97714250Y-83665000D01*
X97512500Y-83661928D01*
X97388018Y-83674188D01*
X97268320Y-83710498D01*
X97158006Y-83769463D01*
X97061315Y-83848815D01*
X96997508Y-83926564D01*
X96992292Y-83920208D01*
X96858664Y-83810542D01*
X96706209Y-83729053D01*
X96540785Y-83678872D01*
X96368750Y-83661928D01*
X95881250Y-83661928D01*
X95709215Y-83678872D01*
X95543791Y-83729053D01*
X95391336Y-83810542D01*
X95257708Y-83920208D01*
X95148042Y-84053836D01*
X95066553Y-84206291D01*
X95016372Y-84371715D01*
X94999428Y-84543750D01*
X94999428Y-85015415D01*
X94222190Y-85792653D01*
X94192236Y-85817236D01*
X94094138Y-85936768D01*
X94021246Y-86073141D01*
X93976359Y-86221114D01*
X93965000Y-86336440D01*
X93965000Y-86336447D01*
X93961203Y-86375000D01*
X93965000Y-86413553D01*
X93965000Y-87013422D01*
X93260000Y-86308422D01*
X93260000Y-86285735D01*
X93323284Y-86208623D01*
X93428676Y-86011447D01*
X93493577Y-85797499D01*
X93510000Y-85630752D01*
X93510000Y-85202006D01*
X93555751Y-85197500D01*
X93555752Y-85197500D01*
X93722499Y-85181077D01*
X93936447Y-85116176D01*
X94133623Y-85010784D01*
X94306449Y-84868949D01*
X94341996Y-84825635D01*
X97263146Y-81904487D01*
X97306449Y-81868949D01*
X97345318Y-81821588D01*
X97448284Y-81696123D01*
X97553676Y-81498947D01*
X97618577Y-81284999D01*
X97640491Y-81062500D01*
X97635000Y-81006748D01*
X97635000Y-77638072D01*
X98000000Y-77638072D01*
X98124482Y-77625812D01*
X98244180Y-77589502D01*
X98354494Y-77530537D01*
X98451185Y-77451185D01*
X98530537Y-77354494D01*
X98589502Y-77244180D01*
X98625812Y-77124482D01*
X98638072Y-77000000D01*
X98638072Y-74000000D01*
X98625812Y-73875518D01*
X98589502Y-73755820D01*
X98530537Y-73645506D01*
X98451185Y-73548815D01*
X98354494Y-73469463D01*
X98244180Y-73410498D01*
X98124482Y-73374188D01*
X98000000Y-73361928D01*
X95000000Y-73361928D01*
X94875518Y-73374188D01*
X94755820Y-73410498D01*
X94645506Y-73469463D01*
X94548815Y-73548815D01*
X94469463Y-73645506D01*
X94410498Y-73755820D01*
X94374188Y-73875518D01*
X94361928Y-74000000D01*
X94361928Y-74311685D01*
X94111653Y-74187952D01*
X92799605Y-75500000D01*
X94111653Y-76812048D01*
X94361928Y-76688315D01*
X94361928Y-77000000D01*
X94374188Y-77124482D01*
X94410498Y-77244180D01*
X94469463Y-77354494D01*
X94548815Y-77451185D01*
X94645506Y-77530537D01*
X94755820Y-77589502D01*
X94875518Y-77625812D01*
X95000000Y-77638072D01*
X95365001Y-77638072D01*
X95365000Y-80592367D01*
X93092804Y-82864565D01*
X92956209Y-82791553D01*
X92790785Y-82741372D01*
X92618750Y-82724428D01*
X92131250Y-82724428D01*
X91959215Y-82741372D01*
X91793791Y-82791553D01*
X91641336Y-82873042D01*
X91507708Y-82982708D01*
X91502492Y-82989064D01*
X91438685Y-82911315D01*
X91341994Y-82831963D01*
X91231680Y-82772998D01*
X91111982Y-82736688D01*
X90987500Y-82724428D01*
X90785750Y-82727500D01*
X90627000Y-82886250D01*
X90627000Y-83935500D01*
X90647000Y-83935500D01*
X90647000Y-84189500D01*
X90627000Y-84189500D01*
X90627000Y-85238750D01*
X90785750Y-85397500D01*
X90987500Y-85400572D01*
X91111982Y-85388312D01*
X91231680Y-85352002D01*
X91240000Y-85347555D01*
X91240000Y-85630752D01*
X91256423Y-85797499D01*
X91321325Y-86011447D01*
X91426717Y-86208623D01*
X91490001Y-86285734D01*
X91490001Y-86631522D01*
X91485719Y-86675000D01*
X91502805Y-86848490D01*
X91553412Y-87015313D01*
X91635590Y-87169059D01*
X91718468Y-87270046D01*
X91718471Y-87270049D01*
X91746184Y-87303817D01*
X91779951Y-87331529D01*
X92813421Y-88365000D01*
X92560735Y-88365000D01*
X92483623Y-88301716D01*
X92286447Y-88196324D01*
X92072499Y-88131423D01*
X91905752Y-88115000D01*
X91645132Y-88115000D01*
X88292632Y-84762500D01*
X89374428Y-84762500D01*
X89386688Y-84886982D01*
X89422998Y-85006680D01*
X89481963Y-85116994D01*
X89561315Y-85213685D01*
X89658006Y-85293037D01*
X89768320Y-85352002D01*
X89888018Y-85388312D01*
X90012500Y-85400572D01*
X90214250Y-85397500D01*
X90373000Y-85238750D01*
X90373000Y-84189500D01*
X89536250Y-84189500D01*
X89377500Y-84348250D01*
X89374428Y-84762500D01*
X88292632Y-84762500D01*
X86892632Y-83362500D01*
X89374428Y-83362500D01*
X89377500Y-83776750D01*
X89536250Y-83935500D01*
X90373000Y-83935500D01*
X90373000Y-82886250D01*
X90214250Y-82727500D01*
X90012500Y-82724428D01*
X89888018Y-82736688D01*
X89768320Y-82772998D01*
X89658006Y-82831963D01*
X89561315Y-82911315D01*
X89481963Y-83008006D01*
X89422998Y-83118320D01*
X89386688Y-83238018D01*
X89374428Y-83362500D01*
X86892632Y-83362500D01*
X86766996Y-83236865D01*
X86731449Y-83193551D01*
X86572500Y-83063105D01*
X86572500Y-77493252D01*
X86577991Y-77437500D01*
X86556077Y-77215001D01*
X86491176Y-77001053D01*
X86486152Y-76991653D01*
X91307952Y-76991653D01*
X91463962Y-77307214D01*
X91838745Y-77498020D01*
X92243551Y-77612044D01*
X92662824Y-77644902D01*
X93080451Y-77595334D01*
X93480383Y-77465243D01*
X93776038Y-77307214D01*
X93932048Y-76991653D01*
X92620000Y-75679605D01*
X91307952Y-76991653D01*
X86486152Y-76991653D01*
X86385784Y-76803877D01*
X86243949Y-76631051D01*
X86200641Y-76595509D01*
X85638072Y-76032940D01*
X85638072Y-75542824D01*
X90475098Y-75542824D01*
X90524666Y-75960451D01*
X90654757Y-76360383D01*
X90812786Y-76656038D01*
X91128347Y-76812048D01*
X92440395Y-75500000D01*
X91128347Y-74187952D01*
X90812786Y-74343962D01*
X90621980Y-74718745D01*
X90507956Y-75123551D01*
X90475098Y-75542824D01*
X85638072Y-75542824D01*
X85638072Y-74008347D01*
X91307952Y-74008347D01*
X92620000Y-75320395D01*
X93932048Y-74008347D01*
X93776038Y-73692786D01*
X93401255Y-73501980D01*
X92996449Y-73387956D01*
X92577176Y-73355098D01*
X92159549Y-73404666D01*
X91759617Y-73534757D01*
X91463962Y-73692786D01*
X91307952Y-74008347D01*
X85638072Y-74008347D01*
X85638072Y-74000000D01*
X85625812Y-73875518D01*
X85589502Y-73755820D01*
X85530537Y-73645506D01*
X85451185Y-73548815D01*
X85354494Y-73469463D01*
X85244180Y-73410498D01*
X85124482Y-73374188D01*
X85000000Y-73361928D01*
X82000000Y-73361928D01*
X81875518Y-73374188D01*
X81755820Y-73410498D01*
X81645506Y-73469463D01*
X81548815Y-73548815D01*
X81469463Y-73645506D01*
X81410498Y-73755820D01*
X81374188Y-73875518D01*
X81361928Y-74000000D01*
X81361928Y-74311685D01*
X81111653Y-74187952D01*
X79799605Y-75500000D01*
X81111653Y-76812048D01*
X81361928Y-76688315D01*
X81361928Y-77000000D01*
X81374188Y-77124482D01*
X81410498Y-77244180D01*
X81469463Y-77354494D01*
X81548815Y-77451185D01*
X81645506Y-77530537D01*
X81755820Y-77589502D01*
X81875518Y-77625812D01*
X82000000Y-77638072D01*
X84032940Y-77638072D01*
X84302500Y-77907632D01*
X84302501Y-82714946D01*
X84294180Y-82710498D01*
X84174482Y-82674188D01*
X84050000Y-82661928D01*
X83848250Y-82665000D01*
X83689500Y-82823750D01*
X83689500Y-83873000D01*
X83709500Y-83873000D01*
X83709500Y-84127000D01*
X83689500Y-84127000D01*
X83689500Y-85176250D01*
X83848250Y-85335000D01*
X84050000Y-85338072D01*
X84174482Y-85325812D01*
X84294180Y-85289502D01*
X84404494Y-85230537D01*
X84501185Y-85151185D01*
X84564992Y-85073436D01*
X84570208Y-85079792D01*
X84703836Y-85189458D01*
X84856291Y-85270947D01*
X85021715Y-85321128D01*
X85193750Y-85338072D01*
X85657941Y-85338072D01*
X89984868Y-89665000D01*
X89935498Y-89665000D01*
X89935498Y-89823748D01*
X89776750Y-89665000D01*
X89575000Y-89661928D01*
X89450518Y-89674188D01*
X89330820Y-89710498D01*
X89220506Y-89769463D01*
X89123815Y-89848815D01*
X89044463Y-89945506D01*
X88985498Y-90055820D01*
X88949188Y-90175518D01*
X88936928Y-90300000D01*
X88940000Y-90714250D01*
X89098750Y-90873000D01*
X89935500Y-90873000D01*
X89935500Y-90853000D01*
X90189500Y-90853000D01*
X90189500Y-90873000D01*
X90209500Y-90873000D01*
X90209500Y-91127000D01*
X90189500Y-91127000D01*
X90189500Y-92176250D01*
X90348250Y-92335000D01*
X90550000Y-92338072D01*
X90674482Y-92325812D01*
X90794180Y-92289502D01*
X90904494Y-92230537D01*
X91001185Y-92151185D01*
X91064992Y-92073436D01*
X91070208Y-92079792D01*
X91153440Y-92148099D01*
X91163859Y-92253886D01*
X91208746Y-92401859D01*
X91208747Y-92401860D01*
X91281639Y-92538233D01*
X91309236Y-92571859D01*
X91355155Y-92627812D01*
X91355159Y-92627816D01*
X91379737Y-92657764D01*
X91409685Y-92682342D01*
X91567653Y-92840310D01*
X91592236Y-92870264D01*
X91711767Y-92968362D01*
X91848140Y-93041254D01*
X91968175Y-93077666D01*
X91996112Y-93086141D01*
X92010490Y-93087557D01*
X92111439Y-93097500D01*
X92111446Y-93097500D01*
X92149999Y-93101297D01*
X92188552Y-93097500D01*
X92312000Y-93097500D01*
X92258340Y-93127797D01*
X92163508Y-93209362D01*
X92086412Y-93307862D01*
X92030013Y-93419509D01*
X91996479Y-93540014D01*
X91987098Y-93664746D01*
X91990000Y-93776750D01*
X92148748Y-93935498D01*
X91990000Y-93935498D01*
X91990000Y-93986928D01*
X91712500Y-93986928D01*
X91575825Y-94000389D01*
X91444403Y-94040256D01*
X91323283Y-94104996D01*
X91217121Y-94192121D01*
X91129996Y-94298283D01*
X91065256Y-94419403D01*
X91025389Y-94550825D01*
X91011928Y-94687500D01*
X91011928Y-94812500D01*
X91025389Y-94949175D01*
X91030190Y-94965000D01*
X83075158Y-94965000D01*
X79810158Y-91700000D01*
X88936928Y-91700000D01*
X88949188Y-91824482D01*
X88985498Y-91944180D01*
X89044463Y-92054494D01*
X89123815Y-92151185D01*
X89220506Y-92230537D01*
X89330820Y-92289502D01*
X89450518Y-92325812D01*
X89575000Y-92338072D01*
X89776750Y-92335000D01*
X89935500Y-92176250D01*
X89935500Y-91127000D01*
X89098750Y-91127000D01*
X88940000Y-91285750D01*
X88936928Y-91700000D01*
X79810158Y-91700000D01*
X78844121Y-90733964D01*
X78821589Y-90659687D01*
X78739411Y-90505941D01*
X78628817Y-90371183D01*
X78494059Y-90260589D01*
X78340313Y-90178411D01*
X78173490Y-90127805D01*
X78043477Y-90115000D01*
X73718450Y-90115000D01*
X73537624Y-89994176D01*
X73331067Y-89908617D01*
X73111788Y-89865000D01*
X72888212Y-89865000D01*
X72668933Y-89908617D01*
X72462376Y-89994176D01*
X72276480Y-90118388D01*
X72118388Y-90276480D01*
X71994176Y-90462376D01*
X71908617Y-90668933D01*
X71865000Y-90888212D01*
X70685000Y-90888212D01*
X70685000Y-84700000D01*
X82436928Y-84700000D01*
X82449188Y-84824482D01*
X82485498Y-84944180D01*
X82544463Y-85054494D01*
X82623815Y-85151185D01*
X82720506Y-85230537D01*
X82830820Y-85289502D01*
X82950518Y-85325812D01*
X83075000Y-85338072D01*
X83276750Y-85335000D01*
X83435500Y-85176250D01*
X83435500Y-84127000D01*
X82598750Y-84127000D01*
X82440000Y-84285750D01*
X82436928Y-84700000D01*
X70685000Y-84700000D01*
X70685000Y-83300000D01*
X82436928Y-83300000D01*
X82440000Y-83714250D01*
X82598750Y-83873000D01*
X83435500Y-83873000D01*
X83435500Y-82823750D01*
X83276750Y-82665000D01*
X83075000Y-82661928D01*
X82950518Y-82674188D01*
X82830820Y-82710498D01*
X82720506Y-82769463D01*
X82623815Y-82848815D01*
X82544463Y-82945506D01*
X82485498Y-83055820D01*
X82449188Y-83175518D01*
X82436928Y-83300000D01*
X70685000Y-83300000D01*
X70685000Y-76991653D01*
X78307952Y-76991653D01*
X78463962Y-77307214D01*
X78838745Y-77498020D01*
X79243551Y-77612044D01*
X79662824Y-77644902D01*
X80080451Y-77595334D01*
X80480383Y-77465243D01*
X80776038Y-77307214D01*
X80932048Y-76991653D01*
X79620000Y-75679605D01*
X78307952Y-76991653D01*
X70685000Y-76991653D01*
X70685000Y-75542824D01*
X77475098Y-75542824D01*
X77524666Y-75960451D01*
X77654757Y-76360383D01*
X77812786Y-76656038D01*
X78128347Y-76812048D01*
X79440395Y-75500000D01*
X78128347Y-74187952D01*
X77812786Y-74343962D01*
X77621980Y-74718745D01*
X77507956Y-75123551D01*
X77475098Y-75542824D01*
X70685000Y-75542824D01*
X70685000Y-74008347D01*
X78307952Y-74008347D01*
X79620000Y-75320395D01*
X80932048Y-74008347D01*
X80776038Y-73692786D01*
X80401255Y-73501980D01*
X79996449Y-73387956D01*
X79577176Y-73355098D01*
X79159549Y-73404666D01*
X78759617Y-73534757D01*
X78463962Y-73692786D01*
X78307952Y-74008347D01*
X70685000Y-74008347D01*
X70685000Y-70685000D01*
X119315000Y-70685000D01*
X119315001Y-119315000D01*
G36*
X94127000Y-95873000D02*
G01*
X94147000Y-95873000D01*
X94147000Y-96127000D01*
X94127000Y-96127000D01*
X94127000Y-96147000D01*
X93873000Y-96147000D01*
X93873000Y-96127000D01*
X93853000Y-96127000D01*
X93853000Y-95873000D01*
X93873000Y-95873000D01*
X93873000Y-95853000D01*
X94127000Y-95853000D01*
X94127000Y-95873000D01*
G37*
X94127000Y-95873000D02*
X94147000Y-95873000D01*
X94147000Y-96127000D01*
X94127000Y-96127000D01*
X94127000Y-96147000D01*
X93873000Y-96147000D01*
X93873000Y-96127000D01*
X93853000Y-96127000D01*
X93853000Y-95873000D01*
X93873000Y-95873000D01*
X93873000Y-95853000D01*
X94127000Y-95853000D01*
X94127000Y-95873000D01*
G36*
X95450825Y-95499611D02*
G01*
X95587500Y-95513072D01*
X95748772Y-95513072D01*
X95783613Y-95523641D01*
X95898939Y-95535000D01*
X96805273Y-95535000D01*
X96873000Y-95573701D01*
X96873000Y-95865000D01*
X96622600Y-95865000D01*
X96455853Y-95881423D01*
X96241905Y-95946324D01*
X96165940Y-95986928D01*
X95943643Y-95986928D01*
X95937500Y-95986323D01*
X95931357Y-95986928D01*
X95587500Y-95986928D01*
X95450825Y-96000389D01*
X95327000Y-96037951D01*
X95327000Y-95462049D01*
X95450825Y-95499611D01*
G37*
X95450825Y-95499611D02*
X95587500Y-95513072D01*
X95748772Y-95513072D01*
X95783613Y-95523641D01*
X95898939Y-95535000D01*
X96805273Y-95535000D01*
X96873000Y-95573701D01*
X96873000Y-95865000D01*
X96622600Y-95865000D01*
X96455853Y-95881423D01*
X96241905Y-95946324D01*
X96165940Y-95986928D01*
X95943643Y-95986928D01*
X95937500Y-95986323D01*
X95931357Y-95986928D01*
X95587500Y-95986928D01*
X95450825Y-96000389D01*
X95327000Y-96037951D01*
X95327000Y-95462049D01*
X95450825Y-95499611D01*
G36*
X91567653Y-92840310D02*
G01*
X91592236Y-92870264D01*
X91711767Y-92968362D01*
X91848140Y-93041254D01*
X91968175Y-93077666D01*
X91996112Y-93086141D01*
X92010490Y-93087557D01*
X92111439Y-93097500D01*
X92111446Y-93097500D01*
X92149999Y-93101297D01*
X92188552Y-93097500D01*
X92465000Y-93097500D01*
X92465001Y-93973000D01*
X91620140Y-93973000D01*
X91556599Y-92829256D01*
X91567653Y-92840310D01*
G37*
X91567653Y-92840310D02*
X91592236Y-92870264D01*
X91711767Y-92968362D01*
X91848140Y-93041254D01*
X91968175Y-93077666D01*
X91996112Y-93086141D01*
X92010490Y-93087557D01*
X92111439Y-93097500D01*
X92111446Y-93097500D01*
X92149999Y-93101297D01*
X92188552Y-93097500D01*
X92465000Y-93097500D01*
X92465001Y-93973000D01*
X91620140Y-93973000D01*
X91556599Y-92829256D01*
X91567653Y-92840310D01*
M02*
