G04 #@! TF.GenerationSoftware,KiCad,Pcbnew,(5.1.5)-3*
G04 #@! TF.CreationDate,2022-02-09T23:25:39-03:00*
G04 #@! TF.ProjectId,envcity_pcb,656e7663-6974-4795-9f70-63622e6b6963,rev?*
G04 #@! TF.SameCoordinates,Original*
G04 #@! TF.FileFunction,Soldermask,Top*
G04 #@! TF.FilePolarity,Negative*
%FSLAX46Y46*%
G04 Gerber Fmt 4.6, Leading zero omitted, Abs format (unit mm)*
G04 Created by KiCad (PCBNEW (5.1.5)-3) date 2022-02-09 23:25:39*
%MOMM*%
%LPD*%
G04 APERTURE LIST*
%ADD10C,0.100000*%
G04 APERTURE END LIST*
D10*
G36*
X175842793Y-130140103D02*
G01*
X176145470Y-130200309D01*
X176573143Y-130377457D01*
X176958038Y-130634636D01*
X177285364Y-130961962D01*
X177542543Y-131346857D01*
X177719691Y-131774530D01*
X177758430Y-131969287D01*
X177793787Y-132147034D01*
X177810000Y-132228545D01*
X177810000Y-132691455D01*
X177719691Y-133145470D01*
X177542543Y-133573143D01*
X177285364Y-133958038D01*
X176958038Y-134285364D01*
X176573143Y-134542543D01*
X176145470Y-134719691D01*
X175842793Y-134779897D01*
X175691456Y-134810000D01*
X175228544Y-134810000D01*
X175077207Y-134779897D01*
X174774530Y-134719691D01*
X174346857Y-134542543D01*
X173961962Y-134285364D01*
X173634636Y-133958038D01*
X173377457Y-133573143D01*
X173200309Y-133145470D01*
X173110000Y-132691455D01*
X173110000Y-132228545D01*
X173126214Y-132147034D01*
X173161570Y-131969287D01*
X173200309Y-131774530D01*
X173377457Y-131346857D01*
X173634636Y-130961962D01*
X173961962Y-130634636D01*
X174346857Y-130377457D01*
X174774530Y-130200309D01*
X175077207Y-130140103D01*
X175228544Y-130110000D01*
X175691456Y-130110000D01*
X175842793Y-130140103D01*
G37*
G36*
X82922793Y-130140103D02*
G01*
X83225470Y-130200309D01*
X83653143Y-130377457D01*
X84038038Y-130634636D01*
X84365364Y-130961962D01*
X84622543Y-131346857D01*
X84799691Y-131774530D01*
X84838430Y-131969287D01*
X84873787Y-132147034D01*
X84890000Y-132228545D01*
X84890000Y-132691455D01*
X84799691Y-133145470D01*
X84622543Y-133573143D01*
X84365364Y-133958038D01*
X84038038Y-134285364D01*
X83653143Y-134542543D01*
X83225470Y-134719691D01*
X82922793Y-134779897D01*
X82771456Y-134810000D01*
X82308544Y-134810000D01*
X82157207Y-134779897D01*
X81854530Y-134719691D01*
X81426857Y-134542543D01*
X81041962Y-134285364D01*
X80714636Y-133958038D01*
X80457457Y-133573143D01*
X80280309Y-133145470D01*
X80190000Y-132691455D01*
X80190000Y-132228545D01*
X80206214Y-132147034D01*
X80241570Y-131969287D01*
X80280309Y-131774530D01*
X80457457Y-131346857D01*
X80714636Y-130961962D01*
X81041962Y-130634636D01*
X81426857Y-130377457D01*
X81854530Y-130200309D01*
X82157207Y-130140103D01*
X82308544Y-130110000D01*
X82771456Y-130110000D01*
X82922793Y-130140103D01*
G37*
G36*
X136560548Y-129862326D02*
G01*
X136734157Y-129914990D01*
X136894156Y-130000511D01*
X136908612Y-130012375D01*
X137034397Y-130115603D01*
X137102966Y-130199156D01*
X137149489Y-130255844D01*
X137235010Y-130415843D01*
X137287674Y-130589452D01*
X137301000Y-130724757D01*
X137301000Y-131275244D01*
X137287674Y-131410548D01*
X137235010Y-131584157D01*
X137149489Y-131744156D01*
X137124561Y-131774530D01*
X137034397Y-131884397D01*
X136894155Y-131999489D01*
X136761432Y-132070431D01*
X136734156Y-132085010D01*
X136560547Y-132137674D01*
X136380000Y-132155456D01*
X136199452Y-132137674D01*
X136025843Y-132085010D01*
X135865844Y-131999489D01*
X135822271Y-131963729D01*
X135725603Y-131884397D01*
X135610511Y-131744155D01*
X135524991Y-131584158D01*
X135524990Y-131584156D01*
X135472326Y-131410547D01*
X135459000Y-131275243D01*
X135459000Y-130724756D01*
X135472326Y-130589452D01*
X135524990Y-130415843D01*
X135610512Y-130255844D01*
X135620832Y-130243270D01*
X135725604Y-130115603D01*
X135851389Y-130012375D01*
X135865845Y-130000511D01*
X136025844Y-129914990D01*
X136199453Y-129862326D01*
X136380000Y-129844544D01*
X136560548Y-129862326D01*
G37*
G36*
X119480548Y-129862326D02*
G01*
X119654157Y-129914990D01*
X119814156Y-130000511D01*
X119828612Y-130012375D01*
X119954397Y-130115603D01*
X120022966Y-130199156D01*
X120069489Y-130255844D01*
X120155010Y-130415843D01*
X120207674Y-130589452D01*
X120221000Y-130724757D01*
X120221000Y-131275244D01*
X120207674Y-131410548D01*
X120155010Y-131584157D01*
X120069489Y-131744156D01*
X120044561Y-131774530D01*
X119954397Y-131884397D01*
X119814155Y-131999489D01*
X119681432Y-132070431D01*
X119654156Y-132085010D01*
X119480547Y-132137674D01*
X119300000Y-132155456D01*
X119119452Y-132137674D01*
X118945843Y-132085010D01*
X118785844Y-131999489D01*
X118742271Y-131963729D01*
X118645603Y-131884397D01*
X118530511Y-131744155D01*
X118444991Y-131584158D01*
X118444990Y-131584156D01*
X118392326Y-131410547D01*
X118379000Y-131275243D01*
X118379000Y-130724756D01*
X118392326Y-130589452D01*
X118444990Y-130415843D01*
X118530512Y-130255844D01*
X118540832Y-130243270D01*
X118645604Y-130115603D01*
X118771389Y-130012375D01*
X118785845Y-130000511D01*
X118945844Y-129914990D01*
X119119453Y-129862326D01*
X119300000Y-129844544D01*
X119480548Y-129862326D01*
G37*
G36*
X102480548Y-129862326D02*
G01*
X102654157Y-129914990D01*
X102814156Y-130000511D01*
X102828612Y-130012375D01*
X102954397Y-130115603D01*
X103022966Y-130199156D01*
X103069489Y-130255844D01*
X103155010Y-130415843D01*
X103207674Y-130589452D01*
X103221000Y-130724757D01*
X103221000Y-131275244D01*
X103207674Y-131410548D01*
X103155010Y-131584157D01*
X103069489Y-131744156D01*
X103044561Y-131774530D01*
X102954397Y-131884397D01*
X102814155Y-131999489D01*
X102681432Y-132070431D01*
X102654156Y-132085010D01*
X102480547Y-132137674D01*
X102300000Y-132155456D01*
X102119452Y-132137674D01*
X101945843Y-132085010D01*
X101785844Y-131999489D01*
X101742271Y-131963729D01*
X101645603Y-131884397D01*
X101530511Y-131744155D01*
X101444991Y-131584158D01*
X101444990Y-131584156D01*
X101392326Y-131410547D01*
X101379000Y-131275243D01*
X101379000Y-130724756D01*
X101392326Y-130589452D01*
X101444990Y-130415843D01*
X101530512Y-130255844D01*
X101540832Y-130243270D01*
X101645604Y-130115603D01*
X101771389Y-130012375D01*
X101785845Y-130000511D01*
X101945844Y-129914990D01*
X102119453Y-129862326D01*
X102300000Y-129844544D01*
X102480548Y-129862326D01*
G37*
G36*
X105020548Y-129862326D02*
G01*
X105194157Y-129914990D01*
X105354156Y-130000511D01*
X105368612Y-130012375D01*
X105494397Y-130115603D01*
X105562966Y-130199156D01*
X105609489Y-130255844D01*
X105695010Y-130415843D01*
X105747674Y-130589452D01*
X105761000Y-130724757D01*
X105761000Y-131275244D01*
X105747674Y-131410548D01*
X105695010Y-131584157D01*
X105609489Y-131744156D01*
X105584561Y-131774530D01*
X105494397Y-131884397D01*
X105354155Y-131999489D01*
X105221432Y-132070431D01*
X105194156Y-132085010D01*
X105020547Y-132137674D01*
X104840000Y-132155456D01*
X104659452Y-132137674D01*
X104485843Y-132085010D01*
X104325844Y-131999489D01*
X104282271Y-131963729D01*
X104185603Y-131884397D01*
X104070511Y-131744155D01*
X103984991Y-131584158D01*
X103984990Y-131584156D01*
X103932326Y-131410547D01*
X103919000Y-131275243D01*
X103919000Y-130724756D01*
X103932326Y-130589452D01*
X103984990Y-130415843D01*
X104070512Y-130255844D01*
X104080832Y-130243270D01*
X104185604Y-130115603D01*
X104311389Y-130012375D01*
X104325845Y-130000511D01*
X104485844Y-129914990D01*
X104659453Y-129862326D01*
X104840000Y-129844544D01*
X105020548Y-129862326D01*
G37*
G36*
X107560548Y-129862326D02*
G01*
X107734157Y-129914990D01*
X107894156Y-130000511D01*
X107908612Y-130012375D01*
X108034397Y-130115603D01*
X108102966Y-130199156D01*
X108149489Y-130255844D01*
X108235010Y-130415843D01*
X108287674Y-130589452D01*
X108301000Y-130724757D01*
X108301000Y-131275244D01*
X108287674Y-131410548D01*
X108235010Y-131584157D01*
X108149489Y-131744156D01*
X108124561Y-131774530D01*
X108034397Y-131884397D01*
X107894155Y-131999489D01*
X107761432Y-132070431D01*
X107734156Y-132085010D01*
X107560547Y-132137674D01*
X107380000Y-132155456D01*
X107199452Y-132137674D01*
X107025843Y-132085010D01*
X106865844Y-131999489D01*
X106822271Y-131963729D01*
X106725603Y-131884397D01*
X106610511Y-131744155D01*
X106524991Y-131584158D01*
X106524990Y-131584156D01*
X106472326Y-131410547D01*
X106459000Y-131275243D01*
X106459000Y-130724756D01*
X106472326Y-130589452D01*
X106524990Y-130415843D01*
X106610512Y-130255844D01*
X106620832Y-130243270D01*
X106725604Y-130115603D01*
X106851389Y-130012375D01*
X106865845Y-130000511D01*
X107025844Y-129914990D01*
X107199453Y-129862326D01*
X107380000Y-129844544D01*
X107560548Y-129862326D01*
G37*
G36*
X110100548Y-129862326D02*
G01*
X110274157Y-129914990D01*
X110434156Y-130000511D01*
X110448612Y-130012375D01*
X110574397Y-130115603D01*
X110642966Y-130199156D01*
X110689489Y-130255844D01*
X110775010Y-130415843D01*
X110827674Y-130589452D01*
X110841000Y-130724757D01*
X110841000Y-131275244D01*
X110827674Y-131410548D01*
X110775010Y-131584157D01*
X110689489Y-131744156D01*
X110664561Y-131774530D01*
X110574397Y-131884397D01*
X110434155Y-131999489D01*
X110301432Y-132070431D01*
X110274156Y-132085010D01*
X110100547Y-132137674D01*
X109920000Y-132155456D01*
X109739452Y-132137674D01*
X109565843Y-132085010D01*
X109405844Y-131999489D01*
X109362271Y-131963729D01*
X109265603Y-131884397D01*
X109150511Y-131744155D01*
X109064991Y-131584158D01*
X109064990Y-131584156D01*
X109012326Y-131410547D01*
X108999000Y-131275243D01*
X108999000Y-130724756D01*
X109012326Y-130589452D01*
X109064990Y-130415843D01*
X109150512Y-130255844D01*
X109160832Y-130243270D01*
X109265604Y-130115603D01*
X109391389Y-130012375D01*
X109405845Y-130000511D01*
X109565844Y-129914990D01*
X109739453Y-129862326D01*
X109920000Y-129844544D01*
X110100548Y-129862326D01*
G37*
G36*
X112640548Y-129862326D02*
G01*
X112814157Y-129914990D01*
X112974156Y-130000511D01*
X112988612Y-130012375D01*
X113114397Y-130115603D01*
X113182966Y-130199156D01*
X113229489Y-130255844D01*
X113315010Y-130415843D01*
X113367674Y-130589452D01*
X113381000Y-130724757D01*
X113381000Y-131275244D01*
X113367674Y-131410548D01*
X113315010Y-131584157D01*
X113229489Y-131744156D01*
X113204561Y-131774530D01*
X113114397Y-131884397D01*
X112974155Y-131999489D01*
X112841432Y-132070431D01*
X112814156Y-132085010D01*
X112640547Y-132137674D01*
X112460000Y-132155456D01*
X112279452Y-132137674D01*
X112105843Y-132085010D01*
X111945844Y-131999489D01*
X111902271Y-131963729D01*
X111805603Y-131884397D01*
X111690511Y-131744155D01*
X111604991Y-131584158D01*
X111604990Y-131584156D01*
X111552326Y-131410547D01*
X111539000Y-131275243D01*
X111539000Y-130724756D01*
X111552326Y-130589452D01*
X111604990Y-130415843D01*
X111690512Y-130255844D01*
X111700832Y-130243270D01*
X111805604Y-130115603D01*
X111931389Y-130012375D01*
X111945845Y-130000511D01*
X112105844Y-129914990D01*
X112279453Y-129862326D01*
X112460000Y-129844544D01*
X112640548Y-129862326D01*
G37*
G36*
X146720548Y-129862326D02*
G01*
X146894157Y-129914990D01*
X147054156Y-130000511D01*
X147068612Y-130012375D01*
X147194397Y-130115603D01*
X147262966Y-130199156D01*
X147309489Y-130255844D01*
X147395010Y-130415843D01*
X147447674Y-130589452D01*
X147461000Y-130724757D01*
X147461000Y-131275244D01*
X147447674Y-131410548D01*
X147395010Y-131584157D01*
X147309489Y-131744156D01*
X147284561Y-131774530D01*
X147194397Y-131884397D01*
X147054155Y-131999489D01*
X146921432Y-132070431D01*
X146894156Y-132085010D01*
X146720547Y-132137674D01*
X146540000Y-132155456D01*
X146359452Y-132137674D01*
X146185843Y-132085010D01*
X146025844Y-131999489D01*
X145982271Y-131963729D01*
X145885603Y-131884397D01*
X145770511Y-131744155D01*
X145684991Y-131584158D01*
X145684990Y-131584156D01*
X145632326Y-131410547D01*
X145619000Y-131275243D01*
X145619000Y-130724756D01*
X145632326Y-130589452D01*
X145684990Y-130415843D01*
X145770512Y-130255844D01*
X145780832Y-130243270D01*
X145885604Y-130115603D01*
X146011389Y-130012375D01*
X146025845Y-130000511D01*
X146185844Y-129914990D01*
X146359453Y-129862326D01*
X146540000Y-129844544D01*
X146720548Y-129862326D01*
G37*
G36*
X144180548Y-129862326D02*
G01*
X144354157Y-129914990D01*
X144514156Y-130000511D01*
X144528612Y-130012375D01*
X144654397Y-130115603D01*
X144722966Y-130199156D01*
X144769489Y-130255844D01*
X144855010Y-130415843D01*
X144907674Y-130589452D01*
X144921000Y-130724757D01*
X144921000Y-131275244D01*
X144907674Y-131410548D01*
X144855010Y-131584157D01*
X144769489Y-131744156D01*
X144744561Y-131774530D01*
X144654397Y-131884397D01*
X144514155Y-131999489D01*
X144381432Y-132070431D01*
X144354156Y-132085010D01*
X144180547Y-132137674D01*
X144000000Y-132155456D01*
X143819452Y-132137674D01*
X143645843Y-132085010D01*
X143485844Y-131999489D01*
X143442271Y-131963729D01*
X143345603Y-131884397D01*
X143230511Y-131744155D01*
X143144991Y-131584158D01*
X143144990Y-131584156D01*
X143092326Y-131410547D01*
X143079000Y-131275243D01*
X143079000Y-130724756D01*
X143092326Y-130589452D01*
X143144990Y-130415843D01*
X143230512Y-130255844D01*
X143240832Y-130243270D01*
X143345604Y-130115603D01*
X143471389Y-130012375D01*
X143485845Y-130000511D01*
X143645844Y-129914990D01*
X143819453Y-129862326D01*
X144000000Y-129844544D01*
X144180548Y-129862326D01*
G37*
G36*
X141640548Y-129862326D02*
G01*
X141814157Y-129914990D01*
X141974156Y-130000511D01*
X141988612Y-130012375D01*
X142114397Y-130115603D01*
X142182966Y-130199156D01*
X142229489Y-130255844D01*
X142315010Y-130415843D01*
X142367674Y-130589452D01*
X142381000Y-130724757D01*
X142381000Y-131275244D01*
X142367674Y-131410548D01*
X142315010Y-131584157D01*
X142229489Y-131744156D01*
X142204561Y-131774530D01*
X142114397Y-131884397D01*
X141974155Y-131999489D01*
X141841432Y-132070431D01*
X141814156Y-132085010D01*
X141640547Y-132137674D01*
X141460000Y-132155456D01*
X141279452Y-132137674D01*
X141105843Y-132085010D01*
X140945844Y-131999489D01*
X140902271Y-131963729D01*
X140805603Y-131884397D01*
X140690511Y-131744155D01*
X140604991Y-131584158D01*
X140604990Y-131584156D01*
X140552326Y-131410547D01*
X140539000Y-131275243D01*
X140539000Y-130724756D01*
X140552326Y-130589452D01*
X140604990Y-130415843D01*
X140690512Y-130255844D01*
X140700832Y-130243270D01*
X140805604Y-130115603D01*
X140931389Y-130012375D01*
X140945845Y-130000511D01*
X141105844Y-129914990D01*
X141279453Y-129862326D01*
X141460000Y-129844544D01*
X141640548Y-129862326D01*
G37*
G36*
X139100548Y-129862326D02*
G01*
X139274157Y-129914990D01*
X139434156Y-130000511D01*
X139448612Y-130012375D01*
X139574397Y-130115603D01*
X139642966Y-130199156D01*
X139689489Y-130255844D01*
X139775010Y-130415843D01*
X139827674Y-130589452D01*
X139841000Y-130724757D01*
X139841000Y-131275244D01*
X139827674Y-131410548D01*
X139775010Y-131584157D01*
X139689489Y-131744156D01*
X139664561Y-131774530D01*
X139574397Y-131884397D01*
X139434155Y-131999489D01*
X139301432Y-132070431D01*
X139274156Y-132085010D01*
X139100547Y-132137674D01*
X138920000Y-132155456D01*
X138739452Y-132137674D01*
X138565843Y-132085010D01*
X138405844Y-131999489D01*
X138362271Y-131963729D01*
X138265603Y-131884397D01*
X138150511Y-131744155D01*
X138064991Y-131584158D01*
X138064990Y-131584156D01*
X138012326Y-131410547D01*
X137999000Y-131275243D01*
X137999000Y-130724756D01*
X138012326Y-130589452D01*
X138064990Y-130415843D01*
X138150512Y-130255844D01*
X138160832Y-130243270D01*
X138265604Y-130115603D01*
X138391389Y-130012375D01*
X138405845Y-130000511D01*
X138565844Y-129914990D01*
X138739453Y-129862326D01*
X138920000Y-129844544D01*
X139100548Y-129862326D01*
G37*
G36*
X124560548Y-129862326D02*
G01*
X124734157Y-129914990D01*
X124894156Y-130000511D01*
X124908612Y-130012375D01*
X125034397Y-130115603D01*
X125102966Y-130199156D01*
X125149489Y-130255844D01*
X125235010Y-130415843D01*
X125287674Y-130589452D01*
X125301000Y-130724757D01*
X125301000Y-131275244D01*
X125287674Y-131410548D01*
X125235010Y-131584157D01*
X125149489Y-131744156D01*
X125124561Y-131774530D01*
X125034397Y-131884397D01*
X124894155Y-131999489D01*
X124761432Y-132070431D01*
X124734156Y-132085010D01*
X124560547Y-132137674D01*
X124380000Y-132155456D01*
X124199452Y-132137674D01*
X124025843Y-132085010D01*
X123865844Y-131999489D01*
X123822271Y-131963729D01*
X123725603Y-131884397D01*
X123610511Y-131744155D01*
X123524991Y-131584158D01*
X123524990Y-131584156D01*
X123472326Y-131410547D01*
X123459000Y-131275243D01*
X123459000Y-130724756D01*
X123472326Y-130589452D01*
X123524990Y-130415843D01*
X123610512Y-130255844D01*
X123620832Y-130243270D01*
X123725604Y-130115603D01*
X123851389Y-130012375D01*
X123865845Y-130000511D01*
X124025844Y-129914990D01*
X124199453Y-129862326D01*
X124380000Y-129844544D01*
X124560548Y-129862326D01*
G37*
G36*
X127100548Y-129862326D02*
G01*
X127274157Y-129914990D01*
X127434156Y-130000511D01*
X127448612Y-130012375D01*
X127574397Y-130115603D01*
X127642966Y-130199156D01*
X127689489Y-130255844D01*
X127775010Y-130415843D01*
X127827674Y-130589452D01*
X127841000Y-130724757D01*
X127841000Y-131275244D01*
X127827674Y-131410548D01*
X127775010Y-131584157D01*
X127689489Y-131744156D01*
X127664561Y-131774530D01*
X127574397Y-131884397D01*
X127434155Y-131999489D01*
X127301432Y-132070431D01*
X127274156Y-132085010D01*
X127100547Y-132137674D01*
X126920000Y-132155456D01*
X126739452Y-132137674D01*
X126565843Y-132085010D01*
X126405844Y-131999489D01*
X126362271Y-131963729D01*
X126265603Y-131884397D01*
X126150511Y-131744155D01*
X126064991Y-131584158D01*
X126064990Y-131584156D01*
X126012326Y-131410547D01*
X125999000Y-131275243D01*
X125999000Y-130724756D01*
X126012326Y-130589452D01*
X126064990Y-130415843D01*
X126150512Y-130255844D01*
X126160832Y-130243270D01*
X126265604Y-130115603D01*
X126391389Y-130012375D01*
X126405845Y-130000511D01*
X126565844Y-129914990D01*
X126739453Y-129862326D01*
X126920000Y-129844544D01*
X127100548Y-129862326D01*
G37*
G36*
X129640548Y-129862326D02*
G01*
X129814157Y-129914990D01*
X129974156Y-130000511D01*
X129988612Y-130012375D01*
X130114397Y-130115603D01*
X130182966Y-130199156D01*
X130229489Y-130255844D01*
X130315010Y-130415843D01*
X130367674Y-130589452D01*
X130381000Y-130724757D01*
X130381000Y-131275244D01*
X130367674Y-131410548D01*
X130315010Y-131584157D01*
X130229489Y-131744156D01*
X130204561Y-131774530D01*
X130114397Y-131884397D01*
X129974155Y-131999489D01*
X129841432Y-132070431D01*
X129814156Y-132085010D01*
X129640547Y-132137674D01*
X129460000Y-132155456D01*
X129279452Y-132137674D01*
X129105843Y-132085010D01*
X128945844Y-131999489D01*
X128902271Y-131963729D01*
X128805603Y-131884397D01*
X128690511Y-131744155D01*
X128604991Y-131584158D01*
X128604990Y-131584156D01*
X128552326Y-131410547D01*
X128539000Y-131275243D01*
X128539000Y-130724756D01*
X128552326Y-130589452D01*
X128604990Y-130415843D01*
X128690512Y-130255844D01*
X128700832Y-130243270D01*
X128805604Y-130115603D01*
X128931389Y-130012375D01*
X128945845Y-130000511D01*
X129105844Y-129914990D01*
X129279453Y-129862326D01*
X129460000Y-129844544D01*
X129640548Y-129862326D01*
G37*
G36*
X161140548Y-129862326D02*
G01*
X161314157Y-129914990D01*
X161474156Y-130000511D01*
X161488612Y-130012375D01*
X161614397Y-130115603D01*
X161682966Y-130199156D01*
X161729489Y-130255844D01*
X161815010Y-130415843D01*
X161867674Y-130589452D01*
X161881000Y-130724757D01*
X161881000Y-131275244D01*
X161867674Y-131410548D01*
X161815010Y-131584157D01*
X161729489Y-131744156D01*
X161704561Y-131774530D01*
X161614397Y-131884397D01*
X161474155Y-131999489D01*
X161341432Y-132070431D01*
X161314156Y-132085010D01*
X161140547Y-132137674D01*
X160960000Y-132155456D01*
X160779452Y-132137674D01*
X160605843Y-132085010D01*
X160445844Y-131999489D01*
X160402271Y-131963729D01*
X160305603Y-131884397D01*
X160190511Y-131744155D01*
X160104991Y-131584158D01*
X160104990Y-131584156D01*
X160052326Y-131410547D01*
X160039000Y-131275243D01*
X160039000Y-130724756D01*
X160052326Y-130589452D01*
X160104990Y-130415843D01*
X160190512Y-130255844D01*
X160200832Y-130243270D01*
X160305604Y-130115603D01*
X160431389Y-130012375D01*
X160445845Y-130000511D01*
X160605844Y-129914990D01*
X160779453Y-129862326D01*
X160960000Y-129844544D01*
X161140548Y-129862326D01*
G37*
G36*
X158600548Y-129862326D02*
G01*
X158774157Y-129914990D01*
X158934156Y-130000511D01*
X158948612Y-130012375D01*
X159074397Y-130115603D01*
X159142966Y-130199156D01*
X159189489Y-130255844D01*
X159275010Y-130415843D01*
X159327674Y-130589452D01*
X159341000Y-130724757D01*
X159341000Y-131275244D01*
X159327674Y-131410548D01*
X159275010Y-131584157D01*
X159189489Y-131744156D01*
X159164561Y-131774530D01*
X159074397Y-131884397D01*
X158934155Y-131999489D01*
X158801432Y-132070431D01*
X158774156Y-132085010D01*
X158600547Y-132137674D01*
X158420000Y-132155456D01*
X158239452Y-132137674D01*
X158065843Y-132085010D01*
X157905844Y-131999489D01*
X157862271Y-131963729D01*
X157765603Y-131884397D01*
X157650511Y-131744155D01*
X157564991Y-131584158D01*
X157564990Y-131584156D01*
X157512326Y-131410547D01*
X157499000Y-131275243D01*
X157499000Y-130724756D01*
X157512326Y-130589452D01*
X157564990Y-130415843D01*
X157650512Y-130255844D01*
X157660832Y-130243270D01*
X157765604Y-130115603D01*
X157891389Y-130012375D01*
X157905845Y-130000511D01*
X158065844Y-129914990D01*
X158239453Y-129862326D01*
X158420000Y-129844544D01*
X158600548Y-129862326D01*
G37*
G36*
X156060548Y-129862326D02*
G01*
X156234157Y-129914990D01*
X156394156Y-130000511D01*
X156408612Y-130012375D01*
X156534397Y-130115603D01*
X156602966Y-130199156D01*
X156649489Y-130255844D01*
X156735010Y-130415843D01*
X156787674Y-130589452D01*
X156801000Y-130724757D01*
X156801000Y-131275244D01*
X156787674Y-131410548D01*
X156735010Y-131584157D01*
X156649489Y-131744156D01*
X156624561Y-131774530D01*
X156534397Y-131884397D01*
X156394155Y-131999489D01*
X156261432Y-132070431D01*
X156234156Y-132085010D01*
X156060547Y-132137674D01*
X155880000Y-132155456D01*
X155699452Y-132137674D01*
X155525843Y-132085010D01*
X155365844Y-131999489D01*
X155322271Y-131963729D01*
X155225603Y-131884397D01*
X155110511Y-131744155D01*
X155024991Y-131584158D01*
X155024990Y-131584156D01*
X154972326Y-131410547D01*
X154959000Y-131275243D01*
X154959000Y-130724756D01*
X154972326Y-130589452D01*
X155024990Y-130415843D01*
X155110512Y-130255844D01*
X155120832Y-130243270D01*
X155225604Y-130115603D01*
X155351389Y-130012375D01*
X155365845Y-130000511D01*
X155525844Y-129914990D01*
X155699453Y-129862326D01*
X155880000Y-129844544D01*
X156060548Y-129862326D01*
G37*
G36*
X153520548Y-129862326D02*
G01*
X153694157Y-129914990D01*
X153854156Y-130000511D01*
X153868612Y-130012375D01*
X153994397Y-130115603D01*
X154062966Y-130199156D01*
X154109489Y-130255844D01*
X154195010Y-130415843D01*
X154247674Y-130589452D01*
X154261000Y-130724757D01*
X154261000Y-131275244D01*
X154247674Y-131410548D01*
X154195010Y-131584157D01*
X154109489Y-131744156D01*
X154084561Y-131774530D01*
X153994397Y-131884397D01*
X153854155Y-131999489D01*
X153721432Y-132070431D01*
X153694156Y-132085010D01*
X153520547Y-132137674D01*
X153340000Y-132155456D01*
X153159452Y-132137674D01*
X152985843Y-132085010D01*
X152825844Y-131999489D01*
X152782271Y-131963729D01*
X152685603Y-131884397D01*
X152570511Y-131744155D01*
X152484991Y-131584158D01*
X152484990Y-131584156D01*
X152432326Y-131410547D01*
X152419000Y-131275243D01*
X152419000Y-130724756D01*
X152432326Y-130589452D01*
X152484990Y-130415843D01*
X152570512Y-130255844D01*
X152580832Y-130243270D01*
X152685604Y-130115603D01*
X152811389Y-130012375D01*
X152825845Y-130000511D01*
X152985844Y-129914990D01*
X153159453Y-129862326D01*
X153340000Y-129844544D01*
X153520548Y-129862326D01*
G37*
G36*
X163680548Y-129862326D02*
G01*
X163854157Y-129914990D01*
X164014156Y-130000511D01*
X164028612Y-130012375D01*
X164154397Y-130115603D01*
X164222966Y-130199156D01*
X164269489Y-130255844D01*
X164355010Y-130415843D01*
X164407674Y-130589452D01*
X164421000Y-130724757D01*
X164421000Y-131275244D01*
X164407674Y-131410548D01*
X164355010Y-131584157D01*
X164269489Y-131744156D01*
X164244561Y-131774530D01*
X164154397Y-131884397D01*
X164014155Y-131999489D01*
X163881432Y-132070431D01*
X163854156Y-132085010D01*
X163680547Y-132137674D01*
X163500000Y-132155456D01*
X163319452Y-132137674D01*
X163145843Y-132085010D01*
X162985844Y-131999489D01*
X162942271Y-131963729D01*
X162845603Y-131884397D01*
X162730511Y-131744155D01*
X162644991Y-131584158D01*
X162644990Y-131584156D01*
X162592326Y-131410547D01*
X162579000Y-131275243D01*
X162579000Y-130724756D01*
X162592326Y-130589452D01*
X162644990Y-130415843D01*
X162730512Y-130255844D01*
X162740832Y-130243270D01*
X162845604Y-130115603D01*
X162971389Y-130012375D01*
X162985845Y-130000511D01*
X163145844Y-129914990D01*
X163319453Y-129862326D01*
X163500000Y-129844544D01*
X163680548Y-129862326D01*
G37*
G36*
X122020548Y-129862326D02*
G01*
X122194157Y-129914990D01*
X122354156Y-130000511D01*
X122368612Y-130012375D01*
X122494397Y-130115603D01*
X122562966Y-130199156D01*
X122609489Y-130255844D01*
X122695010Y-130415843D01*
X122747674Y-130589452D01*
X122761000Y-130724757D01*
X122761000Y-131275244D01*
X122747674Y-131410548D01*
X122695010Y-131584157D01*
X122609489Y-131744156D01*
X122584561Y-131774530D01*
X122494397Y-131884397D01*
X122354155Y-131999489D01*
X122221432Y-132070431D01*
X122194156Y-132085010D01*
X122020547Y-132137674D01*
X121840000Y-132155456D01*
X121659452Y-132137674D01*
X121485843Y-132085010D01*
X121325844Y-131999489D01*
X121282271Y-131963729D01*
X121185603Y-131884397D01*
X121070511Y-131744155D01*
X120984991Y-131584158D01*
X120984990Y-131584156D01*
X120932326Y-131410547D01*
X120919000Y-131275243D01*
X120919000Y-130724756D01*
X120932326Y-130589452D01*
X120984990Y-130415843D01*
X121070512Y-130255844D01*
X121080832Y-130243270D01*
X121185604Y-130115603D01*
X121311389Y-130012375D01*
X121325845Y-130000511D01*
X121485844Y-129914990D01*
X121659453Y-129862326D01*
X121840000Y-129844544D01*
X122020548Y-129862326D01*
G37*
G36*
X149859561Y-129852966D02*
G01*
X149892383Y-129862923D01*
X149922632Y-129879092D01*
X149949148Y-129900852D01*
X149970908Y-129927368D01*
X149987077Y-129957617D01*
X149997034Y-129990439D01*
X150001000Y-130030713D01*
X150001000Y-131969287D01*
X149997034Y-132009561D01*
X149987077Y-132042383D01*
X149970908Y-132072632D01*
X149949148Y-132099148D01*
X149922632Y-132120908D01*
X149892383Y-132137077D01*
X149859561Y-132147034D01*
X149819287Y-132151000D01*
X148340713Y-132151000D01*
X148300439Y-132147034D01*
X148267617Y-132137077D01*
X148237368Y-132120908D01*
X148210852Y-132099148D01*
X148189092Y-132072632D01*
X148172923Y-132042383D01*
X148162966Y-132009561D01*
X148159000Y-131969287D01*
X148159000Y-130030713D01*
X148162966Y-129990439D01*
X148172923Y-129957617D01*
X148189092Y-129927368D01*
X148210852Y-129900852D01*
X148237368Y-129879092D01*
X148267617Y-129862923D01*
X148300439Y-129852966D01*
X148340713Y-129849000D01*
X149819287Y-129849000D01*
X149859561Y-129852966D01*
G37*
G36*
X115779561Y-129852966D02*
G01*
X115812383Y-129862923D01*
X115842632Y-129879092D01*
X115869148Y-129900852D01*
X115890908Y-129927368D01*
X115907077Y-129957617D01*
X115917034Y-129990439D01*
X115921000Y-130030713D01*
X115921000Y-131969287D01*
X115917034Y-132009561D01*
X115907077Y-132042383D01*
X115890908Y-132072632D01*
X115869148Y-132099148D01*
X115842632Y-132120908D01*
X115812383Y-132137077D01*
X115779561Y-132147034D01*
X115739287Y-132151000D01*
X114260713Y-132151000D01*
X114220439Y-132147034D01*
X114187617Y-132137077D01*
X114157368Y-132120908D01*
X114130852Y-132099148D01*
X114109092Y-132072632D01*
X114092923Y-132042383D01*
X114082966Y-132009561D01*
X114079000Y-131969287D01*
X114079000Y-130030713D01*
X114082966Y-129990439D01*
X114092923Y-129957617D01*
X114109092Y-129927368D01*
X114130852Y-129900852D01*
X114157368Y-129879092D01*
X114187617Y-129862923D01*
X114220439Y-129852966D01*
X114260713Y-129849000D01*
X115739287Y-129849000D01*
X115779561Y-129852966D01*
G37*
G36*
X166819561Y-129852966D02*
G01*
X166852383Y-129862923D01*
X166882632Y-129879092D01*
X166909148Y-129900852D01*
X166930908Y-129927368D01*
X166947077Y-129957617D01*
X166957034Y-129990439D01*
X166961000Y-130030713D01*
X166961000Y-131969287D01*
X166957034Y-132009561D01*
X166947077Y-132042383D01*
X166930908Y-132072632D01*
X166909148Y-132099148D01*
X166882632Y-132120908D01*
X166852383Y-132137077D01*
X166819561Y-132147034D01*
X166779287Y-132151000D01*
X165300713Y-132151000D01*
X165260439Y-132147034D01*
X165227617Y-132137077D01*
X165197368Y-132120908D01*
X165170852Y-132099148D01*
X165149092Y-132072632D01*
X165132923Y-132042383D01*
X165122966Y-132009561D01*
X165119000Y-131969287D01*
X165119000Y-130030713D01*
X165122966Y-129990439D01*
X165132923Y-129957617D01*
X165149092Y-129927368D01*
X165170852Y-129900852D01*
X165197368Y-129879092D01*
X165227617Y-129862923D01*
X165260439Y-129852966D01*
X165300713Y-129849000D01*
X166779287Y-129849000D01*
X166819561Y-129852966D01*
G37*
G36*
X132779561Y-129852966D02*
G01*
X132812383Y-129862923D01*
X132842632Y-129879092D01*
X132869148Y-129900852D01*
X132890908Y-129927368D01*
X132907077Y-129957617D01*
X132917034Y-129990439D01*
X132921000Y-130030713D01*
X132921000Y-131969287D01*
X132917034Y-132009561D01*
X132907077Y-132042383D01*
X132890908Y-132072632D01*
X132869148Y-132099148D01*
X132842632Y-132120908D01*
X132812383Y-132137077D01*
X132779561Y-132147034D01*
X132739287Y-132151000D01*
X131260713Y-132151000D01*
X131220439Y-132147034D01*
X131187617Y-132137077D01*
X131157368Y-132120908D01*
X131130852Y-132099148D01*
X131109092Y-132072632D01*
X131092923Y-132042383D01*
X131082966Y-132009561D01*
X131079000Y-131969287D01*
X131079000Y-130030713D01*
X131082966Y-129990439D01*
X131092923Y-129957617D01*
X131109092Y-129927368D01*
X131130852Y-129900852D01*
X131157368Y-129879092D01*
X131187617Y-129862923D01*
X131220439Y-129852966D01*
X131260713Y-129849000D01*
X132739287Y-129849000D01*
X132779561Y-129852966D01*
G37*
G36*
X95163468Y-129945668D02*
G01*
X95179568Y-129947254D01*
X95243408Y-129966620D01*
X95352234Y-129999632D01*
X95511365Y-130084689D01*
X95650844Y-130199156D01*
X95765311Y-130338635D01*
X95850368Y-130497766D01*
X95878181Y-130589454D01*
X95902746Y-130670432D01*
X95902746Y-130670434D01*
X95916000Y-130805003D01*
X95916000Y-131194998D01*
X95902746Y-131329567D01*
X95850368Y-131502234D01*
X95765311Y-131661365D01*
X95650844Y-131800844D01*
X95511364Y-131915311D01*
X95352233Y-132000368D01*
X95179567Y-132052746D01*
X95163467Y-132054332D01*
X95000000Y-132070432D01*
X94836532Y-132054332D01*
X94820432Y-132052746D01*
X94647766Y-132000368D01*
X94488635Y-131915311D01*
X94349156Y-131800844D01*
X94234689Y-131661364D01*
X94149632Y-131502233D01*
X94102499Y-131346857D01*
X94097254Y-131329567D01*
X94091904Y-131275243D01*
X94084000Y-131194997D01*
X94084000Y-130805002D01*
X94097254Y-130670433D01*
X94149632Y-130497766D01*
X94234689Y-130338635D01*
X94349157Y-130199156D01*
X94488636Y-130084689D01*
X94647767Y-129999632D01*
X94756593Y-129966620D01*
X94820433Y-129947254D01*
X94836533Y-129945668D01*
X95000000Y-129929568D01*
X95163468Y-129945668D01*
G37*
G36*
X92623468Y-129945668D02*
G01*
X92639568Y-129947254D01*
X92703408Y-129966620D01*
X92812234Y-129999632D01*
X92971365Y-130084689D01*
X93110844Y-130199156D01*
X93225311Y-130338635D01*
X93310368Y-130497766D01*
X93338181Y-130589454D01*
X93362746Y-130670432D01*
X93362746Y-130670434D01*
X93376000Y-130805003D01*
X93376000Y-131194998D01*
X93362746Y-131329567D01*
X93310368Y-131502234D01*
X93225311Y-131661365D01*
X93110844Y-131800844D01*
X92971364Y-131915311D01*
X92812233Y-132000368D01*
X92639567Y-132052746D01*
X92623467Y-132054332D01*
X92460000Y-132070432D01*
X92296532Y-132054332D01*
X92280432Y-132052746D01*
X92107766Y-132000368D01*
X91948635Y-131915311D01*
X91809156Y-131800844D01*
X91694689Y-131661364D01*
X91609632Y-131502233D01*
X91562499Y-131346857D01*
X91557254Y-131329567D01*
X91551904Y-131275243D01*
X91544000Y-131194997D01*
X91544000Y-130805002D01*
X91557254Y-130670433D01*
X91609632Y-130497766D01*
X91694689Y-130338635D01*
X91809157Y-130199156D01*
X91948636Y-130084689D01*
X92107767Y-129999632D01*
X92216593Y-129966620D01*
X92280433Y-129947254D01*
X92296533Y-129945668D01*
X92460000Y-129929568D01*
X92623468Y-129945668D01*
G37*
G36*
X98456000Y-132066000D02*
G01*
X96624000Y-132066000D01*
X96624000Y-129934000D01*
X98456000Y-129934000D01*
X98456000Y-132066000D01*
G37*
G36*
X129627618Y-121958420D02*
G01*
X129718404Y-121985960D01*
X129750336Y-121995646D01*
X129863425Y-122056094D01*
X129962554Y-122137446D01*
X130043906Y-122236575D01*
X130104354Y-122349664D01*
X130104355Y-122349668D01*
X130141580Y-122472382D01*
X130151000Y-122568027D01*
X130151000Y-123431973D01*
X130141580Y-123527618D01*
X130114040Y-123618404D01*
X130104354Y-123650336D01*
X130043906Y-123763425D01*
X129962554Y-123862553D01*
X129863424Y-123943906D01*
X129750335Y-124004354D01*
X129718403Y-124014040D01*
X129627617Y-124041580D01*
X129500000Y-124054149D01*
X129372382Y-124041580D01*
X129281596Y-124014040D01*
X129249664Y-124004354D01*
X129136575Y-123943906D01*
X129037447Y-123862554D01*
X128956094Y-123763424D01*
X128895646Y-123650335D01*
X128885960Y-123618403D01*
X128858420Y-123527617D01*
X128849000Y-123431972D01*
X128849000Y-122568027D01*
X128858420Y-122472382D01*
X128895646Y-122349668D01*
X128895647Y-122349664D01*
X128956095Y-122236575D01*
X129037447Y-122137446D01*
X129136576Y-122056094D01*
X129249665Y-121995646D01*
X129281597Y-121985960D01*
X129372383Y-121958420D01*
X129500000Y-121945851D01*
X129627618Y-121958420D01*
G37*
G36*
X104627618Y-121958420D02*
G01*
X104718404Y-121985960D01*
X104750336Y-121995646D01*
X104863425Y-122056094D01*
X104962554Y-122137446D01*
X105043906Y-122236575D01*
X105104354Y-122349664D01*
X105104355Y-122349668D01*
X105141580Y-122472382D01*
X105151000Y-122568027D01*
X105151000Y-123431973D01*
X105141580Y-123527618D01*
X105114040Y-123618404D01*
X105104354Y-123650336D01*
X105043906Y-123763425D01*
X104962554Y-123862553D01*
X104863424Y-123943906D01*
X104750335Y-124004354D01*
X104718403Y-124014040D01*
X104627617Y-124041580D01*
X104500000Y-124054149D01*
X104372382Y-124041580D01*
X104281596Y-124014040D01*
X104249664Y-124004354D01*
X104136575Y-123943906D01*
X104037447Y-123862554D01*
X103956094Y-123763424D01*
X103895646Y-123650335D01*
X103885960Y-123618403D01*
X103858420Y-123527617D01*
X103849000Y-123431972D01*
X103849000Y-122568027D01*
X103858420Y-122472382D01*
X103895646Y-122349668D01*
X103895647Y-122349664D01*
X103956095Y-122236575D01*
X104037447Y-122137446D01*
X104136576Y-122056094D01*
X104249665Y-121995646D01*
X104281597Y-121985960D01*
X104372383Y-121958420D01*
X104500000Y-121945851D01*
X104627618Y-121958420D01*
G37*
G36*
X90224549Y-119031116D02*
G01*
X90335734Y-119053232D01*
X90545203Y-119139997D01*
X90733720Y-119265960D01*
X90894040Y-119426280D01*
X91020003Y-119614797D01*
X91020004Y-119614799D01*
X91034999Y-119651000D01*
X91106768Y-119824266D01*
X91151000Y-120046636D01*
X91151000Y-120273364D01*
X91106768Y-120495734D01*
X91020003Y-120705203D01*
X90894040Y-120893720D01*
X90733720Y-121054040D01*
X90545203Y-121180003D01*
X90335734Y-121266768D01*
X90224549Y-121288884D01*
X90113365Y-121311000D01*
X89886635Y-121311000D01*
X89775451Y-121288884D01*
X89664266Y-121266768D01*
X89454797Y-121180003D01*
X89266280Y-121054040D01*
X89105960Y-120893720D01*
X88979997Y-120705203D01*
X88893232Y-120495734D01*
X88849000Y-120273364D01*
X88849000Y-120046636D01*
X88893232Y-119824266D01*
X88965001Y-119651000D01*
X88979996Y-119614799D01*
X88979997Y-119614797D01*
X89105960Y-119426280D01*
X89266280Y-119265960D01*
X89454797Y-119139997D01*
X89664266Y-119053232D01*
X89775451Y-119031116D01*
X89886635Y-119009000D01*
X90113365Y-119009000D01*
X90224549Y-119031116D01*
G37*
G36*
X96651000Y-118720109D02*
G01*
X96653402Y-118744495D01*
X96660515Y-118767944D01*
X96672066Y-118789555D01*
X96687611Y-118808497D01*
X96706553Y-118824042D01*
X96728164Y-118835593D01*
X96751613Y-118842706D01*
X96775999Y-118845108D01*
X96800385Y-118842706D01*
X96823834Y-118835593D01*
X96845445Y-118824042D01*
X96864387Y-118808497D01*
X96879932Y-118789555D01*
X96891483Y-118767944D01*
X96923090Y-118691638D01*
X96927823Y-118684555D01*
X96994335Y-118585012D01*
X97085012Y-118494335D01*
X97191636Y-118423091D01*
X97310110Y-118374017D01*
X97435881Y-118349000D01*
X97564119Y-118349000D01*
X97689890Y-118374017D01*
X97808364Y-118423091D01*
X97914988Y-118494335D01*
X98005665Y-118585012D01*
X98072178Y-118684555D01*
X98076910Y-118691638D01*
X98125983Y-118810110D01*
X98151000Y-118935881D01*
X98151000Y-119064119D01*
X98125983Y-119189890D01*
X98086403Y-119285445D01*
X98076909Y-119308364D01*
X98005665Y-119414988D01*
X97914988Y-119505665D01*
X97808364Y-119576909D01*
X97808363Y-119576910D01*
X97808362Y-119576910D01*
X97689890Y-119625983D01*
X97564119Y-119651000D01*
X97435881Y-119651000D01*
X97310110Y-119625983D01*
X97191638Y-119576910D01*
X97191637Y-119576910D01*
X97191636Y-119576909D01*
X97085012Y-119505665D01*
X96994335Y-119414988D01*
X96923091Y-119308364D01*
X96913598Y-119285445D01*
X96891483Y-119232056D01*
X96879932Y-119210445D01*
X96864387Y-119191503D01*
X96845445Y-119175958D01*
X96823834Y-119164407D01*
X96800385Y-119157294D01*
X96775999Y-119154892D01*
X96751613Y-119157294D01*
X96728164Y-119164407D01*
X96706553Y-119175958D01*
X96687611Y-119191503D01*
X96672066Y-119210445D01*
X96660515Y-119232056D01*
X96653402Y-119255505D01*
X96651000Y-119279891D01*
X96651000Y-119651000D01*
X95349000Y-119651000D01*
X95349000Y-118349000D01*
X96651000Y-118349000D01*
X96651000Y-118720109D01*
G37*
G36*
X173320345Y-117783442D02*
G01*
X173410548Y-117792326D01*
X173584157Y-117844990D01*
X173744156Y-117930511D01*
X173764077Y-117946860D01*
X173884397Y-118045603D01*
X173963729Y-118142271D01*
X173999489Y-118185844D01*
X174085010Y-118345843D01*
X174137674Y-118519452D01*
X174155456Y-118700000D01*
X174137674Y-118880548D01*
X174085010Y-119054157D01*
X173999489Y-119214156D01*
X173974235Y-119244928D01*
X173884397Y-119354397D01*
X173796806Y-119426280D01*
X173744156Y-119469489D01*
X173584157Y-119555010D01*
X173410548Y-119607674D01*
X173338225Y-119614797D01*
X173275245Y-119621000D01*
X172724755Y-119621000D01*
X172661775Y-119614797D01*
X172589452Y-119607674D01*
X172415843Y-119555010D01*
X172255844Y-119469489D01*
X172203194Y-119426280D01*
X172115603Y-119354397D01*
X172025765Y-119244928D01*
X172000511Y-119214156D01*
X171914990Y-119054157D01*
X171862326Y-118880548D01*
X171844544Y-118700000D01*
X171862326Y-118519452D01*
X171914990Y-118345843D01*
X172000511Y-118185844D01*
X172036271Y-118142271D01*
X172115603Y-118045603D01*
X172235923Y-117946860D01*
X172255844Y-117930511D01*
X172415843Y-117844990D01*
X172589452Y-117792326D01*
X172679655Y-117783442D01*
X172724755Y-117779000D01*
X173275245Y-117779000D01*
X173320345Y-117783442D01*
G37*
G36*
X145834928Y-118636764D02*
G01*
X145856009Y-118643160D01*
X145875445Y-118653548D01*
X145892476Y-118667524D01*
X145906452Y-118684555D01*
X145916840Y-118703991D01*
X145923236Y-118725072D01*
X145926000Y-118753140D01*
X145926000Y-119216860D01*
X145923236Y-119244928D01*
X145916840Y-119266009D01*
X145906452Y-119285445D01*
X145892476Y-119302476D01*
X145875445Y-119316452D01*
X145856009Y-119326840D01*
X145834928Y-119333236D01*
X145806860Y-119336000D01*
X143893140Y-119336000D01*
X143865072Y-119333236D01*
X143843991Y-119326840D01*
X143824555Y-119316452D01*
X143807524Y-119302476D01*
X143793548Y-119285445D01*
X143783160Y-119266009D01*
X143776764Y-119244928D01*
X143774000Y-119216860D01*
X143774000Y-118753140D01*
X143776764Y-118725072D01*
X143783160Y-118703991D01*
X143793548Y-118684555D01*
X143807524Y-118667524D01*
X143824555Y-118653548D01*
X143843991Y-118643160D01*
X143865072Y-118636764D01*
X143893140Y-118634000D01*
X145806860Y-118634000D01*
X145834928Y-118636764D01*
G37*
G36*
X155134928Y-118636764D02*
G01*
X155156009Y-118643160D01*
X155175445Y-118653548D01*
X155192476Y-118667524D01*
X155206452Y-118684555D01*
X155216840Y-118703991D01*
X155223236Y-118725072D01*
X155226000Y-118753140D01*
X155226000Y-119216860D01*
X155223236Y-119244928D01*
X155216840Y-119266009D01*
X155206452Y-119285445D01*
X155192476Y-119302476D01*
X155175445Y-119316452D01*
X155156009Y-119326840D01*
X155134928Y-119333236D01*
X155106860Y-119336000D01*
X153193140Y-119336000D01*
X153165072Y-119333236D01*
X153143991Y-119326840D01*
X153124555Y-119316452D01*
X153107524Y-119302476D01*
X153093548Y-119285445D01*
X153083160Y-119266009D01*
X153076764Y-119244928D01*
X153074000Y-119216860D01*
X153074000Y-118753140D01*
X153076764Y-118725072D01*
X153083160Y-118703991D01*
X153093548Y-118684555D01*
X153107524Y-118667524D01*
X153124555Y-118653548D01*
X153143991Y-118643160D01*
X153165072Y-118636764D01*
X153193140Y-118634000D01*
X155106860Y-118634000D01*
X155134928Y-118636764D01*
G37*
G36*
X85051000Y-119003500D02*
G01*
X82949000Y-119003500D01*
X82949000Y-116996500D01*
X85051000Y-116996500D01*
X85051000Y-119003500D01*
G37*
G36*
X145834928Y-117366764D02*
G01*
X145856009Y-117373160D01*
X145875445Y-117383548D01*
X145892476Y-117397524D01*
X145906452Y-117414555D01*
X145916840Y-117433991D01*
X145923236Y-117455072D01*
X145926000Y-117483140D01*
X145926000Y-117946860D01*
X145923236Y-117974928D01*
X145916840Y-117996009D01*
X145906452Y-118015445D01*
X145892476Y-118032476D01*
X145875445Y-118046452D01*
X145856009Y-118056840D01*
X145834928Y-118063236D01*
X145806860Y-118066000D01*
X143893140Y-118066000D01*
X143865072Y-118063236D01*
X143843991Y-118056840D01*
X143824555Y-118046452D01*
X143807524Y-118032476D01*
X143793548Y-118015445D01*
X143783160Y-117996009D01*
X143776764Y-117974928D01*
X143774000Y-117946860D01*
X143774000Y-117483140D01*
X143776764Y-117455072D01*
X143783160Y-117433991D01*
X143793548Y-117414555D01*
X143807524Y-117397524D01*
X143824555Y-117383548D01*
X143843991Y-117373160D01*
X143865072Y-117366764D01*
X143893140Y-117364000D01*
X145806860Y-117364000D01*
X145834928Y-117366764D01*
G37*
G36*
X155134928Y-117366764D02*
G01*
X155156009Y-117373160D01*
X155175445Y-117383548D01*
X155192476Y-117397524D01*
X155206452Y-117414555D01*
X155216840Y-117433991D01*
X155223236Y-117455072D01*
X155226000Y-117483140D01*
X155226000Y-117946860D01*
X155223236Y-117974928D01*
X155216840Y-117996009D01*
X155206452Y-118015445D01*
X155192476Y-118032476D01*
X155175445Y-118046452D01*
X155156009Y-118056840D01*
X155134928Y-118063236D01*
X155106860Y-118066000D01*
X153193140Y-118066000D01*
X153165072Y-118063236D01*
X153143991Y-118056840D01*
X153124555Y-118046452D01*
X153107524Y-118032476D01*
X153093548Y-118015445D01*
X153083160Y-117996009D01*
X153076764Y-117974928D01*
X153074000Y-117946860D01*
X153074000Y-117483140D01*
X153076764Y-117455072D01*
X153083160Y-117433991D01*
X153093548Y-117414555D01*
X153107524Y-117397524D01*
X153124555Y-117383548D01*
X153143991Y-117373160D01*
X153165072Y-117366764D01*
X153193140Y-117364000D01*
X155106860Y-117364000D01*
X155134928Y-117366764D01*
G37*
G36*
X173320345Y-115243442D02*
G01*
X173410548Y-115252326D01*
X173584157Y-115304990D01*
X173744156Y-115390511D01*
X173764077Y-115406860D01*
X173884397Y-115505603D01*
X173963729Y-115602271D01*
X173999489Y-115645844D01*
X174085010Y-115805843D01*
X174137674Y-115979452D01*
X174155456Y-116160000D01*
X174137674Y-116340548D01*
X174085010Y-116514157D01*
X173999489Y-116674156D01*
X173974235Y-116704928D01*
X173884397Y-116814397D01*
X173787729Y-116893729D01*
X173744156Y-116929489D01*
X173584157Y-117015010D01*
X173410548Y-117067674D01*
X173320345Y-117076558D01*
X173275245Y-117081000D01*
X172724755Y-117081000D01*
X172679655Y-117076558D01*
X172589452Y-117067674D01*
X172415843Y-117015010D01*
X172255844Y-116929489D01*
X172212271Y-116893729D01*
X172115603Y-116814397D01*
X172025765Y-116704928D01*
X172000511Y-116674156D01*
X171914990Y-116514157D01*
X171862326Y-116340548D01*
X171844544Y-116160000D01*
X171862326Y-115979452D01*
X171914990Y-115805843D01*
X172000511Y-115645844D01*
X172036271Y-115602271D01*
X172115603Y-115505603D01*
X172235923Y-115406860D01*
X172255844Y-115390511D01*
X172415843Y-115304990D01*
X172589452Y-115252326D01*
X172679655Y-115243442D01*
X172724755Y-115239000D01*
X173275245Y-115239000D01*
X173320345Y-115243442D01*
G37*
G36*
X155134928Y-116096764D02*
G01*
X155156009Y-116103160D01*
X155175445Y-116113548D01*
X155192476Y-116127524D01*
X155206452Y-116144555D01*
X155216840Y-116163991D01*
X155223236Y-116185072D01*
X155226000Y-116213140D01*
X155226000Y-116676860D01*
X155223236Y-116704928D01*
X155216840Y-116726009D01*
X155206452Y-116745445D01*
X155192476Y-116762476D01*
X155175445Y-116776452D01*
X155156009Y-116786840D01*
X155134928Y-116793236D01*
X155106860Y-116796000D01*
X153193140Y-116796000D01*
X153165072Y-116793236D01*
X153143991Y-116786840D01*
X153124555Y-116776452D01*
X153107524Y-116762476D01*
X153093548Y-116745445D01*
X153083160Y-116726009D01*
X153076764Y-116704928D01*
X153074000Y-116676860D01*
X153074000Y-116213140D01*
X153076764Y-116185072D01*
X153083160Y-116163991D01*
X153093548Y-116144555D01*
X153107524Y-116127524D01*
X153124555Y-116113548D01*
X153143991Y-116103160D01*
X153165072Y-116096764D01*
X153193140Y-116094000D01*
X155106860Y-116094000D01*
X155134928Y-116096764D01*
G37*
G36*
X145834928Y-116096764D02*
G01*
X145856009Y-116103160D01*
X145875445Y-116113548D01*
X145892476Y-116127524D01*
X145906452Y-116144555D01*
X145916840Y-116163991D01*
X145923236Y-116185072D01*
X145926000Y-116213140D01*
X145926000Y-116676860D01*
X145923236Y-116704928D01*
X145916840Y-116726009D01*
X145906452Y-116745445D01*
X145892476Y-116762476D01*
X145875445Y-116776452D01*
X145856009Y-116786840D01*
X145834928Y-116793236D01*
X145806860Y-116796000D01*
X143893140Y-116796000D01*
X143865072Y-116793236D01*
X143843991Y-116786840D01*
X143824555Y-116776452D01*
X143807524Y-116762476D01*
X143793548Y-116745445D01*
X143783160Y-116726009D01*
X143776764Y-116704928D01*
X143774000Y-116676860D01*
X143774000Y-116213140D01*
X143776764Y-116185072D01*
X143783160Y-116163991D01*
X143793548Y-116144555D01*
X143807524Y-116127524D01*
X143824555Y-116113548D01*
X143843991Y-116103160D01*
X143865072Y-116096764D01*
X143893140Y-116094000D01*
X145806860Y-116094000D01*
X145834928Y-116096764D01*
G37*
G36*
X84145936Y-114461340D02*
G01*
X84244220Y-114471020D01*
X84433381Y-114528401D01*
X84607712Y-114621583D01*
X84760515Y-114746985D01*
X84885917Y-114899788D01*
X84979099Y-115074119D01*
X85036480Y-115263280D01*
X85055855Y-115460000D01*
X85036480Y-115656720D01*
X84979099Y-115845881D01*
X84885917Y-116020212D01*
X84760515Y-116173015D01*
X84607712Y-116298417D01*
X84433381Y-116391599D01*
X84244220Y-116448980D01*
X84145936Y-116458660D01*
X84096795Y-116463500D01*
X83903205Y-116463500D01*
X83854064Y-116458660D01*
X83755780Y-116448980D01*
X83566619Y-116391599D01*
X83392288Y-116298417D01*
X83239485Y-116173015D01*
X83114083Y-116020212D01*
X83020901Y-115845881D01*
X82963520Y-115656720D01*
X82944145Y-115460000D01*
X82963520Y-115263280D01*
X83020901Y-115074119D01*
X83114083Y-114899788D01*
X83239485Y-114746985D01*
X83392288Y-114621583D01*
X83566619Y-114528401D01*
X83755780Y-114471020D01*
X83854064Y-114461340D01*
X83903205Y-114456500D01*
X84096795Y-114456500D01*
X84145936Y-114461340D01*
G37*
G36*
X145834928Y-114826764D02*
G01*
X145856009Y-114833160D01*
X145875445Y-114843548D01*
X145892476Y-114857524D01*
X145906452Y-114874555D01*
X145916840Y-114893991D01*
X145923236Y-114915072D01*
X145926000Y-114943140D01*
X145926000Y-115406860D01*
X145923236Y-115434928D01*
X145916840Y-115456009D01*
X145906452Y-115475445D01*
X145892476Y-115492476D01*
X145875445Y-115506452D01*
X145856009Y-115516840D01*
X145834928Y-115523236D01*
X145806860Y-115526000D01*
X143893140Y-115526000D01*
X143865072Y-115523236D01*
X143843991Y-115516840D01*
X143824555Y-115506452D01*
X143807524Y-115492476D01*
X143793548Y-115475445D01*
X143783160Y-115456009D01*
X143776764Y-115434928D01*
X143774000Y-115406860D01*
X143774000Y-114943140D01*
X143776764Y-114915072D01*
X143783160Y-114893991D01*
X143793548Y-114874555D01*
X143807524Y-114857524D01*
X143824555Y-114843548D01*
X143843991Y-114833160D01*
X143865072Y-114826764D01*
X143893140Y-114824000D01*
X145806860Y-114824000D01*
X145834928Y-114826764D01*
G37*
G36*
X155134928Y-114826764D02*
G01*
X155156009Y-114833160D01*
X155175445Y-114843548D01*
X155192476Y-114857524D01*
X155206452Y-114874555D01*
X155216840Y-114893991D01*
X155223236Y-114915072D01*
X155226000Y-114943140D01*
X155226000Y-115406860D01*
X155223236Y-115434928D01*
X155216840Y-115456009D01*
X155206452Y-115475445D01*
X155192476Y-115492476D01*
X155175445Y-115506452D01*
X155156009Y-115516840D01*
X155134928Y-115523236D01*
X155106860Y-115526000D01*
X153193140Y-115526000D01*
X153165072Y-115523236D01*
X153143991Y-115516840D01*
X153124555Y-115506452D01*
X153107524Y-115492476D01*
X153093548Y-115475445D01*
X153083160Y-115456009D01*
X153076764Y-115434928D01*
X153074000Y-115406860D01*
X153074000Y-114943140D01*
X153076764Y-114915072D01*
X153083160Y-114893991D01*
X153093548Y-114874555D01*
X153107524Y-114857524D01*
X153124555Y-114843548D01*
X153143991Y-114833160D01*
X153165072Y-114826764D01*
X153193140Y-114824000D01*
X155106860Y-114824000D01*
X155134928Y-114826764D01*
G37*
G36*
X173320345Y-112703442D02*
G01*
X173410548Y-112712326D01*
X173584157Y-112764990D01*
X173744156Y-112850511D01*
X173764077Y-112866860D01*
X173884397Y-112965603D01*
X173963729Y-113062271D01*
X173999489Y-113105844D01*
X174085010Y-113265843D01*
X174137674Y-113439452D01*
X174155456Y-113620000D01*
X174137674Y-113800548D01*
X174085010Y-113974157D01*
X173999489Y-114134156D01*
X173974235Y-114164928D01*
X173884397Y-114274397D01*
X173787729Y-114353729D01*
X173744156Y-114389489D01*
X173584157Y-114475010D01*
X173410548Y-114527674D01*
X173320345Y-114536558D01*
X173275245Y-114541000D01*
X172724755Y-114541000D01*
X172679655Y-114536558D01*
X172589452Y-114527674D01*
X172415843Y-114475010D01*
X172255844Y-114389489D01*
X172212271Y-114353729D01*
X172115603Y-114274397D01*
X172025765Y-114164928D01*
X172000511Y-114134156D01*
X171914990Y-113974157D01*
X171862326Y-113800548D01*
X171844544Y-113620000D01*
X171862326Y-113439452D01*
X171914990Y-113265843D01*
X172000511Y-113105844D01*
X172036271Y-113062271D01*
X172115603Y-112965603D01*
X172235923Y-112866860D01*
X172255844Y-112850511D01*
X172415843Y-112764990D01*
X172589452Y-112712326D01*
X172679655Y-112703442D01*
X172724755Y-112699000D01*
X173275245Y-112699000D01*
X173320345Y-112703442D01*
G37*
G36*
X155134928Y-113556764D02*
G01*
X155156009Y-113563160D01*
X155175445Y-113573548D01*
X155192476Y-113587524D01*
X155206452Y-113604555D01*
X155216840Y-113623991D01*
X155223236Y-113645072D01*
X155226000Y-113673140D01*
X155226000Y-114136860D01*
X155223236Y-114164928D01*
X155216840Y-114186009D01*
X155206452Y-114205445D01*
X155192476Y-114222476D01*
X155175445Y-114236452D01*
X155156009Y-114246840D01*
X155134928Y-114253236D01*
X155106860Y-114256000D01*
X153193140Y-114256000D01*
X153165072Y-114253236D01*
X153143991Y-114246840D01*
X153124555Y-114236452D01*
X153107524Y-114222476D01*
X153093548Y-114205445D01*
X153083160Y-114186009D01*
X153076764Y-114164928D01*
X153074000Y-114136860D01*
X153074000Y-113673140D01*
X153076764Y-113645072D01*
X153083160Y-113623991D01*
X153093548Y-113604555D01*
X153107524Y-113587524D01*
X153124555Y-113573548D01*
X153143991Y-113563160D01*
X153165072Y-113556764D01*
X153193140Y-113554000D01*
X155106860Y-113554000D01*
X155134928Y-113556764D01*
G37*
G36*
X145834928Y-113556764D02*
G01*
X145856009Y-113563160D01*
X145875445Y-113573548D01*
X145892476Y-113587524D01*
X145906452Y-113604555D01*
X145916840Y-113623991D01*
X145923236Y-113645072D01*
X145926000Y-113673140D01*
X145926000Y-114136860D01*
X145923236Y-114164928D01*
X145916840Y-114186009D01*
X145906452Y-114205445D01*
X145892476Y-114222476D01*
X145875445Y-114236452D01*
X145856009Y-114246840D01*
X145834928Y-114253236D01*
X145806860Y-114256000D01*
X143893140Y-114256000D01*
X143865072Y-114253236D01*
X143843991Y-114246840D01*
X143824555Y-114236452D01*
X143807524Y-114222476D01*
X143793548Y-114205445D01*
X143783160Y-114186009D01*
X143776764Y-114164928D01*
X143774000Y-114136860D01*
X143774000Y-113673140D01*
X143776764Y-113645072D01*
X143783160Y-113623991D01*
X143793548Y-113604555D01*
X143807524Y-113587524D01*
X143824555Y-113573548D01*
X143843991Y-113563160D01*
X143865072Y-113556764D01*
X143893140Y-113554000D01*
X145806860Y-113554000D01*
X145834928Y-113556764D01*
G37*
G36*
X84145936Y-111921340D02*
G01*
X84244220Y-111931020D01*
X84433381Y-111988401D01*
X84607712Y-112081583D01*
X84760515Y-112206985D01*
X84885917Y-112359788D01*
X84979099Y-112534119D01*
X85036480Y-112723280D01*
X85055855Y-112920000D01*
X85036480Y-113116720D01*
X84979099Y-113305881D01*
X84885917Y-113480212D01*
X84760515Y-113633015D01*
X84607712Y-113758417D01*
X84433381Y-113851599D01*
X84244220Y-113908980D01*
X84145936Y-113918660D01*
X84096795Y-113923500D01*
X83903205Y-113923500D01*
X83854064Y-113918660D01*
X83755780Y-113908980D01*
X83566619Y-113851599D01*
X83392288Y-113758417D01*
X83239485Y-113633015D01*
X83114083Y-113480212D01*
X83020901Y-113305881D01*
X82963520Y-113116720D01*
X82944145Y-112920000D01*
X82963520Y-112723280D01*
X83020901Y-112534119D01*
X83114083Y-112359788D01*
X83239485Y-112206985D01*
X83392288Y-112081583D01*
X83566619Y-111988401D01*
X83755780Y-111931020D01*
X83854064Y-111921340D01*
X83903205Y-111916500D01*
X84096795Y-111916500D01*
X84145936Y-111921340D01*
G37*
G36*
X145834928Y-112286764D02*
G01*
X145856009Y-112293160D01*
X145875445Y-112303548D01*
X145892476Y-112317524D01*
X145906452Y-112334555D01*
X145916840Y-112353991D01*
X145923236Y-112375072D01*
X145926000Y-112403140D01*
X145926000Y-112866860D01*
X145923236Y-112894928D01*
X145916840Y-112916009D01*
X145906452Y-112935445D01*
X145892476Y-112952476D01*
X145875445Y-112966452D01*
X145856009Y-112976840D01*
X145834928Y-112983236D01*
X145806860Y-112986000D01*
X143893140Y-112986000D01*
X143865072Y-112983236D01*
X143843991Y-112976840D01*
X143824555Y-112966452D01*
X143807524Y-112952476D01*
X143793548Y-112935445D01*
X143783160Y-112916009D01*
X143776764Y-112894928D01*
X143774000Y-112866860D01*
X143774000Y-112403140D01*
X143776764Y-112375072D01*
X143783160Y-112353991D01*
X143793548Y-112334555D01*
X143807524Y-112317524D01*
X143824555Y-112303548D01*
X143843991Y-112293160D01*
X143865072Y-112286764D01*
X143893140Y-112284000D01*
X145806860Y-112284000D01*
X145834928Y-112286764D01*
G37*
G36*
X155134928Y-112286764D02*
G01*
X155156009Y-112293160D01*
X155175445Y-112303548D01*
X155192476Y-112317524D01*
X155206452Y-112334555D01*
X155216840Y-112353991D01*
X155223236Y-112375072D01*
X155226000Y-112403140D01*
X155226000Y-112866860D01*
X155223236Y-112894928D01*
X155216840Y-112916009D01*
X155206452Y-112935445D01*
X155192476Y-112952476D01*
X155175445Y-112966452D01*
X155156009Y-112976840D01*
X155134928Y-112983236D01*
X155106860Y-112986000D01*
X153193140Y-112986000D01*
X153165072Y-112983236D01*
X153143991Y-112976840D01*
X153124555Y-112966452D01*
X153107524Y-112952476D01*
X153093548Y-112935445D01*
X153083160Y-112916009D01*
X153076764Y-112894928D01*
X153074000Y-112866860D01*
X153074000Y-112403140D01*
X153076764Y-112375072D01*
X153083160Y-112353991D01*
X153093548Y-112334555D01*
X153107524Y-112317524D01*
X153124555Y-112303548D01*
X153143991Y-112293160D01*
X153165072Y-112286764D01*
X153193140Y-112284000D01*
X155106860Y-112284000D01*
X155134928Y-112286764D01*
G37*
G36*
X96651000Y-111720109D02*
G01*
X96653402Y-111744495D01*
X96660515Y-111767944D01*
X96672066Y-111789555D01*
X96687611Y-111808497D01*
X96706553Y-111824042D01*
X96728164Y-111835593D01*
X96751613Y-111842706D01*
X96775999Y-111845108D01*
X96800385Y-111842706D01*
X96823834Y-111835593D01*
X96845445Y-111824042D01*
X96864387Y-111808497D01*
X96879932Y-111789555D01*
X96891483Y-111767944D01*
X96923090Y-111691638D01*
X96926575Y-111686423D01*
X96994335Y-111585012D01*
X97085012Y-111494335D01*
X97191636Y-111423091D01*
X97310110Y-111374017D01*
X97435881Y-111349000D01*
X97564119Y-111349000D01*
X97689890Y-111374017D01*
X97808364Y-111423091D01*
X97914988Y-111494335D01*
X98005665Y-111585012D01*
X98073426Y-111686423D01*
X98076910Y-111691638D01*
X98125983Y-111810110D01*
X98151000Y-111935881D01*
X98151000Y-112064119D01*
X98125983Y-112189890D01*
X98081468Y-112297359D01*
X98076909Y-112308364D01*
X98005665Y-112414988D01*
X97914988Y-112505665D01*
X97808364Y-112576909D01*
X97808363Y-112576910D01*
X97808362Y-112576910D01*
X97689890Y-112625983D01*
X97564119Y-112651000D01*
X97435881Y-112651000D01*
X97310110Y-112625983D01*
X97191638Y-112576910D01*
X97191637Y-112576910D01*
X97191636Y-112576909D01*
X97085012Y-112505665D01*
X96994335Y-112414988D01*
X96923091Y-112308364D01*
X96918533Y-112297359D01*
X96891483Y-112232056D01*
X96879932Y-112210445D01*
X96864387Y-112191503D01*
X96845445Y-112175958D01*
X96823834Y-112164407D01*
X96800385Y-112157294D01*
X96775999Y-112154892D01*
X96751613Y-112157294D01*
X96728164Y-112164407D01*
X96706553Y-112175958D01*
X96687611Y-112191503D01*
X96672066Y-112210445D01*
X96660515Y-112232056D01*
X96653402Y-112255505D01*
X96651000Y-112279891D01*
X96651000Y-112651000D01*
X95349000Y-112651000D01*
X95349000Y-111349000D01*
X96651000Y-111349000D01*
X96651000Y-111720109D01*
G37*
G36*
X173320345Y-110163442D02*
G01*
X173410548Y-110172326D01*
X173584157Y-110224990D01*
X173744156Y-110310511D01*
X173764077Y-110326860D01*
X173884397Y-110425603D01*
X173963729Y-110522271D01*
X173999489Y-110565844D01*
X174085010Y-110725843D01*
X174137674Y-110899452D01*
X174155456Y-111080000D01*
X174137674Y-111260548D01*
X174085010Y-111434157D01*
X173999489Y-111594156D01*
X173974235Y-111624928D01*
X173884397Y-111734397D01*
X173792139Y-111810110D01*
X173744156Y-111849489D01*
X173584157Y-111935010D01*
X173410548Y-111987674D01*
X173320345Y-111996558D01*
X173275245Y-112001000D01*
X172724755Y-112001000D01*
X172679655Y-111996558D01*
X172589452Y-111987674D01*
X172415843Y-111935010D01*
X172255844Y-111849489D01*
X172207861Y-111810110D01*
X172115603Y-111734397D01*
X172025765Y-111624928D01*
X172000511Y-111594156D01*
X171914990Y-111434157D01*
X171862326Y-111260548D01*
X171844544Y-111080000D01*
X171862326Y-110899452D01*
X171914990Y-110725843D01*
X172000511Y-110565844D01*
X172036271Y-110522271D01*
X172115603Y-110425603D01*
X172235923Y-110326860D01*
X172255844Y-110310511D01*
X172415843Y-110224990D01*
X172589452Y-110172326D01*
X172679655Y-110163442D01*
X172724755Y-110159000D01*
X173275245Y-110159000D01*
X173320345Y-110163442D01*
G37*
G36*
X155134928Y-111016764D02*
G01*
X155156009Y-111023160D01*
X155175445Y-111033548D01*
X155192476Y-111047524D01*
X155206452Y-111064555D01*
X155216840Y-111083991D01*
X155223236Y-111105072D01*
X155226000Y-111133140D01*
X155226000Y-111596860D01*
X155223236Y-111624928D01*
X155216840Y-111646009D01*
X155206452Y-111665445D01*
X155192476Y-111682476D01*
X155175445Y-111696452D01*
X155156009Y-111706840D01*
X155134928Y-111713236D01*
X155106860Y-111716000D01*
X153193140Y-111716000D01*
X153165072Y-111713236D01*
X153143991Y-111706840D01*
X153124555Y-111696452D01*
X153107524Y-111682476D01*
X153093548Y-111665445D01*
X153083160Y-111646009D01*
X153076764Y-111624928D01*
X153074000Y-111596860D01*
X153074000Y-111133140D01*
X153076764Y-111105072D01*
X153083160Y-111083991D01*
X153093548Y-111064555D01*
X153107524Y-111047524D01*
X153124555Y-111033548D01*
X153143991Y-111023160D01*
X153165072Y-111016764D01*
X153193140Y-111014000D01*
X155106860Y-111014000D01*
X155134928Y-111016764D01*
G37*
G36*
X145834928Y-111016764D02*
G01*
X145856009Y-111023160D01*
X145875445Y-111033548D01*
X145892476Y-111047524D01*
X145906452Y-111064555D01*
X145916840Y-111083991D01*
X145923236Y-111105072D01*
X145926000Y-111133140D01*
X145926000Y-111596860D01*
X145923236Y-111624928D01*
X145916840Y-111646009D01*
X145906452Y-111665445D01*
X145892476Y-111682476D01*
X145875445Y-111696452D01*
X145856009Y-111706840D01*
X145834928Y-111713236D01*
X145806860Y-111716000D01*
X143893140Y-111716000D01*
X143865072Y-111713236D01*
X143843991Y-111706840D01*
X143824555Y-111696452D01*
X143807524Y-111682476D01*
X143793548Y-111665445D01*
X143783160Y-111646009D01*
X143776764Y-111624928D01*
X143774000Y-111596860D01*
X143774000Y-111133140D01*
X143776764Y-111105072D01*
X143783160Y-111083991D01*
X143793548Y-111064555D01*
X143807524Y-111047524D01*
X143824555Y-111033548D01*
X143843991Y-111023160D01*
X143865072Y-111016764D01*
X143893140Y-111014000D01*
X145806860Y-111014000D01*
X145834928Y-111016764D01*
G37*
G36*
X91151000Y-111151000D02*
G01*
X88849000Y-111151000D01*
X88849000Y-108849000D01*
X91151000Y-108849000D01*
X91151000Y-111151000D01*
G37*
G36*
X155134928Y-109746764D02*
G01*
X155156009Y-109753160D01*
X155175445Y-109763548D01*
X155192476Y-109777524D01*
X155206452Y-109794555D01*
X155216840Y-109813991D01*
X155223236Y-109835072D01*
X155226000Y-109863140D01*
X155226000Y-110326860D01*
X155223236Y-110354928D01*
X155216840Y-110376009D01*
X155206452Y-110395445D01*
X155192476Y-110412476D01*
X155175445Y-110426452D01*
X155156009Y-110436840D01*
X155134928Y-110443236D01*
X155106860Y-110446000D01*
X153193140Y-110446000D01*
X153165072Y-110443236D01*
X153143991Y-110436840D01*
X153124555Y-110426452D01*
X153107524Y-110412476D01*
X153093548Y-110395445D01*
X153083160Y-110376009D01*
X153076764Y-110354928D01*
X153074000Y-110326860D01*
X153074000Y-109863140D01*
X153076764Y-109835072D01*
X153083160Y-109813991D01*
X153093548Y-109794555D01*
X153107524Y-109777524D01*
X153124555Y-109763548D01*
X153143991Y-109753160D01*
X153165072Y-109746764D01*
X153193140Y-109744000D01*
X155106860Y-109744000D01*
X155134928Y-109746764D01*
G37*
G36*
X145834928Y-109746764D02*
G01*
X145856009Y-109753160D01*
X145875445Y-109763548D01*
X145892476Y-109777524D01*
X145906452Y-109794555D01*
X145916840Y-109813991D01*
X145923236Y-109835072D01*
X145926000Y-109863140D01*
X145926000Y-110326860D01*
X145923236Y-110354928D01*
X145916840Y-110376009D01*
X145906452Y-110395445D01*
X145892476Y-110412476D01*
X145875445Y-110426452D01*
X145856009Y-110436840D01*
X145834928Y-110443236D01*
X145806860Y-110446000D01*
X143893140Y-110446000D01*
X143865072Y-110443236D01*
X143843991Y-110436840D01*
X143824555Y-110426452D01*
X143807524Y-110412476D01*
X143793548Y-110395445D01*
X143783160Y-110376009D01*
X143776764Y-110354928D01*
X143774000Y-110326860D01*
X143774000Y-109863140D01*
X143776764Y-109835072D01*
X143783160Y-109813991D01*
X143793548Y-109794555D01*
X143807524Y-109777524D01*
X143824555Y-109763548D01*
X143843991Y-109753160D01*
X143865072Y-109746764D01*
X143893140Y-109744000D01*
X145806860Y-109744000D01*
X145834928Y-109746764D01*
G37*
G36*
X173320345Y-107623442D02*
G01*
X173410548Y-107632326D01*
X173584157Y-107684990D01*
X173744156Y-107770511D01*
X173764077Y-107786860D01*
X173884397Y-107885603D01*
X173963729Y-107982271D01*
X173999489Y-108025844D01*
X174085010Y-108185843D01*
X174137674Y-108359452D01*
X174155456Y-108540000D01*
X174137674Y-108720548D01*
X174085010Y-108894157D01*
X173999489Y-109054156D01*
X173974235Y-109084928D01*
X173884397Y-109194397D01*
X173787729Y-109273729D01*
X173744156Y-109309489D01*
X173584157Y-109395010D01*
X173410548Y-109447674D01*
X173320345Y-109456558D01*
X173275245Y-109461000D01*
X172724755Y-109461000D01*
X172679655Y-109456558D01*
X172589452Y-109447674D01*
X172415843Y-109395010D01*
X172255844Y-109309489D01*
X172212271Y-109273729D01*
X172115603Y-109194397D01*
X172025765Y-109084928D01*
X172000511Y-109054156D01*
X171914990Y-108894157D01*
X171862326Y-108720548D01*
X171844544Y-108540000D01*
X171862326Y-108359452D01*
X171914990Y-108185843D01*
X172000511Y-108025844D01*
X172036271Y-107982271D01*
X172115603Y-107885603D01*
X172235923Y-107786860D01*
X172255844Y-107770511D01*
X172415843Y-107684990D01*
X172589452Y-107632326D01*
X172679655Y-107623442D01*
X172724755Y-107619000D01*
X173275245Y-107619000D01*
X173320345Y-107623442D01*
G37*
G36*
X145834928Y-108476764D02*
G01*
X145856009Y-108483160D01*
X145875445Y-108493548D01*
X145892476Y-108507524D01*
X145906452Y-108524555D01*
X145916840Y-108543991D01*
X145923236Y-108565072D01*
X145926000Y-108593140D01*
X145926000Y-109056860D01*
X145923236Y-109084928D01*
X145916840Y-109106009D01*
X145906452Y-109125445D01*
X145892476Y-109142476D01*
X145875445Y-109156452D01*
X145856009Y-109166840D01*
X145834928Y-109173236D01*
X145806860Y-109176000D01*
X143893140Y-109176000D01*
X143865072Y-109173236D01*
X143843991Y-109166840D01*
X143824555Y-109156452D01*
X143807524Y-109142476D01*
X143793548Y-109125445D01*
X143783160Y-109106009D01*
X143776764Y-109084928D01*
X143774000Y-109056860D01*
X143774000Y-108593140D01*
X143776764Y-108565072D01*
X143783160Y-108543991D01*
X143793548Y-108524555D01*
X143807524Y-108507524D01*
X143824555Y-108493548D01*
X143843991Y-108483160D01*
X143865072Y-108476764D01*
X143893140Y-108474000D01*
X145806860Y-108474000D01*
X145834928Y-108476764D01*
G37*
G36*
X155134928Y-108476764D02*
G01*
X155156009Y-108483160D01*
X155175445Y-108493548D01*
X155192476Y-108507524D01*
X155206452Y-108524555D01*
X155216840Y-108543991D01*
X155223236Y-108565072D01*
X155226000Y-108593140D01*
X155226000Y-109056860D01*
X155223236Y-109084928D01*
X155216840Y-109106009D01*
X155206452Y-109125445D01*
X155192476Y-109142476D01*
X155175445Y-109156452D01*
X155156009Y-109166840D01*
X155134928Y-109173236D01*
X155106860Y-109176000D01*
X153193140Y-109176000D01*
X153165072Y-109173236D01*
X153143991Y-109166840D01*
X153124555Y-109156452D01*
X153107524Y-109142476D01*
X153093548Y-109125445D01*
X153083160Y-109106009D01*
X153076764Y-109084928D01*
X153074000Y-109056860D01*
X153074000Y-108593140D01*
X153076764Y-108565072D01*
X153083160Y-108543991D01*
X153093548Y-108524555D01*
X153107524Y-108507524D01*
X153124555Y-108493548D01*
X153143991Y-108483160D01*
X153165072Y-108476764D01*
X153193140Y-108474000D01*
X155106860Y-108474000D01*
X155134928Y-108476764D01*
G37*
G36*
X145834928Y-107206764D02*
G01*
X145856009Y-107213160D01*
X145875445Y-107223548D01*
X145892476Y-107237524D01*
X145906452Y-107254555D01*
X145916840Y-107273991D01*
X145923236Y-107295072D01*
X145926000Y-107323140D01*
X145926000Y-107786860D01*
X145923236Y-107814928D01*
X145916840Y-107836009D01*
X145906452Y-107855445D01*
X145892476Y-107872476D01*
X145875445Y-107886452D01*
X145856009Y-107896840D01*
X145834928Y-107903236D01*
X145806860Y-107906000D01*
X143893140Y-107906000D01*
X143865072Y-107903236D01*
X143843991Y-107896840D01*
X143824555Y-107886452D01*
X143807524Y-107872476D01*
X143793548Y-107855445D01*
X143783160Y-107836009D01*
X143776764Y-107814928D01*
X143774000Y-107786860D01*
X143774000Y-107323140D01*
X143776764Y-107295072D01*
X143783160Y-107273991D01*
X143793548Y-107254555D01*
X143807524Y-107237524D01*
X143824555Y-107223548D01*
X143843991Y-107213160D01*
X143865072Y-107206764D01*
X143893140Y-107204000D01*
X145806860Y-107204000D01*
X145834928Y-107206764D01*
G37*
G36*
X155134928Y-107206764D02*
G01*
X155156009Y-107213160D01*
X155175445Y-107223548D01*
X155192476Y-107237524D01*
X155206452Y-107254555D01*
X155216840Y-107273991D01*
X155223236Y-107295072D01*
X155226000Y-107323140D01*
X155226000Y-107786860D01*
X155223236Y-107814928D01*
X155216840Y-107836009D01*
X155206452Y-107855445D01*
X155192476Y-107872476D01*
X155175445Y-107886452D01*
X155156009Y-107896840D01*
X155134928Y-107903236D01*
X155106860Y-107906000D01*
X153193140Y-107906000D01*
X153165072Y-107903236D01*
X153143991Y-107896840D01*
X153124555Y-107886452D01*
X153107524Y-107872476D01*
X153093548Y-107855445D01*
X153083160Y-107836009D01*
X153076764Y-107814928D01*
X153074000Y-107786860D01*
X153074000Y-107323140D01*
X153076764Y-107295072D01*
X153083160Y-107273991D01*
X153093548Y-107254555D01*
X153107524Y-107237524D01*
X153124555Y-107223548D01*
X153143991Y-107213160D01*
X153165072Y-107206764D01*
X153193140Y-107204000D01*
X155106860Y-107204000D01*
X155134928Y-107206764D01*
G37*
G36*
X174009561Y-105082966D02*
G01*
X174042383Y-105092923D01*
X174072632Y-105109092D01*
X174099148Y-105130852D01*
X174120908Y-105157368D01*
X174137077Y-105187617D01*
X174147034Y-105220439D01*
X174151000Y-105260713D01*
X174151000Y-106739287D01*
X174147034Y-106779561D01*
X174137077Y-106812383D01*
X174120908Y-106842632D01*
X174099148Y-106869148D01*
X174072632Y-106890908D01*
X174042383Y-106907077D01*
X174009561Y-106917034D01*
X173969287Y-106921000D01*
X172030713Y-106921000D01*
X171990439Y-106917034D01*
X171957617Y-106907077D01*
X171927368Y-106890908D01*
X171900852Y-106869148D01*
X171879092Y-106842632D01*
X171862923Y-106812383D01*
X171852966Y-106779561D01*
X171849000Y-106739287D01*
X171849000Y-105260713D01*
X171852966Y-105220439D01*
X171862923Y-105187617D01*
X171879092Y-105157368D01*
X171900852Y-105130852D01*
X171927368Y-105109092D01*
X171957617Y-105092923D01*
X171990439Y-105082966D01*
X172030713Y-105079000D01*
X173969287Y-105079000D01*
X174009561Y-105082966D01*
G37*
G36*
X155134928Y-105936764D02*
G01*
X155156009Y-105943160D01*
X155175445Y-105953548D01*
X155192476Y-105967524D01*
X155206452Y-105984555D01*
X155216840Y-106003991D01*
X155223236Y-106025072D01*
X155226000Y-106053140D01*
X155226000Y-106516860D01*
X155223236Y-106544928D01*
X155216840Y-106566009D01*
X155206452Y-106585445D01*
X155192476Y-106602476D01*
X155175445Y-106616452D01*
X155156009Y-106626840D01*
X155134928Y-106633236D01*
X155106860Y-106636000D01*
X153193140Y-106636000D01*
X153165072Y-106633236D01*
X153143991Y-106626840D01*
X153124555Y-106616452D01*
X153107524Y-106602476D01*
X153093548Y-106585445D01*
X153083160Y-106566009D01*
X153076764Y-106544928D01*
X153074000Y-106516860D01*
X153074000Y-106053140D01*
X153076764Y-106025072D01*
X153083160Y-106003991D01*
X153093548Y-105984555D01*
X153107524Y-105967524D01*
X153124555Y-105953548D01*
X153143991Y-105943160D01*
X153165072Y-105936764D01*
X153193140Y-105934000D01*
X155106860Y-105934000D01*
X155134928Y-105936764D01*
G37*
G36*
X145834928Y-105936764D02*
G01*
X145856009Y-105943160D01*
X145875445Y-105953548D01*
X145892476Y-105967524D01*
X145906452Y-105984555D01*
X145916840Y-106003991D01*
X145923236Y-106025072D01*
X145926000Y-106053140D01*
X145926000Y-106516860D01*
X145923236Y-106544928D01*
X145916840Y-106566009D01*
X145906452Y-106585445D01*
X145892476Y-106602476D01*
X145875445Y-106616452D01*
X145856009Y-106626840D01*
X145834928Y-106633236D01*
X145806860Y-106636000D01*
X143893140Y-106636000D01*
X143865072Y-106633236D01*
X143843991Y-106626840D01*
X143824555Y-106616452D01*
X143807524Y-106602476D01*
X143793548Y-106585445D01*
X143783160Y-106566009D01*
X143776764Y-106544928D01*
X143774000Y-106516860D01*
X143774000Y-106053140D01*
X143776764Y-106025072D01*
X143783160Y-106003991D01*
X143793548Y-105984555D01*
X143807524Y-105967524D01*
X143824555Y-105953548D01*
X143843991Y-105943160D01*
X143865072Y-105936764D01*
X143893140Y-105934000D01*
X145806860Y-105934000D01*
X145834928Y-105936764D01*
G37*
G36*
X145834928Y-104666764D02*
G01*
X145856009Y-104673160D01*
X145875445Y-104683548D01*
X145892476Y-104697524D01*
X145906452Y-104714555D01*
X145916840Y-104733991D01*
X145923236Y-104755072D01*
X145926000Y-104783140D01*
X145926000Y-105246860D01*
X145923236Y-105274928D01*
X145916840Y-105296009D01*
X145906452Y-105315445D01*
X145892476Y-105332476D01*
X145875445Y-105346452D01*
X145856009Y-105356840D01*
X145834928Y-105363236D01*
X145806860Y-105366000D01*
X143893140Y-105366000D01*
X143865072Y-105363236D01*
X143843991Y-105356840D01*
X143824555Y-105346452D01*
X143807524Y-105332476D01*
X143793548Y-105315445D01*
X143783160Y-105296009D01*
X143776764Y-105274928D01*
X143774000Y-105246860D01*
X143774000Y-104783140D01*
X143776764Y-104755072D01*
X143783160Y-104733991D01*
X143793548Y-104714555D01*
X143807524Y-104697524D01*
X143824555Y-104683548D01*
X143843991Y-104673160D01*
X143865072Y-104666764D01*
X143893140Y-104664000D01*
X145806860Y-104664000D01*
X145834928Y-104666764D01*
G37*
G36*
X155134928Y-104666764D02*
G01*
X155156009Y-104673160D01*
X155175445Y-104683548D01*
X155192476Y-104697524D01*
X155206452Y-104714555D01*
X155216840Y-104733991D01*
X155223236Y-104755072D01*
X155226000Y-104783140D01*
X155226000Y-105246860D01*
X155223236Y-105274928D01*
X155216840Y-105296009D01*
X155206452Y-105315445D01*
X155192476Y-105332476D01*
X155175445Y-105346452D01*
X155156009Y-105356840D01*
X155134928Y-105363236D01*
X155106860Y-105366000D01*
X153193140Y-105366000D01*
X153165072Y-105363236D01*
X153143991Y-105356840D01*
X153124555Y-105346452D01*
X153107524Y-105332476D01*
X153093548Y-105315445D01*
X153083160Y-105296009D01*
X153076764Y-105274928D01*
X153074000Y-105246860D01*
X153074000Y-104783140D01*
X153076764Y-104755072D01*
X153083160Y-104733991D01*
X153093548Y-104714555D01*
X153107524Y-104697524D01*
X153124555Y-104683548D01*
X153143991Y-104673160D01*
X153165072Y-104666764D01*
X153193140Y-104664000D01*
X155106860Y-104664000D01*
X155134928Y-104666764D01*
G37*
G36*
X97651000Y-103651000D02*
G01*
X97279891Y-103651000D01*
X97255505Y-103653402D01*
X97232056Y-103660515D01*
X97210445Y-103672066D01*
X97191503Y-103687611D01*
X97175958Y-103706553D01*
X97164407Y-103728164D01*
X97157294Y-103751613D01*
X97154892Y-103775999D01*
X97157294Y-103800385D01*
X97164407Y-103823834D01*
X97175958Y-103845445D01*
X97191503Y-103864387D01*
X97210445Y-103879932D01*
X97232055Y-103891483D01*
X97308364Y-103923091D01*
X97414988Y-103994335D01*
X97505665Y-104085012D01*
X97576910Y-104191638D01*
X97625983Y-104310110D01*
X97651000Y-104435881D01*
X97651000Y-104564119D01*
X97625983Y-104689890D01*
X97598984Y-104755072D01*
X97576909Y-104808364D01*
X97505665Y-104914988D01*
X97414988Y-105005665D01*
X97308364Y-105076909D01*
X97308363Y-105076910D01*
X97308362Y-105076910D01*
X97189890Y-105125983D01*
X97064119Y-105151000D01*
X96935881Y-105151000D01*
X96810110Y-105125983D01*
X96691638Y-105076910D01*
X96691637Y-105076910D01*
X96691636Y-105076909D01*
X96585012Y-105005665D01*
X96494335Y-104914988D01*
X96423091Y-104808364D01*
X96401017Y-104755072D01*
X96374017Y-104689890D01*
X96349000Y-104564119D01*
X96349000Y-104435881D01*
X96374017Y-104310110D01*
X96423090Y-104191638D01*
X96494335Y-104085012D01*
X96585012Y-103994335D01*
X96691636Y-103923091D01*
X96767945Y-103891483D01*
X96789555Y-103879932D01*
X96808497Y-103864387D01*
X96824042Y-103845445D01*
X96835593Y-103823834D01*
X96842706Y-103800385D01*
X96845108Y-103775999D01*
X96842706Y-103751613D01*
X96835593Y-103728164D01*
X96824042Y-103706553D01*
X96808497Y-103687611D01*
X96789555Y-103672066D01*
X96767944Y-103660515D01*
X96744495Y-103653402D01*
X96720109Y-103651000D01*
X96349000Y-103651000D01*
X96349000Y-102349000D01*
X97651000Y-102349000D01*
X97651000Y-103651000D01*
G37*
G36*
X91151000Y-105151000D02*
G01*
X88849000Y-105151000D01*
X88849000Y-102849000D01*
X91151000Y-102849000D01*
X91151000Y-105151000D01*
G37*
G36*
X159309468Y-101753565D02*
G01*
X159348138Y-101765296D01*
X159383777Y-101784346D01*
X159415017Y-101809983D01*
X159440654Y-101841223D01*
X159459704Y-101876862D01*
X159471435Y-101915532D01*
X159476000Y-101961888D01*
X159476000Y-103038112D01*
X159471435Y-103084468D01*
X159459704Y-103123138D01*
X159440654Y-103158777D01*
X159415017Y-103190017D01*
X159383777Y-103215654D01*
X159348138Y-103234704D01*
X159309468Y-103246435D01*
X159263112Y-103251000D01*
X158611888Y-103251000D01*
X158565532Y-103246435D01*
X158526862Y-103234704D01*
X158491223Y-103215654D01*
X158459983Y-103190017D01*
X158434346Y-103158777D01*
X158415296Y-103123138D01*
X158403565Y-103084468D01*
X158399000Y-103038112D01*
X158399000Y-101961888D01*
X158403565Y-101915532D01*
X158415296Y-101876862D01*
X158434346Y-101841223D01*
X158459983Y-101809983D01*
X158491223Y-101784346D01*
X158526862Y-101765296D01*
X158565532Y-101753565D01*
X158611888Y-101749000D01*
X159263112Y-101749000D01*
X159309468Y-101753565D01*
G37*
G36*
X157434468Y-101753565D02*
G01*
X157473138Y-101765296D01*
X157508777Y-101784346D01*
X157540017Y-101809983D01*
X157565654Y-101841223D01*
X157584704Y-101876862D01*
X157596435Y-101915532D01*
X157601000Y-101961888D01*
X157601000Y-103038112D01*
X157596435Y-103084468D01*
X157584704Y-103123138D01*
X157565654Y-103158777D01*
X157540017Y-103190017D01*
X157508777Y-103215654D01*
X157473138Y-103234704D01*
X157434468Y-103246435D01*
X157388112Y-103251000D01*
X156736888Y-103251000D01*
X156690532Y-103246435D01*
X156651862Y-103234704D01*
X156616223Y-103215654D01*
X156584983Y-103190017D01*
X156559346Y-103158777D01*
X156540296Y-103123138D01*
X156528565Y-103084468D01*
X156524000Y-103038112D01*
X156524000Y-101961888D01*
X156528565Y-101915532D01*
X156540296Y-101876862D01*
X156559346Y-101841223D01*
X156584983Y-101809983D01*
X156616223Y-101784346D01*
X156651862Y-101765296D01*
X156690532Y-101753565D01*
X156736888Y-101749000D01*
X157388112Y-101749000D01*
X157434468Y-101753565D01*
G37*
G36*
X173320345Y-99783442D02*
G01*
X173410548Y-99792326D01*
X173584157Y-99844990D01*
X173744156Y-99930511D01*
X173787729Y-99966271D01*
X173884397Y-100045603D01*
X173963729Y-100142271D01*
X173999489Y-100185844D01*
X174085010Y-100345843D01*
X174137674Y-100519452D01*
X174155456Y-100700000D01*
X174137674Y-100880548D01*
X174085010Y-101054157D01*
X173999489Y-101214156D01*
X173963729Y-101257729D01*
X173884397Y-101354397D01*
X173787729Y-101433729D01*
X173744156Y-101469489D01*
X173584157Y-101555010D01*
X173410548Y-101607674D01*
X173320345Y-101616558D01*
X173275245Y-101621000D01*
X172724755Y-101621000D01*
X172679655Y-101616558D01*
X172589452Y-101607674D01*
X172415843Y-101555010D01*
X172255844Y-101469489D01*
X172212271Y-101433729D01*
X172115603Y-101354397D01*
X172036271Y-101257729D01*
X172000511Y-101214156D01*
X171914990Y-101054157D01*
X171862326Y-100880548D01*
X171844544Y-100700000D01*
X171862326Y-100519452D01*
X171914990Y-100345843D01*
X172000511Y-100185844D01*
X172036271Y-100142271D01*
X172115603Y-100045603D01*
X172212271Y-99966271D01*
X172255844Y-99930511D01*
X172415843Y-99844990D01*
X172589452Y-99792326D01*
X172679655Y-99783442D01*
X172724755Y-99779000D01*
X173275245Y-99779000D01*
X173320345Y-99783442D01*
G37*
G36*
X85051000Y-101543500D02*
G01*
X82949000Y-101543500D01*
X82949000Y-99536500D01*
X85051000Y-99536500D01*
X85051000Y-101543500D01*
G37*
G36*
X173320345Y-97243442D02*
G01*
X173410548Y-97252326D01*
X173584157Y-97304990D01*
X173744156Y-97390511D01*
X173787729Y-97426271D01*
X173884397Y-97505603D01*
X173963729Y-97602271D01*
X173999489Y-97645844D01*
X174085010Y-97805843D01*
X174137674Y-97979452D01*
X174155456Y-98160000D01*
X174137674Y-98340548D01*
X174085010Y-98514157D01*
X173999489Y-98674156D01*
X173967598Y-98713015D01*
X173884397Y-98814397D01*
X173787729Y-98893729D01*
X173744156Y-98929489D01*
X173584157Y-99015010D01*
X173410548Y-99067674D01*
X173320345Y-99076558D01*
X173275245Y-99081000D01*
X172724755Y-99081000D01*
X172679655Y-99076558D01*
X172589452Y-99067674D01*
X172415843Y-99015010D01*
X172255844Y-98929489D01*
X172212271Y-98893729D01*
X172115603Y-98814397D01*
X172032402Y-98713015D01*
X172000511Y-98674156D01*
X171914990Y-98514157D01*
X171862326Y-98340548D01*
X171844544Y-98160000D01*
X171862326Y-97979452D01*
X171914990Y-97805843D01*
X172000511Y-97645844D01*
X172036271Y-97602271D01*
X172115603Y-97505603D01*
X172212271Y-97426271D01*
X172255844Y-97390511D01*
X172415843Y-97304990D01*
X172589452Y-97252326D01*
X172679655Y-97243442D01*
X172724755Y-97239000D01*
X173275245Y-97239000D01*
X173320345Y-97243442D01*
G37*
G36*
X84145936Y-97001340D02*
G01*
X84244220Y-97011020D01*
X84433381Y-97068401D01*
X84607712Y-97161583D01*
X84760515Y-97286985D01*
X84885917Y-97439788D01*
X84979099Y-97614119D01*
X85036480Y-97803280D01*
X85055855Y-98000000D01*
X85036480Y-98196720D01*
X84979099Y-98385881D01*
X84885917Y-98560212D01*
X84760515Y-98713015D01*
X84607712Y-98838417D01*
X84433381Y-98931599D01*
X84244220Y-98988980D01*
X84145936Y-98998660D01*
X84096795Y-99003500D01*
X83903205Y-99003500D01*
X83854064Y-98998660D01*
X83755780Y-98988980D01*
X83566619Y-98931599D01*
X83392288Y-98838417D01*
X83239485Y-98713015D01*
X83114083Y-98560212D01*
X83020901Y-98385881D01*
X82963520Y-98196720D01*
X82944145Y-98000000D01*
X82963520Y-97803280D01*
X83020901Y-97614119D01*
X83114083Y-97439788D01*
X83239485Y-97286985D01*
X83392288Y-97161583D01*
X83566619Y-97068401D01*
X83755780Y-97011020D01*
X83854064Y-97001340D01*
X83903205Y-96996500D01*
X84096795Y-96996500D01*
X84145936Y-97001340D01*
G37*
G36*
X97651000Y-96651000D02*
G01*
X97279891Y-96651000D01*
X97255505Y-96653402D01*
X97232056Y-96660515D01*
X97210445Y-96672066D01*
X97191503Y-96687611D01*
X97175958Y-96706553D01*
X97164407Y-96728164D01*
X97157294Y-96751613D01*
X97154892Y-96775999D01*
X97157294Y-96800385D01*
X97164407Y-96823834D01*
X97175958Y-96845445D01*
X97191503Y-96864387D01*
X97210445Y-96879932D01*
X97232055Y-96891483D01*
X97308364Y-96923091D01*
X97414988Y-96994335D01*
X97505665Y-97085012D01*
X97576910Y-97191638D01*
X97625983Y-97310110D01*
X97651000Y-97435881D01*
X97651000Y-97564119D01*
X97634744Y-97645844D01*
X97625983Y-97689890D01*
X97576909Y-97808364D01*
X97505665Y-97914988D01*
X97414988Y-98005665D01*
X97308364Y-98076909D01*
X97308363Y-98076910D01*
X97308362Y-98076910D01*
X97189890Y-98125983D01*
X97064119Y-98151000D01*
X96935881Y-98151000D01*
X96810110Y-98125983D01*
X96691638Y-98076910D01*
X96691637Y-98076910D01*
X96691636Y-98076909D01*
X96585012Y-98005665D01*
X96494335Y-97914988D01*
X96423091Y-97808364D01*
X96374017Y-97689890D01*
X96365256Y-97645844D01*
X96349000Y-97564119D01*
X96349000Y-97435881D01*
X96374017Y-97310110D01*
X96423090Y-97191638D01*
X96494335Y-97085012D01*
X96585012Y-96994335D01*
X96691636Y-96923091D01*
X96767945Y-96891483D01*
X96789555Y-96879932D01*
X96808497Y-96864387D01*
X96824042Y-96845445D01*
X96835593Y-96823834D01*
X96842706Y-96800385D01*
X96845108Y-96775999D01*
X96842706Y-96751613D01*
X96835593Y-96728164D01*
X96824042Y-96706553D01*
X96808497Y-96687611D01*
X96789555Y-96672066D01*
X96767944Y-96660515D01*
X96744495Y-96653402D01*
X96720109Y-96651000D01*
X96349000Y-96651000D01*
X96349000Y-95349000D01*
X97651000Y-95349000D01*
X97651000Y-96651000D01*
G37*
G36*
X173320345Y-94703442D02*
G01*
X173410548Y-94712326D01*
X173584157Y-94764990D01*
X173744156Y-94850511D01*
X173787729Y-94886271D01*
X173884397Y-94965603D01*
X173963729Y-95062271D01*
X173999489Y-95105844D01*
X174085010Y-95265843D01*
X174137674Y-95439452D01*
X174155456Y-95620000D01*
X174137674Y-95800548D01*
X174085010Y-95974157D01*
X173999489Y-96134156D01*
X173967598Y-96173015D01*
X173884397Y-96274397D01*
X173787729Y-96353729D01*
X173744156Y-96389489D01*
X173584157Y-96475010D01*
X173410548Y-96527674D01*
X173320345Y-96536558D01*
X173275245Y-96541000D01*
X172724755Y-96541000D01*
X172679655Y-96536558D01*
X172589452Y-96527674D01*
X172415843Y-96475010D01*
X172255844Y-96389489D01*
X172212271Y-96353729D01*
X172115603Y-96274397D01*
X172032402Y-96173015D01*
X172000511Y-96134156D01*
X171914990Y-95974157D01*
X171862326Y-95800548D01*
X171844544Y-95620000D01*
X171862326Y-95439452D01*
X171914990Y-95265843D01*
X172000511Y-95105844D01*
X172036271Y-95062271D01*
X172115603Y-94965603D01*
X172212271Y-94886271D01*
X172255844Y-94850511D01*
X172415843Y-94764990D01*
X172589452Y-94712326D01*
X172679655Y-94703442D01*
X172724755Y-94699000D01*
X173275245Y-94699000D01*
X173320345Y-94703442D01*
G37*
G36*
X84145936Y-94461340D02*
G01*
X84244220Y-94471020D01*
X84433381Y-94528401D01*
X84607712Y-94621583D01*
X84760515Y-94746985D01*
X84885917Y-94899788D01*
X84979099Y-95074119D01*
X85036480Y-95263280D01*
X85055855Y-95460000D01*
X85036480Y-95656720D01*
X84979099Y-95845881D01*
X84885917Y-96020212D01*
X84760515Y-96173015D01*
X84607712Y-96298417D01*
X84433381Y-96391599D01*
X84244220Y-96448980D01*
X84145936Y-96458660D01*
X84096795Y-96463500D01*
X83903205Y-96463500D01*
X83854064Y-96458660D01*
X83755780Y-96448980D01*
X83566619Y-96391599D01*
X83392288Y-96298417D01*
X83239485Y-96173015D01*
X83114083Y-96020212D01*
X83020901Y-95845881D01*
X82963520Y-95656720D01*
X82944145Y-95460000D01*
X82963520Y-95263280D01*
X83020901Y-95074119D01*
X83114083Y-94899788D01*
X83239485Y-94746985D01*
X83392288Y-94621583D01*
X83566619Y-94528401D01*
X83755780Y-94471020D01*
X83854064Y-94461340D01*
X83903205Y-94456500D01*
X84096795Y-94456500D01*
X84145936Y-94461340D01*
G37*
G36*
X90224549Y-92711116D02*
G01*
X90335734Y-92733232D01*
X90545203Y-92819997D01*
X90733720Y-92945960D01*
X90894040Y-93106280D01*
X91020003Y-93294797D01*
X91106768Y-93504266D01*
X91151000Y-93726636D01*
X91151000Y-93953364D01*
X91106768Y-94175734D01*
X91020003Y-94385203D01*
X90894040Y-94573720D01*
X90733720Y-94734040D01*
X90545203Y-94860003D01*
X90335734Y-94946768D01*
X90241044Y-94965603D01*
X90113365Y-94991000D01*
X89886635Y-94991000D01*
X89758956Y-94965603D01*
X89664266Y-94946768D01*
X89454797Y-94860003D01*
X89266280Y-94734040D01*
X89105960Y-94573720D01*
X88979997Y-94385203D01*
X88893232Y-94175734D01*
X88849000Y-93953364D01*
X88849000Y-93726636D01*
X88893232Y-93504266D01*
X88979997Y-93294797D01*
X89105960Y-93106280D01*
X89266280Y-92945960D01*
X89454797Y-92819997D01*
X89664266Y-92733232D01*
X89775451Y-92711116D01*
X89886635Y-92689000D01*
X90113365Y-92689000D01*
X90224549Y-92711116D01*
G37*
G36*
X173320345Y-92163442D02*
G01*
X173410548Y-92172326D01*
X173584157Y-92224990D01*
X173744156Y-92310511D01*
X173787729Y-92346271D01*
X173884397Y-92425603D01*
X173963729Y-92522271D01*
X173999489Y-92565844D01*
X174085010Y-92725843D01*
X174137674Y-92899452D01*
X174155456Y-93080000D01*
X174137674Y-93260548D01*
X174085010Y-93434157D01*
X173999489Y-93594156D01*
X173963729Y-93637729D01*
X173884397Y-93734397D01*
X173787729Y-93813729D01*
X173744156Y-93849489D01*
X173584157Y-93935010D01*
X173410548Y-93987674D01*
X173320345Y-93996558D01*
X173275245Y-94001000D01*
X172724755Y-94001000D01*
X172679655Y-93996558D01*
X172589452Y-93987674D01*
X172415843Y-93935010D01*
X172255844Y-93849489D01*
X172212271Y-93813729D01*
X172115603Y-93734397D01*
X172036271Y-93637729D01*
X172000511Y-93594156D01*
X171914990Y-93434157D01*
X171862326Y-93260548D01*
X171844544Y-93080000D01*
X171862326Y-92899452D01*
X171914990Y-92725843D01*
X172000511Y-92565844D01*
X172036271Y-92522271D01*
X172115603Y-92425603D01*
X172212271Y-92346271D01*
X172255844Y-92310511D01*
X172415843Y-92224990D01*
X172589452Y-92172326D01*
X172679655Y-92163442D01*
X172724755Y-92159000D01*
X173275245Y-92159000D01*
X173320345Y-92163442D01*
G37*
G36*
X173320345Y-89623442D02*
G01*
X173410548Y-89632326D01*
X173584157Y-89684990D01*
X173744156Y-89770511D01*
X173787729Y-89806271D01*
X173884397Y-89885603D01*
X173963729Y-89982271D01*
X173999489Y-90025844D01*
X174085010Y-90185843D01*
X174137674Y-90359452D01*
X174155456Y-90540000D01*
X174137674Y-90720548D01*
X174085010Y-90894157D01*
X173999489Y-91054156D01*
X173963729Y-91097729D01*
X173884397Y-91194397D01*
X173787729Y-91273729D01*
X173744156Y-91309489D01*
X173584157Y-91395010D01*
X173410548Y-91447674D01*
X173320345Y-91456558D01*
X173275245Y-91461000D01*
X172724755Y-91461000D01*
X172679655Y-91456558D01*
X172589452Y-91447674D01*
X172415843Y-91395010D01*
X172255844Y-91309489D01*
X172212271Y-91273729D01*
X172115603Y-91194397D01*
X172036271Y-91097729D01*
X172000511Y-91054156D01*
X171914990Y-90894157D01*
X171862326Y-90720548D01*
X171844544Y-90540000D01*
X171862326Y-90359452D01*
X171914990Y-90185843D01*
X172000511Y-90025844D01*
X172036271Y-89982271D01*
X172115603Y-89885603D01*
X172212271Y-89806271D01*
X172255844Y-89770511D01*
X172415843Y-89684990D01*
X172589452Y-89632326D01*
X172679655Y-89623442D01*
X172724755Y-89619000D01*
X173275245Y-89619000D01*
X173320345Y-89623442D01*
G37*
G36*
X146200000Y-90475000D02*
G01*
X143800000Y-90475000D01*
X143800000Y-88925000D01*
X146200000Y-88925000D01*
X146200000Y-90475000D01*
G37*
G36*
X174009561Y-87082966D02*
G01*
X174042383Y-87092923D01*
X174072632Y-87109092D01*
X174099148Y-87130852D01*
X174120908Y-87157368D01*
X174137077Y-87187617D01*
X174147034Y-87220439D01*
X174151000Y-87260713D01*
X174151000Y-88739287D01*
X174147034Y-88779561D01*
X174137077Y-88812383D01*
X174120908Y-88842632D01*
X174099148Y-88869148D01*
X174072632Y-88890908D01*
X174042383Y-88907077D01*
X174009561Y-88917034D01*
X173969287Y-88921000D01*
X172030713Y-88921000D01*
X171990439Y-88917034D01*
X171957617Y-88907077D01*
X171927368Y-88890908D01*
X171900852Y-88869148D01*
X171879092Y-88842632D01*
X171862923Y-88812383D01*
X171852966Y-88779561D01*
X171849000Y-88739287D01*
X171849000Y-87260713D01*
X171852966Y-87220439D01*
X171862923Y-87187617D01*
X171879092Y-87157368D01*
X171900852Y-87130852D01*
X171927368Y-87109092D01*
X171957617Y-87092923D01*
X171990439Y-87082966D01*
X172030713Y-87079000D01*
X173969287Y-87079000D01*
X174009561Y-87082966D01*
G37*
G36*
X100151000Y-86151000D02*
G01*
X97849000Y-86151000D01*
X97849000Y-83849000D01*
X100151000Y-83849000D01*
X100151000Y-86151000D01*
G37*
G36*
X89064549Y-83871116D02*
G01*
X89175734Y-83893232D01*
X89385203Y-83979997D01*
X89573720Y-84105960D01*
X89734040Y-84266280D01*
X89860003Y-84454797D01*
X89946768Y-84664266D01*
X89991000Y-84886636D01*
X89991000Y-85113364D01*
X89946768Y-85335734D01*
X89860003Y-85545203D01*
X89734040Y-85733720D01*
X89573720Y-85894040D01*
X89385203Y-86020003D01*
X89175734Y-86106768D01*
X89064549Y-86128884D01*
X88953365Y-86151000D01*
X88726635Y-86151000D01*
X88615451Y-86128884D01*
X88504266Y-86106768D01*
X88294797Y-86020003D01*
X88106280Y-85894040D01*
X87945960Y-85733720D01*
X87819997Y-85545203D01*
X87733232Y-85335734D01*
X87689000Y-85113364D01*
X87689000Y-84886636D01*
X87733232Y-84664266D01*
X87819997Y-84454797D01*
X87945960Y-84266280D01*
X88106280Y-84105960D01*
X88294797Y-83979997D01*
X88504266Y-83893232D01*
X88615451Y-83871116D01*
X88726635Y-83849000D01*
X88953365Y-83849000D01*
X89064549Y-83871116D01*
G37*
G36*
X146200000Y-86075000D02*
G01*
X143800000Y-86075000D01*
X143800000Y-84525000D01*
X146200000Y-84525000D01*
X146200000Y-86075000D01*
G37*
G36*
X171551000Y-84051000D02*
G01*
X170449000Y-84051000D01*
X170449000Y-81949000D01*
X171551000Y-81949000D01*
X171551000Y-84051000D01*
G37*
G36*
X177551000Y-84051000D02*
G01*
X176449000Y-84051000D01*
X176449000Y-81949000D01*
X177551000Y-81949000D01*
X177551000Y-84051000D01*
G37*
G36*
X175551000Y-84051000D02*
G01*
X174449000Y-84051000D01*
X174449000Y-81949000D01*
X175551000Y-81949000D01*
X175551000Y-84051000D01*
G37*
G36*
X173551000Y-84051000D02*
G01*
X172449000Y-84051000D01*
X172449000Y-81949000D01*
X173551000Y-81949000D01*
X173551000Y-84051000D01*
G37*
G36*
X169551000Y-84051000D02*
G01*
X168449000Y-84051000D01*
X168449000Y-81949000D01*
X169551000Y-81949000D01*
X169551000Y-84051000D01*
G37*
G36*
X167551000Y-84051000D02*
G01*
X166449000Y-84051000D01*
X166449000Y-81949000D01*
X167551000Y-81949000D01*
X167551000Y-84051000D01*
G37*
G36*
X165551000Y-84051000D02*
G01*
X164449000Y-84051000D01*
X164449000Y-81949000D01*
X165551000Y-81949000D01*
X165551000Y-84051000D01*
G37*
G36*
X163551000Y-84051000D02*
G01*
X162449000Y-84051000D01*
X162449000Y-81949000D01*
X163551000Y-81949000D01*
X163551000Y-84051000D01*
G37*
G36*
X83679487Y-78348996D02*
G01*
X83916253Y-78447068D01*
X83916255Y-78447069D01*
X84121887Y-78584468D01*
X84129339Y-78589447D01*
X84310553Y-78770661D01*
X84452932Y-78983747D01*
X84551004Y-79220513D01*
X84601000Y-79471861D01*
X84601000Y-79728139D01*
X84551004Y-79979487D01*
X84452932Y-80216253D01*
X84452931Y-80216255D01*
X84310553Y-80429339D01*
X84129339Y-80610553D01*
X83916255Y-80752931D01*
X83916254Y-80752932D01*
X83916253Y-80752932D01*
X83679487Y-80851004D01*
X83428139Y-80901000D01*
X83171861Y-80901000D01*
X82920513Y-80851004D01*
X82683747Y-80752932D01*
X82683746Y-80752932D01*
X82683745Y-80752931D01*
X82470661Y-80610553D01*
X82289447Y-80429339D01*
X82147069Y-80216255D01*
X82147068Y-80216253D01*
X82048996Y-79979487D01*
X81999000Y-79728139D01*
X81999000Y-79471861D01*
X82048996Y-79220513D01*
X82147068Y-78983747D01*
X82289447Y-78770661D01*
X82470661Y-78589447D01*
X82478113Y-78584468D01*
X82683745Y-78447069D01*
X82683747Y-78447068D01*
X82920513Y-78348996D01*
X83171861Y-78299000D01*
X83428139Y-78299000D01*
X83679487Y-78348996D01*
G37*
G36*
X94309468Y-79253565D02*
G01*
X94348138Y-79265296D01*
X94383777Y-79284346D01*
X94415017Y-79309983D01*
X94440654Y-79341223D01*
X94459704Y-79376862D01*
X94471435Y-79415532D01*
X94476000Y-79461888D01*
X94476000Y-80538112D01*
X94471435Y-80584468D01*
X94459704Y-80623138D01*
X94440654Y-80658777D01*
X94415017Y-80690017D01*
X94383777Y-80715654D01*
X94348138Y-80734704D01*
X94309468Y-80746435D01*
X94263112Y-80751000D01*
X93611888Y-80751000D01*
X93565532Y-80746435D01*
X93526862Y-80734704D01*
X93491223Y-80715654D01*
X93459983Y-80690017D01*
X93434346Y-80658777D01*
X93415296Y-80623138D01*
X93403565Y-80584468D01*
X93399000Y-80538112D01*
X93399000Y-79461888D01*
X93403565Y-79415532D01*
X93415296Y-79376862D01*
X93434346Y-79341223D01*
X93459983Y-79309983D01*
X93491223Y-79284346D01*
X93526862Y-79265296D01*
X93565532Y-79253565D01*
X93611888Y-79249000D01*
X94263112Y-79249000D01*
X94309468Y-79253565D01*
G37*
G36*
X92434468Y-79253565D02*
G01*
X92473138Y-79265296D01*
X92508777Y-79284346D01*
X92540017Y-79309983D01*
X92565654Y-79341223D01*
X92584704Y-79376862D01*
X92596435Y-79415532D01*
X92601000Y-79461888D01*
X92601000Y-80538112D01*
X92596435Y-80584468D01*
X92584704Y-80623138D01*
X92565654Y-80658777D01*
X92540017Y-80690017D01*
X92508777Y-80715654D01*
X92473138Y-80734704D01*
X92434468Y-80746435D01*
X92388112Y-80751000D01*
X91736888Y-80751000D01*
X91690532Y-80746435D01*
X91651862Y-80734704D01*
X91616223Y-80715654D01*
X91584983Y-80690017D01*
X91559346Y-80658777D01*
X91540296Y-80623138D01*
X91528565Y-80584468D01*
X91524000Y-80538112D01*
X91524000Y-79461888D01*
X91528565Y-79415532D01*
X91540296Y-79376862D01*
X91559346Y-79341223D01*
X91584983Y-79309983D01*
X91616223Y-79284346D01*
X91651862Y-79265296D01*
X91690532Y-79253565D01*
X91736888Y-79249000D01*
X92388112Y-79249000D01*
X92434468Y-79253565D01*
G37*
G36*
X99496968Y-77253565D02*
G01*
X99535638Y-77265296D01*
X99571277Y-77284346D01*
X99602517Y-77309983D01*
X99628154Y-77341223D01*
X99647204Y-77376862D01*
X99658935Y-77415532D01*
X99663500Y-77461888D01*
X99663500Y-78538112D01*
X99658935Y-78584468D01*
X99647204Y-78623138D01*
X99628154Y-78658777D01*
X99602517Y-78690017D01*
X99571277Y-78715654D01*
X99535638Y-78734704D01*
X99496968Y-78746435D01*
X99450612Y-78751000D01*
X98799388Y-78751000D01*
X98753032Y-78746435D01*
X98714362Y-78734704D01*
X98678723Y-78715654D01*
X98647483Y-78690017D01*
X98621846Y-78658777D01*
X98602796Y-78623138D01*
X98591065Y-78584468D01*
X98586500Y-78538112D01*
X98586500Y-77461888D01*
X98591065Y-77415532D01*
X98602796Y-77376862D01*
X98621846Y-77341223D01*
X98647483Y-77309983D01*
X98678723Y-77284346D01*
X98714362Y-77265296D01*
X98753032Y-77253565D01*
X98799388Y-77249000D01*
X99450612Y-77249000D01*
X99496968Y-77253565D01*
G37*
G36*
X101371968Y-77253565D02*
G01*
X101410638Y-77265296D01*
X101446277Y-77284346D01*
X101477517Y-77309983D01*
X101503154Y-77341223D01*
X101522204Y-77376862D01*
X101533935Y-77415532D01*
X101538500Y-77461888D01*
X101538500Y-78538112D01*
X101533935Y-78584468D01*
X101522204Y-78623138D01*
X101503154Y-78658777D01*
X101477517Y-78690017D01*
X101446277Y-78715654D01*
X101410638Y-78734704D01*
X101371968Y-78746435D01*
X101325612Y-78751000D01*
X100674388Y-78751000D01*
X100628032Y-78746435D01*
X100589362Y-78734704D01*
X100553723Y-78715654D01*
X100522483Y-78690017D01*
X100496846Y-78658777D01*
X100477796Y-78623138D01*
X100466065Y-78584468D01*
X100461500Y-78538112D01*
X100461500Y-77461888D01*
X100466065Y-77415532D01*
X100477796Y-77376862D01*
X100496846Y-77341223D01*
X100522483Y-77309983D01*
X100553723Y-77284346D01*
X100589362Y-77265296D01*
X100628032Y-77253565D01*
X100674388Y-77249000D01*
X101325612Y-77249000D01*
X101371968Y-77253565D01*
G37*
G36*
X93501000Y-76501000D02*
G01*
X92599000Y-76501000D01*
X92599000Y-75499000D01*
X93501000Y-75499000D01*
X93501000Y-76501000D01*
G37*
G36*
X95401000Y-76501000D02*
G01*
X94499000Y-76501000D01*
X94499000Y-75499000D01*
X95401000Y-75499000D01*
X95401000Y-76501000D01*
G37*
G36*
X104627618Y-73958420D02*
G01*
X104718404Y-73985960D01*
X104750336Y-73995646D01*
X104863425Y-74056094D01*
X104962554Y-74137446D01*
X105043906Y-74236575D01*
X105104354Y-74349664D01*
X105104355Y-74349668D01*
X105141580Y-74472382D01*
X105151000Y-74568027D01*
X105151000Y-75431973D01*
X105141580Y-75527618D01*
X105114040Y-75618404D01*
X105104354Y-75650336D01*
X105043906Y-75763425D01*
X104962554Y-75862553D01*
X104863424Y-75943906D01*
X104750335Y-76004354D01*
X104718403Y-76014040D01*
X104627617Y-76041580D01*
X104500000Y-76054149D01*
X104372382Y-76041580D01*
X104281596Y-76014040D01*
X104249664Y-76004354D01*
X104136575Y-75943906D01*
X104037447Y-75862554D01*
X103956094Y-75763424D01*
X103895646Y-75650335D01*
X103885960Y-75618403D01*
X103858420Y-75527617D01*
X103849000Y-75431972D01*
X103849000Y-74568027D01*
X103858420Y-74472382D01*
X103895646Y-74349668D01*
X103895647Y-74349664D01*
X103956095Y-74236575D01*
X104037447Y-74137446D01*
X104136576Y-74056094D01*
X104249665Y-73995646D01*
X104281597Y-73985960D01*
X104372383Y-73958420D01*
X104500000Y-73945851D01*
X104627618Y-73958420D01*
G37*
G36*
X129627618Y-73958420D02*
G01*
X129718404Y-73985960D01*
X129750336Y-73995646D01*
X129863425Y-74056094D01*
X129962554Y-74137446D01*
X130043906Y-74236575D01*
X130104354Y-74349664D01*
X130104355Y-74349668D01*
X130141580Y-74472382D01*
X130151000Y-74568027D01*
X130151000Y-75431973D01*
X130141580Y-75527618D01*
X130114040Y-75618404D01*
X130104354Y-75650336D01*
X130043906Y-75763425D01*
X129962554Y-75862553D01*
X129863424Y-75943906D01*
X129750335Y-76004354D01*
X129718403Y-76014040D01*
X129627617Y-76041580D01*
X129500000Y-76054149D01*
X129372382Y-76041580D01*
X129281596Y-76014040D01*
X129249664Y-76004354D01*
X129136575Y-75943906D01*
X129037447Y-75862554D01*
X128956094Y-75763424D01*
X128895646Y-75650335D01*
X128885960Y-75618403D01*
X128858420Y-75527617D01*
X128849000Y-75431972D01*
X128849000Y-74568027D01*
X128858420Y-74472382D01*
X128895646Y-74349668D01*
X128895647Y-74349664D01*
X128956095Y-74236575D01*
X129037447Y-74137446D01*
X129136576Y-74056094D01*
X129249665Y-73995646D01*
X129281597Y-73985960D01*
X129372383Y-73958420D01*
X129500000Y-73945851D01*
X129627618Y-73958420D01*
G37*
G36*
X84601000Y-75901000D02*
G01*
X81999000Y-75901000D01*
X81999000Y-73299000D01*
X84601000Y-73299000D01*
X84601000Y-75901000D01*
G37*
G36*
X94451000Y-74501000D02*
G01*
X93549000Y-74501000D01*
X93549000Y-73499000D01*
X94451000Y-73499000D01*
X94451000Y-74501000D01*
G37*
G36*
X98434468Y-69953565D02*
G01*
X98473138Y-69965296D01*
X98508777Y-69984346D01*
X98540017Y-70009983D01*
X98565654Y-70041223D01*
X98584704Y-70076862D01*
X98596435Y-70115532D01*
X98601000Y-70161888D01*
X98601000Y-71238112D01*
X98596435Y-71284468D01*
X98584704Y-71323138D01*
X98565654Y-71358777D01*
X98540017Y-71390017D01*
X98508777Y-71415654D01*
X98473138Y-71434704D01*
X98434468Y-71446435D01*
X98388112Y-71451000D01*
X97736888Y-71451000D01*
X97690532Y-71446435D01*
X97651862Y-71434704D01*
X97616223Y-71415654D01*
X97584983Y-71390017D01*
X97559346Y-71358777D01*
X97540296Y-71323138D01*
X97528565Y-71284468D01*
X97524000Y-71238112D01*
X97524000Y-70161888D01*
X97528565Y-70115532D01*
X97540296Y-70076862D01*
X97559346Y-70041223D01*
X97584983Y-70009983D01*
X97616223Y-69984346D01*
X97651862Y-69965296D01*
X97690532Y-69953565D01*
X97736888Y-69949000D01*
X98388112Y-69949000D01*
X98434468Y-69953565D01*
G37*
G36*
X100309468Y-69953565D02*
G01*
X100348138Y-69965296D01*
X100383777Y-69984346D01*
X100415017Y-70009983D01*
X100440654Y-70041223D01*
X100459704Y-70076862D01*
X100471435Y-70115532D01*
X100476000Y-70161888D01*
X100476000Y-71238112D01*
X100471435Y-71284468D01*
X100459704Y-71323138D01*
X100440654Y-71358777D01*
X100415017Y-71390017D01*
X100383777Y-71415654D01*
X100348138Y-71434704D01*
X100309468Y-71446435D01*
X100263112Y-71451000D01*
X99611888Y-71451000D01*
X99565532Y-71446435D01*
X99526862Y-71434704D01*
X99491223Y-71415654D01*
X99459983Y-71390017D01*
X99434346Y-71358777D01*
X99415296Y-71323138D01*
X99403565Y-71284468D01*
X99399000Y-71238112D01*
X99399000Y-70161888D01*
X99403565Y-70115532D01*
X99415296Y-70076862D01*
X99434346Y-70041223D01*
X99459983Y-70009983D01*
X99491223Y-69984346D01*
X99526862Y-69965296D01*
X99565532Y-69953565D01*
X99611888Y-69949000D01*
X100263112Y-69949000D01*
X100309468Y-69953565D01*
G37*
G36*
X111784468Y-69703565D02*
G01*
X111823138Y-69715296D01*
X111858777Y-69734346D01*
X111890017Y-69759983D01*
X111915654Y-69791223D01*
X111934704Y-69826862D01*
X111946435Y-69865532D01*
X111951000Y-69911888D01*
X111951000Y-70563112D01*
X111946435Y-70609468D01*
X111934704Y-70648138D01*
X111915654Y-70683777D01*
X111890017Y-70715017D01*
X111858777Y-70740654D01*
X111823138Y-70759704D01*
X111784468Y-70771435D01*
X111738112Y-70776000D01*
X110661888Y-70776000D01*
X110615532Y-70771435D01*
X110576862Y-70759704D01*
X110541223Y-70740654D01*
X110509983Y-70715017D01*
X110484346Y-70683777D01*
X110465296Y-70648138D01*
X110453565Y-70609468D01*
X110449000Y-70563112D01*
X110449000Y-69911888D01*
X110453565Y-69865532D01*
X110465296Y-69826862D01*
X110484346Y-69791223D01*
X110509983Y-69759983D01*
X110541223Y-69734346D01*
X110576862Y-69715296D01*
X110615532Y-69703565D01*
X110661888Y-69699000D01*
X111738112Y-69699000D01*
X111784468Y-69703565D01*
G37*
G36*
X108246968Y-69253565D02*
G01*
X108285638Y-69265296D01*
X108321277Y-69284346D01*
X108352517Y-69309983D01*
X108378154Y-69341223D01*
X108397204Y-69376862D01*
X108408935Y-69415532D01*
X108413500Y-69461888D01*
X108413500Y-70538112D01*
X108408935Y-70584468D01*
X108397204Y-70623138D01*
X108378154Y-70658777D01*
X108352517Y-70690017D01*
X108321277Y-70715654D01*
X108285638Y-70734704D01*
X108246968Y-70746435D01*
X108200612Y-70751000D01*
X107549388Y-70751000D01*
X107503032Y-70746435D01*
X107464362Y-70734704D01*
X107428723Y-70715654D01*
X107397483Y-70690017D01*
X107371846Y-70658777D01*
X107352796Y-70623138D01*
X107341065Y-70584468D01*
X107336500Y-70538112D01*
X107336500Y-69461888D01*
X107341065Y-69415532D01*
X107352796Y-69376862D01*
X107371846Y-69341223D01*
X107397483Y-69309983D01*
X107428723Y-69284346D01*
X107464362Y-69265296D01*
X107503032Y-69253565D01*
X107549388Y-69249000D01*
X108200612Y-69249000D01*
X108246968Y-69253565D01*
G37*
G36*
X106371968Y-69253565D02*
G01*
X106410638Y-69265296D01*
X106446277Y-69284346D01*
X106477517Y-69309983D01*
X106503154Y-69341223D01*
X106522204Y-69376862D01*
X106533935Y-69415532D01*
X106538500Y-69461888D01*
X106538500Y-70538112D01*
X106533935Y-70584468D01*
X106522204Y-70623138D01*
X106503154Y-70658777D01*
X106477517Y-70690017D01*
X106446277Y-70715654D01*
X106410638Y-70734704D01*
X106371968Y-70746435D01*
X106325612Y-70751000D01*
X105674388Y-70751000D01*
X105628032Y-70746435D01*
X105589362Y-70734704D01*
X105553723Y-70715654D01*
X105522483Y-70690017D01*
X105496846Y-70658777D01*
X105477796Y-70623138D01*
X105466065Y-70584468D01*
X105461500Y-70538112D01*
X105461500Y-69461888D01*
X105466065Y-69415532D01*
X105477796Y-69376862D01*
X105496846Y-69341223D01*
X105522483Y-69309983D01*
X105553723Y-69284346D01*
X105589362Y-69265296D01*
X105628032Y-69253565D01*
X105674388Y-69249000D01*
X106325612Y-69249000D01*
X106371968Y-69253565D01*
G37*
G36*
X111784468Y-67828565D02*
G01*
X111823138Y-67840296D01*
X111858777Y-67859346D01*
X111890017Y-67884983D01*
X111915654Y-67916223D01*
X111934704Y-67951862D01*
X111946435Y-67990532D01*
X111951000Y-68036888D01*
X111951000Y-68688112D01*
X111946435Y-68734468D01*
X111934704Y-68773138D01*
X111915654Y-68808777D01*
X111890017Y-68840017D01*
X111858777Y-68865654D01*
X111823138Y-68884704D01*
X111784468Y-68896435D01*
X111738112Y-68901000D01*
X110661888Y-68901000D01*
X110615532Y-68896435D01*
X110576862Y-68884704D01*
X110541223Y-68865654D01*
X110509983Y-68840017D01*
X110484346Y-68808777D01*
X110465296Y-68773138D01*
X110453565Y-68734468D01*
X110449000Y-68688112D01*
X110449000Y-68036888D01*
X110453565Y-67990532D01*
X110465296Y-67951862D01*
X110484346Y-67916223D01*
X110509983Y-67884983D01*
X110541223Y-67859346D01*
X110576862Y-67840296D01*
X110615532Y-67828565D01*
X110661888Y-67824000D01*
X111738112Y-67824000D01*
X111784468Y-67828565D01*
G37*
G36*
X93309468Y-67253565D02*
G01*
X93348138Y-67265296D01*
X93383777Y-67284346D01*
X93415017Y-67309983D01*
X93440654Y-67341223D01*
X93459704Y-67376862D01*
X93471435Y-67415532D01*
X93476000Y-67461888D01*
X93476000Y-68538112D01*
X93471435Y-68584468D01*
X93459704Y-68623138D01*
X93440654Y-68658777D01*
X93415017Y-68690017D01*
X93383777Y-68715654D01*
X93348138Y-68734704D01*
X93309468Y-68746435D01*
X93263112Y-68751000D01*
X92611888Y-68751000D01*
X92565532Y-68746435D01*
X92526862Y-68734704D01*
X92491223Y-68715654D01*
X92459983Y-68690017D01*
X92434346Y-68658777D01*
X92415296Y-68623138D01*
X92403565Y-68584468D01*
X92399000Y-68538112D01*
X92399000Y-67461888D01*
X92403565Y-67415532D01*
X92415296Y-67376862D01*
X92434346Y-67341223D01*
X92459983Y-67309983D01*
X92491223Y-67284346D01*
X92526862Y-67265296D01*
X92565532Y-67253565D01*
X92611888Y-67249000D01*
X93263112Y-67249000D01*
X93309468Y-67253565D01*
G37*
G36*
X91434468Y-67253565D02*
G01*
X91473138Y-67265296D01*
X91508777Y-67284346D01*
X91540017Y-67309983D01*
X91565654Y-67341223D01*
X91584704Y-67376862D01*
X91596435Y-67415532D01*
X91601000Y-67461888D01*
X91601000Y-68538112D01*
X91596435Y-68584468D01*
X91584704Y-68623138D01*
X91565654Y-68658777D01*
X91540017Y-68690017D01*
X91508777Y-68715654D01*
X91473138Y-68734704D01*
X91434468Y-68746435D01*
X91388112Y-68751000D01*
X90736888Y-68751000D01*
X90690532Y-68746435D01*
X90651862Y-68734704D01*
X90616223Y-68715654D01*
X90584983Y-68690017D01*
X90559346Y-68658777D01*
X90540296Y-68623138D01*
X90528565Y-68584468D01*
X90524000Y-68538112D01*
X90524000Y-67461888D01*
X90528565Y-67415532D01*
X90540296Y-67376862D01*
X90559346Y-67341223D01*
X90584983Y-67309983D01*
X90616223Y-67284346D01*
X90651862Y-67265296D01*
X90690532Y-67253565D01*
X90736888Y-67249000D01*
X91388112Y-67249000D01*
X91434468Y-67253565D01*
G37*
G36*
X167551000Y-68051000D02*
G01*
X166449000Y-68051000D01*
X166449000Y-65949000D01*
X167551000Y-65949000D01*
X167551000Y-68051000D01*
G37*
G36*
X173551000Y-68051000D02*
G01*
X172449000Y-68051000D01*
X172449000Y-65949000D01*
X173551000Y-65949000D01*
X173551000Y-68051000D01*
G37*
G36*
X171551000Y-68051000D02*
G01*
X170449000Y-68051000D01*
X170449000Y-65949000D01*
X171551000Y-65949000D01*
X171551000Y-68051000D01*
G37*
G36*
X169551000Y-68051000D02*
G01*
X168449000Y-68051000D01*
X168449000Y-65949000D01*
X169551000Y-65949000D01*
X169551000Y-68051000D01*
G37*
G36*
X163551000Y-68051000D02*
G01*
X162449000Y-68051000D01*
X162449000Y-65949000D01*
X163551000Y-65949000D01*
X163551000Y-68051000D01*
G37*
G36*
X165551000Y-68051000D02*
G01*
X164449000Y-68051000D01*
X164449000Y-65949000D01*
X165551000Y-65949000D01*
X165551000Y-68051000D01*
G37*
G36*
X177551000Y-68051000D02*
G01*
X176449000Y-68051000D01*
X176449000Y-65949000D01*
X177551000Y-65949000D01*
X177551000Y-68051000D01*
G37*
G36*
X175551000Y-68051000D02*
G01*
X174449000Y-68051000D01*
X174449000Y-65949000D01*
X175551000Y-65949000D01*
X175551000Y-68051000D01*
G37*
G36*
X158584468Y-66466065D02*
G01*
X158623138Y-66477796D01*
X158658777Y-66496846D01*
X158690017Y-66522483D01*
X158715654Y-66553723D01*
X158734704Y-66589362D01*
X158746435Y-66628032D01*
X158751000Y-66674388D01*
X158751000Y-67325612D01*
X158746435Y-67371968D01*
X158734704Y-67410638D01*
X158715654Y-67446277D01*
X158690017Y-67477517D01*
X158658777Y-67503154D01*
X158623138Y-67522204D01*
X158584468Y-67533935D01*
X158538112Y-67538500D01*
X157461888Y-67538500D01*
X157415532Y-67533935D01*
X157376862Y-67522204D01*
X157341223Y-67503154D01*
X157309983Y-67477517D01*
X157284346Y-67446277D01*
X157265296Y-67410638D01*
X157253565Y-67371968D01*
X157249000Y-67325612D01*
X157249000Y-66674388D01*
X157253565Y-66628032D01*
X157265296Y-66589362D01*
X157284346Y-66553723D01*
X157309983Y-66522483D01*
X157341223Y-66496846D01*
X157376862Y-66477796D01*
X157415532Y-66466065D01*
X157461888Y-66461500D01*
X158538112Y-66461500D01*
X158584468Y-66466065D01*
G37*
G36*
X101005355Y-61800083D02*
G01*
X101010029Y-61801501D01*
X101014330Y-61803800D01*
X101020702Y-61809029D01*
X101041076Y-61822643D01*
X101063715Y-61832020D01*
X101087749Y-61836800D01*
X101112253Y-61836800D01*
X101136286Y-61832019D01*
X101158925Y-61822642D01*
X101179298Y-61809029D01*
X101185670Y-61803800D01*
X101189971Y-61801501D01*
X101194645Y-61800083D01*
X101205641Y-61799000D01*
X101494359Y-61799000D01*
X101505355Y-61800083D01*
X101510029Y-61801501D01*
X101514330Y-61803800D01*
X101520702Y-61809029D01*
X101541076Y-61822643D01*
X101563715Y-61832020D01*
X101587749Y-61836800D01*
X101612253Y-61836800D01*
X101636286Y-61832019D01*
X101658925Y-61822642D01*
X101679298Y-61809029D01*
X101685670Y-61803800D01*
X101689971Y-61801501D01*
X101694645Y-61800083D01*
X101705641Y-61799000D01*
X101994359Y-61799000D01*
X102005355Y-61800083D01*
X102010029Y-61801501D01*
X102014330Y-61803800D01*
X102020702Y-61809029D01*
X102041076Y-61822643D01*
X102063715Y-61832020D01*
X102087749Y-61836800D01*
X102112253Y-61836800D01*
X102136286Y-61832019D01*
X102158925Y-61822642D01*
X102179298Y-61809029D01*
X102185670Y-61803800D01*
X102189971Y-61801501D01*
X102194645Y-61800083D01*
X102205641Y-61799000D01*
X102494359Y-61799000D01*
X102505355Y-61800083D01*
X102510029Y-61801501D01*
X102514330Y-61803800D01*
X102520702Y-61809029D01*
X102541076Y-61822643D01*
X102563715Y-61832020D01*
X102587749Y-61836800D01*
X102612253Y-61836800D01*
X102636286Y-61832019D01*
X102658925Y-61822642D01*
X102679298Y-61809029D01*
X102685670Y-61803800D01*
X102689971Y-61801501D01*
X102694645Y-61800083D01*
X102705641Y-61799000D01*
X102994359Y-61799000D01*
X103005355Y-61800083D01*
X103010029Y-61801501D01*
X103014330Y-61803800D01*
X103020702Y-61809029D01*
X103041076Y-61822643D01*
X103063715Y-61832020D01*
X103087749Y-61836800D01*
X103112253Y-61836800D01*
X103136286Y-61832019D01*
X103158925Y-61822642D01*
X103179298Y-61809029D01*
X103185670Y-61803800D01*
X103189971Y-61801501D01*
X103194645Y-61800083D01*
X103205641Y-61799000D01*
X103494359Y-61799000D01*
X103505355Y-61800083D01*
X103510029Y-61801501D01*
X103514331Y-61803800D01*
X103518104Y-61806896D01*
X103521200Y-61810669D01*
X103523499Y-61814971D01*
X103524917Y-61819645D01*
X103526000Y-61830641D01*
X103526000Y-62649001D01*
X103528402Y-62673387D01*
X103535515Y-62696836D01*
X103547066Y-62718447D01*
X103562611Y-62737389D01*
X103581553Y-62752934D01*
X103603164Y-62764485D01*
X103626613Y-62771598D01*
X103650999Y-62774000D01*
X104469359Y-62774000D01*
X104480355Y-62775083D01*
X104485029Y-62776501D01*
X104489331Y-62778800D01*
X104493104Y-62781896D01*
X104496200Y-62785669D01*
X104498499Y-62789971D01*
X104499917Y-62794645D01*
X104501000Y-62805641D01*
X104501000Y-63094359D01*
X104499917Y-63105355D01*
X104498499Y-63110029D01*
X104496200Y-63114330D01*
X104490971Y-63120702D01*
X104477357Y-63141076D01*
X104467980Y-63163715D01*
X104463200Y-63187749D01*
X104463200Y-63212253D01*
X104467981Y-63236286D01*
X104477358Y-63258925D01*
X104490971Y-63279298D01*
X104496200Y-63285670D01*
X104498499Y-63289971D01*
X104499917Y-63294645D01*
X104501000Y-63305641D01*
X104501000Y-63594359D01*
X104499917Y-63605355D01*
X104498499Y-63610029D01*
X104496200Y-63614330D01*
X104490971Y-63620702D01*
X104477357Y-63641076D01*
X104467980Y-63663715D01*
X104463200Y-63687749D01*
X104463200Y-63712253D01*
X104467981Y-63736286D01*
X104477358Y-63758925D01*
X104490971Y-63779298D01*
X104496200Y-63785670D01*
X104498499Y-63789971D01*
X104499917Y-63794645D01*
X104501000Y-63805641D01*
X104501000Y-64094359D01*
X104499917Y-64105355D01*
X104498499Y-64110029D01*
X104496200Y-64114330D01*
X104490971Y-64120702D01*
X104477357Y-64141076D01*
X104467980Y-64163715D01*
X104463200Y-64187749D01*
X104463200Y-64212253D01*
X104467981Y-64236286D01*
X104477358Y-64258925D01*
X104490971Y-64279298D01*
X104496200Y-64285670D01*
X104498499Y-64289971D01*
X104499917Y-64294645D01*
X104501000Y-64305641D01*
X104501000Y-64594359D01*
X104499917Y-64605355D01*
X104498499Y-64610029D01*
X104496200Y-64614330D01*
X104490971Y-64620702D01*
X104477357Y-64641076D01*
X104467980Y-64663715D01*
X104463200Y-64687749D01*
X104463200Y-64712253D01*
X104467981Y-64736286D01*
X104477358Y-64758925D01*
X104490971Y-64779298D01*
X104496200Y-64785670D01*
X104498499Y-64789971D01*
X104499917Y-64794645D01*
X104501000Y-64805641D01*
X104501000Y-65094359D01*
X104499917Y-65105355D01*
X104498499Y-65110029D01*
X104496200Y-65114330D01*
X104490971Y-65120702D01*
X104477357Y-65141076D01*
X104467980Y-65163715D01*
X104463200Y-65187749D01*
X104463200Y-65212253D01*
X104467981Y-65236286D01*
X104477358Y-65258925D01*
X104490971Y-65279298D01*
X104496200Y-65285670D01*
X104498499Y-65289971D01*
X104499917Y-65294645D01*
X104501000Y-65305641D01*
X104501000Y-65594359D01*
X104499917Y-65605355D01*
X104498499Y-65610029D01*
X104496200Y-65614331D01*
X104493104Y-65618104D01*
X104489331Y-65621200D01*
X104485029Y-65623499D01*
X104480355Y-65624917D01*
X104469359Y-65626000D01*
X103650999Y-65626000D01*
X103626613Y-65628402D01*
X103603164Y-65635515D01*
X103581553Y-65647066D01*
X103562611Y-65662611D01*
X103547066Y-65681553D01*
X103535515Y-65703164D01*
X103528402Y-65726613D01*
X103526000Y-65750999D01*
X103526000Y-66569359D01*
X103524917Y-66580355D01*
X103523499Y-66585029D01*
X103521200Y-66589331D01*
X103518104Y-66593104D01*
X103514331Y-66596200D01*
X103510029Y-66598499D01*
X103505355Y-66599917D01*
X103494359Y-66601000D01*
X103205641Y-66601000D01*
X103194645Y-66599917D01*
X103189971Y-66598499D01*
X103185670Y-66596200D01*
X103179298Y-66590971D01*
X103158924Y-66577357D01*
X103136285Y-66567980D01*
X103112251Y-66563200D01*
X103087747Y-66563200D01*
X103063714Y-66567981D01*
X103041075Y-66577358D01*
X103020702Y-66590971D01*
X103014330Y-66596200D01*
X103010029Y-66598499D01*
X103005355Y-66599917D01*
X102994359Y-66601000D01*
X102705641Y-66601000D01*
X102694645Y-66599917D01*
X102689971Y-66598499D01*
X102685670Y-66596200D01*
X102679298Y-66590971D01*
X102658924Y-66577357D01*
X102636285Y-66567980D01*
X102612251Y-66563200D01*
X102587747Y-66563200D01*
X102563714Y-66567981D01*
X102541075Y-66577358D01*
X102520702Y-66590971D01*
X102514330Y-66596200D01*
X102510029Y-66598499D01*
X102505355Y-66599917D01*
X102494359Y-66601000D01*
X102205641Y-66601000D01*
X102194645Y-66599917D01*
X102189971Y-66598499D01*
X102185670Y-66596200D01*
X102179298Y-66590971D01*
X102158924Y-66577357D01*
X102136285Y-66567980D01*
X102112251Y-66563200D01*
X102087747Y-66563200D01*
X102063714Y-66567981D01*
X102041075Y-66577358D01*
X102020702Y-66590971D01*
X102014330Y-66596200D01*
X102010029Y-66598499D01*
X102005355Y-66599917D01*
X101994359Y-66601000D01*
X101705641Y-66601000D01*
X101694645Y-66599917D01*
X101689971Y-66598499D01*
X101685670Y-66596200D01*
X101679298Y-66590971D01*
X101658924Y-66577357D01*
X101636285Y-66567980D01*
X101612251Y-66563200D01*
X101587747Y-66563200D01*
X101563714Y-66567981D01*
X101541075Y-66577358D01*
X101520702Y-66590971D01*
X101514330Y-66596200D01*
X101510029Y-66598499D01*
X101505355Y-66599917D01*
X101494359Y-66601000D01*
X101205641Y-66601000D01*
X101194645Y-66599917D01*
X101189971Y-66598499D01*
X101185670Y-66596200D01*
X101179298Y-66590971D01*
X101158924Y-66577357D01*
X101136285Y-66567980D01*
X101112251Y-66563200D01*
X101087747Y-66563200D01*
X101063714Y-66567981D01*
X101041075Y-66577358D01*
X101020702Y-66590971D01*
X101014330Y-66596200D01*
X101010029Y-66598499D01*
X101005355Y-66599917D01*
X100994359Y-66601000D01*
X100705641Y-66601000D01*
X100694645Y-66599917D01*
X100689971Y-66598499D01*
X100685669Y-66596200D01*
X100681896Y-66593104D01*
X100678800Y-66589331D01*
X100676501Y-66585029D01*
X100675083Y-66580355D01*
X100674000Y-66569359D01*
X100674000Y-65750999D01*
X100671598Y-65726613D01*
X100664485Y-65703164D01*
X100652934Y-65681553D01*
X100637389Y-65662611D01*
X100618447Y-65647066D01*
X100596836Y-65635515D01*
X100573387Y-65628402D01*
X100549001Y-65626000D01*
X99730641Y-65626000D01*
X99719645Y-65624917D01*
X99714971Y-65623499D01*
X99710669Y-65621200D01*
X99706896Y-65618104D01*
X99703800Y-65614331D01*
X99701501Y-65610029D01*
X99700083Y-65605355D01*
X99699000Y-65594359D01*
X99699000Y-65305641D01*
X99700083Y-65294645D01*
X99701501Y-65289971D01*
X99703800Y-65285670D01*
X99709029Y-65279298D01*
X99722643Y-65258924D01*
X99732020Y-65236285D01*
X99736800Y-65212251D01*
X99736800Y-65187747D01*
X99732019Y-65163714D01*
X99722642Y-65141075D01*
X99709029Y-65120702D01*
X99703800Y-65114330D01*
X99701501Y-65110029D01*
X99700083Y-65105355D01*
X99699000Y-65094359D01*
X99699000Y-64805641D01*
X99700083Y-64794645D01*
X99701501Y-64789971D01*
X99703800Y-64785670D01*
X99709029Y-64779298D01*
X99722643Y-64758924D01*
X99732020Y-64736285D01*
X99736800Y-64712251D01*
X99736800Y-64687747D01*
X99732019Y-64663714D01*
X99722642Y-64641075D01*
X99709029Y-64620702D01*
X99703800Y-64614330D01*
X99701501Y-64610029D01*
X99700083Y-64605355D01*
X99699000Y-64594359D01*
X99699000Y-64305641D01*
X99700083Y-64294645D01*
X99701501Y-64289971D01*
X99703800Y-64285670D01*
X99709029Y-64279298D01*
X99722643Y-64258924D01*
X99732020Y-64236285D01*
X99736800Y-64212251D01*
X99736800Y-64187747D01*
X99732019Y-64163714D01*
X99722642Y-64141075D01*
X99709029Y-64120702D01*
X99703800Y-64114330D01*
X99701501Y-64110029D01*
X99700083Y-64105355D01*
X99699000Y-64094359D01*
X99699000Y-63805641D01*
X99700083Y-63794645D01*
X99701501Y-63789971D01*
X99703800Y-63785670D01*
X99709029Y-63779298D01*
X99722643Y-63758924D01*
X99732020Y-63736285D01*
X99736800Y-63712251D01*
X99736800Y-63687747D01*
X99732019Y-63663714D01*
X99722642Y-63641075D01*
X99709029Y-63620702D01*
X99703800Y-63614330D01*
X99701501Y-63610029D01*
X99700083Y-63605355D01*
X99699000Y-63594359D01*
X99699000Y-63305641D01*
X99700083Y-63294645D01*
X99701501Y-63289971D01*
X99703800Y-63285670D01*
X99709029Y-63279298D01*
X99722643Y-63258924D01*
X99732020Y-63236285D01*
X99736800Y-63212251D01*
X99736800Y-63187747D01*
X99732019Y-63163714D01*
X99722642Y-63141075D01*
X99709029Y-63120702D01*
X99703800Y-63114330D01*
X99701501Y-63110029D01*
X99700083Y-63105355D01*
X99699000Y-63094359D01*
X99699000Y-62805641D01*
X99700083Y-62794645D01*
X99701501Y-62789971D01*
X99703800Y-62785669D01*
X99706896Y-62781896D01*
X99710669Y-62778800D01*
X99714971Y-62776501D01*
X99719645Y-62775083D01*
X99730641Y-62774000D01*
X100549001Y-62774000D01*
X100573387Y-62771598D01*
X100596836Y-62764485D01*
X100618447Y-62752934D01*
X100637389Y-62737389D01*
X100652934Y-62718447D01*
X100664485Y-62696836D01*
X100671598Y-62673387D01*
X100674000Y-62649001D01*
X100674000Y-61830641D01*
X100675083Y-61819645D01*
X100676501Y-61814971D01*
X100678800Y-61810669D01*
X100681896Y-61806896D01*
X100685669Y-61803800D01*
X100689971Y-61801501D01*
X100694645Y-61800083D01*
X100705641Y-61799000D01*
X100994359Y-61799000D01*
X101005355Y-61800083D01*
G37*
G36*
X158584468Y-64591065D02*
G01*
X158623138Y-64602796D01*
X158658777Y-64621846D01*
X158690017Y-64647483D01*
X158715654Y-64678723D01*
X158734704Y-64714362D01*
X158746435Y-64753032D01*
X158751000Y-64799388D01*
X158751000Y-65450612D01*
X158746435Y-65496968D01*
X158734704Y-65535638D01*
X158715654Y-65571277D01*
X158690017Y-65602517D01*
X158658777Y-65628154D01*
X158623138Y-65647204D01*
X158584468Y-65658935D01*
X158538112Y-65663500D01*
X157461888Y-65663500D01*
X157415532Y-65658935D01*
X157376862Y-65647204D01*
X157341223Y-65628154D01*
X157309983Y-65602517D01*
X157284346Y-65571277D01*
X157265296Y-65535638D01*
X157253565Y-65496968D01*
X157249000Y-65450612D01*
X157249000Y-64799388D01*
X157253565Y-64753032D01*
X157265296Y-64714362D01*
X157284346Y-64678723D01*
X157309983Y-64647483D01*
X157341223Y-64621846D01*
X157376862Y-64602796D01*
X157415532Y-64591065D01*
X157461888Y-64586500D01*
X158538112Y-64586500D01*
X158584468Y-64591065D01*
G37*
G36*
X128533642Y-63949781D02*
G01*
X128679414Y-64010162D01*
X128679416Y-64010163D01*
X128810608Y-64097822D01*
X128922178Y-64209392D01*
X129001645Y-64328324D01*
X129009838Y-64340586D01*
X129070219Y-64486358D01*
X129101000Y-64641107D01*
X129101000Y-64798893D01*
X129070219Y-64953642D01*
X129011932Y-65094359D01*
X129009837Y-65099416D01*
X128922178Y-65230608D01*
X128810608Y-65342178D01*
X128679416Y-65429837D01*
X128679415Y-65429838D01*
X128679414Y-65429838D01*
X128533642Y-65490219D01*
X128378893Y-65521000D01*
X128221107Y-65521000D01*
X128066358Y-65490219D01*
X127920586Y-65429838D01*
X127920585Y-65429838D01*
X127920584Y-65429837D01*
X127789392Y-65342178D01*
X127677822Y-65230608D01*
X127590163Y-65099416D01*
X127588068Y-65094359D01*
X127529781Y-64953642D01*
X127499000Y-64798893D01*
X127499000Y-64641107D01*
X127529781Y-64486358D01*
X127590162Y-64340586D01*
X127598355Y-64328324D01*
X127677822Y-64209392D01*
X127789392Y-64097822D01*
X127920584Y-64010163D01*
X127920586Y-64010162D01*
X128066358Y-63949781D01*
X128221107Y-63919000D01*
X128378893Y-63919000D01*
X128533642Y-63949781D01*
G37*
G36*
X93371968Y-63253565D02*
G01*
X93410638Y-63265296D01*
X93446277Y-63284346D01*
X93477517Y-63309983D01*
X93503154Y-63341223D01*
X93522204Y-63376862D01*
X93533935Y-63415532D01*
X93538500Y-63461888D01*
X93538500Y-64538112D01*
X93533935Y-64584468D01*
X93522204Y-64623138D01*
X93503154Y-64658777D01*
X93477517Y-64690017D01*
X93446277Y-64715654D01*
X93410638Y-64734704D01*
X93371968Y-64746435D01*
X93325612Y-64751000D01*
X92674388Y-64751000D01*
X92628032Y-64746435D01*
X92589362Y-64734704D01*
X92553723Y-64715654D01*
X92522483Y-64690017D01*
X92496846Y-64658777D01*
X92477796Y-64623138D01*
X92466065Y-64584468D01*
X92461500Y-64538112D01*
X92461500Y-63461888D01*
X92466065Y-63415532D01*
X92477796Y-63376862D01*
X92496846Y-63341223D01*
X92522483Y-63309983D01*
X92553723Y-63284346D01*
X92589362Y-63265296D01*
X92628032Y-63253565D01*
X92674388Y-63249000D01*
X93325612Y-63249000D01*
X93371968Y-63253565D01*
G37*
G36*
X91496968Y-63253565D02*
G01*
X91535638Y-63265296D01*
X91571277Y-63284346D01*
X91602517Y-63309983D01*
X91628154Y-63341223D01*
X91647204Y-63376862D01*
X91658935Y-63415532D01*
X91663500Y-63461888D01*
X91663500Y-64538112D01*
X91658935Y-64584468D01*
X91647204Y-64623138D01*
X91628154Y-64658777D01*
X91602517Y-64690017D01*
X91571277Y-64715654D01*
X91535638Y-64734704D01*
X91496968Y-64746435D01*
X91450612Y-64751000D01*
X90799388Y-64751000D01*
X90753032Y-64746435D01*
X90714362Y-64734704D01*
X90678723Y-64715654D01*
X90647483Y-64690017D01*
X90621846Y-64658777D01*
X90602796Y-64623138D01*
X90591065Y-64584468D01*
X90586500Y-64538112D01*
X90586500Y-63461888D01*
X90591065Y-63415532D01*
X90602796Y-63376862D01*
X90621846Y-63341223D01*
X90647483Y-63309983D01*
X90678723Y-63284346D01*
X90714362Y-63265296D01*
X90753032Y-63253565D01*
X90799388Y-63249000D01*
X91450612Y-63249000D01*
X91496968Y-63253565D01*
G37*
G36*
X114106564Y-61689389D02*
G01*
X114297833Y-61768615D01*
X114297835Y-61768616D01*
X114401840Y-61838110D01*
X114469973Y-61883635D01*
X114616365Y-62030027D01*
X114731385Y-62202167D01*
X114810611Y-62393436D01*
X114851000Y-62596484D01*
X114851000Y-62803516D01*
X114810611Y-63006564D01*
X114745517Y-63163715D01*
X114731384Y-63197835D01*
X114616365Y-63369973D01*
X114469973Y-63516365D01*
X114297835Y-63631384D01*
X114297834Y-63631385D01*
X114297833Y-63631385D01*
X114106564Y-63710611D01*
X113903516Y-63751000D01*
X113696484Y-63751000D01*
X113493436Y-63710611D01*
X113302167Y-63631385D01*
X113302166Y-63631385D01*
X113302165Y-63631384D01*
X113130027Y-63516365D01*
X112983635Y-63369973D01*
X112868616Y-63197835D01*
X112854483Y-63163715D01*
X112789389Y-63006564D01*
X112749000Y-62803516D01*
X112749000Y-62596484D01*
X112789389Y-62393436D01*
X112868615Y-62202167D01*
X112983635Y-62030027D01*
X113130027Y-61883635D01*
X113198160Y-61838110D01*
X113302165Y-61768616D01*
X113302167Y-61768615D01*
X113493436Y-61689389D01*
X113696484Y-61649000D01*
X113903516Y-61649000D01*
X114106564Y-61689389D01*
G37*
G36*
X128533642Y-61409781D02*
G01*
X128651928Y-61458777D01*
X128679416Y-61470163D01*
X128810608Y-61557822D01*
X128922178Y-61669392D01*
X129009502Y-61800083D01*
X129009838Y-61800586D01*
X129070219Y-61946358D01*
X129101000Y-62101107D01*
X129101000Y-62258893D01*
X129070219Y-62413642D01*
X129009838Y-62559414D01*
X129009837Y-62559416D01*
X128922178Y-62690608D01*
X128810608Y-62802178D01*
X128679416Y-62889837D01*
X128679415Y-62889838D01*
X128679414Y-62889838D01*
X128533642Y-62950219D01*
X128378893Y-62981000D01*
X128221107Y-62981000D01*
X128066358Y-62950219D01*
X127920586Y-62889838D01*
X127920585Y-62889838D01*
X127920584Y-62889837D01*
X127789392Y-62802178D01*
X127677822Y-62690608D01*
X127590163Y-62559416D01*
X127590162Y-62559414D01*
X127529781Y-62413642D01*
X127499000Y-62258893D01*
X127499000Y-62101107D01*
X127529781Y-61946358D01*
X127590162Y-61800586D01*
X127590498Y-61800083D01*
X127677822Y-61669392D01*
X127789392Y-61557822D01*
X127920584Y-61470163D01*
X127948072Y-61458777D01*
X128066358Y-61409781D01*
X128221107Y-61379000D01*
X128378893Y-61379000D01*
X128533642Y-61409781D01*
G37*
G36*
X177434072Y-59240918D02*
G01*
X177579124Y-59301000D01*
X177679939Y-59342759D01*
X177720667Y-59369973D01*
X177901211Y-59490609D01*
X178089391Y-59678789D01*
X178237242Y-59900063D01*
X178339082Y-60145928D01*
X178391000Y-60406937D01*
X178391000Y-60673063D01*
X178339082Y-60934072D01*
X178237242Y-61179937D01*
X178100365Y-61384788D01*
X178089390Y-61401212D01*
X177901212Y-61589390D01*
X177679939Y-61737241D01*
X177679938Y-61737242D01*
X177679937Y-61737242D01*
X177434072Y-61839082D01*
X177173063Y-61891000D01*
X176906937Y-61891000D01*
X176645928Y-61839082D01*
X176400063Y-61737242D01*
X176400062Y-61737242D01*
X176400061Y-61737241D01*
X176178788Y-61589390D01*
X175990610Y-61401212D01*
X175979636Y-61384788D01*
X175842758Y-61179937D01*
X175740918Y-60934072D01*
X175689000Y-60673063D01*
X175689000Y-60406937D01*
X175740918Y-60145928D01*
X175842758Y-59900063D01*
X175990609Y-59678789D01*
X176178789Y-59490609D01*
X176359333Y-59369973D01*
X176400061Y-59342759D01*
X176500877Y-59301000D01*
X176645928Y-59240918D01*
X176906937Y-59189000D01*
X177173063Y-59189000D01*
X177434072Y-59240918D01*
G37*
G36*
X172354072Y-59240918D02*
G01*
X172499124Y-59301000D01*
X172599939Y-59342759D01*
X172640667Y-59369973D01*
X172821211Y-59490609D01*
X173009391Y-59678789D01*
X173157242Y-59900063D01*
X173259082Y-60145928D01*
X173311000Y-60406937D01*
X173311000Y-60673063D01*
X173259082Y-60934072D01*
X173157242Y-61179937D01*
X173020365Y-61384788D01*
X173009390Y-61401212D01*
X172821212Y-61589390D01*
X172599939Y-61737241D01*
X172599938Y-61737242D01*
X172599937Y-61737242D01*
X172354072Y-61839082D01*
X172093063Y-61891000D01*
X171826937Y-61891000D01*
X171565928Y-61839082D01*
X171320063Y-61737242D01*
X171320062Y-61737242D01*
X171320061Y-61737241D01*
X171098788Y-61589390D01*
X170910610Y-61401212D01*
X170899636Y-61384788D01*
X170762758Y-61179937D01*
X170660918Y-60934072D01*
X170609000Y-60673063D01*
X170609000Y-60406937D01*
X170660918Y-60145928D01*
X170762758Y-59900063D01*
X170910609Y-59678789D01*
X171098789Y-59490609D01*
X171279333Y-59369973D01*
X171320061Y-59342759D01*
X171420877Y-59301000D01*
X171565928Y-59240918D01*
X171826937Y-59189000D01*
X172093063Y-59189000D01*
X172354072Y-59240918D01*
G37*
G36*
X106771968Y-60053565D02*
G01*
X106810638Y-60065296D01*
X106846277Y-60084346D01*
X106877517Y-60109983D01*
X106903154Y-60141223D01*
X106922204Y-60176862D01*
X106933935Y-60215532D01*
X106938500Y-60261888D01*
X106938500Y-61338112D01*
X106933935Y-61384468D01*
X106922204Y-61423138D01*
X106903154Y-61458777D01*
X106877517Y-61490017D01*
X106846277Y-61515654D01*
X106810638Y-61534704D01*
X106771968Y-61546435D01*
X106725612Y-61551000D01*
X106074388Y-61551000D01*
X106028032Y-61546435D01*
X105989362Y-61534704D01*
X105953723Y-61515654D01*
X105922483Y-61490017D01*
X105896846Y-61458777D01*
X105877796Y-61423138D01*
X105866065Y-61384468D01*
X105861500Y-61338112D01*
X105861500Y-60261888D01*
X105866065Y-60215532D01*
X105877796Y-60176862D01*
X105896846Y-60141223D01*
X105922483Y-60109983D01*
X105953723Y-60084346D01*
X105989362Y-60065296D01*
X106028032Y-60053565D01*
X106074388Y-60049000D01*
X106725612Y-60049000D01*
X106771968Y-60053565D01*
G37*
G36*
X108646968Y-60053565D02*
G01*
X108685638Y-60065296D01*
X108721277Y-60084346D01*
X108752517Y-60109983D01*
X108778154Y-60141223D01*
X108797204Y-60176862D01*
X108808935Y-60215532D01*
X108813500Y-60261888D01*
X108813500Y-61338112D01*
X108808935Y-61384468D01*
X108797204Y-61423138D01*
X108778154Y-61458777D01*
X108752517Y-61490017D01*
X108721277Y-61515654D01*
X108685638Y-61534704D01*
X108646968Y-61546435D01*
X108600612Y-61551000D01*
X107949388Y-61551000D01*
X107903032Y-61546435D01*
X107864362Y-61534704D01*
X107828723Y-61515654D01*
X107797483Y-61490017D01*
X107771846Y-61458777D01*
X107752796Y-61423138D01*
X107741065Y-61384468D01*
X107736500Y-61338112D01*
X107736500Y-60261888D01*
X107741065Y-60215532D01*
X107752796Y-60176862D01*
X107771846Y-60141223D01*
X107797483Y-60109983D01*
X107828723Y-60084346D01*
X107864362Y-60065296D01*
X107903032Y-60053565D01*
X107949388Y-60049000D01*
X108600612Y-60049000D01*
X108646968Y-60053565D01*
G37*
G36*
X128533642Y-58869781D02*
G01*
X128679414Y-58930162D01*
X128679416Y-58930163D01*
X128810608Y-59017822D01*
X128922178Y-59129392D01*
X129003435Y-59251003D01*
X129009838Y-59260586D01*
X129070219Y-59406358D01*
X129101000Y-59561107D01*
X129101000Y-59718893D01*
X129070219Y-59873642D01*
X129059275Y-59900063D01*
X129009837Y-60019416D01*
X128922178Y-60150608D01*
X128810608Y-60262178D01*
X128679416Y-60349837D01*
X128679415Y-60349838D01*
X128679414Y-60349838D01*
X128533642Y-60410219D01*
X128378893Y-60441000D01*
X128221107Y-60441000D01*
X128066358Y-60410219D01*
X127920586Y-60349838D01*
X127920585Y-60349838D01*
X127920584Y-60349837D01*
X127789392Y-60262178D01*
X127677822Y-60150608D01*
X127590163Y-60019416D01*
X127540725Y-59900063D01*
X127529781Y-59873642D01*
X127499000Y-59718893D01*
X127499000Y-59561107D01*
X127529781Y-59406358D01*
X127590162Y-59260586D01*
X127596565Y-59251003D01*
X127677822Y-59129392D01*
X127789392Y-59017822D01*
X127920584Y-58930163D01*
X127920586Y-58930162D01*
X128066358Y-58869781D01*
X128221107Y-58839000D01*
X128378893Y-58839000D01*
X128533642Y-58869781D01*
G37*
G36*
X93371968Y-58603565D02*
G01*
X93410638Y-58615296D01*
X93446277Y-58634346D01*
X93477517Y-58659983D01*
X93503154Y-58691223D01*
X93522204Y-58726862D01*
X93533935Y-58765532D01*
X93538500Y-58811888D01*
X93538500Y-59888112D01*
X93533935Y-59934468D01*
X93522204Y-59973138D01*
X93503154Y-60008777D01*
X93477517Y-60040017D01*
X93446277Y-60065654D01*
X93410638Y-60084704D01*
X93371968Y-60096435D01*
X93325612Y-60101000D01*
X92674388Y-60101000D01*
X92628032Y-60096435D01*
X92589362Y-60084704D01*
X92553723Y-60065654D01*
X92522483Y-60040017D01*
X92496846Y-60008777D01*
X92477796Y-59973138D01*
X92466065Y-59934468D01*
X92461500Y-59888112D01*
X92461500Y-58811888D01*
X92466065Y-58765532D01*
X92477796Y-58726862D01*
X92496846Y-58691223D01*
X92522483Y-58659983D01*
X92553723Y-58634346D01*
X92589362Y-58615296D01*
X92628032Y-58603565D01*
X92674388Y-58599000D01*
X93325612Y-58599000D01*
X93371968Y-58603565D01*
G37*
G36*
X91496968Y-58603565D02*
G01*
X91535638Y-58615296D01*
X91571277Y-58634346D01*
X91602517Y-58659983D01*
X91628154Y-58691223D01*
X91647204Y-58726862D01*
X91658935Y-58765532D01*
X91663500Y-58811888D01*
X91663500Y-59888112D01*
X91658935Y-59934468D01*
X91647204Y-59973138D01*
X91628154Y-60008777D01*
X91602517Y-60040017D01*
X91571277Y-60065654D01*
X91535638Y-60084704D01*
X91496968Y-60096435D01*
X91450612Y-60101000D01*
X90799388Y-60101000D01*
X90753032Y-60096435D01*
X90714362Y-60084704D01*
X90678723Y-60065654D01*
X90647483Y-60040017D01*
X90621846Y-60008777D01*
X90602796Y-59973138D01*
X90591065Y-59934468D01*
X90586500Y-59888112D01*
X90586500Y-58811888D01*
X90591065Y-58765532D01*
X90602796Y-58726862D01*
X90621846Y-58691223D01*
X90647483Y-58659983D01*
X90678723Y-58634346D01*
X90714362Y-58615296D01*
X90753032Y-58603565D01*
X90799388Y-58599000D01*
X91450612Y-58599000D01*
X91496968Y-58603565D01*
G37*
G36*
X114106564Y-57689389D02*
G01*
X114297833Y-57768615D01*
X114297835Y-57768616D01*
X114469973Y-57883635D01*
X114616365Y-58030027D01*
X114697197Y-58151000D01*
X114731385Y-58202167D01*
X114810611Y-58393436D01*
X114851000Y-58596484D01*
X114851000Y-58803516D01*
X114810611Y-59006564D01*
X114735044Y-59189000D01*
X114731384Y-59197835D01*
X114616365Y-59369973D01*
X114469973Y-59516365D01*
X114297835Y-59631384D01*
X114297834Y-59631385D01*
X114297833Y-59631385D01*
X114106564Y-59710611D01*
X113903516Y-59751000D01*
X113696484Y-59751000D01*
X113493436Y-59710611D01*
X113302167Y-59631385D01*
X113302166Y-59631385D01*
X113302165Y-59631384D01*
X113130027Y-59516365D01*
X112983635Y-59369973D01*
X112868616Y-59197835D01*
X112864956Y-59189000D01*
X112789389Y-59006564D01*
X112749000Y-58803516D01*
X112749000Y-58596484D01*
X112789389Y-58393436D01*
X112868615Y-58202167D01*
X112902804Y-58151000D01*
X112983635Y-58030027D01*
X113130027Y-57883635D01*
X113302165Y-57768616D01*
X113302167Y-57768615D01*
X113493436Y-57689389D01*
X113696484Y-57649000D01*
X113903516Y-57649000D01*
X114106564Y-57689389D01*
G37*
G36*
X174879487Y-56748996D02*
G01*
X175029177Y-56811000D01*
X175116255Y-56847069D01*
X175329339Y-56989447D01*
X175510553Y-57170661D01*
X175642854Y-57368663D01*
X175652932Y-57383747D01*
X175751004Y-57620513D01*
X175801000Y-57871861D01*
X175801000Y-58128139D01*
X175751004Y-58379487D01*
X175657935Y-58604174D01*
X175652931Y-58616255D01*
X175510553Y-58829339D01*
X175329339Y-59010553D01*
X175116255Y-59152931D01*
X175116254Y-59152932D01*
X175116253Y-59152932D01*
X174879487Y-59251004D01*
X174628139Y-59301000D01*
X174371861Y-59301000D01*
X174120513Y-59251004D01*
X173883747Y-59152932D01*
X173883746Y-59152932D01*
X173883745Y-59152931D01*
X173670661Y-59010553D01*
X173489447Y-58829339D01*
X173347069Y-58616255D01*
X173342065Y-58604174D01*
X173248996Y-58379487D01*
X173199000Y-58128139D01*
X173199000Y-57871861D01*
X173248996Y-57620513D01*
X173347068Y-57383747D01*
X173357147Y-57368663D01*
X173489447Y-57170661D01*
X173670661Y-56989447D01*
X173883745Y-56847069D01*
X173970823Y-56811000D01*
X174120513Y-56748996D01*
X174371861Y-56699000D01*
X174628139Y-56699000D01*
X174879487Y-56748996D01*
G37*
G36*
X106771968Y-57253565D02*
G01*
X106810638Y-57265296D01*
X106846277Y-57284346D01*
X106877517Y-57309983D01*
X106903154Y-57341223D01*
X106922204Y-57376862D01*
X106933935Y-57415532D01*
X106938500Y-57461888D01*
X106938500Y-58538112D01*
X106933935Y-58584468D01*
X106922204Y-58623138D01*
X106903154Y-58658777D01*
X106877517Y-58690017D01*
X106846277Y-58715654D01*
X106810638Y-58734704D01*
X106771968Y-58746435D01*
X106725612Y-58751000D01*
X106074388Y-58751000D01*
X106028032Y-58746435D01*
X105989362Y-58734704D01*
X105953723Y-58715654D01*
X105922483Y-58690017D01*
X105896846Y-58658777D01*
X105877796Y-58623138D01*
X105866065Y-58584468D01*
X105861500Y-58538112D01*
X105861500Y-57461888D01*
X105866065Y-57415532D01*
X105877796Y-57376862D01*
X105896846Y-57341223D01*
X105922483Y-57309983D01*
X105953723Y-57284346D01*
X105989362Y-57265296D01*
X106028032Y-57253565D01*
X106074388Y-57249000D01*
X106725612Y-57249000D01*
X106771968Y-57253565D01*
G37*
G36*
X108646968Y-57253565D02*
G01*
X108685638Y-57265296D01*
X108721277Y-57284346D01*
X108752517Y-57309983D01*
X108778154Y-57341223D01*
X108797204Y-57376862D01*
X108808935Y-57415532D01*
X108813500Y-57461888D01*
X108813500Y-58538112D01*
X108808935Y-58584468D01*
X108797204Y-58623138D01*
X108778154Y-58658777D01*
X108752517Y-58690017D01*
X108721277Y-58715654D01*
X108685638Y-58734704D01*
X108646968Y-58746435D01*
X108600612Y-58751000D01*
X107949388Y-58751000D01*
X107903032Y-58746435D01*
X107864362Y-58734704D01*
X107828723Y-58715654D01*
X107797483Y-58690017D01*
X107771846Y-58658777D01*
X107752796Y-58623138D01*
X107741065Y-58584468D01*
X107736500Y-58538112D01*
X107736500Y-57461888D01*
X107741065Y-57415532D01*
X107752796Y-57376862D01*
X107771846Y-57341223D01*
X107797483Y-57309983D01*
X107828723Y-57284346D01*
X107864362Y-57265296D01*
X107903032Y-57253565D01*
X107949388Y-57249000D01*
X108600612Y-57249000D01*
X108646968Y-57253565D01*
G37*
G36*
X99584468Y-57191065D02*
G01*
X99623138Y-57202796D01*
X99658777Y-57221846D01*
X99690017Y-57247483D01*
X99715654Y-57278723D01*
X99734704Y-57314362D01*
X99746435Y-57353032D01*
X99751000Y-57399388D01*
X99751000Y-58050612D01*
X99746435Y-58096968D01*
X99734704Y-58135638D01*
X99715654Y-58171277D01*
X99690017Y-58202517D01*
X99658777Y-58228154D01*
X99623138Y-58247204D01*
X99584468Y-58258935D01*
X99538112Y-58263500D01*
X98461888Y-58263500D01*
X98415532Y-58258935D01*
X98376862Y-58247204D01*
X98341223Y-58228154D01*
X98309983Y-58202517D01*
X98284346Y-58171277D01*
X98265296Y-58135638D01*
X98253565Y-58096968D01*
X98249000Y-58050612D01*
X98249000Y-57399388D01*
X98253565Y-57353032D01*
X98265296Y-57314362D01*
X98284346Y-57278723D01*
X98309983Y-57247483D01*
X98341223Y-57221846D01*
X98376862Y-57202796D01*
X98415532Y-57191065D01*
X98461888Y-57186500D01*
X99538112Y-57186500D01*
X99584468Y-57191065D01*
G37*
G36*
X84151000Y-58151000D02*
G01*
X81849000Y-58151000D01*
X81849000Y-55849000D01*
X84151000Y-55849000D01*
X84151000Y-58151000D01*
G37*
G36*
X129101000Y-57901000D02*
G01*
X127499000Y-57901000D01*
X127499000Y-56299000D01*
X129101000Y-56299000D01*
X129101000Y-57901000D01*
G37*
G36*
X177434072Y-54160918D02*
G01*
X177679939Y-54262759D01*
X177791328Y-54337187D01*
X177901211Y-54410609D01*
X178089391Y-54598789D01*
X178237242Y-54820063D01*
X178339082Y-55065928D01*
X178388959Y-55316674D01*
X178391000Y-55326938D01*
X178391000Y-55593062D01*
X178339082Y-55854072D01*
X178237241Y-56099939D01*
X178089390Y-56321212D01*
X177901212Y-56509390D01*
X177679939Y-56657241D01*
X177679938Y-56657242D01*
X177679937Y-56657242D01*
X177434072Y-56759082D01*
X177173063Y-56811000D01*
X176906937Y-56811000D01*
X176645928Y-56759082D01*
X176400063Y-56657242D01*
X176400062Y-56657242D01*
X176400061Y-56657241D01*
X176178788Y-56509390D01*
X175990610Y-56321212D01*
X175842759Y-56099939D01*
X175740918Y-55854072D01*
X175689000Y-55593062D01*
X175689000Y-55326938D01*
X175691042Y-55316674D01*
X175740918Y-55065928D01*
X175842758Y-54820063D01*
X175990609Y-54598789D01*
X176178789Y-54410609D01*
X176288672Y-54337187D01*
X176400061Y-54262759D01*
X176645928Y-54160918D01*
X176906937Y-54109000D01*
X177173063Y-54109000D01*
X177434072Y-54160918D01*
G37*
G36*
X172354072Y-54160918D02*
G01*
X172599939Y-54262759D01*
X172711328Y-54337187D01*
X172821211Y-54410609D01*
X173009391Y-54598789D01*
X173157242Y-54820063D01*
X173259082Y-55065928D01*
X173308959Y-55316674D01*
X173311000Y-55326938D01*
X173311000Y-55593062D01*
X173259082Y-55854072D01*
X173157241Y-56099939D01*
X173009390Y-56321212D01*
X172821212Y-56509390D01*
X172599939Y-56657241D01*
X172599938Y-56657242D01*
X172599937Y-56657242D01*
X172354072Y-56759082D01*
X172093063Y-56811000D01*
X171826937Y-56811000D01*
X171565928Y-56759082D01*
X171320063Y-56657242D01*
X171320062Y-56657242D01*
X171320061Y-56657241D01*
X171098788Y-56509390D01*
X170910610Y-56321212D01*
X170762759Y-56099939D01*
X170660918Y-55854072D01*
X170609000Y-55593062D01*
X170609000Y-55326938D01*
X170611042Y-55316674D01*
X170660918Y-55065928D01*
X170762758Y-54820063D01*
X170910609Y-54598789D01*
X171098789Y-54410609D01*
X171208672Y-54337187D01*
X171320061Y-54262759D01*
X171565928Y-54160918D01*
X171826937Y-54109000D01*
X172093063Y-54109000D01*
X172354072Y-54160918D01*
G37*
G36*
X99584468Y-55316065D02*
G01*
X99623138Y-55327796D01*
X99658777Y-55346846D01*
X99690017Y-55372483D01*
X99715654Y-55403723D01*
X99734704Y-55439362D01*
X99746435Y-55478032D01*
X99751000Y-55524388D01*
X99751000Y-56175612D01*
X99746435Y-56221968D01*
X99734704Y-56260638D01*
X99715654Y-56296277D01*
X99690017Y-56327517D01*
X99658777Y-56353154D01*
X99623138Y-56372204D01*
X99584468Y-56383935D01*
X99538112Y-56388500D01*
X98461888Y-56388500D01*
X98415532Y-56383935D01*
X98376862Y-56372204D01*
X98341223Y-56353154D01*
X98309983Y-56327517D01*
X98284346Y-56296277D01*
X98265296Y-56260638D01*
X98253565Y-56221968D01*
X98249000Y-56175612D01*
X98249000Y-55524388D01*
X98253565Y-55478032D01*
X98265296Y-55439362D01*
X98284346Y-55403723D01*
X98309983Y-55372483D01*
X98341223Y-55346846D01*
X98376862Y-55327796D01*
X98415532Y-55316065D01*
X98461888Y-55311500D01*
X99538112Y-55311500D01*
X99584468Y-55316065D01*
G37*
G36*
X108646968Y-53753565D02*
G01*
X108685638Y-53765296D01*
X108721277Y-53784346D01*
X108752517Y-53809983D01*
X108778154Y-53841223D01*
X108797204Y-53876862D01*
X108808935Y-53915532D01*
X108813500Y-53961888D01*
X108813500Y-55038112D01*
X108808935Y-55084468D01*
X108797204Y-55123138D01*
X108778154Y-55158777D01*
X108752517Y-55190017D01*
X108721277Y-55215654D01*
X108685638Y-55234704D01*
X108646968Y-55246435D01*
X108600612Y-55251000D01*
X107949388Y-55251000D01*
X107903032Y-55246435D01*
X107864362Y-55234704D01*
X107828723Y-55215654D01*
X107797483Y-55190017D01*
X107771846Y-55158777D01*
X107752796Y-55123138D01*
X107741065Y-55084468D01*
X107736500Y-55038112D01*
X107736500Y-53961888D01*
X107741065Y-53915532D01*
X107752796Y-53876862D01*
X107771846Y-53841223D01*
X107797483Y-53809983D01*
X107828723Y-53784346D01*
X107864362Y-53765296D01*
X107903032Y-53753565D01*
X107949388Y-53749000D01*
X108600612Y-53749000D01*
X108646968Y-53753565D01*
G37*
G36*
X106771968Y-53753565D02*
G01*
X106810638Y-53765296D01*
X106846277Y-53784346D01*
X106877517Y-53809983D01*
X106903154Y-53841223D01*
X106922204Y-53876862D01*
X106933935Y-53915532D01*
X106938500Y-53961888D01*
X106938500Y-55038112D01*
X106933935Y-55084468D01*
X106922204Y-55123138D01*
X106903154Y-55158777D01*
X106877517Y-55190017D01*
X106846277Y-55215654D01*
X106810638Y-55234704D01*
X106771968Y-55246435D01*
X106725612Y-55251000D01*
X106074388Y-55251000D01*
X106028032Y-55246435D01*
X105989362Y-55234704D01*
X105953723Y-55215654D01*
X105922483Y-55190017D01*
X105896846Y-55158777D01*
X105877796Y-55123138D01*
X105866065Y-55084468D01*
X105861500Y-55038112D01*
X105861500Y-53961888D01*
X105866065Y-53915532D01*
X105877796Y-53876862D01*
X105896846Y-53841223D01*
X105922483Y-53809983D01*
X105953723Y-53784346D01*
X105989362Y-53765296D01*
X106028032Y-53753565D01*
X106074388Y-53749000D01*
X106725612Y-53749000D01*
X106771968Y-53753565D01*
G37*
G36*
X122609468Y-53453565D02*
G01*
X122648138Y-53465296D01*
X122683777Y-53484346D01*
X122715017Y-53509983D01*
X122740654Y-53541223D01*
X122759704Y-53576862D01*
X122771435Y-53615532D01*
X122776000Y-53661888D01*
X122776000Y-54738112D01*
X122771435Y-54784468D01*
X122759704Y-54823138D01*
X122740654Y-54858777D01*
X122715017Y-54890017D01*
X122683777Y-54915654D01*
X122648138Y-54934704D01*
X122609468Y-54946435D01*
X122563112Y-54951000D01*
X121911888Y-54951000D01*
X121865532Y-54946435D01*
X121826862Y-54934704D01*
X121791223Y-54915654D01*
X121759983Y-54890017D01*
X121734346Y-54858777D01*
X121715296Y-54823138D01*
X121703565Y-54784468D01*
X121699000Y-54738112D01*
X121699000Y-53661888D01*
X121703565Y-53615532D01*
X121715296Y-53576862D01*
X121734346Y-53541223D01*
X121759983Y-53509983D01*
X121791223Y-53484346D01*
X121826862Y-53465296D01*
X121865532Y-53453565D01*
X121911888Y-53449000D01*
X122563112Y-53449000D01*
X122609468Y-53453565D01*
G37*
G36*
X120734468Y-53453565D02*
G01*
X120773138Y-53465296D01*
X120808777Y-53484346D01*
X120840017Y-53509983D01*
X120865654Y-53541223D01*
X120884704Y-53576862D01*
X120896435Y-53615532D01*
X120901000Y-53661888D01*
X120901000Y-54738112D01*
X120896435Y-54784468D01*
X120884704Y-54823138D01*
X120865654Y-54858777D01*
X120840017Y-54890017D01*
X120808777Y-54915654D01*
X120773138Y-54934704D01*
X120734468Y-54946435D01*
X120688112Y-54951000D01*
X120036888Y-54951000D01*
X119990532Y-54946435D01*
X119951862Y-54934704D01*
X119916223Y-54915654D01*
X119884983Y-54890017D01*
X119859346Y-54858777D01*
X119840296Y-54823138D01*
X119828565Y-54784468D01*
X119824000Y-54738112D01*
X119824000Y-53661888D01*
X119828565Y-53615532D01*
X119840296Y-53576862D01*
X119859346Y-53541223D01*
X119884983Y-53509983D01*
X119916223Y-53484346D01*
X119951862Y-53465296D01*
X119990532Y-53453565D01*
X120036888Y-53449000D01*
X120688112Y-53449000D01*
X120734468Y-53453565D01*
G37*
G36*
X93501000Y-52401000D02*
G01*
X92499000Y-52401000D01*
X92499000Y-51499000D01*
X93501000Y-51499000D01*
X93501000Y-52401000D01*
G37*
G36*
X88584468Y-50466065D02*
G01*
X88623138Y-50477796D01*
X88658777Y-50496846D01*
X88690017Y-50522483D01*
X88715654Y-50553723D01*
X88734704Y-50589362D01*
X88746435Y-50628032D01*
X88751000Y-50674388D01*
X88751000Y-51325612D01*
X88746435Y-51371968D01*
X88734704Y-51410638D01*
X88715654Y-51446277D01*
X88690017Y-51477517D01*
X88658777Y-51503154D01*
X88623138Y-51522204D01*
X88584468Y-51533935D01*
X88538112Y-51538500D01*
X87461888Y-51538500D01*
X87415532Y-51533935D01*
X87376862Y-51522204D01*
X87341223Y-51503154D01*
X87309983Y-51477517D01*
X87284346Y-51446277D01*
X87265296Y-51410638D01*
X87253565Y-51371968D01*
X87249000Y-51325612D01*
X87249000Y-50674388D01*
X87253565Y-50628032D01*
X87265296Y-50589362D01*
X87284346Y-50553723D01*
X87309983Y-50522483D01*
X87341223Y-50496846D01*
X87376862Y-50477796D01*
X87415532Y-50466065D01*
X87461888Y-50461500D01*
X88538112Y-50461500D01*
X88584468Y-50466065D01*
G37*
G36*
X122609468Y-49953565D02*
G01*
X122648138Y-49965296D01*
X122683777Y-49984346D01*
X122715017Y-50009983D01*
X122740654Y-50041223D01*
X122759704Y-50076862D01*
X122771435Y-50115532D01*
X122776000Y-50161888D01*
X122776000Y-51238112D01*
X122771435Y-51284468D01*
X122759704Y-51323138D01*
X122740654Y-51358777D01*
X122715017Y-51390017D01*
X122683777Y-51415654D01*
X122648138Y-51434704D01*
X122609468Y-51446435D01*
X122563112Y-51451000D01*
X121911888Y-51451000D01*
X121865532Y-51446435D01*
X121826862Y-51434704D01*
X121791223Y-51415654D01*
X121759983Y-51390017D01*
X121734346Y-51358777D01*
X121715296Y-51323138D01*
X121703565Y-51284468D01*
X121699000Y-51238112D01*
X121699000Y-50161888D01*
X121703565Y-50115532D01*
X121715296Y-50076862D01*
X121734346Y-50041223D01*
X121759983Y-50009983D01*
X121791223Y-49984346D01*
X121826862Y-49965296D01*
X121865532Y-49953565D01*
X121911888Y-49949000D01*
X122563112Y-49949000D01*
X122609468Y-49953565D01*
G37*
G36*
X120734468Y-49953565D02*
G01*
X120773138Y-49965296D01*
X120808777Y-49984346D01*
X120840017Y-50009983D01*
X120865654Y-50041223D01*
X120884704Y-50076862D01*
X120896435Y-50115532D01*
X120901000Y-50161888D01*
X120901000Y-51238112D01*
X120896435Y-51284468D01*
X120884704Y-51323138D01*
X120865654Y-51358777D01*
X120840017Y-51390017D01*
X120808777Y-51415654D01*
X120773138Y-51434704D01*
X120734468Y-51446435D01*
X120688112Y-51451000D01*
X120036888Y-51451000D01*
X119990532Y-51446435D01*
X119951862Y-51434704D01*
X119916223Y-51415654D01*
X119884983Y-51390017D01*
X119859346Y-51358777D01*
X119840296Y-51323138D01*
X119828565Y-51284468D01*
X119824000Y-51238112D01*
X119824000Y-50161888D01*
X119828565Y-50115532D01*
X119840296Y-50076862D01*
X119859346Y-50041223D01*
X119884983Y-50009983D01*
X119916223Y-49984346D01*
X119951862Y-49965296D01*
X119990532Y-49953565D01*
X120036888Y-49949000D01*
X120688112Y-49949000D01*
X120734468Y-49953565D01*
G37*
G36*
X95501000Y-51451000D02*
G01*
X94499000Y-51451000D01*
X94499000Y-50549000D01*
X95501000Y-50549000D01*
X95501000Y-51451000D01*
G37*
G36*
X93501000Y-50501000D02*
G01*
X92499000Y-50501000D01*
X92499000Y-49599000D01*
X93501000Y-49599000D01*
X93501000Y-50501000D01*
G37*
G36*
X105501000Y-50401000D02*
G01*
X104499000Y-50401000D01*
X104499000Y-49499000D01*
X105501000Y-49499000D01*
X105501000Y-50401000D01*
G37*
G36*
X102151000Y-50151000D02*
G01*
X99849000Y-50151000D01*
X99849000Y-47849000D01*
X102151000Y-47849000D01*
X102151000Y-50151000D01*
G37*
G36*
X88584468Y-48591065D02*
G01*
X88623138Y-48602796D01*
X88658777Y-48621846D01*
X88690017Y-48647483D01*
X88715654Y-48678723D01*
X88734704Y-48714362D01*
X88746435Y-48753032D01*
X88751000Y-48799388D01*
X88751000Y-49450612D01*
X88746435Y-49496968D01*
X88734704Y-49535638D01*
X88715654Y-49571277D01*
X88690017Y-49602517D01*
X88658777Y-49628154D01*
X88623138Y-49647204D01*
X88584468Y-49658935D01*
X88538112Y-49663500D01*
X87461888Y-49663500D01*
X87415532Y-49658935D01*
X87376862Y-49647204D01*
X87341223Y-49628154D01*
X87309983Y-49602517D01*
X87284346Y-49571277D01*
X87265296Y-49535638D01*
X87253565Y-49496968D01*
X87249000Y-49450612D01*
X87249000Y-48799388D01*
X87253565Y-48753032D01*
X87265296Y-48714362D01*
X87284346Y-48678723D01*
X87309983Y-48647483D01*
X87341223Y-48621846D01*
X87376862Y-48602796D01*
X87415532Y-48591065D01*
X87461888Y-48586500D01*
X88538112Y-48586500D01*
X88584468Y-48591065D01*
G37*
G36*
X107501000Y-49451000D02*
G01*
X106499000Y-49451000D01*
X106499000Y-48549000D01*
X107501000Y-48549000D01*
X107501000Y-49451000D01*
G37*
G36*
X105501000Y-48501000D02*
G01*
X104499000Y-48501000D01*
X104499000Y-47599000D01*
X105501000Y-47599000D01*
X105501000Y-48501000D01*
G37*
G36*
X83224549Y-45711116D02*
G01*
X83335734Y-45733232D01*
X83545203Y-45819997D01*
X83733720Y-45945960D01*
X83894040Y-46106280D01*
X84020003Y-46294797D01*
X84106768Y-46504266D01*
X84151000Y-46726636D01*
X84151000Y-46953364D01*
X84106768Y-47175734D01*
X84020003Y-47385203D01*
X83894040Y-47573720D01*
X83733720Y-47734040D01*
X83545203Y-47860003D01*
X83335734Y-47946768D01*
X83224549Y-47968884D01*
X83113365Y-47991000D01*
X82886635Y-47991000D01*
X82775451Y-47968884D01*
X82664266Y-47946768D01*
X82454797Y-47860003D01*
X82266280Y-47734040D01*
X82105960Y-47573720D01*
X81979997Y-47385203D01*
X81893232Y-47175734D01*
X81849000Y-46953364D01*
X81849000Y-46726636D01*
X81893232Y-46504266D01*
X81979997Y-46294797D01*
X82105960Y-46106280D01*
X82266280Y-45945960D01*
X82454797Y-45819997D01*
X82664266Y-45733232D01*
X82775451Y-45711116D01*
X82886635Y-45689000D01*
X83113365Y-45689000D01*
X83224549Y-45711116D01*
G37*
G36*
X120696968Y-46353565D02*
G01*
X120735638Y-46365296D01*
X120771277Y-46384346D01*
X120802517Y-46409983D01*
X120828154Y-46441223D01*
X120847204Y-46476862D01*
X120858935Y-46515532D01*
X120863500Y-46561888D01*
X120863500Y-47638112D01*
X120858935Y-47684468D01*
X120847204Y-47723138D01*
X120828154Y-47758777D01*
X120802517Y-47790017D01*
X120771277Y-47815654D01*
X120735638Y-47834704D01*
X120696968Y-47846435D01*
X120650612Y-47851000D01*
X119999388Y-47851000D01*
X119953032Y-47846435D01*
X119914362Y-47834704D01*
X119878723Y-47815654D01*
X119847483Y-47790017D01*
X119821846Y-47758777D01*
X119802796Y-47723138D01*
X119791065Y-47684468D01*
X119786500Y-47638112D01*
X119786500Y-46561888D01*
X119791065Y-46515532D01*
X119802796Y-46476862D01*
X119821846Y-46441223D01*
X119847483Y-46409983D01*
X119878723Y-46384346D01*
X119914362Y-46365296D01*
X119953032Y-46353565D01*
X119999388Y-46349000D01*
X120650612Y-46349000D01*
X120696968Y-46353565D01*
G37*
G36*
X122571968Y-46353565D02*
G01*
X122610638Y-46365296D01*
X122646277Y-46384346D01*
X122677517Y-46409983D01*
X122703154Y-46441223D01*
X122722204Y-46476862D01*
X122733935Y-46515532D01*
X122738500Y-46561888D01*
X122738500Y-47638112D01*
X122733935Y-47684468D01*
X122722204Y-47723138D01*
X122703154Y-47758777D01*
X122677517Y-47790017D01*
X122646277Y-47815654D01*
X122610638Y-47834704D01*
X122571968Y-47846435D01*
X122525612Y-47851000D01*
X121874388Y-47851000D01*
X121828032Y-47846435D01*
X121789362Y-47834704D01*
X121753723Y-47815654D01*
X121722483Y-47790017D01*
X121696846Y-47758777D01*
X121677796Y-47723138D01*
X121666065Y-47684468D01*
X121661500Y-47638112D01*
X121661500Y-46561888D01*
X121666065Y-46515532D01*
X121677796Y-46476862D01*
X121696846Y-46441223D01*
X121722483Y-46409983D01*
X121753723Y-46384346D01*
X121789362Y-46365296D01*
X121828032Y-46353565D01*
X121874388Y-46349000D01*
X122525612Y-46349000D01*
X122571968Y-46353565D01*
G37*
G36*
X105584468Y-43466065D02*
G01*
X105623138Y-43477796D01*
X105658777Y-43496846D01*
X105690017Y-43522483D01*
X105715654Y-43553723D01*
X105734704Y-43589362D01*
X105746435Y-43628032D01*
X105751000Y-43674388D01*
X105751000Y-44325612D01*
X105746435Y-44371968D01*
X105734704Y-44410638D01*
X105715654Y-44446277D01*
X105690017Y-44477517D01*
X105658777Y-44503154D01*
X105623138Y-44522204D01*
X105584468Y-44533935D01*
X105538112Y-44538500D01*
X104461888Y-44538500D01*
X104415532Y-44533935D01*
X104376862Y-44522204D01*
X104341223Y-44503154D01*
X104309983Y-44477517D01*
X104284346Y-44446277D01*
X104265296Y-44410638D01*
X104253565Y-44371968D01*
X104249000Y-44325612D01*
X104249000Y-43674388D01*
X104253565Y-43628032D01*
X104265296Y-43589362D01*
X104284346Y-43553723D01*
X104309983Y-43522483D01*
X104341223Y-43496846D01*
X104376862Y-43477796D01*
X104415532Y-43466065D01*
X104461888Y-43461500D01*
X105538112Y-43461500D01*
X105584468Y-43466065D01*
G37*
G36*
X135853512Y-41353927D02*
G01*
X136002812Y-41383624D01*
X136166784Y-41451544D01*
X136314354Y-41550147D01*
X136439853Y-41675646D01*
X136538456Y-41823216D01*
X136606376Y-41987188D01*
X136641000Y-42161259D01*
X136641000Y-42338741D01*
X136606376Y-42512812D01*
X136538456Y-42676784D01*
X136439853Y-42824354D01*
X136314354Y-42949853D01*
X136166784Y-43048456D01*
X136002812Y-43116376D01*
X135853512Y-43146073D01*
X135828742Y-43151000D01*
X135651258Y-43151000D01*
X135626488Y-43146073D01*
X135477188Y-43116376D01*
X135313216Y-43048456D01*
X135165646Y-42949853D01*
X135040147Y-42824354D01*
X134941544Y-42676784D01*
X134873624Y-42512812D01*
X134839000Y-42338741D01*
X134839000Y-42161259D01*
X134873624Y-41987188D01*
X134941544Y-41823216D01*
X135040147Y-41675646D01*
X135165646Y-41550147D01*
X135313216Y-41451544D01*
X135477188Y-41383624D01*
X135626488Y-41353927D01*
X135651258Y-41349000D01*
X135828742Y-41349000D01*
X135853512Y-41353927D01*
G37*
G36*
X166333512Y-41353927D02*
G01*
X166482812Y-41383624D01*
X166646784Y-41451544D01*
X166794354Y-41550147D01*
X166919853Y-41675646D01*
X167018456Y-41823216D01*
X167086376Y-41987188D01*
X167121000Y-42161259D01*
X167121000Y-42338741D01*
X167086376Y-42512812D01*
X167018456Y-42676784D01*
X166919853Y-42824354D01*
X166794354Y-42949853D01*
X166646784Y-43048456D01*
X166482812Y-43116376D01*
X166333512Y-43146073D01*
X166308742Y-43151000D01*
X166131258Y-43151000D01*
X166106488Y-43146073D01*
X165957188Y-43116376D01*
X165793216Y-43048456D01*
X165645646Y-42949853D01*
X165520147Y-42824354D01*
X165421544Y-42676784D01*
X165353624Y-42512812D01*
X165319000Y-42338741D01*
X165319000Y-42161259D01*
X165353624Y-41987188D01*
X165421544Y-41823216D01*
X165520147Y-41675646D01*
X165645646Y-41550147D01*
X165793216Y-41451544D01*
X165957188Y-41383624D01*
X166106488Y-41353927D01*
X166131258Y-41349000D01*
X166308742Y-41349000D01*
X166333512Y-41353927D01*
G37*
G36*
X168873512Y-41353927D02*
G01*
X169022812Y-41383624D01*
X169186784Y-41451544D01*
X169334354Y-41550147D01*
X169459853Y-41675646D01*
X169558456Y-41823216D01*
X169626376Y-41987188D01*
X169661000Y-42161259D01*
X169661000Y-42338741D01*
X169626376Y-42512812D01*
X169558456Y-42676784D01*
X169459853Y-42824354D01*
X169334354Y-42949853D01*
X169186784Y-43048456D01*
X169022812Y-43116376D01*
X168873512Y-43146073D01*
X168848742Y-43151000D01*
X168671258Y-43151000D01*
X168646488Y-43146073D01*
X168497188Y-43116376D01*
X168333216Y-43048456D01*
X168185646Y-42949853D01*
X168060147Y-42824354D01*
X167961544Y-42676784D01*
X167893624Y-42512812D01*
X167859000Y-42338741D01*
X167859000Y-42161259D01*
X167893624Y-41987188D01*
X167961544Y-41823216D01*
X168060147Y-41675646D01*
X168185646Y-41550147D01*
X168333216Y-41451544D01*
X168497188Y-41383624D01*
X168646488Y-41353927D01*
X168671258Y-41349000D01*
X168848742Y-41349000D01*
X168873512Y-41353927D01*
G37*
G36*
X161253512Y-41353927D02*
G01*
X161402812Y-41383624D01*
X161566784Y-41451544D01*
X161714354Y-41550147D01*
X161839853Y-41675646D01*
X161938456Y-41823216D01*
X162006376Y-41987188D01*
X162041000Y-42161259D01*
X162041000Y-42338741D01*
X162006376Y-42512812D01*
X161938456Y-42676784D01*
X161839853Y-42824354D01*
X161714354Y-42949853D01*
X161566784Y-43048456D01*
X161402812Y-43116376D01*
X161253512Y-43146073D01*
X161228742Y-43151000D01*
X161051258Y-43151000D01*
X161026488Y-43146073D01*
X160877188Y-43116376D01*
X160713216Y-43048456D01*
X160565646Y-42949853D01*
X160440147Y-42824354D01*
X160341544Y-42676784D01*
X160273624Y-42512812D01*
X160239000Y-42338741D01*
X160239000Y-42161259D01*
X160273624Y-41987188D01*
X160341544Y-41823216D01*
X160440147Y-41675646D01*
X160565646Y-41550147D01*
X160713216Y-41451544D01*
X160877188Y-41383624D01*
X161026488Y-41353927D01*
X161051258Y-41349000D01*
X161228742Y-41349000D01*
X161253512Y-41353927D01*
G37*
G36*
X158713512Y-41353927D02*
G01*
X158862812Y-41383624D01*
X159026784Y-41451544D01*
X159174354Y-41550147D01*
X159299853Y-41675646D01*
X159398456Y-41823216D01*
X159466376Y-41987188D01*
X159501000Y-42161259D01*
X159501000Y-42338741D01*
X159466376Y-42512812D01*
X159398456Y-42676784D01*
X159299853Y-42824354D01*
X159174354Y-42949853D01*
X159026784Y-43048456D01*
X158862812Y-43116376D01*
X158713512Y-43146073D01*
X158688742Y-43151000D01*
X158511258Y-43151000D01*
X158486488Y-43146073D01*
X158337188Y-43116376D01*
X158173216Y-43048456D01*
X158025646Y-42949853D01*
X157900147Y-42824354D01*
X157801544Y-42676784D01*
X157733624Y-42512812D01*
X157699000Y-42338741D01*
X157699000Y-42161259D01*
X157733624Y-41987188D01*
X157801544Y-41823216D01*
X157900147Y-41675646D01*
X158025646Y-41550147D01*
X158173216Y-41451544D01*
X158337188Y-41383624D01*
X158486488Y-41353927D01*
X158511258Y-41349000D01*
X158688742Y-41349000D01*
X158713512Y-41353927D01*
G37*
G36*
X156173512Y-41353927D02*
G01*
X156322812Y-41383624D01*
X156486784Y-41451544D01*
X156634354Y-41550147D01*
X156759853Y-41675646D01*
X156858456Y-41823216D01*
X156926376Y-41987188D01*
X156961000Y-42161259D01*
X156961000Y-42338741D01*
X156926376Y-42512812D01*
X156858456Y-42676784D01*
X156759853Y-42824354D01*
X156634354Y-42949853D01*
X156486784Y-43048456D01*
X156322812Y-43116376D01*
X156173512Y-43146073D01*
X156148742Y-43151000D01*
X155971258Y-43151000D01*
X155946488Y-43146073D01*
X155797188Y-43116376D01*
X155633216Y-43048456D01*
X155485646Y-42949853D01*
X155360147Y-42824354D01*
X155261544Y-42676784D01*
X155193624Y-42512812D01*
X155159000Y-42338741D01*
X155159000Y-42161259D01*
X155193624Y-41987188D01*
X155261544Y-41823216D01*
X155360147Y-41675646D01*
X155485646Y-41550147D01*
X155633216Y-41451544D01*
X155797188Y-41383624D01*
X155946488Y-41353927D01*
X155971258Y-41349000D01*
X156148742Y-41349000D01*
X156173512Y-41353927D01*
G37*
G36*
X153633512Y-41353927D02*
G01*
X153782812Y-41383624D01*
X153946784Y-41451544D01*
X154094354Y-41550147D01*
X154219853Y-41675646D01*
X154318456Y-41823216D01*
X154386376Y-41987188D01*
X154421000Y-42161259D01*
X154421000Y-42338741D01*
X154386376Y-42512812D01*
X154318456Y-42676784D01*
X154219853Y-42824354D01*
X154094354Y-42949853D01*
X153946784Y-43048456D01*
X153782812Y-43116376D01*
X153633512Y-43146073D01*
X153608742Y-43151000D01*
X153431258Y-43151000D01*
X153406488Y-43146073D01*
X153257188Y-43116376D01*
X153093216Y-43048456D01*
X152945646Y-42949853D01*
X152820147Y-42824354D01*
X152721544Y-42676784D01*
X152653624Y-42512812D01*
X152619000Y-42338741D01*
X152619000Y-42161259D01*
X152653624Y-41987188D01*
X152721544Y-41823216D01*
X152820147Y-41675646D01*
X152945646Y-41550147D01*
X153093216Y-41451544D01*
X153257188Y-41383624D01*
X153406488Y-41353927D01*
X153431258Y-41349000D01*
X153608742Y-41349000D01*
X153633512Y-41353927D01*
G37*
G36*
X121401000Y-43151000D02*
G01*
X119599000Y-43151000D01*
X119599000Y-41349000D01*
X121401000Y-41349000D01*
X121401000Y-43151000D01*
G37*
G36*
X123153512Y-41353927D02*
G01*
X123302812Y-41383624D01*
X123466784Y-41451544D01*
X123614354Y-41550147D01*
X123739853Y-41675646D01*
X123838456Y-41823216D01*
X123906376Y-41987188D01*
X123941000Y-42161259D01*
X123941000Y-42338741D01*
X123906376Y-42512812D01*
X123838456Y-42676784D01*
X123739853Y-42824354D01*
X123614354Y-42949853D01*
X123466784Y-43048456D01*
X123302812Y-43116376D01*
X123153512Y-43146073D01*
X123128742Y-43151000D01*
X122951258Y-43151000D01*
X122926488Y-43146073D01*
X122777188Y-43116376D01*
X122613216Y-43048456D01*
X122465646Y-42949853D01*
X122340147Y-42824354D01*
X122241544Y-42676784D01*
X122173624Y-42512812D01*
X122139000Y-42338741D01*
X122139000Y-42161259D01*
X122173624Y-41987188D01*
X122241544Y-41823216D01*
X122340147Y-41675646D01*
X122465646Y-41550147D01*
X122613216Y-41451544D01*
X122777188Y-41383624D01*
X122926488Y-41353927D01*
X122951258Y-41349000D01*
X123128742Y-41349000D01*
X123153512Y-41353927D01*
G37*
G36*
X125693512Y-41353927D02*
G01*
X125842812Y-41383624D01*
X126006784Y-41451544D01*
X126154354Y-41550147D01*
X126279853Y-41675646D01*
X126378456Y-41823216D01*
X126446376Y-41987188D01*
X126481000Y-42161259D01*
X126481000Y-42338741D01*
X126446376Y-42512812D01*
X126378456Y-42676784D01*
X126279853Y-42824354D01*
X126154354Y-42949853D01*
X126006784Y-43048456D01*
X125842812Y-43116376D01*
X125693512Y-43146073D01*
X125668742Y-43151000D01*
X125491258Y-43151000D01*
X125466488Y-43146073D01*
X125317188Y-43116376D01*
X125153216Y-43048456D01*
X125005646Y-42949853D01*
X124880147Y-42824354D01*
X124781544Y-42676784D01*
X124713624Y-42512812D01*
X124679000Y-42338741D01*
X124679000Y-42161259D01*
X124713624Y-41987188D01*
X124781544Y-41823216D01*
X124880147Y-41675646D01*
X125005646Y-41550147D01*
X125153216Y-41451544D01*
X125317188Y-41383624D01*
X125466488Y-41353927D01*
X125491258Y-41349000D01*
X125668742Y-41349000D01*
X125693512Y-41353927D01*
G37*
G36*
X128233512Y-41353927D02*
G01*
X128382812Y-41383624D01*
X128546784Y-41451544D01*
X128694354Y-41550147D01*
X128819853Y-41675646D01*
X128918456Y-41823216D01*
X128986376Y-41987188D01*
X129021000Y-42161259D01*
X129021000Y-42338741D01*
X128986376Y-42512812D01*
X128918456Y-42676784D01*
X128819853Y-42824354D01*
X128694354Y-42949853D01*
X128546784Y-43048456D01*
X128382812Y-43116376D01*
X128233512Y-43146073D01*
X128208742Y-43151000D01*
X128031258Y-43151000D01*
X128006488Y-43146073D01*
X127857188Y-43116376D01*
X127693216Y-43048456D01*
X127545646Y-42949853D01*
X127420147Y-42824354D01*
X127321544Y-42676784D01*
X127253624Y-42512812D01*
X127219000Y-42338741D01*
X127219000Y-42161259D01*
X127253624Y-41987188D01*
X127321544Y-41823216D01*
X127420147Y-41675646D01*
X127545646Y-41550147D01*
X127693216Y-41451544D01*
X127857188Y-41383624D01*
X128006488Y-41353927D01*
X128031258Y-41349000D01*
X128208742Y-41349000D01*
X128233512Y-41353927D01*
G37*
G36*
X130773512Y-41353927D02*
G01*
X130922812Y-41383624D01*
X131086784Y-41451544D01*
X131234354Y-41550147D01*
X131359853Y-41675646D01*
X131458456Y-41823216D01*
X131526376Y-41987188D01*
X131561000Y-42161259D01*
X131561000Y-42338741D01*
X131526376Y-42512812D01*
X131458456Y-42676784D01*
X131359853Y-42824354D01*
X131234354Y-42949853D01*
X131086784Y-43048456D01*
X130922812Y-43116376D01*
X130773512Y-43146073D01*
X130748742Y-43151000D01*
X130571258Y-43151000D01*
X130546488Y-43146073D01*
X130397188Y-43116376D01*
X130233216Y-43048456D01*
X130085646Y-42949853D01*
X129960147Y-42824354D01*
X129861544Y-42676784D01*
X129793624Y-42512812D01*
X129759000Y-42338741D01*
X129759000Y-42161259D01*
X129793624Y-41987188D01*
X129861544Y-41823216D01*
X129960147Y-41675646D01*
X130085646Y-41550147D01*
X130233216Y-41451544D01*
X130397188Y-41383624D01*
X130546488Y-41353927D01*
X130571258Y-41349000D01*
X130748742Y-41349000D01*
X130773512Y-41353927D01*
G37*
G36*
X133313512Y-41353927D02*
G01*
X133462812Y-41383624D01*
X133626784Y-41451544D01*
X133774354Y-41550147D01*
X133899853Y-41675646D01*
X133998456Y-41823216D01*
X134066376Y-41987188D01*
X134101000Y-42161259D01*
X134101000Y-42338741D01*
X134066376Y-42512812D01*
X133998456Y-42676784D01*
X133899853Y-42824354D01*
X133774354Y-42949853D01*
X133626784Y-43048456D01*
X133462812Y-43116376D01*
X133313512Y-43146073D01*
X133288742Y-43151000D01*
X133111258Y-43151000D01*
X133086488Y-43146073D01*
X132937188Y-43116376D01*
X132773216Y-43048456D01*
X132625646Y-42949853D01*
X132500147Y-42824354D01*
X132401544Y-42676784D01*
X132333624Y-42512812D01*
X132299000Y-42338741D01*
X132299000Y-42161259D01*
X132333624Y-41987188D01*
X132401544Y-41823216D01*
X132500147Y-41675646D01*
X132625646Y-41550147D01*
X132773216Y-41451544D01*
X132937188Y-41383624D01*
X133086488Y-41353927D01*
X133111258Y-41349000D01*
X133288742Y-41349000D01*
X133313512Y-41353927D01*
G37*
G36*
X138393512Y-41353927D02*
G01*
X138542812Y-41383624D01*
X138706784Y-41451544D01*
X138854354Y-41550147D01*
X138979853Y-41675646D01*
X139078456Y-41823216D01*
X139146376Y-41987188D01*
X139181000Y-42161259D01*
X139181000Y-42338741D01*
X139146376Y-42512812D01*
X139078456Y-42676784D01*
X138979853Y-42824354D01*
X138854354Y-42949853D01*
X138706784Y-43048456D01*
X138542812Y-43116376D01*
X138393512Y-43146073D01*
X138368742Y-43151000D01*
X138191258Y-43151000D01*
X138166488Y-43146073D01*
X138017188Y-43116376D01*
X137853216Y-43048456D01*
X137705646Y-42949853D01*
X137580147Y-42824354D01*
X137481544Y-42676784D01*
X137413624Y-42512812D01*
X137379000Y-42338741D01*
X137379000Y-42161259D01*
X137413624Y-41987188D01*
X137481544Y-41823216D01*
X137580147Y-41675646D01*
X137705646Y-41550147D01*
X137853216Y-41451544D01*
X138017188Y-41383624D01*
X138166488Y-41353927D01*
X138191258Y-41349000D01*
X138368742Y-41349000D01*
X138393512Y-41353927D01*
G37*
G36*
X140933512Y-41353927D02*
G01*
X141082812Y-41383624D01*
X141246784Y-41451544D01*
X141394354Y-41550147D01*
X141519853Y-41675646D01*
X141618456Y-41823216D01*
X141686376Y-41987188D01*
X141721000Y-42161259D01*
X141721000Y-42338741D01*
X141686376Y-42512812D01*
X141618456Y-42676784D01*
X141519853Y-42824354D01*
X141394354Y-42949853D01*
X141246784Y-43048456D01*
X141082812Y-43116376D01*
X140933512Y-43146073D01*
X140908742Y-43151000D01*
X140731258Y-43151000D01*
X140706488Y-43146073D01*
X140557188Y-43116376D01*
X140393216Y-43048456D01*
X140245646Y-42949853D01*
X140120147Y-42824354D01*
X140021544Y-42676784D01*
X139953624Y-42512812D01*
X139919000Y-42338741D01*
X139919000Y-42161259D01*
X139953624Y-41987188D01*
X140021544Y-41823216D01*
X140120147Y-41675646D01*
X140245646Y-41550147D01*
X140393216Y-41451544D01*
X140557188Y-41383624D01*
X140706488Y-41353927D01*
X140731258Y-41349000D01*
X140908742Y-41349000D01*
X140933512Y-41353927D01*
G37*
G36*
X143473512Y-41353927D02*
G01*
X143622812Y-41383624D01*
X143786784Y-41451544D01*
X143934354Y-41550147D01*
X144059853Y-41675646D01*
X144158456Y-41823216D01*
X144226376Y-41987188D01*
X144261000Y-42161259D01*
X144261000Y-42338741D01*
X144226376Y-42512812D01*
X144158456Y-42676784D01*
X144059853Y-42824354D01*
X143934354Y-42949853D01*
X143786784Y-43048456D01*
X143622812Y-43116376D01*
X143473512Y-43146073D01*
X143448742Y-43151000D01*
X143271258Y-43151000D01*
X143246488Y-43146073D01*
X143097188Y-43116376D01*
X142933216Y-43048456D01*
X142785646Y-42949853D01*
X142660147Y-42824354D01*
X142561544Y-42676784D01*
X142493624Y-42512812D01*
X142459000Y-42338741D01*
X142459000Y-42161259D01*
X142493624Y-41987188D01*
X142561544Y-41823216D01*
X142660147Y-41675646D01*
X142785646Y-41550147D01*
X142933216Y-41451544D01*
X143097188Y-41383624D01*
X143246488Y-41353927D01*
X143271258Y-41349000D01*
X143448742Y-41349000D01*
X143473512Y-41353927D01*
G37*
G36*
X146013512Y-41353927D02*
G01*
X146162812Y-41383624D01*
X146326784Y-41451544D01*
X146474354Y-41550147D01*
X146599853Y-41675646D01*
X146698456Y-41823216D01*
X146766376Y-41987188D01*
X146801000Y-42161259D01*
X146801000Y-42338741D01*
X146766376Y-42512812D01*
X146698456Y-42676784D01*
X146599853Y-42824354D01*
X146474354Y-42949853D01*
X146326784Y-43048456D01*
X146162812Y-43116376D01*
X146013512Y-43146073D01*
X145988742Y-43151000D01*
X145811258Y-43151000D01*
X145786488Y-43146073D01*
X145637188Y-43116376D01*
X145473216Y-43048456D01*
X145325646Y-42949853D01*
X145200147Y-42824354D01*
X145101544Y-42676784D01*
X145033624Y-42512812D01*
X144999000Y-42338741D01*
X144999000Y-42161259D01*
X145033624Y-41987188D01*
X145101544Y-41823216D01*
X145200147Y-41675646D01*
X145325646Y-41550147D01*
X145473216Y-41451544D01*
X145637188Y-41383624D01*
X145786488Y-41353927D01*
X145811258Y-41349000D01*
X145988742Y-41349000D01*
X146013512Y-41353927D01*
G37*
G36*
X148553512Y-41353927D02*
G01*
X148702812Y-41383624D01*
X148866784Y-41451544D01*
X149014354Y-41550147D01*
X149139853Y-41675646D01*
X149238456Y-41823216D01*
X149306376Y-41987188D01*
X149341000Y-42161259D01*
X149341000Y-42338741D01*
X149306376Y-42512812D01*
X149238456Y-42676784D01*
X149139853Y-42824354D01*
X149014354Y-42949853D01*
X148866784Y-43048456D01*
X148702812Y-43116376D01*
X148553512Y-43146073D01*
X148528742Y-43151000D01*
X148351258Y-43151000D01*
X148326488Y-43146073D01*
X148177188Y-43116376D01*
X148013216Y-43048456D01*
X147865646Y-42949853D01*
X147740147Y-42824354D01*
X147641544Y-42676784D01*
X147573624Y-42512812D01*
X147539000Y-42338741D01*
X147539000Y-42161259D01*
X147573624Y-41987188D01*
X147641544Y-41823216D01*
X147740147Y-41675646D01*
X147865646Y-41550147D01*
X148013216Y-41451544D01*
X148177188Y-41383624D01*
X148326488Y-41353927D01*
X148351258Y-41349000D01*
X148528742Y-41349000D01*
X148553512Y-41353927D01*
G37*
G36*
X163793512Y-41353927D02*
G01*
X163942812Y-41383624D01*
X164106784Y-41451544D01*
X164254354Y-41550147D01*
X164379853Y-41675646D01*
X164478456Y-41823216D01*
X164546376Y-41987188D01*
X164581000Y-42161259D01*
X164581000Y-42338741D01*
X164546376Y-42512812D01*
X164478456Y-42676784D01*
X164379853Y-42824354D01*
X164254354Y-42949853D01*
X164106784Y-43048456D01*
X163942812Y-43116376D01*
X163793512Y-43146073D01*
X163768742Y-43151000D01*
X163591258Y-43151000D01*
X163566488Y-43146073D01*
X163417188Y-43116376D01*
X163253216Y-43048456D01*
X163105646Y-42949853D01*
X162980147Y-42824354D01*
X162881544Y-42676784D01*
X162813624Y-42512812D01*
X162779000Y-42338741D01*
X162779000Y-42161259D01*
X162813624Y-41987188D01*
X162881544Y-41823216D01*
X162980147Y-41675646D01*
X163105646Y-41550147D01*
X163253216Y-41451544D01*
X163417188Y-41383624D01*
X163566488Y-41353927D01*
X163591258Y-41349000D01*
X163768742Y-41349000D01*
X163793512Y-41353927D01*
G37*
G36*
X151093512Y-41353927D02*
G01*
X151242812Y-41383624D01*
X151406784Y-41451544D01*
X151554354Y-41550147D01*
X151679853Y-41675646D01*
X151778456Y-41823216D01*
X151846376Y-41987188D01*
X151881000Y-42161259D01*
X151881000Y-42338741D01*
X151846376Y-42512812D01*
X151778456Y-42676784D01*
X151679853Y-42824354D01*
X151554354Y-42949853D01*
X151406784Y-43048456D01*
X151242812Y-43116376D01*
X151093512Y-43146073D01*
X151068742Y-43151000D01*
X150891258Y-43151000D01*
X150866488Y-43146073D01*
X150717188Y-43116376D01*
X150553216Y-43048456D01*
X150405646Y-42949853D01*
X150280147Y-42824354D01*
X150181544Y-42676784D01*
X150113624Y-42512812D01*
X150079000Y-42338741D01*
X150079000Y-42161259D01*
X150113624Y-41987188D01*
X150181544Y-41823216D01*
X150280147Y-41675646D01*
X150405646Y-41550147D01*
X150553216Y-41451544D01*
X150717188Y-41383624D01*
X150866488Y-41353927D01*
X150891258Y-41349000D01*
X151068742Y-41349000D01*
X151093512Y-41353927D01*
G37*
G36*
X105584468Y-41591065D02*
G01*
X105623138Y-41602796D01*
X105658777Y-41621846D01*
X105690017Y-41647483D01*
X105715654Y-41678723D01*
X105734704Y-41714362D01*
X105746435Y-41753032D01*
X105751000Y-41799388D01*
X105751000Y-42450612D01*
X105746435Y-42496968D01*
X105734704Y-42535638D01*
X105715654Y-42571277D01*
X105690017Y-42602517D01*
X105658777Y-42628154D01*
X105623138Y-42647204D01*
X105584468Y-42658935D01*
X105538112Y-42663500D01*
X104461888Y-42663500D01*
X104415532Y-42658935D01*
X104376862Y-42647204D01*
X104341223Y-42628154D01*
X104309983Y-42602517D01*
X104284346Y-42571277D01*
X104265296Y-42535638D01*
X104253565Y-42496968D01*
X104249000Y-42450612D01*
X104249000Y-41799388D01*
X104253565Y-41753032D01*
X104265296Y-41714362D01*
X104284346Y-41678723D01*
X104309983Y-41647483D01*
X104341223Y-41621846D01*
X104376862Y-41602796D01*
X104415532Y-41591065D01*
X104461888Y-41586500D01*
X105538112Y-41586500D01*
X105584468Y-41591065D01*
G37*
G36*
X90379487Y-39448996D02*
G01*
X90616253Y-39547068D01*
X90616255Y-39547069D01*
X90656141Y-39573720D01*
X90829339Y-39689447D01*
X91010553Y-39870661D01*
X91152932Y-40083747D01*
X91251004Y-40320513D01*
X91301000Y-40571861D01*
X91301000Y-40828139D01*
X91251004Y-41079487D01*
X91152932Y-41316253D01*
X91152931Y-41316255D01*
X91010553Y-41529339D01*
X90829339Y-41710553D01*
X90616255Y-41852931D01*
X90616254Y-41852932D01*
X90616253Y-41852932D01*
X90379487Y-41951004D01*
X90128139Y-42001000D01*
X89871861Y-42001000D01*
X89620513Y-41951004D01*
X89383747Y-41852932D01*
X89383746Y-41852932D01*
X89383745Y-41852931D01*
X89170661Y-41710553D01*
X88989447Y-41529339D01*
X88847069Y-41316255D01*
X88847068Y-41316253D01*
X88748996Y-41079487D01*
X88699000Y-40828139D01*
X88699000Y-40571861D01*
X88748996Y-40320513D01*
X88847068Y-40083747D01*
X88989447Y-39870661D01*
X89170661Y-39689447D01*
X89343859Y-39573720D01*
X89383745Y-39547069D01*
X89383747Y-39547068D01*
X89620513Y-39448996D01*
X89871861Y-39399000D01*
X90128139Y-39399000D01*
X90379487Y-39448996D01*
G37*
G36*
X115501000Y-42001000D02*
G01*
X112899000Y-42001000D01*
X112899000Y-39399000D01*
X115501000Y-39399000D01*
X115501000Y-42001000D01*
G37*
G36*
X96301000Y-42001000D02*
G01*
X93699000Y-42001000D01*
X93699000Y-39399000D01*
X96301000Y-39399000D01*
X96301000Y-42001000D01*
G37*
G36*
X109579487Y-39448996D02*
G01*
X109816253Y-39547068D01*
X109816255Y-39547069D01*
X109856141Y-39573720D01*
X110029339Y-39689447D01*
X110210553Y-39870661D01*
X110352932Y-40083747D01*
X110451004Y-40320513D01*
X110501000Y-40571861D01*
X110501000Y-40828139D01*
X110451004Y-41079487D01*
X110352932Y-41316253D01*
X110352931Y-41316255D01*
X110210553Y-41529339D01*
X110029339Y-41710553D01*
X109816255Y-41852931D01*
X109816254Y-41852932D01*
X109816253Y-41852932D01*
X109579487Y-41951004D01*
X109328139Y-42001000D01*
X109071861Y-42001000D01*
X108820513Y-41951004D01*
X108583747Y-41852932D01*
X108583746Y-41852932D01*
X108583745Y-41852931D01*
X108370661Y-41710553D01*
X108189447Y-41529339D01*
X108047069Y-41316255D01*
X108047068Y-41316253D01*
X107948996Y-41079487D01*
X107899000Y-40828139D01*
X107899000Y-40571861D01*
X107948996Y-40320513D01*
X108047068Y-40083747D01*
X108189447Y-39870661D01*
X108370661Y-39689447D01*
X108543859Y-39573720D01*
X108583745Y-39547069D01*
X108583747Y-39547068D01*
X108820513Y-39448996D01*
X109071861Y-39399000D01*
X109328139Y-39399000D01*
X109579487Y-39448996D01*
G37*
G36*
X82922793Y-37220103D02*
G01*
X83225470Y-37280309D01*
X83653143Y-37457457D01*
X84038038Y-37714636D01*
X84365364Y-38041962D01*
X84622543Y-38426857D01*
X84799691Y-38854530D01*
X84859897Y-39157207D01*
X84890000Y-39308544D01*
X84890000Y-39771456D01*
X84884572Y-39798742D01*
X84799691Y-40225470D01*
X84622543Y-40653143D01*
X84365364Y-41038038D01*
X84038038Y-41365364D01*
X83653143Y-41622543D01*
X83225470Y-41799691D01*
X82957814Y-41852931D01*
X82771456Y-41890000D01*
X82308544Y-41890000D01*
X82122186Y-41852931D01*
X81854530Y-41799691D01*
X81426857Y-41622543D01*
X81041962Y-41365364D01*
X80714636Y-41038038D01*
X80457457Y-40653143D01*
X80280309Y-40225470D01*
X80195428Y-39798742D01*
X80190000Y-39771456D01*
X80190000Y-39308544D01*
X80220103Y-39157207D01*
X80280309Y-38854530D01*
X80457457Y-38426857D01*
X80714636Y-38041962D01*
X81041962Y-37714636D01*
X81426857Y-37457457D01*
X81854530Y-37280309D01*
X82157207Y-37220103D01*
X82308544Y-37190000D01*
X82771456Y-37190000D01*
X82922793Y-37220103D01*
G37*
G36*
X175842793Y-37220103D02*
G01*
X176145470Y-37280309D01*
X176573143Y-37457457D01*
X176958038Y-37714636D01*
X177285364Y-38041962D01*
X177542543Y-38426857D01*
X177719691Y-38854530D01*
X177779897Y-39157207D01*
X177810000Y-39308544D01*
X177810000Y-39771456D01*
X177804572Y-39798742D01*
X177719691Y-40225470D01*
X177542543Y-40653143D01*
X177285364Y-41038038D01*
X176958038Y-41365364D01*
X176573143Y-41622543D01*
X176145470Y-41799691D01*
X175877814Y-41852931D01*
X175691456Y-41890000D01*
X175228544Y-41890000D01*
X175042186Y-41852931D01*
X174774530Y-41799691D01*
X174346857Y-41622543D01*
X173961962Y-41365364D01*
X173634636Y-41038038D01*
X173377457Y-40653143D01*
X173200309Y-40225470D01*
X173115428Y-39798742D01*
X173110000Y-39771456D01*
X173110000Y-39308544D01*
X173140103Y-39157207D01*
X173200309Y-38854530D01*
X173377457Y-38426857D01*
X173634636Y-38041962D01*
X173961962Y-37714636D01*
X174346857Y-37457457D01*
X174774530Y-37280309D01*
X175077207Y-37220103D01*
X175228544Y-37190000D01*
X175691456Y-37190000D01*
X175842793Y-37220103D01*
G37*
G36*
X133313512Y-38813927D02*
G01*
X133462812Y-38843624D01*
X133626784Y-38911544D01*
X133774354Y-39010147D01*
X133899853Y-39135646D01*
X133998456Y-39283216D01*
X134066376Y-39447188D01*
X134101000Y-39621259D01*
X134101000Y-39798741D01*
X134066376Y-39972812D01*
X133998456Y-40136784D01*
X133899853Y-40284354D01*
X133774354Y-40409853D01*
X133626784Y-40508456D01*
X133462812Y-40576376D01*
X133313512Y-40606073D01*
X133288742Y-40611000D01*
X133111258Y-40611000D01*
X133086488Y-40606073D01*
X132937188Y-40576376D01*
X132773216Y-40508456D01*
X132625646Y-40409853D01*
X132500147Y-40284354D01*
X132401544Y-40136784D01*
X132333624Y-39972812D01*
X132299000Y-39798741D01*
X132299000Y-39621259D01*
X132333624Y-39447188D01*
X132401544Y-39283216D01*
X132500147Y-39135646D01*
X132625646Y-39010147D01*
X132773216Y-38911544D01*
X132937188Y-38843624D01*
X133086488Y-38813927D01*
X133111258Y-38809000D01*
X133288742Y-38809000D01*
X133313512Y-38813927D01*
G37*
G36*
X148553512Y-38813927D02*
G01*
X148702812Y-38843624D01*
X148866784Y-38911544D01*
X149014354Y-39010147D01*
X149139853Y-39135646D01*
X149238456Y-39283216D01*
X149306376Y-39447188D01*
X149341000Y-39621259D01*
X149341000Y-39798741D01*
X149306376Y-39972812D01*
X149238456Y-40136784D01*
X149139853Y-40284354D01*
X149014354Y-40409853D01*
X148866784Y-40508456D01*
X148702812Y-40576376D01*
X148553512Y-40606073D01*
X148528742Y-40611000D01*
X148351258Y-40611000D01*
X148326488Y-40606073D01*
X148177188Y-40576376D01*
X148013216Y-40508456D01*
X147865646Y-40409853D01*
X147740147Y-40284354D01*
X147641544Y-40136784D01*
X147573624Y-39972812D01*
X147539000Y-39798741D01*
X147539000Y-39621259D01*
X147573624Y-39447188D01*
X147641544Y-39283216D01*
X147740147Y-39135646D01*
X147865646Y-39010147D01*
X148013216Y-38911544D01*
X148177188Y-38843624D01*
X148326488Y-38813927D01*
X148351258Y-38809000D01*
X148528742Y-38809000D01*
X148553512Y-38813927D01*
G37*
G36*
X151093512Y-38813927D02*
G01*
X151242812Y-38843624D01*
X151406784Y-38911544D01*
X151554354Y-39010147D01*
X151679853Y-39135646D01*
X151778456Y-39283216D01*
X151846376Y-39447188D01*
X151881000Y-39621259D01*
X151881000Y-39798741D01*
X151846376Y-39972812D01*
X151778456Y-40136784D01*
X151679853Y-40284354D01*
X151554354Y-40409853D01*
X151406784Y-40508456D01*
X151242812Y-40576376D01*
X151093512Y-40606073D01*
X151068742Y-40611000D01*
X150891258Y-40611000D01*
X150866488Y-40606073D01*
X150717188Y-40576376D01*
X150553216Y-40508456D01*
X150405646Y-40409853D01*
X150280147Y-40284354D01*
X150181544Y-40136784D01*
X150113624Y-39972812D01*
X150079000Y-39798741D01*
X150079000Y-39621259D01*
X150113624Y-39447188D01*
X150181544Y-39283216D01*
X150280147Y-39135646D01*
X150405646Y-39010147D01*
X150553216Y-38911544D01*
X150717188Y-38843624D01*
X150866488Y-38813927D01*
X150891258Y-38809000D01*
X151068742Y-38809000D01*
X151093512Y-38813927D01*
G37*
G36*
X123153512Y-38813927D02*
G01*
X123302812Y-38843624D01*
X123466784Y-38911544D01*
X123614354Y-39010147D01*
X123739853Y-39135646D01*
X123838456Y-39283216D01*
X123906376Y-39447188D01*
X123941000Y-39621259D01*
X123941000Y-39798741D01*
X123906376Y-39972812D01*
X123838456Y-40136784D01*
X123739853Y-40284354D01*
X123614354Y-40409853D01*
X123466784Y-40508456D01*
X123302812Y-40576376D01*
X123153512Y-40606073D01*
X123128742Y-40611000D01*
X122951258Y-40611000D01*
X122926488Y-40606073D01*
X122777188Y-40576376D01*
X122613216Y-40508456D01*
X122465646Y-40409853D01*
X122340147Y-40284354D01*
X122241544Y-40136784D01*
X122173624Y-39972812D01*
X122139000Y-39798741D01*
X122139000Y-39621259D01*
X122173624Y-39447188D01*
X122241544Y-39283216D01*
X122340147Y-39135646D01*
X122465646Y-39010147D01*
X122613216Y-38911544D01*
X122777188Y-38843624D01*
X122926488Y-38813927D01*
X122951258Y-38809000D01*
X123128742Y-38809000D01*
X123153512Y-38813927D01*
G37*
G36*
X120613512Y-38813927D02*
G01*
X120762812Y-38843624D01*
X120926784Y-38911544D01*
X121074354Y-39010147D01*
X121199853Y-39135646D01*
X121298456Y-39283216D01*
X121366376Y-39447188D01*
X121401000Y-39621259D01*
X121401000Y-39798741D01*
X121366376Y-39972812D01*
X121298456Y-40136784D01*
X121199853Y-40284354D01*
X121074354Y-40409853D01*
X120926784Y-40508456D01*
X120762812Y-40576376D01*
X120613512Y-40606073D01*
X120588742Y-40611000D01*
X120411258Y-40611000D01*
X120386488Y-40606073D01*
X120237188Y-40576376D01*
X120073216Y-40508456D01*
X119925646Y-40409853D01*
X119800147Y-40284354D01*
X119701544Y-40136784D01*
X119633624Y-39972812D01*
X119599000Y-39798741D01*
X119599000Y-39621259D01*
X119633624Y-39447188D01*
X119701544Y-39283216D01*
X119800147Y-39135646D01*
X119925646Y-39010147D01*
X120073216Y-38911544D01*
X120237188Y-38843624D01*
X120386488Y-38813927D01*
X120411258Y-38809000D01*
X120588742Y-38809000D01*
X120613512Y-38813927D01*
G37*
G36*
X153633512Y-38813927D02*
G01*
X153782812Y-38843624D01*
X153946784Y-38911544D01*
X154094354Y-39010147D01*
X154219853Y-39135646D01*
X154318456Y-39283216D01*
X154386376Y-39447188D01*
X154421000Y-39621259D01*
X154421000Y-39798741D01*
X154386376Y-39972812D01*
X154318456Y-40136784D01*
X154219853Y-40284354D01*
X154094354Y-40409853D01*
X153946784Y-40508456D01*
X153782812Y-40576376D01*
X153633512Y-40606073D01*
X153608742Y-40611000D01*
X153431258Y-40611000D01*
X153406488Y-40606073D01*
X153257188Y-40576376D01*
X153093216Y-40508456D01*
X152945646Y-40409853D01*
X152820147Y-40284354D01*
X152721544Y-40136784D01*
X152653624Y-39972812D01*
X152619000Y-39798741D01*
X152619000Y-39621259D01*
X152653624Y-39447188D01*
X152721544Y-39283216D01*
X152820147Y-39135646D01*
X152945646Y-39010147D01*
X153093216Y-38911544D01*
X153257188Y-38843624D01*
X153406488Y-38813927D01*
X153431258Y-38809000D01*
X153608742Y-38809000D01*
X153633512Y-38813927D01*
G37*
G36*
X146013512Y-38813927D02*
G01*
X146162812Y-38843624D01*
X146326784Y-38911544D01*
X146474354Y-39010147D01*
X146599853Y-39135646D01*
X146698456Y-39283216D01*
X146766376Y-39447188D01*
X146801000Y-39621259D01*
X146801000Y-39798741D01*
X146766376Y-39972812D01*
X146698456Y-40136784D01*
X146599853Y-40284354D01*
X146474354Y-40409853D01*
X146326784Y-40508456D01*
X146162812Y-40576376D01*
X146013512Y-40606073D01*
X145988742Y-40611000D01*
X145811258Y-40611000D01*
X145786488Y-40606073D01*
X145637188Y-40576376D01*
X145473216Y-40508456D01*
X145325646Y-40409853D01*
X145200147Y-40284354D01*
X145101544Y-40136784D01*
X145033624Y-39972812D01*
X144999000Y-39798741D01*
X144999000Y-39621259D01*
X145033624Y-39447188D01*
X145101544Y-39283216D01*
X145200147Y-39135646D01*
X145325646Y-39010147D01*
X145473216Y-38911544D01*
X145637188Y-38843624D01*
X145786488Y-38813927D01*
X145811258Y-38809000D01*
X145988742Y-38809000D01*
X146013512Y-38813927D01*
G37*
G36*
X143473512Y-38813927D02*
G01*
X143622812Y-38843624D01*
X143786784Y-38911544D01*
X143934354Y-39010147D01*
X144059853Y-39135646D01*
X144158456Y-39283216D01*
X144226376Y-39447188D01*
X144261000Y-39621259D01*
X144261000Y-39798741D01*
X144226376Y-39972812D01*
X144158456Y-40136784D01*
X144059853Y-40284354D01*
X143934354Y-40409853D01*
X143786784Y-40508456D01*
X143622812Y-40576376D01*
X143473512Y-40606073D01*
X143448742Y-40611000D01*
X143271258Y-40611000D01*
X143246488Y-40606073D01*
X143097188Y-40576376D01*
X142933216Y-40508456D01*
X142785646Y-40409853D01*
X142660147Y-40284354D01*
X142561544Y-40136784D01*
X142493624Y-39972812D01*
X142459000Y-39798741D01*
X142459000Y-39621259D01*
X142493624Y-39447188D01*
X142561544Y-39283216D01*
X142660147Y-39135646D01*
X142785646Y-39010147D01*
X142933216Y-38911544D01*
X143097188Y-38843624D01*
X143246488Y-38813927D01*
X143271258Y-38809000D01*
X143448742Y-38809000D01*
X143473512Y-38813927D01*
G37*
G36*
X140933512Y-38813927D02*
G01*
X141082812Y-38843624D01*
X141246784Y-38911544D01*
X141394354Y-39010147D01*
X141519853Y-39135646D01*
X141618456Y-39283216D01*
X141686376Y-39447188D01*
X141721000Y-39621259D01*
X141721000Y-39798741D01*
X141686376Y-39972812D01*
X141618456Y-40136784D01*
X141519853Y-40284354D01*
X141394354Y-40409853D01*
X141246784Y-40508456D01*
X141082812Y-40576376D01*
X140933512Y-40606073D01*
X140908742Y-40611000D01*
X140731258Y-40611000D01*
X140706488Y-40606073D01*
X140557188Y-40576376D01*
X140393216Y-40508456D01*
X140245646Y-40409853D01*
X140120147Y-40284354D01*
X140021544Y-40136784D01*
X139953624Y-39972812D01*
X139919000Y-39798741D01*
X139919000Y-39621259D01*
X139953624Y-39447188D01*
X140021544Y-39283216D01*
X140120147Y-39135646D01*
X140245646Y-39010147D01*
X140393216Y-38911544D01*
X140557188Y-38843624D01*
X140706488Y-38813927D01*
X140731258Y-38809000D01*
X140908742Y-38809000D01*
X140933512Y-38813927D01*
G37*
G36*
X125693512Y-38813927D02*
G01*
X125842812Y-38843624D01*
X126006784Y-38911544D01*
X126154354Y-39010147D01*
X126279853Y-39135646D01*
X126378456Y-39283216D01*
X126446376Y-39447188D01*
X126481000Y-39621259D01*
X126481000Y-39798741D01*
X126446376Y-39972812D01*
X126378456Y-40136784D01*
X126279853Y-40284354D01*
X126154354Y-40409853D01*
X126006784Y-40508456D01*
X125842812Y-40576376D01*
X125693512Y-40606073D01*
X125668742Y-40611000D01*
X125491258Y-40611000D01*
X125466488Y-40606073D01*
X125317188Y-40576376D01*
X125153216Y-40508456D01*
X125005646Y-40409853D01*
X124880147Y-40284354D01*
X124781544Y-40136784D01*
X124713624Y-39972812D01*
X124679000Y-39798741D01*
X124679000Y-39621259D01*
X124713624Y-39447188D01*
X124781544Y-39283216D01*
X124880147Y-39135646D01*
X125005646Y-39010147D01*
X125153216Y-38911544D01*
X125317188Y-38843624D01*
X125466488Y-38813927D01*
X125491258Y-38809000D01*
X125668742Y-38809000D01*
X125693512Y-38813927D01*
G37*
G36*
X168873512Y-38813927D02*
G01*
X169022812Y-38843624D01*
X169186784Y-38911544D01*
X169334354Y-39010147D01*
X169459853Y-39135646D01*
X169558456Y-39283216D01*
X169626376Y-39447188D01*
X169661000Y-39621259D01*
X169661000Y-39798741D01*
X169626376Y-39972812D01*
X169558456Y-40136784D01*
X169459853Y-40284354D01*
X169334354Y-40409853D01*
X169186784Y-40508456D01*
X169022812Y-40576376D01*
X168873512Y-40606073D01*
X168848742Y-40611000D01*
X168671258Y-40611000D01*
X168646488Y-40606073D01*
X168497188Y-40576376D01*
X168333216Y-40508456D01*
X168185646Y-40409853D01*
X168060147Y-40284354D01*
X167961544Y-40136784D01*
X167893624Y-39972812D01*
X167859000Y-39798741D01*
X167859000Y-39621259D01*
X167893624Y-39447188D01*
X167961544Y-39283216D01*
X168060147Y-39135646D01*
X168185646Y-39010147D01*
X168333216Y-38911544D01*
X168497188Y-38843624D01*
X168646488Y-38813927D01*
X168671258Y-38809000D01*
X168848742Y-38809000D01*
X168873512Y-38813927D01*
G37*
G36*
X135853512Y-38813927D02*
G01*
X136002812Y-38843624D01*
X136166784Y-38911544D01*
X136314354Y-39010147D01*
X136439853Y-39135646D01*
X136538456Y-39283216D01*
X136606376Y-39447188D01*
X136641000Y-39621259D01*
X136641000Y-39798741D01*
X136606376Y-39972812D01*
X136538456Y-40136784D01*
X136439853Y-40284354D01*
X136314354Y-40409853D01*
X136166784Y-40508456D01*
X136002812Y-40576376D01*
X135853512Y-40606073D01*
X135828742Y-40611000D01*
X135651258Y-40611000D01*
X135626488Y-40606073D01*
X135477188Y-40576376D01*
X135313216Y-40508456D01*
X135165646Y-40409853D01*
X135040147Y-40284354D01*
X134941544Y-40136784D01*
X134873624Y-39972812D01*
X134839000Y-39798741D01*
X134839000Y-39621259D01*
X134873624Y-39447188D01*
X134941544Y-39283216D01*
X135040147Y-39135646D01*
X135165646Y-39010147D01*
X135313216Y-38911544D01*
X135477188Y-38843624D01*
X135626488Y-38813927D01*
X135651258Y-38809000D01*
X135828742Y-38809000D01*
X135853512Y-38813927D01*
G37*
G36*
X166333512Y-38813927D02*
G01*
X166482812Y-38843624D01*
X166646784Y-38911544D01*
X166794354Y-39010147D01*
X166919853Y-39135646D01*
X167018456Y-39283216D01*
X167086376Y-39447188D01*
X167121000Y-39621259D01*
X167121000Y-39798741D01*
X167086376Y-39972812D01*
X167018456Y-40136784D01*
X166919853Y-40284354D01*
X166794354Y-40409853D01*
X166646784Y-40508456D01*
X166482812Y-40576376D01*
X166333512Y-40606073D01*
X166308742Y-40611000D01*
X166131258Y-40611000D01*
X166106488Y-40606073D01*
X165957188Y-40576376D01*
X165793216Y-40508456D01*
X165645646Y-40409853D01*
X165520147Y-40284354D01*
X165421544Y-40136784D01*
X165353624Y-39972812D01*
X165319000Y-39798741D01*
X165319000Y-39621259D01*
X165353624Y-39447188D01*
X165421544Y-39283216D01*
X165520147Y-39135646D01*
X165645646Y-39010147D01*
X165793216Y-38911544D01*
X165957188Y-38843624D01*
X166106488Y-38813927D01*
X166131258Y-38809000D01*
X166308742Y-38809000D01*
X166333512Y-38813927D01*
G37*
G36*
X163793512Y-38813927D02*
G01*
X163942812Y-38843624D01*
X164106784Y-38911544D01*
X164254354Y-39010147D01*
X164379853Y-39135646D01*
X164478456Y-39283216D01*
X164546376Y-39447188D01*
X164581000Y-39621259D01*
X164581000Y-39798741D01*
X164546376Y-39972812D01*
X164478456Y-40136784D01*
X164379853Y-40284354D01*
X164254354Y-40409853D01*
X164106784Y-40508456D01*
X163942812Y-40576376D01*
X163793512Y-40606073D01*
X163768742Y-40611000D01*
X163591258Y-40611000D01*
X163566488Y-40606073D01*
X163417188Y-40576376D01*
X163253216Y-40508456D01*
X163105646Y-40409853D01*
X162980147Y-40284354D01*
X162881544Y-40136784D01*
X162813624Y-39972812D01*
X162779000Y-39798741D01*
X162779000Y-39621259D01*
X162813624Y-39447188D01*
X162881544Y-39283216D01*
X162980147Y-39135646D01*
X163105646Y-39010147D01*
X163253216Y-38911544D01*
X163417188Y-38843624D01*
X163566488Y-38813927D01*
X163591258Y-38809000D01*
X163768742Y-38809000D01*
X163793512Y-38813927D01*
G37*
G36*
X130773512Y-38813927D02*
G01*
X130922812Y-38843624D01*
X131086784Y-38911544D01*
X131234354Y-39010147D01*
X131359853Y-39135646D01*
X131458456Y-39283216D01*
X131526376Y-39447188D01*
X131561000Y-39621259D01*
X131561000Y-39798741D01*
X131526376Y-39972812D01*
X131458456Y-40136784D01*
X131359853Y-40284354D01*
X131234354Y-40409853D01*
X131086784Y-40508456D01*
X130922812Y-40576376D01*
X130773512Y-40606073D01*
X130748742Y-40611000D01*
X130571258Y-40611000D01*
X130546488Y-40606073D01*
X130397188Y-40576376D01*
X130233216Y-40508456D01*
X130085646Y-40409853D01*
X129960147Y-40284354D01*
X129861544Y-40136784D01*
X129793624Y-39972812D01*
X129759000Y-39798741D01*
X129759000Y-39621259D01*
X129793624Y-39447188D01*
X129861544Y-39283216D01*
X129960147Y-39135646D01*
X130085646Y-39010147D01*
X130233216Y-38911544D01*
X130397188Y-38843624D01*
X130546488Y-38813927D01*
X130571258Y-38809000D01*
X130748742Y-38809000D01*
X130773512Y-38813927D01*
G37*
G36*
X161253512Y-38813927D02*
G01*
X161402812Y-38843624D01*
X161566784Y-38911544D01*
X161714354Y-39010147D01*
X161839853Y-39135646D01*
X161938456Y-39283216D01*
X162006376Y-39447188D01*
X162041000Y-39621259D01*
X162041000Y-39798741D01*
X162006376Y-39972812D01*
X161938456Y-40136784D01*
X161839853Y-40284354D01*
X161714354Y-40409853D01*
X161566784Y-40508456D01*
X161402812Y-40576376D01*
X161253512Y-40606073D01*
X161228742Y-40611000D01*
X161051258Y-40611000D01*
X161026488Y-40606073D01*
X160877188Y-40576376D01*
X160713216Y-40508456D01*
X160565646Y-40409853D01*
X160440147Y-40284354D01*
X160341544Y-40136784D01*
X160273624Y-39972812D01*
X160239000Y-39798741D01*
X160239000Y-39621259D01*
X160273624Y-39447188D01*
X160341544Y-39283216D01*
X160440147Y-39135646D01*
X160565646Y-39010147D01*
X160713216Y-38911544D01*
X160877188Y-38843624D01*
X161026488Y-38813927D01*
X161051258Y-38809000D01*
X161228742Y-38809000D01*
X161253512Y-38813927D01*
G37*
G36*
X158713512Y-38813927D02*
G01*
X158862812Y-38843624D01*
X159026784Y-38911544D01*
X159174354Y-39010147D01*
X159299853Y-39135646D01*
X159398456Y-39283216D01*
X159466376Y-39447188D01*
X159501000Y-39621259D01*
X159501000Y-39798741D01*
X159466376Y-39972812D01*
X159398456Y-40136784D01*
X159299853Y-40284354D01*
X159174354Y-40409853D01*
X159026784Y-40508456D01*
X158862812Y-40576376D01*
X158713512Y-40606073D01*
X158688742Y-40611000D01*
X158511258Y-40611000D01*
X158486488Y-40606073D01*
X158337188Y-40576376D01*
X158173216Y-40508456D01*
X158025646Y-40409853D01*
X157900147Y-40284354D01*
X157801544Y-40136784D01*
X157733624Y-39972812D01*
X157699000Y-39798741D01*
X157699000Y-39621259D01*
X157733624Y-39447188D01*
X157801544Y-39283216D01*
X157900147Y-39135646D01*
X158025646Y-39010147D01*
X158173216Y-38911544D01*
X158337188Y-38843624D01*
X158486488Y-38813927D01*
X158511258Y-38809000D01*
X158688742Y-38809000D01*
X158713512Y-38813927D01*
G37*
G36*
X128233512Y-38813927D02*
G01*
X128382812Y-38843624D01*
X128546784Y-38911544D01*
X128694354Y-39010147D01*
X128819853Y-39135646D01*
X128918456Y-39283216D01*
X128986376Y-39447188D01*
X129021000Y-39621259D01*
X129021000Y-39798741D01*
X128986376Y-39972812D01*
X128918456Y-40136784D01*
X128819853Y-40284354D01*
X128694354Y-40409853D01*
X128546784Y-40508456D01*
X128382812Y-40576376D01*
X128233512Y-40606073D01*
X128208742Y-40611000D01*
X128031258Y-40611000D01*
X128006488Y-40606073D01*
X127857188Y-40576376D01*
X127693216Y-40508456D01*
X127545646Y-40409853D01*
X127420147Y-40284354D01*
X127321544Y-40136784D01*
X127253624Y-39972812D01*
X127219000Y-39798741D01*
X127219000Y-39621259D01*
X127253624Y-39447188D01*
X127321544Y-39283216D01*
X127420147Y-39135646D01*
X127545646Y-39010147D01*
X127693216Y-38911544D01*
X127857188Y-38843624D01*
X128006488Y-38813927D01*
X128031258Y-38809000D01*
X128208742Y-38809000D01*
X128233512Y-38813927D01*
G37*
G36*
X156173512Y-38813927D02*
G01*
X156322812Y-38843624D01*
X156486784Y-38911544D01*
X156634354Y-39010147D01*
X156759853Y-39135646D01*
X156858456Y-39283216D01*
X156926376Y-39447188D01*
X156961000Y-39621259D01*
X156961000Y-39798741D01*
X156926376Y-39972812D01*
X156858456Y-40136784D01*
X156759853Y-40284354D01*
X156634354Y-40409853D01*
X156486784Y-40508456D01*
X156322812Y-40576376D01*
X156173512Y-40606073D01*
X156148742Y-40611000D01*
X155971258Y-40611000D01*
X155946488Y-40606073D01*
X155797188Y-40576376D01*
X155633216Y-40508456D01*
X155485646Y-40409853D01*
X155360147Y-40284354D01*
X155261544Y-40136784D01*
X155193624Y-39972812D01*
X155159000Y-39798741D01*
X155159000Y-39621259D01*
X155193624Y-39447188D01*
X155261544Y-39283216D01*
X155360147Y-39135646D01*
X155485646Y-39010147D01*
X155633216Y-38911544D01*
X155797188Y-38843624D01*
X155946488Y-38813927D01*
X155971258Y-38809000D01*
X156148742Y-38809000D01*
X156173512Y-38813927D01*
G37*
G36*
X138393512Y-38813927D02*
G01*
X138542812Y-38843624D01*
X138706784Y-38911544D01*
X138854354Y-39010147D01*
X138979853Y-39135646D01*
X139078456Y-39283216D01*
X139146376Y-39447188D01*
X139181000Y-39621259D01*
X139181000Y-39798741D01*
X139146376Y-39972812D01*
X139078456Y-40136784D01*
X138979853Y-40284354D01*
X138854354Y-40409853D01*
X138706784Y-40508456D01*
X138542812Y-40576376D01*
X138393512Y-40606073D01*
X138368742Y-40611000D01*
X138191258Y-40611000D01*
X138166488Y-40606073D01*
X138017188Y-40576376D01*
X137853216Y-40508456D01*
X137705646Y-40409853D01*
X137580147Y-40284354D01*
X137481544Y-40136784D01*
X137413624Y-39972812D01*
X137379000Y-39798741D01*
X137379000Y-39621259D01*
X137413624Y-39447188D01*
X137481544Y-39283216D01*
X137580147Y-39135646D01*
X137705646Y-39010147D01*
X137853216Y-38911544D01*
X138017188Y-38843624D01*
X138166488Y-38813927D01*
X138191258Y-38809000D01*
X138368742Y-38809000D01*
X138393512Y-38813927D01*
G37*
G36*
X101224549Y-37711116D02*
G01*
X101335734Y-37733232D01*
X101545203Y-37819997D01*
X101733720Y-37945960D01*
X101894040Y-38106280D01*
X102020003Y-38294797D01*
X102106768Y-38504266D01*
X102151000Y-38726636D01*
X102151000Y-38953364D01*
X102106768Y-39175734D01*
X102020003Y-39385203D01*
X101894040Y-39573720D01*
X101733720Y-39734040D01*
X101545203Y-39860003D01*
X101545202Y-39860004D01*
X101545201Y-39860004D01*
X101483850Y-39885416D01*
X101335734Y-39946768D01*
X101224549Y-39968884D01*
X101113365Y-39991000D01*
X100886635Y-39991000D01*
X100775451Y-39968884D01*
X100664266Y-39946768D01*
X100516150Y-39885416D01*
X100454799Y-39860004D01*
X100454798Y-39860004D01*
X100454797Y-39860003D01*
X100266280Y-39734040D01*
X100105960Y-39573720D01*
X99979997Y-39385203D01*
X99893232Y-39175734D01*
X99849000Y-38953364D01*
X99849000Y-38726636D01*
X99893232Y-38504266D01*
X99979997Y-38294797D01*
X100105960Y-38106280D01*
X100266280Y-37945960D01*
X100454797Y-37819997D01*
X100664266Y-37733232D01*
X100775451Y-37711116D01*
X100886635Y-37689000D01*
X101113365Y-37689000D01*
X101224549Y-37711116D01*
G37*
M02*
