G04 #@! TF.GenerationSoftware,KiCad,Pcbnew,(5.1.5)-3*
G04 #@! TF.CreationDate,2022-02-09T23:25:39-03:00*
G04 #@! TF.ProjectId,envcity_pcb,656e7663-6974-4795-9f70-63622e6b6963,rev?*
G04 #@! TF.SameCoordinates,Original*
G04 #@! TF.FileFunction,Legend,Bot*
G04 #@! TF.FilePolarity,Positive*
%FSLAX46Y46*%
G04 Gerber Fmt 4.6, Leading zero omitted, Abs format (unit mm)*
G04 Created by KiCad (PCBNEW (5.1.5)-3) date 2022-02-09 23:25:39*
%MOMM*%
%LPD*%
G04 APERTURE LIST*
%ADD10C,0.150000*%
%ADD11C,0.010000*%
G04 APERTURE END LIST*
D10*
X138479047Y-93152380D02*
X138479047Y-92152380D01*
X138145714Y-92866666D01*
X137812380Y-92152380D01*
X137812380Y-93152380D01*
X136907619Y-93152380D02*
X136907619Y-92628571D01*
X136955238Y-92533333D01*
X137050476Y-92485714D01*
X137240952Y-92485714D01*
X137336190Y-92533333D01*
X136907619Y-93104761D02*
X137002857Y-93152380D01*
X137240952Y-93152380D01*
X137336190Y-93104761D01*
X137383809Y-93009523D01*
X137383809Y-92914285D01*
X137336190Y-92819047D01*
X137240952Y-92771428D01*
X137002857Y-92771428D01*
X136907619Y-92723809D01*
X136574285Y-92485714D02*
X136193333Y-92485714D01*
X136431428Y-92152380D02*
X136431428Y-93009523D01*
X136383809Y-93104761D01*
X136288571Y-93152380D01*
X136193333Y-93152380D01*
X135479047Y-93104761D02*
X135574285Y-93152380D01*
X135764761Y-93152380D01*
X135860000Y-93104761D01*
X135907619Y-93009523D01*
X135907619Y-92628571D01*
X135860000Y-92533333D01*
X135764761Y-92485714D01*
X135574285Y-92485714D01*
X135479047Y-92533333D01*
X135431428Y-92628571D01*
X135431428Y-92723809D01*
X135907619Y-92819047D01*
X134574285Y-92485714D02*
X134574285Y-93152380D01*
X135002857Y-92485714D02*
X135002857Y-93009523D01*
X134955238Y-93104761D01*
X134860000Y-93152380D01*
X134717142Y-93152380D01*
X134621904Y-93104761D01*
X134574285Y-93057142D01*
X134145714Y-93104761D02*
X134050476Y-93152380D01*
X133860000Y-93152380D01*
X133764761Y-93104761D01*
X133717142Y-93009523D01*
X133717142Y-92961904D01*
X133764761Y-92866666D01*
X133860000Y-92819047D01*
X134002857Y-92819047D01*
X134098095Y-92771428D01*
X134145714Y-92676190D01*
X134145714Y-92628571D01*
X134098095Y-92533333D01*
X134002857Y-92485714D01*
X133860000Y-92485714D01*
X133764761Y-92533333D01*
X132526666Y-93152380D02*
X132526666Y-92152380D01*
X132193333Y-92866666D01*
X131860000Y-92152380D01*
X131860000Y-93152380D01*
X131383809Y-93057142D02*
X131336190Y-93104761D01*
X131383809Y-93152380D01*
X131431428Y-93104761D01*
X131383809Y-93057142D01*
X131383809Y-93152380D01*
X129574285Y-93152380D02*
X129907619Y-92676190D01*
X130145714Y-93152380D02*
X130145714Y-92152380D01*
X129764761Y-92152380D01*
X129669523Y-92200000D01*
X129621904Y-92247619D01*
X129574285Y-92342857D01*
X129574285Y-92485714D01*
X129621904Y-92580952D01*
X129669523Y-92628571D01*
X129764761Y-92676190D01*
X130145714Y-92676190D01*
X129002857Y-93152380D02*
X129098095Y-93104761D01*
X129145714Y-93057142D01*
X129193333Y-92961904D01*
X129193333Y-92676190D01*
X129145714Y-92580952D01*
X129098095Y-92533333D01*
X129002857Y-92485714D01*
X128860000Y-92485714D01*
X128764761Y-92533333D01*
X128717142Y-92580952D01*
X128669523Y-92676190D01*
X128669523Y-92961904D01*
X128717142Y-93057142D01*
X128764761Y-93104761D01*
X128860000Y-93152380D01*
X129002857Y-93152380D01*
X128240952Y-92485714D02*
X128240952Y-93152380D01*
X128240952Y-92580952D02*
X128193333Y-92533333D01*
X128098095Y-92485714D01*
X127955238Y-92485714D01*
X127860000Y-92533333D01*
X127812380Y-92628571D01*
X127812380Y-93152380D01*
X126907619Y-93104761D02*
X127002857Y-93152380D01*
X127193333Y-93152380D01*
X127288571Y-93104761D01*
X127336190Y-93057142D01*
X127383809Y-92961904D01*
X127383809Y-92676190D01*
X127336190Y-92580952D01*
X127288571Y-92533333D01*
X127193333Y-92485714D01*
X127002857Y-92485714D01*
X126907619Y-92533333D01*
X126050476Y-93152380D02*
X126050476Y-92628571D01*
X126098095Y-92533333D01*
X126193333Y-92485714D01*
X126383809Y-92485714D01*
X126479047Y-92533333D01*
X126050476Y-93104761D02*
X126145714Y-93152380D01*
X126383809Y-93152380D01*
X126479047Y-93104761D01*
X126526666Y-93009523D01*
X126526666Y-92914285D01*
X126479047Y-92819047D01*
X126383809Y-92771428D01*
X126145714Y-92771428D01*
X126050476Y-92723809D01*
X125145714Y-92485714D02*
X125145714Y-93295238D01*
X125193333Y-93390476D01*
X125240952Y-93438095D01*
X125336190Y-93485714D01*
X125479047Y-93485714D01*
X125574285Y-93438095D01*
X125145714Y-93104761D02*
X125240952Y-93152380D01*
X125431428Y-93152380D01*
X125526666Y-93104761D01*
X125574285Y-93057142D01*
X125621904Y-92961904D01*
X125621904Y-92676190D01*
X125574285Y-92580952D01*
X125526666Y-92533333D01*
X125431428Y-92485714D01*
X125240952Y-92485714D01*
X125145714Y-92533333D01*
X124526666Y-93152380D02*
X124621904Y-93104761D01*
X124669523Y-93009523D01*
X124669523Y-92152380D01*
X124145714Y-93152380D02*
X124145714Y-92485714D01*
X124145714Y-92152380D02*
X124193333Y-92200000D01*
X124145714Y-92247619D01*
X124098095Y-92200000D01*
X124145714Y-92152380D01*
X124145714Y-92247619D01*
X123526666Y-93152380D02*
X123621904Y-93104761D01*
X123669523Y-93057142D01*
X123717142Y-92961904D01*
X123717142Y-92676190D01*
X123669523Y-92580952D01*
X123621904Y-92533333D01*
X123526666Y-92485714D01*
X123383809Y-92485714D01*
X123288571Y-92533333D01*
X123240952Y-92580952D01*
X123193333Y-92676190D01*
X123193333Y-92961904D01*
X123240952Y-93057142D01*
X123288571Y-93104761D01*
X123383809Y-93152380D01*
X123526666Y-93152380D01*
X137931428Y-94802380D02*
X137931428Y-93802380D01*
X137598095Y-94516666D01*
X137264761Y-93802380D01*
X137264761Y-94802380D01*
X136360000Y-94802380D02*
X136360000Y-94278571D01*
X136407619Y-94183333D01*
X136502857Y-94135714D01*
X136693333Y-94135714D01*
X136788571Y-94183333D01*
X136360000Y-94754761D02*
X136455238Y-94802380D01*
X136693333Y-94802380D01*
X136788571Y-94754761D01*
X136836190Y-94659523D01*
X136836190Y-94564285D01*
X136788571Y-94469047D01*
X136693333Y-94421428D01*
X136455238Y-94421428D01*
X136360000Y-94373809D01*
X135883809Y-94802380D02*
X135883809Y-94135714D01*
X135883809Y-94326190D02*
X135836190Y-94230952D01*
X135788571Y-94183333D01*
X135693333Y-94135714D01*
X135598095Y-94135714D01*
X134836190Y-94754761D02*
X134931428Y-94802380D01*
X135121904Y-94802380D01*
X135217142Y-94754761D01*
X135264761Y-94707142D01*
X135312380Y-94611904D01*
X135312380Y-94326190D01*
X135264761Y-94230952D01*
X135217142Y-94183333D01*
X135121904Y-94135714D01*
X134931428Y-94135714D01*
X134836190Y-94183333D01*
X134407619Y-94802380D02*
X134407619Y-94135714D01*
X134407619Y-93802380D02*
X134455238Y-93850000D01*
X134407619Y-93897619D01*
X134360000Y-93850000D01*
X134407619Y-93802380D01*
X134407619Y-93897619D01*
X133788571Y-94802380D02*
X133883809Y-94754761D01*
X133931428Y-94707142D01*
X133979047Y-94611904D01*
X133979047Y-94326190D01*
X133931428Y-94230952D01*
X133883809Y-94183333D01*
X133788571Y-94135714D01*
X133645714Y-94135714D01*
X133550476Y-94183333D01*
X133502857Y-94230952D01*
X133455238Y-94326190D01*
X133455238Y-94611904D01*
X133502857Y-94707142D01*
X133550476Y-94754761D01*
X133645714Y-94802380D01*
X133788571Y-94802380D01*
X132312380Y-94754761D02*
X132169523Y-94802380D01*
X131931428Y-94802380D01*
X131836190Y-94754761D01*
X131788571Y-94707142D01*
X131740952Y-94611904D01*
X131740952Y-94516666D01*
X131788571Y-94421428D01*
X131836190Y-94373809D01*
X131931428Y-94326190D01*
X132121904Y-94278571D01*
X132217142Y-94230952D01*
X132264761Y-94183333D01*
X132312380Y-94088095D01*
X132312380Y-93992857D01*
X132264761Y-93897619D01*
X132217142Y-93850000D01*
X132121904Y-93802380D01*
X131883809Y-93802380D01*
X131740952Y-93850000D01*
X131312380Y-94707142D02*
X131264761Y-94754761D01*
X131312380Y-94802380D01*
X131360000Y-94754761D01*
X131312380Y-94707142D01*
X131312380Y-94802380D01*
X129883809Y-93802380D02*
X129693333Y-93802380D01*
X129598095Y-93850000D01*
X129502857Y-93945238D01*
X129455238Y-94135714D01*
X129455238Y-94469047D01*
X129502857Y-94659523D01*
X129598095Y-94754761D01*
X129693333Y-94802380D01*
X129883809Y-94802380D01*
X129979047Y-94754761D01*
X130074285Y-94659523D01*
X130121904Y-94469047D01*
X130121904Y-94135714D01*
X130074285Y-93945238D01*
X129979047Y-93850000D01*
X129883809Y-93802380D01*
X129121904Y-94135714D02*
X128883809Y-94802380D01*
X128645714Y-94135714D02*
X128883809Y-94802380D01*
X128979047Y-95040476D01*
X129026666Y-95088095D01*
X129121904Y-95135714D01*
X127836190Y-94802380D02*
X127836190Y-94278571D01*
X127883809Y-94183333D01*
X127979047Y-94135714D01*
X128169523Y-94135714D01*
X128264761Y-94183333D01*
X127836190Y-94754761D02*
X127931428Y-94802380D01*
X128169523Y-94802380D01*
X128264761Y-94754761D01*
X128312380Y-94659523D01*
X128312380Y-94564285D01*
X128264761Y-94469047D01*
X128169523Y-94421428D01*
X127931428Y-94421428D01*
X127836190Y-94373809D01*
X127360000Y-94802380D02*
X127360000Y-94135714D01*
X127360000Y-94230952D02*
X127312380Y-94183333D01*
X127217142Y-94135714D01*
X127074285Y-94135714D01*
X126979047Y-94183333D01*
X126931428Y-94278571D01*
X126931428Y-94802380D01*
X126931428Y-94278571D02*
X126883809Y-94183333D01*
X126788571Y-94135714D01*
X126645714Y-94135714D01*
X126550476Y-94183333D01*
X126502857Y-94278571D01*
X126502857Y-94802380D01*
X125598095Y-94802380D02*
X125598095Y-94278571D01*
X125645714Y-94183333D01*
X125740952Y-94135714D01*
X125931428Y-94135714D01*
X126026666Y-94183333D01*
X125598095Y-94754761D02*
X125693333Y-94802380D01*
X125931428Y-94802380D01*
X126026666Y-94754761D01*
X126074285Y-94659523D01*
X126074285Y-94564285D01*
X126026666Y-94469047D01*
X125931428Y-94421428D01*
X125693333Y-94421428D01*
X125598095Y-94373809D01*
X124693333Y-94802380D02*
X124693333Y-93802380D01*
X124693333Y-94754761D02*
X124788571Y-94802380D01*
X124979047Y-94802380D01*
X125074285Y-94754761D01*
X125121904Y-94707142D01*
X125169523Y-94611904D01*
X125169523Y-94326190D01*
X125121904Y-94230952D01*
X125074285Y-94183333D01*
X124979047Y-94135714D01*
X124788571Y-94135714D01*
X124693333Y-94183333D01*
X123788571Y-94802380D02*
X123788571Y-94278571D01*
X123836190Y-94183333D01*
X123931428Y-94135714D01*
X124121904Y-94135714D01*
X124217142Y-94183333D01*
X123788571Y-94754761D02*
X123883809Y-94802380D01*
X124121904Y-94802380D01*
X124217142Y-94754761D01*
X124264761Y-94659523D01*
X124264761Y-94564285D01*
X124217142Y-94469047D01*
X124121904Y-94421428D01*
X123883809Y-94421428D01*
X123788571Y-94373809D01*
X137502857Y-95928571D02*
X137169523Y-95928571D01*
X137026666Y-96452380D02*
X137502857Y-96452380D01*
X137502857Y-95452380D01*
X137026666Y-95452380D01*
X136169523Y-96452380D02*
X136169523Y-95452380D01*
X136169523Y-96404761D02*
X136264761Y-96452380D01*
X136455238Y-96452380D01*
X136550476Y-96404761D01*
X136598095Y-96357142D01*
X136645714Y-96261904D01*
X136645714Y-95976190D01*
X136598095Y-95880952D01*
X136550476Y-95833333D01*
X136455238Y-95785714D01*
X136264761Y-95785714D01*
X136169523Y-95833333D01*
X135740952Y-96404761D02*
X135645714Y-96452380D01*
X135455238Y-96452380D01*
X135360000Y-96404761D01*
X135312380Y-96309523D01*
X135312380Y-96261904D01*
X135360000Y-96166666D01*
X135455238Y-96119047D01*
X135598095Y-96119047D01*
X135693333Y-96071428D01*
X135740952Y-95976190D01*
X135740952Y-95928571D01*
X135693333Y-95833333D01*
X135598095Y-95785714D01*
X135455238Y-95785714D01*
X135360000Y-95833333D01*
X134740952Y-96452380D02*
X134836190Y-96404761D01*
X134883809Y-96357142D01*
X134931428Y-96261904D01*
X134931428Y-95976190D01*
X134883809Y-95880952D01*
X134836190Y-95833333D01*
X134740952Y-95785714D01*
X134598095Y-95785714D01*
X134502857Y-95833333D01*
X134455238Y-95880952D01*
X134407619Y-95976190D01*
X134407619Y-96261904D01*
X134455238Y-96357142D01*
X134502857Y-96404761D01*
X134598095Y-96452380D01*
X134740952Y-96452380D01*
X133979047Y-95785714D02*
X133979047Y-96452380D01*
X133979047Y-95880952D02*
X133931428Y-95833333D01*
X133836190Y-95785714D01*
X133693333Y-95785714D01*
X133598095Y-95833333D01*
X133550476Y-95928571D01*
X133550476Y-96452380D01*
X132455238Y-95452380D02*
X131883809Y-95452380D01*
X132169523Y-96452380D02*
X132169523Y-95452380D01*
X131550476Y-96357142D02*
X131502857Y-96404761D01*
X131550476Y-96452380D01*
X131598095Y-96404761D01*
X131550476Y-96357142D01*
X131550476Y-96452380D01*
X129740952Y-96357142D02*
X129788571Y-96404761D01*
X129931428Y-96452380D01*
X130026666Y-96452380D01*
X130169523Y-96404761D01*
X130264761Y-96309523D01*
X130312380Y-96214285D01*
X130360000Y-96023809D01*
X130360000Y-95880952D01*
X130312380Y-95690476D01*
X130264761Y-95595238D01*
X130169523Y-95500000D01*
X130026666Y-95452380D01*
X129931428Y-95452380D01*
X129788571Y-95500000D01*
X129740952Y-95547619D01*
X128883809Y-96452380D02*
X128883809Y-95928571D01*
X128931428Y-95833333D01*
X129026666Y-95785714D01*
X129217142Y-95785714D01*
X129312380Y-95833333D01*
X128883809Y-96404761D02*
X128979047Y-96452380D01*
X129217142Y-96452380D01*
X129312380Y-96404761D01*
X129360000Y-96309523D01*
X129360000Y-96214285D01*
X129312380Y-96119047D01*
X129217142Y-96071428D01*
X128979047Y-96071428D01*
X128883809Y-96023809D01*
X128407619Y-96452380D02*
X128407619Y-95785714D01*
X128407619Y-95880952D02*
X128360000Y-95833333D01*
X128264761Y-95785714D01*
X128121904Y-95785714D01*
X128026666Y-95833333D01*
X127979047Y-95928571D01*
X127979047Y-96452380D01*
X127979047Y-95928571D02*
X127931428Y-95833333D01*
X127836190Y-95785714D01*
X127693333Y-95785714D01*
X127598095Y-95833333D01*
X127550476Y-95928571D01*
X127550476Y-96452380D01*
X126645714Y-96452380D02*
X126645714Y-95928571D01*
X126693333Y-95833333D01*
X126788571Y-95785714D01*
X126979047Y-95785714D01*
X127074285Y-95833333D01*
X126645714Y-96404761D02*
X126740952Y-96452380D01*
X126979047Y-96452380D01*
X127074285Y-96404761D01*
X127121904Y-96309523D01*
X127121904Y-96214285D01*
X127074285Y-96119047D01*
X126979047Y-96071428D01*
X126740952Y-96071428D01*
X126645714Y-96023809D01*
X126169523Y-96452380D02*
X126169523Y-95785714D01*
X126169523Y-95976190D02*
X126121904Y-95880952D01*
X126074285Y-95833333D01*
X125979047Y-95785714D01*
X125883809Y-95785714D01*
X125121904Y-95785714D02*
X125121904Y-96595238D01*
X125169523Y-96690476D01*
X125217142Y-96738095D01*
X125312380Y-96785714D01*
X125455238Y-96785714D01*
X125550476Y-96738095D01*
X125121904Y-96404761D02*
X125217142Y-96452380D01*
X125407619Y-96452380D01*
X125502857Y-96404761D01*
X125550476Y-96357142D01*
X125598095Y-96261904D01*
X125598095Y-95976190D01*
X125550476Y-95880952D01*
X125502857Y-95833333D01*
X125407619Y-95785714D01*
X125217142Y-95785714D01*
X125121904Y-95833333D01*
X124502857Y-96452380D02*
X124598095Y-96404761D01*
X124645714Y-96357142D01*
X124693333Y-96261904D01*
X124693333Y-95976190D01*
X124645714Y-95880952D01*
X124598095Y-95833333D01*
X124502857Y-95785714D01*
X124360000Y-95785714D01*
X124264761Y-95833333D01*
X124217142Y-95880952D01*
X124169523Y-95976190D01*
X124169523Y-96261904D01*
X124217142Y-96357142D01*
X124264761Y-96404761D01*
X124360000Y-96452380D01*
X124502857Y-96452380D01*
X153074285Y-97102380D02*
X153074285Y-97911904D01*
X153026666Y-98007142D01*
X152979047Y-98054761D01*
X152883809Y-98102380D01*
X152693333Y-98102380D01*
X152598095Y-98054761D01*
X152550476Y-98007142D01*
X152502857Y-97911904D01*
X152502857Y-97102380D01*
X152026666Y-97435714D02*
X152026666Y-98102380D01*
X152026666Y-97530952D02*
X151979047Y-97483333D01*
X151883809Y-97435714D01*
X151740952Y-97435714D01*
X151645714Y-97483333D01*
X151598095Y-97578571D01*
X151598095Y-98102380D01*
X151121904Y-98102380D02*
X151121904Y-97435714D01*
X151121904Y-97102380D02*
X151169523Y-97150000D01*
X151121904Y-97197619D01*
X151074285Y-97150000D01*
X151121904Y-97102380D01*
X151121904Y-97197619D01*
X150740952Y-97435714D02*
X150502857Y-98102380D01*
X150264761Y-97435714D01*
X149502857Y-98054761D02*
X149598095Y-98102380D01*
X149788571Y-98102380D01*
X149883809Y-98054761D01*
X149931428Y-97959523D01*
X149931428Y-97578571D01*
X149883809Y-97483333D01*
X149788571Y-97435714D01*
X149598095Y-97435714D01*
X149502857Y-97483333D01*
X149455238Y-97578571D01*
X149455238Y-97673809D01*
X149931428Y-97769047D01*
X149026666Y-98102380D02*
X149026666Y-97435714D01*
X149026666Y-97626190D02*
X148979047Y-97530952D01*
X148931428Y-97483333D01*
X148836190Y-97435714D01*
X148740952Y-97435714D01*
X148455238Y-98054761D02*
X148360000Y-98102380D01*
X148169523Y-98102380D01*
X148074285Y-98054761D01*
X148026666Y-97959523D01*
X148026666Y-97911904D01*
X148074285Y-97816666D01*
X148169523Y-97769047D01*
X148312380Y-97769047D01*
X148407619Y-97721428D01*
X148455238Y-97626190D01*
X148455238Y-97578571D01*
X148407619Y-97483333D01*
X148312380Y-97435714D01*
X148169523Y-97435714D01*
X148074285Y-97483333D01*
X147598095Y-98102380D02*
X147598095Y-97435714D01*
X147598095Y-97102380D02*
X147645714Y-97150000D01*
X147598095Y-97197619D01*
X147550476Y-97150000D01*
X147598095Y-97102380D01*
X147598095Y-97197619D01*
X146693333Y-98102380D02*
X146693333Y-97102380D01*
X146693333Y-98054761D02*
X146788571Y-98102380D01*
X146979047Y-98102380D01*
X147074285Y-98054761D01*
X147121904Y-98007142D01*
X147169523Y-97911904D01*
X147169523Y-97626190D01*
X147121904Y-97530952D01*
X147074285Y-97483333D01*
X146979047Y-97435714D01*
X146788571Y-97435714D01*
X146693333Y-97483333D01*
X145788571Y-98102380D02*
X145788571Y-97578571D01*
X145836190Y-97483333D01*
X145931428Y-97435714D01*
X146121904Y-97435714D01*
X146217142Y-97483333D01*
X145788571Y-98054761D02*
X145883809Y-98102380D01*
X146121904Y-98102380D01*
X146217142Y-98054761D01*
X146264761Y-97959523D01*
X146264761Y-97864285D01*
X146217142Y-97769047D01*
X146121904Y-97721428D01*
X145883809Y-97721428D01*
X145788571Y-97673809D01*
X144883809Y-98102380D02*
X144883809Y-97102380D01*
X144883809Y-98054761D02*
X144979047Y-98102380D01*
X145169523Y-98102380D01*
X145264761Y-98054761D01*
X145312380Y-98007142D01*
X145360000Y-97911904D01*
X145360000Y-97626190D01*
X145312380Y-97530952D01*
X145264761Y-97483333D01*
X145169523Y-97435714D01*
X144979047Y-97435714D01*
X144883809Y-97483333D01*
X144026666Y-98054761D02*
X144121904Y-98102380D01*
X144312380Y-98102380D01*
X144407619Y-98054761D01*
X144455238Y-97959523D01*
X144455238Y-97578571D01*
X144407619Y-97483333D01*
X144312380Y-97435714D01*
X144121904Y-97435714D01*
X144026666Y-97483333D01*
X143979047Y-97578571D01*
X143979047Y-97673809D01*
X144455238Y-97769047D01*
X142788571Y-98102380D02*
X142788571Y-97102380D01*
X142407619Y-97102380D01*
X142312380Y-97150000D01*
X142264761Y-97197619D01*
X142217142Y-97292857D01*
X142217142Y-97435714D01*
X142264761Y-97530952D01*
X142312380Y-97578571D01*
X142407619Y-97626190D01*
X142788571Y-97626190D01*
X141360000Y-98102380D02*
X141360000Y-97578571D01*
X141407619Y-97483333D01*
X141502857Y-97435714D01*
X141693333Y-97435714D01*
X141788571Y-97483333D01*
X141360000Y-98054761D02*
X141455238Y-98102380D01*
X141693333Y-98102380D01*
X141788571Y-98054761D01*
X141836190Y-97959523D01*
X141836190Y-97864285D01*
X141788571Y-97769047D01*
X141693333Y-97721428D01*
X141455238Y-97721428D01*
X141360000Y-97673809D01*
X140883809Y-98102380D02*
X140883809Y-97435714D01*
X140883809Y-97626190D02*
X140836190Y-97530952D01*
X140788571Y-97483333D01*
X140693333Y-97435714D01*
X140598095Y-97435714D01*
X139836190Y-98102380D02*
X139836190Y-97578571D01*
X139883809Y-97483333D01*
X139979047Y-97435714D01*
X140169523Y-97435714D01*
X140264761Y-97483333D01*
X139836190Y-98054761D02*
X139931428Y-98102380D01*
X140169523Y-98102380D01*
X140264761Y-98054761D01*
X140312380Y-97959523D01*
X140312380Y-97864285D01*
X140264761Y-97769047D01*
X140169523Y-97721428D01*
X139931428Y-97721428D01*
X139836190Y-97673809D01*
X139360000Y-97435714D02*
X139360000Y-98102380D01*
X139360000Y-97530952D02*
X139312380Y-97483333D01*
X139217142Y-97435714D01*
X139074285Y-97435714D01*
X138979047Y-97483333D01*
X138931428Y-97578571D01*
X138931428Y-98102380D01*
X138026666Y-98102380D02*
X138026666Y-97578571D01*
X138074285Y-97483333D01*
X138169523Y-97435714D01*
X138360000Y-97435714D01*
X138455238Y-97483333D01*
X138026666Y-98054761D02*
X138121904Y-98102380D01*
X138360000Y-98102380D01*
X138455238Y-98054761D01*
X138502857Y-97959523D01*
X138502857Y-97864285D01*
X138455238Y-97769047D01*
X138360000Y-97721428D01*
X138121904Y-97721428D01*
X138026666Y-97673809D01*
X137169523Y-98054761D02*
X137264761Y-98102380D01*
X137455238Y-98102380D01*
X137550476Y-98054761D01*
X137598095Y-97959523D01*
X137598095Y-97578571D01*
X137550476Y-97483333D01*
X137455238Y-97435714D01*
X137264761Y-97435714D01*
X137169523Y-97483333D01*
X137121904Y-97578571D01*
X137121904Y-97673809D01*
X137598095Y-97769047D01*
X136693333Y-97435714D02*
X136693333Y-98102380D01*
X136693333Y-97530952D02*
X136645714Y-97483333D01*
X136550476Y-97435714D01*
X136407619Y-97435714D01*
X136312380Y-97483333D01*
X136264761Y-97578571D01*
X136264761Y-98102380D01*
X135836190Y-98054761D02*
X135740952Y-98102380D01*
X135550476Y-98102380D01*
X135455238Y-98054761D01*
X135407619Y-97959523D01*
X135407619Y-97911904D01*
X135455238Y-97816666D01*
X135550476Y-97769047D01*
X135693333Y-97769047D01*
X135788571Y-97721428D01*
X135836190Y-97626190D01*
X135836190Y-97578571D01*
X135788571Y-97483333D01*
X135693333Y-97435714D01*
X135550476Y-97435714D01*
X135455238Y-97483333D01*
X134598095Y-98054761D02*
X134693333Y-98102380D01*
X134883809Y-98102380D01*
X134979047Y-98054761D01*
X135026666Y-97959523D01*
X135026666Y-97578571D01*
X134979047Y-97483333D01*
X134883809Y-97435714D01*
X134693333Y-97435714D01*
X134598095Y-97483333D01*
X134550476Y-97578571D01*
X134550476Y-97673809D01*
X135026666Y-97769047D01*
X132931428Y-98102380D02*
X132931428Y-97102380D01*
X132931428Y-98054761D02*
X133026666Y-98102380D01*
X133217142Y-98102380D01*
X133312380Y-98054761D01*
X133360000Y-98007142D01*
X133407619Y-97911904D01*
X133407619Y-97626190D01*
X133360000Y-97530952D01*
X133312380Y-97483333D01*
X133217142Y-97435714D01*
X133026666Y-97435714D01*
X132931428Y-97483333D01*
X132312380Y-98102380D02*
X132407619Y-98054761D01*
X132455238Y-98007142D01*
X132502857Y-97911904D01*
X132502857Y-97626190D01*
X132455238Y-97530952D01*
X132407619Y-97483333D01*
X132312380Y-97435714D01*
X132169523Y-97435714D01*
X132074285Y-97483333D01*
X132026666Y-97530952D01*
X131979047Y-97626190D01*
X131979047Y-97911904D01*
X132026666Y-98007142D01*
X132074285Y-98054761D01*
X132169523Y-98102380D01*
X132312380Y-98102380D01*
X130598095Y-97102380D02*
X130407619Y-97102380D01*
X130312380Y-97150000D01*
X130217142Y-97245238D01*
X130169523Y-97435714D01*
X130169523Y-97769047D01*
X130217142Y-97959523D01*
X130312380Y-98054761D01*
X130407619Y-98102380D01*
X130598095Y-98102380D01*
X130693333Y-98054761D01*
X130788571Y-97959523D01*
X130836190Y-97769047D01*
X130836190Y-97435714D01*
X130788571Y-97245238D01*
X130693333Y-97150000D01*
X130598095Y-97102380D01*
X129360000Y-98054761D02*
X129455238Y-98102380D01*
X129645714Y-98102380D01*
X129740952Y-98054761D01*
X129788571Y-97959523D01*
X129788571Y-97578571D01*
X129740952Y-97483333D01*
X129645714Y-97435714D01*
X129455238Y-97435714D01*
X129360000Y-97483333D01*
X129312380Y-97578571D01*
X129312380Y-97673809D01*
X129788571Y-97769047D01*
X128931428Y-98054761D02*
X128836190Y-98102380D01*
X128645714Y-98102380D01*
X128550476Y-98054761D01*
X128502857Y-97959523D01*
X128502857Y-97911904D01*
X128550476Y-97816666D01*
X128645714Y-97769047D01*
X128788571Y-97769047D01*
X128883809Y-97721428D01*
X128931428Y-97626190D01*
X128931428Y-97578571D01*
X128883809Y-97483333D01*
X128788571Y-97435714D01*
X128645714Y-97435714D01*
X128550476Y-97483333D01*
X128217142Y-97435714D02*
X127836190Y-97435714D01*
X128074285Y-97102380D02*
X128074285Y-97959523D01*
X128026666Y-98054761D01*
X127931428Y-98102380D01*
X127836190Y-98102380D01*
X127121904Y-98054761D02*
X127217142Y-98102380D01*
X127407619Y-98102380D01*
X127502857Y-98054761D01*
X127550476Y-97959523D01*
X127550476Y-97578571D01*
X127502857Y-97483333D01*
X127407619Y-97435714D01*
X127217142Y-97435714D01*
X127121904Y-97483333D01*
X127074285Y-97578571D01*
X127074285Y-97673809D01*
X127550476Y-97769047D01*
X125455238Y-98102380D02*
X125455238Y-97102380D01*
X125455238Y-98054761D02*
X125550476Y-98102380D01*
X125740952Y-98102380D01*
X125836190Y-98054761D01*
X125883809Y-98007142D01*
X125931428Y-97911904D01*
X125931428Y-97626190D01*
X125883809Y-97530952D01*
X125836190Y-97483333D01*
X125740952Y-97435714D01*
X125550476Y-97435714D01*
X125455238Y-97483333D01*
X124836190Y-98102380D02*
X124931428Y-98054761D01*
X124979047Y-98007142D01*
X125026666Y-97911904D01*
X125026666Y-97626190D01*
X124979047Y-97530952D01*
X124931428Y-97483333D01*
X124836190Y-97435714D01*
X124693333Y-97435714D01*
X124598095Y-97483333D01*
X124550476Y-97530952D01*
X124502857Y-97626190D01*
X124502857Y-97911904D01*
X124550476Y-98007142D01*
X124598095Y-98054761D01*
X124693333Y-98102380D01*
X124836190Y-98102380D01*
X123312380Y-98102380D02*
X123312380Y-97102380D01*
X122931428Y-97102380D01*
X122836190Y-97150000D01*
X122788571Y-97197619D01*
X122740952Y-97292857D01*
X122740952Y-97435714D01*
X122788571Y-97530952D01*
X122836190Y-97578571D01*
X122931428Y-97626190D01*
X123312380Y-97626190D01*
X121883809Y-98102380D02*
X121883809Y-97578571D01*
X121931428Y-97483333D01*
X122026666Y-97435714D01*
X122217142Y-97435714D01*
X122312380Y-97483333D01*
X121883809Y-98054761D02*
X121979047Y-98102380D01*
X122217142Y-98102380D01*
X122312380Y-98054761D01*
X122360000Y-97959523D01*
X122360000Y-97864285D01*
X122312380Y-97769047D01*
X122217142Y-97721428D01*
X121979047Y-97721428D01*
X121883809Y-97673809D01*
X121407619Y-98102380D02*
X121407619Y-97435714D01*
X121407619Y-97626190D02*
X121360000Y-97530952D01*
X121312380Y-97483333D01*
X121217142Y-97435714D01*
X121121904Y-97435714D01*
X120360000Y-98102380D02*
X120360000Y-97578571D01*
X120407619Y-97483333D01*
X120502857Y-97435714D01*
X120693333Y-97435714D01*
X120788571Y-97483333D01*
X120360000Y-98054761D02*
X120455238Y-98102380D01*
X120693333Y-98102380D01*
X120788571Y-98054761D01*
X120836190Y-97959523D01*
X120836190Y-97864285D01*
X120788571Y-97769047D01*
X120693333Y-97721428D01*
X120455238Y-97721428D01*
X120360000Y-97673809D01*
X119883809Y-97435714D02*
X119883809Y-98102380D01*
X119883809Y-97530952D02*
X119836190Y-97483333D01*
X119740952Y-97435714D01*
X119598095Y-97435714D01*
X119502857Y-97483333D01*
X119455238Y-97578571D01*
X119455238Y-98102380D01*
X118550476Y-98102380D02*
X118550476Y-97578571D01*
X118598095Y-97483333D01*
X118693333Y-97435714D01*
X118883809Y-97435714D01*
X118979047Y-97483333D01*
X118550476Y-98054761D02*
X118645714Y-98102380D01*
X118883809Y-98102380D01*
X118979047Y-98054761D01*
X119026666Y-97959523D01*
X119026666Y-97864285D01*
X118979047Y-97769047D01*
X118883809Y-97721428D01*
X118645714Y-97721428D01*
X118550476Y-97673809D01*
X118693333Y-97054761D02*
X118836190Y-97197619D01*
X117312380Y-97721428D02*
X116550476Y-97721428D01*
X115312380Y-97102380D02*
X115312380Y-97911904D01*
X115264761Y-98007142D01*
X115217142Y-98054761D01*
X115121904Y-98102380D01*
X114931428Y-98102380D01*
X114836190Y-98054761D01*
X114788571Y-98007142D01*
X114740952Y-97911904D01*
X114740952Y-97102380D01*
X114264761Y-98102380D02*
X114264761Y-97102380D01*
X113693333Y-98102380D01*
X113693333Y-97102380D01*
X113217142Y-98102380D02*
X113217142Y-97102380D01*
X112550476Y-97102380D02*
X112360000Y-97102380D01*
X112264761Y-97150000D01*
X112169523Y-97245238D01*
X112121904Y-97435714D01*
X112121904Y-97769047D01*
X112169523Y-97959523D01*
X112264761Y-98054761D01*
X112360000Y-98102380D01*
X112550476Y-98102380D01*
X112645714Y-98054761D01*
X112740952Y-97959523D01*
X112788571Y-97769047D01*
X112788571Y-97435714D01*
X112740952Y-97245238D01*
X112645714Y-97150000D01*
X112550476Y-97102380D01*
X111693333Y-97578571D02*
X111360000Y-97578571D01*
X111217142Y-98102380D02*
X111693333Y-98102380D01*
X111693333Y-97102380D01*
X111217142Y-97102380D01*
X110836190Y-98054761D02*
X110693333Y-98102380D01*
X110455238Y-98102380D01*
X110360000Y-98054761D01*
X110312380Y-98007142D01*
X110264761Y-97911904D01*
X110264761Y-97816666D01*
X110312380Y-97721428D01*
X110360000Y-97673809D01*
X110455238Y-97626190D01*
X110645714Y-97578571D01*
X110740952Y-97530952D01*
X110788571Y-97483333D01*
X110836190Y-97388095D01*
X110836190Y-97292857D01*
X110788571Y-97197619D01*
X110740952Y-97150000D01*
X110645714Y-97102380D01*
X110407619Y-97102380D01*
X110264761Y-97150000D01*
X109979047Y-97102380D02*
X109407619Y-97102380D01*
X109693333Y-98102380D02*
X109693333Y-97102380D01*
X109074285Y-97578571D02*
X108740952Y-97578571D01*
X108598095Y-98102380D02*
X109074285Y-98102380D01*
X109074285Y-97102380D01*
X108598095Y-97102380D01*
X151717142Y-98752380D02*
X151717142Y-99561904D01*
X151669523Y-99657142D01*
X151621904Y-99704761D01*
X151526666Y-99752380D01*
X151336190Y-99752380D01*
X151240952Y-99704761D01*
X151193333Y-99657142D01*
X151145714Y-99561904D01*
X151145714Y-98752380D01*
X150669523Y-99085714D02*
X150669523Y-99752380D01*
X150669523Y-99180952D02*
X150621904Y-99133333D01*
X150526666Y-99085714D01*
X150383809Y-99085714D01*
X150288571Y-99133333D01*
X150240952Y-99228571D01*
X150240952Y-99752380D01*
X149764761Y-99752380D02*
X149764761Y-99085714D01*
X149764761Y-98752380D02*
X149812380Y-98800000D01*
X149764761Y-98847619D01*
X149717142Y-98800000D01*
X149764761Y-98752380D01*
X149764761Y-98847619D01*
X149383809Y-99085714D02*
X149145714Y-99752380D01*
X148907619Y-99085714D01*
X148145714Y-99704761D02*
X148240952Y-99752380D01*
X148431428Y-99752380D01*
X148526666Y-99704761D01*
X148574285Y-99609523D01*
X148574285Y-99228571D01*
X148526666Y-99133333D01*
X148431428Y-99085714D01*
X148240952Y-99085714D01*
X148145714Y-99133333D01*
X148098095Y-99228571D01*
X148098095Y-99323809D01*
X148574285Y-99419047D01*
X147669523Y-99752380D02*
X147669523Y-99085714D01*
X147669523Y-99276190D02*
X147621904Y-99180952D01*
X147574285Y-99133333D01*
X147479047Y-99085714D01*
X147383809Y-99085714D01*
X147098095Y-99704761D02*
X147002857Y-99752380D01*
X146812380Y-99752380D01*
X146717142Y-99704761D01*
X146669523Y-99609523D01*
X146669523Y-99561904D01*
X146717142Y-99466666D01*
X146812380Y-99419047D01*
X146955238Y-99419047D01*
X147050476Y-99371428D01*
X147098095Y-99276190D01*
X147098095Y-99228571D01*
X147050476Y-99133333D01*
X146955238Y-99085714D01*
X146812380Y-99085714D01*
X146717142Y-99133333D01*
X146240952Y-99752380D02*
X146240952Y-99085714D01*
X146240952Y-98752380D02*
X146288571Y-98800000D01*
X146240952Y-98847619D01*
X146193333Y-98800000D01*
X146240952Y-98752380D01*
X146240952Y-98847619D01*
X145336190Y-99752380D02*
X145336190Y-98752380D01*
X145336190Y-99704761D02*
X145431428Y-99752380D01*
X145621904Y-99752380D01*
X145717142Y-99704761D01*
X145764761Y-99657142D01*
X145812380Y-99561904D01*
X145812380Y-99276190D01*
X145764761Y-99180952D01*
X145717142Y-99133333D01*
X145621904Y-99085714D01*
X145431428Y-99085714D01*
X145336190Y-99133333D01*
X144431428Y-99752380D02*
X144431428Y-99228571D01*
X144479047Y-99133333D01*
X144574285Y-99085714D01*
X144764761Y-99085714D01*
X144860000Y-99133333D01*
X144431428Y-99704761D02*
X144526666Y-99752380D01*
X144764761Y-99752380D01*
X144860000Y-99704761D01*
X144907619Y-99609523D01*
X144907619Y-99514285D01*
X144860000Y-99419047D01*
X144764761Y-99371428D01*
X144526666Y-99371428D01*
X144431428Y-99323809D01*
X143526666Y-99752380D02*
X143526666Y-98752380D01*
X143526666Y-99704761D02*
X143621904Y-99752380D01*
X143812380Y-99752380D01*
X143907619Y-99704761D01*
X143955238Y-99657142D01*
X144002857Y-99561904D01*
X144002857Y-99276190D01*
X143955238Y-99180952D01*
X143907619Y-99133333D01*
X143812380Y-99085714D01*
X143621904Y-99085714D01*
X143526666Y-99133333D01*
X142669523Y-99704761D02*
X142764761Y-99752380D01*
X142955238Y-99752380D01*
X143050476Y-99704761D01*
X143098095Y-99609523D01*
X143098095Y-99228571D01*
X143050476Y-99133333D01*
X142955238Y-99085714D01*
X142764761Y-99085714D01*
X142669523Y-99133333D01*
X142621904Y-99228571D01*
X142621904Y-99323809D01*
X143098095Y-99419047D01*
X141574285Y-98752380D02*
X141002857Y-98752380D01*
X141288571Y-99752380D02*
X141288571Y-98752380D01*
X140288571Y-99704761D02*
X140383809Y-99752380D01*
X140574285Y-99752380D01*
X140669523Y-99704761D01*
X140717142Y-99609523D01*
X140717142Y-99228571D01*
X140669523Y-99133333D01*
X140574285Y-99085714D01*
X140383809Y-99085714D01*
X140288571Y-99133333D01*
X140240952Y-99228571D01*
X140240952Y-99323809D01*
X140717142Y-99419047D01*
X139383809Y-99704761D02*
X139479047Y-99752380D01*
X139669523Y-99752380D01*
X139764761Y-99704761D01*
X139812380Y-99657142D01*
X139860000Y-99561904D01*
X139860000Y-99276190D01*
X139812380Y-99180952D01*
X139764761Y-99133333D01*
X139669523Y-99085714D01*
X139479047Y-99085714D01*
X139383809Y-99133333D01*
X138955238Y-99085714D02*
X138955238Y-99752380D01*
X138955238Y-99180952D02*
X138907619Y-99133333D01*
X138812380Y-99085714D01*
X138669523Y-99085714D01*
X138574285Y-99133333D01*
X138526666Y-99228571D01*
X138526666Y-99752380D01*
X137907619Y-99752380D02*
X138002857Y-99704761D01*
X138050476Y-99657142D01*
X138098095Y-99561904D01*
X138098095Y-99276190D01*
X138050476Y-99180952D01*
X138002857Y-99133333D01*
X137907619Y-99085714D01*
X137764761Y-99085714D01*
X137669523Y-99133333D01*
X137621904Y-99180952D01*
X137574285Y-99276190D01*
X137574285Y-99561904D01*
X137621904Y-99657142D01*
X137669523Y-99704761D01*
X137764761Y-99752380D01*
X137907619Y-99752380D01*
X137002857Y-99752380D02*
X137098095Y-99704761D01*
X137145714Y-99609523D01*
X137145714Y-98752380D01*
X136479047Y-99752380D02*
X136574285Y-99704761D01*
X136621904Y-99657142D01*
X136669523Y-99561904D01*
X136669523Y-99276190D01*
X136621904Y-99180952D01*
X136574285Y-99133333D01*
X136479047Y-99085714D01*
X136336190Y-99085714D01*
X136240952Y-99133333D01*
X136193333Y-99180952D01*
X136145714Y-99276190D01*
X136145714Y-99561904D01*
X136193333Y-99657142D01*
X136240952Y-99704761D01*
X136336190Y-99752380D01*
X136479047Y-99752380D01*
X136288571Y-98704761D02*
X136431428Y-98847619D01*
X135288571Y-99085714D02*
X135288571Y-99895238D01*
X135336190Y-99990476D01*
X135383809Y-100038095D01*
X135479047Y-100085714D01*
X135621904Y-100085714D01*
X135717142Y-100038095D01*
X135288571Y-99704761D02*
X135383809Y-99752380D01*
X135574285Y-99752380D01*
X135669523Y-99704761D01*
X135717142Y-99657142D01*
X135764761Y-99561904D01*
X135764761Y-99276190D01*
X135717142Y-99180952D01*
X135669523Y-99133333D01*
X135574285Y-99085714D01*
X135383809Y-99085714D01*
X135288571Y-99133333D01*
X134812380Y-99752380D02*
X134812380Y-99085714D01*
X134812380Y-98752380D02*
X134860000Y-98800000D01*
X134812380Y-98847619D01*
X134764761Y-98800000D01*
X134812380Y-98752380D01*
X134812380Y-98847619D01*
X133907619Y-99704761D02*
X134002857Y-99752380D01*
X134193333Y-99752380D01*
X134288571Y-99704761D01*
X134336190Y-99657142D01*
X134383809Y-99561904D01*
X134383809Y-99276190D01*
X134336190Y-99180952D01*
X134288571Y-99133333D01*
X134193333Y-99085714D01*
X134002857Y-99085714D01*
X133907619Y-99133333D01*
X133050476Y-99752380D02*
X133050476Y-99228571D01*
X133098095Y-99133333D01*
X133193333Y-99085714D01*
X133383809Y-99085714D01*
X133479047Y-99133333D01*
X133050476Y-99704761D02*
X133145714Y-99752380D01*
X133383809Y-99752380D01*
X133479047Y-99704761D01*
X133526666Y-99609523D01*
X133526666Y-99514285D01*
X133479047Y-99419047D01*
X133383809Y-99371428D01*
X133145714Y-99371428D01*
X133050476Y-99323809D01*
X131479047Y-99228571D02*
X131812380Y-99228571D01*
X131812380Y-99752380D02*
X131812380Y-98752380D01*
X131336190Y-98752380D01*
X130574285Y-99704761D02*
X130669523Y-99752380D01*
X130860000Y-99752380D01*
X130955238Y-99704761D01*
X131002857Y-99609523D01*
X131002857Y-99228571D01*
X130955238Y-99133333D01*
X130860000Y-99085714D01*
X130669523Y-99085714D01*
X130574285Y-99133333D01*
X130526666Y-99228571D01*
X130526666Y-99323809D01*
X131002857Y-99419047D01*
X129669523Y-99752380D02*
X129669523Y-98752380D01*
X129669523Y-99704761D02*
X129764761Y-99752380D01*
X129955238Y-99752380D01*
X130050476Y-99704761D01*
X130098095Y-99657142D01*
X130145714Y-99561904D01*
X130145714Y-99276190D01*
X130098095Y-99180952D01*
X130050476Y-99133333D01*
X129955238Y-99085714D01*
X129764761Y-99085714D01*
X129669523Y-99133333D01*
X128812380Y-99704761D02*
X128907619Y-99752380D01*
X129098095Y-99752380D01*
X129193333Y-99704761D01*
X129240952Y-99609523D01*
X129240952Y-99228571D01*
X129193333Y-99133333D01*
X129098095Y-99085714D01*
X128907619Y-99085714D01*
X128812380Y-99133333D01*
X128764761Y-99228571D01*
X128764761Y-99323809D01*
X129240952Y-99419047D01*
X128336190Y-99752380D02*
X128336190Y-99085714D01*
X128336190Y-99276190D02*
X128288571Y-99180952D01*
X128240952Y-99133333D01*
X128145714Y-99085714D01*
X128050476Y-99085714D01*
X127288571Y-99752380D02*
X127288571Y-99228571D01*
X127336190Y-99133333D01*
X127431428Y-99085714D01*
X127621904Y-99085714D01*
X127717142Y-99133333D01*
X127288571Y-99704761D02*
X127383809Y-99752380D01*
X127621904Y-99752380D01*
X127717142Y-99704761D01*
X127764761Y-99609523D01*
X127764761Y-99514285D01*
X127717142Y-99419047D01*
X127621904Y-99371428D01*
X127383809Y-99371428D01*
X127288571Y-99323809D01*
X126669523Y-99752380D02*
X126764761Y-99704761D01*
X126812380Y-99609523D01*
X126812380Y-98752380D01*
X125098095Y-99752380D02*
X125098095Y-98752380D01*
X125098095Y-99704761D02*
X125193333Y-99752380D01*
X125383809Y-99752380D01*
X125479047Y-99704761D01*
X125526666Y-99657142D01*
X125574285Y-99561904D01*
X125574285Y-99276190D01*
X125526666Y-99180952D01*
X125479047Y-99133333D01*
X125383809Y-99085714D01*
X125193333Y-99085714D01*
X125098095Y-99133333D01*
X124479047Y-99752380D02*
X124574285Y-99704761D01*
X124621904Y-99657142D01*
X124669523Y-99561904D01*
X124669523Y-99276190D01*
X124621904Y-99180952D01*
X124574285Y-99133333D01*
X124479047Y-99085714D01*
X124336190Y-99085714D01*
X124240952Y-99133333D01*
X124193333Y-99180952D01*
X124145714Y-99276190D01*
X124145714Y-99561904D01*
X124193333Y-99657142D01*
X124240952Y-99704761D01*
X124336190Y-99752380D01*
X124479047Y-99752380D01*
X122955238Y-99752380D02*
X122955238Y-98752380D01*
X122574285Y-98752380D01*
X122479047Y-98800000D01*
X122431428Y-98847619D01*
X122383809Y-98942857D01*
X122383809Y-99085714D01*
X122431428Y-99180952D01*
X122479047Y-99228571D01*
X122574285Y-99276190D01*
X122955238Y-99276190D01*
X121526666Y-99752380D02*
X121526666Y-99228571D01*
X121574285Y-99133333D01*
X121669523Y-99085714D01*
X121860000Y-99085714D01*
X121955238Y-99133333D01*
X121526666Y-99704761D02*
X121621904Y-99752380D01*
X121860000Y-99752380D01*
X121955238Y-99704761D01*
X122002857Y-99609523D01*
X122002857Y-99514285D01*
X121955238Y-99419047D01*
X121860000Y-99371428D01*
X121621904Y-99371428D01*
X121526666Y-99323809D01*
X121050476Y-99752380D02*
X121050476Y-99085714D01*
X121050476Y-99276190D02*
X121002857Y-99180952D01*
X120955238Y-99133333D01*
X120860000Y-99085714D01*
X120764761Y-99085714D01*
X120002857Y-99752380D02*
X120002857Y-99228571D01*
X120050476Y-99133333D01*
X120145714Y-99085714D01*
X120336190Y-99085714D01*
X120431428Y-99133333D01*
X120002857Y-99704761D02*
X120098095Y-99752380D01*
X120336190Y-99752380D01*
X120431428Y-99704761D01*
X120479047Y-99609523D01*
X120479047Y-99514285D01*
X120431428Y-99419047D01*
X120336190Y-99371428D01*
X120098095Y-99371428D01*
X120002857Y-99323809D01*
X119526666Y-99085714D02*
X119526666Y-99752380D01*
X119526666Y-99180952D02*
X119479047Y-99133333D01*
X119383809Y-99085714D01*
X119240952Y-99085714D01*
X119145714Y-99133333D01*
X119098095Y-99228571D01*
X119098095Y-99752380D01*
X118193333Y-99752380D02*
X118193333Y-99228571D01*
X118240952Y-99133333D01*
X118336190Y-99085714D01*
X118526666Y-99085714D01*
X118621904Y-99133333D01*
X118193333Y-99704761D02*
X118288571Y-99752380D01*
X118526666Y-99752380D01*
X118621904Y-99704761D01*
X118669523Y-99609523D01*
X118669523Y-99514285D01*
X118621904Y-99419047D01*
X118526666Y-99371428D01*
X118288571Y-99371428D01*
X118193333Y-99323809D01*
X118336190Y-98704761D02*
X118479047Y-98847619D01*
X116193333Y-99371428D02*
X115431428Y-99371428D01*
X114193333Y-98752380D02*
X114193333Y-99561904D01*
X114145714Y-99657142D01*
X114098095Y-99704761D01*
X114002857Y-99752380D01*
X113812380Y-99752380D01*
X113717142Y-99704761D01*
X113669523Y-99657142D01*
X113621904Y-99561904D01*
X113621904Y-98752380D01*
X113288571Y-98752380D02*
X112717142Y-98752380D01*
X113002857Y-99752380D02*
X113002857Y-98752380D01*
X112050476Y-99228571D02*
X112383809Y-99228571D01*
X112383809Y-99752380D02*
X112383809Y-98752380D01*
X111907619Y-98752380D01*
X111526666Y-99752380D02*
X111526666Y-98752380D01*
X111145714Y-98752380D01*
X111050476Y-98800000D01*
X111002857Y-98847619D01*
X110955238Y-98942857D01*
X110955238Y-99085714D01*
X111002857Y-99180952D01*
X111050476Y-99228571D01*
X111145714Y-99276190D01*
X111526666Y-99276190D01*
X109955238Y-99752380D02*
X110288571Y-99276190D01*
X110526666Y-99752380D02*
X110526666Y-98752380D01*
X110145714Y-98752380D01*
X110050476Y-98800000D01*
X110002857Y-98847619D01*
X109955238Y-98942857D01*
X109955238Y-99085714D01*
X110002857Y-99180952D01*
X110050476Y-99228571D01*
X110145714Y-99276190D01*
X110526666Y-99276190D01*
D11*
G36*
X125088961Y-77718917D02*
G01*
X124529884Y-77950565D01*
X124063762Y-78262290D01*
X123473549Y-78902260D01*
X122927844Y-79813852D01*
X122470889Y-80889403D01*
X122146925Y-82021246D01*
X122000193Y-83101715D01*
X121996000Y-83294417D01*
X122089462Y-83754178D01*
X122304515Y-84085477D01*
X122440500Y-84145000D01*
X122645485Y-84009248D01*
X122732600Y-83891000D01*
X122862307Y-83476008D01*
X122887790Y-83203083D01*
X122953115Y-82677205D01*
X123114849Y-81962446D01*
X123328899Y-81222589D01*
X123551170Y-80621421D01*
X123622234Y-80475032D01*
X124043533Y-79924848D01*
X124622153Y-79466645D01*
X125261707Y-79172101D01*
X125430628Y-79130266D01*
X125840614Y-79004135D01*
X126060134Y-78800490D01*
X126136006Y-78575998D01*
X126129992Y-78105888D01*
X125927694Y-77802434D01*
X125567791Y-77671492D01*
X125088961Y-77718917D01*
G37*
X125088961Y-77718917D02*
X124529884Y-77950565D01*
X124063762Y-78262290D01*
X123473549Y-78902260D01*
X122927844Y-79813852D01*
X122470889Y-80889403D01*
X122146925Y-82021246D01*
X122000193Y-83101715D01*
X121996000Y-83294417D01*
X122089462Y-83754178D01*
X122304515Y-84085477D01*
X122440500Y-84145000D01*
X122645485Y-84009248D01*
X122732600Y-83891000D01*
X122862307Y-83476008D01*
X122887790Y-83203083D01*
X122953115Y-82677205D01*
X123114849Y-81962446D01*
X123328899Y-81222589D01*
X123551170Y-80621421D01*
X123622234Y-80475032D01*
X124043533Y-79924848D01*
X124622153Y-79466645D01*
X125261707Y-79172101D01*
X125430628Y-79130266D01*
X125840614Y-79004135D01*
X126060134Y-78800490D01*
X126136006Y-78575998D01*
X126129992Y-78105888D01*
X125927694Y-77802434D01*
X125567791Y-77671492D01*
X125088961Y-77718917D01*
G36*
X125161219Y-79739969D02*
G01*
X124704268Y-79961596D01*
X124262964Y-80354645D01*
X124082298Y-80588527D01*
X123661799Y-81355184D01*
X123369267Y-82194416D01*
X123227479Y-83008680D01*
X123259216Y-83700429D01*
X123312124Y-83886474D01*
X123497440Y-84092002D01*
X123752756Y-84137584D01*
X123936411Y-84000782D01*
X123942071Y-83986250D01*
X124005398Y-83685243D01*
X124082428Y-83172143D01*
X124086747Y-83138896D01*
X124266367Y-82430827D01*
X124577063Y-81792212D01*
X124948571Y-81337961D01*
X125283496Y-81181666D01*
X125680316Y-81055752D01*
X125954937Y-80730121D01*
X126046113Y-80282940D01*
X126040763Y-80215176D01*
X125887987Y-79855603D01*
X125575299Y-79700919D01*
X125161219Y-79739969D01*
G37*
X125161219Y-79739969D02*
X124704268Y-79961596D01*
X124262964Y-80354645D01*
X124082298Y-80588527D01*
X123661799Y-81355184D01*
X123369267Y-82194416D01*
X123227479Y-83008680D01*
X123259216Y-83700429D01*
X123312124Y-83886474D01*
X123497440Y-84092002D01*
X123752756Y-84137584D01*
X123936411Y-84000782D01*
X123942071Y-83986250D01*
X124005398Y-83685243D01*
X124082428Y-83172143D01*
X124086747Y-83138896D01*
X124266367Y-82430827D01*
X124577063Y-81792212D01*
X124948571Y-81337961D01*
X125283496Y-81181666D01*
X125680316Y-81055752D01*
X125954937Y-80730121D01*
X126046113Y-80282940D01*
X126040763Y-80215176D01*
X125887987Y-79855603D01*
X125575299Y-79700919D01*
X125161219Y-79739969D01*
G36*
X125103970Y-81769060D02*
G01*
X124787036Y-82189343D01*
X124551315Y-82758002D01*
X124435746Y-83367192D01*
X124479267Y-83909066D01*
X124561400Y-84102666D01*
X124765751Y-84333761D01*
X124963877Y-84225272D01*
X125098429Y-84024047D01*
X125244530Y-83825244D01*
X125293713Y-83968384D01*
X125298000Y-84223711D01*
X125390049Y-84684150D01*
X125606889Y-85130418D01*
X125859563Y-85395628D01*
X125933000Y-85415000D01*
X126078297Y-85306320D01*
X126285742Y-85085497D01*
X126512031Y-84625139D01*
X126572357Y-84066108D01*
X126483211Y-83539108D01*
X126261087Y-83174841D01*
X126132109Y-83124865D01*
X125667316Y-83124865D01*
X125576328Y-83271816D01*
X125552000Y-83298333D01*
X125360898Y-83483156D01*
X125301993Y-83428189D01*
X125298000Y-83298333D01*
X125402716Y-83120431D01*
X125520250Y-83089907D01*
X125667316Y-83124865D01*
X126132109Y-83124865D01*
X126033524Y-83086666D01*
X125879396Y-83032377D01*
X125914872Y-82795245D01*
X125956033Y-82680520D01*
X126019273Y-82204366D01*
X125873453Y-81816499D01*
X125563450Y-81614846D01*
X125463181Y-81605000D01*
X125103970Y-81769060D01*
G37*
X125103970Y-81769060D02*
X124787036Y-82189343D01*
X124551315Y-82758002D01*
X124435746Y-83367192D01*
X124479267Y-83909066D01*
X124561400Y-84102666D01*
X124765751Y-84333761D01*
X124963877Y-84225272D01*
X125098429Y-84024047D01*
X125244530Y-83825244D01*
X125293713Y-83968384D01*
X125298000Y-84223711D01*
X125390049Y-84684150D01*
X125606889Y-85130418D01*
X125859563Y-85395628D01*
X125933000Y-85415000D01*
X126078297Y-85306320D01*
X126285742Y-85085497D01*
X126512031Y-84625139D01*
X126572357Y-84066108D01*
X126483211Y-83539108D01*
X126261087Y-83174841D01*
X126132109Y-83124865D01*
X125667316Y-83124865D01*
X125576328Y-83271816D01*
X125552000Y-83298333D01*
X125360898Y-83483156D01*
X125301993Y-83428189D01*
X125298000Y-83298333D01*
X125402716Y-83120431D01*
X125520250Y-83089907D01*
X125667316Y-83124865D01*
X126132109Y-83124865D01*
X126033524Y-83086666D01*
X125879396Y-83032377D01*
X125914872Y-82795245D01*
X125956033Y-82680520D01*
X126019273Y-82204366D01*
X125873453Y-81816499D01*
X125563450Y-81614846D01*
X125463181Y-81605000D01*
X125103970Y-81769060D01*
G36*
X123045210Y-84395289D02*
G01*
X122772608Y-84545920D01*
X122662727Y-84943132D01*
X122654315Y-85044583D01*
X122606216Y-85406253D01*
X122478898Y-85575739D01*
X122198070Y-85624724D01*
X122051065Y-85626666D01*
X121702980Y-85645813D01*
X121539372Y-85755445D01*
X121490822Y-86033849D01*
X121488000Y-86261666D01*
X121504567Y-86652137D01*
X121600222Y-86837077D01*
X121843896Y-86893077D01*
X122059500Y-86896666D01*
X122631000Y-86896666D01*
X122631000Y-88056800D01*
X122619844Y-88732608D01*
X122567902Y-89101495D01*
X122447465Y-89279310D01*
X122322666Y-89345912D01*
X121978428Y-89396594D01*
X121766667Y-89343881D01*
X121567993Y-89338756D01*
X121468390Y-89661753D01*
X121458183Y-89743127D01*
X121435306Y-90183165D01*
X121463849Y-90384192D01*
X121617498Y-90444687D01*
X121944560Y-90484934D01*
X122249029Y-90495000D01*
X122705127Y-90459724D01*
X122999182Y-90324436D01*
X123220936Y-90044944D01*
X123243863Y-90005107D01*
X123407663Y-89620661D01*
X123492365Y-89120632D01*
X123519547Y-88364427D01*
X123520000Y-88205941D01*
X123520000Y-86896666D01*
X123901000Y-86896666D01*
X124173932Y-86838665D01*
X124273510Y-86596677D01*
X124282000Y-86384318D01*
X124216034Y-85975056D01*
X123974570Y-85761450D01*
X123915494Y-85737805D01*
X123621253Y-85512421D01*
X123481161Y-85033535D01*
X123472454Y-84965859D01*
X123383814Y-84519662D01*
X123213344Y-84380943D01*
X123045210Y-84395289D01*
G37*
X123045210Y-84395289D02*
X122772608Y-84545920D01*
X122662727Y-84943132D01*
X122654315Y-85044583D01*
X122606216Y-85406253D01*
X122478898Y-85575739D01*
X122198070Y-85624724D01*
X122051065Y-85626666D01*
X121702980Y-85645813D01*
X121539372Y-85755445D01*
X121490822Y-86033849D01*
X121488000Y-86261666D01*
X121504567Y-86652137D01*
X121600222Y-86837077D01*
X121843896Y-86893077D01*
X122059500Y-86896666D01*
X122631000Y-86896666D01*
X122631000Y-88056800D01*
X122619844Y-88732608D01*
X122567902Y-89101495D01*
X122447465Y-89279310D01*
X122322666Y-89345912D01*
X121978428Y-89396594D01*
X121766667Y-89343881D01*
X121567993Y-89338756D01*
X121468390Y-89661753D01*
X121458183Y-89743127D01*
X121435306Y-90183165D01*
X121463849Y-90384192D01*
X121617498Y-90444687D01*
X121944560Y-90484934D01*
X122249029Y-90495000D01*
X122705127Y-90459724D01*
X122999182Y-90324436D01*
X123220936Y-90044944D01*
X123243863Y-90005107D01*
X123407663Y-89620661D01*
X123492365Y-89120632D01*
X123519547Y-88364427D01*
X123520000Y-88205941D01*
X123520000Y-86896666D01*
X123901000Y-86896666D01*
X124173932Y-86838665D01*
X124273510Y-86596677D01*
X124282000Y-86384318D01*
X124216034Y-85975056D01*
X123974570Y-85761450D01*
X123915494Y-85737805D01*
X123621253Y-85512421D01*
X123481161Y-85033535D01*
X123472454Y-84965859D01*
X123383814Y-84519662D01*
X123213344Y-84380943D01*
X123045210Y-84395289D01*
G36*
X126472750Y-85670679D02*
G01*
X125488500Y-85732500D01*
X125488500Y-90389166D01*
X125902124Y-90455602D01*
X126252938Y-90414674D01*
X126389089Y-90203495D01*
X126420090Y-89841227D01*
X126431300Y-89195269D01*
X126420358Y-88404269D01*
X126419965Y-88390332D01*
X126377500Y-86895712D01*
X126917250Y-86896189D01*
X127255931Y-86875357D01*
X127411606Y-86755754D01*
X127455125Y-86452920D01*
X127457000Y-86252763D01*
X127457000Y-85608859D01*
X126472750Y-85670679D01*
G37*
X126472750Y-85670679D02*
X125488500Y-85732500D01*
X125488500Y-90389166D01*
X125902124Y-90455602D01*
X126252938Y-90414674D01*
X126389089Y-90203495D01*
X126420090Y-89841227D01*
X126431300Y-89195269D01*
X126420358Y-88404269D01*
X126419965Y-88390332D01*
X126377500Y-86895712D01*
X126917250Y-86896189D01*
X127255931Y-86875357D01*
X127411606Y-86755754D01*
X127455125Y-86452920D01*
X127457000Y-86252763D01*
X127457000Y-85608859D01*
X126472750Y-85670679D01*
G36*
X137530268Y-85938105D02*
G01*
X137402035Y-86069608D01*
X137205113Y-86191994D01*
X137003984Y-86069608D01*
X136534904Y-85843530D01*
X136112633Y-86011544D01*
X135848218Y-86396045D01*
X135712472Y-86757046D01*
X135632026Y-87205895D01*
X135593888Y-87857505D01*
X135585000Y-88724378D01*
X135585000Y-90495000D01*
X136474000Y-90495000D01*
X136474000Y-88919991D01*
X136490355Y-87999442D01*
X136551278Y-87440279D01*
X136674561Y-87182917D01*
X136877997Y-87167767D01*
X136983137Y-87214767D01*
X137114225Y-87332539D01*
X137190599Y-87577070D01*
X137226446Y-88044131D01*
X137235952Y-88829495D01*
X137236000Y-88921763D01*
X137236000Y-90495000D01*
X137659334Y-90495000D01*
X137973140Y-90456275D01*
X138161599Y-90362221D01*
X138167334Y-90353888D01*
X138211639Y-90074910D01*
X138239127Y-89493502D01*
X138249632Y-88729656D01*
X138242989Y-87903366D01*
X138219035Y-87134624D01*
X138177603Y-86543421D01*
X138172625Y-86499791D01*
X138064073Y-86010095D01*
X137867371Y-85841975D01*
X137817025Y-85838333D01*
X137530268Y-85938105D01*
G37*
X137530268Y-85938105D02*
X137402035Y-86069608D01*
X137205113Y-86191994D01*
X137003984Y-86069608D01*
X136534904Y-85843530D01*
X136112633Y-86011544D01*
X135848218Y-86396045D01*
X135712472Y-86757046D01*
X135632026Y-87205895D01*
X135593888Y-87857505D01*
X135585000Y-88724378D01*
X135585000Y-90495000D01*
X136474000Y-90495000D01*
X136474000Y-88919991D01*
X136490355Y-87999442D01*
X136551278Y-87440279D01*
X136674561Y-87182917D01*
X136877997Y-87167767D01*
X136983137Y-87214767D01*
X137114225Y-87332539D01*
X137190599Y-87577070D01*
X137226446Y-88044131D01*
X137235952Y-88829495D01*
X137236000Y-88921763D01*
X137236000Y-90495000D01*
X137659334Y-90495000D01*
X137973140Y-90456275D01*
X138161599Y-90362221D01*
X138167334Y-90353888D01*
X138211639Y-90074910D01*
X138239127Y-89493502D01*
X138249632Y-88729656D01*
X138242989Y-87903366D01*
X138219035Y-87134624D01*
X138177603Y-86543421D01*
X138172625Y-86499791D01*
X138064073Y-86010095D01*
X137867371Y-85841975D01*
X137817025Y-85838333D01*
X137530268Y-85938105D01*
G36*
X138887000Y-85838333D02*
G01*
X139631389Y-85838333D01*
X140045766Y-85847881D01*
X140261547Y-85905107D01*
X140334124Y-86052880D01*
X140318883Y-86334070D01*
X140315084Y-86367500D01*
X140252944Y-86684933D01*
X140114021Y-86841751D01*
X139826368Y-86893186D01*
X139625760Y-86896666D01*
X139253403Y-86910311D01*
X139073582Y-86991757D01*
X139024867Y-87201768D01*
X139037315Y-87478750D01*
X139086888Y-87838098D01*
X139218673Y-88021957D01*
X139504990Y-88104461D01*
X139667169Y-88124423D01*
X140036512Y-88194318D01*
X140225528Y-88343575D01*
X140307761Y-88638143D01*
X140316308Y-88706506D01*
X140335708Y-88987184D01*
X140276505Y-89142330D01*
X140085035Y-89209121D01*
X139707634Y-89224735D01*
X139567889Y-89225000D01*
X138760000Y-89225000D01*
X138760000Y-90495000D01*
X141307168Y-90495000D01*
X141236500Y-84674166D01*
X140061750Y-84613307D01*
X138887000Y-84552447D01*
X138887000Y-85838333D01*
G37*
X138887000Y-85838333D02*
X139631389Y-85838333D01*
X140045766Y-85847881D01*
X140261547Y-85905107D01*
X140334124Y-86052880D01*
X140318883Y-86334070D01*
X140315084Y-86367500D01*
X140252944Y-86684933D01*
X140114021Y-86841751D01*
X139826368Y-86893186D01*
X139625760Y-86896666D01*
X139253403Y-86910311D01*
X139073582Y-86991757D01*
X139024867Y-87201768D01*
X139037315Y-87478750D01*
X139086888Y-87838098D01*
X139218673Y-88021957D01*
X139504990Y-88104461D01*
X139667169Y-88124423D01*
X140036512Y-88194318D01*
X140225528Y-88343575D01*
X140307761Y-88638143D01*
X140316308Y-88706506D01*
X140335708Y-88987184D01*
X140276505Y-89142330D01*
X140085035Y-89209121D01*
X139707634Y-89224735D01*
X139567889Y-89225000D01*
X138760000Y-89225000D01*
X138760000Y-90495000D01*
X141307168Y-90495000D01*
X141236500Y-84674166D01*
X140061750Y-84613307D01*
X138887000Y-84552447D01*
X138887000Y-85838333D01*
G36*
X131119697Y-79225838D02*
G01*
X131104331Y-79508345D01*
X131192353Y-80008424D01*
X131253550Y-80240589D01*
X131451242Y-81025193D01*
X131620172Y-81857086D01*
X131638393Y-81965792D01*
X131944637Y-83137659D01*
X132426499Y-84016892D01*
X133060630Y-84573997D01*
X133823681Y-84779484D01*
X133866421Y-84780000D01*
X134221883Y-84756256D01*
X134390371Y-84648204D01*
X134438311Y-84400614D01*
X134439211Y-84303750D01*
X134352365Y-83594439D01*
X134131170Y-82748851D01*
X133824301Y-81924245D01*
X133522268Y-81341190D01*
X133313552Y-80985076D01*
X133296631Y-80875129D01*
X133382846Y-80934458D01*
X133823878Y-81468553D01*
X134231852Y-82205398D01*
X134519520Y-82979582D01*
X134566070Y-83177701D01*
X134665250Y-84090876D01*
X134673438Y-85231567D01*
X134599471Y-86438028D01*
X134452187Y-87548510D01*
X134288640Y-88255396D01*
X133973938Y-89287447D01*
X133173849Y-87535712D01*
X132799507Y-86758598D01*
X132438826Y-86083259D01*
X132142934Y-85602014D01*
X132013538Y-85440738D01*
X131705808Y-85005359D01*
X131505049Y-84502530D01*
X131164716Y-83669469D01*
X130633431Y-83073997D01*
X129941661Y-82746281D01*
X129686863Y-82702404D01*
X129225091Y-82676275D01*
X128925484Y-82741393D01*
X128698626Y-82930693D01*
X128560410Y-83117324D01*
X128342015Y-83464814D01*
X128297842Y-83708476D01*
X128411050Y-84023417D01*
X128462523Y-84135003D01*
X128659935Y-84481813D01*
X128851342Y-84519869D01*
X129038697Y-84399586D01*
X129505893Y-84167913D01*
X129895766Y-84295437D01*
X130260770Y-84763717D01*
X130480921Y-85190396D01*
X130592270Y-85630463D01*
X130629809Y-86255053D01*
X130632000Y-86579166D01*
X130613463Y-87319762D01*
X130534520Y-87810284D01*
X130360178Y-88221869D01*
X130260770Y-88394615D01*
X129834849Y-88894691D01*
X129405654Y-88973176D01*
X128996520Y-88668959D01*
X128786726Y-88464044D01*
X128626092Y-88499734D01*
X128410691Y-88809552D01*
X128374517Y-88869593D01*
X128047512Y-89414601D01*
X128355506Y-89845311D01*
X128924270Y-90395385D01*
X129540679Y-90587706D01*
X130159730Y-90458691D01*
X130736422Y-90044756D01*
X131225753Y-89382315D01*
X131582721Y-88507786D01*
X131762324Y-87457584D01*
X131775000Y-87078235D01*
X131775000Y-86399540D01*
X132104388Y-86912686D01*
X132347075Y-87344186D01*
X132667386Y-87983284D01*
X132996204Y-88692043D01*
X132997888Y-88695833D01*
X133484914Y-89758218D01*
X133849893Y-90478668D01*
X134088854Y-90849711D01*
X134169580Y-90901622D01*
X134351234Y-90815532D01*
X134410250Y-90778150D01*
X134542758Y-90503355D01*
X134569000Y-90259658D01*
X134624299Y-89867437D01*
X134768988Y-89241436D01*
X134963210Y-88546387D01*
X135235545Y-87471597D01*
X135357877Y-86568632D01*
X135326198Y-85892473D01*
X135181914Y-85545128D01*
X135061497Y-85276615D01*
X135023878Y-84799488D01*
X135044822Y-84205346D01*
X135066147Y-83455068D01*
X135048598Y-82793974D01*
X135025774Y-82563641D01*
X134834473Y-81907447D01*
X134480919Y-81182816D01*
X134031897Y-80504321D01*
X133554192Y-79986535D01*
X133495727Y-79938770D01*
X133100411Y-79688768D01*
X132613930Y-79464870D01*
X132104154Y-79287442D01*
X131638955Y-79176849D01*
X131286204Y-79153454D01*
X131119697Y-79225838D01*
G37*
X131119697Y-79225838D02*
X131104331Y-79508345D01*
X131192353Y-80008424D01*
X131253550Y-80240589D01*
X131451242Y-81025193D01*
X131620172Y-81857086D01*
X131638393Y-81965792D01*
X131944637Y-83137659D01*
X132426499Y-84016892D01*
X133060630Y-84573997D01*
X133823681Y-84779484D01*
X133866421Y-84780000D01*
X134221883Y-84756256D01*
X134390371Y-84648204D01*
X134438311Y-84400614D01*
X134439211Y-84303750D01*
X134352365Y-83594439D01*
X134131170Y-82748851D01*
X133824301Y-81924245D01*
X133522268Y-81341190D01*
X133313552Y-80985076D01*
X133296631Y-80875129D01*
X133382846Y-80934458D01*
X133823878Y-81468553D01*
X134231852Y-82205398D01*
X134519520Y-82979582D01*
X134566070Y-83177701D01*
X134665250Y-84090876D01*
X134673438Y-85231567D01*
X134599471Y-86438028D01*
X134452187Y-87548510D01*
X134288640Y-88255396D01*
X133973938Y-89287447D01*
X133173849Y-87535712D01*
X132799507Y-86758598D01*
X132438826Y-86083259D01*
X132142934Y-85602014D01*
X132013538Y-85440738D01*
X131705808Y-85005359D01*
X131505049Y-84502530D01*
X131164716Y-83669469D01*
X130633431Y-83073997D01*
X129941661Y-82746281D01*
X129686863Y-82702404D01*
X129225091Y-82676275D01*
X128925484Y-82741393D01*
X128698626Y-82930693D01*
X128560410Y-83117324D01*
X128342015Y-83464814D01*
X128297842Y-83708476D01*
X128411050Y-84023417D01*
X128462523Y-84135003D01*
X128659935Y-84481813D01*
X128851342Y-84519869D01*
X129038697Y-84399586D01*
X129505893Y-84167913D01*
X129895766Y-84295437D01*
X130260770Y-84763717D01*
X130480921Y-85190396D01*
X130592270Y-85630463D01*
X130629809Y-86255053D01*
X130632000Y-86579166D01*
X130613463Y-87319762D01*
X130534520Y-87810284D01*
X130360178Y-88221869D01*
X130260770Y-88394615D01*
X129834849Y-88894691D01*
X129405654Y-88973176D01*
X128996520Y-88668959D01*
X128786726Y-88464044D01*
X128626092Y-88499734D01*
X128410691Y-88809552D01*
X128374517Y-88869593D01*
X128047512Y-89414601D01*
X128355506Y-89845311D01*
X128924270Y-90395385D01*
X129540679Y-90587706D01*
X130159730Y-90458691D01*
X130736422Y-90044756D01*
X131225753Y-89382315D01*
X131582721Y-88507786D01*
X131762324Y-87457584D01*
X131775000Y-87078235D01*
X131775000Y-86399540D01*
X132104388Y-86912686D01*
X132347075Y-87344186D01*
X132667386Y-87983284D01*
X132996204Y-88692043D01*
X132997888Y-88695833D01*
X133484914Y-89758218D01*
X133849893Y-90478668D01*
X134088854Y-90849711D01*
X134169580Y-90901622D01*
X134351234Y-90815532D01*
X134410250Y-90778150D01*
X134542758Y-90503355D01*
X134569000Y-90259658D01*
X134624299Y-89867437D01*
X134768988Y-89241436D01*
X134963210Y-88546387D01*
X135235545Y-87471597D01*
X135357877Y-86568632D01*
X135326198Y-85892473D01*
X135181914Y-85545128D01*
X135061497Y-85276615D01*
X135023878Y-84799488D01*
X135044822Y-84205346D01*
X135066147Y-83455068D01*
X135048598Y-82793974D01*
X135025774Y-82563641D01*
X134834473Y-81907447D01*
X134480919Y-81182816D01*
X134031897Y-80504321D01*
X133554192Y-79986535D01*
X133495727Y-79938770D01*
X133100411Y-79688768D01*
X132613930Y-79464870D01*
X132104154Y-79287442D01*
X131638955Y-79176849D01*
X131286204Y-79153454D01*
X131119697Y-79225838D01*
G36*
X120558551Y-85626666D02*
G01*
X120337898Y-85641017D01*
X120184920Y-85736913D01*
X120061751Y-85993620D01*
X119930528Y-86490402D01*
X119753388Y-87306526D01*
X119751213Y-87316770D01*
X119392500Y-89006874D01*
X119065067Y-87369687D01*
X118896578Y-86558195D01*
X118766546Y-86065908D01*
X118638427Y-85807574D01*
X118475675Y-85697941D01*
X118334817Y-85666172D01*
X118059331Y-85680891D01*
X117932883Y-85806174D01*
X117932000Y-85820668D01*
X117977087Y-86094424D01*
X118098012Y-86667288D01*
X118273273Y-87447355D01*
X118481367Y-88342721D01*
X118700791Y-89261480D01*
X118910044Y-90111728D01*
X119087622Y-90801560D01*
X119154652Y-91046441D01*
X119422429Y-91635960D01*
X119808117Y-92080729D01*
X120225879Y-92307146D01*
X120567250Y-92257700D01*
X120691223Y-91988346D01*
X120726000Y-91655587D01*
X120660531Y-91261144D01*
X120420839Y-91097993D01*
X120389560Y-91091142D01*
X120096156Y-90973950D01*
X119934911Y-90728475D01*
X119904386Y-90298895D01*
X120003139Y-89629387D01*
X120229729Y-88664127D01*
X120318141Y-88324716D01*
X120603328Y-87248413D01*
X120795908Y-86502581D01*
X120901237Y-86027111D01*
X120924670Y-85761894D01*
X120871563Y-85646821D01*
X120747273Y-85621781D01*
X120558551Y-85626666D01*
G37*
X120558551Y-85626666D02*
X120337898Y-85641017D01*
X120184920Y-85736913D01*
X120061751Y-85993620D01*
X119930528Y-86490402D01*
X119753388Y-87306526D01*
X119751213Y-87316770D01*
X119392500Y-89006874D01*
X119065067Y-87369687D01*
X118896578Y-86558195D01*
X118766546Y-86065908D01*
X118638427Y-85807574D01*
X118475675Y-85697941D01*
X118334817Y-85666172D01*
X118059331Y-85680891D01*
X117932883Y-85806174D01*
X117932000Y-85820668D01*
X117977087Y-86094424D01*
X118098012Y-86667288D01*
X118273273Y-87447355D01*
X118481367Y-88342721D01*
X118700791Y-89261480D01*
X118910044Y-90111728D01*
X119087622Y-90801560D01*
X119154652Y-91046441D01*
X119422429Y-91635960D01*
X119808117Y-92080729D01*
X120225879Y-92307146D01*
X120567250Y-92257700D01*
X120691223Y-91988346D01*
X120726000Y-91655587D01*
X120660531Y-91261144D01*
X120420839Y-91097993D01*
X120389560Y-91091142D01*
X120096156Y-90973950D01*
X119934911Y-90728475D01*
X119904386Y-90298895D01*
X120003139Y-89629387D01*
X120229729Y-88664127D01*
X120318141Y-88324716D01*
X120603328Y-87248413D01*
X120795908Y-86502581D01*
X120901237Y-86027111D01*
X120924670Y-85761894D01*
X120871563Y-85646821D01*
X120747273Y-85621781D01*
X120558551Y-85626666D01*
M02*
