G04 #@! TF.GenerationSoftware,KiCad,Pcbnew,(5.1.5)-3*
G04 #@! TF.CreationDate,2022-02-09T23:25:39-03:00*
G04 #@! TF.ProjectId,envcity_pcb,656e7663-6974-4795-9f70-63622e6b6963,rev?*
G04 #@! TF.SameCoordinates,Original*
G04 #@! TF.FileFunction,Legend,Top*
G04 #@! TF.FilePolarity,Positive*
%FSLAX46Y46*%
G04 Gerber Fmt 4.6, Leading zero omitted, Abs format (unit mm)*
G04 Created by KiCad (PCBNEW (5.1.5)-3) date 2022-02-09 23:25:39*
%MOMM*%
%LPD*%
G04 APERTURE LIST*
%ADD10C,0.150000*%
%ADD11C,0.010000*%
%ADD12C,0.100000*%
%ADD13C,0.120000*%
G04 APERTURE END LIST*
D10*
X106608095Y-93462380D02*
X106274761Y-92986190D01*
X106036666Y-93462380D02*
X106036666Y-92462380D01*
X106417619Y-92462380D01*
X106512857Y-92510000D01*
X106560476Y-92557619D01*
X106608095Y-92652857D01*
X106608095Y-92795714D01*
X106560476Y-92890952D01*
X106512857Y-92938571D01*
X106417619Y-92986190D01*
X106036666Y-92986190D01*
X107036666Y-92938571D02*
X107370000Y-92938571D01*
X107512857Y-93462380D02*
X107036666Y-93462380D01*
X107036666Y-92462380D01*
X107512857Y-92462380D01*
X107798571Y-92462380D02*
X108131904Y-93462380D01*
X108465238Y-92462380D01*
X108750952Y-92557619D02*
X108798571Y-92510000D01*
X108893809Y-92462380D01*
X109131904Y-92462380D01*
X109227142Y-92510000D01*
X109274761Y-92557619D01*
X109322380Y-92652857D01*
X109322380Y-92748095D01*
X109274761Y-92890952D01*
X108703333Y-93462380D01*
X109322380Y-93462380D01*
X109750952Y-93367142D02*
X109798571Y-93414761D01*
X109750952Y-93462380D01*
X109703333Y-93414761D01*
X109750952Y-93367142D01*
X109750952Y-93462380D01*
X110417619Y-92462380D02*
X110512857Y-92462380D01*
X110608095Y-92510000D01*
X110655714Y-92557619D01*
X110703333Y-92652857D01*
X110750952Y-92843333D01*
X110750952Y-93081428D01*
X110703333Y-93271904D01*
X110655714Y-93367142D01*
X110608095Y-93414761D01*
X110512857Y-93462380D01*
X110417619Y-93462380D01*
X110322380Y-93414761D01*
X110274761Y-93367142D01*
X110227142Y-93271904D01*
X110179523Y-93081428D01*
X110179523Y-92843333D01*
X110227142Y-92652857D01*
X110274761Y-92557619D01*
X110322380Y-92510000D01*
X110417619Y-92462380D01*
D11*
G36*
X122081039Y-78438917D02*
G01*
X122640116Y-78670565D01*
X123106238Y-78982290D01*
X123696451Y-79622260D01*
X124242156Y-80533852D01*
X124699111Y-81609403D01*
X125023075Y-82741246D01*
X125169807Y-83821715D01*
X125174000Y-84014417D01*
X125080538Y-84474178D01*
X124865485Y-84805477D01*
X124729500Y-84865000D01*
X124524515Y-84729248D01*
X124437400Y-84611000D01*
X124307693Y-84196008D01*
X124282210Y-83923083D01*
X124216885Y-83397205D01*
X124055151Y-82682446D01*
X123841101Y-81942589D01*
X123618830Y-81341421D01*
X123547766Y-81195032D01*
X123126467Y-80644848D01*
X122547847Y-80186645D01*
X121908293Y-79892101D01*
X121739372Y-79850266D01*
X121329386Y-79724135D01*
X121109866Y-79520490D01*
X121033994Y-79295998D01*
X121040008Y-78825888D01*
X121242306Y-78522434D01*
X121602209Y-78391492D01*
X122081039Y-78438917D01*
G37*
X122081039Y-78438917D02*
X122640116Y-78670565D01*
X123106238Y-78982290D01*
X123696451Y-79622260D01*
X124242156Y-80533852D01*
X124699111Y-81609403D01*
X125023075Y-82741246D01*
X125169807Y-83821715D01*
X125174000Y-84014417D01*
X125080538Y-84474178D01*
X124865485Y-84805477D01*
X124729500Y-84865000D01*
X124524515Y-84729248D01*
X124437400Y-84611000D01*
X124307693Y-84196008D01*
X124282210Y-83923083D01*
X124216885Y-83397205D01*
X124055151Y-82682446D01*
X123841101Y-81942589D01*
X123618830Y-81341421D01*
X123547766Y-81195032D01*
X123126467Y-80644848D01*
X122547847Y-80186645D01*
X121908293Y-79892101D01*
X121739372Y-79850266D01*
X121329386Y-79724135D01*
X121109866Y-79520490D01*
X121033994Y-79295998D01*
X121040008Y-78825888D01*
X121242306Y-78522434D01*
X121602209Y-78391492D01*
X122081039Y-78438917D01*
G36*
X122008781Y-80459969D02*
G01*
X122465732Y-80681596D01*
X122907036Y-81074645D01*
X123087702Y-81308527D01*
X123508201Y-82075184D01*
X123800733Y-82914416D01*
X123942521Y-83728680D01*
X123910784Y-84420429D01*
X123857876Y-84606474D01*
X123672560Y-84812002D01*
X123417244Y-84857584D01*
X123233589Y-84720782D01*
X123227929Y-84706250D01*
X123164602Y-84405243D01*
X123087572Y-83892143D01*
X123083253Y-83858896D01*
X122903633Y-83150827D01*
X122592937Y-82512212D01*
X122221429Y-82057961D01*
X121886504Y-81901666D01*
X121489684Y-81775752D01*
X121215063Y-81450121D01*
X121123887Y-81002940D01*
X121129237Y-80935176D01*
X121282013Y-80575603D01*
X121594701Y-80420919D01*
X122008781Y-80459969D01*
G37*
X122008781Y-80459969D02*
X122465732Y-80681596D01*
X122907036Y-81074645D01*
X123087702Y-81308527D01*
X123508201Y-82075184D01*
X123800733Y-82914416D01*
X123942521Y-83728680D01*
X123910784Y-84420429D01*
X123857876Y-84606474D01*
X123672560Y-84812002D01*
X123417244Y-84857584D01*
X123233589Y-84720782D01*
X123227929Y-84706250D01*
X123164602Y-84405243D01*
X123087572Y-83892143D01*
X123083253Y-83858896D01*
X122903633Y-83150827D01*
X122592937Y-82512212D01*
X122221429Y-82057961D01*
X121886504Y-81901666D01*
X121489684Y-81775752D01*
X121215063Y-81450121D01*
X121123887Y-81002940D01*
X121129237Y-80935176D01*
X121282013Y-80575603D01*
X121594701Y-80420919D01*
X122008781Y-80459969D01*
G36*
X122066030Y-82489060D02*
G01*
X122382964Y-82909343D01*
X122618685Y-83478002D01*
X122734254Y-84087192D01*
X122690733Y-84629066D01*
X122608600Y-84822666D01*
X122404249Y-85053761D01*
X122206123Y-84945272D01*
X122071571Y-84744047D01*
X121925470Y-84545244D01*
X121876287Y-84688384D01*
X121872000Y-84943711D01*
X121779951Y-85404150D01*
X121563111Y-85850418D01*
X121310437Y-86115628D01*
X121237000Y-86135000D01*
X121091703Y-86026320D01*
X120884258Y-85805497D01*
X120657969Y-85345139D01*
X120597643Y-84786108D01*
X120686789Y-84259108D01*
X120908913Y-83894841D01*
X121037891Y-83844865D01*
X121502684Y-83844865D01*
X121593672Y-83991816D01*
X121618000Y-84018333D01*
X121809102Y-84203156D01*
X121868007Y-84148189D01*
X121872000Y-84018333D01*
X121767284Y-83840431D01*
X121649750Y-83809907D01*
X121502684Y-83844865D01*
X121037891Y-83844865D01*
X121136476Y-83806666D01*
X121290604Y-83752377D01*
X121255128Y-83515245D01*
X121213967Y-83400520D01*
X121150727Y-82924366D01*
X121296547Y-82536499D01*
X121606550Y-82334846D01*
X121706819Y-82325000D01*
X122066030Y-82489060D01*
G37*
X122066030Y-82489060D02*
X122382964Y-82909343D01*
X122618685Y-83478002D01*
X122734254Y-84087192D01*
X122690733Y-84629066D01*
X122608600Y-84822666D01*
X122404249Y-85053761D01*
X122206123Y-84945272D01*
X122071571Y-84744047D01*
X121925470Y-84545244D01*
X121876287Y-84688384D01*
X121872000Y-84943711D01*
X121779951Y-85404150D01*
X121563111Y-85850418D01*
X121310437Y-86115628D01*
X121237000Y-86135000D01*
X121091703Y-86026320D01*
X120884258Y-85805497D01*
X120657969Y-85345139D01*
X120597643Y-84786108D01*
X120686789Y-84259108D01*
X120908913Y-83894841D01*
X121037891Y-83844865D01*
X121502684Y-83844865D01*
X121593672Y-83991816D01*
X121618000Y-84018333D01*
X121809102Y-84203156D01*
X121868007Y-84148189D01*
X121872000Y-84018333D01*
X121767284Y-83840431D01*
X121649750Y-83809907D01*
X121502684Y-83844865D01*
X121037891Y-83844865D01*
X121136476Y-83806666D01*
X121290604Y-83752377D01*
X121255128Y-83515245D01*
X121213967Y-83400520D01*
X121150727Y-82924366D01*
X121296547Y-82536499D01*
X121606550Y-82334846D01*
X121706819Y-82325000D01*
X122066030Y-82489060D01*
G36*
X124124790Y-85115289D02*
G01*
X124397392Y-85265920D01*
X124507273Y-85663132D01*
X124515685Y-85764583D01*
X124563784Y-86126253D01*
X124691102Y-86295739D01*
X124971930Y-86344724D01*
X125118935Y-86346666D01*
X125467020Y-86365813D01*
X125630628Y-86475445D01*
X125679178Y-86753849D01*
X125682000Y-86981666D01*
X125665433Y-87372137D01*
X125569778Y-87557077D01*
X125326104Y-87613077D01*
X125110500Y-87616666D01*
X124539000Y-87616666D01*
X124539000Y-88776800D01*
X124550156Y-89452608D01*
X124602098Y-89821495D01*
X124722535Y-89999310D01*
X124847334Y-90065912D01*
X125191572Y-90116594D01*
X125403333Y-90063881D01*
X125602007Y-90058756D01*
X125701610Y-90381753D01*
X125711817Y-90463127D01*
X125734694Y-90903165D01*
X125706151Y-91104192D01*
X125552502Y-91164687D01*
X125225440Y-91204934D01*
X124920971Y-91215000D01*
X124464873Y-91179724D01*
X124170818Y-91044436D01*
X123949064Y-90764944D01*
X123926137Y-90725107D01*
X123762337Y-90340661D01*
X123677635Y-89840632D01*
X123650453Y-89084427D01*
X123650000Y-88925941D01*
X123650000Y-87616666D01*
X123269000Y-87616666D01*
X122996068Y-87558665D01*
X122896490Y-87316677D01*
X122888000Y-87104318D01*
X122953966Y-86695056D01*
X123195430Y-86481450D01*
X123254506Y-86457805D01*
X123548747Y-86232421D01*
X123688839Y-85753535D01*
X123697546Y-85685859D01*
X123786186Y-85239662D01*
X123956656Y-85100943D01*
X124124790Y-85115289D01*
G37*
X124124790Y-85115289D02*
X124397392Y-85265920D01*
X124507273Y-85663132D01*
X124515685Y-85764583D01*
X124563784Y-86126253D01*
X124691102Y-86295739D01*
X124971930Y-86344724D01*
X125118935Y-86346666D01*
X125467020Y-86365813D01*
X125630628Y-86475445D01*
X125679178Y-86753849D01*
X125682000Y-86981666D01*
X125665433Y-87372137D01*
X125569778Y-87557077D01*
X125326104Y-87613077D01*
X125110500Y-87616666D01*
X124539000Y-87616666D01*
X124539000Y-88776800D01*
X124550156Y-89452608D01*
X124602098Y-89821495D01*
X124722535Y-89999310D01*
X124847334Y-90065912D01*
X125191572Y-90116594D01*
X125403333Y-90063881D01*
X125602007Y-90058756D01*
X125701610Y-90381753D01*
X125711817Y-90463127D01*
X125734694Y-90903165D01*
X125706151Y-91104192D01*
X125552502Y-91164687D01*
X125225440Y-91204934D01*
X124920971Y-91215000D01*
X124464873Y-91179724D01*
X124170818Y-91044436D01*
X123949064Y-90764944D01*
X123926137Y-90725107D01*
X123762337Y-90340661D01*
X123677635Y-89840632D01*
X123650453Y-89084427D01*
X123650000Y-88925941D01*
X123650000Y-87616666D01*
X123269000Y-87616666D01*
X122996068Y-87558665D01*
X122896490Y-87316677D01*
X122888000Y-87104318D01*
X122953966Y-86695056D01*
X123195430Y-86481450D01*
X123254506Y-86457805D01*
X123548747Y-86232421D01*
X123688839Y-85753535D01*
X123697546Y-85685859D01*
X123786186Y-85239662D01*
X123956656Y-85100943D01*
X124124790Y-85115289D01*
G36*
X120697250Y-86390679D02*
G01*
X121681500Y-86452500D01*
X121681500Y-91109166D01*
X121267876Y-91175602D01*
X120917062Y-91134674D01*
X120780911Y-90923495D01*
X120749910Y-90561227D01*
X120738700Y-89915269D01*
X120749642Y-89124269D01*
X120750035Y-89110332D01*
X120792500Y-87615712D01*
X120252750Y-87616189D01*
X119914069Y-87595357D01*
X119758394Y-87475754D01*
X119714875Y-87172920D01*
X119713000Y-86972763D01*
X119713000Y-86328859D01*
X120697250Y-86390679D01*
G37*
X120697250Y-86390679D02*
X121681500Y-86452500D01*
X121681500Y-91109166D01*
X121267876Y-91175602D01*
X120917062Y-91134674D01*
X120780911Y-90923495D01*
X120749910Y-90561227D01*
X120738700Y-89915269D01*
X120749642Y-89124269D01*
X120750035Y-89110332D01*
X120792500Y-87615712D01*
X120252750Y-87616189D01*
X119914069Y-87595357D01*
X119758394Y-87475754D01*
X119714875Y-87172920D01*
X119713000Y-86972763D01*
X119713000Y-86328859D01*
X120697250Y-86390679D01*
G36*
X109639732Y-86658105D02*
G01*
X109767965Y-86789608D01*
X109964887Y-86911994D01*
X110166016Y-86789608D01*
X110635096Y-86563530D01*
X111057367Y-86731544D01*
X111321782Y-87116045D01*
X111457528Y-87477046D01*
X111537974Y-87925895D01*
X111576112Y-88577505D01*
X111585000Y-89444378D01*
X111585000Y-91215000D01*
X110696000Y-91215000D01*
X110696000Y-89639991D01*
X110679645Y-88719442D01*
X110618722Y-88160279D01*
X110495439Y-87902917D01*
X110292003Y-87887767D01*
X110186863Y-87934767D01*
X110055775Y-88052539D01*
X109979401Y-88297070D01*
X109943554Y-88764131D01*
X109934048Y-89549495D01*
X109934000Y-89641763D01*
X109934000Y-91215000D01*
X109510666Y-91215000D01*
X109196860Y-91176275D01*
X109008401Y-91082221D01*
X109002666Y-91073888D01*
X108958361Y-90794910D01*
X108930873Y-90213502D01*
X108920368Y-89449656D01*
X108927011Y-88623366D01*
X108950965Y-87854624D01*
X108992397Y-87263421D01*
X108997375Y-87219791D01*
X109105927Y-86730095D01*
X109302629Y-86561975D01*
X109352975Y-86558333D01*
X109639732Y-86658105D01*
G37*
X109639732Y-86658105D02*
X109767965Y-86789608D01*
X109964887Y-86911994D01*
X110166016Y-86789608D01*
X110635096Y-86563530D01*
X111057367Y-86731544D01*
X111321782Y-87116045D01*
X111457528Y-87477046D01*
X111537974Y-87925895D01*
X111576112Y-88577505D01*
X111585000Y-89444378D01*
X111585000Y-91215000D01*
X110696000Y-91215000D01*
X110696000Y-89639991D01*
X110679645Y-88719442D01*
X110618722Y-88160279D01*
X110495439Y-87902917D01*
X110292003Y-87887767D01*
X110186863Y-87934767D01*
X110055775Y-88052539D01*
X109979401Y-88297070D01*
X109943554Y-88764131D01*
X109934048Y-89549495D01*
X109934000Y-89641763D01*
X109934000Y-91215000D01*
X109510666Y-91215000D01*
X109196860Y-91176275D01*
X109008401Y-91082221D01*
X109002666Y-91073888D01*
X108958361Y-90794910D01*
X108930873Y-90213502D01*
X108920368Y-89449656D01*
X108927011Y-88623366D01*
X108950965Y-87854624D01*
X108992397Y-87263421D01*
X108997375Y-87219791D01*
X109105927Y-86730095D01*
X109302629Y-86561975D01*
X109352975Y-86558333D01*
X109639732Y-86658105D01*
G36*
X108283000Y-86558333D02*
G01*
X107538611Y-86558333D01*
X107124234Y-86567881D01*
X106908453Y-86625107D01*
X106835876Y-86772880D01*
X106851117Y-87054070D01*
X106854916Y-87087500D01*
X106917056Y-87404933D01*
X107055979Y-87561751D01*
X107343632Y-87613186D01*
X107544240Y-87616666D01*
X107916597Y-87630311D01*
X108096418Y-87711757D01*
X108145133Y-87921768D01*
X108132685Y-88198750D01*
X108083112Y-88558098D01*
X107951327Y-88741957D01*
X107665010Y-88824461D01*
X107502831Y-88844423D01*
X107133488Y-88914318D01*
X106944472Y-89063575D01*
X106862239Y-89358143D01*
X106853692Y-89426506D01*
X106834292Y-89707184D01*
X106893495Y-89862330D01*
X107084965Y-89929121D01*
X107462366Y-89944735D01*
X107602111Y-89945000D01*
X108410000Y-89945000D01*
X108410000Y-91215000D01*
X105862832Y-91215000D01*
X105933500Y-85394166D01*
X107108250Y-85333307D01*
X108283000Y-85272447D01*
X108283000Y-86558333D01*
G37*
X108283000Y-86558333D02*
X107538611Y-86558333D01*
X107124234Y-86567881D01*
X106908453Y-86625107D01*
X106835876Y-86772880D01*
X106851117Y-87054070D01*
X106854916Y-87087500D01*
X106917056Y-87404933D01*
X107055979Y-87561751D01*
X107343632Y-87613186D01*
X107544240Y-87616666D01*
X107916597Y-87630311D01*
X108096418Y-87711757D01*
X108145133Y-87921768D01*
X108132685Y-88198750D01*
X108083112Y-88558098D01*
X107951327Y-88741957D01*
X107665010Y-88824461D01*
X107502831Y-88844423D01*
X107133488Y-88914318D01*
X106944472Y-89063575D01*
X106862239Y-89358143D01*
X106853692Y-89426506D01*
X106834292Y-89707184D01*
X106893495Y-89862330D01*
X107084965Y-89929121D01*
X107462366Y-89944735D01*
X107602111Y-89945000D01*
X108410000Y-89945000D01*
X108410000Y-91215000D01*
X105862832Y-91215000D01*
X105933500Y-85394166D01*
X107108250Y-85333307D01*
X108283000Y-85272447D01*
X108283000Y-86558333D01*
G36*
X116050303Y-79945838D02*
G01*
X116065669Y-80228345D01*
X115977647Y-80728424D01*
X115916450Y-80960589D01*
X115718758Y-81745193D01*
X115549828Y-82577086D01*
X115531607Y-82685792D01*
X115225363Y-83857659D01*
X114743501Y-84736892D01*
X114109370Y-85293997D01*
X113346319Y-85499484D01*
X113303579Y-85500000D01*
X112948117Y-85476256D01*
X112779629Y-85368204D01*
X112731689Y-85120614D01*
X112730789Y-85023750D01*
X112817635Y-84314439D01*
X113038830Y-83468851D01*
X113345699Y-82644245D01*
X113647732Y-82061190D01*
X113856448Y-81705076D01*
X113873369Y-81595129D01*
X113787154Y-81654458D01*
X113346122Y-82188553D01*
X112938148Y-82925398D01*
X112650480Y-83699582D01*
X112603930Y-83897701D01*
X112504750Y-84810876D01*
X112496562Y-85951567D01*
X112570529Y-87158028D01*
X112717813Y-88268510D01*
X112881360Y-88975396D01*
X113196062Y-90007447D01*
X113996151Y-88255712D01*
X114370493Y-87478598D01*
X114731174Y-86803259D01*
X115027066Y-86322014D01*
X115156462Y-86160738D01*
X115464192Y-85725359D01*
X115664951Y-85222530D01*
X116005284Y-84389469D01*
X116536569Y-83793997D01*
X117228339Y-83466281D01*
X117483137Y-83422404D01*
X117944909Y-83396275D01*
X118244516Y-83461393D01*
X118471374Y-83650693D01*
X118609590Y-83837324D01*
X118827985Y-84184814D01*
X118872158Y-84428476D01*
X118758950Y-84743417D01*
X118707477Y-84855003D01*
X118510065Y-85201813D01*
X118318658Y-85239869D01*
X118131303Y-85119586D01*
X117664107Y-84887913D01*
X117274234Y-85015437D01*
X116909230Y-85483717D01*
X116689079Y-85910396D01*
X116577730Y-86350463D01*
X116540191Y-86975053D01*
X116538000Y-87299166D01*
X116556537Y-88039762D01*
X116635480Y-88530284D01*
X116809822Y-88941869D01*
X116909230Y-89114615D01*
X117335151Y-89614691D01*
X117764346Y-89693176D01*
X118173480Y-89388959D01*
X118383274Y-89184044D01*
X118543908Y-89219734D01*
X118759309Y-89529552D01*
X118795483Y-89589593D01*
X119122488Y-90134601D01*
X118814494Y-90565311D01*
X118245730Y-91115385D01*
X117629321Y-91307706D01*
X117010270Y-91178691D01*
X116433578Y-90764756D01*
X115944247Y-90102315D01*
X115587279Y-89227786D01*
X115407676Y-88177584D01*
X115395000Y-87798235D01*
X115395000Y-87119540D01*
X115065612Y-87632686D01*
X114822925Y-88064186D01*
X114502614Y-88703284D01*
X114173796Y-89412043D01*
X114172112Y-89415833D01*
X113685086Y-90478218D01*
X113320107Y-91198668D01*
X113081146Y-91569711D01*
X113000420Y-91621622D01*
X112818766Y-91535532D01*
X112759750Y-91498150D01*
X112627242Y-91223355D01*
X112601000Y-90979658D01*
X112545701Y-90587437D01*
X112401012Y-89961436D01*
X112206790Y-89266387D01*
X111934455Y-88191597D01*
X111812123Y-87288632D01*
X111843802Y-86612473D01*
X111988086Y-86265128D01*
X112108503Y-85996615D01*
X112146122Y-85519488D01*
X112125178Y-84925346D01*
X112103853Y-84175068D01*
X112121402Y-83513974D01*
X112144226Y-83283641D01*
X112335527Y-82627447D01*
X112689081Y-81902816D01*
X113138103Y-81224321D01*
X113615808Y-80706535D01*
X113674273Y-80658770D01*
X114069589Y-80408768D01*
X114556070Y-80184870D01*
X115065846Y-80007442D01*
X115531045Y-79896849D01*
X115883796Y-79873454D01*
X116050303Y-79945838D01*
G37*
X116050303Y-79945838D02*
X116065669Y-80228345D01*
X115977647Y-80728424D01*
X115916450Y-80960589D01*
X115718758Y-81745193D01*
X115549828Y-82577086D01*
X115531607Y-82685792D01*
X115225363Y-83857659D01*
X114743501Y-84736892D01*
X114109370Y-85293997D01*
X113346319Y-85499484D01*
X113303579Y-85500000D01*
X112948117Y-85476256D01*
X112779629Y-85368204D01*
X112731689Y-85120614D01*
X112730789Y-85023750D01*
X112817635Y-84314439D01*
X113038830Y-83468851D01*
X113345699Y-82644245D01*
X113647732Y-82061190D01*
X113856448Y-81705076D01*
X113873369Y-81595129D01*
X113787154Y-81654458D01*
X113346122Y-82188553D01*
X112938148Y-82925398D01*
X112650480Y-83699582D01*
X112603930Y-83897701D01*
X112504750Y-84810876D01*
X112496562Y-85951567D01*
X112570529Y-87158028D01*
X112717813Y-88268510D01*
X112881360Y-88975396D01*
X113196062Y-90007447D01*
X113996151Y-88255712D01*
X114370493Y-87478598D01*
X114731174Y-86803259D01*
X115027066Y-86322014D01*
X115156462Y-86160738D01*
X115464192Y-85725359D01*
X115664951Y-85222530D01*
X116005284Y-84389469D01*
X116536569Y-83793997D01*
X117228339Y-83466281D01*
X117483137Y-83422404D01*
X117944909Y-83396275D01*
X118244516Y-83461393D01*
X118471374Y-83650693D01*
X118609590Y-83837324D01*
X118827985Y-84184814D01*
X118872158Y-84428476D01*
X118758950Y-84743417D01*
X118707477Y-84855003D01*
X118510065Y-85201813D01*
X118318658Y-85239869D01*
X118131303Y-85119586D01*
X117664107Y-84887913D01*
X117274234Y-85015437D01*
X116909230Y-85483717D01*
X116689079Y-85910396D01*
X116577730Y-86350463D01*
X116540191Y-86975053D01*
X116538000Y-87299166D01*
X116556537Y-88039762D01*
X116635480Y-88530284D01*
X116809822Y-88941869D01*
X116909230Y-89114615D01*
X117335151Y-89614691D01*
X117764346Y-89693176D01*
X118173480Y-89388959D01*
X118383274Y-89184044D01*
X118543908Y-89219734D01*
X118759309Y-89529552D01*
X118795483Y-89589593D01*
X119122488Y-90134601D01*
X118814494Y-90565311D01*
X118245730Y-91115385D01*
X117629321Y-91307706D01*
X117010270Y-91178691D01*
X116433578Y-90764756D01*
X115944247Y-90102315D01*
X115587279Y-89227786D01*
X115407676Y-88177584D01*
X115395000Y-87798235D01*
X115395000Y-87119540D01*
X115065612Y-87632686D01*
X114822925Y-88064186D01*
X114502614Y-88703284D01*
X114173796Y-89412043D01*
X114172112Y-89415833D01*
X113685086Y-90478218D01*
X113320107Y-91198668D01*
X113081146Y-91569711D01*
X113000420Y-91621622D01*
X112818766Y-91535532D01*
X112759750Y-91498150D01*
X112627242Y-91223355D01*
X112601000Y-90979658D01*
X112545701Y-90587437D01*
X112401012Y-89961436D01*
X112206790Y-89266387D01*
X111934455Y-88191597D01*
X111812123Y-87288632D01*
X111843802Y-86612473D01*
X111988086Y-86265128D01*
X112108503Y-85996615D01*
X112146122Y-85519488D01*
X112125178Y-84925346D01*
X112103853Y-84175068D01*
X112121402Y-83513974D01*
X112144226Y-83283641D01*
X112335527Y-82627447D01*
X112689081Y-81902816D01*
X113138103Y-81224321D01*
X113615808Y-80706535D01*
X113674273Y-80658770D01*
X114069589Y-80408768D01*
X114556070Y-80184870D01*
X115065846Y-80007442D01*
X115531045Y-79896849D01*
X115883796Y-79873454D01*
X116050303Y-79945838D01*
G36*
X126611449Y-86346666D02*
G01*
X126832102Y-86361017D01*
X126985080Y-86456913D01*
X127108249Y-86713620D01*
X127239472Y-87210402D01*
X127416612Y-88026526D01*
X127418787Y-88036770D01*
X127777500Y-89726874D01*
X128104933Y-88089687D01*
X128273422Y-87278195D01*
X128403454Y-86785908D01*
X128531573Y-86527574D01*
X128694325Y-86417941D01*
X128835183Y-86386172D01*
X129110669Y-86400891D01*
X129237117Y-86526174D01*
X129238000Y-86540668D01*
X129192913Y-86814424D01*
X129071988Y-87387288D01*
X128896727Y-88167355D01*
X128688633Y-89062721D01*
X128469209Y-89981480D01*
X128259956Y-90831728D01*
X128082378Y-91521560D01*
X128015348Y-91766441D01*
X127747571Y-92355960D01*
X127361883Y-92800729D01*
X126944121Y-93027146D01*
X126602750Y-92977700D01*
X126478777Y-92708346D01*
X126444000Y-92375587D01*
X126509469Y-91981144D01*
X126749161Y-91817993D01*
X126780440Y-91811142D01*
X127073844Y-91693950D01*
X127235089Y-91448475D01*
X127265614Y-91018895D01*
X127166861Y-90349387D01*
X126940271Y-89384127D01*
X126851859Y-89044716D01*
X126566672Y-87968413D01*
X126374092Y-87222581D01*
X126268763Y-86747111D01*
X126245330Y-86481894D01*
X126298437Y-86366821D01*
X126422727Y-86341781D01*
X126611449Y-86346666D01*
G37*
X126611449Y-86346666D02*
X126832102Y-86361017D01*
X126985080Y-86456913D01*
X127108249Y-86713620D01*
X127239472Y-87210402D01*
X127416612Y-88026526D01*
X127418787Y-88036770D01*
X127777500Y-89726874D01*
X128104933Y-88089687D01*
X128273422Y-87278195D01*
X128403454Y-86785908D01*
X128531573Y-86527574D01*
X128694325Y-86417941D01*
X128835183Y-86386172D01*
X129110669Y-86400891D01*
X129237117Y-86526174D01*
X129238000Y-86540668D01*
X129192913Y-86814424D01*
X129071988Y-87387288D01*
X128896727Y-88167355D01*
X128688633Y-89062721D01*
X128469209Y-89981480D01*
X128259956Y-90831728D01*
X128082378Y-91521560D01*
X128015348Y-91766441D01*
X127747571Y-92355960D01*
X127361883Y-92800729D01*
X126944121Y-93027146D01*
X126602750Y-92977700D01*
X126478777Y-92708346D01*
X126444000Y-92375587D01*
X126509469Y-91981144D01*
X126749161Y-91817993D01*
X126780440Y-91811142D01*
X127073844Y-91693950D01*
X127235089Y-91448475D01*
X127265614Y-91018895D01*
X127166861Y-90349387D01*
X126940271Y-89384127D01*
X126851859Y-89044716D01*
X126566672Y-87968413D01*
X126374092Y-87222581D01*
X126268763Y-86747111D01*
X126245330Y-86481894D01*
X126298437Y-86366821D01*
X126422727Y-86341781D01*
X126611449Y-86346666D01*
D12*
X87150000Y-82200000D02*
X87150000Y-81700000D01*
X87150000Y-82200000D02*
X86700000Y-82200000D01*
X87150000Y-72000000D02*
X86700000Y-72000000D01*
X87150000Y-72000000D02*
X87150000Y-72500000D01*
X79450000Y-72000000D02*
X79450000Y-72500000D01*
X79450000Y-72000000D02*
X79950000Y-72000000D01*
X79450000Y-82200000D02*
X79950000Y-82200000D01*
X79450000Y-82200000D02*
X79450000Y-81700000D01*
X87400000Y-44550000D02*
X87900000Y-44550000D01*
X87400000Y-44550000D02*
X87400000Y-44100000D01*
X97600000Y-44550000D02*
X97600000Y-44100000D01*
X97600000Y-44550000D02*
X97100000Y-44550000D01*
X97600000Y-36850000D02*
X97100000Y-36850000D01*
X97600000Y-36850000D02*
X97600000Y-37350000D01*
X87400000Y-36850000D02*
X87400000Y-37350000D01*
X87400000Y-36850000D02*
X87900000Y-36850000D01*
X106600000Y-44550000D02*
X107100000Y-44550000D01*
X106600000Y-44550000D02*
X106600000Y-44100000D01*
X116800000Y-44550000D02*
X116800000Y-44100000D01*
X116800000Y-44550000D02*
X116300000Y-44550000D01*
X116800000Y-36850000D02*
X116300000Y-36850000D01*
X116800000Y-36850000D02*
X116800000Y-37350000D01*
X106600000Y-36850000D02*
X106600000Y-37350000D01*
X106600000Y-36850000D02*
X107100000Y-36850000D01*
D13*
X98395000Y-101680199D02*
X97995000Y-101680199D01*
X98195000Y-101480199D02*
X98195000Y-101880199D01*
X97370000Y-105831000D02*
X96630000Y-105831000D01*
X97537000Y-105791000D02*
X96463000Y-105791000D01*
X97664000Y-105751000D02*
X96336000Y-105751000D01*
X97768000Y-105711000D02*
X96232000Y-105711000D01*
X97859000Y-105671000D02*
X96141000Y-105671000D01*
X97940000Y-105631000D02*
X96060000Y-105631000D01*
X98013000Y-105591000D02*
X95987000Y-105591000D01*
X98080000Y-105551000D02*
X95920000Y-105551000D01*
X98142000Y-105511000D02*
X95858000Y-105511000D01*
X98200000Y-105471000D02*
X95800000Y-105471000D01*
X98254000Y-105431000D02*
X95746000Y-105431000D01*
X98304000Y-105391000D02*
X95696000Y-105391000D01*
X98351000Y-105351000D02*
X95649000Y-105351000D01*
X96160000Y-105311000D02*
X95604000Y-105311000D01*
X98396000Y-105311000D02*
X97840000Y-105311000D01*
X96160000Y-105271000D02*
X95562000Y-105271000D01*
X98438000Y-105271000D02*
X97840000Y-105271000D01*
X96160000Y-105231000D02*
X95522000Y-105231000D01*
X98478000Y-105231000D02*
X97840000Y-105231000D01*
X96160000Y-105191000D02*
X95484000Y-105191000D01*
X98516000Y-105191000D02*
X97840000Y-105191000D01*
X96160000Y-105151000D02*
X95448000Y-105151000D01*
X98552000Y-105151000D02*
X97840000Y-105151000D01*
X96160000Y-105111000D02*
X95413000Y-105111000D01*
X98587000Y-105111000D02*
X97840000Y-105111000D01*
X96160000Y-105071000D02*
X95381000Y-105071000D01*
X98619000Y-105071000D02*
X97840000Y-105071000D01*
X96160000Y-105031000D02*
X95350000Y-105031000D01*
X98650000Y-105031000D02*
X97840000Y-105031000D01*
X96160000Y-104991000D02*
X95320000Y-104991000D01*
X98680000Y-104991000D02*
X97840000Y-104991000D01*
X96160000Y-104951000D02*
X95292000Y-104951000D01*
X98708000Y-104951000D02*
X97840000Y-104951000D01*
X96160000Y-104911000D02*
X95265000Y-104911000D01*
X98735000Y-104911000D02*
X97840000Y-104911000D01*
X96160000Y-104871000D02*
X95240000Y-104871000D01*
X98760000Y-104871000D02*
X97840000Y-104871000D01*
X96160000Y-104831000D02*
X95215000Y-104831000D01*
X98785000Y-104831000D02*
X97840000Y-104831000D01*
X96160000Y-104791000D02*
X95192000Y-104791000D01*
X98808000Y-104791000D02*
X97840000Y-104791000D01*
X96160000Y-104751000D02*
X95170000Y-104751000D01*
X98830000Y-104751000D02*
X97840000Y-104751000D01*
X96160000Y-104711000D02*
X95149000Y-104711000D01*
X98851000Y-104711000D02*
X97840000Y-104711000D01*
X96160000Y-104671000D02*
X95130000Y-104671000D01*
X98870000Y-104671000D02*
X97840000Y-104671000D01*
X96160000Y-104631000D02*
X95111000Y-104631000D01*
X98889000Y-104631000D02*
X97840000Y-104631000D01*
X96160000Y-104591000D02*
X95093000Y-104591000D01*
X98907000Y-104591000D02*
X97840000Y-104591000D01*
X96160000Y-104551000D02*
X95076000Y-104551000D01*
X98924000Y-104551000D02*
X97840000Y-104551000D01*
X96160000Y-104511000D02*
X95060000Y-104511000D01*
X98940000Y-104511000D02*
X97840000Y-104511000D01*
X96160000Y-104471000D02*
X95046000Y-104471000D01*
X98954000Y-104471000D02*
X97840000Y-104471000D01*
X96160000Y-104430000D02*
X95032000Y-104430000D01*
X98968000Y-104430000D02*
X97840000Y-104430000D01*
X96160000Y-104390000D02*
X95018000Y-104390000D01*
X98982000Y-104390000D02*
X97840000Y-104390000D01*
X96160000Y-104350000D02*
X95006000Y-104350000D01*
X98994000Y-104350000D02*
X97840000Y-104350000D01*
X96160000Y-104310000D02*
X94995000Y-104310000D01*
X99005000Y-104310000D02*
X97840000Y-104310000D01*
X96160000Y-104270000D02*
X94984000Y-104270000D01*
X99016000Y-104270000D02*
X97840000Y-104270000D01*
X96160000Y-104230000D02*
X94975000Y-104230000D01*
X99025000Y-104230000D02*
X97840000Y-104230000D01*
X96160000Y-104190000D02*
X94966000Y-104190000D01*
X99034000Y-104190000D02*
X97840000Y-104190000D01*
X96160000Y-104150000D02*
X94958000Y-104150000D01*
X99042000Y-104150000D02*
X97840000Y-104150000D01*
X96160000Y-104110000D02*
X94950000Y-104110000D01*
X99050000Y-104110000D02*
X97840000Y-104110000D01*
X96160000Y-104070000D02*
X94944000Y-104070000D01*
X99056000Y-104070000D02*
X97840000Y-104070000D01*
X96160000Y-104030000D02*
X94938000Y-104030000D01*
X99062000Y-104030000D02*
X97840000Y-104030000D01*
X96160000Y-103990000D02*
X94933000Y-103990000D01*
X99067000Y-103990000D02*
X97840000Y-103990000D01*
X96160000Y-103950000D02*
X94929000Y-103950000D01*
X99071000Y-103950000D02*
X97840000Y-103950000D01*
X96160000Y-103910000D02*
X94926000Y-103910000D01*
X99074000Y-103910000D02*
X97840000Y-103910000D01*
X96160000Y-103870000D02*
X94923000Y-103870000D01*
X99077000Y-103870000D02*
X97840000Y-103870000D01*
X99079000Y-103830000D02*
X97840000Y-103830000D01*
X96160000Y-103830000D02*
X94921000Y-103830000D01*
X99080000Y-103790000D02*
X97840000Y-103790000D01*
X96160000Y-103790000D02*
X94920000Y-103790000D01*
X99080000Y-103750000D02*
X97840000Y-103750000D01*
X96160000Y-103750000D02*
X94920000Y-103750000D01*
X99120000Y-103750000D02*
G75*
G03X99120000Y-103750000I-2120000J0D01*
G01*
X99120000Y-96750000D02*
G75*
G03X99120000Y-96750000I-2120000J0D01*
G01*
X96160000Y-96750000D02*
X94920000Y-96750000D01*
X99080000Y-96750000D02*
X97840000Y-96750000D01*
X96160000Y-96790000D02*
X94920000Y-96790000D01*
X99080000Y-96790000D02*
X97840000Y-96790000D01*
X96160000Y-96830000D02*
X94921000Y-96830000D01*
X99079000Y-96830000D02*
X97840000Y-96830000D01*
X99077000Y-96870000D02*
X97840000Y-96870000D01*
X96160000Y-96870000D02*
X94923000Y-96870000D01*
X99074000Y-96910000D02*
X97840000Y-96910000D01*
X96160000Y-96910000D02*
X94926000Y-96910000D01*
X99071000Y-96950000D02*
X97840000Y-96950000D01*
X96160000Y-96950000D02*
X94929000Y-96950000D01*
X99067000Y-96990000D02*
X97840000Y-96990000D01*
X96160000Y-96990000D02*
X94933000Y-96990000D01*
X99062000Y-97030000D02*
X97840000Y-97030000D01*
X96160000Y-97030000D02*
X94938000Y-97030000D01*
X99056000Y-97070000D02*
X97840000Y-97070000D01*
X96160000Y-97070000D02*
X94944000Y-97070000D01*
X99050000Y-97110000D02*
X97840000Y-97110000D01*
X96160000Y-97110000D02*
X94950000Y-97110000D01*
X99042000Y-97150000D02*
X97840000Y-97150000D01*
X96160000Y-97150000D02*
X94958000Y-97150000D01*
X99034000Y-97190000D02*
X97840000Y-97190000D01*
X96160000Y-97190000D02*
X94966000Y-97190000D01*
X99025000Y-97230000D02*
X97840000Y-97230000D01*
X96160000Y-97230000D02*
X94975000Y-97230000D01*
X99016000Y-97270000D02*
X97840000Y-97270000D01*
X96160000Y-97270000D02*
X94984000Y-97270000D01*
X99005000Y-97310000D02*
X97840000Y-97310000D01*
X96160000Y-97310000D02*
X94995000Y-97310000D01*
X98994000Y-97350000D02*
X97840000Y-97350000D01*
X96160000Y-97350000D02*
X95006000Y-97350000D01*
X98982000Y-97390000D02*
X97840000Y-97390000D01*
X96160000Y-97390000D02*
X95018000Y-97390000D01*
X98968000Y-97430000D02*
X97840000Y-97430000D01*
X96160000Y-97430000D02*
X95032000Y-97430000D01*
X98954000Y-97471000D02*
X97840000Y-97471000D01*
X96160000Y-97471000D02*
X95046000Y-97471000D01*
X98940000Y-97511000D02*
X97840000Y-97511000D01*
X96160000Y-97511000D02*
X95060000Y-97511000D01*
X98924000Y-97551000D02*
X97840000Y-97551000D01*
X96160000Y-97551000D02*
X95076000Y-97551000D01*
X98907000Y-97591000D02*
X97840000Y-97591000D01*
X96160000Y-97591000D02*
X95093000Y-97591000D01*
X98889000Y-97631000D02*
X97840000Y-97631000D01*
X96160000Y-97631000D02*
X95111000Y-97631000D01*
X98870000Y-97671000D02*
X97840000Y-97671000D01*
X96160000Y-97671000D02*
X95130000Y-97671000D01*
X98851000Y-97711000D02*
X97840000Y-97711000D01*
X96160000Y-97711000D02*
X95149000Y-97711000D01*
X98830000Y-97751000D02*
X97840000Y-97751000D01*
X96160000Y-97751000D02*
X95170000Y-97751000D01*
X98808000Y-97791000D02*
X97840000Y-97791000D01*
X96160000Y-97791000D02*
X95192000Y-97791000D01*
X98785000Y-97831000D02*
X97840000Y-97831000D01*
X96160000Y-97831000D02*
X95215000Y-97831000D01*
X98760000Y-97871000D02*
X97840000Y-97871000D01*
X96160000Y-97871000D02*
X95240000Y-97871000D01*
X98735000Y-97911000D02*
X97840000Y-97911000D01*
X96160000Y-97911000D02*
X95265000Y-97911000D01*
X98708000Y-97951000D02*
X97840000Y-97951000D01*
X96160000Y-97951000D02*
X95292000Y-97951000D01*
X98680000Y-97991000D02*
X97840000Y-97991000D01*
X96160000Y-97991000D02*
X95320000Y-97991000D01*
X98650000Y-98031000D02*
X97840000Y-98031000D01*
X96160000Y-98031000D02*
X95350000Y-98031000D01*
X98619000Y-98071000D02*
X97840000Y-98071000D01*
X96160000Y-98071000D02*
X95381000Y-98071000D01*
X98587000Y-98111000D02*
X97840000Y-98111000D01*
X96160000Y-98111000D02*
X95413000Y-98111000D01*
X98552000Y-98151000D02*
X97840000Y-98151000D01*
X96160000Y-98151000D02*
X95448000Y-98151000D01*
X98516000Y-98191000D02*
X97840000Y-98191000D01*
X96160000Y-98191000D02*
X95484000Y-98191000D01*
X98478000Y-98231000D02*
X97840000Y-98231000D01*
X96160000Y-98231000D02*
X95522000Y-98231000D01*
X98438000Y-98271000D02*
X97840000Y-98271000D01*
X96160000Y-98271000D02*
X95562000Y-98271000D01*
X98396000Y-98311000D02*
X97840000Y-98311000D01*
X96160000Y-98311000D02*
X95604000Y-98311000D01*
X98351000Y-98351000D02*
X95649000Y-98351000D01*
X98304000Y-98391000D02*
X95696000Y-98391000D01*
X98254000Y-98431000D02*
X95746000Y-98431000D01*
X98200000Y-98471000D02*
X95800000Y-98471000D01*
X98142000Y-98511000D02*
X95858000Y-98511000D01*
X98080000Y-98551000D02*
X95920000Y-98551000D01*
X98013000Y-98591000D02*
X95987000Y-98591000D01*
X97940000Y-98631000D02*
X96060000Y-98631000D01*
X97859000Y-98671000D02*
X96141000Y-98671000D01*
X97768000Y-98711000D02*
X96232000Y-98711000D01*
X97664000Y-98751000D02*
X96336000Y-98751000D01*
X97537000Y-98791000D02*
X96463000Y-98791000D01*
X97370000Y-98831000D02*
X96630000Y-98831000D01*
X98195000Y-94480199D02*
X98195000Y-94880199D01*
X98395000Y-94680199D02*
X97995000Y-94680199D01*
X98870000Y-112000000D02*
G75*
G03X98870000Y-112000000I-2120000J0D01*
G01*
X96750000Y-112840000D02*
X96750000Y-114080000D01*
X96750000Y-109920000D02*
X96750000Y-111160000D01*
X96790000Y-112840000D02*
X96790000Y-114080000D01*
X96790000Y-109920000D02*
X96790000Y-111160000D01*
X96830000Y-112840000D02*
X96830000Y-114079000D01*
X96830000Y-109921000D02*
X96830000Y-111160000D01*
X96870000Y-109923000D02*
X96870000Y-111160000D01*
X96870000Y-112840000D02*
X96870000Y-114077000D01*
X96910000Y-109926000D02*
X96910000Y-111160000D01*
X96910000Y-112840000D02*
X96910000Y-114074000D01*
X96950000Y-109929000D02*
X96950000Y-111160000D01*
X96950000Y-112840000D02*
X96950000Y-114071000D01*
X96990000Y-109933000D02*
X96990000Y-111160000D01*
X96990000Y-112840000D02*
X96990000Y-114067000D01*
X97030000Y-109938000D02*
X97030000Y-111160000D01*
X97030000Y-112840000D02*
X97030000Y-114062000D01*
X97070000Y-109944000D02*
X97070000Y-111160000D01*
X97070000Y-112840000D02*
X97070000Y-114056000D01*
X97110000Y-109950000D02*
X97110000Y-111160000D01*
X97110000Y-112840000D02*
X97110000Y-114050000D01*
X97150000Y-109958000D02*
X97150000Y-111160000D01*
X97150000Y-112840000D02*
X97150000Y-114042000D01*
X97190000Y-109966000D02*
X97190000Y-111160000D01*
X97190000Y-112840000D02*
X97190000Y-114034000D01*
X97230000Y-109975000D02*
X97230000Y-111160000D01*
X97230000Y-112840000D02*
X97230000Y-114025000D01*
X97270000Y-109984000D02*
X97270000Y-111160000D01*
X97270000Y-112840000D02*
X97270000Y-114016000D01*
X97310000Y-109995000D02*
X97310000Y-111160000D01*
X97310000Y-112840000D02*
X97310000Y-114005000D01*
X97350000Y-110006000D02*
X97350000Y-111160000D01*
X97350000Y-112840000D02*
X97350000Y-113994000D01*
X97390000Y-110018000D02*
X97390000Y-111160000D01*
X97390000Y-112840000D02*
X97390000Y-113982000D01*
X97430000Y-110032000D02*
X97430000Y-111160000D01*
X97430000Y-112840000D02*
X97430000Y-113968000D01*
X97471000Y-110046000D02*
X97471000Y-111160000D01*
X97471000Y-112840000D02*
X97471000Y-113954000D01*
X97511000Y-110060000D02*
X97511000Y-111160000D01*
X97511000Y-112840000D02*
X97511000Y-113940000D01*
X97551000Y-110076000D02*
X97551000Y-111160000D01*
X97551000Y-112840000D02*
X97551000Y-113924000D01*
X97591000Y-110093000D02*
X97591000Y-111160000D01*
X97591000Y-112840000D02*
X97591000Y-113907000D01*
X97631000Y-110111000D02*
X97631000Y-111160000D01*
X97631000Y-112840000D02*
X97631000Y-113889000D01*
X97671000Y-110130000D02*
X97671000Y-111160000D01*
X97671000Y-112840000D02*
X97671000Y-113870000D01*
X97711000Y-110149000D02*
X97711000Y-111160000D01*
X97711000Y-112840000D02*
X97711000Y-113851000D01*
X97751000Y-110170000D02*
X97751000Y-111160000D01*
X97751000Y-112840000D02*
X97751000Y-113830000D01*
X97791000Y-110192000D02*
X97791000Y-111160000D01*
X97791000Y-112840000D02*
X97791000Y-113808000D01*
X97831000Y-110215000D02*
X97831000Y-111160000D01*
X97831000Y-112840000D02*
X97831000Y-113785000D01*
X97871000Y-110240000D02*
X97871000Y-111160000D01*
X97871000Y-112840000D02*
X97871000Y-113760000D01*
X97911000Y-110265000D02*
X97911000Y-111160000D01*
X97911000Y-112840000D02*
X97911000Y-113735000D01*
X97951000Y-110292000D02*
X97951000Y-111160000D01*
X97951000Y-112840000D02*
X97951000Y-113708000D01*
X97991000Y-110320000D02*
X97991000Y-111160000D01*
X97991000Y-112840000D02*
X97991000Y-113680000D01*
X98031000Y-110350000D02*
X98031000Y-111160000D01*
X98031000Y-112840000D02*
X98031000Y-113650000D01*
X98071000Y-110381000D02*
X98071000Y-111160000D01*
X98071000Y-112840000D02*
X98071000Y-113619000D01*
X98111000Y-110413000D02*
X98111000Y-111160000D01*
X98111000Y-112840000D02*
X98111000Y-113587000D01*
X98151000Y-110448000D02*
X98151000Y-111160000D01*
X98151000Y-112840000D02*
X98151000Y-113552000D01*
X98191000Y-110484000D02*
X98191000Y-111160000D01*
X98191000Y-112840000D02*
X98191000Y-113516000D01*
X98231000Y-110522000D02*
X98231000Y-111160000D01*
X98231000Y-112840000D02*
X98231000Y-113478000D01*
X98271000Y-110562000D02*
X98271000Y-111160000D01*
X98271000Y-112840000D02*
X98271000Y-113438000D01*
X98311000Y-110604000D02*
X98311000Y-111160000D01*
X98311000Y-112840000D02*
X98311000Y-113396000D01*
X98351000Y-110649000D02*
X98351000Y-113351000D01*
X98391000Y-110696000D02*
X98391000Y-113304000D01*
X98431000Y-110746000D02*
X98431000Y-113254000D01*
X98471000Y-110800000D02*
X98471000Y-113200000D01*
X98511000Y-110858000D02*
X98511000Y-113142000D01*
X98551000Y-110920000D02*
X98551000Y-113080000D01*
X98591000Y-110987000D02*
X98591000Y-113013000D01*
X98631000Y-111060000D02*
X98631000Y-112940000D01*
X98671000Y-111141000D02*
X98671000Y-112859000D01*
X98711000Y-111232000D02*
X98711000Y-112768000D01*
X98751000Y-111336000D02*
X98751000Y-112664000D01*
X98791000Y-111463000D02*
X98791000Y-112537000D01*
X98831000Y-111630000D02*
X98831000Y-112370000D01*
X94480199Y-110805000D02*
X94880199Y-110805000D01*
X94680199Y-110605000D02*
X94680199Y-111005000D01*
X94680199Y-117605000D02*
X94680199Y-118005000D01*
X94480199Y-117805000D02*
X94880199Y-117805000D01*
X98831000Y-118630000D02*
X98831000Y-119370000D01*
X98791000Y-118463000D02*
X98791000Y-119537000D01*
X98751000Y-118336000D02*
X98751000Y-119664000D01*
X98711000Y-118232000D02*
X98711000Y-119768000D01*
X98671000Y-118141000D02*
X98671000Y-119859000D01*
X98631000Y-118060000D02*
X98631000Y-119940000D01*
X98591000Y-117987000D02*
X98591000Y-120013000D01*
X98551000Y-117920000D02*
X98551000Y-120080000D01*
X98511000Y-117858000D02*
X98511000Y-120142000D01*
X98471000Y-117800000D02*
X98471000Y-120200000D01*
X98431000Y-117746000D02*
X98431000Y-120254000D01*
X98391000Y-117696000D02*
X98391000Y-120304000D01*
X98351000Y-117649000D02*
X98351000Y-120351000D01*
X98311000Y-119840000D02*
X98311000Y-120396000D01*
X98311000Y-117604000D02*
X98311000Y-118160000D01*
X98271000Y-119840000D02*
X98271000Y-120438000D01*
X98271000Y-117562000D02*
X98271000Y-118160000D01*
X98231000Y-119840000D02*
X98231000Y-120478000D01*
X98231000Y-117522000D02*
X98231000Y-118160000D01*
X98191000Y-119840000D02*
X98191000Y-120516000D01*
X98191000Y-117484000D02*
X98191000Y-118160000D01*
X98151000Y-119840000D02*
X98151000Y-120552000D01*
X98151000Y-117448000D02*
X98151000Y-118160000D01*
X98111000Y-119840000D02*
X98111000Y-120587000D01*
X98111000Y-117413000D02*
X98111000Y-118160000D01*
X98071000Y-119840000D02*
X98071000Y-120619000D01*
X98071000Y-117381000D02*
X98071000Y-118160000D01*
X98031000Y-119840000D02*
X98031000Y-120650000D01*
X98031000Y-117350000D02*
X98031000Y-118160000D01*
X97991000Y-119840000D02*
X97991000Y-120680000D01*
X97991000Y-117320000D02*
X97991000Y-118160000D01*
X97951000Y-119840000D02*
X97951000Y-120708000D01*
X97951000Y-117292000D02*
X97951000Y-118160000D01*
X97911000Y-119840000D02*
X97911000Y-120735000D01*
X97911000Y-117265000D02*
X97911000Y-118160000D01*
X97871000Y-119840000D02*
X97871000Y-120760000D01*
X97871000Y-117240000D02*
X97871000Y-118160000D01*
X97831000Y-119840000D02*
X97831000Y-120785000D01*
X97831000Y-117215000D02*
X97831000Y-118160000D01*
X97791000Y-119840000D02*
X97791000Y-120808000D01*
X97791000Y-117192000D02*
X97791000Y-118160000D01*
X97751000Y-119840000D02*
X97751000Y-120830000D01*
X97751000Y-117170000D02*
X97751000Y-118160000D01*
X97711000Y-119840000D02*
X97711000Y-120851000D01*
X97711000Y-117149000D02*
X97711000Y-118160000D01*
X97671000Y-119840000D02*
X97671000Y-120870000D01*
X97671000Y-117130000D02*
X97671000Y-118160000D01*
X97631000Y-119840000D02*
X97631000Y-120889000D01*
X97631000Y-117111000D02*
X97631000Y-118160000D01*
X97591000Y-119840000D02*
X97591000Y-120907000D01*
X97591000Y-117093000D02*
X97591000Y-118160000D01*
X97551000Y-119840000D02*
X97551000Y-120924000D01*
X97551000Y-117076000D02*
X97551000Y-118160000D01*
X97511000Y-119840000D02*
X97511000Y-120940000D01*
X97511000Y-117060000D02*
X97511000Y-118160000D01*
X97471000Y-119840000D02*
X97471000Y-120954000D01*
X97471000Y-117046000D02*
X97471000Y-118160000D01*
X97430000Y-119840000D02*
X97430000Y-120968000D01*
X97430000Y-117032000D02*
X97430000Y-118160000D01*
X97390000Y-119840000D02*
X97390000Y-120982000D01*
X97390000Y-117018000D02*
X97390000Y-118160000D01*
X97350000Y-119840000D02*
X97350000Y-120994000D01*
X97350000Y-117006000D02*
X97350000Y-118160000D01*
X97310000Y-119840000D02*
X97310000Y-121005000D01*
X97310000Y-116995000D02*
X97310000Y-118160000D01*
X97270000Y-119840000D02*
X97270000Y-121016000D01*
X97270000Y-116984000D02*
X97270000Y-118160000D01*
X97230000Y-119840000D02*
X97230000Y-121025000D01*
X97230000Y-116975000D02*
X97230000Y-118160000D01*
X97190000Y-119840000D02*
X97190000Y-121034000D01*
X97190000Y-116966000D02*
X97190000Y-118160000D01*
X97150000Y-119840000D02*
X97150000Y-121042000D01*
X97150000Y-116958000D02*
X97150000Y-118160000D01*
X97110000Y-119840000D02*
X97110000Y-121050000D01*
X97110000Y-116950000D02*
X97110000Y-118160000D01*
X97070000Y-119840000D02*
X97070000Y-121056000D01*
X97070000Y-116944000D02*
X97070000Y-118160000D01*
X97030000Y-119840000D02*
X97030000Y-121062000D01*
X97030000Y-116938000D02*
X97030000Y-118160000D01*
X96990000Y-119840000D02*
X96990000Y-121067000D01*
X96990000Y-116933000D02*
X96990000Y-118160000D01*
X96950000Y-119840000D02*
X96950000Y-121071000D01*
X96950000Y-116929000D02*
X96950000Y-118160000D01*
X96910000Y-119840000D02*
X96910000Y-121074000D01*
X96910000Y-116926000D02*
X96910000Y-118160000D01*
X96870000Y-119840000D02*
X96870000Y-121077000D01*
X96870000Y-116923000D02*
X96870000Y-118160000D01*
X96830000Y-116921000D02*
X96830000Y-118160000D01*
X96830000Y-119840000D02*
X96830000Y-121079000D01*
X96790000Y-116920000D02*
X96790000Y-118160000D01*
X96790000Y-119840000D02*
X96790000Y-121080000D01*
X96750000Y-116920000D02*
X96750000Y-118160000D01*
X96750000Y-119840000D02*
X96750000Y-121080000D01*
X98870000Y-119000000D02*
G75*
G03X98870000Y-119000000I-2120000J0D01*
G01*
X157290000Y-66321078D02*
X157290000Y-65803922D01*
X158710000Y-66321078D02*
X158710000Y-65803922D01*
X157741422Y-101790000D02*
X158258578Y-101790000D01*
X157741422Y-103210000D02*
X158258578Y-103210000D01*
X107078922Y-58710000D02*
X107596078Y-58710000D01*
X107078922Y-57290000D02*
X107596078Y-57290000D01*
X91803922Y-58640000D02*
X92321078Y-58640000D01*
X91803922Y-60060000D02*
X92321078Y-60060000D01*
X107596078Y-60090000D02*
X107078922Y-60090000D01*
X107596078Y-61510000D02*
X107078922Y-61510000D01*
X110490000Y-69041422D02*
X110490000Y-69558578D01*
X111910000Y-69041422D02*
X111910000Y-69558578D01*
X98290000Y-57046078D02*
X98290000Y-56528922D01*
X99710000Y-57046078D02*
X99710000Y-56528922D01*
X107078922Y-55210000D02*
X107596078Y-55210000D01*
X107078922Y-53790000D02*
X107596078Y-53790000D01*
X99803922Y-77290000D02*
X100321078Y-77290000D01*
X99803922Y-78710000D02*
X100321078Y-78710000D01*
X88530000Y-100860000D02*
X91470000Y-100860000D01*
X88530000Y-100620000D02*
X91470000Y-100620000D01*
X88530000Y-100740000D02*
X91470000Y-100740000D01*
X90000000Y-95180000D02*
X90000000Y-96200000D01*
X90000000Y-102660000D02*
X90000000Y-101640000D01*
X88530000Y-96200000D02*
X88530000Y-101640000D01*
X91470000Y-96200000D02*
X88530000Y-96200000D01*
X91470000Y-101640000D02*
X91470000Y-96200000D01*
X88530000Y-101640000D02*
X91470000Y-101640000D01*
X91470000Y-112360000D02*
X88530000Y-112360000D01*
X88530000Y-112360000D02*
X88530000Y-117800000D01*
X88530000Y-117800000D02*
X91470000Y-117800000D01*
X91470000Y-117800000D02*
X91470000Y-112360000D01*
X90000000Y-111340000D02*
X90000000Y-112360000D01*
X90000000Y-118820000D02*
X90000000Y-117800000D01*
X91470000Y-113260000D02*
X88530000Y-113260000D01*
X91470000Y-113380000D02*
X88530000Y-113380000D01*
X91470000Y-113140000D02*
X88530000Y-113140000D01*
X93062500Y-63040000D02*
X90377500Y-63040000D01*
X90377500Y-63040000D02*
X90377500Y-64960000D01*
X90377500Y-64960000D02*
X93062500Y-64960000D01*
X170090000Y-43580000D02*
X170090000Y-38380000D01*
X121770000Y-43580000D02*
X170090000Y-43580000D01*
X119170000Y-38380000D02*
X170090000Y-38380000D01*
X121770000Y-43580000D02*
X121770000Y-40980000D01*
X121770000Y-40980000D02*
X119170000Y-40980000D01*
X119170000Y-40980000D02*
X119170000Y-38380000D01*
X120500000Y-43580000D02*
X119170000Y-43580000D01*
X119170000Y-43580000D02*
X119170000Y-42250000D01*
D12*
X174800000Y-54700000D02*
X174200000Y-54700000D01*
X174800000Y-61300000D02*
X174200000Y-61300000D01*
X178000000Y-58000000D02*
X178000000Y-58400000D01*
X178000000Y-58000000D02*
X178000000Y-57600000D01*
D13*
X152540000Y-133430000D02*
X152540000Y-134030000D01*
X154140000Y-133430000D02*
X152540000Y-133430000D01*
X154140000Y-134030000D02*
X154140000Y-133430000D01*
X155080000Y-133430000D02*
X155080000Y-134030000D01*
X156680000Y-133430000D02*
X155080000Y-133430000D01*
X156680000Y-134030000D02*
X156680000Y-133430000D01*
X157620000Y-133430000D02*
X157620000Y-134030000D01*
X159220000Y-133430000D02*
X157620000Y-133430000D01*
X159220000Y-134030000D02*
X159220000Y-133430000D01*
X160160000Y-133430000D02*
X160160000Y-134030000D01*
X161760000Y-133430000D02*
X160160000Y-133430000D01*
X161760000Y-134030000D02*
X161760000Y-133430000D01*
X162700000Y-133430000D02*
X162700000Y-134030000D01*
X164300000Y-133430000D02*
X162700000Y-133430000D01*
X164300000Y-134030000D02*
X164300000Y-133430000D01*
X165240000Y-133430000D02*
X165240000Y-134030000D01*
X166840000Y-133430000D02*
X165240000Y-133430000D01*
X166840000Y-134030000D02*
X166840000Y-133430000D01*
X153590000Y-128010000D02*
X153590000Y-129010000D01*
X165790000Y-128010000D02*
X165790000Y-129010000D01*
X153590000Y-129540000D02*
X153340000Y-129010000D01*
X165790000Y-129540000D02*
X153590000Y-129540000D01*
X166040000Y-129010000D02*
X165790000Y-129540000D01*
X153340000Y-129010000D02*
X153340000Y-128010000D01*
X166040000Y-129010000D02*
X153340000Y-129010000D01*
X166040000Y-128010000D02*
X166040000Y-129010000D01*
X167710000Y-133000000D02*
X167710000Y-129000000D01*
X151960000Y-134030000D02*
X167420000Y-134030000D01*
X151960000Y-128010000D02*
X151960000Y-134030000D01*
X167420000Y-128010000D02*
X151960000Y-128010000D01*
X167420000Y-134030000D02*
X167420000Y-128010000D01*
X133380000Y-134030000D02*
X133380000Y-128010000D01*
X133380000Y-128010000D02*
X117920000Y-128010000D01*
X117920000Y-128010000D02*
X117920000Y-134030000D01*
X117920000Y-134030000D02*
X133380000Y-134030000D01*
X133670000Y-133000000D02*
X133670000Y-129000000D01*
X132000000Y-128010000D02*
X132000000Y-129010000D01*
X132000000Y-129010000D02*
X119300000Y-129010000D01*
X119300000Y-129010000D02*
X119300000Y-128010000D01*
X132000000Y-129010000D02*
X131750000Y-129540000D01*
X131750000Y-129540000D02*
X119550000Y-129540000D01*
X119550000Y-129540000D02*
X119300000Y-129010000D01*
X131750000Y-128010000D02*
X131750000Y-129010000D01*
X119550000Y-128010000D02*
X119550000Y-129010000D01*
X132800000Y-134030000D02*
X132800000Y-133430000D01*
X132800000Y-133430000D02*
X131200000Y-133430000D01*
X131200000Y-133430000D02*
X131200000Y-134030000D01*
X130260000Y-134030000D02*
X130260000Y-133430000D01*
X130260000Y-133430000D02*
X128660000Y-133430000D01*
X128660000Y-133430000D02*
X128660000Y-134030000D01*
X127720000Y-134030000D02*
X127720000Y-133430000D01*
X127720000Y-133430000D02*
X126120000Y-133430000D01*
X126120000Y-133430000D02*
X126120000Y-134030000D01*
X125180000Y-134030000D02*
X125180000Y-133430000D01*
X125180000Y-133430000D02*
X123580000Y-133430000D01*
X123580000Y-133430000D02*
X123580000Y-134030000D01*
X122640000Y-134030000D02*
X122640000Y-133430000D01*
X122640000Y-133430000D02*
X121040000Y-133430000D01*
X121040000Y-133430000D02*
X121040000Y-134030000D01*
X120100000Y-134030000D02*
X120100000Y-133430000D01*
X120100000Y-133430000D02*
X118500000Y-133430000D01*
X118500000Y-133430000D02*
X118500000Y-134030000D01*
X175430000Y-101500000D02*
X176030000Y-101500000D01*
X175430000Y-99900000D02*
X175430000Y-101500000D01*
X176030000Y-99900000D02*
X175430000Y-99900000D01*
X175430000Y-98960000D02*
X176030000Y-98960000D01*
X175430000Y-97360000D02*
X175430000Y-98960000D01*
X176030000Y-97360000D02*
X175430000Y-97360000D01*
X175430000Y-96420000D02*
X176030000Y-96420000D01*
X175430000Y-94820000D02*
X175430000Y-96420000D01*
X176030000Y-94820000D02*
X175430000Y-94820000D01*
X175430000Y-93880000D02*
X176030000Y-93880000D01*
X175430000Y-92280000D02*
X175430000Y-93880000D01*
X176030000Y-92280000D02*
X175430000Y-92280000D01*
X175430000Y-91340000D02*
X176030000Y-91340000D01*
X175430000Y-89740000D02*
X175430000Y-91340000D01*
X176030000Y-89740000D02*
X175430000Y-89740000D01*
X175430000Y-88800000D02*
X176030000Y-88800000D01*
X175430000Y-87200000D02*
X175430000Y-88800000D01*
X176030000Y-87200000D02*
X175430000Y-87200000D01*
X170010000Y-100450000D02*
X171010000Y-100450000D01*
X170010000Y-88250000D02*
X171010000Y-88250000D01*
X171540000Y-100450000D02*
X171010000Y-100700000D01*
X171540000Y-88250000D02*
X171540000Y-100450000D01*
X171010000Y-88000000D02*
X171540000Y-88250000D01*
X171010000Y-100700000D02*
X170010000Y-100700000D01*
X171010000Y-88000000D02*
X171010000Y-100700000D01*
X170010000Y-88000000D02*
X171010000Y-88000000D01*
X175000000Y-86330000D02*
X171000000Y-86330000D01*
X176030000Y-102080000D02*
X176030000Y-86620000D01*
X170010000Y-102080000D02*
X176030000Y-102080000D01*
X170010000Y-86620000D02*
X170010000Y-102080000D01*
X176030000Y-86620000D02*
X170010000Y-86620000D01*
X135580000Y-133430000D02*
X135580000Y-134030000D01*
X137180000Y-133430000D02*
X135580000Y-133430000D01*
X137180000Y-134030000D02*
X137180000Y-133430000D01*
X138120000Y-133430000D02*
X138120000Y-134030000D01*
X139720000Y-133430000D02*
X138120000Y-133430000D01*
X139720000Y-134030000D02*
X139720000Y-133430000D01*
X140660000Y-133430000D02*
X140660000Y-134030000D01*
X142260000Y-133430000D02*
X140660000Y-133430000D01*
X142260000Y-134030000D02*
X142260000Y-133430000D01*
X143200000Y-133430000D02*
X143200000Y-134030000D01*
X144800000Y-133430000D02*
X143200000Y-133430000D01*
X144800000Y-134030000D02*
X144800000Y-133430000D01*
X145740000Y-133430000D02*
X145740000Y-134030000D01*
X147340000Y-133430000D02*
X145740000Y-133430000D01*
X147340000Y-134030000D02*
X147340000Y-133430000D01*
X148280000Y-133430000D02*
X148280000Y-134030000D01*
X149880000Y-133430000D02*
X148280000Y-133430000D01*
X149880000Y-134030000D02*
X149880000Y-133430000D01*
X136630000Y-128010000D02*
X136630000Y-129010000D01*
X148830000Y-128010000D02*
X148830000Y-129010000D01*
X136630000Y-129540000D02*
X136380000Y-129010000D01*
X148830000Y-129540000D02*
X136630000Y-129540000D01*
X149080000Y-129010000D02*
X148830000Y-129540000D01*
X136380000Y-129010000D02*
X136380000Y-128010000D01*
X149080000Y-129010000D02*
X136380000Y-129010000D01*
X149080000Y-128010000D02*
X149080000Y-129010000D01*
X150750000Y-133000000D02*
X150750000Y-129000000D01*
X135000000Y-134030000D02*
X150460000Y-134030000D01*
X135000000Y-128010000D02*
X135000000Y-134030000D01*
X150460000Y-128010000D02*
X135000000Y-128010000D01*
X150460000Y-134030000D02*
X150460000Y-128010000D01*
X116380000Y-134030000D02*
X116380000Y-128010000D01*
X116380000Y-128010000D02*
X100920000Y-128010000D01*
X100920000Y-128010000D02*
X100920000Y-134030000D01*
X100920000Y-134030000D02*
X116380000Y-134030000D01*
X116670000Y-133000000D02*
X116670000Y-129000000D01*
X115000000Y-128010000D02*
X115000000Y-129010000D01*
X115000000Y-129010000D02*
X102300000Y-129010000D01*
X102300000Y-129010000D02*
X102300000Y-128010000D01*
X115000000Y-129010000D02*
X114750000Y-129540000D01*
X114750000Y-129540000D02*
X102550000Y-129540000D01*
X102550000Y-129540000D02*
X102300000Y-129010000D01*
X114750000Y-128010000D02*
X114750000Y-129010000D01*
X102550000Y-128010000D02*
X102550000Y-129010000D01*
X115800000Y-134030000D02*
X115800000Y-133430000D01*
X115800000Y-133430000D02*
X114200000Y-133430000D01*
X114200000Y-133430000D02*
X114200000Y-134030000D01*
X113260000Y-134030000D02*
X113260000Y-133430000D01*
X113260000Y-133430000D02*
X111660000Y-133430000D01*
X111660000Y-133430000D02*
X111660000Y-134030000D01*
X110720000Y-134030000D02*
X110720000Y-133430000D01*
X110720000Y-133430000D02*
X109120000Y-133430000D01*
X109120000Y-133430000D02*
X109120000Y-134030000D01*
X108180000Y-134030000D02*
X108180000Y-133430000D01*
X108180000Y-133430000D02*
X106580000Y-133430000D01*
X106580000Y-133430000D02*
X106580000Y-134030000D01*
X105640000Y-134030000D02*
X105640000Y-133430000D01*
X105640000Y-133430000D02*
X104040000Y-133430000D01*
X104040000Y-133430000D02*
X104040000Y-134030000D01*
X103100000Y-134030000D02*
X103100000Y-133430000D01*
X103100000Y-133430000D02*
X101500000Y-133430000D01*
X101500000Y-133430000D02*
X101500000Y-134030000D01*
X176030000Y-104620000D02*
X170010000Y-104620000D01*
X170010000Y-104620000D02*
X170010000Y-120080000D01*
X170010000Y-120080000D02*
X176030000Y-120080000D01*
X176030000Y-120080000D02*
X176030000Y-104620000D01*
X175000000Y-104330000D02*
X171000000Y-104330000D01*
X170010000Y-106000000D02*
X171010000Y-106000000D01*
X171010000Y-106000000D02*
X171010000Y-118700000D01*
X171010000Y-118700000D02*
X170010000Y-118700000D01*
X171010000Y-106000000D02*
X171540000Y-106250000D01*
X171540000Y-106250000D02*
X171540000Y-118450000D01*
X171540000Y-118450000D02*
X171010000Y-118700000D01*
X170010000Y-106250000D02*
X171010000Y-106250000D01*
X170010000Y-118450000D02*
X171010000Y-118450000D01*
X176030000Y-105200000D02*
X175430000Y-105200000D01*
X175430000Y-105200000D02*
X175430000Y-106800000D01*
X175430000Y-106800000D02*
X176030000Y-106800000D01*
X176030000Y-107740000D02*
X175430000Y-107740000D01*
X175430000Y-107740000D02*
X175430000Y-109340000D01*
X175430000Y-109340000D02*
X176030000Y-109340000D01*
X176030000Y-110280000D02*
X175430000Y-110280000D01*
X175430000Y-110280000D02*
X175430000Y-111880000D01*
X175430000Y-111880000D02*
X176030000Y-111880000D01*
X176030000Y-112820000D02*
X175430000Y-112820000D01*
X175430000Y-112820000D02*
X175430000Y-114420000D01*
X175430000Y-114420000D02*
X176030000Y-114420000D01*
X176030000Y-115360000D02*
X175430000Y-115360000D01*
X175430000Y-115360000D02*
X175430000Y-116960000D01*
X175430000Y-116960000D02*
X176030000Y-116960000D01*
X176030000Y-117900000D02*
X175430000Y-117900000D01*
X175430000Y-117900000D02*
X175430000Y-119500000D01*
X175430000Y-119500000D02*
X176030000Y-119500000D01*
X98890000Y-127600000D02*
X98890000Y-133650000D01*
X98890000Y-133650000D02*
X91090000Y-133650000D01*
X91090000Y-133650000D02*
X91090000Y-127600000D01*
X91090000Y-127600000D02*
X98890000Y-127600000D01*
X97540000Y-127700000D02*
X97540000Y-128710000D01*
X97540000Y-128710000D02*
X92460000Y-128710000D01*
X92460000Y-128710000D02*
X92460000Y-127700000D01*
X112540000Y-57845740D02*
G75*
G03X112540000Y-63554260I1260000J-2854260D01*
G01*
X115060000Y-57845740D02*
G75*
G02X115060000Y-63554260I-1260000J-2854260D01*
G01*
X98741422Y-69990000D02*
X99258578Y-69990000D01*
X98741422Y-71410000D02*
X99258578Y-71410000D01*
X106678922Y-70710000D02*
X107196078Y-70710000D01*
X106678922Y-69290000D02*
X107196078Y-69290000D01*
X121041422Y-49990000D02*
X121558578Y-49990000D01*
X121041422Y-51410000D02*
X121558578Y-51410000D01*
X121003922Y-47810000D02*
X121521078Y-47810000D01*
X121003922Y-46390000D02*
X121521078Y-46390000D01*
X121041422Y-53490000D02*
X121558578Y-53490000D01*
X121041422Y-54910000D02*
X121558578Y-54910000D01*
X91741422Y-68710000D02*
X92258578Y-68710000D01*
X91741422Y-67290000D02*
X92258578Y-67290000D01*
X80730000Y-103120000D02*
X80730000Y-92880000D01*
X85371000Y-103120000D02*
X85371000Y-92880000D01*
X80730000Y-103120000D02*
X85371000Y-103120000D01*
X80730000Y-92880000D02*
X85371000Y-92880000D01*
X82240000Y-103120000D02*
X82240000Y-92880000D01*
X80730000Y-99850000D02*
X82240000Y-99850000D01*
X80730000Y-96149000D02*
X82240000Y-96149000D01*
X80730000Y-113609000D02*
X82240000Y-113609000D01*
X80730000Y-117310000D02*
X82240000Y-117310000D01*
X82240000Y-120580000D02*
X82240000Y-110340000D01*
X80730000Y-110340000D02*
X85371000Y-110340000D01*
X80730000Y-120580000D02*
X85371000Y-120580000D01*
X85371000Y-120580000D02*
X85371000Y-110340000D01*
X80730000Y-120580000D02*
X80730000Y-110340000D01*
D12*
X143400000Y-86200000D02*
X143400000Y-85900000D01*
X143400000Y-85900000D02*
X143700000Y-85900000D01*
X146300000Y-85900000D02*
X146600000Y-85900000D01*
X146600000Y-85900000D02*
X146600000Y-86200000D01*
X146600000Y-88800000D02*
X146600000Y-89100000D01*
X146600000Y-89100000D02*
X146300000Y-89100000D01*
X143400000Y-88800000D02*
X143700000Y-89100000D01*
X143700000Y-89100000D02*
X143700000Y-90300000D01*
D13*
X149500000Y-119810000D02*
X153360000Y-119810000D01*
X153360000Y-119810000D02*
X153360000Y-119545000D01*
X149500000Y-119810000D02*
X145640000Y-119810000D01*
X145640000Y-119810000D02*
X145640000Y-119545000D01*
X149500000Y-104190000D02*
X153360000Y-104190000D01*
X153360000Y-104190000D02*
X153360000Y-104455000D01*
X149500000Y-104190000D02*
X145640000Y-104190000D01*
X145640000Y-104190000D02*
X145640000Y-104455000D01*
X145640000Y-104455000D02*
X143825000Y-104455000D01*
X103735000Y-62090000D02*
X104210000Y-62090000D01*
X104210000Y-62090000D02*
X104210000Y-62565000D01*
X100465000Y-66310000D02*
X99990000Y-66310000D01*
X99990000Y-66310000D02*
X99990000Y-65835000D01*
X103735000Y-66310000D02*
X104210000Y-66310000D01*
X104210000Y-66310000D02*
X104210000Y-65835000D01*
X100465000Y-62090000D02*
X99990000Y-62090000D01*
X125430000Y-54780000D02*
X131170000Y-54780000D01*
X131180000Y-54780000D02*
X131180000Y-67040000D01*
X131180000Y-67040000D02*
X125420000Y-67040000D01*
X125420000Y-67040000D02*
X125420000Y-54790000D01*
X125140000Y-54500000D02*
X125140000Y-56500000D01*
X125140000Y-54500000D02*
X126750000Y-54500000D01*
X99530000Y-45860000D02*
X102470000Y-45860000D01*
X99530000Y-45620000D02*
X102470000Y-45620000D01*
X99530000Y-45740000D02*
X102470000Y-45740000D01*
X101000000Y-40180000D02*
X101000000Y-41200000D01*
X101000000Y-47660000D02*
X101000000Y-46640000D01*
X99530000Y-41200000D02*
X99530000Y-46640000D01*
X102470000Y-41200000D02*
X99530000Y-41200000D01*
X102470000Y-46640000D02*
X102470000Y-41200000D01*
X99530000Y-46640000D02*
X102470000Y-46640000D01*
X81530000Y-54640000D02*
X84470000Y-54640000D01*
X84470000Y-54640000D02*
X84470000Y-49200000D01*
X84470000Y-49200000D02*
X81530000Y-49200000D01*
X81530000Y-49200000D02*
X81530000Y-54640000D01*
X83000000Y-55660000D02*
X83000000Y-54640000D01*
X83000000Y-48180000D02*
X83000000Y-49200000D01*
X81530000Y-53740000D02*
X84470000Y-53740000D01*
X81530000Y-53620000D02*
X84470000Y-53620000D01*
X81530000Y-53860000D02*
X84470000Y-53860000D01*
X96640000Y-86470000D02*
X96640000Y-83530000D01*
X96640000Y-83530000D02*
X91200000Y-83530000D01*
X91200000Y-83530000D02*
X91200000Y-86470000D01*
X91200000Y-86470000D02*
X96640000Y-86470000D01*
X97660000Y-85000000D02*
X96640000Y-85000000D01*
X90180000Y-85000000D02*
X91200000Y-85000000D01*
X95740000Y-86470000D02*
X95740000Y-83530000D01*
X95620000Y-86470000D02*
X95620000Y-83530000D01*
X95860000Y-86470000D02*
X95860000Y-83530000D01*
X106760000Y-50580000D02*
X106760000Y-49650000D01*
X106760000Y-47420000D02*
X106760000Y-48350000D01*
X106760000Y-47420000D02*
X104600000Y-47420000D01*
X106760000Y-50580000D02*
X105300000Y-50580000D01*
X94760000Y-52580000D02*
X93300000Y-52580000D01*
X94760000Y-49420000D02*
X92600000Y-49420000D01*
X94760000Y-49420000D02*
X94760000Y-50350000D01*
X94760000Y-52580000D02*
X94760000Y-51650000D01*
X95580000Y-74240000D02*
X94650000Y-74240000D01*
X92420000Y-74240000D02*
X93350000Y-74240000D01*
X92420000Y-74240000D02*
X92420000Y-76400000D01*
X95580000Y-74240000D02*
X95580000Y-75700000D01*
X88710000Y-50321078D02*
X88710000Y-49803922D01*
X87290000Y-50321078D02*
X87290000Y-49803922D01*
X104290000Y-43321078D02*
X104290000Y-42803922D01*
X105710000Y-43321078D02*
X105710000Y-42803922D01*
X93258578Y-80710000D02*
X92741422Y-80710000D01*
X93258578Y-79290000D02*
X92741422Y-79290000D01*
X130600000Y-73500000D02*
X103400001Y-73500000D01*
X103400001Y-73500000D02*
X103400000Y-124500000D01*
X103400000Y-124500000D02*
X130599999Y-124500000D01*
X130599999Y-124500000D02*
X130600000Y-107500000D01*
X130600000Y-107500000D02*
X130240000Y-107500000D01*
X130240000Y-107500000D02*
X130240000Y-90500000D01*
X130240000Y-90500000D02*
X130600000Y-90500000D01*
X130600000Y-90500000D02*
X130600000Y-73500000D01*
X161900000Y-83100000D02*
X161900000Y-66900000D01*
X161900000Y-66900000D02*
X162300000Y-66900000D01*
X177700000Y-83100000D02*
X178100000Y-83100000D01*
X178100000Y-83100000D02*
X178100000Y-66900000D01*
X178100000Y-66900000D02*
X177700000Y-66900000D01*
X161900000Y-83100000D02*
X162250000Y-83100000D01*
X162250000Y-83100000D02*
X162250000Y-84000000D01*
D10*
X87552380Y-77633333D02*
X88266666Y-77633333D01*
X88409523Y-77680952D01*
X88504761Y-77776190D01*
X88552380Y-77919047D01*
X88552380Y-78014285D01*
X87552380Y-76680952D02*
X87552380Y-77157142D01*
X88028571Y-77204761D01*
X87980952Y-77157142D01*
X87933333Y-77061904D01*
X87933333Y-76823809D01*
X87980952Y-76728571D01*
X88028571Y-76680952D01*
X88123809Y-76633333D01*
X88361904Y-76633333D01*
X88457142Y-76680952D01*
X88504761Y-76728571D01*
X88552380Y-76823809D01*
X88552380Y-77061904D01*
X88504761Y-77157142D01*
X88457142Y-77204761D01*
X91966666Y-44952380D02*
X91966666Y-45666666D01*
X91919047Y-45809523D01*
X91823809Y-45904761D01*
X91680952Y-45952380D01*
X91585714Y-45952380D01*
X92871428Y-45285714D02*
X92871428Y-45952380D01*
X92633333Y-44904761D02*
X92395238Y-45619047D01*
X93014285Y-45619047D01*
X111166666Y-44952380D02*
X111166666Y-45666666D01*
X111119047Y-45809523D01*
X111023809Y-45904761D01*
X110880952Y-45952380D01*
X110785714Y-45952380D01*
X111547619Y-44952380D02*
X112166666Y-44952380D01*
X111833333Y-45333333D01*
X111976190Y-45333333D01*
X112071428Y-45380952D01*
X112119047Y-45428571D01*
X112166666Y-45523809D01*
X112166666Y-45761904D01*
X112119047Y-45857142D01*
X112071428Y-45904761D01*
X111976190Y-45952380D01*
X111690476Y-45952380D01*
X111595238Y-45904761D01*
X111547619Y-45857142D01*
X174126666Y-129212380D02*
X173793333Y-128736190D01*
X173555238Y-129212380D02*
X173555238Y-128212380D01*
X173936190Y-128212380D01*
X174031428Y-128260000D01*
X174079047Y-128307619D01*
X174126666Y-128402857D01*
X174126666Y-128545714D01*
X174079047Y-128640952D01*
X174031428Y-128688571D01*
X173936190Y-128736190D01*
X173555238Y-128736190D01*
X174555238Y-128688571D02*
X174888571Y-128688571D01*
X175031428Y-129212380D02*
X174555238Y-129212380D01*
X174555238Y-128212380D01*
X175031428Y-128212380D01*
X175793333Y-128688571D02*
X175460000Y-128688571D01*
X175460000Y-129212380D02*
X175460000Y-128212380D01*
X175936190Y-128212380D01*
X176460000Y-128212380D02*
X176460000Y-128450476D01*
X176221904Y-128355238D02*
X176460000Y-128450476D01*
X176698095Y-128355238D01*
X176317142Y-128640952D02*
X176460000Y-128450476D01*
X176602857Y-128640952D01*
X177221904Y-128212380D02*
X177221904Y-128450476D01*
X176983809Y-128355238D02*
X177221904Y-128450476D01*
X177460000Y-128355238D01*
X177079047Y-128640952D02*
X177221904Y-128450476D01*
X177364761Y-128640952D01*
X174126666Y-36292380D02*
X173793333Y-35816190D01*
X173555238Y-36292380D02*
X173555238Y-35292380D01*
X173936190Y-35292380D01*
X174031428Y-35340000D01*
X174079047Y-35387619D01*
X174126666Y-35482857D01*
X174126666Y-35625714D01*
X174079047Y-35720952D01*
X174031428Y-35768571D01*
X173936190Y-35816190D01*
X173555238Y-35816190D01*
X174555238Y-35768571D02*
X174888571Y-35768571D01*
X175031428Y-36292380D02*
X174555238Y-36292380D01*
X174555238Y-35292380D01*
X175031428Y-35292380D01*
X175793333Y-35768571D02*
X175460000Y-35768571D01*
X175460000Y-36292380D02*
X175460000Y-35292380D01*
X175936190Y-35292380D01*
X176460000Y-35292380D02*
X176460000Y-35530476D01*
X176221904Y-35435238D02*
X176460000Y-35530476D01*
X176698095Y-35435238D01*
X176317142Y-35720952D02*
X176460000Y-35530476D01*
X176602857Y-35720952D01*
X177221904Y-35292380D02*
X177221904Y-35530476D01*
X176983809Y-35435238D02*
X177221904Y-35530476D01*
X177460000Y-35435238D01*
X177079047Y-35720952D02*
X177221904Y-35530476D01*
X177364761Y-35720952D01*
X81206666Y-36292380D02*
X80873333Y-35816190D01*
X80635238Y-36292380D02*
X80635238Y-35292380D01*
X81016190Y-35292380D01*
X81111428Y-35340000D01*
X81159047Y-35387619D01*
X81206666Y-35482857D01*
X81206666Y-35625714D01*
X81159047Y-35720952D01*
X81111428Y-35768571D01*
X81016190Y-35816190D01*
X80635238Y-35816190D01*
X81635238Y-35768571D02*
X81968571Y-35768571D01*
X82111428Y-36292380D02*
X81635238Y-36292380D01*
X81635238Y-35292380D01*
X82111428Y-35292380D01*
X82873333Y-35768571D02*
X82540000Y-35768571D01*
X82540000Y-36292380D02*
X82540000Y-35292380D01*
X83016190Y-35292380D01*
X83540000Y-35292380D02*
X83540000Y-35530476D01*
X83301904Y-35435238D02*
X83540000Y-35530476D01*
X83778095Y-35435238D01*
X83397142Y-35720952D02*
X83540000Y-35530476D01*
X83682857Y-35720952D01*
X84301904Y-35292380D02*
X84301904Y-35530476D01*
X84063809Y-35435238D02*
X84301904Y-35530476D01*
X84540000Y-35435238D01*
X84159047Y-35720952D02*
X84301904Y-35530476D01*
X84444761Y-35720952D01*
X81206666Y-129212380D02*
X80873333Y-128736190D01*
X80635238Y-129212380D02*
X80635238Y-128212380D01*
X81016190Y-128212380D01*
X81111428Y-128260000D01*
X81159047Y-128307619D01*
X81206666Y-128402857D01*
X81206666Y-128545714D01*
X81159047Y-128640952D01*
X81111428Y-128688571D01*
X81016190Y-128736190D01*
X80635238Y-128736190D01*
X81635238Y-128688571D02*
X81968571Y-128688571D01*
X82111428Y-129212380D02*
X81635238Y-129212380D01*
X81635238Y-128212380D01*
X82111428Y-128212380D01*
X82873333Y-128688571D02*
X82540000Y-128688571D01*
X82540000Y-129212380D02*
X82540000Y-128212380D01*
X83016190Y-128212380D01*
X83540000Y-128212380D02*
X83540000Y-128450476D01*
X83301904Y-128355238D02*
X83540000Y-128450476D01*
X83778095Y-128355238D01*
X83397142Y-128640952D02*
X83540000Y-128450476D01*
X83682857Y-128640952D01*
X84301904Y-128212380D02*
X84301904Y-128450476D01*
X84063809Y-128355238D02*
X84301904Y-128450476D01*
X84540000Y-128355238D01*
X84159047Y-128640952D02*
X84301904Y-128450476D01*
X84444761Y-128640952D01*
X100607142Y-103916666D02*
X100654761Y-103964285D01*
X100702380Y-104107142D01*
X100702380Y-104202380D01*
X100654761Y-104345238D01*
X100559523Y-104440476D01*
X100464285Y-104488095D01*
X100273809Y-104535714D01*
X100130952Y-104535714D01*
X99940476Y-104488095D01*
X99845238Y-104440476D01*
X99750000Y-104345238D01*
X99702380Y-104202380D01*
X99702380Y-104107142D01*
X99750000Y-103964285D01*
X99797619Y-103916666D01*
X100702380Y-102964285D02*
X100702380Y-103535714D01*
X100702380Y-103250000D02*
X99702380Y-103250000D01*
X99845238Y-103345238D01*
X99940476Y-103440476D01*
X99988095Y-103535714D01*
X100607142Y-96916666D02*
X100654761Y-96964285D01*
X100702380Y-97107142D01*
X100702380Y-97202380D01*
X100654761Y-97345238D01*
X100559523Y-97440476D01*
X100464285Y-97488095D01*
X100273809Y-97535714D01*
X100130952Y-97535714D01*
X99940476Y-97488095D01*
X99845238Y-97440476D01*
X99750000Y-97345238D01*
X99702380Y-97202380D01*
X99702380Y-97107142D01*
X99750000Y-96964285D01*
X99797619Y-96916666D01*
X99797619Y-96535714D02*
X99750000Y-96488095D01*
X99702380Y-96392857D01*
X99702380Y-96154761D01*
X99750000Y-96059523D01*
X99797619Y-96011904D01*
X99892857Y-95964285D01*
X99988095Y-95964285D01*
X100130952Y-96011904D01*
X100702380Y-96583333D01*
X100702380Y-95964285D01*
X96583333Y-109107142D02*
X96535714Y-109154761D01*
X96392857Y-109202380D01*
X96297619Y-109202380D01*
X96154761Y-109154761D01*
X96059523Y-109059523D01*
X96011904Y-108964285D01*
X95964285Y-108773809D01*
X95964285Y-108630952D01*
X96011904Y-108440476D01*
X96059523Y-108345238D01*
X96154761Y-108250000D01*
X96297619Y-108202380D01*
X96392857Y-108202380D01*
X96535714Y-108250000D01*
X96583333Y-108297619D01*
X96916666Y-108202380D02*
X97535714Y-108202380D01*
X97202380Y-108583333D01*
X97345238Y-108583333D01*
X97440476Y-108630952D01*
X97488095Y-108678571D01*
X97535714Y-108773809D01*
X97535714Y-109011904D01*
X97488095Y-109107142D01*
X97440476Y-109154761D01*
X97345238Y-109202380D01*
X97059523Y-109202380D01*
X96964285Y-109154761D01*
X96916666Y-109107142D01*
X96583333Y-116107142D02*
X96535714Y-116154761D01*
X96392857Y-116202380D01*
X96297619Y-116202380D01*
X96154761Y-116154761D01*
X96059523Y-116059523D01*
X96011904Y-115964285D01*
X95964285Y-115773809D01*
X95964285Y-115630952D01*
X96011904Y-115440476D01*
X96059523Y-115345238D01*
X96154761Y-115250000D01*
X96297619Y-115202380D01*
X96392857Y-115202380D01*
X96535714Y-115250000D01*
X96583333Y-115297619D01*
X97440476Y-115535714D02*
X97440476Y-116202380D01*
X97202380Y-115154761D02*
X96964285Y-115869047D01*
X97583333Y-115869047D01*
X159857142Y-66229166D02*
X159904761Y-66276785D01*
X159952380Y-66419642D01*
X159952380Y-66514880D01*
X159904761Y-66657738D01*
X159809523Y-66752976D01*
X159714285Y-66800595D01*
X159523809Y-66848214D01*
X159380952Y-66848214D01*
X159190476Y-66800595D01*
X159095238Y-66752976D01*
X159000000Y-66657738D01*
X158952380Y-66514880D01*
X158952380Y-66419642D01*
X159000000Y-66276785D01*
X159047619Y-66229166D01*
X158952380Y-65324404D02*
X158952380Y-65800595D01*
X159428571Y-65848214D01*
X159380952Y-65800595D01*
X159333333Y-65705357D01*
X159333333Y-65467261D01*
X159380952Y-65372023D01*
X159428571Y-65324404D01*
X159523809Y-65276785D01*
X159761904Y-65276785D01*
X159857142Y-65324404D01*
X159904761Y-65372023D01*
X159952380Y-65467261D01*
X159952380Y-65705357D01*
X159904761Y-65800595D01*
X159857142Y-65848214D01*
X157833333Y-101207142D02*
X157785714Y-101254761D01*
X157642857Y-101302380D01*
X157547619Y-101302380D01*
X157404761Y-101254761D01*
X157309523Y-101159523D01*
X157261904Y-101064285D01*
X157214285Y-100873809D01*
X157214285Y-100730952D01*
X157261904Y-100540476D01*
X157309523Y-100445238D01*
X157404761Y-100350000D01*
X157547619Y-100302380D01*
X157642857Y-100302380D01*
X157785714Y-100350000D01*
X157833333Y-100397619D01*
X158690476Y-100302380D02*
X158500000Y-100302380D01*
X158404761Y-100350000D01*
X158357142Y-100397619D01*
X158261904Y-100540476D01*
X158214285Y-100730952D01*
X158214285Y-101111904D01*
X158261904Y-101207142D01*
X158309523Y-101254761D01*
X158404761Y-101302380D01*
X158595238Y-101302380D01*
X158690476Y-101254761D01*
X158738095Y-101207142D01*
X158785714Y-101111904D01*
X158785714Y-100873809D01*
X158738095Y-100778571D01*
X158690476Y-100730952D01*
X158595238Y-100683333D01*
X158404761Y-100683333D01*
X158309523Y-100730952D01*
X158261904Y-100778571D01*
X158214285Y-100873809D01*
X107170833Y-56707142D02*
X107123214Y-56754761D01*
X106980357Y-56802380D01*
X106885119Y-56802380D01*
X106742261Y-56754761D01*
X106647023Y-56659523D01*
X106599404Y-56564285D01*
X106551785Y-56373809D01*
X106551785Y-56230952D01*
X106599404Y-56040476D01*
X106647023Y-55945238D01*
X106742261Y-55850000D01*
X106885119Y-55802380D01*
X106980357Y-55802380D01*
X107123214Y-55850000D01*
X107170833Y-55897619D01*
X107504166Y-55802380D02*
X108170833Y-55802380D01*
X107742261Y-56802380D01*
X91895833Y-61107142D02*
X91848214Y-61154761D01*
X91705357Y-61202380D01*
X91610119Y-61202380D01*
X91467261Y-61154761D01*
X91372023Y-61059523D01*
X91324404Y-60964285D01*
X91276785Y-60773809D01*
X91276785Y-60630952D01*
X91324404Y-60440476D01*
X91372023Y-60345238D01*
X91467261Y-60250000D01*
X91610119Y-60202380D01*
X91705357Y-60202380D01*
X91848214Y-60250000D01*
X91895833Y-60297619D01*
X92467261Y-60630952D02*
X92372023Y-60583333D01*
X92324404Y-60535714D01*
X92276785Y-60440476D01*
X92276785Y-60392857D01*
X92324404Y-60297619D01*
X92372023Y-60250000D01*
X92467261Y-60202380D01*
X92657738Y-60202380D01*
X92752976Y-60250000D01*
X92800595Y-60297619D01*
X92848214Y-60392857D01*
X92848214Y-60440476D01*
X92800595Y-60535714D01*
X92752976Y-60583333D01*
X92657738Y-60630952D01*
X92467261Y-60630952D01*
X92372023Y-60678571D01*
X92324404Y-60726190D01*
X92276785Y-60821428D01*
X92276785Y-61011904D01*
X92324404Y-61107142D01*
X92372023Y-61154761D01*
X92467261Y-61202380D01*
X92657738Y-61202380D01*
X92752976Y-61154761D01*
X92800595Y-61107142D01*
X92848214Y-61011904D01*
X92848214Y-60821428D01*
X92800595Y-60726190D01*
X92752976Y-60678571D01*
X92657738Y-60630952D01*
X107170833Y-62807142D02*
X107123214Y-62854761D01*
X106980357Y-62902380D01*
X106885119Y-62902380D01*
X106742261Y-62854761D01*
X106647023Y-62759523D01*
X106599404Y-62664285D01*
X106551785Y-62473809D01*
X106551785Y-62330952D01*
X106599404Y-62140476D01*
X106647023Y-62045238D01*
X106742261Y-61950000D01*
X106885119Y-61902380D01*
X106980357Y-61902380D01*
X107123214Y-61950000D01*
X107170833Y-61997619D01*
X107647023Y-62902380D02*
X107837500Y-62902380D01*
X107932738Y-62854761D01*
X107980357Y-62807142D01*
X108075595Y-62664285D01*
X108123214Y-62473809D01*
X108123214Y-62092857D01*
X108075595Y-61997619D01*
X108027976Y-61950000D01*
X107932738Y-61902380D01*
X107742261Y-61902380D01*
X107647023Y-61950000D01*
X107599404Y-61997619D01*
X107551785Y-62092857D01*
X107551785Y-62330952D01*
X107599404Y-62426190D01*
X107647023Y-62473809D01*
X107742261Y-62521428D01*
X107932738Y-62521428D01*
X108027976Y-62473809D01*
X108075595Y-62426190D01*
X108123214Y-62330952D01*
X113207142Y-69942857D02*
X113254761Y-69990476D01*
X113302380Y-70133333D01*
X113302380Y-70228571D01*
X113254761Y-70371428D01*
X113159523Y-70466666D01*
X113064285Y-70514285D01*
X112873809Y-70561904D01*
X112730952Y-70561904D01*
X112540476Y-70514285D01*
X112445238Y-70466666D01*
X112350000Y-70371428D01*
X112302380Y-70228571D01*
X112302380Y-70133333D01*
X112350000Y-69990476D01*
X112397619Y-69942857D01*
X113302380Y-68990476D02*
X113302380Y-69561904D01*
X113302380Y-69276190D02*
X112302380Y-69276190D01*
X112445238Y-69371428D01*
X112540476Y-69466666D01*
X112588095Y-69561904D01*
X112302380Y-68371428D02*
X112302380Y-68276190D01*
X112350000Y-68180952D01*
X112397619Y-68133333D01*
X112492857Y-68085714D01*
X112683333Y-68038095D01*
X112921428Y-68038095D01*
X113111904Y-68085714D01*
X113207142Y-68133333D01*
X113254761Y-68180952D01*
X113302380Y-68276190D01*
X113302380Y-68371428D01*
X113254761Y-68466666D01*
X113207142Y-68514285D01*
X113111904Y-68561904D01*
X112921428Y-68609523D01*
X112683333Y-68609523D01*
X112492857Y-68561904D01*
X112397619Y-68514285D01*
X112350000Y-68466666D01*
X112302380Y-68371428D01*
X97707142Y-57430357D02*
X97754761Y-57477976D01*
X97802380Y-57620833D01*
X97802380Y-57716071D01*
X97754761Y-57858928D01*
X97659523Y-57954166D01*
X97564285Y-58001785D01*
X97373809Y-58049404D01*
X97230952Y-58049404D01*
X97040476Y-58001785D01*
X96945238Y-57954166D01*
X96850000Y-57858928D01*
X96802380Y-57716071D01*
X96802380Y-57620833D01*
X96850000Y-57477976D01*
X96897619Y-57430357D01*
X97802380Y-56477976D02*
X97802380Y-57049404D01*
X97802380Y-56763690D02*
X96802380Y-56763690D01*
X96945238Y-56858928D01*
X97040476Y-56954166D01*
X97088095Y-57049404D01*
X97802380Y-55525595D02*
X97802380Y-56097023D01*
X97802380Y-55811309D02*
X96802380Y-55811309D01*
X96945238Y-55906547D01*
X97040476Y-56001785D01*
X97088095Y-56097023D01*
X106694642Y-53207142D02*
X106647023Y-53254761D01*
X106504166Y-53302380D01*
X106408928Y-53302380D01*
X106266071Y-53254761D01*
X106170833Y-53159523D01*
X106123214Y-53064285D01*
X106075595Y-52873809D01*
X106075595Y-52730952D01*
X106123214Y-52540476D01*
X106170833Y-52445238D01*
X106266071Y-52350000D01*
X106408928Y-52302380D01*
X106504166Y-52302380D01*
X106647023Y-52350000D01*
X106694642Y-52397619D01*
X107647023Y-53302380D02*
X107075595Y-53302380D01*
X107361309Y-53302380D02*
X107361309Y-52302380D01*
X107266071Y-52445238D01*
X107170833Y-52540476D01*
X107075595Y-52588095D01*
X108027976Y-52397619D02*
X108075595Y-52350000D01*
X108170833Y-52302380D01*
X108408928Y-52302380D01*
X108504166Y-52350000D01*
X108551785Y-52397619D01*
X108599404Y-52492857D01*
X108599404Y-52588095D01*
X108551785Y-52730952D01*
X107980357Y-53302380D01*
X108599404Y-53302380D01*
X99419642Y-76707142D02*
X99372023Y-76754761D01*
X99229166Y-76802380D01*
X99133928Y-76802380D01*
X98991071Y-76754761D01*
X98895833Y-76659523D01*
X98848214Y-76564285D01*
X98800595Y-76373809D01*
X98800595Y-76230952D01*
X98848214Y-76040476D01*
X98895833Y-75945238D01*
X98991071Y-75850000D01*
X99133928Y-75802380D01*
X99229166Y-75802380D01*
X99372023Y-75850000D01*
X99419642Y-75897619D01*
X100372023Y-76802380D02*
X99800595Y-76802380D01*
X100086309Y-76802380D02*
X100086309Y-75802380D01*
X99991071Y-75945238D01*
X99895833Y-76040476D01*
X99800595Y-76088095D01*
X100705357Y-75802380D02*
X101324404Y-75802380D01*
X100991071Y-76183333D01*
X101133928Y-76183333D01*
X101229166Y-76230952D01*
X101276785Y-76278571D01*
X101324404Y-76373809D01*
X101324404Y-76611904D01*
X101276785Y-76707142D01*
X101229166Y-76754761D01*
X101133928Y-76802380D01*
X100848214Y-76802380D01*
X100752976Y-76754761D01*
X100705357Y-76707142D01*
X87982380Y-99658095D02*
X86982380Y-99658095D01*
X86982380Y-99420000D01*
X87030000Y-99277142D01*
X87125238Y-99181904D01*
X87220476Y-99134285D01*
X87410952Y-99086666D01*
X87553809Y-99086666D01*
X87744285Y-99134285D01*
X87839523Y-99181904D01*
X87934761Y-99277142D01*
X87982380Y-99420000D01*
X87982380Y-99658095D01*
X87982380Y-98134285D02*
X87982380Y-98705714D01*
X87982380Y-98420000D02*
X86982380Y-98420000D01*
X87125238Y-98515238D01*
X87220476Y-98610476D01*
X87268095Y-98705714D01*
X88352380Y-104261904D02*
X87352380Y-104261904D01*
X88352380Y-103690476D02*
X87780952Y-104119047D01*
X87352380Y-103690476D02*
X87923809Y-104261904D01*
X92922380Y-115818095D02*
X91922380Y-115818095D01*
X91922380Y-115580000D01*
X91970000Y-115437142D01*
X92065238Y-115341904D01*
X92160476Y-115294285D01*
X92350952Y-115246666D01*
X92493809Y-115246666D01*
X92684285Y-115294285D01*
X92779523Y-115341904D01*
X92874761Y-115437142D01*
X92922380Y-115580000D01*
X92922380Y-115818095D01*
X92017619Y-114865714D02*
X91970000Y-114818095D01*
X91922380Y-114722857D01*
X91922380Y-114484761D01*
X91970000Y-114389523D01*
X92017619Y-114341904D01*
X92112857Y-114294285D01*
X92208095Y-114294285D01*
X92350952Y-114341904D01*
X92922380Y-114913333D01*
X92922380Y-114294285D01*
X92552380Y-110261904D02*
X91552380Y-110261904D01*
X92552380Y-109690476D02*
X91980952Y-110119047D01*
X91552380Y-109690476D02*
X92123809Y-110261904D01*
X91324404Y-62802380D02*
X91324404Y-61802380D01*
X91562500Y-61802380D01*
X91705357Y-61850000D01*
X91800595Y-61945238D01*
X91848214Y-62040476D01*
X91895833Y-62230952D01*
X91895833Y-62373809D01*
X91848214Y-62564285D01*
X91800595Y-62659523D01*
X91705357Y-62754761D01*
X91562500Y-62802380D01*
X91324404Y-62802380D01*
X92229166Y-61802380D02*
X92848214Y-61802380D01*
X92514880Y-62183333D01*
X92657738Y-62183333D01*
X92752976Y-62230952D01*
X92800595Y-62278571D01*
X92848214Y-62373809D01*
X92848214Y-62611904D01*
X92800595Y-62707142D01*
X92752976Y-62754761D01*
X92657738Y-62802380D01*
X92372023Y-62802380D01*
X92276785Y-62754761D01*
X92229166Y-62707142D01*
X117622380Y-41313333D02*
X118336666Y-41313333D01*
X118479523Y-41360952D01*
X118574761Y-41456190D01*
X118622380Y-41599047D01*
X118622380Y-41694285D01*
X118622380Y-40313333D02*
X118622380Y-40884761D01*
X118622380Y-40599047D02*
X117622380Y-40599047D01*
X117765238Y-40694285D01*
X117860476Y-40789523D01*
X117908095Y-40884761D01*
X162102380Y-58333333D02*
X162816666Y-58333333D01*
X162959523Y-58380952D01*
X163054761Y-58476190D01*
X163102380Y-58619047D01*
X163102380Y-58714285D01*
X162197619Y-57904761D02*
X162150000Y-57857142D01*
X162102380Y-57761904D01*
X162102380Y-57523809D01*
X162150000Y-57428571D01*
X162197619Y-57380952D01*
X162292857Y-57333333D01*
X162388095Y-57333333D01*
X162530952Y-57380952D01*
X163102380Y-57952380D01*
X163102380Y-57333333D01*
X159356666Y-134572380D02*
X159356666Y-135286666D01*
X159309047Y-135429523D01*
X159213809Y-135524761D01*
X159070952Y-135572380D01*
X158975714Y-135572380D01*
X160261428Y-134572380D02*
X160070952Y-134572380D01*
X159975714Y-134620000D01*
X159928095Y-134667619D01*
X159832857Y-134810476D01*
X159785238Y-135000952D01*
X159785238Y-135381904D01*
X159832857Y-135477142D01*
X159880476Y-135524761D01*
X159975714Y-135572380D01*
X160166190Y-135572380D01*
X160261428Y-135524761D01*
X160309047Y-135477142D01*
X160356666Y-135381904D01*
X160356666Y-135143809D01*
X160309047Y-135048571D01*
X160261428Y-135000952D01*
X160166190Y-134953333D01*
X159975714Y-134953333D01*
X159880476Y-135000952D01*
X159832857Y-135048571D01*
X159785238Y-135143809D01*
X125316666Y-134572380D02*
X125316666Y-135286666D01*
X125269047Y-135429523D01*
X125173809Y-135524761D01*
X125030952Y-135572380D01*
X124935714Y-135572380D01*
X125697619Y-134572380D02*
X126364285Y-134572380D01*
X125935714Y-135572380D01*
X176572380Y-94683333D02*
X177286666Y-94683333D01*
X177429523Y-94730952D01*
X177524761Y-94826190D01*
X177572380Y-94969047D01*
X177572380Y-95064285D01*
X177000952Y-94064285D02*
X176953333Y-94159523D01*
X176905714Y-94207142D01*
X176810476Y-94254761D01*
X176762857Y-94254761D01*
X176667619Y-94207142D01*
X176620000Y-94159523D01*
X176572380Y-94064285D01*
X176572380Y-93873809D01*
X176620000Y-93778571D01*
X176667619Y-93730952D01*
X176762857Y-93683333D01*
X176810476Y-93683333D01*
X176905714Y-93730952D01*
X176953333Y-93778571D01*
X177000952Y-93873809D01*
X177000952Y-94064285D01*
X177048571Y-94159523D01*
X177096190Y-94207142D01*
X177191428Y-94254761D01*
X177381904Y-94254761D01*
X177477142Y-94207142D01*
X177524761Y-94159523D01*
X177572380Y-94064285D01*
X177572380Y-93873809D01*
X177524761Y-93778571D01*
X177477142Y-93730952D01*
X177381904Y-93683333D01*
X177191428Y-93683333D01*
X177096190Y-93730952D01*
X177048571Y-93778571D01*
X177000952Y-93873809D01*
X142396666Y-134572380D02*
X142396666Y-135286666D01*
X142349047Y-135429523D01*
X142253809Y-135524761D01*
X142110952Y-135572380D01*
X142015714Y-135572380D01*
X142920476Y-135572380D02*
X143110952Y-135572380D01*
X143206190Y-135524761D01*
X143253809Y-135477142D01*
X143349047Y-135334285D01*
X143396666Y-135143809D01*
X143396666Y-134762857D01*
X143349047Y-134667619D01*
X143301428Y-134620000D01*
X143206190Y-134572380D01*
X143015714Y-134572380D01*
X142920476Y-134620000D01*
X142872857Y-134667619D01*
X142825238Y-134762857D01*
X142825238Y-135000952D01*
X142872857Y-135096190D01*
X142920476Y-135143809D01*
X143015714Y-135191428D01*
X143206190Y-135191428D01*
X143301428Y-135143809D01*
X143349047Y-135096190D01*
X143396666Y-135000952D01*
X107840476Y-134572380D02*
X107840476Y-135286666D01*
X107792857Y-135429523D01*
X107697619Y-135524761D01*
X107554761Y-135572380D01*
X107459523Y-135572380D01*
X108840476Y-135572380D02*
X108269047Y-135572380D01*
X108554761Y-135572380D02*
X108554761Y-134572380D01*
X108459523Y-134715238D01*
X108364285Y-134810476D01*
X108269047Y-134858095D01*
X109459523Y-134572380D02*
X109554761Y-134572380D01*
X109650000Y-134620000D01*
X109697619Y-134667619D01*
X109745238Y-134762857D01*
X109792857Y-134953333D01*
X109792857Y-135191428D01*
X109745238Y-135381904D01*
X109697619Y-135477142D01*
X109650000Y-135524761D01*
X109554761Y-135572380D01*
X109459523Y-135572380D01*
X109364285Y-135524761D01*
X109316666Y-135477142D01*
X109269047Y-135381904D01*
X109221428Y-135191428D01*
X109221428Y-134953333D01*
X109269047Y-134762857D01*
X109316666Y-134667619D01*
X109364285Y-134620000D01*
X109459523Y-134572380D01*
X176572380Y-113159523D02*
X177286666Y-113159523D01*
X177429523Y-113207142D01*
X177524761Y-113302380D01*
X177572380Y-113445238D01*
X177572380Y-113540476D01*
X177572380Y-112159523D02*
X177572380Y-112730952D01*
X177572380Y-112445238D02*
X176572380Y-112445238D01*
X176715238Y-112540476D01*
X176810476Y-112635714D01*
X176858095Y-112730952D01*
X177572380Y-111207142D02*
X177572380Y-111778571D01*
X177572380Y-111492857D02*
X176572380Y-111492857D01*
X176715238Y-111588095D01*
X176810476Y-111683333D01*
X176858095Y-111778571D01*
X94230476Y-133852380D02*
X94230476Y-134566666D01*
X94182857Y-134709523D01*
X94087619Y-134804761D01*
X93944761Y-134852380D01*
X93849523Y-134852380D01*
X95230476Y-134852380D02*
X94659047Y-134852380D01*
X94944761Y-134852380D02*
X94944761Y-133852380D01*
X94849523Y-133995238D01*
X94754285Y-134090476D01*
X94659047Y-134138095D01*
X95611428Y-133947619D02*
X95659047Y-133900000D01*
X95754285Y-133852380D01*
X95992380Y-133852380D01*
X96087619Y-133900000D01*
X96135238Y-133947619D01*
X96182857Y-134042857D01*
X96182857Y-134138095D01*
X96135238Y-134280952D01*
X95563809Y-134852380D01*
X96182857Y-134852380D01*
X110002380Y-60866666D02*
X110002380Y-61342857D01*
X109002380Y-61342857D01*
X110002380Y-60009523D02*
X110002380Y-60580952D01*
X110002380Y-60295238D02*
X109002380Y-60295238D01*
X109145238Y-60390476D01*
X109240476Y-60485714D01*
X109288095Y-60580952D01*
X98833333Y-69502380D02*
X98500000Y-69026190D01*
X98261904Y-69502380D02*
X98261904Y-68502380D01*
X98642857Y-68502380D01*
X98738095Y-68550000D01*
X98785714Y-68597619D01*
X98833333Y-68692857D01*
X98833333Y-68835714D01*
X98785714Y-68930952D01*
X98738095Y-68978571D01*
X98642857Y-69026190D01*
X98261904Y-69026190D01*
X99785714Y-69502380D02*
X99214285Y-69502380D01*
X99500000Y-69502380D02*
X99500000Y-68502380D01*
X99404761Y-68645238D01*
X99309523Y-68740476D01*
X99214285Y-68788095D01*
X106770833Y-68802380D02*
X106437500Y-68326190D01*
X106199404Y-68802380D02*
X106199404Y-67802380D01*
X106580357Y-67802380D01*
X106675595Y-67850000D01*
X106723214Y-67897619D01*
X106770833Y-67992857D01*
X106770833Y-68135714D01*
X106723214Y-68230952D01*
X106675595Y-68278571D01*
X106580357Y-68326190D01*
X106199404Y-68326190D01*
X107151785Y-67897619D02*
X107199404Y-67850000D01*
X107294642Y-67802380D01*
X107532738Y-67802380D01*
X107627976Y-67850000D01*
X107675595Y-67897619D01*
X107723214Y-67992857D01*
X107723214Y-68088095D01*
X107675595Y-68230952D01*
X107104166Y-68802380D01*
X107723214Y-68802380D01*
X121133333Y-49502380D02*
X120800000Y-49026190D01*
X120561904Y-49502380D02*
X120561904Y-48502380D01*
X120942857Y-48502380D01*
X121038095Y-48550000D01*
X121085714Y-48597619D01*
X121133333Y-48692857D01*
X121133333Y-48835714D01*
X121085714Y-48930952D01*
X121038095Y-48978571D01*
X120942857Y-49026190D01*
X120561904Y-49026190D01*
X121466666Y-48502380D02*
X122085714Y-48502380D01*
X121752380Y-48883333D01*
X121895238Y-48883333D01*
X121990476Y-48930952D01*
X122038095Y-48978571D01*
X122085714Y-49073809D01*
X122085714Y-49311904D01*
X122038095Y-49407142D01*
X121990476Y-49454761D01*
X121895238Y-49502380D01*
X121609523Y-49502380D01*
X121514285Y-49454761D01*
X121466666Y-49407142D01*
X121095833Y-45902380D02*
X120762500Y-45426190D01*
X120524404Y-45902380D02*
X120524404Y-44902380D01*
X120905357Y-44902380D01*
X121000595Y-44950000D01*
X121048214Y-44997619D01*
X121095833Y-45092857D01*
X121095833Y-45235714D01*
X121048214Y-45330952D01*
X121000595Y-45378571D01*
X120905357Y-45426190D01*
X120524404Y-45426190D01*
X121952976Y-45235714D02*
X121952976Y-45902380D01*
X121714880Y-44854761D02*
X121476785Y-45569047D01*
X122095833Y-45569047D01*
X121133333Y-53002380D02*
X120800000Y-52526190D01*
X120561904Y-53002380D02*
X120561904Y-52002380D01*
X120942857Y-52002380D01*
X121038095Y-52050000D01*
X121085714Y-52097619D01*
X121133333Y-52192857D01*
X121133333Y-52335714D01*
X121085714Y-52430952D01*
X121038095Y-52478571D01*
X120942857Y-52526190D01*
X120561904Y-52526190D01*
X122038095Y-52002380D02*
X121561904Y-52002380D01*
X121514285Y-52478571D01*
X121561904Y-52430952D01*
X121657142Y-52383333D01*
X121895238Y-52383333D01*
X121990476Y-52430952D01*
X122038095Y-52478571D01*
X122085714Y-52573809D01*
X122085714Y-52811904D01*
X122038095Y-52907142D01*
X121990476Y-52954761D01*
X121895238Y-53002380D01*
X121657142Y-53002380D01*
X121561904Y-52954761D01*
X121514285Y-52907142D01*
X91833333Y-66802380D02*
X91500000Y-66326190D01*
X91261904Y-66802380D02*
X91261904Y-65802380D01*
X91642857Y-65802380D01*
X91738095Y-65850000D01*
X91785714Y-65897619D01*
X91833333Y-65992857D01*
X91833333Y-66135714D01*
X91785714Y-66230952D01*
X91738095Y-66278571D01*
X91642857Y-66326190D01*
X91261904Y-66326190D01*
X92690476Y-65802380D02*
X92500000Y-65802380D01*
X92404761Y-65850000D01*
X92357142Y-65897619D01*
X92261904Y-66040476D01*
X92214285Y-66230952D01*
X92214285Y-66611904D01*
X92261904Y-66707142D01*
X92309523Y-66754761D01*
X92404761Y-66802380D01*
X92595238Y-66802380D01*
X92690476Y-66754761D01*
X92738095Y-66707142D01*
X92785714Y-66611904D01*
X92785714Y-66373809D01*
X92738095Y-66278571D01*
X92690476Y-66230952D01*
X92595238Y-66183333D01*
X92404761Y-66183333D01*
X92309523Y-66230952D01*
X92261904Y-66278571D01*
X92214285Y-66373809D01*
X79182380Y-98761904D02*
X79991904Y-98761904D01*
X80087142Y-98714285D01*
X80134761Y-98666666D01*
X80182380Y-98571428D01*
X80182380Y-98380952D01*
X80134761Y-98285714D01*
X80087142Y-98238095D01*
X79991904Y-98190476D01*
X79182380Y-98190476D01*
X80182380Y-97190476D02*
X80182380Y-97761904D01*
X80182380Y-97476190D02*
X79182380Y-97476190D01*
X79325238Y-97571428D01*
X79420476Y-97666666D01*
X79468095Y-97761904D01*
X79182380Y-116221904D02*
X79991904Y-116221904D01*
X80087142Y-116174285D01*
X80134761Y-116126666D01*
X80182380Y-116031428D01*
X80182380Y-115840952D01*
X80134761Y-115745714D01*
X80087142Y-115698095D01*
X79991904Y-115650476D01*
X79182380Y-115650476D01*
X79277619Y-115221904D02*
X79230000Y-115174285D01*
X79182380Y-115079047D01*
X79182380Y-114840952D01*
X79230000Y-114745714D01*
X79277619Y-114698095D01*
X79372857Y-114650476D01*
X79468095Y-114650476D01*
X79610952Y-114698095D01*
X80182380Y-115269523D01*
X80182380Y-114650476D01*
X144238095Y-82552380D02*
X144238095Y-83361904D01*
X144285714Y-83457142D01*
X144333333Y-83504761D01*
X144428571Y-83552380D01*
X144619047Y-83552380D01*
X144714285Y-83504761D01*
X144761904Y-83457142D01*
X144809523Y-83361904D01*
X144809523Y-82552380D01*
X145714285Y-82885714D02*
X145714285Y-83552380D01*
X145476190Y-82504761D02*
X145238095Y-83219047D01*
X145857142Y-83219047D01*
X148738095Y-102802380D02*
X148738095Y-103611904D01*
X148785714Y-103707142D01*
X148833333Y-103754761D01*
X148928571Y-103802380D01*
X149119047Y-103802380D01*
X149214285Y-103754761D01*
X149261904Y-103707142D01*
X149309523Y-103611904D01*
X149309523Y-102802380D01*
X150261904Y-102802380D02*
X149785714Y-102802380D01*
X149738095Y-103278571D01*
X149785714Y-103230952D01*
X149880952Y-103183333D01*
X150119047Y-103183333D01*
X150214285Y-103230952D01*
X150261904Y-103278571D01*
X150309523Y-103373809D01*
X150309523Y-103611904D01*
X150261904Y-103707142D01*
X150214285Y-103754761D01*
X150119047Y-103802380D01*
X149880952Y-103802380D01*
X149785714Y-103754761D01*
X149738095Y-103707142D01*
X101338095Y-60352380D02*
X101338095Y-61161904D01*
X101385714Y-61257142D01*
X101433333Y-61304761D01*
X101528571Y-61352380D01*
X101719047Y-61352380D01*
X101814285Y-61304761D01*
X101861904Y-61257142D01*
X101909523Y-61161904D01*
X101909523Y-60352380D01*
X102814285Y-60352380D02*
X102623809Y-60352380D01*
X102528571Y-60400000D01*
X102480952Y-60447619D01*
X102385714Y-60590476D01*
X102338095Y-60780952D01*
X102338095Y-61161904D01*
X102385714Y-61257142D01*
X102433333Y-61304761D01*
X102528571Y-61352380D01*
X102719047Y-61352380D01*
X102814285Y-61304761D01*
X102861904Y-61257142D01*
X102909523Y-61161904D01*
X102909523Y-60923809D01*
X102861904Y-60828571D01*
X102814285Y-60780952D01*
X102719047Y-60733333D01*
X102528571Y-60733333D01*
X102433333Y-60780952D01*
X102385714Y-60828571D01*
X102338095Y-60923809D01*
X126538095Y-53052380D02*
X126538095Y-53861904D01*
X126585714Y-53957142D01*
X126633333Y-54004761D01*
X126728571Y-54052380D01*
X126919047Y-54052380D01*
X127014285Y-54004761D01*
X127061904Y-53957142D01*
X127109523Y-53861904D01*
X127109523Y-53052380D01*
X127490476Y-53052380D02*
X128157142Y-53052380D01*
X127728571Y-54052380D01*
X98982380Y-44658095D02*
X97982380Y-44658095D01*
X97982380Y-44420000D01*
X98030000Y-44277142D01*
X98125238Y-44181904D01*
X98220476Y-44134285D01*
X98410952Y-44086666D01*
X98553809Y-44086666D01*
X98744285Y-44134285D01*
X98839523Y-44181904D01*
X98934761Y-44277142D01*
X98982380Y-44420000D01*
X98982380Y-44658095D01*
X98315714Y-43229523D02*
X98982380Y-43229523D01*
X97934761Y-43467619D02*
X98649047Y-43705714D01*
X98649047Y-43086666D01*
X99352380Y-49261904D02*
X98352380Y-49261904D01*
X99352380Y-48690476D02*
X98780952Y-49119047D01*
X98352380Y-48690476D02*
X98923809Y-49261904D01*
X80982380Y-52658095D02*
X79982380Y-52658095D01*
X79982380Y-52420000D01*
X80030000Y-52277142D01*
X80125238Y-52181904D01*
X80220476Y-52134285D01*
X80410952Y-52086666D01*
X80553809Y-52086666D01*
X80744285Y-52134285D01*
X80839523Y-52181904D01*
X80934761Y-52277142D01*
X80982380Y-52420000D01*
X80982380Y-52658095D01*
X79982380Y-51181904D02*
X79982380Y-51658095D01*
X80458571Y-51705714D01*
X80410952Y-51658095D01*
X80363333Y-51562857D01*
X80363333Y-51324761D01*
X80410952Y-51229523D01*
X80458571Y-51181904D01*
X80553809Y-51134285D01*
X80791904Y-51134285D01*
X80887142Y-51181904D01*
X80934761Y-51229523D01*
X80982380Y-51324761D01*
X80982380Y-51562857D01*
X80934761Y-51658095D01*
X80887142Y-51705714D01*
X81352380Y-57261904D02*
X80352380Y-57261904D01*
X81352380Y-56690476D02*
X80780952Y-57119047D01*
X80352380Y-56690476D02*
X80923809Y-57261904D01*
X93181904Y-87922380D02*
X93181904Y-86922380D01*
X93420000Y-86922380D01*
X93562857Y-86970000D01*
X93658095Y-87065238D01*
X93705714Y-87160476D01*
X93753333Y-87350952D01*
X93753333Y-87493809D01*
X93705714Y-87684285D01*
X93658095Y-87779523D01*
X93562857Y-87874761D01*
X93420000Y-87922380D01*
X93181904Y-87922380D01*
X94610476Y-86922380D02*
X94420000Y-86922380D01*
X94324761Y-86970000D01*
X94277142Y-87017619D01*
X94181904Y-87160476D01*
X94134285Y-87350952D01*
X94134285Y-87731904D01*
X94181904Y-87827142D01*
X94229523Y-87874761D01*
X94324761Y-87922380D01*
X94515238Y-87922380D01*
X94610476Y-87874761D01*
X94658095Y-87827142D01*
X94705714Y-87731904D01*
X94705714Y-87493809D01*
X94658095Y-87398571D01*
X94610476Y-87350952D01*
X94515238Y-87303333D01*
X94324761Y-87303333D01*
X94229523Y-87350952D01*
X94181904Y-87398571D01*
X94134285Y-87493809D01*
X98738095Y-87552380D02*
X98738095Y-86552380D01*
X99309523Y-87552380D02*
X98880952Y-86980952D01*
X99309523Y-86552380D02*
X98738095Y-87123809D01*
X105904761Y-47047619D02*
X105809523Y-47000000D01*
X105714285Y-46904761D01*
X105571428Y-46761904D01*
X105476190Y-46714285D01*
X105380952Y-46714285D01*
X105428571Y-46952380D02*
X105333333Y-46904761D01*
X105238095Y-46809523D01*
X105190476Y-46619047D01*
X105190476Y-46285714D01*
X105238095Y-46095238D01*
X105333333Y-46000000D01*
X105428571Y-45952380D01*
X105619047Y-45952380D01*
X105714285Y-46000000D01*
X105809523Y-46095238D01*
X105857142Y-46285714D01*
X105857142Y-46619047D01*
X105809523Y-46809523D01*
X105714285Y-46904761D01*
X105619047Y-46952380D01*
X105428571Y-46952380D01*
X106809523Y-46952380D02*
X106238095Y-46952380D01*
X106523809Y-46952380D02*
X106523809Y-45952380D01*
X106428571Y-46095238D01*
X106333333Y-46190476D01*
X106238095Y-46238095D01*
X93904761Y-49047619D02*
X93809523Y-49000000D01*
X93714285Y-48904761D01*
X93571428Y-48761904D01*
X93476190Y-48714285D01*
X93380952Y-48714285D01*
X93428571Y-48952380D02*
X93333333Y-48904761D01*
X93238095Y-48809523D01*
X93190476Y-48619047D01*
X93190476Y-48285714D01*
X93238095Y-48095238D01*
X93333333Y-48000000D01*
X93428571Y-47952380D01*
X93619047Y-47952380D01*
X93714285Y-48000000D01*
X93809523Y-48095238D01*
X93857142Y-48285714D01*
X93857142Y-48619047D01*
X93809523Y-48809523D01*
X93714285Y-48904761D01*
X93619047Y-48952380D01*
X93428571Y-48952380D01*
X94238095Y-48047619D02*
X94285714Y-48000000D01*
X94380952Y-47952380D01*
X94619047Y-47952380D01*
X94714285Y-48000000D01*
X94761904Y-48047619D01*
X94809523Y-48142857D01*
X94809523Y-48238095D01*
X94761904Y-48380952D01*
X94190476Y-48952380D01*
X94809523Y-48952380D01*
X92047619Y-75095238D02*
X92000000Y-75190476D01*
X91904761Y-75285714D01*
X91761904Y-75428571D01*
X91714285Y-75523809D01*
X91714285Y-75619047D01*
X91952380Y-75571428D02*
X91904761Y-75666666D01*
X91809523Y-75761904D01*
X91619047Y-75809523D01*
X91285714Y-75809523D01*
X91095238Y-75761904D01*
X91000000Y-75666666D01*
X90952380Y-75571428D01*
X90952380Y-75380952D01*
X91000000Y-75285714D01*
X91095238Y-75190476D01*
X91285714Y-75142857D01*
X91619047Y-75142857D01*
X91809523Y-75190476D01*
X91904761Y-75285714D01*
X91952380Y-75380952D01*
X91952380Y-75571428D01*
X90952380Y-74809523D02*
X90952380Y-74190476D01*
X91333333Y-74523809D01*
X91333333Y-74380952D01*
X91380952Y-74285714D01*
X91428571Y-74238095D01*
X91523809Y-74190476D01*
X91761904Y-74190476D01*
X91857142Y-74238095D01*
X91904761Y-74285714D01*
X91952380Y-74380952D01*
X91952380Y-74666666D01*
X91904761Y-74761904D01*
X91857142Y-74809523D01*
X86802380Y-50229166D02*
X86326190Y-50562500D01*
X86802380Y-50800595D02*
X85802380Y-50800595D01*
X85802380Y-50419642D01*
X85850000Y-50324404D01*
X85897619Y-50276785D01*
X85992857Y-50229166D01*
X86135714Y-50229166D01*
X86230952Y-50276785D01*
X86278571Y-50324404D01*
X86326190Y-50419642D01*
X86326190Y-50800595D01*
X85802380Y-49895833D02*
X85802380Y-49229166D01*
X86802380Y-49657738D01*
X103802380Y-43229166D02*
X103326190Y-43562500D01*
X103802380Y-43800595D02*
X102802380Y-43800595D01*
X102802380Y-43419642D01*
X102850000Y-43324404D01*
X102897619Y-43276785D01*
X102992857Y-43229166D01*
X103135714Y-43229166D01*
X103230952Y-43276785D01*
X103278571Y-43324404D01*
X103326190Y-43419642D01*
X103326190Y-43800595D01*
X103230952Y-42657738D02*
X103183333Y-42752976D01*
X103135714Y-42800595D01*
X103040476Y-42848214D01*
X102992857Y-42848214D01*
X102897619Y-42800595D01*
X102850000Y-42752976D01*
X102802380Y-42657738D01*
X102802380Y-42467261D01*
X102850000Y-42372023D01*
X102897619Y-42324404D01*
X102992857Y-42276785D01*
X103040476Y-42276785D01*
X103135714Y-42324404D01*
X103183333Y-42372023D01*
X103230952Y-42467261D01*
X103230952Y-42657738D01*
X103278571Y-42752976D01*
X103326190Y-42800595D01*
X103421428Y-42848214D01*
X103611904Y-42848214D01*
X103707142Y-42800595D01*
X103754761Y-42752976D01*
X103802380Y-42657738D01*
X103802380Y-42467261D01*
X103754761Y-42372023D01*
X103707142Y-42324404D01*
X103611904Y-42276785D01*
X103421428Y-42276785D01*
X103326190Y-42324404D01*
X103278571Y-42372023D01*
X103230952Y-42467261D01*
X92833333Y-82102380D02*
X92500000Y-81626190D01*
X92261904Y-82102380D02*
X92261904Y-81102380D01*
X92642857Y-81102380D01*
X92738095Y-81150000D01*
X92785714Y-81197619D01*
X92833333Y-81292857D01*
X92833333Y-81435714D01*
X92785714Y-81530952D01*
X92738095Y-81578571D01*
X92642857Y-81626190D01*
X92261904Y-81626190D01*
X93309523Y-82102380D02*
X93500000Y-82102380D01*
X93595238Y-82054761D01*
X93642857Y-82007142D01*
X93738095Y-81864285D01*
X93785714Y-81673809D01*
X93785714Y-81292857D01*
X93738095Y-81197619D01*
X93690476Y-81150000D01*
X93595238Y-81102380D01*
X93404761Y-81102380D01*
X93309523Y-81150000D01*
X93261904Y-81197619D01*
X93214285Y-81292857D01*
X93214285Y-81530952D01*
X93261904Y-81626190D01*
X93309523Y-81673809D01*
X93404761Y-81721428D01*
X93595238Y-81721428D01*
X93690476Y-81673809D01*
X93738095Y-81626190D01*
X93785714Y-81530952D01*
X131052380Y-99761904D02*
X131861904Y-99761904D01*
X131957142Y-99714285D01*
X132004761Y-99666666D01*
X132052380Y-99571428D01*
X132052380Y-99380952D01*
X132004761Y-99285714D01*
X131957142Y-99238095D01*
X131861904Y-99190476D01*
X131052380Y-99190476D01*
X131480952Y-98571428D02*
X131433333Y-98666666D01*
X131385714Y-98714285D01*
X131290476Y-98761904D01*
X131242857Y-98761904D01*
X131147619Y-98714285D01*
X131100000Y-98666666D01*
X131052380Y-98571428D01*
X131052380Y-98380952D01*
X131100000Y-98285714D01*
X131147619Y-98238095D01*
X131242857Y-98190476D01*
X131290476Y-98190476D01*
X131385714Y-98238095D01*
X131433333Y-98285714D01*
X131480952Y-98380952D01*
X131480952Y-98571428D01*
X131528571Y-98666666D01*
X131576190Y-98714285D01*
X131671428Y-98761904D01*
X131861904Y-98761904D01*
X131957142Y-98714285D01*
X132004761Y-98666666D01*
X132052380Y-98571428D01*
X132052380Y-98380952D01*
X132004761Y-98285714D01*
X131957142Y-98238095D01*
X131861904Y-98190476D01*
X131671428Y-98190476D01*
X131576190Y-98238095D01*
X131528571Y-98285714D01*
X131480952Y-98380952D01*
X160252380Y-75761904D02*
X161061904Y-75761904D01*
X161157142Y-75714285D01*
X161204761Y-75666666D01*
X161252380Y-75571428D01*
X161252380Y-75380952D01*
X161204761Y-75285714D01*
X161157142Y-75238095D01*
X161061904Y-75190476D01*
X160252380Y-75190476D01*
X160252380Y-74809523D02*
X160252380Y-74190476D01*
X160633333Y-74523809D01*
X160633333Y-74380952D01*
X160680952Y-74285714D01*
X160728571Y-74238095D01*
X160823809Y-74190476D01*
X161061904Y-74190476D01*
X161157142Y-74238095D01*
X161204761Y-74285714D01*
X161252380Y-74380952D01*
X161252380Y-74666666D01*
X161204761Y-74761904D01*
X161157142Y-74809523D01*
M02*
