M48
; DRILL file {KiCad (5.1.5)-3} date 09/02/2022 23:25:55
; FORMAT={-:-/ absolute / metric / decimal}
; #@! TF.CreationDate,2022-02-09T23:25:55-03:00
; #@! TF.GenerationSoftware,Kicad,Pcbnew,(5.1.5)-3
FMAT,2
METRIC
T1C0.400
T2C0.600
T3C0.800
T4C1.000
T5C1.020
T6C1.100
T7C1.200
T8C1.300
T9C1.500
T10C1.600
T11C2.700
%
G90
G05
T1
X95.8Y-64.1
X95.8Y-70.6
X96.1Y-62.0
X97.7Y-62.0
X98.6Y-67.1
X100.5Y-73.2
X104.0Y-118.9
X106.0Y-72.0
X107.5Y-114.0
X107.5Y-122.4
X113.0Y-127.0
X113.2Y-100.2
X117.1Y-44.6
X119.0Y-127.0
X121.1Y-65.3
X122.237Y-60.0
X124.0Y-52.0
X126.5Y-107.0
X127.1Y-86.3
X128.5Y-108.5
X131.0Y-109.5
X132.3Y-50.2
X132.5Y-117.0
X133.3Y-91.0
X135.0Y-37.3
X135.0Y-117.0
X136.4Y-66.4
X136.5Y-96.0
X136.5Y-116.0
X138.2Y-49.6
X138.5Y-112.5
X139.6Y-52.1
X140.5Y-113.5
X142.7Y-61.2
X143.5Y-58.0
X146.0Y-125.0
X148.0Y-112.0
X148.5Y-88.5
X149.5Y-67.5
X149.5Y-114.0
X150.0Y-85.0
X151.0Y-54.5
X151.5Y-73.0
X154.0Y-75.5
X154.5Y-65.5
X156.0Y-53.5
X156.0Y-96.0
X158.0Y-115.0
X160.0Y-76.5
X160.0Y-117.0
X161.0Y-51.0
X161.0Y-61.0
X163.5Y-87.0
X164.0Y-52.0
X164.0Y-74.5
X166.0Y-53.0
X167.5Y-50.0
X167.5Y-61.0
X170.0Y-76.0
X171.0Y-74.0
X173.0Y-64.0
X175.0Y-78.5
T2
X96.0Y-112.0
X97.5Y-112.0
X97.0Y-103.0
X97.0Y-104.5
X97.0Y-96.0
X97.0Y-97.5
X96.0Y-119.0
X97.5Y-119.0
T3
X128.3Y-57.1
X128.3Y-59.64
X128.3Y-62.18
X128.3Y-64.72
X104.5Y-75.0
X104.5Y-123.0
X129.5Y-75.0
X129.5Y-123.0
T4
X120.5Y-39.71
X120.5Y-42.25
X123.04Y-39.71
X123.04Y-42.25
X125.58Y-39.71
X125.58Y-42.25
X128.12Y-39.71
X128.12Y-42.25
X130.66Y-39.71
X130.66Y-42.25
X133.2Y-39.71
X133.2Y-42.25
X135.74Y-39.71
X135.74Y-42.25
X138.28Y-39.71
X138.28Y-42.25
X140.82Y-39.71
X140.82Y-42.25
X143.36Y-39.71
X143.36Y-42.25
X145.9Y-39.71
X145.9Y-42.25
X148.44Y-39.71
X148.44Y-42.25
X150.98Y-39.71
X150.98Y-42.25
X153.52Y-39.71
X153.52Y-42.25
X156.06Y-39.71
X156.06Y-42.25
X158.6Y-39.71
X158.6Y-42.25
X161.14Y-39.71
X161.14Y-42.25
X163.68Y-39.71
X163.68Y-42.25
X166.22Y-39.71
X166.22Y-42.25
X168.76Y-39.71
X168.76Y-42.25
X113.8Y-58.7
X113.8Y-62.7
T5
X92.46Y-131.0
X95.0Y-131.0
X97.54Y-131.0
T6
X88.84Y-85.0
X99.0Y-85.0
X101.0Y-38.84
X101.0Y-49.0
X83.0Y-46.84
X83.0Y-57.0
X84.0Y-112.92
X84.0Y-115.46
X84.0Y-118.0
X90.0Y-93.84
X90.0Y-104.0
X84.0Y-95.46
X84.0Y-98.0
X84.0Y-100.54
X90.0Y-110.0
X90.0Y-120.16
T7
X173.0Y-106.0
X173.0Y-108.54
X173.0Y-111.08
X173.0Y-113.62
X173.0Y-116.16
X173.0Y-118.7
X136.38Y-131.0
X138.92Y-131.0
X141.46Y-131.0
X144.0Y-131.0
X146.54Y-131.0
X149.08Y-131.0
X173.0Y-88.0
X173.0Y-90.54
X173.0Y-93.08
X173.0Y-95.62
X173.0Y-98.16
X173.0Y-100.7
X153.34Y-131.0
X155.88Y-131.0
X158.42Y-131.0
X160.96Y-131.0
X163.5Y-131.0
X166.04Y-131.0
X102.3Y-131.0
X104.84Y-131.0
X107.38Y-131.0
X109.92Y-131.0
X112.46Y-131.0
X115.0Y-131.0
X119.3Y-131.0
X121.84Y-131.0
X124.38Y-131.0
X126.92Y-131.0
X129.46Y-131.0
X132.0Y-131.0
T8
X109.2Y-40.7
X114.2Y-40.7
X83.3Y-74.6
X83.3Y-79.6
X90.0Y-40.7
X95.0Y-40.7
T9
X174.5Y-58.0
T10
X171.96Y-55.46
X171.96Y-60.54
X177.04Y-55.46
X177.04Y-60.54
T11
X82.54Y-132.46
X82.54Y-39.54
X175.46Y-39.54
X175.46Y-132.46
T0
M30
