G04 #@! TF.GenerationSoftware,KiCad,Pcbnew,7.0.2-6a45011f42~172~ubuntu22.04.1*
G04 #@! TF.CreationDate,2023-04-26T17:59:51-03:00*
G04 #@! TF.ProjectId,envcity_aqm_v2_2layers,656e7663-6974-4795-9f61-716d5f76325f,rev?*
G04 #@! TF.SameCoordinates,Original*
G04 #@! TF.FileFunction,Legend,Bot*
G04 #@! TF.FilePolarity,Positive*
%FSLAX46Y46*%
G04 Gerber Fmt 4.6, Leading zero omitted, Abs format (unit mm)*
G04 Created by KiCad (PCBNEW 7.0.2-6a45011f42~172~ubuntu22.04.1) date 2023-04-26 17:59:51*
%MOMM*%
%LPD*%
G01*
G04 APERTURE LIST*
%ADD10C,0.150000*%
%ADD11C,0.120000*%
G04 APERTURE END LIST*
D10*
X204309523Y-138462619D02*
X204309523Y-139176904D01*
X204309523Y-139176904D02*
X204357142Y-139319761D01*
X204357142Y-139319761D02*
X204452380Y-139415000D01*
X204452380Y-139415000D02*
X204595237Y-139462619D01*
X204595237Y-139462619D02*
X204690475Y-139462619D01*
X203309523Y-139462619D02*
X203880951Y-139462619D01*
X203595237Y-139462619D02*
X203595237Y-138462619D01*
X203595237Y-138462619D02*
X203690475Y-138605476D01*
X203690475Y-138605476D02*
X203785713Y-138700714D01*
X203785713Y-138700714D02*
X203880951Y-138748333D01*
X202452380Y-138795952D02*
X202452380Y-139462619D01*
X202690475Y-138415000D02*
X202928570Y-139129285D01*
X202928570Y-139129285D02*
X202309523Y-139129285D01*
X151568809Y-106964285D02*
X151616428Y-107107142D01*
X151616428Y-107107142D02*
X151664047Y-107154761D01*
X151664047Y-107154761D02*
X151759285Y-107202380D01*
X151759285Y-107202380D02*
X151902142Y-107202380D01*
X151902142Y-107202380D02*
X151997380Y-107154761D01*
X151997380Y-107154761D02*
X152045000Y-107107142D01*
X152045000Y-107107142D02*
X152092619Y-107011904D01*
X152092619Y-107011904D02*
X152092619Y-106630952D01*
X152092619Y-106630952D02*
X151092619Y-106630952D01*
X151092619Y-106630952D02*
X151092619Y-106964285D01*
X151092619Y-106964285D02*
X151140238Y-107059523D01*
X151140238Y-107059523D02*
X151187857Y-107107142D01*
X151187857Y-107107142D02*
X151283095Y-107154761D01*
X151283095Y-107154761D02*
X151378333Y-107154761D01*
X151378333Y-107154761D02*
X151473571Y-107107142D01*
X151473571Y-107107142D02*
X151521190Y-107059523D01*
X151521190Y-107059523D02*
X151568809Y-106964285D01*
X151568809Y-106964285D02*
X151568809Y-106630952D01*
X151092619Y-107488095D02*
X151092619Y-108059523D01*
X152092619Y-107773809D02*
X151092619Y-107773809D01*
X152092619Y-108916666D02*
X152092619Y-108345238D01*
X152092619Y-108630952D02*
X151092619Y-108630952D01*
X151092619Y-108630952D02*
X151235476Y-108535714D01*
X151235476Y-108535714D02*
X151330714Y-108440476D01*
X151330714Y-108440476D02*
X151378333Y-108345238D01*
X181367380Y-119833333D02*
X181415000Y-119785714D01*
X181415000Y-119785714D02*
X181462619Y-119642857D01*
X181462619Y-119642857D02*
X181462619Y-119547619D01*
X181462619Y-119547619D02*
X181415000Y-119404762D01*
X181415000Y-119404762D02*
X181319761Y-119309524D01*
X181319761Y-119309524D02*
X181224523Y-119261905D01*
X181224523Y-119261905D02*
X181034047Y-119214286D01*
X181034047Y-119214286D02*
X180891190Y-119214286D01*
X180891190Y-119214286D02*
X180700714Y-119261905D01*
X180700714Y-119261905D02*
X180605476Y-119309524D01*
X180605476Y-119309524D02*
X180510238Y-119404762D01*
X180510238Y-119404762D02*
X180462619Y-119547619D01*
X180462619Y-119547619D02*
X180462619Y-119642857D01*
X180462619Y-119642857D02*
X180510238Y-119785714D01*
X180510238Y-119785714D02*
X180557857Y-119833333D01*
X180462619Y-120166667D02*
X180462619Y-120785714D01*
X180462619Y-120785714D02*
X180843571Y-120452381D01*
X180843571Y-120452381D02*
X180843571Y-120595238D01*
X180843571Y-120595238D02*
X180891190Y-120690476D01*
X180891190Y-120690476D02*
X180938809Y-120738095D01*
X180938809Y-120738095D02*
X181034047Y-120785714D01*
X181034047Y-120785714D02*
X181272142Y-120785714D01*
X181272142Y-120785714D02*
X181367380Y-120738095D01*
X181367380Y-120738095D02*
X181415000Y-120690476D01*
X181415000Y-120690476D02*
X181462619Y-120595238D01*
X181462619Y-120595238D02*
X181462619Y-120309524D01*
X181462619Y-120309524D02*
X181415000Y-120214286D01*
X181415000Y-120214286D02*
X181367380Y-120166667D01*
X181367380Y-102833333D02*
X181415000Y-102785714D01*
X181415000Y-102785714D02*
X181462619Y-102642857D01*
X181462619Y-102642857D02*
X181462619Y-102547619D01*
X181462619Y-102547619D02*
X181415000Y-102404762D01*
X181415000Y-102404762D02*
X181319761Y-102309524D01*
X181319761Y-102309524D02*
X181224523Y-102261905D01*
X181224523Y-102261905D02*
X181034047Y-102214286D01*
X181034047Y-102214286D02*
X180891190Y-102214286D01*
X180891190Y-102214286D02*
X180700714Y-102261905D01*
X180700714Y-102261905D02*
X180605476Y-102309524D01*
X180605476Y-102309524D02*
X180510238Y-102404762D01*
X180510238Y-102404762D02*
X180462619Y-102547619D01*
X180462619Y-102547619D02*
X180462619Y-102642857D01*
X180462619Y-102642857D02*
X180510238Y-102785714D01*
X180510238Y-102785714D02*
X180557857Y-102833333D01*
X180462619Y-103738095D02*
X180462619Y-103261905D01*
X180462619Y-103261905D02*
X180938809Y-103214286D01*
X180938809Y-103214286D02*
X180891190Y-103261905D01*
X180891190Y-103261905D02*
X180843571Y-103357143D01*
X180843571Y-103357143D02*
X180843571Y-103595238D01*
X180843571Y-103595238D02*
X180891190Y-103690476D01*
X180891190Y-103690476D02*
X180938809Y-103738095D01*
X180938809Y-103738095D02*
X181034047Y-103785714D01*
X181034047Y-103785714D02*
X181272142Y-103785714D01*
X181272142Y-103785714D02*
X181367380Y-103738095D01*
X181367380Y-103738095D02*
X181415000Y-103690476D01*
X181415000Y-103690476D02*
X181462619Y-103595238D01*
X181462619Y-103595238D02*
X181462619Y-103357143D01*
X181462619Y-103357143D02*
X181415000Y-103261905D01*
X181415000Y-103261905D02*
X181367380Y-103214286D01*
X170117857Y-135117380D02*
X170165476Y-135165000D01*
X170165476Y-135165000D02*
X170308333Y-135212619D01*
X170308333Y-135212619D02*
X170403571Y-135212619D01*
X170403571Y-135212619D02*
X170546428Y-135165000D01*
X170546428Y-135165000D02*
X170641666Y-135069761D01*
X170641666Y-135069761D02*
X170689285Y-134974523D01*
X170689285Y-134974523D02*
X170736904Y-134784047D01*
X170736904Y-134784047D02*
X170736904Y-134641190D01*
X170736904Y-134641190D02*
X170689285Y-134450714D01*
X170689285Y-134450714D02*
X170641666Y-134355476D01*
X170641666Y-134355476D02*
X170546428Y-134260238D01*
X170546428Y-134260238D02*
X170403571Y-134212619D01*
X170403571Y-134212619D02*
X170308333Y-134212619D01*
X170308333Y-134212619D02*
X170165476Y-134260238D01*
X170165476Y-134260238D02*
X170117857Y-134307857D01*
X169165476Y-135212619D02*
X169736904Y-135212619D01*
X169451190Y-135212619D02*
X169451190Y-134212619D01*
X169451190Y-134212619D02*
X169546428Y-134355476D01*
X169546428Y-134355476D02*
X169641666Y-134450714D01*
X169641666Y-134450714D02*
X169736904Y-134498333D01*
X168784523Y-134307857D02*
X168736904Y-134260238D01*
X168736904Y-134260238D02*
X168641666Y-134212619D01*
X168641666Y-134212619D02*
X168403571Y-134212619D01*
X168403571Y-134212619D02*
X168308333Y-134260238D01*
X168308333Y-134260238D02*
X168260714Y-134307857D01*
X168260714Y-134307857D02*
X168213095Y-134403095D01*
X168213095Y-134403095D02*
X168213095Y-134498333D01*
X168213095Y-134498333D02*
X168260714Y-134641190D01*
X168260714Y-134641190D02*
X168832142Y-135212619D01*
X168832142Y-135212619D02*
X168213095Y-135212619D01*
X152142857Y-136367380D02*
X152190476Y-136415000D01*
X152190476Y-136415000D02*
X152333333Y-136462619D01*
X152333333Y-136462619D02*
X152428571Y-136462619D01*
X152428571Y-136462619D02*
X152571428Y-136415000D01*
X152571428Y-136415000D02*
X152666666Y-136319761D01*
X152666666Y-136319761D02*
X152714285Y-136224523D01*
X152714285Y-136224523D02*
X152761904Y-136034047D01*
X152761904Y-136034047D02*
X152761904Y-135891190D01*
X152761904Y-135891190D02*
X152714285Y-135700714D01*
X152714285Y-135700714D02*
X152666666Y-135605476D01*
X152666666Y-135605476D02*
X152571428Y-135510238D01*
X152571428Y-135510238D02*
X152428571Y-135462619D01*
X152428571Y-135462619D02*
X152333333Y-135462619D01*
X152333333Y-135462619D02*
X152190476Y-135510238D01*
X152190476Y-135510238D02*
X152142857Y-135557857D01*
X151190476Y-136462619D02*
X151761904Y-136462619D01*
X151476190Y-136462619D02*
X151476190Y-135462619D01*
X151476190Y-135462619D02*
X151571428Y-135605476D01*
X151571428Y-135605476D02*
X151666666Y-135700714D01*
X151666666Y-135700714D02*
X151761904Y-135748333D01*
X150857142Y-135462619D02*
X150238095Y-135462619D01*
X150238095Y-135462619D02*
X150571428Y-135843571D01*
X150571428Y-135843571D02*
X150428571Y-135843571D01*
X150428571Y-135843571D02*
X150333333Y-135891190D01*
X150333333Y-135891190D02*
X150285714Y-135938809D01*
X150285714Y-135938809D02*
X150238095Y-136034047D01*
X150238095Y-136034047D02*
X150238095Y-136272142D01*
X150238095Y-136272142D02*
X150285714Y-136367380D01*
X150285714Y-136367380D02*
X150333333Y-136415000D01*
X150333333Y-136415000D02*
X150428571Y-136462619D01*
X150428571Y-136462619D02*
X150714285Y-136462619D01*
X150714285Y-136462619D02*
X150809523Y-136415000D01*
X150809523Y-136415000D02*
X150857142Y-136367380D01*
X152117857Y-145367380D02*
X152165476Y-145415000D01*
X152165476Y-145415000D02*
X152308333Y-145462619D01*
X152308333Y-145462619D02*
X152403571Y-145462619D01*
X152403571Y-145462619D02*
X152546428Y-145415000D01*
X152546428Y-145415000D02*
X152641666Y-145319761D01*
X152641666Y-145319761D02*
X152689285Y-145224523D01*
X152689285Y-145224523D02*
X152736904Y-145034047D01*
X152736904Y-145034047D02*
X152736904Y-144891190D01*
X152736904Y-144891190D02*
X152689285Y-144700714D01*
X152689285Y-144700714D02*
X152641666Y-144605476D01*
X152641666Y-144605476D02*
X152546428Y-144510238D01*
X152546428Y-144510238D02*
X152403571Y-144462619D01*
X152403571Y-144462619D02*
X152308333Y-144462619D01*
X152308333Y-144462619D02*
X152165476Y-144510238D01*
X152165476Y-144510238D02*
X152117857Y-144557857D01*
X151165476Y-145462619D02*
X151736904Y-145462619D01*
X151451190Y-145462619D02*
X151451190Y-144462619D01*
X151451190Y-144462619D02*
X151546428Y-144605476D01*
X151546428Y-144605476D02*
X151641666Y-144700714D01*
X151641666Y-144700714D02*
X151736904Y-144748333D01*
X150308333Y-144462619D02*
X150498809Y-144462619D01*
X150498809Y-144462619D02*
X150594047Y-144510238D01*
X150594047Y-144510238D02*
X150641666Y-144557857D01*
X150641666Y-144557857D02*
X150736904Y-144700714D01*
X150736904Y-144700714D02*
X150784523Y-144891190D01*
X150784523Y-144891190D02*
X150784523Y-145272142D01*
X150784523Y-145272142D02*
X150736904Y-145367380D01*
X150736904Y-145367380D02*
X150689285Y-145415000D01*
X150689285Y-145415000D02*
X150594047Y-145462619D01*
X150594047Y-145462619D02*
X150403571Y-145462619D01*
X150403571Y-145462619D02*
X150308333Y-145415000D01*
X150308333Y-145415000D02*
X150260714Y-145367380D01*
X150260714Y-145367380D02*
X150213095Y-145272142D01*
X150213095Y-145272142D02*
X150213095Y-145034047D01*
X150213095Y-145034047D02*
X150260714Y-144938809D01*
X150260714Y-144938809D02*
X150308333Y-144891190D01*
X150308333Y-144891190D02*
X150403571Y-144843571D01*
X150403571Y-144843571D02*
X150594047Y-144843571D01*
X150594047Y-144843571D02*
X150689285Y-144891190D01*
X150689285Y-144891190D02*
X150736904Y-144938809D01*
X150736904Y-144938809D02*
X150784523Y-145034047D01*
X129367380Y-133107142D02*
X129415000Y-133059523D01*
X129415000Y-133059523D02*
X129462619Y-132916666D01*
X129462619Y-132916666D02*
X129462619Y-132821428D01*
X129462619Y-132821428D02*
X129415000Y-132678571D01*
X129415000Y-132678571D02*
X129319761Y-132583333D01*
X129319761Y-132583333D02*
X129224523Y-132535714D01*
X129224523Y-132535714D02*
X129034047Y-132488095D01*
X129034047Y-132488095D02*
X128891190Y-132488095D01*
X128891190Y-132488095D02*
X128700714Y-132535714D01*
X128700714Y-132535714D02*
X128605476Y-132583333D01*
X128605476Y-132583333D02*
X128510238Y-132678571D01*
X128510238Y-132678571D02*
X128462619Y-132821428D01*
X128462619Y-132821428D02*
X128462619Y-132916666D01*
X128462619Y-132916666D02*
X128510238Y-133059523D01*
X128510238Y-133059523D02*
X128557857Y-133107142D01*
X129462619Y-134059523D02*
X129462619Y-133488095D01*
X129462619Y-133773809D02*
X128462619Y-133773809D01*
X128462619Y-133773809D02*
X128605476Y-133678571D01*
X128605476Y-133678571D02*
X128700714Y-133583333D01*
X128700714Y-133583333D02*
X128748333Y-133488095D01*
X128462619Y-134392857D02*
X128462619Y-135059523D01*
X128462619Y-135059523D02*
X129462619Y-134630952D01*
X203007857Y-75428571D02*
X202960238Y-75333333D01*
X202960238Y-75333333D02*
X202865000Y-75238095D01*
X202865000Y-75238095D02*
X202722142Y-75095238D01*
X202722142Y-75095238D02*
X202674523Y-75000000D01*
X202674523Y-75000000D02*
X202674523Y-74904762D01*
X202912619Y-74952381D02*
X202865000Y-74857143D01*
X202865000Y-74857143D02*
X202769761Y-74761905D01*
X202769761Y-74761905D02*
X202579285Y-74714286D01*
X202579285Y-74714286D02*
X202245952Y-74714286D01*
X202245952Y-74714286D02*
X202055476Y-74761905D01*
X202055476Y-74761905D02*
X201960238Y-74857143D01*
X201960238Y-74857143D02*
X201912619Y-74952381D01*
X201912619Y-74952381D02*
X201912619Y-75142857D01*
X201912619Y-75142857D02*
X201960238Y-75238095D01*
X201960238Y-75238095D02*
X202055476Y-75333333D01*
X202055476Y-75333333D02*
X202245952Y-75380952D01*
X202245952Y-75380952D02*
X202579285Y-75380952D01*
X202579285Y-75380952D02*
X202769761Y-75333333D01*
X202769761Y-75333333D02*
X202865000Y-75238095D01*
X202865000Y-75238095D02*
X202912619Y-75142857D01*
X202912619Y-75142857D02*
X202912619Y-74952381D01*
X202912619Y-76333333D02*
X202912619Y-75761905D01*
X202912619Y-76047619D02*
X201912619Y-76047619D01*
X201912619Y-76047619D02*
X202055476Y-75952381D01*
X202055476Y-75952381D02*
X202150714Y-75857143D01*
X202150714Y-75857143D02*
X202198333Y-75761905D01*
X201912619Y-76666667D02*
X201912619Y-77285714D01*
X201912619Y-77285714D02*
X202293571Y-76952381D01*
X202293571Y-76952381D02*
X202293571Y-77095238D01*
X202293571Y-77095238D02*
X202341190Y-77190476D01*
X202341190Y-77190476D02*
X202388809Y-77238095D01*
X202388809Y-77238095D02*
X202484047Y-77285714D01*
X202484047Y-77285714D02*
X202722142Y-77285714D01*
X202722142Y-77285714D02*
X202817380Y-77238095D01*
X202817380Y-77238095D02*
X202865000Y-77190476D01*
X202865000Y-77190476D02*
X202912619Y-77095238D01*
X202912619Y-77095238D02*
X202912619Y-76809524D01*
X202912619Y-76809524D02*
X202865000Y-76714286D01*
X202865000Y-76714286D02*
X202817380Y-76666667D01*
X210057857Y-75428571D02*
X210010238Y-75333333D01*
X210010238Y-75333333D02*
X209915000Y-75238095D01*
X209915000Y-75238095D02*
X209772142Y-75095238D01*
X209772142Y-75095238D02*
X209724523Y-75000000D01*
X209724523Y-75000000D02*
X209724523Y-74904762D01*
X209962619Y-74952381D02*
X209915000Y-74857143D01*
X209915000Y-74857143D02*
X209819761Y-74761905D01*
X209819761Y-74761905D02*
X209629285Y-74714286D01*
X209629285Y-74714286D02*
X209295952Y-74714286D01*
X209295952Y-74714286D02*
X209105476Y-74761905D01*
X209105476Y-74761905D02*
X209010238Y-74857143D01*
X209010238Y-74857143D02*
X208962619Y-74952381D01*
X208962619Y-74952381D02*
X208962619Y-75142857D01*
X208962619Y-75142857D02*
X209010238Y-75238095D01*
X209010238Y-75238095D02*
X209105476Y-75333333D01*
X209105476Y-75333333D02*
X209295952Y-75380952D01*
X209295952Y-75380952D02*
X209629285Y-75380952D01*
X209629285Y-75380952D02*
X209819761Y-75333333D01*
X209819761Y-75333333D02*
X209915000Y-75238095D01*
X209915000Y-75238095D02*
X209962619Y-75142857D01*
X209962619Y-75142857D02*
X209962619Y-74952381D01*
X209962619Y-76333333D02*
X209962619Y-75761905D01*
X209962619Y-76047619D02*
X208962619Y-76047619D01*
X208962619Y-76047619D02*
X209105476Y-75952381D01*
X209105476Y-75952381D02*
X209200714Y-75857143D01*
X209200714Y-75857143D02*
X209248333Y-75761905D01*
X209295952Y-77190476D02*
X209962619Y-77190476D01*
X208915000Y-76952381D02*
X209629285Y-76714286D01*
X209629285Y-76714286D02*
X209629285Y-77333333D01*
X166962619Y-70308333D02*
X166486428Y-69975000D01*
X166962619Y-69736905D02*
X165962619Y-69736905D01*
X165962619Y-69736905D02*
X165962619Y-70117857D01*
X165962619Y-70117857D02*
X166010238Y-70213095D01*
X166010238Y-70213095D02*
X166057857Y-70260714D01*
X166057857Y-70260714D02*
X166153095Y-70308333D01*
X166153095Y-70308333D02*
X166295952Y-70308333D01*
X166295952Y-70308333D02*
X166391190Y-70260714D01*
X166391190Y-70260714D02*
X166438809Y-70213095D01*
X166438809Y-70213095D02*
X166486428Y-70117857D01*
X166486428Y-70117857D02*
X166486428Y-69736905D01*
X165962619Y-70641667D02*
X165962619Y-71260714D01*
X165962619Y-71260714D02*
X166343571Y-70927381D01*
X166343571Y-70927381D02*
X166343571Y-71070238D01*
X166343571Y-71070238D02*
X166391190Y-71165476D01*
X166391190Y-71165476D02*
X166438809Y-71213095D01*
X166438809Y-71213095D02*
X166534047Y-71260714D01*
X166534047Y-71260714D02*
X166772142Y-71260714D01*
X166772142Y-71260714D02*
X166867380Y-71213095D01*
X166867380Y-71213095D02*
X166915000Y-71165476D01*
X166915000Y-71165476D02*
X166962619Y-71070238D01*
X166962619Y-71070238D02*
X166962619Y-70784524D01*
X166962619Y-70784524D02*
X166915000Y-70689286D01*
X166915000Y-70689286D02*
X166867380Y-70641667D01*
X218462619Y-85332142D02*
X217986428Y-84998809D01*
X218462619Y-84760714D02*
X217462619Y-84760714D01*
X217462619Y-84760714D02*
X217462619Y-85141666D01*
X217462619Y-85141666D02*
X217510238Y-85236904D01*
X217510238Y-85236904D02*
X217557857Y-85284523D01*
X217557857Y-85284523D02*
X217653095Y-85332142D01*
X217653095Y-85332142D02*
X217795952Y-85332142D01*
X217795952Y-85332142D02*
X217891190Y-85284523D01*
X217891190Y-85284523D02*
X217938809Y-85236904D01*
X217938809Y-85236904D02*
X217986428Y-85141666D01*
X217986428Y-85141666D02*
X217986428Y-84760714D01*
X217557857Y-85713095D02*
X217510238Y-85760714D01*
X217510238Y-85760714D02*
X217462619Y-85855952D01*
X217462619Y-85855952D02*
X217462619Y-86094047D01*
X217462619Y-86094047D02*
X217510238Y-86189285D01*
X217510238Y-86189285D02*
X217557857Y-86236904D01*
X217557857Y-86236904D02*
X217653095Y-86284523D01*
X217653095Y-86284523D02*
X217748333Y-86284523D01*
X217748333Y-86284523D02*
X217891190Y-86236904D01*
X217891190Y-86236904D02*
X218462619Y-85665476D01*
X218462619Y-85665476D02*
X218462619Y-86284523D01*
X217462619Y-87141666D02*
X217462619Y-86951190D01*
X217462619Y-86951190D02*
X217510238Y-86855952D01*
X217510238Y-86855952D02*
X217557857Y-86808333D01*
X217557857Y-86808333D02*
X217700714Y-86713095D01*
X217700714Y-86713095D02*
X217891190Y-86665476D01*
X217891190Y-86665476D02*
X218272142Y-86665476D01*
X218272142Y-86665476D02*
X218367380Y-86713095D01*
X218367380Y-86713095D02*
X218415000Y-86760714D01*
X218415000Y-86760714D02*
X218462619Y-86855952D01*
X218462619Y-86855952D02*
X218462619Y-87046428D01*
X218462619Y-87046428D02*
X218415000Y-87141666D01*
X218415000Y-87141666D02*
X218367380Y-87189285D01*
X218367380Y-87189285D02*
X218272142Y-87236904D01*
X218272142Y-87236904D02*
X218034047Y-87236904D01*
X218034047Y-87236904D02*
X217938809Y-87189285D01*
X217938809Y-87189285D02*
X217891190Y-87141666D01*
X217891190Y-87141666D02*
X217843571Y-87046428D01*
X217843571Y-87046428D02*
X217843571Y-86855952D01*
X217843571Y-86855952D02*
X217891190Y-86760714D01*
X217891190Y-86760714D02*
X217938809Y-86713095D01*
X217938809Y-86713095D02*
X218034047Y-86665476D01*
X218462619Y-80357142D02*
X217986428Y-80023809D01*
X218462619Y-79785714D02*
X217462619Y-79785714D01*
X217462619Y-79785714D02*
X217462619Y-80166666D01*
X217462619Y-80166666D02*
X217510238Y-80261904D01*
X217510238Y-80261904D02*
X217557857Y-80309523D01*
X217557857Y-80309523D02*
X217653095Y-80357142D01*
X217653095Y-80357142D02*
X217795952Y-80357142D01*
X217795952Y-80357142D02*
X217891190Y-80309523D01*
X217891190Y-80309523D02*
X217938809Y-80261904D01*
X217938809Y-80261904D02*
X217986428Y-80166666D01*
X217986428Y-80166666D02*
X217986428Y-79785714D01*
X217557857Y-80738095D02*
X217510238Y-80785714D01*
X217510238Y-80785714D02*
X217462619Y-80880952D01*
X217462619Y-80880952D02*
X217462619Y-81119047D01*
X217462619Y-81119047D02*
X217510238Y-81214285D01*
X217510238Y-81214285D02*
X217557857Y-81261904D01*
X217557857Y-81261904D02*
X217653095Y-81309523D01*
X217653095Y-81309523D02*
X217748333Y-81309523D01*
X217748333Y-81309523D02*
X217891190Y-81261904D01*
X217891190Y-81261904D02*
X218462619Y-80690476D01*
X218462619Y-80690476D02*
X218462619Y-81309523D01*
X217462619Y-81642857D02*
X217462619Y-82309523D01*
X217462619Y-82309523D02*
X218462619Y-81880952D01*
X181117857Y-88712619D02*
X181451190Y-88236428D01*
X181689285Y-88712619D02*
X181689285Y-87712619D01*
X181689285Y-87712619D02*
X181308333Y-87712619D01*
X181308333Y-87712619D02*
X181213095Y-87760238D01*
X181213095Y-87760238D02*
X181165476Y-87807857D01*
X181165476Y-87807857D02*
X181117857Y-87903095D01*
X181117857Y-87903095D02*
X181117857Y-88045952D01*
X181117857Y-88045952D02*
X181165476Y-88141190D01*
X181165476Y-88141190D02*
X181213095Y-88188809D01*
X181213095Y-88188809D02*
X181308333Y-88236428D01*
X181308333Y-88236428D02*
X181689285Y-88236428D01*
X180784523Y-87712619D02*
X180165476Y-87712619D01*
X180165476Y-87712619D02*
X180498809Y-88093571D01*
X180498809Y-88093571D02*
X180355952Y-88093571D01*
X180355952Y-88093571D02*
X180260714Y-88141190D01*
X180260714Y-88141190D02*
X180213095Y-88188809D01*
X180213095Y-88188809D02*
X180165476Y-88284047D01*
X180165476Y-88284047D02*
X180165476Y-88522142D01*
X180165476Y-88522142D02*
X180213095Y-88617380D01*
X180213095Y-88617380D02*
X180260714Y-88665000D01*
X180260714Y-88665000D02*
X180355952Y-88712619D01*
X180355952Y-88712619D02*
X180641666Y-88712619D01*
X180641666Y-88712619D02*
X180736904Y-88665000D01*
X180736904Y-88665000D02*
X180784523Y-88617380D01*
X179784523Y-87807857D02*
X179736904Y-87760238D01*
X179736904Y-87760238D02*
X179641666Y-87712619D01*
X179641666Y-87712619D02*
X179403571Y-87712619D01*
X179403571Y-87712619D02*
X179308333Y-87760238D01*
X179308333Y-87760238D02*
X179260714Y-87807857D01*
X179260714Y-87807857D02*
X179213095Y-87903095D01*
X179213095Y-87903095D02*
X179213095Y-87998333D01*
X179213095Y-87998333D02*
X179260714Y-88141190D01*
X179260714Y-88141190D02*
X179832142Y-88712619D01*
X179832142Y-88712619D02*
X179213095Y-88712619D01*
X181417857Y-94212619D02*
X181751190Y-93736428D01*
X181989285Y-94212619D02*
X181989285Y-93212619D01*
X181989285Y-93212619D02*
X181608333Y-93212619D01*
X181608333Y-93212619D02*
X181513095Y-93260238D01*
X181513095Y-93260238D02*
X181465476Y-93307857D01*
X181465476Y-93307857D02*
X181417857Y-93403095D01*
X181417857Y-93403095D02*
X181417857Y-93545952D01*
X181417857Y-93545952D02*
X181465476Y-93641190D01*
X181465476Y-93641190D02*
X181513095Y-93688809D01*
X181513095Y-93688809D02*
X181608333Y-93736428D01*
X181608333Y-93736428D02*
X181989285Y-93736428D01*
X181084523Y-93212619D02*
X180465476Y-93212619D01*
X180465476Y-93212619D02*
X180798809Y-93593571D01*
X180798809Y-93593571D02*
X180655952Y-93593571D01*
X180655952Y-93593571D02*
X180560714Y-93641190D01*
X180560714Y-93641190D02*
X180513095Y-93688809D01*
X180513095Y-93688809D02*
X180465476Y-93784047D01*
X180465476Y-93784047D02*
X180465476Y-94022142D01*
X180465476Y-94022142D02*
X180513095Y-94117380D01*
X180513095Y-94117380D02*
X180560714Y-94165000D01*
X180560714Y-94165000D02*
X180655952Y-94212619D01*
X180655952Y-94212619D02*
X180941666Y-94212619D01*
X180941666Y-94212619D02*
X181036904Y-94165000D01*
X181036904Y-94165000D02*
X181084523Y-94117380D01*
X180132142Y-93212619D02*
X179513095Y-93212619D01*
X179513095Y-93212619D02*
X179846428Y-93593571D01*
X179846428Y-93593571D02*
X179703571Y-93593571D01*
X179703571Y-93593571D02*
X179608333Y-93641190D01*
X179608333Y-93641190D02*
X179560714Y-93688809D01*
X179560714Y-93688809D02*
X179513095Y-93784047D01*
X179513095Y-93784047D02*
X179513095Y-94022142D01*
X179513095Y-94022142D02*
X179560714Y-94117380D01*
X179560714Y-94117380D02*
X179608333Y-94165000D01*
X179608333Y-94165000D02*
X179703571Y-94212619D01*
X179703571Y-94212619D02*
X179989285Y-94212619D01*
X179989285Y-94212619D02*
X180084523Y-94165000D01*
X180084523Y-94165000D02*
X180132142Y-94117380D01*
D11*
X216935000Y-148075000D02*
X216935000Y-141775000D01*
X204065000Y-147375000D02*
X204065000Y-141775000D01*
X216935000Y-151785000D02*
X216935000Y-149975000D01*
X204065000Y-151785000D02*
X215325000Y-151785000D01*
X204065000Y-150625000D02*
X204065000Y-151785000D01*
X216825000Y-151785000D02*
X216935000Y-151785000D01*
X151138211Y-115595371D02*
G75*
G03*
X155640000Y-118442000I8111789J7845371D01*
G01*
X167361789Y-99904629D02*
G75*
G03*
X162860000Y-97058000I-8111789J-7845371D01*
G01*
X155640000Y-97058000D02*
G75*
G03*
X151138211Y-99904629I3610000J-10692000D01*
G01*
X162860000Y-118442000D02*
G75*
G03*
X167361789Y-115595371I-3610000J10692000D01*
G01*
X157350000Y-122060000D02*
X155640000Y-122060000D01*
X155640000Y-118442000D02*
X155640000Y-122060000D01*
X151140000Y-111610000D02*
X151140000Y-115597300D01*
X153340000Y-109410000D02*
X151140000Y-111610000D01*
X153340000Y-106090000D02*
X153340000Y-109410000D01*
X153340000Y-106090000D02*
X151140000Y-103890000D01*
X151140000Y-99902700D02*
X151140000Y-103890000D01*
X157350000Y-93440000D02*
X155640000Y-93440000D01*
X155640000Y-93440000D02*
X155640000Y-97058000D01*
X162860000Y-97058000D02*
X162860000Y-93440000D01*
X161150000Y-93440000D02*
X162860000Y-93440000D01*
X167360000Y-115597300D02*
X167360000Y-99902700D01*
X161150000Y-122060000D02*
X162860000Y-122060000D01*
X162860000Y-122060000D02*
X162860000Y-118442000D01*
X178261252Y-120710000D02*
X177738748Y-120710000D01*
X178261252Y-119290000D02*
X177738748Y-119290000D01*
X178261252Y-103710000D02*
X177738748Y-103710000D01*
X178261252Y-102290000D02*
X177738748Y-102290000D01*
X173736252Y-135460000D02*
X173213748Y-135460000D01*
X173736252Y-134040000D02*
X173213748Y-134040000D01*
X155786252Y-135290000D02*
X155263748Y-135290000D01*
X155786252Y-136710000D02*
X155263748Y-136710000D01*
X155736252Y-144290000D02*
X155213748Y-144290000D01*
X155736252Y-145710000D02*
X155213748Y-145710000D01*
X128290000Y-138011252D02*
X128290000Y-137488748D01*
X129710000Y-138011252D02*
X129710000Y-137488748D01*
X198370000Y-75240000D02*
X199300000Y-75240000D01*
X201530000Y-75240000D02*
X200600000Y-75240000D01*
X201530000Y-75240000D02*
X201530000Y-77400000D01*
X198370000Y-75240000D02*
X198370000Y-76700000D01*
X205420000Y-75240000D02*
X205420000Y-76700000D01*
X208580000Y-75240000D02*
X208580000Y-77400000D01*
X208580000Y-75240000D02*
X207650000Y-75240000D01*
X205420000Y-75240000D02*
X206350000Y-75240000D01*
X167210000Y-73213748D02*
X167210000Y-73736252D01*
X165790000Y-73213748D02*
X165790000Y-73736252D01*
X220210000Y-86236252D02*
X220210000Y-85713748D01*
X218790000Y-86236252D02*
X218790000Y-85713748D01*
X220210000Y-81261252D02*
X220210000Y-80738748D01*
X218790000Y-81261252D02*
X218790000Y-80738748D01*
X180213748Y-90710000D02*
X180736252Y-90710000D01*
X180213748Y-89290000D02*
X180736252Y-89290000D01*
X180786252Y-92710000D02*
X180263748Y-92710000D01*
X180786252Y-91290000D02*
X180263748Y-91290000D01*
M02*
