G04 #@! TF.GenerationSoftware,KiCad,Pcbnew,7.0.2-6a45011f42~172~ubuntu22.04.1*
G04 #@! TF.CreationDate,2023-04-26T17:59:51-03:00*
G04 #@! TF.ProjectId,envcity_aqm_v2_2layers,656e7663-6974-4795-9f61-716d5f76325f,rev?*
G04 #@! TF.SameCoordinates,Original*
G04 #@! TF.FileFunction,Paste,Top*
G04 #@! TF.FilePolarity,Positive*
%FSLAX46Y46*%
G04 Gerber Fmt 4.6, Leading zero omitted, Abs format (unit mm)*
G04 Created by KiCad (PCBNEW 7.0.2-6a45011f42~172~ubuntu22.04.1) date 2023-04-26 17:59:51*
%MOMM*%
%LPD*%
G01*
G04 APERTURE LIST*
G04 Aperture macros list*
%AMRoundRect*
0 Rectangle with rounded corners*
0 $1 Rounding radius*
0 $2 $3 $4 $5 $6 $7 $8 $9 X,Y pos of 4 corners*
0 Add a 4 corners polygon primitive as box body*
4,1,4,$2,$3,$4,$5,$6,$7,$8,$9,$2,$3,0*
0 Add four circle primitives for the rounded corners*
1,1,$1+$1,$2,$3*
1,1,$1+$1,$4,$5*
1,1,$1+$1,$6,$7*
1,1,$1+$1,$8,$9*
0 Add four rect primitives between the rounded corners*
20,1,$1+$1,$2,$3,$4,$5,0*
20,1,$1+$1,$4,$5,$6,$7,0*
20,1,$1+$1,$6,$7,$8,$9,0*
20,1,$1+$1,$8,$9,$2,$3,0*%
G04 Aperture macros list end*
%ADD10C,0.010000*%
%ADD11RoundRect,0.250000X0.450000X-0.325000X0.450000X0.325000X-0.450000X0.325000X-0.450000X-0.325000X0*%
%ADD12RoundRect,0.250000X0.325000X0.450000X-0.325000X0.450000X-0.325000X-0.450000X0.325000X-0.450000X0*%
%ADD13RoundRect,0.250000X1.025000X-0.875000X1.025000X0.875000X-1.025000X0.875000X-1.025000X-0.875000X0*%
%ADD14RoundRect,0.250000X-0.325000X-0.450000X0.325000X-0.450000X0.325000X0.450000X-0.325000X0.450000X0*%
%ADD15RoundRect,0.250000X-0.450000X0.325000X-0.450000X-0.325000X0.450000X-0.325000X0.450000X0.325000X0*%
%ADD16R,0.600000X0.700000*%
%ADD17R,0.600000X0.450000*%
%ADD18R,0.450000X0.600000*%
%ADD19R,3.200000X2.250000*%
%ADD20R,0.700000X0.450000*%
%ADD21RoundRect,0.243750X0.243750X0.456250X-0.243750X0.456250X-0.243750X-0.456250X0.243750X-0.456250X0*%
%ADD22RoundRect,0.250000X-0.537500X-0.650000X0.537500X-0.650000X0.537500X0.650000X-0.537500X0.650000X0*%
%ADD23RoundRect,0.150000X0.150000X-0.675000X0.150000X0.675000X-0.150000X0.675000X-0.150000X-0.675000X0*%
%ADD24R,1.200000X0.700000*%
%ADD25R,1.200000X0.760000*%
%ADD26R,1.200000X0.800000*%
%ADD27R,3.500000X4.000000*%
%ADD28R,4.000000X3.500000*%
%ADD29R,0.900000X0.800000*%
%ADD30R,0.800000X0.900000*%
%ADD31R,0.250000X1.100000*%
%ADD32RoundRect,0.150000X0.150000X-0.875000X0.150000X0.875000X-0.150000X0.875000X-0.150000X-0.875000X0*%
%ADD33R,1.100000X4.600000*%
%ADD34R,5.250000X4.550000*%
%ADD35RoundRect,0.042000X0.943000X0.258000X-0.943000X0.258000X-0.943000X-0.258000X0.943000X-0.258000X0*%
%ADD36R,0.650000X1.560000*%
G04 APERTURE END LIST*
D10*
X180645000Y-73320000D02*
X179355000Y-73320000D01*
X179355000Y-71680000D01*
X180645000Y-71680000D01*
X180645000Y-73320000D01*
G36*
X180645000Y-73320000D02*
G01*
X179355000Y-73320000D01*
X179355000Y-71680000D01*
X180645000Y-71680000D01*
X180645000Y-73320000D01*
G37*
D11*
X135250000Y-119025000D03*
X135250000Y-116975000D03*
D12*
X154875000Y-127350000D03*
X156925000Y-127350000D03*
D13*
X139500000Y-91800000D03*
X139500000Y-98200000D03*
X157000000Y-101200000D03*
X157000000Y-94800000D03*
D14*
X189025000Y-73775000D03*
X186975000Y-73775000D03*
X186975000Y-71175000D03*
X189025000Y-71175000D03*
D12*
X159025000Y-83500000D03*
X156975000Y-83500000D03*
D14*
X216950000Y-90000000D03*
X219000000Y-90000000D03*
D11*
X215000000Y-79450000D03*
X215000000Y-81500000D03*
D15*
X181000000Y-87025000D03*
X181000000Y-84975000D03*
X182875000Y-93900000D03*
X182875000Y-95950000D03*
X211000000Y-145475000D03*
X211000000Y-147525000D03*
X208500000Y-147525000D03*
X208500000Y-145475000D03*
D16*
X134700000Y-85500000D03*
X133300000Y-85500000D03*
D11*
X139250000Y-80975000D03*
X139250000Y-83025000D03*
D17*
X129950000Y-107000000D03*
X132050000Y-107000000D03*
D16*
X132300000Y-97000000D03*
X133700000Y-97000000D03*
D18*
X154500000Y-81550000D03*
X154500000Y-79450000D03*
D16*
X161300000Y-79000000D03*
X162700000Y-79000000D03*
D14*
X178475000Y-77500000D03*
X180525000Y-77500000D03*
X178475000Y-81000000D03*
X180525000Y-81000000D03*
D19*
X142000000Y-106050000D03*
X142000000Y-112950000D03*
D12*
X157525000Y-87500000D03*
X155475000Y-87500000D03*
D20*
X212500000Y-90350000D03*
X212500000Y-91650000D03*
X214500000Y-91000000D03*
D14*
X212450000Y-94500000D03*
X214500000Y-94500000D03*
D20*
X186750000Y-86350000D03*
X186750000Y-85050000D03*
X184750000Y-85700000D03*
D15*
X186500000Y-82025000D03*
X186500000Y-79975000D03*
D21*
X135250000Y-77750000D03*
X133375000Y-77750000D03*
D22*
X133662500Y-73250000D03*
X137837500Y-73250000D03*
D23*
X196595000Y-134625000D03*
X197865000Y-134625000D03*
X199135000Y-134625000D03*
X200405000Y-134625000D03*
X200405000Y-129375000D03*
X199135000Y-129375000D03*
X197865000Y-129375000D03*
X196595000Y-129375000D03*
D24*
X128780000Y-81500000D03*
D25*
X128780000Y-83520000D03*
D26*
X128780000Y-84750000D03*
D24*
X128780000Y-82500000D03*
D25*
X128780000Y-80480000D03*
D26*
X128780000Y-79250000D03*
D27*
X148500000Y-109000000D03*
X156500000Y-109000000D03*
D28*
X205500000Y-90800000D03*
X205500000Y-82800000D03*
X194000000Y-90800000D03*
X194000000Y-82800000D03*
D29*
X146750000Y-77250000D03*
X148750000Y-76300000D03*
X148750000Y-78200000D03*
D30*
X162600000Y-98500000D03*
X163550000Y-100500000D03*
X161650000Y-100500000D03*
X143250000Y-78250000D03*
X142300000Y-76250000D03*
X144200000Y-76250000D03*
D29*
X146750000Y-71550000D03*
X146750000Y-73450000D03*
X148750000Y-72500000D03*
X161500000Y-84000000D03*
X163500000Y-83050000D03*
X163500000Y-84950000D03*
D30*
X168000000Y-98500000D03*
X168950000Y-100500000D03*
X167050000Y-100500000D03*
D29*
X163500000Y-105800000D03*
X163500000Y-103900000D03*
X161500000Y-104850000D03*
D30*
X166750000Y-84000000D03*
X168650000Y-84000000D03*
X167700000Y-82000000D03*
X132050000Y-102500000D03*
X133950000Y-102500000D03*
X133000000Y-100500000D03*
D29*
X171000000Y-82050000D03*
X171000000Y-83950000D03*
X173000000Y-83000000D03*
D30*
X172250000Y-89600000D03*
X173200000Y-91600000D03*
X171300000Y-91600000D03*
D29*
X157000000Y-78050000D03*
X157000000Y-79950000D03*
X159000000Y-79000000D03*
D15*
X139250000Y-78250000D03*
X139250000Y-76200000D03*
D14*
X189025000Y-105500000D03*
X186975000Y-105500000D03*
X133475000Y-80750000D03*
X135525000Y-80750000D03*
X135550000Y-83000000D03*
X133500000Y-83000000D03*
D12*
X166025000Y-91000000D03*
X163975000Y-91000000D03*
D15*
X143250000Y-80700000D03*
X143250000Y-82750000D03*
D12*
X146975000Y-81000000D03*
X149025000Y-81000000D03*
D14*
X172000000Y-95500000D03*
X169950000Y-95500000D03*
X161475000Y-109500000D03*
X163525000Y-109500000D03*
X202475000Y-106000000D03*
X204525000Y-106000000D03*
X220025000Y-110500000D03*
X217975000Y-110500000D03*
X217950000Y-108250000D03*
X220000000Y-108250000D03*
X220025000Y-106000000D03*
X217975000Y-106000000D03*
D12*
X127025000Y-107000000D03*
X124975000Y-107000000D03*
D15*
X176525000Y-84975000D03*
X176525000Y-87025000D03*
D12*
X166575000Y-87900000D03*
X168625000Y-87900000D03*
D11*
X154000000Y-73025000D03*
X154000000Y-70975000D03*
D14*
X215000000Y-114500000D03*
X212950000Y-114500000D03*
X212950000Y-117500000D03*
X215000000Y-117500000D03*
D12*
X155500000Y-91000000D03*
X157550000Y-91000000D03*
D14*
X170975000Y-71500000D03*
X173025000Y-71500000D03*
X173025000Y-74000000D03*
X170975000Y-74000000D03*
X186975000Y-77000000D03*
X189025000Y-77000000D03*
D15*
X217000000Y-94525000D03*
X217000000Y-92475000D03*
X183500000Y-79950000D03*
X183500000Y-82000000D03*
D31*
X161000000Y-124100000D03*
X160500000Y-124100000D03*
X160000000Y-124100000D03*
X159500000Y-124100000D03*
X159000000Y-124100000D03*
X159000000Y-128400000D03*
X159500000Y-128400000D03*
X160000000Y-128400000D03*
X160500000Y-128400000D03*
X161000000Y-128400000D03*
D32*
X135265000Y-131400000D03*
X136535000Y-131400000D03*
X137805000Y-131400000D03*
X139075000Y-131400000D03*
X140345000Y-131400000D03*
X141615000Y-131400000D03*
X142885000Y-131400000D03*
X144155000Y-131400000D03*
X145425000Y-131400000D03*
X146695000Y-131400000D03*
X147965000Y-131400000D03*
X149235000Y-131400000D03*
X149235000Y-122100000D03*
X147965000Y-122100000D03*
X146695000Y-122100000D03*
X145425000Y-122100000D03*
X144155000Y-122100000D03*
X142885000Y-122100000D03*
X141615000Y-122100000D03*
X140345000Y-122100000D03*
X139075000Y-122100000D03*
X137805000Y-122100000D03*
X136535000Y-122100000D03*
X135265000Y-122100000D03*
D33*
X144600000Y-99650000D03*
X146300000Y-99650000D03*
X148000000Y-99650000D03*
X149700000Y-99650000D03*
X151400000Y-99650000D03*
D34*
X150775000Y-88075000D03*
X145225000Y-92925000D03*
X145225000Y-88075000D03*
X150775000Y-92925000D03*
D35*
X182475000Y-74405000D03*
X182475000Y-73135000D03*
X182475000Y-71865000D03*
X182475000Y-70595000D03*
X177525000Y-70595000D03*
X177525000Y-71865000D03*
X177525000Y-73135000D03*
X177525000Y-74405000D03*
D36*
X214050000Y-86850000D03*
X215000000Y-86850000D03*
X215950000Y-86850000D03*
X215950000Y-84150000D03*
X214050000Y-84150000D03*
X215000000Y-84150000D03*
X187300000Y-89750000D03*
X186350000Y-89750000D03*
X185400000Y-89750000D03*
X185400000Y-92450000D03*
X187300000Y-92450000D03*
X186350000Y-92450000D03*
M02*
