G04 #@! TF.GenerationSoftware,KiCad,Pcbnew,7.0.2-6a45011f42~172~ubuntu22.04.1*
G04 #@! TF.CreationDate,2023-04-26T17:59:51-03:00*
G04 #@! TF.ProjectId,envcity_aqm_v2_2layers,656e7663-6974-4795-9f61-716d5f76325f,rev?*
G04 #@! TF.SameCoordinates,Original*
G04 #@! TF.FileFunction,Paste,Bot*
G04 #@! TF.FilePolarity,Positive*
%FSLAX46Y46*%
G04 Gerber Fmt 4.6, Leading zero omitted, Abs format (unit mm)*
G04 Created by KiCad (PCBNEW 7.0.2-6a45011f42~172~ubuntu22.04.1) date 2023-04-26 17:59:51*
%MOMM*%
%LPD*%
G01*
G04 APERTURE LIST*
G04 Aperture macros list*
%AMRoundRect*
0 Rectangle with rounded corners*
0 $1 Rounding radius*
0 $2 $3 $4 $5 $6 $7 $8 $9 X,Y pos of 4 corners*
0 Add a 4 corners polygon primitive as box body*
4,1,4,$2,$3,$4,$5,$6,$7,$8,$9,$2,$3,0*
0 Add four circle primitives for the rounded corners*
1,1,$1+$1,$2,$3*
1,1,$1+$1,$4,$5*
1,1,$1+$1,$6,$7*
1,1,$1+$1,$8,$9*
0 Add four rect primitives between the rounded corners*
20,1,$1+$1,$2,$3,$4,$5,0*
20,1,$1+$1,$4,$5,$6,$7,0*
20,1,$1+$1,$6,$7,$8,$9,0*
20,1,$1+$1,$8,$9,$2,$3,0*%
G04 Aperture macros list end*
%ADD10R,0.700000X1.750000*%
%ADD11R,1.300000X1.500000*%
%ADD12R,0.800000X1.500000*%
%ADD13R,1.450000X1.000000*%
%ADD14R,0.800000X1.400000*%
%ADD15R,1.500000X1.500000*%
%ADD16R,1.000000X1.550000*%
%ADD17R,3.510000X2.540000*%
%ADD18RoundRect,0.250000X0.325000X0.450000X-0.325000X0.450000X-0.325000X-0.450000X0.325000X-0.450000X0*%
%ADD19RoundRect,0.250000X0.450000X-0.325000X0.450000X0.325000X-0.450000X0.325000X-0.450000X-0.325000X0*%
%ADD20R,0.800000X0.900000*%
%ADD21RoundRect,0.250000X-0.450000X0.325000X-0.450000X-0.325000X0.450000X-0.325000X0.450000X0.325000X0*%
%ADD22RoundRect,0.250000X-0.325000X-0.450000X0.325000X-0.450000X0.325000X0.450000X-0.325000X0.450000X0*%
G04 APERTURE END LIST*
D10*
X205975000Y-140650000D03*
D11*
X204775000Y-140775000D03*
D12*
X204525000Y-148375000D03*
D13*
X204850000Y-149875000D03*
D14*
X216475000Y-149025000D03*
D10*
X207075000Y-140650000D03*
X208175000Y-140650000D03*
X209275000Y-140650000D03*
X210375000Y-140650000D03*
X211475000Y-140650000D03*
X212575000Y-140650000D03*
X213675000Y-140650000D03*
D15*
X216125000Y-140775000D03*
D16*
X216075000Y-151450000D03*
D17*
X159250000Y-122430000D03*
X159250000Y-93070000D03*
D18*
X176975000Y-120000000D03*
X179025000Y-120000000D03*
X176975000Y-103000000D03*
X179025000Y-103000000D03*
X172450000Y-134750000D03*
X174500000Y-134750000D03*
X156550000Y-136000000D03*
X154500000Y-136000000D03*
X156500000Y-145000000D03*
X154450000Y-145000000D03*
D19*
X129000000Y-136725000D03*
X129000000Y-138775000D03*
D20*
X200900000Y-77000000D03*
X199000000Y-77000000D03*
X199950000Y-75000000D03*
X207000000Y-75000000D03*
X206050000Y-77000000D03*
X207950000Y-77000000D03*
D21*
X166500000Y-74500000D03*
X166500000Y-72450000D03*
D19*
X219500000Y-87000000D03*
X219500000Y-84950000D03*
X219500000Y-82025000D03*
X219500000Y-79975000D03*
D22*
X179450000Y-90000000D03*
X181500000Y-90000000D03*
D18*
X179500000Y-92000000D03*
X181550000Y-92000000D03*
M02*
