G04 #@! TF.GenerationSoftware,KiCad,Pcbnew,7.0.2-6a45011f42~172~ubuntu22.04.1*
G04 #@! TF.CreationDate,2023-04-26T17:53:44-03:00*
G04 #@! TF.ProjectId,envcity_aqm_v2,656e7663-6974-4795-9f61-716d5f76322e,rev?*
G04 #@! TF.SameCoordinates,Original*
G04 #@! TF.FileFunction,Paste,Top*
G04 #@! TF.FilePolarity,Positive*
%FSLAX46Y46*%
G04 Gerber Fmt 4.6, Leading zero omitted, Abs format (unit mm)*
G04 Created by KiCad (PCBNEW 7.0.2-6a45011f42~172~ubuntu22.04.1) date 2023-04-26 17:53:44*
%MOMM*%
%LPD*%
G01*
G04 APERTURE LIST*
G04 Aperture macros list*
%AMRoundRect*
0 Rectangle with rounded corners*
0 $1 Rounding radius*
0 $2 $3 $4 $5 $6 $7 $8 $9 X,Y pos of 4 corners*
0 Add a 4 corners polygon primitive as box body*
4,1,4,$2,$3,$4,$5,$6,$7,$8,$9,$2,$3,0*
0 Add four circle primitives for the rounded corners*
1,1,$1+$1,$2,$3*
1,1,$1+$1,$4,$5*
1,1,$1+$1,$6,$7*
1,1,$1+$1,$8,$9*
0 Add four rect primitives between the rounded corners*
20,1,$1+$1,$2,$3,$4,$5,0*
20,1,$1+$1,$4,$5,$6,$7,0*
20,1,$1+$1,$6,$7,$8,$9,0*
20,1,$1+$1,$8,$9,$2,$3,0*%
G04 Aperture macros list end*
%ADD10C,0.010000*%
%ADD11RoundRect,0.042000X-0.258000X0.943000X-0.258000X-0.943000X0.258000X-0.943000X0.258000X0.943000X0*%
%ADD12RoundRect,0.250000X-0.325000X-0.450000X0.325000X-0.450000X0.325000X0.450000X-0.325000X0.450000X0*%
%ADD13R,2.540000X3.510000*%
%ADD14RoundRect,0.250000X0.325000X0.450000X-0.325000X0.450000X-0.325000X-0.450000X0.325000X-0.450000X0*%
%ADD15RoundRect,0.250000X-0.875000X-1.025000X0.875000X-1.025000X0.875000X1.025000X-0.875000X1.025000X0*%
%ADD16RoundRect,0.250000X0.450000X-0.325000X0.450000X0.325000X-0.450000X0.325000X-0.450000X-0.325000X0*%
%ADD17RoundRect,0.250000X-0.450000X0.325000X-0.450000X-0.325000X0.450000X-0.325000X0.450000X0.325000X0*%
%ADD18R,0.700000X0.600000*%
%ADD19R,0.600000X0.450000*%
%ADD20R,2.250000X3.200000*%
%ADD21R,0.700000X0.450000*%
%ADD22R,0.450000X0.700000*%
%ADD23RoundRect,0.243750X0.456250X-0.243750X0.456250X0.243750X-0.456250X0.243750X-0.456250X-0.243750X0*%
%ADD24RoundRect,0.250000X0.650000X-0.537500X0.650000X0.537500X-0.650000X0.537500X-0.650000X-0.537500X0*%
%ADD25RoundRect,0.150000X-0.150000X0.675000X-0.150000X-0.675000X0.150000X-0.675000X0.150000X0.675000X0*%
%ADD26R,1.200000X0.700000*%
%ADD27R,1.200000X0.760000*%
%ADD28R,1.200000X0.800000*%
%ADD29R,1.750000X0.700000*%
%ADD30R,1.500000X1.300000*%
%ADD31R,1.500000X0.800000*%
%ADD32R,1.000000X1.450000*%
%ADD33R,1.400000X0.800000*%
%ADD34R,1.500000X1.500000*%
%ADD35R,1.550000X1.000000*%
%ADD36R,4.000000X3.500000*%
%ADD37R,3.500000X4.000000*%
%ADD38R,0.800000X0.900000*%
%ADD39R,0.900000X0.800000*%
%ADD40R,0.250000X1.100000*%
%ADD41RoundRect,0.150000X0.150000X-0.875000X0.150000X0.875000X-0.150000X0.875000X-0.150000X-0.875000X0*%
%ADD42R,4.600000X1.100000*%
%ADD43R,4.550000X5.250000*%
%ADD44R,0.650000X1.560000*%
%ADD45R,1.560000X0.650000*%
G04 APERTURE END LIST*
D10*
X127320000Y-97145000D02*
X125680000Y-97145000D01*
X125680000Y-95855000D01*
X127320000Y-95855000D01*
X127320000Y-97145000D01*
G36*
X127320000Y-97145000D02*
G01*
X125680000Y-97145000D01*
X125680000Y-95855000D01*
X127320000Y-95855000D01*
X127320000Y-97145000D01*
G37*
D11*
X128405000Y-94025000D03*
X127135000Y-94025000D03*
X125865000Y-94025000D03*
X124595000Y-94025000D03*
X124595000Y-98975000D03*
X125865000Y-98975000D03*
X127135000Y-98975000D03*
X128405000Y-98975000D03*
D12*
X191475000Y-130250000D03*
X193525000Y-130250000D03*
D13*
X200180000Y-73500000D03*
X170820000Y-73500000D03*
D12*
X198125000Y-124100000D03*
X200175000Y-124100000D03*
D14*
X153475000Y-115000000D03*
X155525000Y-115000000D03*
X153450000Y-98000000D03*
X155500000Y-98000000D03*
D15*
X139050000Y-65500000D03*
X145450000Y-65500000D03*
X148200000Y-83500000D03*
X141800000Y-83500000D03*
D14*
X122025000Y-94000000D03*
X119975000Y-94000000D03*
X122025000Y-96500000D03*
X119975000Y-96500000D03*
X127325000Y-82600000D03*
X129375000Y-82600000D03*
D16*
X214000000Y-152475000D03*
X214000000Y-154525000D03*
X214000000Y-145775000D03*
X214000000Y-143725000D03*
D17*
X117500000Y-138475000D03*
X117500000Y-140525000D03*
X125750000Y-135025000D03*
X125750000Y-132975000D03*
D16*
X193000000Y-145750000D03*
X193000000Y-143700000D03*
X193000000Y-152475000D03*
X193000000Y-154525000D03*
D17*
X144000000Y-126975000D03*
X144000000Y-129025000D03*
D16*
X132500000Y-125475000D03*
X132500000Y-127525000D03*
X206500000Y-66725000D03*
X206500000Y-68775000D03*
X204000000Y-68775000D03*
X204000000Y-66725000D03*
D18*
X123000000Y-106800000D03*
X123000000Y-108200000D03*
D12*
X123475000Y-104000000D03*
X125525000Y-104000000D03*
D19*
X121700000Y-77750000D03*
X123800000Y-77750000D03*
D18*
X121750000Y-69800000D03*
X121750000Y-71200000D03*
D19*
X129450000Y-85500000D03*
X131550000Y-85500000D03*
D18*
X139150000Y-88850000D03*
X139150000Y-90250000D03*
D16*
X136000000Y-95525000D03*
X136000000Y-93475000D03*
X132500000Y-93500000D03*
X132500000Y-95550000D03*
D20*
X132400000Y-64050000D03*
X125500000Y-64050000D03*
D12*
X119025000Y-82000000D03*
X116975000Y-82000000D03*
D21*
X118750000Y-136150000D03*
X118750000Y-134850000D03*
X116750000Y-135500000D03*
D14*
X122975000Y-144000000D03*
X125025000Y-144000000D03*
D22*
X141000000Y-127500000D03*
X141650000Y-129500000D03*
X140350000Y-129500000D03*
D14*
X140025000Y-121000000D03*
X137975000Y-121000000D03*
D23*
X126000000Y-109937500D03*
X126000000Y-108062500D03*
D24*
X130000000Y-111000000D03*
X130000000Y-106825000D03*
D25*
X218905000Y-97875000D03*
X217635000Y-97875000D03*
X216365000Y-97875000D03*
X215095000Y-97875000D03*
X215095000Y-103125000D03*
X216365000Y-103125000D03*
X217635000Y-103125000D03*
X218905000Y-103125000D03*
D26*
X119530000Y-109500000D03*
D27*
X119530000Y-111520000D03*
D28*
X119530000Y-112750000D03*
D26*
X119530000Y-110500000D03*
D27*
X119530000Y-108480000D03*
D28*
X119530000Y-107250000D03*
D29*
X209150000Y-72475000D03*
D30*
X209275000Y-71275000D03*
D31*
X216875000Y-71025000D03*
D32*
X218375000Y-71350000D03*
D33*
X217525000Y-82975000D03*
D29*
X209150000Y-73575000D03*
X209150000Y-74675000D03*
X209150000Y-75775000D03*
X209150000Y-76875000D03*
X209150000Y-77975000D03*
X209150000Y-79075000D03*
X209150000Y-80175000D03*
D34*
X209275000Y-82625000D03*
D35*
X219950000Y-82575000D03*
D36*
X131050000Y-78750000D03*
X131050000Y-70750000D03*
D37*
X124250000Y-125750000D03*
X116250000Y-125750000D03*
X142500000Y-136500000D03*
X134500000Y-136500000D03*
D38*
X141750000Y-110300000D03*
X139850000Y-110300000D03*
X140800000Y-112300000D03*
X159950000Y-77000000D03*
X158050000Y-77000000D03*
X159000000Y-79000000D03*
D39*
X145800000Y-111300000D03*
X143800000Y-112250000D03*
X143800000Y-110350000D03*
D38*
X143250000Y-105300000D03*
X141350000Y-105300000D03*
X142300000Y-107300000D03*
X130500000Y-87500000D03*
X131450000Y-89500000D03*
X129550000Y-89500000D03*
D39*
X163000000Y-77050000D03*
X163000000Y-78950000D03*
X165000000Y-78000000D03*
D38*
X161000000Y-73500000D03*
X160050000Y-71500000D03*
X161950000Y-71500000D03*
X143450000Y-96900000D03*
X141550000Y-96900000D03*
X142500000Y-98900000D03*
X122750000Y-73500000D03*
X123700000Y-75500000D03*
X121800000Y-75500000D03*
D39*
X148500000Y-97900000D03*
X146500000Y-98850000D03*
X146500000Y-96950000D03*
D38*
X144500000Y-91900000D03*
X142600000Y-91900000D03*
X143550000Y-93900000D03*
D39*
X137100000Y-88900000D03*
X135100000Y-89850000D03*
X135100000Y-87950000D03*
D38*
X131600000Y-148200000D03*
X129700000Y-148200000D03*
X130650000Y-150200000D03*
X138800000Y-150200000D03*
X137850000Y-148200000D03*
X139750000Y-148200000D03*
D14*
X130025000Y-104000000D03*
X127975000Y-104000000D03*
D16*
X168500000Y-100025000D03*
X168500000Y-97975000D03*
D12*
X123525000Y-86250000D03*
X121475000Y-86250000D03*
D17*
X125500000Y-113450000D03*
X125500000Y-115500000D03*
X123000000Y-115500000D03*
X123000000Y-113450000D03*
X126500000Y-88275000D03*
X126500000Y-86225000D03*
D14*
X145800000Y-114800000D03*
X143750000Y-114800000D03*
D16*
X138800000Y-105275000D03*
X138800000Y-107325000D03*
D14*
X165050000Y-81500000D03*
X163000000Y-81500000D03*
D17*
X157750000Y-74275000D03*
X157750000Y-72225000D03*
D12*
X215525000Y-131500000D03*
X213475000Y-131500000D03*
X215525000Y-134000000D03*
X213475000Y-134000000D03*
D16*
X208500000Y-124525000D03*
X208500000Y-122475000D03*
X211500000Y-122475000D03*
X211500000Y-124525000D03*
D14*
X117225000Y-77750000D03*
X119275000Y-77750000D03*
X148525000Y-101400000D03*
X146475000Y-101400000D03*
X138475000Y-93900000D03*
X140525000Y-93900000D03*
D16*
X135050000Y-85725000D03*
X135050000Y-83675000D03*
D17*
X191000000Y-111975000D03*
X191000000Y-114025000D03*
X186000000Y-111975000D03*
X186000000Y-114025000D03*
D14*
X123025000Y-82000000D03*
X120975000Y-82000000D03*
D17*
X136000000Y-97975000D03*
X136000000Y-100025000D03*
X132500000Y-100025000D03*
X132500000Y-97975000D03*
D14*
X121500000Y-90000000D03*
X123550000Y-90000000D03*
D12*
X118450000Y-144000000D03*
X120500000Y-144000000D03*
D17*
X120500000Y-140525000D03*
X120500000Y-138475000D03*
X123500000Y-138500000D03*
X123500000Y-140550000D03*
D14*
X137975000Y-118500000D03*
X140025000Y-118500000D03*
X143525000Y-124500000D03*
X141475000Y-124500000D03*
X136950000Y-124500000D03*
X139000000Y-124500000D03*
D40*
X189500000Y-136885001D03*
X190000000Y-136885001D03*
X190500000Y-136885001D03*
X191000000Y-136885001D03*
X191500000Y-136885001D03*
X191500000Y-132585001D03*
X191000000Y-132585001D03*
X190500000Y-132585001D03*
X190000000Y-132585001D03*
X189500000Y-132585001D03*
D41*
X197015000Y-136650000D03*
X198285000Y-136650000D03*
X199555000Y-136650000D03*
X200825000Y-136650000D03*
X202095000Y-136650000D03*
X203365000Y-136650000D03*
X204635000Y-136650000D03*
X205905000Y-136650000D03*
X207175000Y-136650000D03*
X208445000Y-136650000D03*
X209715000Y-136650000D03*
X210985000Y-136650000D03*
X210985000Y-127350000D03*
X209715000Y-127350000D03*
X208445000Y-127350000D03*
X207175000Y-127350000D03*
X205905000Y-127350000D03*
X204635000Y-127350000D03*
X203365000Y-127350000D03*
X202095000Y-127350000D03*
X200825000Y-127350000D03*
X199555000Y-127350000D03*
X198285000Y-127350000D03*
X197015000Y-127350000D03*
D42*
X140475000Y-71350000D03*
X140475000Y-73050000D03*
X140475000Y-74750000D03*
X140475000Y-76450000D03*
X140475000Y-78150000D03*
D43*
X152050000Y-77525000D03*
X147200000Y-71975000D03*
X152050000Y-71975000D03*
X147200000Y-77525000D03*
D44*
X122500000Y-133150000D03*
X121550000Y-133150000D03*
X123450000Y-133150000D03*
X123450000Y-135850000D03*
X122500000Y-135850000D03*
X121550000Y-135850000D03*
D45*
X138000000Y-129500000D03*
X138000000Y-128550000D03*
X138000000Y-127600000D03*
X135300000Y-127600000D03*
X135300000Y-129500000D03*
X135300000Y-128550000D03*
M02*
