G04 #@! TF.GenerationSoftware,KiCad,Pcbnew,7.0.2-6a45011f42~172~ubuntu22.04.1*
G04 #@! TF.CreationDate,2023-04-26T17:53:44-03:00*
G04 #@! TF.ProjectId,envcity_aqm_v2,656e7663-6974-4795-9f61-716d5f76322e,rev?*
G04 #@! TF.SameCoordinates,Original*
G04 #@! TF.FileFunction,Copper,L3,Inr*
G04 #@! TF.FilePolarity,Positive*
%FSLAX46Y46*%
G04 Gerber Fmt 4.6, Leading zero omitted, Abs format (unit mm)*
G04 Created by KiCad (PCBNEW 7.0.2-6a45011f42~172~ubuntu22.04.1) date 2023-04-26 17:53:44*
%MOMM*%
%LPD*%
G01*
G04 APERTURE LIST*
G04 Aperture macros list*
%AMRoundRect*
0 Rectangle with rounded corners*
0 $1 Rounding radius*
0 $2 $3 $4 $5 $6 $7 $8 $9 X,Y pos of 4 corners*
0 Add a 4 corners polygon primitive as box body*
4,1,4,$2,$3,$4,$5,$6,$7,$8,$9,$2,$3,0*
0 Add four circle primitives for the rounded corners*
1,1,$1+$1,$2,$3*
1,1,$1+$1,$4,$5*
1,1,$1+$1,$6,$7*
1,1,$1+$1,$8,$9*
0 Add four rect primitives between the rounded corners*
20,1,$1+$1,$2,$3,$4,$5,0*
20,1,$1+$1,$4,$5,$6,$7,0*
20,1,$1+$1,$6,$7,$8,$9,0*
20,1,$1+$1,$8,$9,$2,$3,0*%
G04 Aperture macros list end*
G04 #@! TA.AperFunction,ComponentPad*
%ADD10C,1.500000*%
G04 #@! TD*
G04 #@! TA.AperFunction,ComponentPad*
%ADD11R,1.500000X1.500000*%
G04 #@! TD*
G04 #@! TA.AperFunction,ComponentPad*
%ADD12C,2.010000*%
G04 #@! TD*
G04 #@! TA.AperFunction,ComponentPad*
%ADD13C,2.100000*%
G04 #@! TD*
G04 #@! TA.AperFunction,ComponentPad*
%ADD14R,2.100000X2.100000*%
G04 #@! TD*
G04 #@! TA.AperFunction,ComponentPad*
%ADD15RoundRect,0.250000X0.620000X0.850000X-0.620000X0.850000X-0.620000X-0.850000X0.620000X-0.850000X0*%
G04 #@! TD*
G04 #@! TA.AperFunction,ComponentPad*
%ADD16O,1.740000X2.200000*%
G04 #@! TD*
G04 #@! TA.AperFunction,ComponentPad*
%ADD17RoundRect,0.250000X-0.625000X0.350000X-0.625000X-0.350000X0.625000X-0.350000X0.625000X0.350000X0*%
G04 #@! TD*
G04 #@! TA.AperFunction,ComponentPad*
%ADD18O,1.750000X1.200000*%
G04 #@! TD*
G04 #@! TA.AperFunction,ComponentPad*
%ADD19C,1.524000*%
G04 #@! TD*
G04 #@! TA.AperFunction,ComponentPad*
%ADD20C,1.000000*%
G04 #@! TD*
G04 #@! TA.AperFunction,ViaPad*
%ADD21C,0.800000*%
G04 #@! TD*
G04 #@! TA.AperFunction,Conductor*
%ADD22C,0.250000*%
G04 #@! TD*
G04 #@! TA.AperFunction,Conductor*
%ADD23C,1.000000*%
G04 #@! TD*
G04 #@! TA.AperFunction,Conductor*
%ADD24C,0.500000*%
G04 #@! TD*
G04 APERTURE END LIST*
D10*
X159120000Y-155250000D03*
X156580000Y-155250000D03*
X154040000Y-155250000D03*
D11*
X151500000Y-155250000D03*
D12*
X115650000Y-105680000D03*
X115650000Y-114320000D03*
X119450000Y-105680000D03*
X119450000Y-114320000D03*
D13*
X116500000Y-71460000D03*
D14*
X116500000Y-74000000D03*
X116500000Y-90000000D03*
D13*
X116500000Y-87460000D03*
D15*
X210500000Y-146250000D03*
D16*
X207960000Y-146250000D03*
X205420000Y-146250000D03*
X202880000Y-146250000D03*
X200340000Y-146250000D03*
X197800000Y-146250000D03*
X176800000Y-146250000D03*
X179340000Y-146250000D03*
X181880000Y-146250000D03*
X184420000Y-146250000D03*
X186960000Y-146250000D03*
D15*
X189500000Y-146250000D03*
D16*
X197800000Y-155000000D03*
X200340000Y-155000000D03*
X202880000Y-155000000D03*
X205420000Y-155000000D03*
X207960000Y-155000000D03*
D15*
X210500000Y-155000000D03*
X189500000Y-155000000D03*
D16*
X186960000Y-155000000D03*
X184420000Y-155000000D03*
X181880000Y-155000000D03*
X179340000Y-155000000D03*
X176800000Y-155000000D03*
D15*
X171000000Y-155000000D03*
D16*
X168460000Y-155000000D03*
X165920000Y-155000000D03*
D17*
X218000000Y-112000000D03*
D18*
X218000000Y-114000000D03*
X218000000Y-116000000D03*
X218000000Y-118000000D03*
D16*
X130610000Y-155200000D03*
D15*
X133150000Y-155200000D03*
X141300000Y-155200000D03*
D16*
X138760000Y-155200000D03*
D19*
X153100000Y-94985000D03*
X155640000Y-94985000D03*
X158180000Y-94985000D03*
X160720000Y-94985000D03*
X163260000Y-94985000D03*
X165800000Y-94985000D03*
X168340000Y-94985000D03*
X170880000Y-94985000D03*
X173420000Y-94985000D03*
X175960000Y-94985000D03*
X178500000Y-94985000D03*
X181040000Y-94985000D03*
X183580000Y-94985000D03*
X186120000Y-94985000D03*
X188660000Y-94985000D03*
X191200000Y-94985000D03*
X193740000Y-94985000D03*
X196280000Y-94985000D03*
X196280000Y-118015000D03*
X193740000Y-118015000D03*
X191200000Y-118015000D03*
X188660000Y-118015000D03*
X186120000Y-118015000D03*
X183580000Y-118015000D03*
X181040000Y-118015000D03*
X178500000Y-118015000D03*
X175960000Y-118015000D03*
X173420000Y-118015000D03*
X170880000Y-118015000D03*
X168340000Y-118015000D03*
X165800000Y-118015000D03*
X163260000Y-118015000D03*
X160720000Y-118015000D03*
X158180000Y-118015000D03*
X155640000Y-118015000D03*
X153100000Y-118015000D03*
D20*
X216500000Y-88710000D03*
X216500000Y-91250000D03*
D21*
X216000000Y-95250000D03*
X200500000Y-79500000D03*
X188000000Y-136750008D03*
X198100000Y-122350000D03*
X219000000Y-105500000D03*
X122100000Y-92350000D03*
X142149990Y-122650000D03*
X141498952Y-118398952D03*
X135999999Y-92150000D03*
X195000000Y-127250000D03*
X192250000Y-128500000D03*
X165750000Y-100000000D03*
X186000000Y-108750000D03*
X190000000Y-108250000D03*
X201250000Y-69000000D03*
X207000000Y-70500000D03*
X206500000Y-77000000D03*
X126140000Y-71330000D03*
X136590000Y-65440000D03*
X159050000Y-81550000D03*
X143000000Y-86350000D03*
X114000000Y-135500000D03*
X130340000Y-91430000D03*
X139690000Y-96860000D03*
X134540000Y-92020000D03*
X140600000Y-92150000D03*
X124750000Y-121750000D03*
X127170000Y-132960000D03*
X130610000Y-127940000D03*
X132500000Y-128910000D03*
X124230000Y-131040000D03*
X123500000Y-130240000D03*
X127250000Y-125750000D03*
X131250000Y-135000000D03*
X136750000Y-90850000D03*
X198250000Y-132200000D03*
X200500000Y-139750000D03*
X199250000Y-139500000D03*
X193250000Y-112500002D03*
X205250000Y-71250000D03*
X200000000Y-97750000D03*
X182000000Y-109500000D03*
X203750000Y-79750000D03*
X206250000Y-80250000D03*
X196000000Y-111250000D03*
X142550000Y-100750000D03*
X140200000Y-98850000D03*
X143550000Y-90600000D03*
X137800000Y-109799978D03*
X127000000Y-84500000D03*
X129950000Y-98900000D03*
X131750000Y-146500004D03*
X190000000Y-138500000D03*
X178250000Y-109000000D03*
X213575000Y-129550000D03*
X203275000Y-122275000D03*
X211575000Y-133075000D03*
X204700000Y-123725000D03*
X201400000Y-130350000D03*
D22*
X216000000Y-95250000D02*
X215600001Y-94850001D01*
X215600001Y-94850001D02*
X200500000Y-79750000D01*
X200500000Y-79750000D02*
X200500000Y-79500000D01*
X158180000Y-96062630D02*
X162117370Y-100000000D01*
X158180000Y-94985000D02*
X158180000Y-96062630D01*
X162117370Y-100000000D02*
X165750000Y-100000000D01*
X165750000Y-100000000D02*
X177250000Y-100000000D01*
X177250000Y-100000000D02*
X186000000Y-108750000D01*
X189500000Y-108750000D02*
X190000000Y-108250000D01*
X186000000Y-108750000D02*
X189500000Y-108750000D01*
X200000000Y-69000000D02*
X201250000Y-69000000D01*
X197250000Y-71750000D02*
X200000000Y-69000000D01*
X197250000Y-79750000D02*
X197250000Y-71750000D01*
X190000000Y-105250000D02*
X200000000Y-95250000D01*
X190000000Y-108250000D02*
X190000000Y-105250000D01*
X200000000Y-95250000D02*
X200000000Y-82500000D01*
X200000000Y-82500000D02*
X197250000Y-79750000D01*
X206500000Y-71000000D02*
X206500000Y-77000000D01*
X207000000Y-70500000D02*
X206500000Y-71000000D01*
D23*
X130700000Y-71330000D02*
X126140000Y-71330000D01*
X136590000Y-65440000D02*
X130700000Y-71330000D01*
D24*
X159050000Y-81550000D02*
X154250000Y-86350000D01*
X154250000Y-86350000D02*
X143000000Y-86350000D01*
X171000000Y-149000000D02*
X171000000Y-155000000D01*
X166250000Y-144250000D02*
X171000000Y-149000000D01*
X119500000Y-144250000D02*
X166250000Y-144250000D01*
X114000000Y-135500000D02*
X114000000Y-138750000D01*
X114000000Y-138750000D02*
X119500000Y-144250000D01*
X134540000Y-93630000D02*
X134540000Y-92020000D01*
X139690000Y-96860000D02*
X137770000Y-96860000D01*
X137770000Y-96860000D02*
X134540000Y-93630000D01*
X130930000Y-92020000D02*
X130340000Y-91430000D01*
X134540000Y-92020000D02*
X130930000Y-92020000D01*
X139690000Y-96860000D02*
X139690000Y-93060000D01*
X139690000Y-93060000D02*
X140600000Y-92150000D01*
D23*
X124750000Y-97020000D02*
X124750000Y-121750000D01*
X130340000Y-91430000D02*
X124750000Y-97020000D01*
D24*
X116500000Y-90000000D02*
X133250000Y-90000000D01*
X133250000Y-90000000D02*
X134100000Y-90850000D01*
X134100000Y-90850000D02*
X136750000Y-90850000D01*
X140200000Y-98850000D02*
X130000000Y-98850000D01*
X130000000Y-98850000D02*
X129950000Y-98900000D01*
X137800000Y-105500000D02*
X142550000Y-100750000D01*
X137800000Y-109799978D02*
X137800000Y-105500000D01*
X143550000Y-90600000D02*
X140150000Y-87200000D01*
X129700000Y-87200000D02*
X127000000Y-84500000D01*
X140150000Y-87200000D02*
X129700000Y-87200000D01*
G04 #@! TA.AperFunction,Conductor*
G36*
X221416621Y-60045502D02*
G01*
X221463114Y-60099158D01*
X221474500Y-60151500D01*
X221474500Y-159848500D01*
X221454498Y-159916621D01*
X221400842Y-159963114D01*
X221348500Y-159974500D01*
X111651500Y-159974500D01*
X111583379Y-159954498D01*
X111536886Y-159900842D01*
X111525500Y-159848500D01*
X111525500Y-157124335D01*
X112999500Y-157124335D01*
X113040429Y-157369614D01*
X113040430Y-157369616D01*
X113121170Y-157604806D01*
X113239527Y-157823510D01*
X113392262Y-158019744D01*
X113575217Y-158188166D01*
X113783389Y-158324171D01*
X113783391Y-158324172D01*
X113783393Y-158324173D01*
X114011119Y-158424063D01*
X114252179Y-158485108D01*
X114437933Y-158500500D01*
X114440547Y-158500500D01*
X114559453Y-158500500D01*
X114562067Y-158500500D01*
X114747821Y-158485108D01*
X114988881Y-158424063D01*
X115216607Y-158324173D01*
X115424785Y-158188164D01*
X115607738Y-158019744D01*
X115760474Y-157823509D01*
X115878828Y-157604810D01*
X115959571Y-157369614D01*
X116000500Y-157124335D01*
X216999500Y-157124335D01*
X217040429Y-157369614D01*
X217040430Y-157369616D01*
X217121170Y-157604806D01*
X217239527Y-157823510D01*
X217392262Y-158019744D01*
X217575217Y-158188166D01*
X217783389Y-158324171D01*
X217783391Y-158324172D01*
X217783393Y-158324173D01*
X218011119Y-158424063D01*
X218252179Y-158485108D01*
X218437933Y-158500500D01*
X218440547Y-158500500D01*
X218559453Y-158500500D01*
X218562067Y-158500500D01*
X218747821Y-158485108D01*
X218988881Y-158424063D01*
X219216607Y-158324173D01*
X219424785Y-158188164D01*
X219607738Y-158019744D01*
X219760474Y-157823509D01*
X219878828Y-157604810D01*
X219959571Y-157369614D01*
X220000500Y-157124335D01*
X220000500Y-156875665D01*
X219959571Y-156630386D01*
X219878828Y-156395190D01*
X219760474Y-156176491D01*
X219607738Y-155980256D01*
X219517626Y-155897302D01*
X219424782Y-155811833D01*
X219216610Y-155675828D01*
X219008530Y-155584556D01*
X218988881Y-155575937D01*
X218988879Y-155575936D01*
X218988876Y-155575935D01*
X218747826Y-155514893D01*
X218747824Y-155514892D01*
X218747821Y-155514892D01*
X218616374Y-155504000D01*
X218564665Y-155499715D01*
X218564658Y-155499714D01*
X218562067Y-155499500D01*
X218437933Y-155499500D01*
X218435342Y-155499714D01*
X218435334Y-155499715D01*
X218359028Y-155506038D01*
X218252179Y-155514892D01*
X218252176Y-155514892D01*
X218252173Y-155514893D01*
X218011123Y-155575935D01*
X217783389Y-155675828D01*
X217575217Y-155811833D01*
X217392262Y-155980255D01*
X217239527Y-156176489D01*
X217121170Y-156395193D01*
X217048226Y-156607674D01*
X217040429Y-156630386D01*
X216999500Y-156875665D01*
X216999500Y-157124335D01*
X116000500Y-157124335D01*
X116000500Y-156875665D01*
X115959571Y-156630386D01*
X115878828Y-156395190D01*
X115760474Y-156176491D01*
X115607738Y-155980256D01*
X115517626Y-155897302D01*
X115424782Y-155811833D01*
X115216610Y-155675828D01*
X115008530Y-155584556D01*
X114988881Y-155575937D01*
X114988879Y-155575936D01*
X114988876Y-155575935D01*
X114747826Y-155514893D01*
X114747824Y-155514892D01*
X114747821Y-155514892D01*
X114616374Y-155504000D01*
X114564665Y-155499715D01*
X114564658Y-155499714D01*
X114562067Y-155499500D01*
X114437933Y-155499500D01*
X114435342Y-155499714D01*
X114435334Y-155499715D01*
X114359028Y-155506038D01*
X114252179Y-155514892D01*
X114252176Y-155514892D01*
X114252173Y-155514893D01*
X114011123Y-155575935D01*
X113783389Y-155675828D01*
X113575217Y-155811833D01*
X113392262Y-155980255D01*
X113239527Y-156176489D01*
X113121170Y-156395193D01*
X113048226Y-156607674D01*
X113040429Y-156630386D01*
X112999500Y-156875665D01*
X112999500Y-157124335D01*
X111525500Y-157124335D01*
X111525500Y-155483566D01*
X129485500Y-155483566D01*
X129485784Y-155486544D01*
X129485785Y-155486557D01*
X129500798Y-155643779D01*
X129561301Y-155849836D01*
X129645439Y-156013040D01*
X129659707Y-156040716D01*
X129792459Y-156209524D01*
X129954759Y-156350157D01*
X130140741Y-156457534D01*
X130343683Y-156527773D01*
X130440261Y-156541659D01*
X130556249Y-156558336D01*
X130556250Y-156558335D01*
X130556251Y-156558336D01*
X130770761Y-156548117D01*
X130979461Y-156497487D01*
X131174807Y-156408275D01*
X131349741Y-156283706D01*
X131497937Y-156128282D01*
X131542120Y-156059531D01*
X131595775Y-156013040D01*
X131666049Y-156002937D01*
X131730630Y-156032430D01*
X131769013Y-156092156D01*
X131773465Y-156114848D01*
X131782606Y-156204327D01*
X131838340Y-156372522D01*
X131931367Y-156523342D01*
X132056657Y-156648632D01*
X132207477Y-156741659D01*
X132375672Y-156797393D01*
X132476307Y-156807674D01*
X132482697Y-156808000D01*
X132896000Y-156808000D01*
X132896000Y-155744224D01*
X132993369Y-155784556D01*
X133110677Y-155800000D01*
X133189323Y-155800000D01*
X133306631Y-155784556D01*
X133404000Y-155744224D01*
X133404000Y-156808000D01*
X133817303Y-156808000D01*
X133823692Y-156807674D01*
X133924327Y-156797393D01*
X134092522Y-156741659D01*
X134243342Y-156648632D01*
X134368632Y-156523342D01*
X134461659Y-156372522D01*
X134517393Y-156204327D01*
X134527674Y-156103692D01*
X134528000Y-156097302D01*
X134528000Y-155483566D01*
X137635500Y-155483566D01*
X137635784Y-155486544D01*
X137635785Y-155486557D01*
X137650798Y-155643779D01*
X137711301Y-155849836D01*
X137795439Y-156013040D01*
X137809707Y-156040716D01*
X137942459Y-156209524D01*
X138104759Y-156350157D01*
X138290741Y-156457534D01*
X138493683Y-156527773D01*
X138590261Y-156541659D01*
X138706249Y-156558336D01*
X138706250Y-156558335D01*
X138706251Y-156558336D01*
X138920761Y-156548117D01*
X139129461Y-156497487D01*
X139324807Y-156408275D01*
X139499741Y-156283706D01*
X139647937Y-156128282D01*
X139692120Y-156059531D01*
X139745775Y-156013040D01*
X139816049Y-156002937D01*
X139880630Y-156032430D01*
X139919013Y-156092156D01*
X139923465Y-156114848D01*
X139932606Y-156204327D01*
X139988340Y-156372522D01*
X140081367Y-156523342D01*
X140206657Y-156648632D01*
X140357477Y-156741659D01*
X140525672Y-156797393D01*
X140626307Y-156807674D01*
X140632697Y-156808000D01*
X141046000Y-156808000D01*
X141046000Y-155744224D01*
X141143369Y-155784556D01*
X141260677Y-155800000D01*
X141339323Y-155800000D01*
X141456631Y-155784556D01*
X141554000Y-155744224D01*
X141554000Y-156808000D01*
X141967303Y-156808000D01*
X141973692Y-156807674D01*
X142074327Y-156797393D01*
X142242522Y-156741659D01*
X142393342Y-156648632D01*
X142518632Y-156523342D01*
X142611659Y-156372522D01*
X142667393Y-156204327D01*
X142677674Y-156103692D01*
X142678000Y-156097302D01*
X142678000Y-156045222D01*
X150242000Y-156045222D01*
X150242359Y-156051936D01*
X150248505Y-156109093D01*
X150299554Y-156245962D01*
X150387095Y-156362904D01*
X150504037Y-156450445D01*
X150640906Y-156501494D01*
X150698063Y-156507640D01*
X150704777Y-156508000D01*
X151246000Y-156508000D01*
X151246000Y-155561686D01*
X151261955Y-155577641D01*
X151374852Y-155635165D01*
X151468519Y-155650000D01*
X151531481Y-155650000D01*
X151625148Y-155635165D01*
X151738045Y-155577641D01*
X151754000Y-155561686D01*
X151754000Y-156508000D01*
X152295223Y-156508000D01*
X152301936Y-156507640D01*
X152359093Y-156501494D01*
X152495962Y-156450445D01*
X152612904Y-156362904D01*
X152700445Y-156245962D01*
X152751494Y-156109093D01*
X152757640Y-156051936D01*
X152758000Y-156045222D01*
X152758000Y-155504000D01*
X151811686Y-155504000D01*
X151827641Y-155488045D01*
X151885165Y-155375148D01*
X151904986Y-155250000D01*
X153030639Y-155250000D01*
X153050034Y-155446911D01*
X153050034Y-155446913D01*
X153050035Y-155446916D01*
X153107473Y-155636265D01*
X153107474Y-155636267D01*
X153200749Y-155810773D01*
X153326274Y-155963725D01*
X153479226Y-156089250D01*
X153479230Y-156089252D01*
X153653735Y-156182527D01*
X153843084Y-156239965D01*
X154040000Y-156259360D01*
X154236916Y-156239965D01*
X154426265Y-156182527D01*
X154600770Y-156089252D01*
X154600771Y-156089250D01*
X154600773Y-156089250D01*
X154753725Y-155963725D01*
X154879250Y-155810773D01*
X154879252Y-155810770D01*
X154972527Y-155636265D01*
X155029965Y-155446916D01*
X155049360Y-155250000D01*
X155570639Y-155250000D01*
X155590034Y-155446911D01*
X155590034Y-155446913D01*
X155590035Y-155446916D01*
X155647473Y-155636265D01*
X155647474Y-155636267D01*
X155740749Y-155810773D01*
X155866274Y-155963725D01*
X156019226Y-156089250D01*
X156019230Y-156089252D01*
X156193735Y-156182527D01*
X156383084Y-156239965D01*
X156580000Y-156259360D01*
X156776916Y-156239965D01*
X156966265Y-156182527D01*
X157140770Y-156089252D01*
X157140771Y-156089250D01*
X157140773Y-156089250D01*
X157293725Y-155963725D01*
X157419250Y-155810773D01*
X157419252Y-155810770D01*
X157512527Y-155636265D01*
X157569965Y-155446916D01*
X157589360Y-155250000D01*
X158110639Y-155250000D01*
X158130034Y-155446911D01*
X158130034Y-155446913D01*
X158130035Y-155446916D01*
X158187473Y-155636265D01*
X158187474Y-155636267D01*
X158280749Y-155810773D01*
X158406274Y-155963725D01*
X158559226Y-156089250D01*
X158559230Y-156089252D01*
X158733735Y-156182527D01*
X158923084Y-156239965D01*
X159120000Y-156259360D01*
X159316916Y-156239965D01*
X159506265Y-156182527D01*
X159680770Y-156089252D01*
X159680771Y-156089250D01*
X159680773Y-156089250D01*
X159833725Y-155963725D01*
X159959250Y-155810773D01*
X159959252Y-155810770D01*
X160052527Y-155636265D01*
X160109965Y-155446916D01*
X160126054Y-155283566D01*
X164795500Y-155283566D01*
X164795784Y-155286544D01*
X164795785Y-155286557D01*
X164810798Y-155443779D01*
X164871301Y-155649836D01*
X164950231Y-155802937D01*
X164969707Y-155840716D01*
X165102459Y-156009524D01*
X165264759Y-156150157D01*
X165450741Y-156257534D01*
X165653683Y-156327773D01*
X165759966Y-156343054D01*
X165866249Y-156358336D01*
X165866250Y-156358335D01*
X165866251Y-156358336D01*
X166080761Y-156348117D01*
X166289461Y-156297487D01*
X166484807Y-156208275D01*
X166659741Y-156083706D01*
X166807937Y-155928282D01*
X166924042Y-155747620D01*
X166933459Y-155724099D01*
X167003857Y-155548251D01*
X167003856Y-155548251D01*
X167003858Y-155548249D01*
X167044500Y-155337377D01*
X167044500Y-154716434D01*
X167039361Y-154662622D01*
X167335499Y-154662622D01*
X167335500Y-154996000D01*
X167335500Y-155283566D01*
X167335784Y-155286544D01*
X167335785Y-155286557D01*
X167350798Y-155443779D01*
X167411301Y-155649836D01*
X167490231Y-155802937D01*
X167509707Y-155840716D01*
X167642459Y-156009524D01*
X167804759Y-156150157D01*
X167990741Y-156257534D01*
X168193683Y-156327773D01*
X168299967Y-156343054D01*
X168406249Y-156358336D01*
X168406250Y-156358335D01*
X168406251Y-156358336D01*
X168620761Y-156348117D01*
X168829461Y-156297487D01*
X169024807Y-156208275D01*
X169199741Y-156083706D01*
X169347937Y-155928282D01*
X169464042Y-155747620D01*
X169473459Y-155724099D01*
X169543857Y-155548251D01*
X169543856Y-155548251D01*
X169543858Y-155548249D01*
X169584500Y-155337377D01*
X169584500Y-154716434D01*
X169569201Y-154556219D01*
X169549033Y-154487534D01*
X169508698Y-154350163D01*
X169426117Y-154189979D01*
X169410293Y-154159284D01*
X169277541Y-153990476D01*
X169176024Y-153902511D01*
X169115240Y-153849842D01*
X168929259Y-153742466D01*
X168814241Y-153702658D01*
X168726317Y-153672227D01*
X168726316Y-153672226D01*
X168726314Y-153672226D01*
X168513750Y-153641663D01*
X168299239Y-153651882D01*
X168090543Y-153702511D01*
X167895191Y-153791725D01*
X167720259Y-153916293D01*
X167572062Y-154071719D01*
X167455955Y-154252383D01*
X167376142Y-154451748D01*
X167335499Y-154662622D01*
X167039361Y-154662622D01*
X167029201Y-154556219D01*
X167009033Y-154487534D01*
X166968698Y-154350163D01*
X166886117Y-154189979D01*
X166870293Y-154159284D01*
X166737541Y-153990476D01*
X166636024Y-153902511D01*
X166575240Y-153849842D01*
X166389259Y-153742466D01*
X166274241Y-153702658D01*
X166186317Y-153672227D01*
X166186316Y-153672226D01*
X166186314Y-153672226D01*
X165973750Y-153641663D01*
X165759239Y-153651882D01*
X165550543Y-153702511D01*
X165355191Y-153791725D01*
X165180259Y-153916293D01*
X165032062Y-154071719D01*
X164915955Y-154252383D01*
X164836142Y-154451748D01*
X164804593Y-154615444D01*
X164795500Y-154662623D01*
X164795500Y-155283566D01*
X160126054Y-155283566D01*
X160129360Y-155250000D01*
X160109965Y-155053084D01*
X160052527Y-154863735D01*
X159959252Y-154689230D01*
X159959250Y-154689226D01*
X159833725Y-154536274D01*
X159680773Y-154410749D01*
X159506267Y-154317474D01*
X159506266Y-154317473D01*
X159506265Y-154317473D01*
X159316916Y-154260035D01*
X159316913Y-154260034D01*
X159316911Y-154260034D01*
X159120000Y-154240639D01*
X158923088Y-154260034D01*
X158923085Y-154260034D01*
X158923084Y-154260035D01*
X158733735Y-154317473D01*
X158733732Y-154317474D01*
X158559226Y-154410749D01*
X158406274Y-154536274D01*
X158280749Y-154689226D01*
X158187474Y-154863732D01*
X158130034Y-155053088D01*
X158110639Y-155250000D01*
X157589360Y-155250000D01*
X157569965Y-155053084D01*
X157512527Y-154863735D01*
X157419252Y-154689230D01*
X157419250Y-154689226D01*
X157293725Y-154536274D01*
X157140773Y-154410749D01*
X156966267Y-154317474D01*
X156966266Y-154317473D01*
X156966265Y-154317473D01*
X156776916Y-154260035D01*
X156776913Y-154260034D01*
X156776911Y-154260034D01*
X156580000Y-154240639D01*
X156383088Y-154260034D01*
X156383085Y-154260034D01*
X156383084Y-154260035D01*
X156193735Y-154317473D01*
X156193732Y-154317474D01*
X156019226Y-154410749D01*
X155866274Y-154536274D01*
X155740749Y-154689226D01*
X155647474Y-154863732D01*
X155590034Y-155053088D01*
X155570639Y-155250000D01*
X155049360Y-155250000D01*
X155029965Y-155053084D01*
X154972527Y-154863735D01*
X154879252Y-154689230D01*
X154879250Y-154689226D01*
X154753725Y-154536274D01*
X154600773Y-154410749D01*
X154426267Y-154317474D01*
X154426266Y-154317473D01*
X154426265Y-154317473D01*
X154236916Y-154260035D01*
X154236913Y-154260034D01*
X154236911Y-154260034D01*
X154040000Y-154240639D01*
X153843088Y-154260034D01*
X153843085Y-154260034D01*
X153843084Y-154260035D01*
X153653735Y-154317473D01*
X153653732Y-154317474D01*
X153479226Y-154410749D01*
X153326274Y-154536274D01*
X153200749Y-154689226D01*
X153107474Y-154863732D01*
X153050034Y-155053088D01*
X153030639Y-155250000D01*
X151904986Y-155250000D01*
X151885165Y-155124852D01*
X151827641Y-155011955D01*
X151811686Y-154996000D01*
X152758000Y-154996000D01*
X152758000Y-154454777D01*
X152757640Y-154448063D01*
X152751494Y-154390906D01*
X152700445Y-154254037D01*
X152612904Y-154137095D01*
X152495962Y-154049554D01*
X152359093Y-153998505D01*
X152301936Y-153992359D01*
X152295223Y-153992000D01*
X151754000Y-153992000D01*
X151754000Y-154938314D01*
X151738045Y-154922359D01*
X151625148Y-154864835D01*
X151531481Y-154850000D01*
X151468519Y-154850000D01*
X151374852Y-154864835D01*
X151261955Y-154922359D01*
X151246000Y-154938314D01*
X151246000Y-153992000D01*
X150704777Y-153992000D01*
X150698063Y-153992359D01*
X150640906Y-153998505D01*
X150504037Y-154049554D01*
X150387095Y-154137095D01*
X150299554Y-154254037D01*
X150248505Y-154390906D01*
X150242359Y-154448063D01*
X150242000Y-154454777D01*
X150242000Y-154996000D01*
X151188314Y-154996000D01*
X151172359Y-155011955D01*
X151114835Y-155124852D01*
X151095014Y-155250000D01*
X151114835Y-155375148D01*
X151172359Y-155488045D01*
X151188314Y-155504000D01*
X150242000Y-155504000D01*
X150242000Y-156045222D01*
X142678000Y-156045222D01*
X142678000Y-155454000D01*
X141844225Y-155454000D01*
X141884556Y-155356631D01*
X141905177Y-155200000D01*
X141884556Y-155043369D01*
X141844225Y-154946000D01*
X142678000Y-154946000D01*
X142678000Y-154302697D01*
X142677674Y-154296307D01*
X142667393Y-154195672D01*
X142611659Y-154027477D01*
X142518632Y-153876657D01*
X142393342Y-153751367D01*
X142242522Y-153658340D01*
X142074327Y-153602606D01*
X141973692Y-153592325D01*
X141967303Y-153592000D01*
X141554000Y-153592000D01*
X141554000Y-154655775D01*
X141456631Y-154615444D01*
X141339323Y-154600000D01*
X141260677Y-154600000D01*
X141143369Y-154615444D01*
X141046000Y-154655775D01*
X141046000Y-153592000D01*
X140632697Y-153592000D01*
X140626307Y-153592325D01*
X140525672Y-153602606D01*
X140357477Y-153658340D01*
X140206657Y-153751367D01*
X140081367Y-153876657D01*
X139988340Y-154027477D01*
X139932605Y-154195676D01*
X139923935Y-154280537D01*
X139897113Y-154346272D01*
X139839009Y-154387070D01*
X139768072Y-154389979D01*
X139706824Y-154354074D01*
X139699555Y-154345630D01*
X139577541Y-154190476D01*
X139576968Y-154189979D01*
X139415240Y-154049842D01*
X139229259Y-153942466D01*
X139123120Y-153905731D01*
X139026317Y-153872227D01*
X139026316Y-153872226D01*
X139026314Y-153872226D01*
X138813750Y-153841663D01*
X138599239Y-153851882D01*
X138390543Y-153902511D01*
X138195191Y-153991725D01*
X138020259Y-154116293D01*
X137872062Y-154271719D01*
X137755955Y-154452383D01*
X137676142Y-154651748D01*
X137639211Y-154843369D01*
X137635500Y-154862623D01*
X137635500Y-155483566D01*
X134528000Y-155483566D01*
X134528000Y-155454000D01*
X133694225Y-155454000D01*
X133734556Y-155356631D01*
X133755177Y-155200000D01*
X133734556Y-155043369D01*
X133694225Y-154946000D01*
X134528000Y-154946000D01*
X134528000Y-154302697D01*
X134527674Y-154296307D01*
X134517393Y-154195672D01*
X134461659Y-154027477D01*
X134368632Y-153876657D01*
X134243342Y-153751367D01*
X134092522Y-153658340D01*
X133924327Y-153602606D01*
X133823692Y-153592325D01*
X133817303Y-153592000D01*
X133404000Y-153592000D01*
X133404000Y-154655775D01*
X133306631Y-154615444D01*
X133189323Y-154600000D01*
X133110677Y-154600000D01*
X132993369Y-154615444D01*
X132896000Y-154655775D01*
X132896000Y-153592000D01*
X132482697Y-153592000D01*
X132476307Y-153592325D01*
X132375672Y-153602606D01*
X132207477Y-153658340D01*
X132056657Y-153751367D01*
X131931367Y-153876657D01*
X131838340Y-154027477D01*
X131782605Y-154195676D01*
X131773935Y-154280537D01*
X131747113Y-154346272D01*
X131689009Y-154387070D01*
X131618072Y-154389979D01*
X131556824Y-154354074D01*
X131549555Y-154345630D01*
X131427541Y-154190476D01*
X131426968Y-154189979D01*
X131265240Y-154049842D01*
X131079259Y-153942466D01*
X130973120Y-153905731D01*
X130876317Y-153872227D01*
X130876316Y-153872226D01*
X130876314Y-153872226D01*
X130663750Y-153841663D01*
X130449239Y-153851882D01*
X130240543Y-153902511D01*
X130045191Y-153991725D01*
X129870259Y-154116293D01*
X129722062Y-154271719D01*
X129605955Y-154452383D01*
X129526142Y-154651748D01*
X129489211Y-154843369D01*
X129485500Y-154862623D01*
X129485500Y-155483566D01*
X111525500Y-155483566D01*
X111525500Y-146500004D01*
X131090693Y-146500004D01*
X131109850Y-146657784D01*
X131166212Y-146806398D01*
X131196309Y-146850000D01*
X131256502Y-146937205D01*
X131375471Y-147042603D01*
X131516207Y-147116467D01*
X131670529Y-147154504D01*
X131670531Y-147154504D01*
X131829469Y-147154504D01*
X131829471Y-147154504D01*
X131983793Y-147116467D01*
X132124529Y-147042603D01*
X132243498Y-146937205D01*
X132333787Y-146806399D01*
X132390149Y-146657786D01*
X132409307Y-146500004D01*
X132390149Y-146342222D01*
X132333787Y-146193609D01*
X132243498Y-146062803D01*
X132124529Y-145957405D01*
X131983793Y-145883541D01*
X131829471Y-145845504D01*
X131670529Y-145845504D01*
X131516207Y-145883541D01*
X131516206Y-145883541D01*
X131516204Y-145883542D01*
X131375472Y-145957404D01*
X131256501Y-146062803D01*
X131166212Y-146193609D01*
X131109850Y-146342223D01*
X131090693Y-146500004D01*
X111525500Y-146500004D01*
X111525500Y-135500000D01*
X113340693Y-135500000D01*
X113359850Y-135657780D01*
X113416211Y-135806393D01*
X113473196Y-135888948D01*
X113495432Y-135956373D01*
X113495500Y-135960525D01*
X113495500Y-138682215D01*
X113492621Y-138708995D01*
X113491611Y-138713640D01*
X113492586Y-138727273D01*
X113495179Y-138763528D01*
X113495500Y-138772516D01*
X113495500Y-138786086D01*
X113497429Y-138799508D01*
X113498390Y-138808441D01*
X113501960Y-138858342D01*
X113503621Y-138862795D01*
X113510282Y-138888895D01*
X113510957Y-138893595D01*
X113531736Y-138939095D01*
X113535170Y-138947385D01*
X113546769Y-138978482D01*
X113552657Y-138994268D01*
X113555503Y-138998069D01*
X113569244Y-139021227D01*
X113571220Y-139025555D01*
X113571223Y-139025558D01*
X113603976Y-139063357D01*
X113609608Y-139070346D01*
X113617749Y-139081220D01*
X113627335Y-139090806D01*
X113633464Y-139097388D01*
X113666225Y-139135196D01*
X113670223Y-139137765D01*
X113691197Y-139154668D01*
X119095332Y-144558803D01*
X119112230Y-144579770D01*
X119114804Y-144583775D01*
X119152619Y-144616542D01*
X119159173Y-144622644D01*
X119168779Y-144632250D01*
X119179645Y-144640384D01*
X119186628Y-144646011D01*
X119224442Y-144678777D01*
X119228758Y-144680748D01*
X119251924Y-144694492D01*
X119255733Y-144697343D01*
X119302605Y-144714825D01*
X119310892Y-144718257D01*
X119356404Y-144739042D01*
X119361099Y-144739716D01*
X119387213Y-144746382D01*
X119391658Y-144748040D01*
X119441560Y-144751608D01*
X119450494Y-144752569D01*
X119456921Y-144753493D01*
X119463916Y-144754500D01*
X119463917Y-144754500D01*
X119477473Y-144754500D01*
X119486461Y-144754821D01*
X119489458Y-144755035D01*
X119536360Y-144758390D01*
X119541003Y-144757379D01*
X119567786Y-144754500D01*
X165988839Y-144754500D01*
X166056960Y-144774502D01*
X166077934Y-144791405D01*
X170458595Y-149172066D01*
X170492621Y-149234378D01*
X170495500Y-149261161D01*
X170495500Y-153519500D01*
X170475498Y-153587621D01*
X170421842Y-153634114D01*
X170369503Y-153645500D01*
X170335117Y-153645500D01*
X170335098Y-153645500D01*
X170331746Y-153645501D01*
X170328404Y-153645860D01*
X170328389Y-153645861D01*
X170271661Y-153651959D01*
X170135731Y-153702658D01*
X170019595Y-153789595D01*
X169932658Y-153905731D01*
X169881959Y-154041660D01*
X169875859Y-154098396D01*
X169875857Y-154098415D01*
X169875500Y-154101745D01*
X169875500Y-154105111D01*
X169875500Y-154105112D01*
X169875500Y-155894883D01*
X169875500Y-155894901D01*
X169875501Y-155898254D01*
X169875860Y-155901596D01*
X169875861Y-155901610D01*
X169881959Y-155958338D01*
X169881959Y-155958340D01*
X169881960Y-155958342D01*
X169890134Y-155980256D01*
X169932658Y-156094268D01*
X170019595Y-156210404D01*
X170135731Y-156297341D01*
X170135732Y-156297341D01*
X170135733Y-156297342D01*
X170271658Y-156348040D01*
X170317076Y-156352923D01*
X170328377Y-156354138D01*
X170331745Y-156354500D01*
X171668254Y-156354499D01*
X171728342Y-156348040D01*
X171864267Y-156297342D01*
X171980404Y-156210404D01*
X172067342Y-156094267D01*
X172118040Y-155958342D01*
X172124500Y-155898255D01*
X172124500Y-155283566D01*
X175675500Y-155283566D01*
X175675784Y-155286544D01*
X175675785Y-155286557D01*
X175690798Y-155443779D01*
X175751301Y-155649836D01*
X175830231Y-155802937D01*
X175849707Y-155840716D01*
X175982459Y-156009524D01*
X176144759Y-156150157D01*
X176330741Y-156257534D01*
X176533683Y-156327773D01*
X176639966Y-156343054D01*
X176746249Y-156358336D01*
X176746250Y-156358335D01*
X176746251Y-156358336D01*
X176960761Y-156348117D01*
X177169461Y-156297487D01*
X177364807Y-156208275D01*
X177539741Y-156083706D01*
X177687937Y-155928282D01*
X177804042Y-155747620D01*
X177813459Y-155724099D01*
X177883857Y-155548251D01*
X177883856Y-155548251D01*
X177883858Y-155548249D01*
X177924500Y-155337377D01*
X177924500Y-154716434D01*
X177919361Y-154662622D01*
X178215499Y-154662622D01*
X178215500Y-154996000D01*
X178215500Y-155283566D01*
X178215784Y-155286544D01*
X178215785Y-155286557D01*
X178230798Y-155443779D01*
X178291301Y-155649836D01*
X178370231Y-155802937D01*
X178389707Y-155840716D01*
X178522459Y-156009524D01*
X178684759Y-156150157D01*
X178870741Y-156257534D01*
X179073683Y-156327773D01*
X179179967Y-156343054D01*
X179286249Y-156358336D01*
X179286250Y-156358335D01*
X179286251Y-156358336D01*
X179500761Y-156348117D01*
X179709461Y-156297487D01*
X179904807Y-156208275D01*
X180079741Y-156083706D01*
X180227937Y-155928282D01*
X180344042Y-155747620D01*
X180353459Y-155724099D01*
X180423857Y-155548251D01*
X180423856Y-155548251D01*
X180423858Y-155548249D01*
X180464500Y-155337377D01*
X180464500Y-155283566D01*
X180755500Y-155283566D01*
X180755784Y-155286544D01*
X180755785Y-155286557D01*
X180770798Y-155443779D01*
X180831301Y-155649836D01*
X180910231Y-155802937D01*
X180929707Y-155840716D01*
X181062459Y-156009524D01*
X181224759Y-156150157D01*
X181410741Y-156257534D01*
X181613683Y-156327773D01*
X181719967Y-156343054D01*
X181826249Y-156358336D01*
X181826250Y-156358335D01*
X181826251Y-156358336D01*
X182040761Y-156348117D01*
X182249461Y-156297487D01*
X182444807Y-156208275D01*
X182619741Y-156083706D01*
X182767937Y-155928282D01*
X182884042Y-155747620D01*
X182893459Y-155724099D01*
X182963857Y-155548251D01*
X182963856Y-155548251D01*
X182963858Y-155548249D01*
X183004500Y-155337377D01*
X183004500Y-155283566D01*
X183295500Y-155283566D01*
X183295784Y-155286544D01*
X183295785Y-155286557D01*
X183310798Y-155443779D01*
X183371301Y-155649836D01*
X183450231Y-155802937D01*
X183469707Y-155840716D01*
X183602459Y-156009524D01*
X183764759Y-156150157D01*
X183950741Y-156257534D01*
X184153683Y-156327773D01*
X184259966Y-156343054D01*
X184366249Y-156358336D01*
X184366250Y-156358335D01*
X184366251Y-156358336D01*
X184580761Y-156348117D01*
X184789461Y-156297487D01*
X184984807Y-156208275D01*
X185159741Y-156083706D01*
X185307937Y-155928282D01*
X185424042Y-155747620D01*
X185433459Y-155724099D01*
X185503857Y-155548251D01*
X185503856Y-155548251D01*
X185503858Y-155548249D01*
X185544500Y-155337377D01*
X185544500Y-155283566D01*
X185835500Y-155283566D01*
X185835784Y-155286544D01*
X185835785Y-155286557D01*
X185850798Y-155443779D01*
X185911301Y-155649836D01*
X185990231Y-155802937D01*
X186009707Y-155840716D01*
X186142459Y-156009524D01*
X186304759Y-156150157D01*
X186490741Y-156257534D01*
X186693683Y-156327773D01*
X186799967Y-156343054D01*
X186906249Y-156358336D01*
X186906250Y-156358335D01*
X186906251Y-156358336D01*
X187120761Y-156348117D01*
X187329461Y-156297487D01*
X187524807Y-156208275D01*
X187699741Y-156083706D01*
X187847937Y-155928282D01*
X187892120Y-155859531D01*
X187945775Y-155813040D01*
X188016049Y-155802937D01*
X188080630Y-155832430D01*
X188119013Y-155892156D01*
X188123465Y-155914848D01*
X188132606Y-156004327D01*
X188188340Y-156172522D01*
X188281367Y-156323342D01*
X188406657Y-156448632D01*
X188557477Y-156541659D01*
X188725672Y-156597393D01*
X188826307Y-156607674D01*
X188832697Y-156608000D01*
X189246000Y-156608000D01*
X189246000Y-155544224D01*
X189343369Y-155584556D01*
X189460677Y-155600000D01*
X189539323Y-155600000D01*
X189656631Y-155584556D01*
X189754000Y-155544224D01*
X189754000Y-156608000D01*
X190167303Y-156608000D01*
X190173692Y-156607674D01*
X190274327Y-156597393D01*
X190442522Y-156541659D01*
X190593342Y-156448632D01*
X190718632Y-156323342D01*
X190811659Y-156172522D01*
X190867393Y-156004327D01*
X190877674Y-155903692D01*
X190878000Y-155897302D01*
X190878000Y-155283566D01*
X196675500Y-155283566D01*
X196675784Y-155286544D01*
X196675785Y-155286557D01*
X196690798Y-155443779D01*
X196751301Y-155649836D01*
X196830231Y-155802937D01*
X196849707Y-155840716D01*
X196982459Y-156009524D01*
X197144759Y-156150157D01*
X197330741Y-156257534D01*
X197533683Y-156327773D01*
X197639967Y-156343054D01*
X197746249Y-156358336D01*
X197746250Y-156358335D01*
X197746251Y-156358336D01*
X197960761Y-156348117D01*
X198169461Y-156297487D01*
X198364807Y-156208275D01*
X198539741Y-156083706D01*
X198687937Y-155928282D01*
X198804042Y-155747620D01*
X198813459Y-155724099D01*
X198883857Y-155548251D01*
X198883856Y-155548251D01*
X198883858Y-155548249D01*
X198924500Y-155337377D01*
X198924500Y-155283566D01*
X199215500Y-155283566D01*
X199215784Y-155286544D01*
X199215785Y-155286557D01*
X199230798Y-155443779D01*
X199291301Y-155649836D01*
X199370231Y-155802937D01*
X199389707Y-155840716D01*
X199522459Y-156009524D01*
X199684759Y-156150157D01*
X199870741Y-156257534D01*
X200073683Y-156327773D01*
X200179966Y-156343054D01*
X200286249Y-156358336D01*
X200286250Y-156358335D01*
X200286251Y-156358336D01*
X200500761Y-156348117D01*
X200709461Y-156297487D01*
X200904807Y-156208275D01*
X201079741Y-156083706D01*
X201227937Y-155928282D01*
X201344042Y-155747620D01*
X201353459Y-155724099D01*
X201423857Y-155548251D01*
X201423856Y-155548251D01*
X201423858Y-155548249D01*
X201464500Y-155337377D01*
X201464500Y-155283566D01*
X201755500Y-155283566D01*
X201755784Y-155286544D01*
X201755785Y-155286557D01*
X201770798Y-155443779D01*
X201831301Y-155649836D01*
X201910231Y-155802937D01*
X201929707Y-155840716D01*
X202062459Y-156009524D01*
X202224759Y-156150157D01*
X202410741Y-156257534D01*
X202613683Y-156327773D01*
X202719966Y-156343054D01*
X202826249Y-156358336D01*
X202826250Y-156358335D01*
X202826251Y-156358336D01*
X203040761Y-156348117D01*
X203249461Y-156297487D01*
X203444807Y-156208275D01*
X203619741Y-156083706D01*
X203767937Y-155928282D01*
X203884042Y-155747620D01*
X203893459Y-155724099D01*
X203963857Y-155548251D01*
X203963856Y-155548251D01*
X203963858Y-155548249D01*
X204004500Y-155337377D01*
X204004500Y-154716434D01*
X203999361Y-154662622D01*
X204295499Y-154662622D01*
X204295500Y-154996000D01*
X204295500Y-155283566D01*
X204295784Y-155286544D01*
X204295785Y-155286557D01*
X204310798Y-155443779D01*
X204371301Y-155649836D01*
X204450231Y-155802937D01*
X204469707Y-155840716D01*
X204602459Y-156009524D01*
X204764759Y-156150157D01*
X204950741Y-156257534D01*
X205153683Y-156327773D01*
X205259967Y-156343054D01*
X205366249Y-156358336D01*
X205366250Y-156358335D01*
X205366251Y-156358336D01*
X205580761Y-156348117D01*
X205789461Y-156297487D01*
X205984807Y-156208275D01*
X206159741Y-156083706D01*
X206307937Y-155928282D01*
X206424042Y-155747620D01*
X206433459Y-155724099D01*
X206503857Y-155548251D01*
X206503856Y-155548251D01*
X206503858Y-155548249D01*
X206544500Y-155337377D01*
X206544500Y-155283566D01*
X206835500Y-155283566D01*
X206835784Y-155286544D01*
X206835785Y-155286557D01*
X206850798Y-155443779D01*
X206911301Y-155649836D01*
X206990231Y-155802937D01*
X207009707Y-155840716D01*
X207142459Y-156009524D01*
X207304759Y-156150157D01*
X207490741Y-156257534D01*
X207693683Y-156327773D01*
X207799967Y-156343054D01*
X207906249Y-156358336D01*
X207906250Y-156358335D01*
X207906251Y-156358336D01*
X208120761Y-156348117D01*
X208329461Y-156297487D01*
X208524807Y-156208275D01*
X208699741Y-156083706D01*
X208847937Y-155928282D01*
X208892120Y-155859531D01*
X208945775Y-155813040D01*
X209016049Y-155802937D01*
X209080630Y-155832430D01*
X209119013Y-155892156D01*
X209123465Y-155914848D01*
X209132606Y-156004327D01*
X209188340Y-156172522D01*
X209281367Y-156323342D01*
X209406657Y-156448632D01*
X209557477Y-156541659D01*
X209725672Y-156597393D01*
X209826307Y-156607674D01*
X209832697Y-156608000D01*
X210246000Y-156608000D01*
X210246000Y-155544224D01*
X210343369Y-155584556D01*
X210460677Y-155600000D01*
X210539323Y-155600000D01*
X210656631Y-155584556D01*
X210754000Y-155544224D01*
X210754000Y-156608000D01*
X211167303Y-156608000D01*
X211173692Y-156607674D01*
X211274327Y-156597393D01*
X211442522Y-156541659D01*
X211593342Y-156448632D01*
X211718632Y-156323342D01*
X211811659Y-156172522D01*
X211867393Y-156004327D01*
X211877674Y-155903692D01*
X211878000Y-155897302D01*
X211878000Y-155254000D01*
X211044225Y-155254000D01*
X211084556Y-155156631D01*
X211105177Y-155000000D01*
X211084556Y-154843369D01*
X211044225Y-154746000D01*
X211878000Y-154746000D01*
X211878000Y-154102697D01*
X211877674Y-154096307D01*
X211867393Y-153995672D01*
X211811659Y-153827477D01*
X211718632Y-153676657D01*
X211593342Y-153551367D01*
X211442522Y-153458340D01*
X211274327Y-153402606D01*
X211173692Y-153392325D01*
X211167303Y-153392000D01*
X210754000Y-153392000D01*
X210754000Y-154455775D01*
X210656631Y-154415444D01*
X210539323Y-154400000D01*
X210460677Y-154400000D01*
X210343369Y-154415444D01*
X210246000Y-154455775D01*
X210246000Y-153392000D01*
X209832697Y-153392000D01*
X209826307Y-153392325D01*
X209725672Y-153402606D01*
X209557477Y-153458340D01*
X209406657Y-153551367D01*
X209281367Y-153676657D01*
X209188340Y-153827477D01*
X209132605Y-153995676D01*
X209123935Y-154080537D01*
X209097113Y-154146272D01*
X209039009Y-154187070D01*
X208968072Y-154189979D01*
X208906824Y-154154074D01*
X208899555Y-154145630D01*
X208777541Y-153990476D01*
X208676024Y-153902511D01*
X208615240Y-153849842D01*
X208429259Y-153742466D01*
X208314241Y-153702658D01*
X208226317Y-153672227D01*
X208226316Y-153672226D01*
X208226314Y-153672226D01*
X208013750Y-153641663D01*
X207799239Y-153651882D01*
X207590543Y-153702511D01*
X207395191Y-153791725D01*
X207220259Y-153916293D01*
X207072062Y-154071719D01*
X206955955Y-154252383D01*
X206876142Y-154451748D01*
X206844593Y-154615444D01*
X206835500Y-154662623D01*
X206835500Y-155283566D01*
X206544500Y-155283566D01*
X206544500Y-154716434D01*
X206529201Y-154556219D01*
X206509033Y-154487534D01*
X206468698Y-154350163D01*
X206386117Y-154189979D01*
X206370293Y-154159284D01*
X206237541Y-153990476D01*
X206136024Y-153902511D01*
X206075240Y-153849842D01*
X205889259Y-153742466D01*
X205774241Y-153702658D01*
X205686317Y-153672227D01*
X205686316Y-153672226D01*
X205686314Y-153672226D01*
X205473750Y-153641663D01*
X205259239Y-153651882D01*
X205050543Y-153702511D01*
X204855191Y-153791725D01*
X204680259Y-153916293D01*
X204532062Y-154071719D01*
X204415955Y-154252383D01*
X204336142Y-154451748D01*
X204295499Y-154662622D01*
X203999361Y-154662622D01*
X203989201Y-154556219D01*
X203969033Y-154487534D01*
X203928698Y-154350163D01*
X203846117Y-154189979D01*
X203830293Y-154159284D01*
X203697541Y-153990476D01*
X203596024Y-153902511D01*
X203535240Y-153849842D01*
X203349259Y-153742466D01*
X203234241Y-153702658D01*
X203146317Y-153672227D01*
X203146316Y-153672226D01*
X203146314Y-153672226D01*
X202933750Y-153641663D01*
X202719239Y-153651882D01*
X202510543Y-153702511D01*
X202315191Y-153791725D01*
X202140259Y-153916293D01*
X201992062Y-154071719D01*
X201875955Y-154252383D01*
X201796142Y-154451748D01*
X201764593Y-154615444D01*
X201755500Y-154662623D01*
X201755500Y-155283566D01*
X201464500Y-155283566D01*
X201464500Y-154716434D01*
X201449201Y-154556219D01*
X201429033Y-154487534D01*
X201388698Y-154350163D01*
X201306117Y-154189979D01*
X201290293Y-154159284D01*
X201157541Y-153990476D01*
X201056024Y-153902511D01*
X200995240Y-153849842D01*
X200809259Y-153742466D01*
X200694241Y-153702658D01*
X200606317Y-153672227D01*
X200606316Y-153672226D01*
X200606314Y-153672226D01*
X200393750Y-153641663D01*
X200179239Y-153651882D01*
X199970543Y-153702511D01*
X199775191Y-153791725D01*
X199600259Y-153916293D01*
X199452062Y-154071719D01*
X199335955Y-154252383D01*
X199256142Y-154451748D01*
X199224593Y-154615444D01*
X199215500Y-154662623D01*
X199215500Y-155283566D01*
X198924500Y-155283566D01*
X198924500Y-154716434D01*
X198909201Y-154556219D01*
X198889033Y-154487534D01*
X198848698Y-154350163D01*
X198766117Y-154189979D01*
X198750293Y-154159284D01*
X198617541Y-153990476D01*
X198516024Y-153902511D01*
X198455240Y-153849842D01*
X198269259Y-153742466D01*
X198154241Y-153702658D01*
X198066317Y-153672227D01*
X198066316Y-153672226D01*
X198066314Y-153672226D01*
X197853750Y-153641663D01*
X197639239Y-153651882D01*
X197430543Y-153702511D01*
X197235191Y-153791725D01*
X197060259Y-153916293D01*
X196912062Y-154071719D01*
X196795955Y-154252383D01*
X196716142Y-154451748D01*
X196684593Y-154615444D01*
X196675500Y-154662623D01*
X196675500Y-155283566D01*
X190878000Y-155283566D01*
X190878000Y-155254000D01*
X190044225Y-155254000D01*
X190084556Y-155156631D01*
X190105177Y-155000000D01*
X190084556Y-154843369D01*
X190044225Y-154746000D01*
X190878000Y-154746000D01*
X190878000Y-154102697D01*
X190877674Y-154096307D01*
X190867393Y-153995672D01*
X190811659Y-153827477D01*
X190718632Y-153676657D01*
X190593342Y-153551367D01*
X190442522Y-153458340D01*
X190274327Y-153402606D01*
X190173692Y-153392325D01*
X190167303Y-153392000D01*
X189754000Y-153392000D01*
X189754000Y-154455775D01*
X189656631Y-154415444D01*
X189539323Y-154400000D01*
X189460677Y-154400000D01*
X189343369Y-154415444D01*
X189246000Y-154455775D01*
X189246000Y-153392000D01*
X188832697Y-153392000D01*
X188826307Y-153392325D01*
X188725672Y-153402606D01*
X188557477Y-153458340D01*
X188406657Y-153551367D01*
X188281367Y-153676657D01*
X188188340Y-153827477D01*
X188132605Y-153995676D01*
X188123935Y-154080537D01*
X188097113Y-154146272D01*
X188039009Y-154187070D01*
X187968072Y-154189979D01*
X187906824Y-154154074D01*
X187899555Y-154145630D01*
X187777541Y-153990476D01*
X187676024Y-153902511D01*
X187615240Y-153849842D01*
X187429259Y-153742466D01*
X187314241Y-153702658D01*
X187226317Y-153672227D01*
X187226316Y-153672226D01*
X187226314Y-153672226D01*
X187013750Y-153641663D01*
X186799239Y-153651882D01*
X186590543Y-153702511D01*
X186395191Y-153791725D01*
X186220259Y-153916293D01*
X186072062Y-154071719D01*
X185955955Y-154252383D01*
X185876142Y-154451748D01*
X185844593Y-154615444D01*
X185835500Y-154662623D01*
X185835500Y-155283566D01*
X185544500Y-155283566D01*
X185544500Y-154716434D01*
X185529201Y-154556219D01*
X185509033Y-154487534D01*
X185468698Y-154350163D01*
X185386117Y-154189979D01*
X185370293Y-154159284D01*
X185237541Y-153990476D01*
X185136024Y-153902511D01*
X185075240Y-153849842D01*
X184889259Y-153742466D01*
X184774241Y-153702658D01*
X184686317Y-153672227D01*
X184686316Y-153672226D01*
X184686314Y-153672226D01*
X184473750Y-153641663D01*
X184259239Y-153651882D01*
X184050543Y-153702511D01*
X183855191Y-153791725D01*
X183680259Y-153916293D01*
X183532062Y-154071719D01*
X183415955Y-154252383D01*
X183336142Y-154451748D01*
X183304593Y-154615444D01*
X183295500Y-154662623D01*
X183295500Y-155283566D01*
X183004500Y-155283566D01*
X183004500Y-154716434D01*
X182989201Y-154556219D01*
X182969033Y-154487534D01*
X182928698Y-154350163D01*
X182846117Y-154189979D01*
X182830293Y-154159284D01*
X182697541Y-153990476D01*
X182596024Y-153902511D01*
X182535240Y-153849842D01*
X182349259Y-153742466D01*
X182234241Y-153702658D01*
X182146317Y-153672227D01*
X182146316Y-153672226D01*
X182146314Y-153672226D01*
X181933750Y-153641663D01*
X181719239Y-153651882D01*
X181510543Y-153702511D01*
X181315191Y-153791725D01*
X181140259Y-153916293D01*
X180992062Y-154071719D01*
X180875955Y-154252383D01*
X180796142Y-154451748D01*
X180764593Y-154615444D01*
X180755500Y-154662623D01*
X180755500Y-155283566D01*
X180464500Y-155283566D01*
X180464500Y-154716434D01*
X180449201Y-154556219D01*
X180429033Y-154487534D01*
X180388698Y-154350163D01*
X180306117Y-154189979D01*
X180290293Y-154159284D01*
X180157541Y-153990476D01*
X180056024Y-153902511D01*
X179995240Y-153849842D01*
X179809259Y-153742466D01*
X179694241Y-153702658D01*
X179606317Y-153672227D01*
X179606316Y-153672226D01*
X179606314Y-153672226D01*
X179393750Y-153641663D01*
X179179239Y-153651882D01*
X178970543Y-153702511D01*
X178775191Y-153791725D01*
X178600259Y-153916293D01*
X178452062Y-154071719D01*
X178335955Y-154252383D01*
X178256142Y-154451748D01*
X178215499Y-154662622D01*
X177919361Y-154662622D01*
X177909201Y-154556219D01*
X177889033Y-154487534D01*
X177848698Y-154350163D01*
X177766117Y-154189979D01*
X177750293Y-154159284D01*
X177617541Y-153990476D01*
X177516024Y-153902511D01*
X177455240Y-153849842D01*
X177269259Y-153742466D01*
X177154241Y-153702658D01*
X177066317Y-153672227D01*
X177066316Y-153672226D01*
X177066314Y-153672226D01*
X176853750Y-153641663D01*
X176639239Y-153651882D01*
X176430543Y-153702511D01*
X176235191Y-153791725D01*
X176060259Y-153916293D01*
X175912062Y-154071719D01*
X175795955Y-154252383D01*
X175716142Y-154451748D01*
X175684593Y-154615444D01*
X175675500Y-154662623D01*
X175675500Y-155283566D01*
X172124500Y-155283566D01*
X172124499Y-154101746D01*
X172118040Y-154041658D01*
X172067342Y-153905733D01*
X172064932Y-153902513D01*
X171980404Y-153789595D01*
X171864268Y-153702658D01*
X171728339Y-153651959D01*
X171671603Y-153645859D01*
X171671585Y-153645858D01*
X171668255Y-153645500D01*
X171664888Y-153645500D01*
X171630500Y-153645500D01*
X171562379Y-153625498D01*
X171515886Y-153571842D01*
X171504500Y-153519500D01*
X171504500Y-149067783D01*
X171507380Y-149040997D01*
X171508389Y-149036358D01*
X171504820Y-148986472D01*
X171504499Y-148977475D01*
X171504500Y-148963917D01*
X171502566Y-148950468D01*
X171501608Y-148941557D01*
X171498040Y-148891658D01*
X171496378Y-148887202D01*
X171489718Y-148861108D01*
X171489042Y-148856404D01*
X171468259Y-148810896D01*
X171464823Y-148802599D01*
X171447342Y-148755732D01*
X171444495Y-148751929D01*
X171430747Y-148728757D01*
X171428777Y-148724442D01*
X171396011Y-148686628D01*
X171390384Y-148679645D01*
X171382250Y-148668779D01*
X171372644Y-148659173D01*
X171366542Y-148652619D01*
X171333775Y-148614804D01*
X171329770Y-148612230D01*
X171308803Y-148595332D01*
X169247037Y-146533566D01*
X175675500Y-146533566D01*
X175675784Y-146536544D01*
X175675785Y-146536557D01*
X175690798Y-146693779D01*
X175751301Y-146899836D01*
X175824903Y-147042603D01*
X175849707Y-147090716D01*
X175982459Y-147259524D01*
X176144759Y-147400157D01*
X176330741Y-147507534D01*
X176533683Y-147577773D01*
X176639967Y-147593054D01*
X176746249Y-147608336D01*
X176746250Y-147608335D01*
X176746251Y-147608336D01*
X176960761Y-147598117D01*
X177169461Y-147547487D01*
X177364807Y-147458275D01*
X177539741Y-147333706D01*
X177687937Y-147178282D01*
X177804042Y-146997620D01*
X177828229Y-146937205D01*
X177880595Y-146806399D01*
X177883858Y-146798249D01*
X177924500Y-146587377D01*
X177924500Y-145966434D01*
X177919361Y-145912622D01*
X178215499Y-145912622D01*
X178215500Y-146250000D01*
X178215500Y-146533566D01*
X178215784Y-146536544D01*
X178215785Y-146536557D01*
X178230798Y-146693779D01*
X178291301Y-146899836D01*
X178364903Y-147042603D01*
X178389707Y-147090716D01*
X178522459Y-147259524D01*
X178684759Y-147400157D01*
X178870741Y-147507534D01*
X179073683Y-147577773D01*
X179179967Y-147593054D01*
X179286249Y-147608336D01*
X179286250Y-147608335D01*
X179286251Y-147608336D01*
X179500761Y-147598117D01*
X179709461Y-147547487D01*
X179904807Y-147458275D01*
X180079741Y-147333706D01*
X180227937Y-147178282D01*
X180344042Y-146997620D01*
X180368229Y-146937205D01*
X180420595Y-146806399D01*
X180423858Y-146798249D01*
X180464500Y-146587377D01*
X180464500Y-146533566D01*
X180755500Y-146533566D01*
X180755784Y-146536544D01*
X180755785Y-146536557D01*
X180770798Y-146693779D01*
X180831301Y-146899836D01*
X180904903Y-147042603D01*
X180929707Y-147090716D01*
X181062459Y-147259524D01*
X181224759Y-147400157D01*
X181410741Y-147507534D01*
X181613683Y-147577773D01*
X181719966Y-147593054D01*
X181826249Y-147608336D01*
X181826250Y-147608335D01*
X181826251Y-147608336D01*
X182040761Y-147598117D01*
X182249461Y-147547487D01*
X182444807Y-147458275D01*
X182619741Y-147333706D01*
X182767937Y-147178282D01*
X182884042Y-146997620D01*
X182908229Y-146937205D01*
X182960595Y-146806399D01*
X182963858Y-146798249D01*
X183004500Y-146587377D01*
X183004500Y-146533566D01*
X183295500Y-146533566D01*
X183295784Y-146536544D01*
X183295785Y-146536557D01*
X183310798Y-146693779D01*
X183371301Y-146899836D01*
X183444903Y-147042603D01*
X183469707Y-147090716D01*
X183602459Y-147259524D01*
X183764759Y-147400157D01*
X183950741Y-147507534D01*
X184153683Y-147577773D01*
X184259966Y-147593054D01*
X184366249Y-147608336D01*
X184366250Y-147608335D01*
X184366251Y-147608336D01*
X184580761Y-147598117D01*
X184789461Y-147547487D01*
X184984807Y-147458275D01*
X185159741Y-147333706D01*
X185307937Y-147178282D01*
X185424042Y-146997620D01*
X185448229Y-146937205D01*
X185500595Y-146806399D01*
X185503858Y-146798249D01*
X185544500Y-146587377D01*
X185544500Y-146533566D01*
X185835500Y-146533566D01*
X185835784Y-146536544D01*
X185835785Y-146536557D01*
X185850798Y-146693779D01*
X185911301Y-146899836D01*
X185984903Y-147042603D01*
X186009707Y-147090716D01*
X186142459Y-147259524D01*
X186304759Y-147400157D01*
X186490741Y-147507534D01*
X186693683Y-147577773D01*
X186799967Y-147593054D01*
X186906249Y-147608336D01*
X186906250Y-147608335D01*
X186906251Y-147608336D01*
X187120761Y-147598117D01*
X187329461Y-147547487D01*
X187524807Y-147458275D01*
X187699741Y-147333706D01*
X187847937Y-147178282D01*
X187892120Y-147109531D01*
X187945775Y-147063040D01*
X188016049Y-147052937D01*
X188080630Y-147082430D01*
X188119013Y-147142156D01*
X188123465Y-147164848D01*
X188132606Y-147254327D01*
X188188340Y-147422522D01*
X188281367Y-147573342D01*
X188406657Y-147698632D01*
X188557477Y-147791659D01*
X188725672Y-147847393D01*
X188826307Y-147857674D01*
X188832697Y-147858000D01*
X189246000Y-147858000D01*
X189246000Y-146794224D01*
X189343369Y-146834556D01*
X189460677Y-146850000D01*
X189539323Y-146850000D01*
X189656631Y-146834556D01*
X189754000Y-146794224D01*
X189754000Y-147858000D01*
X190167303Y-147858000D01*
X190173692Y-147857674D01*
X190274327Y-147847393D01*
X190442522Y-147791659D01*
X190593342Y-147698632D01*
X190718632Y-147573342D01*
X190811659Y-147422522D01*
X190867393Y-147254327D01*
X190877674Y-147153692D01*
X190878000Y-147147302D01*
X190878000Y-146533566D01*
X196675500Y-146533566D01*
X196675784Y-146536544D01*
X196675785Y-146536557D01*
X196690798Y-146693779D01*
X196751301Y-146899836D01*
X196824903Y-147042603D01*
X196849707Y-147090716D01*
X196982459Y-147259524D01*
X197144759Y-147400157D01*
X197330741Y-147507534D01*
X197533683Y-147577773D01*
X197639967Y-147593054D01*
X197746249Y-147608336D01*
X197746250Y-147608335D01*
X197746251Y-147608336D01*
X197960761Y-147598117D01*
X198169461Y-147547487D01*
X198364807Y-147458275D01*
X198539741Y-147333706D01*
X198687937Y-147178282D01*
X198804042Y-146997620D01*
X198828229Y-146937205D01*
X198880595Y-146806399D01*
X198883858Y-146798249D01*
X198924500Y-146587377D01*
X198924500Y-146533566D01*
X199215500Y-146533566D01*
X199215784Y-146536544D01*
X199215785Y-146536557D01*
X199230798Y-146693779D01*
X199291301Y-146899836D01*
X199364903Y-147042603D01*
X199389707Y-147090716D01*
X199522459Y-147259524D01*
X199684759Y-147400157D01*
X199870741Y-147507534D01*
X200073683Y-147577773D01*
X200179967Y-147593054D01*
X200286249Y-147608336D01*
X200286250Y-147608335D01*
X200286251Y-147608336D01*
X200500761Y-147598117D01*
X200709461Y-147547487D01*
X200904807Y-147458275D01*
X201079741Y-147333706D01*
X201227937Y-147178282D01*
X201344042Y-146997620D01*
X201368229Y-146937205D01*
X201420595Y-146806399D01*
X201423858Y-146798249D01*
X201464500Y-146587377D01*
X201464500Y-146533566D01*
X201755500Y-146533566D01*
X201755784Y-146536544D01*
X201755785Y-146536557D01*
X201770798Y-146693779D01*
X201831301Y-146899836D01*
X201904903Y-147042603D01*
X201929707Y-147090716D01*
X202062459Y-147259524D01*
X202224759Y-147400157D01*
X202410741Y-147507534D01*
X202613683Y-147577773D01*
X202719967Y-147593054D01*
X202826249Y-147608336D01*
X202826250Y-147608335D01*
X202826251Y-147608336D01*
X203040761Y-147598117D01*
X203249461Y-147547487D01*
X203444807Y-147458275D01*
X203619741Y-147333706D01*
X203767937Y-147178282D01*
X203884042Y-146997620D01*
X203908229Y-146937205D01*
X203960595Y-146806399D01*
X203963858Y-146798249D01*
X204004500Y-146587377D01*
X204004500Y-145966434D01*
X203999361Y-145912622D01*
X204295499Y-145912622D01*
X204295500Y-146250000D01*
X204295500Y-146533566D01*
X204295784Y-146536544D01*
X204295785Y-146536557D01*
X204310798Y-146693779D01*
X204371301Y-146899836D01*
X204444903Y-147042603D01*
X204469707Y-147090716D01*
X204602459Y-147259524D01*
X204764759Y-147400157D01*
X204950741Y-147507534D01*
X205153683Y-147577773D01*
X205259967Y-147593054D01*
X205366249Y-147608336D01*
X205366250Y-147608335D01*
X205366251Y-147608336D01*
X205580761Y-147598117D01*
X205789461Y-147547487D01*
X205984807Y-147458275D01*
X206159741Y-147333706D01*
X206307937Y-147178282D01*
X206424042Y-146997620D01*
X206448229Y-146937205D01*
X206500595Y-146806399D01*
X206503858Y-146798249D01*
X206544500Y-146587377D01*
X206544500Y-146533566D01*
X206835500Y-146533566D01*
X206835784Y-146536544D01*
X206835785Y-146536557D01*
X206850798Y-146693779D01*
X206911301Y-146899836D01*
X206984903Y-147042603D01*
X207009707Y-147090716D01*
X207142459Y-147259524D01*
X207304759Y-147400157D01*
X207490741Y-147507534D01*
X207693683Y-147577773D01*
X207799966Y-147593054D01*
X207906249Y-147608336D01*
X207906250Y-147608335D01*
X207906251Y-147608336D01*
X208120761Y-147598117D01*
X208329461Y-147547487D01*
X208524807Y-147458275D01*
X208699741Y-147333706D01*
X208847937Y-147178282D01*
X208892120Y-147109531D01*
X208945775Y-147063040D01*
X209016049Y-147052937D01*
X209080630Y-147082430D01*
X209119013Y-147142156D01*
X209123465Y-147164848D01*
X209132606Y-147254327D01*
X209188340Y-147422522D01*
X209281367Y-147573342D01*
X209406657Y-147698632D01*
X209557477Y-147791659D01*
X209725672Y-147847393D01*
X209826307Y-147857674D01*
X209832697Y-147858000D01*
X210246000Y-147858000D01*
X210246000Y-146794224D01*
X210343369Y-146834556D01*
X210460677Y-146850000D01*
X210539323Y-146850000D01*
X210656631Y-146834556D01*
X210754000Y-146794224D01*
X210754000Y-147858000D01*
X211167303Y-147858000D01*
X211173692Y-147857674D01*
X211274327Y-147847393D01*
X211442522Y-147791659D01*
X211593342Y-147698632D01*
X211718632Y-147573342D01*
X211811659Y-147422522D01*
X211867393Y-147254327D01*
X211877674Y-147153692D01*
X211878000Y-147147302D01*
X211878000Y-146504000D01*
X211044225Y-146504000D01*
X211084556Y-146406631D01*
X211105177Y-146250000D01*
X211084556Y-146093369D01*
X211044225Y-145996000D01*
X211878000Y-145996000D01*
X211878000Y-145352697D01*
X211877674Y-145346307D01*
X211867393Y-145245672D01*
X211811659Y-145077477D01*
X211718632Y-144926657D01*
X211593342Y-144801367D01*
X211442522Y-144708340D01*
X211274327Y-144652606D01*
X211173692Y-144642325D01*
X211167303Y-144642000D01*
X210754000Y-144642000D01*
X210754000Y-145705775D01*
X210656631Y-145665444D01*
X210539323Y-145650000D01*
X210460677Y-145650000D01*
X210343369Y-145665444D01*
X210246000Y-145705775D01*
X210246000Y-144642000D01*
X209832697Y-144642000D01*
X209826307Y-144642325D01*
X209725672Y-144652606D01*
X209557477Y-144708340D01*
X209406657Y-144801367D01*
X209281367Y-144926657D01*
X209188340Y-145077477D01*
X209132605Y-145245676D01*
X209123935Y-145330537D01*
X209097113Y-145396272D01*
X209039009Y-145437070D01*
X208968072Y-145439979D01*
X208906824Y-145404074D01*
X208899555Y-145395630D01*
X208777541Y-145240476D01*
X208615241Y-145099843D01*
X208615240Y-145099842D01*
X208429259Y-144992466D01*
X208226317Y-144922227D01*
X208226316Y-144922226D01*
X208226314Y-144922226D01*
X208013750Y-144891663D01*
X207799239Y-144901882D01*
X207590543Y-144952511D01*
X207395191Y-145041725D01*
X207220259Y-145166293D01*
X207072062Y-145321719D01*
X206955955Y-145502383D01*
X206876142Y-145701748D01*
X206848436Y-145845504D01*
X206835500Y-145912623D01*
X206835500Y-146533566D01*
X206544500Y-146533566D01*
X206544500Y-145966434D01*
X206529201Y-145806219D01*
X206509033Y-145737534D01*
X206468698Y-145600163D01*
X206386117Y-145439979D01*
X206370293Y-145409284D01*
X206237541Y-145240476D01*
X206075241Y-145099843D01*
X206075240Y-145099842D01*
X205889259Y-144992466D01*
X205686317Y-144922227D01*
X205686316Y-144922226D01*
X205686314Y-144922226D01*
X205473750Y-144891663D01*
X205259239Y-144901882D01*
X205050543Y-144952511D01*
X204855191Y-145041725D01*
X204680259Y-145166293D01*
X204532062Y-145321719D01*
X204415955Y-145502383D01*
X204336142Y-145701748D01*
X204295499Y-145912622D01*
X203999361Y-145912622D01*
X203989201Y-145806219D01*
X203969033Y-145737534D01*
X203928698Y-145600163D01*
X203846117Y-145439979D01*
X203830293Y-145409284D01*
X203697541Y-145240476D01*
X203535241Y-145099843D01*
X203535240Y-145099842D01*
X203349259Y-144992466D01*
X203146317Y-144922227D01*
X203146316Y-144922226D01*
X203146314Y-144922226D01*
X202933750Y-144891663D01*
X202719239Y-144901882D01*
X202510543Y-144952511D01*
X202315191Y-145041725D01*
X202140259Y-145166293D01*
X201992062Y-145321719D01*
X201875955Y-145502383D01*
X201796142Y-145701748D01*
X201768436Y-145845504D01*
X201755500Y-145912623D01*
X201755500Y-146533566D01*
X201464500Y-146533566D01*
X201464500Y-145966434D01*
X201449201Y-145806219D01*
X201429033Y-145737534D01*
X201388698Y-145600163D01*
X201306117Y-145439979D01*
X201290293Y-145409284D01*
X201157541Y-145240476D01*
X200995241Y-145099843D01*
X200995240Y-145099842D01*
X200809259Y-144992466D01*
X200606317Y-144922227D01*
X200606316Y-144922226D01*
X200606314Y-144922226D01*
X200393750Y-144891663D01*
X200179239Y-144901882D01*
X199970543Y-144952511D01*
X199775191Y-145041725D01*
X199600259Y-145166293D01*
X199452062Y-145321719D01*
X199335955Y-145502383D01*
X199256142Y-145701748D01*
X199228436Y-145845504D01*
X199215500Y-145912623D01*
X199215500Y-146533566D01*
X198924500Y-146533566D01*
X198924500Y-145966434D01*
X198909201Y-145806219D01*
X198889033Y-145737534D01*
X198848698Y-145600163D01*
X198766117Y-145439979D01*
X198750293Y-145409284D01*
X198617541Y-145240476D01*
X198455241Y-145099843D01*
X198455240Y-145099842D01*
X198269259Y-144992466D01*
X198066317Y-144922227D01*
X198066316Y-144922226D01*
X198066314Y-144922226D01*
X197853750Y-144891663D01*
X197639239Y-144901882D01*
X197430543Y-144952511D01*
X197235191Y-145041725D01*
X197060259Y-145166293D01*
X196912062Y-145321719D01*
X196795955Y-145502383D01*
X196716142Y-145701748D01*
X196688436Y-145845504D01*
X196675500Y-145912623D01*
X196675500Y-146533566D01*
X190878000Y-146533566D01*
X190878000Y-146504000D01*
X190044225Y-146504000D01*
X190084556Y-146406631D01*
X190105177Y-146250000D01*
X190084556Y-146093369D01*
X190044225Y-145996000D01*
X190878000Y-145996000D01*
X190878000Y-145352697D01*
X190877674Y-145346307D01*
X190867393Y-145245672D01*
X190811659Y-145077477D01*
X190718632Y-144926657D01*
X190593342Y-144801367D01*
X190442522Y-144708340D01*
X190274327Y-144652606D01*
X190173692Y-144642325D01*
X190167303Y-144642000D01*
X189754000Y-144642000D01*
X189754000Y-145705775D01*
X189656631Y-145665444D01*
X189539323Y-145650000D01*
X189460677Y-145650000D01*
X189343369Y-145665444D01*
X189246000Y-145705775D01*
X189246000Y-144642000D01*
X188832697Y-144642000D01*
X188826307Y-144642325D01*
X188725672Y-144652606D01*
X188557477Y-144708340D01*
X188406657Y-144801367D01*
X188281367Y-144926657D01*
X188188340Y-145077477D01*
X188132605Y-145245676D01*
X188123935Y-145330537D01*
X188097113Y-145396272D01*
X188039009Y-145437070D01*
X187968072Y-145439979D01*
X187906824Y-145404074D01*
X187899555Y-145395630D01*
X187777541Y-145240476D01*
X187615241Y-145099843D01*
X187615240Y-145099842D01*
X187429259Y-144992466D01*
X187226317Y-144922227D01*
X187226316Y-144922226D01*
X187226314Y-144922226D01*
X187013750Y-144891663D01*
X186799239Y-144901882D01*
X186590543Y-144952511D01*
X186395191Y-145041725D01*
X186220259Y-145166293D01*
X186072062Y-145321719D01*
X185955955Y-145502383D01*
X185876142Y-145701748D01*
X185848436Y-145845504D01*
X185835500Y-145912623D01*
X185835500Y-146533566D01*
X185544500Y-146533566D01*
X185544500Y-145966434D01*
X185529201Y-145806219D01*
X185509033Y-145737534D01*
X185468698Y-145600163D01*
X185386117Y-145439979D01*
X185370293Y-145409284D01*
X185237541Y-145240476D01*
X185075241Y-145099843D01*
X185075240Y-145099842D01*
X184889259Y-144992466D01*
X184686317Y-144922227D01*
X184686316Y-144922226D01*
X184686314Y-144922226D01*
X184473750Y-144891663D01*
X184259239Y-144901882D01*
X184050543Y-144952511D01*
X183855191Y-145041725D01*
X183680259Y-145166293D01*
X183532062Y-145321719D01*
X183415955Y-145502383D01*
X183336142Y-145701748D01*
X183308436Y-145845504D01*
X183295500Y-145912623D01*
X183295500Y-146533566D01*
X183004500Y-146533566D01*
X183004500Y-145966434D01*
X182989201Y-145806219D01*
X182969033Y-145737534D01*
X182928698Y-145600163D01*
X182846117Y-145439979D01*
X182830293Y-145409284D01*
X182697541Y-145240476D01*
X182535241Y-145099843D01*
X182535240Y-145099842D01*
X182349259Y-144992466D01*
X182146317Y-144922227D01*
X182146316Y-144922226D01*
X182146314Y-144922226D01*
X181933750Y-144891663D01*
X181719239Y-144901882D01*
X181510543Y-144952511D01*
X181315191Y-145041725D01*
X181140259Y-145166293D01*
X180992062Y-145321719D01*
X180875955Y-145502383D01*
X180796142Y-145701748D01*
X180768436Y-145845504D01*
X180755500Y-145912623D01*
X180755500Y-146533566D01*
X180464500Y-146533566D01*
X180464500Y-145966434D01*
X180449201Y-145806219D01*
X180429033Y-145737534D01*
X180388698Y-145600163D01*
X180306117Y-145439979D01*
X180290293Y-145409284D01*
X180157541Y-145240476D01*
X179995241Y-145099843D01*
X179995240Y-145099842D01*
X179809259Y-144992466D01*
X179606317Y-144922227D01*
X179606316Y-144922226D01*
X179606314Y-144922226D01*
X179393750Y-144891663D01*
X179179239Y-144901882D01*
X178970543Y-144952511D01*
X178775191Y-145041725D01*
X178600259Y-145166293D01*
X178452062Y-145321719D01*
X178335955Y-145502383D01*
X178256142Y-145701748D01*
X178215499Y-145912622D01*
X177919361Y-145912622D01*
X177909201Y-145806219D01*
X177889033Y-145737534D01*
X177848698Y-145600163D01*
X177766117Y-145439979D01*
X177750293Y-145409284D01*
X177617541Y-145240476D01*
X177455241Y-145099843D01*
X177455240Y-145099842D01*
X177269259Y-144992466D01*
X177269258Y-144992466D01*
X177066317Y-144922227D01*
X177066316Y-144922226D01*
X177066314Y-144922226D01*
X176853750Y-144891663D01*
X176639239Y-144901882D01*
X176430543Y-144952511D01*
X176235191Y-145041725D01*
X176060259Y-145166293D01*
X175912062Y-145321719D01*
X175795955Y-145502383D01*
X175716142Y-145701748D01*
X175688436Y-145845504D01*
X175675500Y-145912623D01*
X175675500Y-146533566D01*
X169247037Y-146533566D01*
X166654668Y-143941197D01*
X166637765Y-143920223D01*
X166635196Y-143916225D01*
X166597388Y-143883464D01*
X166590806Y-143877335D01*
X166581220Y-143867749D01*
X166570346Y-143859608D01*
X166563357Y-143853976D01*
X166525558Y-143821223D01*
X166525555Y-143821220D01*
X166521227Y-143819244D01*
X166498069Y-143805503D01*
X166494268Y-143802657D01*
X166478482Y-143796769D01*
X166447385Y-143785170D01*
X166439095Y-143781736D01*
X166393595Y-143760957D01*
X166388895Y-143760282D01*
X166362795Y-143753621D01*
X166358342Y-143751960D01*
X166308441Y-143748390D01*
X166299508Y-143747429D01*
X166286087Y-143745500D01*
X166286083Y-143745500D01*
X166272516Y-143745500D01*
X166263529Y-143745179D01*
X166213640Y-143741611D01*
X166213639Y-143741611D01*
X166208997Y-143742621D01*
X166182216Y-143745500D01*
X119761161Y-143745500D01*
X119693040Y-143725498D01*
X119672066Y-143708595D01*
X119672065Y-143708595D01*
X115463471Y-139500000D01*
X198590693Y-139500000D01*
X198609850Y-139657780D01*
X198666212Y-139806394D01*
X198666213Y-139806395D01*
X198756502Y-139937201D01*
X198875471Y-140042599D01*
X199016207Y-140116463D01*
X199170529Y-140154500D01*
X199170531Y-140154500D01*
X199329469Y-140154500D01*
X199329471Y-140154500D01*
X199483793Y-140116463D01*
X199624529Y-140042599D01*
X199702307Y-139973692D01*
X199766558Y-139943493D01*
X199836939Y-139952824D01*
X199891102Y-139998724D01*
X199903671Y-140023325D01*
X199916213Y-140056395D01*
X199957673Y-140116461D01*
X200006502Y-140187201D01*
X200125471Y-140292599D01*
X200266207Y-140366463D01*
X200420529Y-140404500D01*
X200420531Y-140404500D01*
X200579469Y-140404500D01*
X200579471Y-140404500D01*
X200733793Y-140366463D01*
X200874529Y-140292599D01*
X200993498Y-140187201D01*
X201083787Y-140056395D01*
X201140149Y-139907782D01*
X201159307Y-139750000D01*
X201140149Y-139592218D01*
X201083787Y-139443605D01*
X200993498Y-139312799D01*
X200874529Y-139207401D01*
X200733793Y-139133537D01*
X200579471Y-139095500D01*
X200420529Y-139095500D01*
X200266207Y-139133537D01*
X200266206Y-139133537D01*
X200266204Y-139133538D01*
X200125472Y-139207400D01*
X200047693Y-139276306D01*
X199983440Y-139306506D01*
X199913059Y-139297174D01*
X199858896Y-139251273D01*
X199846328Y-139226673D01*
X199833787Y-139193605D01*
X199743498Y-139062799D01*
X199696573Y-139021227D01*
X199624529Y-138957401D01*
X199483793Y-138883537D01*
X199329471Y-138845500D01*
X199170529Y-138845500D01*
X199016207Y-138883537D01*
X199016206Y-138883537D01*
X199016204Y-138883538D01*
X198875472Y-138957400D01*
X198756501Y-139062799D01*
X198666212Y-139193605D01*
X198609850Y-139342219D01*
X198590693Y-139500000D01*
X115463471Y-139500000D01*
X114541402Y-138577931D01*
X114507378Y-138515622D01*
X114504500Y-138488848D01*
X114504500Y-135960525D01*
X114524502Y-135892404D01*
X114526804Y-135888948D01*
X114583788Y-135806393D01*
X114597398Y-135770504D01*
X114640149Y-135657782D01*
X114659307Y-135500000D01*
X114640149Y-135342218D01*
X114583787Y-135193605D01*
X114493498Y-135062799D01*
X114374529Y-134957401D01*
X114233793Y-134883537D01*
X114079471Y-134845500D01*
X113920529Y-134845500D01*
X113766207Y-134883537D01*
X113766206Y-134883537D01*
X113766204Y-134883538D01*
X113625472Y-134957400D01*
X113506501Y-135062799D01*
X113416212Y-135193605D01*
X113359850Y-135342219D01*
X113340693Y-135500000D01*
X111525500Y-135500000D01*
X111525500Y-124010334D01*
X121740483Y-124010334D01*
X121740500Y-132991742D01*
X121740551Y-132993790D01*
X121741056Y-133008716D01*
X121741175Y-133010783D01*
X121742134Y-133025161D01*
X121742319Y-133027206D01*
X121743798Y-133042057D01*
X121744051Y-133044108D01*
X121757318Y-133144764D01*
X121757322Y-133144790D01*
X121757591Y-133146831D01*
X121764212Y-133180120D01*
X121772725Y-133211893D01*
X121773377Y-133213813D01*
X121773381Y-133213827D01*
X121779815Y-133232782D01*
X121783637Y-133244040D01*
X121784415Y-133245920D01*
X121784421Y-133245934D01*
X121820099Y-133332067D01*
X121820891Y-133333979D01*
X121821807Y-133335837D01*
X121821810Y-133335843D01*
X121834988Y-133362567D01*
X121834997Y-133362584D01*
X121835904Y-133364423D01*
X121852351Y-133392910D01*
X121871211Y-133421135D01*
X121930475Y-133498368D01*
X121931829Y-133499911D01*
X121931834Y-133499918D01*
X121942605Y-133512200D01*
X121952855Y-133523887D01*
X121976112Y-133547144D01*
X122001631Y-133569524D01*
X122078864Y-133628788D01*
X122107089Y-133647648D01*
X122135576Y-133664095D01*
X122166020Y-133679108D01*
X122255959Y-133716362D01*
X122288104Y-133727273D01*
X122319876Y-133735786D01*
X122321876Y-133736183D01*
X122321881Y-133736185D01*
X122336028Y-133738999D01*
X122353165Y-133742408D01*
X122355207Y-133742676D01*
X122355208Y-133742677D01*
X122457940Y-133756202D01*
X122460007Y-133756423D01*
X122474839Y-133757866D01*
X122476874Y-133758016D01*
X122491285Y-133758944D01*
X122493336Y-133759027D01*
X122508258Y-133759500D01*
X122510335Y-133759517D01*
X126368882Y-133759500D01*
X126437003Y-133779502D01*
X126445702Y-133785626D01*
X132698782Y-138595687D01*
X132716155Y-138607951D01*
X132733483Y-138619149D01*
X132734633Y-138619827D01*
X132734641Y-138619832D01*
X132747691Y-138627527D01*
X132751796Y-138629947D01*
X132868153Y-138692276D01*
X132907128Y-138709207D01*
X132920156Y-138713638D01*
X132943618Y-138721618D01*
X132943623Y-138721619D01*
X132946062Y-138722449D01*
X132987273Y-138732791D01*
X133117502Y-138754332D01*
X133138606Y-138756940D01*
X133159168Y-138758629D01*
X133180412Y-138759500D01*
X133181684Y-138759500D01*
X135491742Y-138759500D01*
X135493790Y-138759449D01*
X135508716Y-138758944D01*
X135510783Y-138758825D01*
X135525161Y-138757866D01*
X135527206Y-138757681D01*
X135542058Y-138756202D01*
X135544114Y-138755948D01*
X135642657Y-138742957D01*
X135646834Y-138742408D01*
X135680126Y-138735786D01*
X135711897Y-138727273D01*
X135744040Y-138716362D01*
X135833979Y-138679108D01*
X135864423Y-138664095D01*
X135892910Y-138647648D01*
X135921135Y-138628788D01*
X135998368Y-138569524D01*
X136023887Y-138547144D01*
X136047144Y-138523887D01*
X136068093Y-138500000D01*
X189340693Y-138500000D01*
X189359850Y-138657780D01*
X189416212Y-138806394D01*
X189476404Y-138893596D01*
X189506502Y-138937201D01*
X189625471Y-139042599D01*
X189766207Y-139116463D01*
X189920529Y-139154500D01*
X189920531Y-139154500D01*
X190079469Y-139154500D01*
X190079471Y-139154500D01*
X190233793Y-139116463D01*
X190374529Y-139042599D01*
X190493498Y-138937201D01*
X190583787Y-138806395D01*
X190640149Y-138657782D01*
X190659307Y-138500000D01*
X190640149Y-138342218D01*
X190583787Y-138193605D01*
X190493498Y-138062799D01*
X190374529Y-137957401D01*
X190233793Y-137883537D01*
X190079471Y-137845500D01*
X189920529Y-137845500D01*
X189766207Y-137883537D01*
X189766206Y-137883537D01*
X189766204Y-137883538D01*
X189625472Y-137957400D01*
X189506501Y-138062799D01*
X189416212Y-138193605D01*
X189359850Y-138342219D01*
X189340693Y-138500000D01*
X136068093Y-138500000D01*
X136069524Y-138498368D01*
X136128788Y-138421135D01*
X136147648Y-138392910D01*
X136164095Y-138364423D01*
X136179108Y-138333979D01*
X136216362Y-138244040D01*
X136227273Y-138211897D01*
X136235786Y-138180126D01*
X136242408Y-138146835D01*
X136256202Y-138042061D01*
X136256422Y-138040000D01*
X136257866Y-138025161D01*
X136258016Y-138023123D01*
X136258944Y-138008714D01*
X136259028Y-138006662D01*
X136259500Y-137991742D01*
X136259517Y-137989666D01*
X136259515Y-136750007D01*
X187340693Y-136750007D01*
X187359850Y-136907788D01*
X187416212Y-137056402D01*
X187416213Y-137056403D01*
X187506502Y-137187209D01*
X187625471Y-137292607D01*
X187766207Y-137366471D01*
X187920529Y-137404508D01*
X187920531Y-137404508D01*
X188079469Y-137404508D01*
X188079471Y-137404508D01*
X188233793Y-137366471D01*
X188374529Y-137292607D01*
X188493498Y-137187209D01*
X188583787Y-137056403D01*
X188640149Y-136907790D01*
X188659307Y-136750008D01*
X188640149Y-136592226D01*
X188583787Y-136443613D01*
X188493498Y-136312807D01*
X188374529Y-136207409D01*
X188233793Y-136133545D01*
X188079471Y-136095508D01*
X187920529Y-136095508D01*
X187766207Y-136133545D01*
X187766206Y-136133545D01*
X187766204Y-136133546D01*
X187625472Y-136207408D01*
X187506501Y-136312807D01*
X187416212Y-136443613D01*
X187359850Y-136592227D01*
X187340693Y-136750007D01*
X136259515Y-136750007D01*
X136259509Y-133075000D01*
X210915693Y-133075000D01*
X210934850Y-133232780D01*
X210991212Y-133381394D01*
X211073024Y-133499918D01*
X211081502Y-133512201D01*
X211200471Y-133617599D01*
X211341207Y-133691463D01*
X211495529Y-133729500D01*
X211495531Y-133729500D01*
X211654469Y-133729500D01*
X211654471Y-133729500D01*
X211808793Y-133691463D01*
X211949529Y-133617599D01*
X212068498Y-133512201D01*
X212158787Y-133381395D01*
X212215149Y-133232782D01*
X212234307Y-133075000D01*
X212215149Y-132917218D01*
X212158787Y-132768605D01*
X212068498Y-132637799D01*
X211949529Y-132532401D01*
X211808793Y-132458537D01*
X211654471Y-132420500D01*
X211495529Y-132420500D01*
X211341207Y-132458537D01*
X211341206Y-132458537D01*
X211341204Y-132458538D01*
X211200472Y-132532400D01*
X211081501Y-132637799D01*
X210991212Y-132768605D01*
X210934850Y-132917219D01*
X210915693Y-133075000D01*
X136259509Y-133075000D01*
X136259508Y-132199999D01*
X197590693Y-132199999D01*
X197609850Y-132357780D01*
X197666212Y-132506394D01*
X197684164Y-132532401D01*
X197756502Y-132637201D01*
X197875471Y-132742599D01*
X198016207Y-132816463D01*
X198170529Y-132854500D01*
X198170531Y-132854500D01*
X198329469Y-132854500D01*
X198329471Y-132854500D01*
X198483793Y-132816463D01*
X198624529Y-132742599D01*
X198743498Y-132637201D01*
X198833787Y-132506395D01*
X198890149Y-132357782D01*
X198909307Y-132200000D01*
X198890149Y-132042218D01*
X198833787Y-131893605D01*
X198743498Y-131762799D01*
X198624529Y-131657401D01*
X198483793Y-131583537D01*
X198329471Y-131545500D01*
X198170529Y-131545500D01*
X198016207Y-131583537D01*
X198016206Y-131583537D01*
X198016204Y-131583538D01*
X197875472Y-131657400D01*
X197756501Y-131762799D01*
X197666212Y-131893605D01*
X197609850Y-132042219D01*
X197590693Y-132199999D01*
X136259508Y-132199999D01*
X136259505Y-130350000D01*
X200740693Y-130350000D01*
X200759850Y-130507780D01*
X200816212Y-130656394D01*
X200816213Y-130656395D01*
X200906502Y-130787201D01*
X201025471Y-130892599D01*
X201166207Y-130966463D01*
X201320529Y-131004500D01*
X201320531Y-131004500D01*
X201479469Y-131004500D01*
X201479471Y-131004500D01*
X201633793Y-130966463D01*
X201774529Y-130892599D01*
X201893498Y-130787201D01*
X201983787Y-130656395D01*
X202040149Y-130507782D01*
X202059307Y-130350000D01*
X202040149Y-130192218D01*
X201983787Y-130043605D01*
X201893498Y-129912799D01*
X201774529Y-129807401D01*
X201633793Y-129733537D01*
X201479471Y-129695500D01*
X201320529Y-129695500D01*
X201166207Y-129733537D01*
X201166206Y-129733537D01*
X201166204Y-129733538D01*
X201025472Y-129807400D01*
X200906501Y-129912799D01*
X200816212Y-130043605D01*
X200759850Y-130192219D01*
X200740693Y-130350000D01*
X136259505Y-130350000D01*
X136259504Y-129550000D01*
X212915693Y-129550000D01*
X212934850Y-129707780D01*
X212991212Y-129856394D01*
X212991213Y-129856395D01*
X213081502Y-129987201D01*
X213200471Y-130092599D01*
X213341207Y-130166463D01*
X213495529Y-130204500D01*
X213495531Y-130204500D01*
X213654469Y-130204500D01*
X213654471Y-130204500D01*
X213808793Y-130166463D01*
X213949529Y-130092599D01*
X214068498Y-129987201D01*
X214158787Y-129856395D01*
X214215149Y-129707782D01*
X214234307Y-129550000D01*
X214215149Y-129392218D01*
X214158787Y-129243605D01*
X214068498Y-129112799D01*
X213949529Y-129007401D01*
X213808793Y-128933537D01*
X213654471Y-128895500D01*
X213495529Y-128895500D01*
X213341207Y-128933537D01*
X213341206Y-128933537D01*
X213341204Y-128933538D01*
X213200472Y-129007400D01*
X213081501Y-129112799D01*
X212991212Y-129243605D01*
X212934850Y-129392219D01*
X212915693Y-129550000D01*
X136259504Y-129550000D01*
X136259500Y-127508257D01*
X136259449Y-127506207D01*
X136258944Y-127491285D01*
X136258826Y-127489222D01*
X136257866Y-127474838D01*
X136257680Y-127472771D01*
X136256202Y-127457938D01*
X136255950Y-127455898D01*
X136242679Y-127355220D01*
X136242677Y-127355210D01*
X136242408Y-127353164D01*
X136235786Y-127319873D01*
X136227273Y-127288102D01*
X136216362Y-127255959D01*
X136179108Y-127166020D01*
X136164095Y-127135576D01*
X136147648Y-127107089D01*
X136128788Y-127078864D01*
X136069524Y-127001631D01*
X136047144Y-126976112D01*
X136023887Y-126952855D01*
X135998368Y-126930475D01*
X135921135Y-126871211D01*
X135892911Y-126852352D01*
X135891153Y-126851337D01*
X135891145Y-126851332D01*
X135866201Y-126836931D01*
X135864426Y-126835906D01*
X135833981Y-126820892D01*
X135832088Y-126820107D01*
X135832075Y-126820102D01*
X135745946Y-126784426D01*
X135745926Y-126784418D01*
X135744037Y-126783636D01*
X135741747Y-126782858D01*
X135713838Y-126773384D01*
X135713822Y-126773379D01*
X135711895Y-126772725D01*
X135709927Y-126772197D01*
X135709915Y-126772194D01*
X135682117Y-126764746D01*
X135682118Y-126764746D01*
X135680128Y-126764213D01*
X135678135Y-126763816D01*
X135678111Y-126763811D01*
X135648833Y-126757988D01*
X135648810Y-126757984D01*
X135646833Y-126757591D01*
X135644801Y-126757323D01*
X135644798Y-126757323D01*
X135542056Y-126743798D01*
X135540009Y-126743580D01*
X135525161Y-126742134D01*
X135523101Y-126741982D01*
X135508716Y-126741056D01*
X135506666Y-126740973D01*
X135491742Y-126740500D01*
X135489665Y-126740483D01*
X130723715Y-126740500D01*
X130655594Y-126720498D01*
X130614316Y-126677014D01*
X129177278Y-124162200D01*
X128927449Y-123724999D01*
X204040693Y-123724999D01*
X204059850Y-123882780D01*
X204116212Y-124031394D01*
X204116213Y-124031395D01*
X204206502Y-124162201D01*
X204325471Y-124267599D01*
X204466207Y-124341463D01*
X204620529Y-124379500D01*
X204620531Y-124379500D01*
X204779469Y-124379500D01*
X204779471Y-124379500D01*
X204933793Y-124341463D01*
X205074529Y-124267599D01*
X205193498Y-124162201D01*
X205283787Y-124031395D01*
X205340149Y-123882782D01*
X205359307Y-123725000D01*
X205340149Y-123567218D01*
X205283787Y-123418605D01*
X205193498Y-123287799D01*
X205074529Y-123182401D01*
X204933793Y-123108537D01*
X204779471Y-123070500D01*
X204620529Y-123070500D01*
X204466207Y-123108537D01*
X204466206Y-123108537D01*
X204466204Y-123108538D01*
X204325472Y-123182400D01*
X204206501Y-123287799D01*
X204116212Y-123418605D01*
X204059850Y-123567219D01*
X204040693Y-123724999D01*
X128927449Y-123724999D01*
X128873380Y-123630378D01*
X128872323Y-123628631D01*
X128864431Y-123615848D01*
X128863295Y-123614102D01*
X128855293Y-123602049D01*
X128854115Y-123600362D01*
X128845424Y-123588159D01*
X128844181Y-123586498D01*
X128782419Y-123505381D01*
X128782411Y-123505372D01*
X128781152Y-123503717D01*
X128758767Y-123478005D01*
X128756884Y-123476109D01*
X128736937Y-123456028D01*
X128736926Y-123456017D01*
X128735489Y-123454571D01*
X128709928Y-123432015D01*
X128632535Y-123372287D01*
X128604239Y-123353278D01*
X128602457Y-123352243D01*
X128602446Y-123352237D01*
X128577446Y-123337729D01*
X128577431Y-123337721D01*
X128575670Y-123336699D01*
X128572242Y-123335000D01*
X128546979Y-123322480D01*
X128546971Y-123322476D01*
X128545128Y-123321563D01*
X128541620Y-123320103D01*
X128456789Y-123284798D01*
X128456767Y-123284790D01*
X128454872Y-123284001D01*
X128452925Y-123283337D01*
X128452917Y-123283334D01*
X128424552Y-123273661D01*
X128424536Y-123273656D01*
X128422609Y-123272999D01*
X128420632Y-123272467D01*
X128420616Y-123272462D01*
X128392718Y-123264953D01*
X128392691Y-123264946D01*
X128390712Y-123264414D01*
X128388697Y-123264011D01*
X128388678Y-123264007D01*
X128359300Y-123258139D01*
X128359296Y-123258138D01*
X128357282Y-123257736D01*
X128355265Y-123257469D01*
X128355239Y-123257465D01*
X128252074Y-123243826D01*
X128250013Y-123243605D01*
X128235103Y-123242147D01*
X128233040Y-123241994D01*
X128218588Y-123241060D01*
X128216520Y-123240975D01*
X128201545Y-123240500D01*
X128199475Y-123240483D01*
X122508258Y-123240500D01*
X122506210Y-123240551D01*
X122491284Y-123241056D01*
X122489217Y-123241175D01*
X122474839Y-123242134D01*
X122472794Y-123242319D01*
X122457943Y-123243798D01*
X122455887Y-123244052D01*
X122355208Y-123257322D01*
X122355184Y-123257325D01*
X122353163Y-123257592D01*
X122351161Y-123257990D01*
X122351150Y-123257992D01*
X122321894Y-123263811D01*
X122321876Y-123263815D01*
X122319876Y-123264213D01*
X122317902Y-123264741D01*
X122317880Y-123264747D01*
X122290110Y-123272187D01*
X122290082Y-123272195D01*
X122288113Y-123272723D01*
X122286182Y-123273378D01*
X122286157Y-123273386D01*
X122257913Y-123282973D01*
X122257900Y-123282977D01*
X122255964Y-123283635D01*
X122254087Y-123284412D01*
X122254067Y-123284420D01*
X122167920Y-123320103D01*
X122167896Y-123320113D01*
X122166015Y-123320893D01*
X122164175Y-123321800D01*
X122164167Y-123321804D01*
X122137409Y-123335000D01*
X122135570Y-123335907D01*
X122133803Y-123336927D01*
X122133794Y-123336932D01*
X122108857Y-123351329D01*
X122108835Y-123351342D01*
X122107092Y-123352349D01*
X122105417Y-123353467D01*
X122105398Y-123353480D01*
X122080570Y-123370070D01*
X122080554Y-123370080D01*
X122078868Y-123371208D01*
X122077258Y-123372442D01*
X122077232Y-123372462D01*
X122003258Y-123429225D01*
X122003234Y-123429244D01*
X122001628Y-123430477D01*
X122000099Y-123431817D01*
X122000083Y-123431831D01*
X121977656Y-123451499D01*
X121977634Y-123451519D01*
X121976109Y-123452857D01*
X121974665Y-123454300D01*
X121974650Y-123454315D01*
X121954315Y-123474650D01*
X121954300Y-123474665D01*
X121952857Y-123476109D01*
X121951519Y-123477634D01*
X121951499Y-123477656D01*
X121931831Y-123500083D01*
X121931817Y-123500099D01*
X121930477Y-123501628D01*
X121929244Y-123503234D01*
X121929225Y-123503258D01*
X121872462Y-123577232D01*
X121872442Y-123577258D01*
X121871208Y-123578868D01*
X121870080Y-123580554D01*
X121870070Y-123580570D01*
X121853480Y-123605398D01*
X121853467Y-123605417D01*
X121852349Y-123607092D01*
X121851342Y-123608835D01*
X121851329Y-123608857D01*
X121836932Y-123633794D01*
X121835907Y-123635570D01*
X121820893Y-123666015D01*
X121820113Y-123667896D01*
X121820103Y-123667920D01*
X121784420Y-123754067D01*
X121784412Y-123754087D01*
X121783635Y-123755964D01*
X121782977Y-123757900D01*
X121782973Y-123757913D01*
X121773386Y-123786157D01*
X121773378Y-123786182D01*
X121772723Y-123788113D01*
X121772195Y-123790082D01*
X121772187Y-123790110D01*
X121764747Y-123817880D01*
X121764741Y-123817902D01*
X121764213Y-123819876D01*
X121763815Y-123821876D01*
X121763811Y-123821894D01*
X121757992Y-123851149D01*
X121757592Y-123853162D01*
X121757324Y-123855194D01*
X121757324Y-123855197D01*
X121743798Y-123957941D01*
X121743581Y-123959982D01*
X121742134Y-123974838D01*
X121741982Y-123976900D01*
X121741056Y-123991283D01*
X121740973Y-123993333D01*
X121740500Y-124008257D01*
X121740483Y-124010334D01*
X111525500Y-124010334D01*
X111525500Y-114320000D01*
X114385689Y-114320000D01*
X114404897Y-114539546D01*
X114461935Y-114752420D01*
X114555075Y-114952156D01*
X114681484Y-115132686D01*
X114837313Y-115288515D01*
X114837316Y-115288517D01*
X114837317Y-115288518D01*
X115017844Y-115414925D01*
X115079222Y-115443546D01*
X115217579Y-115508064D01*
X115253311Y-115517638D01*
X115430455Y-115565103D01*
X115650000Y-115584311D01*
X115869545Y-115565103D01*
X116082420Y-115508064D01*
X116282156Y-115414925D01*
X116462683Y-115288518D01*
X116618518Y-115132683D01*
X116744925Y-114952156D01*
X116838064Y-114752420D01*
X116895103Y-114539545D01*
X116914311Y-114320000D01*
X118185689Y-114320000D01*
X118204897Y-114539546D01*
X118261935Y-114752420D01*
X118355075Y-114952156D01*
X118481484Y-115132686D01*
X118637313Y-115288515D01*
X118637316Y-115288517D01*
X118637317Y-115288518D01*
X118817844Y-115414925D01*
X118879222Y-115443546D01*
X119017579Y-115508064D01*
X119053311Y-115517638D01*
X119230455Y-115565103D01*
X119450000Y-115584311D01*
X119669545Y-115565103D01*
X119882420Y-115508064D01*
X120082156Y-115414925D01*
X120262683Y-115288518D01*
X120418518Y-115132683D01*
X120544925Y-114952156D01*
X120638064Y-114752420D01*
X120695103Y-114539545D01*
X120714311Y-114320000D01*
X120695103Y-114100455D01*
X120638064Y-113887580D01*
X120544925Y-113687845D01*
X120418518Y-113507317D01*
X120418517Y-113507316D01*
X120418515Y-113507313D01*
X120262686Y-113351484D01*
X120082156Y-113225075D01*
X119882420Y-113131935D01*
X119669546Y-113074897D01*
X119540993Y-113063650D01*
X119450000Y-113055689D01*
X119449999Y-113055689D01*
X119230453Y-113074897D01*
X119017580Y-113131935D01*
X118817844Y-113225075D01*
X118637313Y-113351484D01*
X118481484Y-113507313D01*
X118355075Y-113687844D01*
X118261935Y-113887580D01*
X118204897Y-114100453D01*
X118185689Y-114320000D01*
X116914311Y-114320000D01*
X116895103Y-114100455D01*
X116838064Y-113887580D01*
X116744925Y-113687845D01*
X116618518Y-113507317D01*
X116618517Y-113507316D01*
X116618515Y-113507313D01*
X116462686Y-113351484D01*
X116282156Y-113225075D01*
X116082420Y-113131935D01*
X115869546Y-113074897D01*
X115740993Y-113063650D01*
X115650000Y-113055689D01*
X115649999Y-113055689D01*
X115430453Y-113074897D01*
X115217580Y-113131935D01*
X115017844Y-113225075D01*
X114837313Y-113351484D01*
X114681484Y-113507313D01*
X114555075Y-113687844D01*
X114461935Y-113887580D01*
X114404897Y-114100453D01*
X114385689Y-114320000D01*
X111525500Y-114320000D01*
X111525500Y-105680000D01*
X114385689Y-105680000D01*
X114404897Y-105899546D01*
X114461935Y-106112420D01*
X114555075Y-106312156D01*
X114681484Y-106492686D01*
X114837313Y-106648515D01*
X114837316Y-106648517D01*
X114837317Y-106648518D01*
X115017844Y-106774925D01*
X115124439Y-106824631D01*
X115217579Y-106868064D01*
X115295495Y-106888941D01*
X115430455Y-106925103D01*
X115650000Y-106944311D01*
X115869545Y-106925103D01*
X116082420Y-106868064D01*
X116282156Y-106774925D01*
X116462683Y-106648518D01*
X116618518Y-106492683D01*
X116744925Y-106312156D01*
X116838064Y-106112420D01*
X116895103Y-105899545D01*
X116914311Y-105680000D01*
X118185689Y-105680000D01*
X118204897Y-105899546D01*
X118261935Y-106112420D01*
X118355075Y-106312156D01*
X118481484Y-106492686D01*
X118637313Y-106648515D01*
X118637316Y-106648517D01*
X118637317Y-106648518D01*
X118817844Y-106774925D01*
X118924439Y-106824631D01*
X119017579Y-106868064D01*
X119095495Y-106888941D01*
X119230455Y-106925103D01*
X119450000Y-106944311D01*
X119669545Y-106925103D01*
X119882420Y-106868064D01*
X120082156Y-106774925D01*
X120262683Y-106648518D01*
X120418518Y-106492683D01*
X120544925Y-106312156D01*
X120638064Y-106112420D01*
X120695103Y-105899545D01*
X120714311Y-105680000D01*
X120695103Y-105460455D01*
X120638064Y-105247580D01*
X120544925Y-105047845D01*
X120418518Y-104867317D01*
X120418517Y-104867316D01*
X120418515Y-104867313D01*
X120262686Y-104711484D01*
X120082156Y-104585075D01*
X119882420Y-104491935D01*
X119669546Y-104434897D01*
X119559772Y-104425292D01*
X119450000Y-104415689D01*
X119449999Y-104415689D01*
X119230453Y-104434897D01*
X119017580Y-104491935D01*
X118817844Y-104585075D01*
X118637313Y-104711484D01*
X118481484Y-104867313D01*
X118355075Y-105047844D01*
X118261935Y-105247580D01*
X118204897Y-105460453D01*
X118185689Y-105680000D01*
X116914311Y-105680000D01*
X116895103Y-105460455D01*
X116838064Y-105247580D01*
X116744925Y-105047845D01*
X116618518Y-104867317D01*
X116618517Y-104867316D01*
X116618515Y-104867313D01*
X116462686Y-104711484D01*
X116282156Y-104585075D01*
X116082420Y-104491935D01*
X115869546Y-104434897D01*
X115759772Y-104425292D01*
X115650000Y-104415689D01*
X115649999Y-104415689D01*
X115430453Y-104434897D01*
X115217580Y-104491935D01*
X115017844Y-104585075D01*
X114837313Y-104711484D01*
X114681484Y-104867313D01*
X114555075Y-105047844D01*
X114461935Y-105247580D01*
X114404897Y-105460453D01*
X114385689Y-105680000D01*
X111525500Y-105680000D01*
X111525500Y-87460000D01*
X115190517Y-87460000D01*
X115210411Y-87687389D01*
X115269487Y-87907870D01*
X115365954Y-88114742D01*
X115496880Y-88301722D01*
X115658276Y-88463118D01*
X115658279Y-88463120D01*
X115658281Y-88463122D01*
X115662800Y-88466286D01*
X115707129Y-88521741D01*
X115714440Y-88592360D01*
X115682411Y-88655721D01*
X115621210Y-88691708D01*
X115590532Y-88695500D01*
X115424932Y-88695500D01*
X115350699Y-88710265D01*
X115266515Y-88766515D01*
X115210266Y-88850698D01*
X115195500Y-88924933D01*
X115195500Y-91075068D01*
X115210265Y-91149300D01*
X115266515Y-91233484D01*
X115297968Y-91254500D01*
X115350699Y-91289734D01*
X115424933Y-91304500D01*
X117575066Y-91304499D01*
X117575068Y-91304499D01*
X117634715Y-91292635D01*
X117649301Y-91289734D01*
X117733484Y-91233484D01*
X117789734Y-91149301D01*
X117804500Y-91075067D01*
X117804500Y-90630500D01*
X117824502Y-90562379D01*
X117878158Y-90515886D01*
X117930500Y-90504500D01*
X129958971Y-90504500D01*
X130027092Y-90524502D01*
X130073585Y-90578158D01*
X130083689Y-90648432D01*
X130054195Y-90713012D01*
X130025118Y-90737741D01*
X130018966Y-90741535D01*
X130018964Y-90741536D01*
X129868846Y-90834129D01*
X129868843Y-90834131D01*
X124261845Y-96441129D01*
X124247995Y-96453099D01*
X124228705Y-96467460D01*
X124196727Y-96505569D01*
X124189326Y-96513648D01*
X124188016Y-96514958D01*
X124188002Y-96514973D01*
X124185417Y-96517559D01*
X124183148Y-96520428D01*
X124183144Y-96520433D01*
X124166114Y-96541970D01*
X124163804Y-96544806D01*
X124114453Y-96603621D01*
X124104038Y-96619968D01*
X124071597Y-96689539D01*
X124070001Y-96692835D01*
X124035561Y-96761412D01*
X124029196Y-96779725D01*
X124013672Y-96854902D01*
X124012880Y-96858476D01*
X123995182Y-96933150D01*
X123993214Y-96952417D01*
X123995447Y-97029160D01*
X123995500Y-97032824D01*
X123995500Y-121793941D01*
X123995924Y-121797569D01*
X123995925Y-121797585D01*
X124010840Y-121925185D01*
X124071162Y-122090921D01*
X124168086Y-122238287D01*
X124236190Y-122302539D01*
X124296377Y-122359322D01*
X124352285Y-122391600D01*
X124449121Y-122447509D01*
X124449123Y-122447509D01*
X124449124Y-122447510D01*
X124618091Y-122498095D01*
X124794169Y-122508351D01*
X124967866Y-122477723D01*
X125129818Y-122407864D01*
X125271294Y-122302539D01*
X125294402Y-122275000D01*
X202615693Y-122275000D01*
X202634850Y-122432780D01*
X202691212Y-122581394D01*
X202691213Y-122581395D01*
X202781502Y-122712201D01*
X202900471Y-122817599D01*
X203041207Y-122891463D01*
X203195529Y-122929500D01*
X203195531Y-122929500D01*
X203354469Y-122929500D01*
X203354471Y-122929500D01*
X203508793Y-122891463D01*
X203649529Y-122817599D01*
X203768498Y-122712201D01*
X203858787Y-122581395D01*
X203915149Y-122432782D01*
X203934307Y-122275000D01*
X203915149Y-122117218D01*
X203858787Y-121968605D01*
X203768498Y-121837799D01*
X203649529Y-121732401D01*
X203508793Y-121658537D01*
X203354471Y-121620500D01*
X203195529Y-121620500D01*
X203041207Y-121658537D01*
X203041206Y-121658537D01*
X203041204Y-121658538D01*
X202900472Y-121732400D01*
X202781501Y-121837799D01*
X202691212Y-121968605D01*
X202634850Y-122117219D01*
X202615693Y-122275000D01*
X125294402Y-122275000D01*
X125384667Y-122167427D01*
X125463824Y-122009811D01*
X125504500Y-121838188D01*
X125504500Y-118015000D01*
X152078581Y-118015000D01*
X152098207Y-118214269D01*
X152156332Y-118405878D01*
X152156333Y-118405880D01*
X152250722Y-118582469D01*
X152284822Y-118624020D01*
X152377747Y-118737252D01*
X152429954Y-118780096D01*
X152532531Y-118864278D01*
X152709120Y-118958667D01*
X152804925Y-118987729D01*
X152900730Y-119016792D01*
X153100000Y-119036418D01*
X153299269Y-119016792D01*
X153490880Y-118958667D01*
X153667469Y-118864278D01*
X153822252Y-118737252D01*
X153949278Y-118582469D01*
X154043667Y-118405880D01*
X154101792Y-118214269D01*
X154109200Y-118139058D01*
X154117678Y-118052978D01*
X154132977Y-118015086D01*
X154353167Y-118015086D01*
X154366864Y-118041850D01*
X154368592Y-118054347D01*
X154384517Y-118236376D01*
X154442031Y-118451024D01*
X154535947Y-118652426D01*
X154580184Y-118715603D01*
X154580185Y-118715603D01*
X155195155Y-118100633D01*
X155196327Y-118116265D01*
X155245887Y-118242541D01*
X155330465Y-118348599D01*
X155442547Y-118425016D01*
X155554623Y-118459586D01*
X154939395Y-119074813D01*
X154939395Y-119074814D01*
X155002573Y-119119052D01*
X155203975Y-119212968D01*
X155418623Y-119270482D01*
X155640000Y-119289850D01*
X155861376Y-119270482D01*
X156076024Y-119212968D01*
X156277427Y-119119052D01*
X156340603Y-119074814D01*
X156340603Y-119074812D01*
X155723316Y-118457525D01*
X155774138Y-118449865D01*
X155896357Y-118391007D01*
X155995798Y-118298740D01*
X156063625Y-118181260D01*
X156082550Y-118098341D01*
X156699812Y-118715603D01*
X156699814Y-118715603D01*
X156744052Y-118652427D01*
X156837968Y-118451024D01*
X156895482Y-118236376D01*
X156911407Y-118054347D01*
X156926827Y-118014926D01*
X157147015Y-118014926D01*
X157160458Y-118040501D01*
X157162321Y-118052977D01*
X157178207Y-118214269D01*
X157236332Y-118405878D01*
X157236333Y-118405880D01*
X157330722Y-118582469D01*
X157364822Y-118624020D01*
X157457747Y-118737252D01*
X157509954Y-118780096D01*
X157612531Y-118864278D01*
X157789120Y-118958667D01*
X157884925Y-118987729D01*
X157980730Y-119016792D01*
X158179999Y-119036418D01*
X158179999Y-119036417D01*
X158180000Y-119036418D01*
X158379269Y-119016792D01*
X158570880Y-118958667D01*
X158747469Y-118864278D01*
X158902252Y-118737252D01*
X159029278Y-118582469D01*
X159123667Y-118405880D01*
X159181792Y-118214269D01*
X159201418Y-118015000D01*
X159201418Y-118014999D01*
X159698581Y-118014999D01*
X159718207Y-118214269D01*
X159776332Y-118405878D01*
X159776333Y-118405880D01*
X159870722Y-118582469D01*
X159904822Y-118624020D01*
X159997747Y-118737252D01*
X160049954Y-118780096D01*
X160152531Y-118864278D01*
X160329120Y-118958667D01*
X160424925Y-118987729D01*
X160520730Y-119016792D01*
X160720000Y-119036418D01*
X160919269Y-119016792D01*
X161110880Y-118958667D01*
X161287469Y-118864278D01*
X161442252Y-118737252D01*
X161569278Y-118582469D01*
X161663667Y-118405880D01*
X161721792Y-118214269D01*
X161741418Y-118015000D01*
X162238581Y-118015000D01*
X162258207Y-118214269D01*
X162316332Y-118405878D01*
X162316333Y-118405880D01*
X162410722Y-118582469D01*
X162444822Y-118624020D01*
X162537747Y-118737252D01*
X162589954Y-118780096D01*
X162692531Y-118864278D01*
X162869120Y-118958667D01*
X162964925Y-118987729D01*
X163060730Y-119016792D01*
X163260000Y-119036418D01*
X163459269Y-119016792D01*
X163650880Y-118958667D01*
X163827469Y-118864278D01*
X163982252Y-118737252D01*
X164109278Y-118582469D01*
X164203667Y-118405880D01*
X164261792Y-118214269D01*
X164281418Y-118015000D01*
X164281418Y-118014999D01*
X164778581Y-118014999D01*
X164798207Y-118214269D01*
X164856332Y-118405878D01*
X164856333Y-118405880D01*
X164950722Y-118582469D01*
X164984822Y-118624020D01*
X165077747Y-118737252D01*
X165129954Y-118780096D01*
X165232531Y-118864278D01*
X165409120Y-118958667D01*
X165504925Y-118987729D01*
X165600730Y-119016792D01*
X165799999Y-119036418D01*
X165799999Y-119036417D01*
X165800000Y-119036418D01*
X165999269Y-119016792D01*
X166190880Y-118958667D01*
X166367469Y-118864278D01*
X166522252Y-118737252D01*
X166649278Y-118582469D01*
X166743667Y-118405880D01*
X166801792Y-118214269D01*
X166821418Y-118015000D01*
X167318581Y-118015000D01*
X167338207Y-118214269D01*
X167396332Y-118405878D01*
X167396333Y-118405880D01*
X167490722Y-118582469D01*
X167524822Y-118624020D01*
X167617747Y-118737252D01*
X167669954Y-118780096D01*
X167772531Y-118864278D01*
X167949120Y-118958667D01*
X168044925Y-118987729D01*
X168140730Y-119016792D01*
X168340000Y-119036418D01*
X168539269Y-119016792D01*
X168730880Y-118958667D01*
X168907469Y-118864278D01*
X169062252Y-118737252D01*
X169189278Y-118582469D01*
X169283667Y-118405880D01*
X169341792Y-118214269D01*
X169361418Y-118015000D01*
X169361418Y-118014999D01*
X169858581Y-118014999D01*
X169878207Y-118214269D01*
X169936332Y-118405878D01*
X169936333Y-118405880D01*
X170030722Y-118582469D01*
X170064822Y-118624020D01*
X170157747Y-118737252D01*
X170209954Y-118780096D01*
X170312531Y-118864278D01*
X170489120Y-118958667D01*
X170584925Y-118987729D01*
X170680730Y-119016792D01*
X170880000Y-119036418D01*
X171079269Y-119016792D01*
X171270880Y-118958667D01*
X171447469Y-118864278D01*
X171602252Y-118737252D01*
X171729278Y-118582469D01*
X171823667Y-118405880D01*
X171881792Y-118214269D01*
X171901418Y-118015000D01*
X172398581Y-118015000D01*
X172418207Y-118214269D01*
X172476332Y-118405878D01*
X172476333Y-118405880D01*
X172570722Y-118582469D01*
X172604822Y-118624020D01*
X172697747Y-118737252D01*
X172749954Y-118780096D01*
X172852531Y-118864278D01*
X173029120Y-118958667D01*
X173124925Y-118987729D01*
X173220730Y-119016792D01*
X173419999Y-119036418D01*
X173419999Y-119036417D01*
X173420000Y-119036418D01*
X173619269Y-119016792D01*
X173810880Y-118958667D01*
X173987469Y-118864278D01*
X174142252Y-118737252D01*
X174269278Y-118582469D01*
X174363667Y-118405880D01*
X174421792Y-118214269D01*
X174441418Y-118015000D01*
X174938581Y-118015000D01*
X174958207Y-118214269D01*
X175016332Y-118405878D01*
X175016333Y-118405880D01*
X175110722Y-118582469D01*
X175144822Y-118624020D01*
X175237747Y-118737252D01*
X175289954Y-118780096D01*
X175392531Y-118864278D01*
X175569120Y-118958667D01*
X175664925Y-118987729D01*
X175760730Y-119016792D01*
X175960000Y-119036418D01*
X176159269Y-119016792D01*
X176350880Y-118958667D01*
X176527469Y-118864278D01*
X176682252Y-118737252D01*
X176809278Y-118582469D01*
X176903667Y-118405880D01*
X176961792Y-118214269D01*
X176981418Y-118015000D01*
X176981418Y-118014999D01*
X177478581Y-118014999D01*
X177498207Y-118214269D01*
X177556332Y-118405878D01*
X177556333Y-118405880D01*
X177650722Y-118582469D01*
X177684822Y-118624020D01*
X177777747Y-118737252D01*
X177829954Y-118780096D01*
X177932531Y-118864278D01*
X178109120Y-118958667D01*
X178204925Y-118987729D01*
X178300730Y-119016792D01*
X178500000Y-119036418D01*
X178699269Y-119016792D01*
X178890880Y-118958667D01*
X179067469Y-118864278D01*
X179222252Y-118737252D01*
X179349278Y-118582469D01*
X179443667Y-118405880D01*
X179501792Y-118214269D01*
X179521418Y-118015000D01*
X179521418Y-118014999D01*
X180018581Y-118014999D01*
X180038207Y-118214269D01*
X180096332Y-118405878D01*
X180096333Y-118405880D01*
X180190722Y-118582469D01*
X180224822Y-118624020D01*
X180317747Y-118737252D01*
X180369954Y-118780096D01*
X180472531Y-118864278D01*
X180649120Y-118958667D01*
X180744925Y-118987729D01*
X180840730Y-119016792D01*
X181039999Y-119036418D01*
X181039999Y-119036417D01*
X181040000Y-119036418D01*
X181239269Y-119016792D01*
X181430880Y-118958667D01*
X181607469Y-118864278D01*
X181762252Y-118737252D01*
X181889278Y-118582469D01*
X181983667Y-118405880D01*
X182041792Y-118214269D01*
X182061418Y-118015000D01*
X182558581Y-118015000D01*
X182578207Y-118214269D01*
X182636332Y-118405878D01*
X182636333Y-118405880D01*
X182730722Y-118582469D01*
X182764822Y-118624020D01*
X182857747Y-118737252D01*
X182909954Y-118780096D01*
X183012531Y-118864278D01*
X183189120Y-118958667D01*
X183284925Y-118987729D01*
X183380730Y-119016792D01*
X183580000Y-119036418D01*
X183779269Y-119016792D01*
X183970880Y-118958667D01*
X184147469Y-118864278D01*
X184302252Y-118737252D01*
X184429278Y-118582469D01*
X184523667Y-118405880D01*
X184581792Y-118214269D01*
X184601418Y-118015000D01*
X185098581Y-118015000D01*
X185118207Y-118214269D01*
X185176332Y-118405878D01*
X185176333Y-118405880D01*
X185270722Y-118582469D01*
X185304822Y-118624020D01*
X185397747Y-118737252D01*
X185449954Y-118780096D01*
X185552531Y-118864278D01*
X185729120Y-118958667D01*
X185824925Y-118987729D01*
X185920730Y-119016792D01*
X186120000Y-119036418D01*
X186319269Y-119016792D01*
X186510880Y-118958667D01*
X186687469Y-118864278D01*
X186842252Y-118737252D01*
X186969278Y-118582469D01*
X187063667Y-118405880D01*
X187121792Y-118214269D01*
X187141418Y-118015000D01*
X187141418Y-118014999D01*
X187638581Y-118014999D01*
X187658207Y-118214269D01*
X187716332Y-118405878D01*
X187716333Y-118405880D01*
X187810722Y-118582469D01*
X187844822Y-118624020D01*
X187937747Y-118737252D01*
X187989954Y-118780096D01*
X188092531Y-118864278D01*
X188269120Y-118958667D01*
X188364925Y-118987729D01*
X188460730Y-119016792D01*
X188659999Y-119036418D01*
X188659999Y-119036417D01*
X188660000Y-119036418D01*
X188859269Y-119016792D01*
X189050880Y-118958667D01*
X189227469Y-118864278D01*
X189382252Y-118737252D01*
X189509278Y-118582469D01*
X189603667Y-118405880D01*
X189661792Y-118214269D01*
X189681418Y-118015000D01*
X189681418Y-118014999D01*
X190178581Y-118014999D01*
X190198207Y-118214269D01*
X190256332Y-118405878D01*
X190256333Y-118405880D01*
X190350722Y-118582469D01*
X190384822Y-118624020D01*
X190477747Y-118737252D01*
X190529954Y-118780096D01*
X190632531Y-118864278D01*
X190809120Y-118958667D01*
X190904925Y-118987729D01*
X191000730Y-119016792D01*
X191199999Y-119036418D01*
X191199999Y-119036417D01*
X191200000Y-119036418D01*
X191399269Y-119016792D01*
X191590880Y-118958667D01*
X191767469Y-118864278D01*
X191922252Y-118737252D01*
X192049278Y-118582469D01*
X192143667Y-118405880D01*
X192201792Y-118214269D01*
X192221418Y-118015000D01*
X192718581Y-118015000D01*
X192738207Y-118214269D01*
X192796332Y-118405878D01*
X192796333Y-118405880D01*
X192890722Y-118582469D01*
X192924822Y-118624020D01*
X193017747Y-118737252D01*
X193069954Y-118780096D01*
X193172531Y-118864278D01*
X193349120Y-118958667D01*
X193444925Y-118987729D01*
X193540730Y-119016792D01*
X193740000Y-119036418D01*
X193939269Y-119016792D01*
X194130880Y-118958667D01*
X194307469Y-118864278D01*
X194462252Y-118737252D01*
X194589278Y-118582469D01*
X194683667Y-118405880D01*
X194741792Y-118214269D01*
X194761418Y-118015000D01*
X195258581Y-118015000D01*
X195278207Y-118214269D01*
X195336332Y-118405878D01*
X195336333Y-118405880D01*
X195430722Y-118582469D01*
X195464822Y-118624020D01*
X195557747Y-118737252D01*
X195609954Y-118780096D01*
X195712531Y-118864278D01*
X195889120Y-118958667D01*
X195984925Y-118987729D01*
X196080730Y-119016792D01*
X196280000Y-119036418D01*
X196479269Y-119016792D01*
X196670880Y-118958667D01*
X196847469Y-118864278D01*
X197002252Y-118737252D01*
X197129278Y-118582469D01*
X197223667Y-118405880D01*
X197281792Y-118214269D01*
X197301418Y-118015000D01*
X197295357Y-117953464D01*
X216866721Y-117953464D01*
X216876784Y-118139058D01*
X216926507Y-118318146D01*
X217013569Y-118482363D01*
X217133893Y-118624020D01*
X217171261Y-118652426D01*
X217281861Y-118736502D01*
X217450548Y-118814545D01*
X217563662Y-118839443D01*
X217632066Y-118854500D01*
X217632067Y-118854500D01*
X218317917Y-118854500D01*
X218321332Y-118854500D01*
X218459775Y-118839443D01*
X218549278Y-118809285D01*
X218635909Y-118780097D01*
X218635911Y-118780096D01*
X218795171Y-118684273D01*
X218930108Y-118556454D01*
X219034413Y-118402615D01*
X219103209Y-118229951D01*
X219133278Y-118046535D01*
X219123216Y-117860942D01*
X219073492Y-117681852D01*
X218986431Y-117517638D01*
X218986430Y-117517636D01*
X218866106Y-117375979D01*
X218718139Y-117263498D01*
X218718138Y-117263497D01*
X218549452Y-117185455D01*
X218549448Y-117185454D01*
X218367934Y-117145500D01*
X218367933Y-117145500D01*
X217678668Y-117145500D01*
X217675281Y-117145868D01*
X217675269Y-117145869D01*
X217540225Y-117160556D01*
X217364090Y-117219902D01*
X217204830Y-117315726D01*
X217069890Y-117443547D01*
X216965587Y-117597383D01*
X216896790Y-117770050D01*
X216866721Y-117953464D01*
X197295357Y-117953464D01*
X197281792Y-117815731D01*
X197267934Y-117770049D01*
X197233274Y-117655790D01*
X197223667Y-117624120D01*
X197129278Y-117447531D01*
X197065765Y-117370139D01*
X197002252Y-117292747D01*
X196907948Y-117215355D01*
X196847469Y-117165722D01*
X196670880Y-117071333D01*
X196670879Y-117071332D01*
X196670878Y-117071332D01*
X196479269Y-117013207D01*
X196280000Y-116993581D01*
X196080730Y-117013207D01*
X195889121Y-117071332D01*
X195712532Y-117165721D01*
X195557747Y-117292747D01*
X195430721Y-117447532D01*
X195336332Y-117624121D01*
X195278207Y-117815730D01*
X195258581Y-118015000D01*
X194761418Y-118015000D01*
X194761410Y-118014913D01*
X194741792Y-117815730D01*
X194693274Y-117655790D01*
X194683667Y-117624120D01*
X194589278Y-117447531D01*
X194525765Y-117370139D01*
X194462252Y-117292747D01*
X194367948Y-117215355D01*
X194307469Y-117165722D01*
X194130880Y-117071333D01*
X194130879Y-117071332D01*
X194130878Y-117071332D01*
X193939269Y-117013207D01*
X193740000Y-116993581D01*
X193540730Y-117013207D01*
X193349121Y-117071332D01*
X193172532Y-117165721D01*
X193017747Y-117292747D01*
X192890721Y-117447532D01*
X192796332Y-117624121D01*
X192738207Y-117815730D01*
X192718581Y-118015000D01*
X192221418Y-118015000D01*
X192221410Y-118014913D01*
X192201792Y-117815730D01*
X192153274Y-117655790D01*
X192143667Y-117624120D01*
X192049278Y-117447531D01*
X191985764Y-117370139D01*
X191922252Y-117292747D01*
X191827948Y-117215355D01*
X191767469Y-117165722D01*
X191590880Y-117071333D01*
X191590879Y-117071332D01*
X191590878Y-117071332D01*
X191399269Y-117013207D01*
X191199999Y-116993581D01*
X191000730Y-117013207D01*
X190809121Y-117071332D01*
X190632532Y-117165721D01*
X190477747Y-117292747D01*
X190350721Y-117447532D01*
X190256332Y-117624121D01*
X190198207Y-117815730D01*
X190178581Y-118014999D01*
X189681418Y-118014999D01*
X189661792Y-117815731D01*
X189647934Y-117770049D01*
X189613274Y-117655790D01*
X189603667Y-117624120D01*
X189509278Y-117447531D01*
X189445765Y-117370139D01*
X189382252Y-117292747D01*
X189287948Y-117215355D01*
X189227469Y-117165722D01*
X189050880Y-117071333D01*
X189050879Y-117071332D01*
X189050878Y-117071332D01*
X188859269Y-117013207D01*
X188659999Y-116993581D01*
X188460730Y-117013207D01*
X188269121Y-117071332D01*
X188092532Y-117165721D01*
X187937747Y-117292747D01*
X187810721Y-117447532D01*
X187716332Y-117624121D01*
X187658207Y-117815730D01*
X187638581Y-118014999D01*
X187141418Y-118014999D01*
X187121792Y-117815731D01*
X187107934Y-117770049D01*
X187073274Y-117655790D01*
X187063667Y-117624120D01*
X186969278Y-117447531D01*
X186905765Y-117370139D01*
X186842252Y-117292747D01*
X186747948Y-117215355D01*
X186687469Y-117165722D01*
X186510880Y-117071333D01*
X186510879Y-117071332D01*
X186510878Y-117071332D01*
X186319269Y-117013207D01*
X186120000Y-116993581D01*
X185920730Y-117013207D01*
X185729121Y-117071332D01*
X185552532Y-117165721D01*
X185397747Y-117292747D01*
X185270721Y-117447532D01*
X185176332Y-117624121D01*
X185118207Y-117815730D01*
X185098581Y-118015000D01*
X184601418Y-118015000D01*
X184601410Y-118014913D01*
X184581792Y-117815730D01*
X184533274Y-117655790D01*
X184523667Y-117624120D01*
X184429278Y-117447531D01*
X184365765Y-117370139D01*
X184302252Y-117292747D01*
X184207948Y-117215355D01*
X184147469Y-117165722D01*
X183970880Y-117071333D01*
X183970879Y-117071332D01*
X183970878Y-117071332D01*
X183779269Y-117013207D01*
X183580000Y-116993581D01*
X183380730Y-117013207D01*
X183189121Y-117071332D01*
X183012532Y-117165721D01*
X182857747Y-117292747D01*
X182730721Y-117447532D01*
X182636332Y-117624121D01*
X182578207Y-117815730D01*
X182558581Y-118015000D01*
X182061418Y-118015000D01*
X182061410Y-118014913D01*
X182041792Y-117815730D01*
X181993274Y-117655790D01*
X181983667Y-117624120D01*
X181889278Y-117447531D01*
X181825764Y-117370139D01*
X181762252Y-117292747D01*
X181667948Y-117215355D01*
X181607469Y-117165722D01*
X181430880Y-117071333D01*
X181430879Y-117071332D01*
X181430878Y-117071332D01*
X181239269Y-117013207D01*
X181039999Y-116993581D01*
X180840730Y-117013207D01*
X180649121Y-117071332D01*
X180472532Y-117165721D01*
X180317747Y-117292747D01*
X180190721Y-117447532D01*
X180096332Y-117624121D01*
X180038207Y-117815730D01*
X180018581Y-118014999D01*
X179521418Y-118014999D01*
X179501792Y-117815731D01*
X179487934Y-117770049D01*
X179453274Y-117655790D01*
X179443667Y-117624120D01*
X179349278Y-117447531D01*
X179285765Y-117370139D01*
X179222252Y-117292747D01*
X179127948Y-117215355D01*
X179067469Y-117165722D01*
X178890880Y-117071333D01*
X178890879Y-117071332D01*
X178890878Y-117071332D01*
X178699269Y-117013207D01*
X178500000Y-116993581D01*
X178300730Y-117013207D01*
X178109121Y-117071332D01*
X177932532Y-117165721D01*
X177777747Y-117292747D01*
X177650721Y-117447532D01*
X177556332Y-117624121D01*
X177498207Y-117815730D01*
X177478581Y-118014999D01*
X176981418Y-118014999D01*
X176961792Y-117815731D01*
X176947934Y-117770049D01*
X176913274Y-117655790D01*
X176903667Y-117624120D01*
X176809278Y-117447531D01*
X176745765Y-117370139D01*
X176682252Y-117292747D01*
X176587948Y-117215355D01*
X176527469Y-117165722D01*
X176350880Y-117071333D01*
X176350879Y-117071332D01*
X176350878Y-117071332D01*
X176159269Y-117013207D01*
X175959999Y-116993581D01*
X175760730Y-117013207D01*
X175569121Y-117071332D01*
X175392532Y-117165721D01*
X175237747Y-117292747D01*
X175110721Y-117447532D01*
X175016332Y-117624121D01*
X174958207Y-117815730D01*
X174938581Y-118015000D01*
X174441418Y-118015000D01*
X174441410Y-118014913D01*
X174421792Y-117815730D01*
X174373274Y-117655790D01*
X174363667Y-117624120D01*
X174269278Y-117447531D01*
X174205765Y-117370139D01*
X174142252Y-117292747D01*
X174047948Y-117215355D01*
X173987469Y-117165722D01*
X173810880Y-117071333D01*
X173810879Y-117071332D01*
X173810878Y-117071332D01*
X173619269Y-117013207D01*
X173419999Y-116993581D01*
X173220730Y-117013207D01*
X173029121Y-117071332D01*
X172852532Y-117165721D01*
X172697747Y-117292747D01*
X172570721Y-117447532D01*
X172476332Y-117624121D01*
X172418207Y-117815730D01*
X172398581Y-118015000D01*
X171901418Y-118015000D01*
X171901410Y-118014913D01*
X171881792Y-117815730D01*
X171833274Y-117655790D01*
X171823667Y-117624120D01*
X171729278Y-117447531D01*
X171665764Y-117370139D01*
X171602252Y-117292747D01*
X171507948Y-117215355D01*
X171447469Y-117165722D01*
X171270880Y-117071333D01*
X171270879Y-117071332D01*
X171270878Y-117071332D01*
X171079269Y-117013207D01*
X170880000Y-116993581D01*
X170680730Y-117013207D01*
X170489121Y-117071332D01*
X170312532Y-117165721D01*
X170157747Y-117292747D01*
X170030721Y-117447532D01*
X169936332Y-117624121D01*
X169878207Y-117815730D01*
X169858581Y-118014999D01*
X169361418Y-118014999D01*
X169341792Y-117815731D01*
X169327934Y-117770049D01*
X169293274Y-117655790D01*
X169283667Y-117624120D01*
X169189278Y-117447531D01*
X169125765Y-117370139D01*
X169062252Y-117292747D01*
X168967948Y-117215355D01*
X168907469Y-117165722D01*
X168730880Y-117071333D01*
X168730879Y-117071332D01*
X168730878Y-117071332D01*
X168539269Y-117013207D01*
X168340000Y-116993581D01*
X168140730Y-117013207D01*
X167949121Y-117071332D01*
X167772532Y-117165721D01*
X167617747Y-117292747D01*
X167490721Y-117447532D01*
X167396332Y-117624121D01*
X167338207Y-117815730D01*
X167318581Y-118015000D01*
X166821418Y-118015000D01*
X166801792Y-117815731D01*
X166787934Y-117770049D01*
X166753274Y-117655790D01*
X166743667Y-117624120D01*
X166649278Y-117447531D01*
X166585765Y-117370139D01*
X166522252Y-117292747D01*
X166427948Y-117215355D01*
X166367469Y-117165722D01*
X166190880Y-117071333D01*
X166190879Y-117071332D01*
X166190878Y-117071332D01*
X165999269Y-117013207D01*
X165800000Y-116993581D01*
X165600730Y-117013207D01*
X165409121Y-117071332D01*
X165232532Y-117165721D01*
X165077747Y-117292747D01*
X164950721Y-117447532D01*
X164856332Y-117624121D01*
X164798207Y-117815730D01*
X164778581Y-118014999D01*
X164281418Y-118014999D01*
X164281410Y-118014913D01*
X164261792Y-117815730D01*
X164213274Y-117655790D01*
X164203667Y-117624120D01*
X164109278Y-117447531D01*
X164045765Y-117370139D01*
X163982252Y-117292747D01*
X163887948Y-117215355D01*
X163827469Y-117165722D01*
X163650880Y-117071333D01*
X163650879Y-117071332D01*
X163650878Y-117071332D01*
X163459269Y-117013207D01*
X163260000Y-116993581D01*
X163060730Y-117013207D01*
X162869121Y-117071332D01*
X162692532Y-117165721D01*
X162537747Y-117292747D01*
X162410721Y-117447532D01*
X162316332Y-117624121D01*
X162258207Y-117815730D01*
X162238581Y-118015000D01*
X161741418Y-118015000D01*
X161721792Y-117815731D01*
X161707934Y-117770049D01*
X161673274Y-117655790D01*
X161663667Y-117624120D01*
X161569278Y-117447531D01*
X161505764Y-117370139D01*
X161442252Y-117292747D01*
X161347948Y-117215355D01*
X161287469Y-117165722D01*
X161110880Y-117071333D01*
X161110879Y-117071332D01*
X161110878Y-117071332D01*
X160919269Y-117013207D01*
X160720000Y-116993581D01*
X160520730Y-117013207D01*
X160329121Y-117071332D01*
X160152532Y-117165721D01*
X159997747Y-117292747D01*
X159870721Y-117447532D01*
X159776332Y-117624121D01*
X159718207Y-117815730D01*
X159698581Y-118014999D01*
X159201418Y-118014999D01*
X159201410Y-118014913D01*
X159181792Y-117815730D01*
X159133274Y-117655790D01*
X159123667Y-117624120D01*
X159029278Y-117447531D01*
X158965765Y-117370139D01*
X158902252Y-117292747D01*
X158807948Y-117215355D01*
X158747469Y-117165722D01*
X158570880Y-117071333D01*
X158570879Y-117071332D01*
X158570878Y-117071332D01*
X158379269Y-117013207D01*
X158179999Y-116993581D01*
X157980730Y-117013207D01*
X157789121Y-117071332D01*
X157612532Y-117165721D01*
X157457747Y-117292747D01*
X157330721Y-117447532D01*
X157236332Y-117624121D01*
X157178207Y-117815730D01*
X157162321Y-117977022D01*
X157147015Y-118014926D01*
X156926827Y-118014926D01*
X156926832Y-118014913D01*
X156913134Y-117988148D01*
X156911407Y-117975652D01*
X156895482Y-117793623D01*
X156837968Y-117578975D01*
X156744051Y-117377571D01*
X156699815Y-117314395D01*
X156699813Y-117314395D01*
X156084844Y-117929364D01*
X156083673Y-117913735D01*
X156034113Y-117787459D01*
X155949535Y-117681401D01*
X155837453Y-117604984D01*
X155725376Y-117570413D01*
X156340603Y-116955185D01*
X156340603Y-116955184D01*
X156277426Y-116910947D01*
X156076024Y-116817031D01*
X155861376Y-116759517D01*
X155640000Y-116740149D01*
X155418623Y-116759517D01*
X155203975Y-116817031D01*
X155002572Y-116910948D01*
X154939394Y-116955185D01*
X155556683Y-117572474D01*
X155505862Y-117580135D01*
X155383643Y-117638993D01*
X155284202Y-117731260D01*
X155216375Y-117848740D01*
X155197449Y-117931658D01*
X154580185Y-117314394D01*
X154535948Y-117377572D01*
X154442031Y-117578975D01*
X154384517Y-117793622D01*
X154368592Y-117975653D01*
X154353167Y-118015086D01*
X154132977Y-118015086D01*
X154132983Y-118015072D01*
X154119541Y-117989498D01*
X154117678Y-117977021D01*
X154101792Y-117815730D01*
X154053274Y-117655790D01*
X154043667Y-117624120D01*
X153949278Y-117447531D01*
X153885765Y-117370139D01*
X153822252Y-117292747D01*
X153727948Y-117215355D01*
X153667469Y-117165722D01*
X153490880Y-117071333D01*
X153490879Y-117071332D01*
X153490878Y-117071332D01*
X153299269Y-117013207D01*
X153100000Y-116993581D01*
X152900730Y-117013207D01*
X152709121Y-117071332D01*
X152532532Y-117165721D01*
X152377747Y-117292747D01*
X152250721Y-117447532D01*
X152156332Y-117624121D01*
X152098207Y-117815730D01*
X152078581Y-118015000D01*
X125504500Y-118015000D01*
X125504500Y-113746000D01*
X216642126Y-113746000D01*
X217724122Y-113746000D01*
X217681722Y-113792059D01*
X217631449Y-113906670D01*
X217621114Y-114031395D01*
X217651837Y-114152719D01*
X217718008Y-114254000D01*
X216646480Y-114254000D01*
X216673174Y-114364037D01*
X216761078Y-114556520D01*
X216883819Y-114728885D01*
X217036967Y-114874911D01*
X217214976Y-114989309D01*
X217299270Y-115023056D01*
X217355078Y-115066943D01*
X217378298Y-115134035D01*
X217361560Y-115203030D01*
X217317402Y-115247993D01*
X217204831Y-115315725D01*
X217069890Y-115443547D01*
X216965587Y-115597383D01*
X216896790Y-115770050D01*
X216866721Y-115953464D01*
X216876784Y-116139058D01*
X216926507Y-116318146D01*
X217013569Y-116482363D01*
X217133893Y-116624020D01*
X217213155Y-116684273D01*
X217281861Y-116736502D01*
X217450548Y-116814545D01*
X217563662Y-116839443D01*
X217632066Y-116854500D01*
X217632067Y-116854500D01*
X218317917Y-116854500D01*
X218321332Y-116854500D01*
X218459775Y-116839443D01*
X218549278Y-116809285D01*
X218635909Y-116780097D01*
X218635911Y-116780096D01*
X218795171Y-116684273D01*
X218930108Y-116556454D01*
X219034413Y-116402615D01*
X219103209Y-116229951D01*
X219133278Y-116046535D01*
X219123216Y-115860942D01*
X219073492Y-115681852D01*
X218986431Y-115517638D01*
X218986430Y-115517636D01*
X218866106Y-115375979D01*
X218718138Y-115263497D01*
X218701229Y-115255674D01*
X218647804Y-115208916D01*
X218628139Y-115140698D01*
X218648477Y-115072676D01*
X218696401Y-115029326D01*
X218876756Y-114936347D01*
X219043086Y-114805543D01*
X219181656Y-114645626D01*
X219287457Y-114462373D01*
X219356663Y-114262412D01*
X219357873Y-114254000D01*
X218275878Y-114254000D01*
X218318278Y-114207941D01*
X218368551Y-114093330D01*
X218378886Y-113968605D01*
X218348163Y-113847281D01*
X218281992Y-113746000D01*
X219353519Y-113746000D01*
X219353519Y-113745999D01*
X219326825Y-113635962D01*
X219238921Y-113443479D01*
X219116180Y-113271114D01*
X218963034Y-113125090D01*
X218817655Y-113031661D01*
X218771162Y-112978005D01*
X218761058Y-112907731D01*
X218790552Y-112843151D01*
X218841744Y-112807607D01*
X218869267Y-112797342D01*
X218985404Y-112710404D01*
X219072342Y-112594267D01*
X219123040Y-112458342D01*
X219129500Y-112398255D01*
X219129499Y-111601746D01*
X219123040Y-111541658D01*
X219072342Y-111405733D01*
X219072341Y-111405731D01*
X218985404Y-111289595D01*
X218869268Y-111202658D01*
X218733339Y-111151959D01*
X218676603Y-111145859D01*
X218676585Y-111145858D01*
X218673255Y-111145500D01*
X218669887Y-111145500D01*
X217330116Y-111145500D01*
X217330097Y-111145500D01*
X217326746Y-111145501D01*
X217323404Y-111145860D01*
X217323389Y-111145861D01*
X217266661Y-111151959D01*
X217130731Y-111202658D01*
X217014595Y-111289595D01*
X216927658Y-111405731D01*
X216876959Y-111541660D01*
X216870859Y-111598396D01*
X216870857Y-111598415D01*
X216870500Y-111601745D01*
X216870500Y-111605111D01*
X216870500Y-111605112D01*
X216870500Y-112394883D01*
X216870500Y-112394901D01*
X216870501Y-112398254D01*
X216870860Y-112401596D01*
X216870861Y-112401610D01*
X216876959Y-112458338D01*
X216927658Y-112594268D01*
X217014595Y-112710404D01*
X217130732Y-112797342D01*
X217142238Y-112801633D01*
X217159246Y-112807977D01*
X217216081Y-112850522D01*
X217240893Y-112917041D01*
X217225802Y-112986416D01*
X217175601Y-113036619D01*
X217172951Y-113038025D01*
X217123246Y-113063650D01*
X216956913Y-113194456D01*
X216818343Y-113354373D01*
X216712542Y-113537626D01*
X216643336Y-113737587D01*
X216642126Y-113746000D01*
X125504500Y-113746000D01*
X125504500Y-112500001D01*
X192590693Y-112500001D01*
X192609850Y-112657782D01*
X192666212Y-112806396D01*
X192666213Y-112806397D01*
X192756502Y-112937203D01*
X192875471Y-113042601D01*
X193016207Y-113116465D01*
X193170529Y-113154502D01*
X193170531Y-113154502D01*
X193329469Y-113154502D01*
X193329471Y-113154502D01*
X193483793Y-113116465D01*
X193624529Y-113042601D01*
X193743498Y-112937203D01*
X193833787Y-112806397D01*
X193890149Y-112657784D01*
X193909307Y-112500002D01*
X193890149Y-112342220D01*
X193833787Y-112193607D01*
X193743498Y-112062801D01*
X193624529Y-111957403D01*
X193483793Y-111883539D01*
X193329471Y-111845502D01*
X193170529Y-111845502D01*
X193016207Y-111883539D01*
X193016206Y-111883539D01*
X193016204Y-111883540D01*
X192875472Y-111957402D01*
X192756501Y-112062801D01*
X192666212Y-112193607D01*
X192609850Y-112342221D01*
X192590693Y-112500001D01*
X125504500Y-112500001D01*
X125504500Y-111250000D01*
X195340693Y-111250000D01*
X195359850Y-111407780D01*
X195416212Y-111556394D01*
X195449843Y-111605116D01*
X195506502Y-111687201D01*
X195625471Y-111792599D01*
X195766207Y-111866463D01*
X195920529Y-111904500D01*
X195920531Y-111904500D01*
X196079469Y-111904500D01*
X196079471Y-111904500D01*
X196233793Y-111866463D01*
X196374529Y-111792599D01*
X196493498Y-111687201D01*
X196583787Y-111556395D01*
X196640149Y-111407782D01*
X196659307Y-111250000D01*
X196640149Y-111092218D01*
X196583787Y-110943605D01*
X196493498Y-110812799D01*
X196374529Y-110707401D01*
X196233793Y-110633537D01*
X196079471Y-110595500D01*
X195920529Y-110595500D01*
X195766207Y-110633537D01*
X195766206Y-110633537D01*
X195766204Y-110633538D01*
X195625472Y-110707400D01*
X195506501Y-110812799D01*
X195416212Y-110943605D01*
X195359850Y-111092219D01*
X195340693Y-111250000D01*
X125504500Y-111250000D01*
X125504500Y-109799978D01*
X137140693Y-109799978D01*
X137159850Y-109957758D01*
X137216212Y-110106372D01*
X137249433Y-110154500D01*
X137306502Y-110237179D01*
X137425471Y-110342577D01*
X137566207Y-110416441D01*
X137720529Y-110454478D01*
X137720531Y-110454478D01*
X137879469Y-110454478D01*
X137879471Y-110454478D01*
X138033793Y-110416441D01*
X138174529Y-110342577D01*
X138293498Y-110237179D01*
X138383787Y-110106373D01*
X138440149Y-109957760D01*
X138459307Y-109799978D01*
X138440149Y-109642196D01*
X138383787Y-109493583D01*
X138383786Y-109493582D01*
X138326804Y-109411028D01*
X138304568Y-109343603D01*
X138304500Y-109339452D01*
X138304500Y-109000000D01*
X177590693Y-109000000D01*
X177609850Y-109157780D01*
X177666212Y-109306394D01*
X177716133Y-109378716D01*
X177756502Y-109437201D01*
X177875471Y-109542599D01*
X178016207Y-109616463D01*
X178170529Y-109654500D01*
X178170531Y-109654500D01*
X178329469Y-109654500D01*
X178329471Y-109654500D01*
X178483793Y-109616463D01*
X178624529Y-109542599D01*
X178672614Y-109499999D01*
X181340693Y-109499999D01*
X181359850Y-109657780D01*
X181416212Y-109806394D01*
X181416213Y-109806395D01*
X181506502Y-109937201D01*
X181625471Y-110042599D01*
X181766207Y-110116463D01*
X181920529Y-110154500D01*
X181920531Y-110154500D01*
X182079469Y-110154500D01*
X182079471Y-110154500D01*
X182233793Y-110116463D01*
X182374529Y-110042599D01*
X182493498Y-109937201D01*
X182583787Y-109806395D01*
X182640149Y-109657782D01*
X182659307Y-109500000D01*
X182640149Y-109342218D01*
X182583787Y-109193605D01*
X182493498Y-109062799D01*
X182374529Y-108957401D01*
X182233793Y-108883537D01*
X182079471Y-108845500D01*
X181920529Y-108845500D01*
X181766207Y-108883537D01*
X181766206Y-108883537D01*
X181766204Y-108883538D01*
X181625472Y-108957400D01*
X181506501Y-109062799D01*
X181416212Y-109193605D01*
X181359850Y-109342219D01*
X181340693Y-109499999D01*
X178672614Y-109499999D01*
X178743498Y-109437201D01*
X178833787Y-109306395D01*
X178890149Y-109157782D01*
X178909307Y-109000000D01*
X178890149Y-108842218D01*
X178833787Y-108693605D01*
X178743498Y-108562799D01*
X178624529Y-108457401D01*
X178483793Y-108383537D01*
X178329471Y-108345500D01*
X178170529Y-108345500D01*
X178016207Y-108383537D01*
X178016206Y-108383537D01*
X178016204Y-108383538D01*
X177875472Y-108457400D01*
X177756501Y-108562799D01*
X177666212Y-108693605D01*
X177609850Y-108842219D01*
X177590693Y-109000000D01*
X138304500Y-109000000D01*
X138304500Y-105761161D01*
X138324502Y-105693040D01*
X138341405Y-105672066D01*
X139597782Y-104415689D01*
X142577429Y-101436041D01*
X142636364Y-101402800D01*
X142783793Y-101366463D01*
X142924529Y-101292599D01*
X143043498Y-101187201D01*
X143133787Y-101056395D01*
X143190149Y-100907782D01*
X143209307Y-100750000D01*
X143190149Y-100592218D01*
X143133787Y-100443605D01*
X143043498Y-100312799D01*
X142924529Y-100207401D01*
X142783793Y-100133537D01*
X142629471Y-100095500D01*
X142470529Y-100095500D01*
X142316207Y-100133537D01*
X142316206Y-100133537D01*
X142316204Y-100133538D01*
X142175472Y-100207400D01*
X142056501Y-100312799D01*
X141966213Y-100443604D01*
X141909850Y-100592219D01*
X141903418Y-100645190D01*
X141875350Y-100710402D01*
X141867432Y-100719095D01*
X137491194Y-105095333D01*
X137470227Y-105112232D01*
X137466224Y-105114804D01*
X137433469Y-105152605D01*
X137427347Y-105159181D01*
X137417748Y-105168780D01*
X137409612Y-105179648D01*
X137403976Y-105186642D01*
X137371222Y-105224442D01*
X137369246Y-105228770D01*
X137355511Y-105251918D01*
X137352657Y-105255730D01*
X137335172Y-105302607D01*
X137331733Y-105310911D01*
X137310957Y-105356405D01*
X137310281Y-105361110D01*
X137303624Y-105387194D01*
X137301960Y-105391654D01*
X137298391Y-105441548D01*
X137297431Y-105450477D01*
X137295500Y-105463915D01*
X137295500Y-105477483D01*
X137295179Y-105486471D01*
X137291611Y-105536360D01*
X137292620Y-105540998D01*
X137295500Y-105567782D01*
X137295500Y-109339452D01*
X137275498Y-109407573D01*
X137273196Y-109411028D01*
X137216212Y-109493583D01*
X137159850Y-109642197D01*
X137140693Y-109799978D01*
X125504500Y-109799978D01*
X125504500Y-98899999D01*
X129290693Y-98899999D01*
X129309850Y-99057780D01*
X129366212Y-99206394D01*
X129421989Y-99287200D01*
X129456502Y-99337201D01*
X129575471Y-99442599D01*
X129716207Y-99516463D01*
X129870529Y-99554500D01*
X129870531Y-99554500D01*
X130029469Y-99554500D01*
X130029471Y-99554500D01*
X130183793Y-99516463D01*
X130324529Y-99442599D01*
X130388203Y-99386188D01*
X130452457Y-99355987D01*
X130471758Y-99354500D01*
X139734680Y-99354500D01*
X139802801Y-99374502D01*
X139818233Y-99386188D01*
X139825467Y-99392596D01*
X139825468Y-99392596D01*
X139825471Y-99392599D01*
X139966207Y-99466463D01*
X140120529Y-99504500D01*
X140120531Y-99504500D01*
X140279469Y-99504500D01*
X140279471Y-99504500D01*
X140433793Y-99466463D01*
X140574529Y-99392599D01*
X140693498Y-99287201D01*
X140783787Y-99156395D01*
X140840149Y-99007782D01*
X140859307Y-98850000D01*
X140840149Y-98692218D01*
X140783787Y-98543605D01*
X140693498Y-98412799D01*
X140574529Y-98307401D01*
X140433793Y-98233537D01*
X140279471Y-98195500D01*
X140120529Y-98195500D01*
X139966206Y-98233536D01*
X139966207Y-98233537D01*
X139825467Y-98307403D01*
X139818233Y-98313812D01*
X139753980Y-98344013D01*
X139734680Y-98345500D01*
X130332911Y-98345500D01*
X130274357Y-98331068D01*
X130201059Y-98292599D01*
X130183793Y-98283537D01*
X130029471Y-98245500D01*
X129870529Y-98245500D01*
X129716207Y-98283537D01*
X129716206Y-98283537D01*
X129716204Y-98283538D01*
X129575472Y-98357400D01*
X129456501Y-98462799D01*
X129366212Y-98593605D01*
X129309850Y-98742219D01*
X129290693Y-98899999D01*
X125504500Y-98899999D01*
X125504500Y-97384712D01*
X125524502Y-97316592D01*
X125541400Y-97295623D01*
X130427785Y-92409237D01*
X130490095Y-92375213D01*
X130560910Y-92380278D01*
X130592381Y-92397461D01*
X130598778Y-92402249D01*
X130598779Y-92402250D01*
X130609652Y-92410389D01*
X130616628Y-92416011D01*
X130645768Y-92441261D01*
X130654442Y-92448777D01*
X130658758Y-92450748D01*
X130681924Y-92464492D01*
X130685733Y-92467343D01*
X130732605Y-92484825D01*
X130740892Y-92488257D01*
X130786404Y-92509042D01*
X130791099Y-92509716D01*
X130817207Y-92516379D01*
X130821658Y-92518040D01*
X130871554Y-92521608D01*
X130880484Y-92522569D01*
X130893914Y-92524500D01*
X130893917Y-92524500D01*
X130907484Y-92524500D01*
X130916470Y-92524820D01*
X130966360Y-92528389D01*
X130971003Y-92527378D01*
X130997784Y-92524500D01*
X133909500Y-92524500D01*
X133977621Y-92544502D01*
X134024114Y-92598158D01*
X134035500Y-92650500D01*
X134035500Y-93562215D01*
X134032621Y-93588996D01*
X134031610Y-93593639D01*
X134035178Y-93643529D01*
X134035499Y-93652509D01*
X134035499Y-93666084D01*
X134037429Y-93679507D01*
X134038390Y-93688442D01*
X134041960Y-93738342D01*
X134043621Y-93742795D01*
X134050282Y-93768895D01*
X134050957Y-93773595D01*
X134071736Y-93819095D01*
X134075170Y-93827385D01*
X134086769Y-93858482D01*
X134092657Y-93874268D01*
X134095503Y-93878069D01*
X134109244Y-93901227D01*
X134111220Y-93905555D01*
X134111223Y-93905558D01*
X134143976Y-93943357D01*
X134149608Y-93950346D01*
X134157749Y-93961220D01*
X134167335Y-93970806D01*
X134173464Y-93977388D01*
X134206225Y-94015196D01*
X134210223Y-94017765D01*
X134231197Y-94034668D01*
X137365332Y-97168803D01*
X137382230Y-97189770D01*
X137384804Y-97193775D01*
X137422619Y-97226542D01*
X137429173Y-97232644D01*
X137438779Y-97242250D01*
X137449645Y-97250384D01*
X137456628Y-97256011D01*
X137494441Y-97288777D01*
X137494442Y-97288777D01*
X137498758Y-97290748D01*
X137521924Y-97304492D01*
X137525733Y-97307343D01*
X137572605Y-97324825D01*
X137580892Y-97328257D01*
X137626404Y-97349042D01*
X137631099Y-97349716D01*
X137657207Y-97356379D01*
X137661658Y-97358040D01*
X137711554Y-97361608D01*
X137720484Y-97362569D01*
X137733914Y-97364500D01*
X137733917Y-97364500D01*
X137747484Y-97364500D01*
X137756470Y-97364820D01*
X137806360Y-97368389D01*
X137811003Y-97367378D01*
X137837784Y-97364500D01*
X139224680Y-97364500D01*
X139292801Y-97384502D01*
X139308233Y-97396188D01*
X139315467Y-97402596D01*
X139315468Y-97402596D01*
X139315471Y-97402599D01*
X139456207Y-97476463D01*
X139610529Y-97514500D01*
X139610531Y-97514500D01*
X139769469Y-97514500D01*
X139769471Y-97514500D01*
X139923793Y-97476463D01*
X140064529Y-97402599D01*
X140183498Y-97297201D01*
X140273787Y-97166395D01*
X140330149Y-97017782D01*
X140349307Y-96860000D01*
X140330149Y-96702218D01*
X140273787Y-96553605D01*
X140273786Y-96553604D01*
X140216804Y-96471050D01*
X140194568Y-96403625D01*
X140194500Y-96399474D01*
X140194500Y-94984999D01*
X152078581Y-94984999D01*
X152098207Y-95184269D01*
X152153280Y-95365817D01*
X152156333Y-95375880D01*
X152250722Y-95552469D01*
X152300355Y-95612948D01*
X152377747Y-95707252D01*
X152455139Y-95770764D01*
X152532531Y-95834278D01*
X152709120Y-95928667D01*
X152775799Y-95948894D01*
X152900730Y-95986792D01*
X153100000Y-96006418D01*
X153299269Y-95986792D01*
X153490880Y-95928667D01*
X153667469Y-95834278D01*
X153822252Y-95707252D01*
X153949278Y-95552469D01*
X154043667Y-95375880D01*
X154101792Y-95184269D01*
X154121418Y-94985000D01*
X154618581Y-94985000D01*
X154638207Y-95184269D01*
X154693280Y-95365817D01*
X154696333Y-95375880D01*
X154790722Y-95552469D01*
X154840355Y-95612948D01*
X154917747Y-95707252D01*
X154995139Y-95770764D01*
X155072531Y-95834278D01*
X155249120Y-95928667D01*
X155315799Y-95948894D01*
X155440730Y-95986792D01*
X155640000Y-96006418D01*
X155839269Y-95986792D01*
X156030880Y-95928667D01*
X156207469Y-95834278D01*
X156362252Y-95707252D01*
X156489278Y-95552469D01*
X156583667Y-95375880D01*
X156641792Y-95184269D01*
X156661418Y-94985000D01*
X156661418Y-94984999D01*
X157158581Y-94984999D01*
X157178207Y-95184269D01*
X157233280Y-95365817D01*
X157236333Y-95375880D01*
X157330722Y-95552469D01*
X157380355Y-95612948D01*
X157457747Y-95707252D01*
X157535139Y-95770764D01*
X157612531Y-95834278D01*
X157672745Y-95866463D01*
X157733883Y-95899142D01*
X157784531Y-95948894D01*
X157800241Y-96018131D01*
X157797806Y-96036119D01*
X157795581Y-96046730D01*
X157799532Y-96078423D01*
X157800500Y-96094010D01*
X157800500Y-96094078D01*
X157803955Y-96114789D01*
X157804705Y-96119934D01*
X157812241Y-96180381D01*
X157812276Y-96180491D01*
X157841255Y-96234040D01*
X157843638Y-96238669D01*
X157870406Y-96293423D01*
X157870461Y-96293496D01*
X157915284Y-96334760D01*
X157919041Y-96338365D01*
X161811950Y-100231275D01*
X161828337Y-100251453D01*
X161834301Y-100260582D01*
X161859507Y-100280200D01*
X161871218Y-100290543D01*
X161871256Y-100290581D01*
X161888366Y-100302797D01*
X161892504Y-100305882D01*
X161934251Y-100338375D01*
X161934253Y-100338375D01*
X161940607Y-100343321D01*
X161940666Y-100343352D01*
X161948387Y-100345650D01*
X161948391Y-100345653D01*
X161999113Y-100360752D01*
X162003977Y-100362311D01*
X162054043Y-100379500D01*
X162054045Y-100379500D01*
X162061650Y-100382111D01*
X162061739Y-100382124D01*
X162069778Y-100381791D01*
X162069780Y-100381792D01*
X162122583Y-100379608D01*
X162127791Y-100379500D01*
X165150544Y-100379500D01*
X165218665Y-100399502D01*
X165254238Y-100433921D01*
X165256502Y-100437201D01*
X165375471Y-100542599D01*
X165516207Y-100616463D01*
X165670529Y-100654500D01*
X165670531Y-100654500D01*
X165829469Y-100654500D01*
X165829471Y-100654500D01*
X165983793Y-100616463D01*
X166124529Y-100542599D01*
X166243498Y-100437201D01*
X166245761Y-100433921D01*
X166300919Y-100389224D01*
X166349456Y-100379500D01*
X177040616Y-100379500D01*
X177108737Y-100399502D01*
X177129711Y-100416405D01*
X185310587Y-108597281D01*
X185344613Y-108659593D01*
X185346574Y-108701561D01*
X185340693Y-108750001D01*
X185359850Y-108907780D01*
X185416212Y-109056394D01*
X185464288Y-109126043D01*
X185506502Y-109187201D01*
X185625471Y-109292599D01*
X185766207Y-109366463D01*
X185920529Y-109404500D01*
X185920531Y-109404500D01*
X186079469Y-109404500D01*
X186079471Y-109404500D01*
X186233793Y-109366463D01*
X186374529Y-109292599D01*
X186493498Y-109187201D01*
X186495761Y-109183921D01*
X186550919Y-109139224D01*
X186599456Y-109129500D01*
X189447574Y-109129500D01*
X189473431Y-109132181D01*
X189484100Y-109134419D01*
X189515796Y-109130468D01*
X189531382Y-109129500D01*
X189531440Y-109129500D01*
X189531443Y-109129500D01*
X189552194Y-109126036D01*
X189557243Y-109125300D01*
X189609783Y-109118752D01*
X189609788Y-109118749D01*
X189617782Y-109117753D01*
X189617842Y-109117734D01*
X189624926Y-109113900D01*
X189624927Y-109113900D01*
X189671411Y-109088742D01*
X189676043Y-109086359D01*
X189730807Y-109059587D01*
X189730854Y-109059552D01*
X189772130Y-109014714D01*
X189775689Y-109011003D01*
X189845290Y-108941402D01*
X189907601Y-108907379D01*
X189934383Y-108904500D01*
X190079469Y-108904500D01*
X190079471Y-108904500D01*
X190233793Y-108866463D01*
X190374529Y-108792599D01*
X190493498Y-108687201D01*
X190583787Y-108556395D01*
X190640149Y-108407782D01*
X190659307Y-108250000D01*
X190640149Y-108092218D01*
X190583787Y-107943605D01*
X190493498Y-107812799D01*
X190493497Y-107812798D01*
X190421945Y-107749407D01*
X190384221Y-107689263D01*
X190379500Y-107655096D01*
X190379500Y-105459383D01*
X190399502Y-105391262D01*
X190416400Y-105370293D01*
X198036692Y-97750000D01*
X199340693Y-97750000D01*
X199359850Y-97907780D01*
X199416212Y-98056394D01*
X199416213Y-98056395D01*
X199506502Y-98187201D01*
X199625471Y-98292599D01*
X199766207Y-98366463D01*
X199920529Y-98404500D01*
X199920531Y-98404500D01*
X200079469Y-98404500D01*
X200079471Y-98404500D01*
X200233793Y-98366463D01*
X200374529Y-98292599D01*
X200493498Y-98187201D01*
X200583787Y-98056395D01*
X200640149Y-97907782D01*
X200659307Y-97750000D01*
X200640149Y-97592218D01*
X200583787Y-97443605D01*
X200493498Y-97312799D01*
X200374529Y-97207401D01*
X200233793Y-97133537D01*
X200079471Y-97095500D01*
X199920529Y-97095500D01*
X199766207Y-97133537D01*
X199766206Y-97133537D01*
X199766204Y-97133538D01*
X199625472Y-97207400D01*
X199506501Y-97312799D01*
X199416212Y-97443605D01*
X199359850Y-97592219D01*
X199340693Y-97750000D01*
X198036692Y-97750000D01*
X200231276Y-95555416D01*
X200251457Y-95539029D01*
X200260582Y-95533068D01*
X200280202Y-95507858D01*
X200290553Y-95496141D01*
X200290553Y-95496140D01*
X200290581Y-95496113D01*
X200302811Y-95478982D01*
X200305871Y-95474879D01*
X200338375Y-95433119D01*
X200338376Y-95433114D01*
X200343327Y-95426754D01*
X200343351Y-95426709D01*
X200345651Y-95418981D01*
X200345653Y-95418979D01*
X200360750Y-95368265D01*
X200362305Y-95363409D01*
X200379500Y-95313327D01*
X200379500Y-95313324D01*
X200382113Y-95305714D01*
X200382124Y-95305633D01*
X200381791Y-95297591D01*
X200381792Y-95297590D01*
X200379608Y-95244775D01*
X200379500Y-95239569D01*
X200379500Y-82552421D01*
X200382182Y-82526563D01*
X200384418Y-82515898D01*
X200380468Y-82484209D01*
X200379500Y-82468624D01*
X200379500Y-82468554D01*
X200376044Y-82447851D01*
X200375296Y-82442727D01*
X200368752Y-82390217D01*
X200368751Y-82390215D01*
X200367756Y-82382230D01*
X200367730Y-82382150D01*
X200338734Y-82328568D01*
X200336351Y-82323939D01*
X200309592Y-82269203D01*
X200309545Y-82269140D01*
X200303619Y-82263685D01*
X200303619Y-82263684D01*
X200264713Y-82227868D01*
X200260957Y-82224263D01*
X197666405Y-79629711D01*
X197632379Y-79567399D01*
X197629500Y-79540616D01*
X197629500Y-79500000D01*
X199840693Y-79500000D01*
X199859850Y-79657780D01*
X199916212Y-79806394D01*
X199958048Y-79867003D01*
X200006502Y-79937201D01*
X200125471Y-80042599D01*
X200266207Y-80116463D01*
X200316458Y-80128848D01*
X200375398Y-80162092D01*
X215310587Y-95097281D01*
X215344613Y-95159593D01*
X215346574Y-95201561D01*
X215341960Y-95239569D01*
X215340693Y-95250001D01*
X215359850Y-95407780D01*
X215416212Y-95556394D01*
X215416213Y-95556395D01*
X215506502Y-95687201D01*
X215625471Y-95792599D01*
X215766207Y-95866463D01*
X215920529Y-95904500D01*
X215920531Y-95904500D01*
X216079469Y-95904500D01*
X216079471Y-95904500D01*
X216233793Y-95866463D01*
X216374529Y-95792599D01*
X216493498Y-95687201D01*
X216583787Y-95556395D01*
X216640149Y-95407782D01*
X216659307Y-95250000D01*
X216640149Y-95092218D01*
X216583787Y-94943605D01*
X216493498Y-94812799D01*
X216374529Y-94707401D01*
X216233793Y-94633537D01*
X216079471Y-94595500D01*
X215934384Y-94595500D01*
X215866263Y-94575498D01*
X215845289Y-94558595D01*
X212536694Y-91250000D01*
X215740726Y-91250000D01*
X215759763Y-91418956D01*
X215793255Y-91514669D01*
X215815918Y-91579437D01*
X215833489Y-91607401D01*
X215906377Y-91723402D01*
X216026597Y-91843622D01*
X216026599Y-91843623D01*
X216026600Y-91843624D01*
X216170563Y-91934082D01*
X216331046Y-91990237D01*
X216500000Y-92009274D01*
X216668954Y-91990237D01*
X216829437Y-91934082D01*
X216973400Y-91843624D01*
X217093624Y-91723400D01*
X217184082Y-91579437D01*
X217240237Y-91418954D01*
X217259274Y-91250000D01*
X217240237Y-91081046D01*
X217184082Y-90920563D01*
X217093624Y-90776600D01*
X217093623Y-90776599D01*
X217093622Y-90776597D01*
X216973402Y-90656377D01*
X216883678Y-90600000D01*
X216829437Y-90565918D01*
X216765670Y-90543605D01*
X216668956Y-90509763D01*
X216500000Y-90490726D01*
X216331043Y-90509763D01*
X216170563Y-90565918D01*
X216026597Y-90656377D01*
X215906377Y-90776597D01*
X215815918Y-90920563D01*
X215759763Y-91081043D01*
X215740726Y-91250000D01*
X212536694Y-91250000D01*
X209996694Y-88710000D01*
X215740726Y-88710000D01*
X215759763Y-88878956D01*
X215775852Y-88924934D01*
X215815918Y-89039437D01*
X215880141Y-89141647D01*
X215906377Y-89183402D01*
X216026597Y-89303622D01*
X216026599Y-89303623D01*
X216026600Y-89303624D01*
X216170563Y-89394082D01*
X216331046Y-89450237D01*
X216500000Y-89469274D01*
X216668954Y-89450237D01*
X216829437Y-89394082D01*
X216973400Y-89303624D01*
X217093624Y-89183400D01*
X217184082Y-89039437D01*
X217240237Y-88878954D01*
X217259274Y-88710000D01*
X217240237Y-88541046D01*
X217184082Y-88380563D01*
X217093624Y-88236600D01*
X217093623Y-88236599D01*
X217093622Y-88236597D01*
X216973402Y-88116377D01*
X216931647Y-88090141D01*
X216829437Y-88025918D01*
X216775942Y-88007199D01*
X216668956Y-87969763D01*
X216500000Y-87950726D01*
X216331043Y-87969763D01*
X216170563Y-88025918D01*
X216026597Y-88116377D01*
X215906377Y-88236597D01*
X215815918Y-88380563D01*
X215759763Y-88541043D01*
X215740726Y-88710000D01*
X209996694Y-88710000D01*
X201143949Y-79857255D01*
X201109923Y-79794943D01*
X201113138Y-79749999D01*
X203090693Y-79749999D01*
X203109850Y-79907780D01*
X203166212Y-80056394D01*
X203216224Y-80128848D01*
X203256502Y-80187201D01*
X203375471Y-80292599D01*
X203516207Y-80366463D01*
X203670529Y-80404500D01*
X203670531Y-80404500D01*
X203829469Y-80404500D01*
X203829471Y-80404500D01*
X203983793Y-80366463D01*
X204124529Y-80292599D01*
X204172614Y-80249999D01*
X205590693Y-80249999D01*
X205609850Y-80407780D01*
X205666212Y-80556394D01*
X205666213Y-80556395D01*
X205756502Y-80687201D01*
X205875471Y-80792599D01*
X206016207Y-80866463D01*
X206170529Y-80904500D01*
X206170531Y-80904500D01*
X206329469Y-80904500D01*
X206329471Y-80904500D01*
X206483793Y-80866463D01*
X206624529Y-80792599D01*
X206743498Y-80687201D01*
X206833787Y-80556395D01*
X206890149Y-80407782D01*
X206909307Y-80250000D01*
X206890149Y-80092218D01*
X206833787Y-79943605D01*
X206743498Y-79812799D01*
X206624529Y-79707401D01*
X206483793Y-79633537D01*
X206329471Y-79595500D01*
X206170529Y-79595500D01*
X206016207Y-79633537D01*
X206016206Y-79633537D01*
X206016204Y-79633538D01*
X205875472Y-79707400D01*
X205756501Y-79812799D01*
X205666212Y-79943605D01*
X205609850Y-80092219D01*
X205590693Y-80249999D01*
X204172614Y-80249999D01*
X204243498Y-80187201D01*
X204333787Y-80056395D01*
X204390149Y-79907782D01*
X204409307Y-79750000D01*
X204390149Y-79592218D01*
X204333787Y-79443605D01*
X204243498Y-79312799D01*
X204124529Y-79207401D01*
X203983793Y-79133537D01*
X203829471Y-79095500D01*
X203670529Y-79095500D01*
X203516207Y-79133537D01*
X203516206Y-79133537D01*
X203516204Y-79133538D01*
X203375472Y-79207400D01*
X203256501Y-79312799D01*
X203166212Y-79443605D01*
X203109850Y-79592219D01*
X203090693Y-79749999D01*
X201113138Y-79749999D01*
X201114988Y-79724128D01*
X201115233Y-79723478D01*
X201140149Y-79657781D01*
X201159307Y-79500000D01*
X201140149Y-79342219D01*
X201128991Y-79312799D01*
X201083787Y-79193605D01*
X200993498Y-79062799D01*
X200874529Y-78957401D01*
X200733793Y-78883537D01*
X200579471Y-78845500D01*
X200420529Y-78845500D01*
X200266207Y-78883537D01*
X200266206Y-78883537D01*
X200266204Y-78883538D01*
X200125472Y-78957400D01*
X200006501Y-79062799D01*
X199916212Y-79193605D01*
X199859850Y-79342219D01*
X199840693Y-79500000D01*
X197629500Y-79500000D01*
X197629500Y-71959384D01*
X197649502Y-71891263D01*
X197666405Y-71870289D01*
X198286694Y-71250000D01*
X204590693Y-71250000D01*
X204609850Y-71407780D01*
X204666212Y-71556394D01*
X204756138Y-71686673D01*
X204756502Y-71687201D01*
X204875471Y-71792599D01*
X205016207Y-71866463D01*
X205170529Y-71904500D01*
X205170531Y-71904500D01*
X205329469Y-71904500D01*
X205329471Y-71904500D01*
X205483793Y-71866463D01*
X205624529Y-71792599D01*
X205743498Y-71687201D01*
X205833787Y-71556395D01*
X205876688Y-71443274D01*
X205919546Y-71386674D01*
X205986202Y-71362229D01*
X206055492Y-71377701D01*
X206105418Y-71428178D01*
X206120500Y-71487955D01*
X206120500Y-76405096D01*
X206100498Y-76473217D01*
X206078055Y-76499407D01*
X206006502Y-76562798D01*
X205916212Y-76693605D01*
X205859850Y-76842219D01*
X205840693Y-77000000D01*
X205859850Y-77157780D01*
X205916212Y-77306394D01*
X205916213Y-77306395D01*
X206006502Y-77437201D01*
X206125471Y-77542599D01*
X206266207Y-77616463D01*
X206420529Y-77654500D01*
X206420531Y-77654500D01*
X206579469Y-77654500D01*
X206579471Y-77654500D01*
X206733793Y-77616463D01*
X206874529Y-77542599D01*
X206993498Y-77437201D01*
X207083787Y-77306395D01*
X207140149Y-77157782D01*
X207159307Y-77000000D01*
X207140149Y-76842218D01*
X207083787Y-76693605D01*
X206993498Y-76562799D01*
X206921944Y-76499407D01*
X206884220Y-76439263D01*
X206879499Y-76405096D01*
X206879500Y-71280500D01*
X206899502Y-71212379D01*
X206953158Y-71165886D01*
X207005500Y-71154500D01*
X207079469Y-71154500D01*
X207079471Y-71154500D01*
X207233793Y-71116463D01*
X207374529Y-71042599D01*
X207493498Y-70937201D01*
X207583787Y-70806395D01*
X207640149Y-70657782D01*
X207659307Y-70500000D01*
X207640149Y-70342218D01*
X207583787Y-70193605D01*
X207493498Y-70062799D01*
X207374529Y-69957401D01*
X207233793Y-69883537D01*
X207079471Y-69845500D01*
X206920529Y-69845500D01*
X206766207Y-69883537D01*
X206766206Y-69883537D01*
X206766204Y-69883538D01*
X206625472Y-69957400D01*
X206506501Y-70062799D01*
X206416212Y-70193605D01*
X206359850Y-70342219D01*
X206340693Y-70499997D01*
X206346574Y-70548437D01*
X206334927Y-70618471D01*
X206310587Y-70652717D01*
X206268724Y-70694580D01*
X206248550Y-70710964D01*
X206239419Y-70716930D01*
X206219792Y-70742146D01*
X206209463Y-70753842D01*
X206209418Y-70753886D01*
X206197212Y-70770981D01*
X206194105Y-70775148D01*
X206156691Y-70823218D01*
X206156638Y-70823322D01*
X206139259Y-70881695D01*
X206137672Y-70886650D01*
X206117889Y-70944278D01*
X206117875Y-70944373D01*
X206120392Y-71005213D01*
X206120500Y-71010420D01*
X206120500Y-71012044D01*
X206100498Y-71080165D01*
X206046842Y-71126658D01*
X205976568Y-71136762D01*
X205911988Y-71107268D01*
X205876688Y-71056725D01*
X205859775Y-71012129D01*
X205833787Y-70943605D01*
X205743498Y-70812799D01*
X205624529Y-70707401D01*
X205483793Y-70633537D01*
X205329471Y-70595500D01*
X205170529Y-70595500D01*
X205016207Y-70633537D01*
X205016206Y-70633537D01*
X205016204Y-70633538D01*
X204875472Y-70707400D01*
X204756501Y-70812799D01*
X204666212Y-70943605D01*
X204609850Y-71092219D01*
X204590693Y-71250000D01*
X198286694Y-71250000D01*
X200120289Y-69416405D01*
X200182601Y-69382379D01*
X200209384Y-69379500D01*
X200650544Y-69379500D01*
X200718665Y-69399502D01*
X200754238Y-69433921D01*
X200756502Y-69437201D01*
X200875471Y-69542599D01*
X201016207Y-69616463D01*
X201170529Y-69654500D01*
X201170531Y-69654500D01*
X201329469Y-69654500D01*
X201329471Y-69654500D01*
X201483793Y-69616463D01*
X201624529Y-69542599D01*
X201743498Y-69437201D01*
X201833787Y-69306395D01*
X201890149Y-69157782D01*
X201909307Y-69000000D01*
X201890149Y-68842218D01*
X201833787Y-68693605D01*
X201743498Y-68562799D01*
X201624529Y-68457401D01*
X201483793Y-68383537D01*
X201329471Y-68345500D01*
X201170529Y-68345500D01*
X201016207Y-68383537D01*
X201016206Y-68383537D01*
X201016204Y-68383538D01*
X200875472Y-68457400D01*
X200875470Y-68457401D01*
X200875471Y-68457401D01*
X200756502Y-68562799D01*
X200754238Y-68566078D01*
X200699081Y-68610776D01*
X200650544Y-68620500D01*
X200052421Y-68620500D01*
X200026564Y-68617818D01*
X200024389Y-68617362D01*
X200015899Y-68615581D01*
X199984211Y-68619532D01*
X199968625Y-68620500D01*
X199968553Y-68620500D01*
X199947825Y-68623958D01*
X199942677Y-68624708D01*
X199882252Y-68632239D01*
X199882132Y-68632278D01*
X199828567Y-68661265D01*
X199823942Y-68663646D01*
X199769222Y-68690398D01*
X199769126Y-68690469D01*
X199727868Y-68735285D01*
X199724265Y-68739039D01*
X197018724Y-71444580D01*
X196998550Y-71460964D01*
X196989419Y-71466930D01*
X196969792Y-71492146D01*
X196959463Y-71503842D01*
X196959418Y-71503886D01*
X196947212Y-71520981D01*
X196944105Y-71525148D01*
X196906691Y-71573218D01*
X196906638Y-71573322D01*
X196889259Y-71631695D01*
X196887672Y-71636650D01*
X196867889Y-71694278D01*
X196867875Y-71694373D01*
X196870392Y-71755213D01*
X196870500Y-71760420D01*
X196870500Y-79697574D01*
X196867818Y-79723431D01*
X196865581Y-79734099D01*
X196869532Y-79765793D01*
X196870500Y-79781380D01*
X196870500Y-79781448D01*
X196873955Y-79802159D01*
X196874705Y-79807304D01*
X196882241Y-79867751D01*
X196882276Y-79867861D01*
X196911255Y-79921410D01*
X196913638Y-79926039D01*
X196940406Y-79980793D01*
X196940461Y-79980866D01*
X196985284Y-80022130D01*
X196989041Y-80025735D01*
X199583595Y-82620289D01*
X199617621Y-82682601D01*
X199620500Y-82709384D01*
X199620500Y-95040615D01*
X199600498Y-95108736D01*
X199583595Y-95129710D01*
X189768724Y-104944580D01*
X189748550Y-104960964D01*
X189739419Y-104966930D01*
X189719792Y-104992146D01*
X189709463Y-105003842D01*
X189709418Y-105003886D01*
X189697212Y-105020981D01*
X189694105Y-105025148D01*
X189656691Y-105073218D01*
X189656638Y-105073322D01*
X189639259Y-105131695D01*
X189637672Y-105136650D01*
X189617889Y-105194278D01*
X189617875Y-105194373D01*
X189620392Y-105255213D01*
X189620500Y-105260420D01*
X189620500Y-107655096D01*
X189600498Y-107723217D01*
X189578055Y-107749407D01*
X189506502Y-107812798D01*
X189416212Y-107943605D01*
X189359850Y-108092219D01*
X189339517Y-108259687D01*
X189311450Y-108324900D01*
X189252582Y-108364587D01*
X189214436Y-108370500D01*
X186599456Y-108370500D01*
X186531335Y-108350498D01*
X186495761Y-108316078D01*
X186493498Y-108312799D01*
X186374529Y-108207401D01*
X186233793Y-108133537D01*
X186079471Y-108095500D01*
X185934384Y-108095500D01*
X185866263Y-108075498D01*
X185845289Y-108058595D01*
X177555418Y-99768724D01*
X177539030Y-99748544D01*
X177533067Y-99739417D01*
X177507855Y-99719793D01*
X177496153Y-99709458D01*
X177496117Y-99709422D01*
X177479032Y-99697223D01*
X177474863Y-99694114D01*
X177449981Y-99674749D01*
X177433119Y-99661625D01*
X177433117Y-99661624D01*
X177426767Y-99656682D01*
X177426692Y-99656643D01*
X177368311Y-99639262D01*
X177363353Y-99637673D01*
X177305722Y-99617888D01*
X177305630Y-99617875D01*
X177244786Y-99620392D01*
X177239579Y-99620500D01*
X166349456Y-99620500D01*
X166281335Y-99600498D01*
X166245761Y-99566078D01*
X166243498Y-99562799D01*
X166124529Y-99457401D01*
X166001059Y-99392599D01*
X165983795Y-99383538D01*
X165983794Y-99383537D01*
X165983793Y-99383537D01*
X165829471Y-99345500D01*
X165670529Y-99345500D01*
X165516207Y-99383537D01*
X165516206Y-99383537D01*
X165516204Y-99383538D01*
X165375472Y-99457400D01*
X165265870Y-99554500D01*
X165256502Y-99562799D01*
X165254238Y-99566078D01*
X165199081Y-99610776D01*
X165150544Y-99620500D01*
X162326754Y-99620500D01*
X162258633Y-99600498D01*
X162237659Y-99583595D01*
X158698733Y-96044669D01*
X158664707Y-95982357D01*
X158669772Y-95911542D01*
X158712319Y-95854706D01*
X158728417Y-95844460D01*
X158747469Y-95834278D01*
X158902252Y-95707252D01*
X159029278Y-95552469D01*
X159123667Y-95375880D01*
X159181792Y-95184269D01*
X159201418Y-94985000D01*
X159698581Y-94985000D01*
X159718207Y-95184269D01*
X159773280Y-95365817D01*
X159776333Y-95375880D01*
X159870722Y-95552469D01*
X159920355Y-95612948D01*
X159997747Y-95707252D01*
X160075139Y-95770764D01*
X160152531Y-95834278D01*
X160329120Y-95928667D01*
X160395799Y-95948894D01*
X160520730Y-95986792D01*
X160719999Y-96006418D01*
X160719999Y-96006417D01*
X160720000Y-96006418D01*
X160919269Y-95986792D01*
X161110880Y-95928667D01*
X161287469Y-95834278D01*
X161442252Y-95707252D01*
X161569278Y-95552469D01*
X161663667Y-95375880D01*
X161721792Y-95184269D01*
X161741418Y-94985000D01*
X161741418Y-94984999D01*
X162238581Y-94984999D01*
X162258207Y-95184269D01*
X162313280Y-95365817D01*
X162316333Y-95375880D01*
X162410722Y-95552469D01*
X162460355Y-95612948D01*
X162537747Y-95707252D01*
X162615139Y-95770764D01*
X162692531Y-95834278D01*
X162869120Y-95928667D01*
X162935799Y-95948894D01*
X163060730Y-95986792D01*
X163260000Y-96006418D01*
X163459269Y-95986792D01*
X163650880Y-95928667D01*
X163827469Y-95834278D01*
X163982252Y-95707252D01*
X164109278Y-95552469D01*
X164203667Y-95375880D01*
X164261792Y-95184269D01*
X164281418Y-94985000D01*
X164778581Y-94985000D01*
X164798207Y-95184269D01*
X164853280Y-95365817D01*
X164856333Y-95375880D01*
X164950722Y-95552469D01*
X165000355Y-95612948D01*
X165077747Y-95707252D01*
X165155139Y-95770764D01*
X165232531Y-95834278D01*
X165409120Y-95928667D01*
X165475799Y-95948894D01*
X165600730Y-95986792D01*
X165800000Y-96006418D01*
X165999269Y-95986792D01*
X166190880Y-95928667D01*
X166367469Y-95834278D01*
X166522252Y-95707252D01*
X166649278Y-95552469D01*
X166743667Y-95375880D01*
X166801792Y-95184269D01*
X166821418Y-94985000D01*
X166821418Y-94984999D01*
X167318581Y-94984999D01*
X167338207Y-95184269D01*
X167393280Y-95365817D01*
X167396333Y-95375880D01*
X167490722Y-95552469D01*
X167540355Y-95612948D01*
X167617747Y-95707252D01*
X167695139Y-95770764D01*
X167772531Y-95834278D01*
X167949120Y-95928667D01*
X168015799Y-95948894D01*
X168140730Y-95986792D01*
X168340000Y-96006418D01*
X168539269Y-95986792D01*
X168730880Y-95928667D01*
X168907469Y-95834278D01*
X169062252Y-95707252D01*
X169189278Y-95552469D01*
X169283667Y-95375880D01*
X169341792Y-95184269D01*
X169361418Y-94985000D01*
X169361418Y-94984999D01*
X169858581Y-94984999D01*
X169878207Y-95184269D01*
X169933280Y-95365817D01*
X169936333Y-95375880D01*
X170030722Y-95552469D01*
X170080355Y-95612948D01*
X170157747Y-95707252D01*
X170235139Y-95770764D01*
X170312531Y-95834278D01*
X170489120Y-95928667D01*
X170555799Y-95948894D01*
X170680730Y-95986792D01*
X170880000Y-96006418D01*
X171079269Y-95986792D01*
X171270880Y-95928667D01*
X171447469Y-95834278D01*
X171602252Y-95707252D01*
X171729278Y-95552469D01*
X171823667Y-95375880D01*
X171881792Y-95184269D01*
X171901418Y-94985000D01*
X171901418Y-94984999D01*
X172398581Y-94984999D01*
X172418207Y-95184269D01*
X172473280Y-95365817D01*
X172476333Y-95375880D01*
X172570722Y-95552469D01*
X172620355Y-95612948D01*
X172697747Y-95707252D01*
X172775139Y-95770764D01*
X172852531Y-95834278D01*
X173029120Y-95928667D01*
X173095799Y-95948894D01*
X173220730Y-95986792D01*
X173419999Y-96006418D01*
X173419999Y-96006417D01*
X173420000Y-96006418D01*
X173619269Y-95986792D01*
X173810880Y-95928667D01*
X173987469Y-95834278D01*
X174142252Y-95707252D01*
X174269278Y-95552469D01*
X174363667Y-95375880D01*
X174421792Y-95184269D01*
X174441418Y-94985000D01*
X174441418Y-94984999D01*
X174938581Y-94984999D01*
X174958207Y-95184269D01*
X175013280Y-95365817D01*
X175016333Y-95375880D01*
X175110722Y-95552469D01*
X175160355Y-95612948D01*
X175237747Y-95707252D01*
X175315139Y-95770764D01*
X175392531Y-95834278D01*
X175569120Y-95928667D01*
X175635799Y-95948894D01*
X175760730Y-95986792D01*
X175960000Y-96006418D01*
X176159269Y-95986792D01*
X176350880Y-95928667D01*
X176527469Y-95834278D01*
X176682252Y-95707252D01*
X176809278Y-95552469D01*
X176903667Y-95375880D01*
X176961792Y-95184269D01*
X176981418Y-94985000D01*
X176981418Y-94984999D01*
X177478581Y-94984999D01*
X177498207Y-95184269D01*
X177553280Y-95365817D01*
X177556333Y-95375880D01*
X177650722Y-95552469D01*
X177700355Y-95612948D01*
X177777747Y-95707252D01*
X177855139Y-95770764D01*
X177932531Y-95834278D01*
X178109120Y-95928667D01*
X178175799Y-95948894D01*
X178300730Y-95986792D01*
X178499999Y-96006418D01*
X178499999Y-96006417D01*
X178500000Y-96006418D01*
X178699269Y-95986792D01*
X178890880Y-95928667D01*
X179067469Y-95834278D01*
X179222252Y-95707252D01*
X179349278Y-95552469D01*
X179443667Y-95375880D01*
X179501792Y-95184269D01*
X179521418Y-94985000D01*
X180018581Y-94985000D01*
X180038207Y-95184269D01*
X180093280Y-95365817D01*
X180096333Y-95375880D01*
X180190722Y-95552469D01*
X180240355Y-95612948D01*
X180317747Y-95707252D01*
X180395139Y-95770764D01*
X180472531Y-95834278D01*
X180649120Y-95928667D01*
X180715799Y-95948894D01*
X180840730Y-95986792D01*
X181040000Y-96006418D01*
X181239269Y-95986792D01*
X181430880Y-95928667D01*
X181607469Y-95834278D01*
X181762252Y-95707252D01*
X181889278Y-95552469D01*
X181983667Y-95375880D01*
X182041792Y-95184269D01*
X182061418Y-94985000D01*
X182558581Y-94985000D01*
X182578207Y-95184269D01*
X182633280Y-95365817D01*
X182636333Y-95375880D01*
X182730722Y-95552469D01*
X182780355Y-95612948D01*
X182857747Y-95707252D01*
X182935139Y-95770764D01*
X183012531Y-95834278D01*
X183189120Y-95928667D01*
X183255799Y-95948894D01*
X183380730Y-95986792D01*
X183580000Y-96006418D01*
X183779269Y-95986792D01*
X183970880Y-95928667D01*
X184147469Y-95834278D01*
X184302252Y-95707252D01*
X184429278Y-95552469D01*
X184523667Y-95375880D01*
X184581792Y-95184269D01*
X184601418Y-94985000D01*
X184601418Y-94984999D01*
X185098581Y-94984999D01*
X185118207Y-95184269D01*
X185173280Y-95365817D01*
X185176333Y-95375880D01*
X185270722Y-95552469D01*
X185320355Y-95612948D01*
X185397747Y-95707252D01*
X185475139Y-95770764D01*
X185552531Y-95834278D01*
X185729120Y-95928667D01*
X185795799Y-95948894D01*
X185920730Y-95986792D01*
X186120000Y-96006418D01*
X186319269Y-95986792D01*
X186510880Y-95928667D01*
X186687469Y-95834278D01*
X186842252Y-95707252D01*
X186969278Y-95552469D01*
X187063667Y-95375880D01*
X187121792Y-95184269D01*
X187141418Y-94985000D01*
X187141418Y-94984999D01*
X187638581Y-94984999D01*
X187658207Y-95184269D01*
X187713280Y-95365817D01*
X187716333Y-95375880D01*
X187810722Y-95552469D01*
X187860355Y-95612948D01*
X187937747Y-95707252D01*
X188015139Y-95770764D01*
X188092531Y-95834278D01*
X188269120Y-95928667D01*
X188335799Y-95948894D01*
X188460730Y-95986792D01*
X188659999Y-96006418D01*
X188659999Y-96006417D01*
X188660000Y-96006418D01*
X188859269Y-95986792D01*
X189050880Y-95928667D01*
X189227469Y-95834278D01*
X189382252Y-95707252D01*
X189509278Y-95552469D01*
X189603667Y-95375880D01*
X189661792Y-95184269D01*
X189681418Y-94985000D01*
X190178581Y-94985000D01*
X190198207Y-95184269D01*
X190253280Y-95365817D01*
X190256333Y-95375880D01*
X190350722Y-95552469D01*
X190400355Y-95612948D01*
X190477747Y-95707252D01*
X190555139Y-95770764D01*
X190632531Y-95834278D01*
X190809120Y-95928667D01*
X190875799Y-95948894D01*
X191000730Y-95986792D01*
X191200000Y-96006418D01*
X191399269Y-95986792D01*
X191590880Y-95928667D01*
X191767469Y-95834278D01*
X191922252Y-95707252D01*
X192049278Y-95552469D01*
X192143667Y-95375880D01*
X192201792Y-95184269D01*
X192221418Y-94985000D01*
X192718581Y-94985000D01*
X192738207Y-95184269D01*
X192793280Y-95365817D01*
X192796333Y-95375880D01*
X192890722Y-95552469D01*
X192940355Y-95612948D01*
X193017747Y-95707252D01*
X193095139Y-95770764D01*
X193172531Y-95834278D01*
X193349120Y-95928667D01*
X193415799Y-95948894D01*
X193540730Y-95986792D01*
X193739999Y-96006418D01*
X193739999Y-96006417D01*
X193740000Y-96006418D01*
X193939269Y-95986792D01*
X194130880Y-95928667D01*
X194307469Y-95834278D01*
X194462252Y-95707252D01*
X194589278Y-95552469D01*
X194683667Y-95375880D01*
X194741792Y-95184269D01*
X194761418Y-94985000D01*
X194761418Y-94984999D01*
X195258581Y-94984999D01*
X195278207Y-95184269D01*
X195333280Y-95365817D01*
X195336333Y-95375880D01*
X195430722Y-95552469D01*
X195480355Y-95612948D01*
X195557747Y-95707252D01*
X195635139Y-95770764D01*
X195712531Y-95834278D01*
X195889120Y-95928667D01*
X195955799Y-95948894D01*
X196080730Y-95986792D01*
X196280000Y-96006418D01*
X196479269Y-95986792D01*
X196670880Y-95928667D01*
X196847469Y-95834278D01*
X197002252Y-95707252D01*
X197129278Y-95552469D01*
X197223667Y-95375880D01*
X197281792Y-95184269D01*
X197301418Y-94985000D01*
X197281792Y-94785731D01*
X197223667Y-94594120D01*
X197129278Y-94417531D01*
X197065764Y-94340139D01*
X197002252Y-94262747D01*
X196907948Y-94185355D01*
X196847469Y-94135722D01*
X196670880Y-94041333D01*
X196670879Y-94041332D01*
X196670878Y-94041332D01*
X196479269Y-93983207D01*
X196280000Y-93963581D01*
X196080730Y-93983207D01*
X195889121Y-94041332D01*
X195712532Y-94135721D01*
X195557747Y-94262747D01*
X195430721Y-94417532D01*
X195336332Y-94594121D01*
X195278207Y-94785730D01*
X195258581Y-94984999D01*
X194761418Y-94984999D01*
X194741792Y-94785731D01*
X194683667Y-94594120D01*
X194589278Y-94417531D01*
X194525765Y-94340139D01*
X194462252Y-94262747D01*
X194367948Y-94185355D01*
X194307469Y-94135722D01*
X194130880Y-94041333D01*
X194130879Y-94041332D01*
X194130878Y-94041332D01*
X193939269Y-93983207D01*
X193740000Y-93963581D01*
X193540730Y-93983207D01*
X193349121Y-94041332D01*
X193172532Y-94135721D01*
X193017747Y-94262747D01*
X192890721Y-94417532D01*
X192796332Y-94594121D01*
X192738207Y-94785730D01*
X192718581Y-94985000D01*
X192221418Y-94985000D01*
X192201792Y-94785731D01*
X192143667Y-94594120D01*
X192049278Y-94417531D01*
X191985764Y-94340139D01*
X191922252Y-94262747D01*
X191827948Y-94185355D01*
X191767469Y-94135722D01*
X191590880Y-94041333D01*
X191590879Y-94041332D01*
X191590878Y-94041332D01*
X191399269Y-93983207D01*
X191200000Y-93963581D01*
X191000730Y-93983207D01*
X190809121Y-94041332D01*
X190632532Y-94135721D01*
X190477747Y-94262747D01*
X190350721Y-94417532D01*
X190256332Y-94594121D01*
X190198207Y-94785730D01*
X190178581Y-94985000D01*
X189681418Y-94985000D01*
X189661792Y-94785731D01*
X189603667Y-94594120D01*
X189509278Y-94417531D01*
X189445765Y-94340139D01*
X189382252Y-94262747D01*
X189287948Y-94185355D01*
X189227469Y-94135722D01*
X189050880Y-94041333D01*
X189050879Y-94041332D01*
X189050878Y-94041332D01*
X188859269Y-93983207D01*
X188660000Y-93963581D01*
X188460730Y-93983207D01*
X188269121Y-94041332D01*
X188092532Y-94135721D01*
X187937747Y-94262747D01*
X187810721Y-94417532D01*
X187716332Y-94594121D01*
X187658207Y-94785730D01*
X187638581Y-94984999D01*
X187141418Y-94984999D01*
X187121792Y-94785731D01*
X187063667Y-94594120D01*
X186969278Y-94417531D01*
X186905765Y-94340139D01*
X186842252Y-94262747D01*
X186747948Y-94185355D01*
X186687469Y-94135722D01*
X186510880Y-94041333D01*
X186510879Y-94041332D01*
X186510878Y-94041332D01*
X186319269Y-93983207D01*
X186120000Y-93963581D01*
X185920730Y-93983207D01*
X185729121Y-94041332D01*
X185552532Y-94135721D01*
X185397747Y-94262747D01*
X185270721Y-94417532D01*
X185176332Y-94594121D01*
X185118207Y-94785730D01*
X185098581Y-94984999D01*
X184601418Y-94984999D01*
X184581792Y-94785731D01*
X184523667Y-94594120D01*
X184429278Y-94417531D01*
X184365765Y-94340139D01*
X184302252Y-94262747D01*
X184207948Y-94185355D01*
X184147469Y-94135722D01*
X183970880Y-94041333D01*
X183970879Y-94041332D01*
X183970878Y-94041332D01*
X183779269Y-93983207D01*
X183579999Y-93963581D01*
X183380730Y-93983207D01*
X183189121Y-94041332D01*
X183012532Y-94135721D01*
X182857747Y-94262747D01*
X182730721Y-94417532D01*
X182636332Y-94594121D01*
X182578207Y-94785730D01*
X182558581Y-94985000D01*
X182061418Y-94985000D01*
X182041792Y-94785731D01*
X181983667Y-94594120D01*
X181889278Y-94417531D01*
X181825764Y-94340139D01*
X181762252Y-94262747D01*
X181667948Y-94185355D01*
X181607469Y-94135722D01*
X181430880Y-94041333D01*
X181430879Y-94041332D01*
X181430878Y-94041332D01*
X181239269Y-93983207D01*
X181039999Y-93963581D01*
X180840730Y-93983207D01*
X180649121Y-94041332D01*
X180472532Y-94135721D01*
X180317747Y-94262747D01*
X180190721Y-94417532D01*
X180096332Y-94594121D01*
X180038207Y-94785730D01*
X180018581Y-94985000D01*
X179521418Y-94985000D01*
X179501792Y-94785731D01*
X179443667Y-94594120D01*
X179349278Y-94417531D01*
X179285765Y-94340139D01*
X179222252Y-94262747D01*
X179127948Y-94185355D01*
X179067469Y-94135722D01*
X178890880Y-94041333D01*
X178890879Y-94041332D01*
X178890878Y-94041332D01*
X178699269Y-93983207D01*
X178500000Y-93963581D01*
X178300730Y-93983207D01*
X178109121Y-94041332D01*
X177932532Y-94135721D01*
X177777747Y-94262747D01*
X177650721Y-94417532D01*
X177556332Y-94594121D01*
X177498207Y-94785730D01*
X177478581Y-94984999D01*
X176981418Y-94984999D01*
X176961792Y-94785731D01*
X176903667Y-94594120D01*
X176809278Y-94417531D01*
X176745765Y-94340139D01*
X176682252Y-94262747D01*
X176587948Y-94185355D01*
X176527469Y-94135722D01*
X176350880Y-94041333D01*
X176350879Y-94041332D01*
X176350878Y-94041332D01*
X176159269Y-93983207D01*
X175960000Y-93963581D01*
X175760730Y-93983207D01*
X175569121Y-94041332D01*
X175392532Y-94135721D01*
X175237747Y-94262747D01*
X175110721Y-94417532D01*
X175016332Y-94594121D01*
X174958207Y-94785730D01*
X174938581Y-94984999D01*
X174441418Y-94984999D01*
X174421792Y-94785731D01*
X174363667Y-94594120D01*
X174269278Y-94417531D01*
X174205765Y-94340139D01*
X174142252Y-94262747D01*
X174047948Y-94185355D01*
X173987469Y-94135722D01*
X173810880Y-94041333D01*
X173810879Y-94041332D01*
X173810878Y-94041332D01*
X173619269Y-93983207D01*
X173420000Y-93963581D01*
X173220730Y-93983207D01*
X173029121Y-94041332D01*
X172852532Y-94135721D01*
X172697747Y-94262747D01*
X172570721Y-94417532D01*
X172476332Y-94594121D01*
X172418207Y-94785730D01*
X172398581Y-94984999D01*
X171901418Y-94984999D01*
X171881792Y-94785731D01*
X171823667Y-94594120D01*
X171729278Y-94417531D01*
X171665764Y-94340139D01*
X171602252Y-94262747D01*
X171507948Y-94185355D01*
X171447469Y-94135722D01*
X171270880Y-94041333D01*
X171270879Y-94041332D01*
X171270878Y-94041332D01*
X171079269Y-93983207D01*
X170880000Y-93963581D01*
X170680730Y-93983207D01*
X170489121Y-94041332D01*
X170312532Y-94135721D01*
X170157747Y-94262747D01*
X170030721Y-94417532D01*
X169936332Y-94594121D01*
X169878207Y-94785730D01*
X169858581Y-94984999D01*
X169361418Y-94984999D01*
X169341792Y-94785731D01*
X169283667Y-94594120D01*
X169189278Y-94417531D01*
X169125765Y-94340139D01*
X169062252Y-94262747D01*
X168967948Y-94185355D01*
X168907469Y-94135722D01*
X168730880Y-94041333D01*
X168730879Y-94041332D01*
X168730878Y-94041332D01*
X168539269Y-93983207D01*
X168339999Y-93963581D01*
X168140730Y-93983207D01*
X167949121Y-94041332D01*
X167772532Y-94135721D01*
X167617747Y-94262747D01*
X167490721Y-94417532D01*
X167396332Y-94594121D01*
X167338207Y-94785730D01*
X167318581Y-94984999D01*
X166821418Y-94984999D01*
X166801792Y-94785731D01*
X166743667Y-94594120D01*
X166649278Y-94417531D01*
X166585765Y-94340139D01*
X166522252Y-94262747D01*
X166427948Y-94185355D01*
X166367469Y-94135722D01*
X166190880Y-94041333D01*
X166190879Y-94041332D01*
X166190878Y-94041332D01*
X165999269Y-93983207D01*
X165799999Y-93963581D01*
X165600730Y-93983207D01*
X165409121Y-94041332D01*
X165232532Y-94135721D01*
X165077747Y-94262747D01*
X164950721Y-94417532D01*
X164856332Y-94594121D01*
X164798207Y-94785730D01*
X164778581Y-94985000D01*
X164281418Y-94985000D01*
X164261792Y-94785731D01*
X164203667Y-94594120D01*
X164109278Y-94417531D01*
X164045765Y-94340139D01*
X163982252Y-94262747D01*
X163887948Y-94185355D01*
X163827469Y-94135722D01*
X163650880Y-94041333D01*
X163650879Y-94041332D01*
X163650878Y-94041332D01*
X163459269Y-93983207D01*
X163260000Y-93963581D01*
X163060730Y-93983207D01*
X162869121Y-94041332D01*
X162692532Y-94135721D01*
X162537747Y-94262747D01*
X162410721Y-94417532D01*
X162316332Y-94594121D01*
X162258207Y-94785730D01*
X162238581Y-94984999D01*
X161741418Y-94984999D01*
X161721792Y-94785731D01*
X161663667Y-94594120D01*
X161569278Y-94417531D01*
X161505764Y-94340139D01*
X161442252Y-94262747D01*
X161347948Y-94185355D01*
X161287469Y-94135722D01*
X161110880Y-94041333D01*
X161110879Y-94041332D01*
X161110878Y-94041332D01*
X160919269Y-93983207D01*
X160720000Y-93963581D01*
X160520730Y-93983207D01*
X160329121Y-94041332D01*
X160152532Y-94135721D01*
X159997747Y-94262747D01*
X159870721Y-94417532D01*
X159776332Y-94594121D01*
X159718207Y-94785730D01*
X159698581Y-94985000D01*
X159201418Y-94985000D01*
X159181792Y-94785731D01*
X159123667Y-94594120D01*
X159029278Y-94417531D01*
X158965765Y-94340139D01*
X158902252Y-94262747D01*
X158807948Y-94185355D01*
X158747469Y-94135722D01*
X158570880Y-94041333D01*
X158570879Y-94041332D01*
X158570878Y-94041332D01*
X158379269Y-93983207D01*
X158180000Y-93963581D01*
X157980730Y-93983207D01*
X157789121Y-94041332D01*
X157612532Y-94135721D01*
X157457747Y-94262747D01*
X157330721Y-94417532D01*
X157236332Y-94594121D01*
X157178207Y-94785730D01*
X157158581Y-94984999D01*
X156661418Y-94984999D01*
X156641792Y-94785731D01*
X156583667Y-94594120D01*
X156489278Y-94417531D01*
X156425765Y-94340139D01*
X156362252Y-94262747D01*
X156267948Y-94185355D01*
X156207469Y-94135722D01*
X156030880Y-94041333D01*
X156030879Y-94041332D01*
X156030878Y-94041332D01*
X155839269Y-93983207D01*
X155640000Y-93963581D01*
X155440730Y-93983207D01*
X155249121Y-94041332D01*
X155072532Y-94135721D01*
X154917747Y-94262747D01*
X154790721Y-94417532D01*
X154696332Y-94594121D01*
X154638207Y-94785730D01*
X154618581Y-94985000D01*
X154121418Y-94985000D01*
X154101792Y-94785731D01*
X154043667Y-94594120D01*
X153949278Y-94417531D01*
X153885765Y-94340139D01*
X153822252Y-94262747D01*
X153727948Y-94185355D01*
X153667469Y-94135722D01*
X153490880Y-94041333D01*
X153490879Y-94041332D01*
X153490878Y-94041332D01*
X153299269Y-93983207D01*
X153100000Y-93963581D01*
X152900730Y-93983207D01*
X152709121Y-94041332D01*
X152532532Y-94135721D01*
X152377747Y-94262747D01*
X152250721Y-94417532D01*
X152156332Y-94594121D01*
X152098207Y-94785730D01*
X152078581Y-94984999D01*
X140194500Y-94984999D01*
X140194500Y-93321161D01*
X140214502Y-93253040D01*
X140231405Y-93232066D01*
X140627428Y-92836043D01*
X140686366Y-92802800D01*
X140833793Y-92766463D01*
X140974529Y-92692599D01*
X141093498Y-92587201D01*
X141183787Y-92456395D01*
X141240149Y-92307782D01*
X141259307Y-92150000D01*
X141240149Y-91992218D01*
X141183787Y-91843605D01*
X141093498Y-91712799D01*
X140974529Y-91607401D01*
X140833793Y-91533537D01*
X140679471Y-91495500D01*
X140520529Y-91495500D01*
X140366207Y-91533537D01*
X140366206Y-91533537D01*
X140366204Y-91533538D01*
X140225472Y-91607400D01*
X140106501Y-91712799D01*
X140016213Y-91843604D01*
X139959850Y-91992219D01*
X139953418Y-92045190D01*
X139925350Y-92110402D01*
X139917432Y-92119095D01*
X139381194Y-92655333D01*
X139360227Y-92672232D01*
X139356224Y-92674804D01*
X139323469Y-92712605D01*
X139317347Y-92719181D01*
X139307748Y-92728780D01*
X139299612Y-92739648D01*
X139293976Y-92746642D01*
X139261222Y-92784442D01*
X139259246Y-92788770D01*
X139245511Y-92811918D01*
X139242657Y-92815730D01*
X139225172Y-92862607D01*
X139221733Y-92870911D01*
X139200957Y-92916405D01*
X139200281Y-92921110D01*
X139193624Y-92947194D01*
X139191960Y-92951654D01*
X139188391Y-93001548D01*
X139187431Y-93010477D01*
X139185500Y-93023915D01*
X139185500Y-93037483D01*
X139185179Y-93046471D01*
X139181611Y-93096360D01*
X139182620Y-93100998D01*
X139185500Y-93127782D01*
X139185500Y-96229500D01*
X139165498Y-96297621D01*
X139111842Y-96344114D01*
X139059500Y-96355500D01*
X138031161Y-96355500D01*
X137963040Y-96335498D01*
X137942066Y-96318595D01*
X135081405Y-93457934D01*
X135047379Y-93395622D01*
X135044500Y-93368839D01*
X135044500Y-92480525D01*
X135064502Y-92412404D01*
X135066804Y-92408948D01*
X135123787Y-92326395D01*
X135180149Y-92177782D01*
X135199307Y-92020000D01*
X135180149Y-91862218D01*
X135123787Y-91713605D01*
X135033498Y-91582799D01*
X135024482Y-91574811D01*
X134986757Y-91514669D01*
X134987537Y-91443676D01*
X135026574Y-91384375D01*
X135091475Y-91355593D01*
X135108036Y-91354500D01*
X136284680Y-91354500D01*
X136352801Y-91374502D01*
X136368233Y-91386188D01*
X136375467Y-91392596D01*
X136375468Y-91392596D01*
X136375471Y-91392599D01*
X136516207Y-91466463D01*
X136670529Y-91504500D01*
X136670531Y-91504500D01*
X136829469Y-91504500D01*
X136829471Y-91504500D01*
X136983793Y-91466463D01*
X137124529Y-91392599D01*
X137243498Y-91287201D01*
X137333787Y-91156395D01*
X137390149Y-91007782D01*
X137409307Y-90850000D01*
X137390149Y-90692218D01*
X137333787Y-90543605D01*
X137243498Y-90412799D01*
X137124529Y-90307401D01*
X136983793Y-90233537D01*
X136829471Y-90195500D01*
X136670529Y-90195500D01*
X136516206Y-90233536D01*
X136516207Y-90233537D01*
X136375467Y-90307403D01*
X136368233Y-90313812D01*
X136303980Y-90344013D01*
X136284680Y-90345500D01*
X134361161Y-90345500D01*
X134293040Y-90325498D01*
X134272066Y-90308595D01*
X133654668Y-89691197D01*
X133637765Y-89670223D01*
X133635196Y-89666225D01*
X133597388Y-89633464D01*
X133590806Y-89627335D01*
X133581220Y-89617749D01*
X133570346Y-89609608D01*
X133563357Y-89603976D01*
X133525558Y-89571223D01*
X133525555Y-89571220D01*
X133521227Y-89569244D01*
X133498069Y-89555503D01*
X133494268Y-89552657D01*
X133478482Y-89546769D01*
X133447385Y-89535170D01*
X133439095Y-89531736D01*
X133393595Y-89510957D01*
X133388895Y-89510282D01*
X133362795Y-89503621D01*
X133358342Y-89501960D01*
X133308441Y-89498390D01*
X133299508Y-89497429D01*
X133286087Y-89495500D01*
X133286083Y-89495500D01*
X133272516Y-89495500D01*
X133263529Y-89495179D01*
X133213640Y-89491611D01*
X133213639Y-89491611D01*
X133208997Y-89492621D01*
X133182216Y-89495500D01*
X117930499Y-89495500D01*
X117862378Y-89475498D01*
X117815885Y-89421842D01*
X117804499Y-89369500D01*
X117804499Y-89183400D01*
X117804499Y-88924934D01*
X117789734Y-88850699D01*
X117789733Y-88850698D01*
X117733484Y-88766515D01*
X117649301Y-88710266D01*
X117647959Y-88709999D01*
X117575067Y-88695500D01*
X117575066Y-88695500D01*
X117409470Y-88695500D01*
X117341349Y-88675498D01*
X117294856Y-88621842D01*
X117284752Y-88551568D01*
X117314246Y-88486988D01*
X117337198Y-88466288D01*
X117338804Y-88465162D01*
X117341719Y-88463122D01*
X117503122Y-88301719D01*
X117634046Y-88114742D01*
X117730512Y-87907870D01*
X117789589Y-87687389D01*
X117809483Y-87460000D01*
X117789589Y-87232611D01*
X117730512Y-87012130D01*
X117634046Y-86805259D01*
X117503122Y-86618281D01*
X117503121Y-86618280D01*
X117503119Y-86618277D01*
X117341722Y-86456880D01*
X117154742Y-86325954D01*
X116947870Y-86229487D01*
X116727389Y-86170411D01*
X116500000Y-86150517D01*
X116272610Y-86170411D01*
X116052129Y-86229487D01*
X115845258Y-86325954D01*
X115658277Y-86456880D01*
X115496880Y-86618277D01*
X115365954Y-86805258D01*
X115269487Y-87012129D01*
X115210411Y-87232610D01*
X115190517Y-87460000D01*
X111525500Y-87460000D01*
X111525500Y-84499999D01*
X126340693Y-84499999D01*
X126359850Y-84657780D01*
X126416212Y-84806394D01*
X126416213Y-84806395D01*
X126506502Y-84937201D01*
X126625471Y-85042599D01*
X126766207Y-85116463D01*
X126913633Y-85152800D01*
X126972572Y-85186043D01*
X129295332Y-87508803D01*
X129312230Y-87529770D01*
X129314804Y-87533775D01*
X129352619Y-87566542D01*
X129359173Y-87572644D01*
X129368779Y-87582250D01*
X129379645Y-87590384D01*
X129386628Y-87596011D01*
X129424442Y-87628777D01*
X129428758Y-87630748D01*
X129451924Y-87644492D01*
X129455733Y-87647343D01*
X129502605Y-87664825D01*
X129510892Y-87668257D01*
X129556404Y-87689042D01*
X129561099Y-87689716D01*
X129587213Y-87696382D01*
X129591658Y-87698040D01*
X129641560Y-87701608D01*
X129650494Y-87702569D01*
X129656921Y-87703493D01*
X129663916Y-87704500D01*
X129663917Y-87704500D01*
X129677473Y-87704500D01*
X129686461Y-87704821D01*
X129689458Y-87705035D01*
X129736360Y-87708390D01*
X129741003Y-87707379D01*
X129767786Y-87704500D01*
X139888839Y-87704500D01*
X139956960Y-87724502D01*
X139977934Y-87741405D01*
X142867432Y-90630903D01*
X142901458Y-90693215D01*
X142903418Y-90704809D01*
X142909850Y-90757780D01*
X142966213Y-90906395D01*
X143026882Y-90994290D01*
X143056502Y-91037201D01*
X143175471Y-91142599D01*
X143316207Y-91216463D01*
X143470529Y-91254500D01*
X143470531Y-91254500D01*
X143629469Y-91254500D01*
X143629471Y-91254500D01*
X143783793Y-91216463D01*
X143924529Y-91142599D01*
X144043498Y-91037201D01*
X144133787Y-90906395D01*
X144190149Y-90757782D01*
X144209307Y-90600000D01*
X144190149Y-90442218D01*
X144133787Y-90293605D01*
X144043498Y-90162799D01*
X143924529Y-90057401D01*
X143783793Y-89983537D01*
X143636367Y-89947199D01*
X143577427Y-89913956D01*
X140554668Y-86891197D01*
X140537765Y-86870223D01*
X140535196Y-86866225D01*
X140497388Y-86833464D01*
X140490806Y-86827335D01*
X140481220Y-86817749D01*
X140470346Y-86809608D01*
X140463357Y-86803976D01*
X140434276Y-86778777D01*
X140425555Y-86771220D01*
X140421227Y-86769244D01*
X140398069Y-86755503D01*
X140394268Y-86752657D01*
X140376486Y-86746025D01*
X140347385Y-86735170D01*
X140339095Y-86731736D01*
X140293595Y-86710957D01*
X140288895Y-86710282D01*
X140262795Y-86703621D01*
X140258342Y-86701960D01*
X140208441Y-86698390D01*
X140199508Y-86697429D01*
X140186087Y-86695500D01*
X140186083Y-86695500D01*
X140172516Y-86695500D01*
X140163529Y-86695179D01*
X140113640Y-86691611D01*
X140113639Y-86691611D01*
X140108997Y-86692621D01*
X140082216Y-86695500D01*
X129961161Y-86695500D01*
X129893040Y-86675498D01*
X129872066Y-86658595D01*
X129563471Y-86350000D01*
X142340693Y-86350000D01*
X142359850Y-86507780D01*
X142416212Y-86656394D01*
X142502046Y-86780745D01*
X142506502Y-86787201D01*
X142625471Y-86892599D01*
X142766207Y-86966463D01*
X142920529Y-87004500D01*
X142920531Y-87004500D01*
X143079469Y-87004500D01*
X143079471Y-87004500D01*
X143233793Y-86966463D01*
X143374529Y-86892599D01*
X143376112Y-86891197D01*
X143381767Y-86886188D01*
X143446020Y-86855987D01*
X143465320Y-86854500D01*
X154182216Y-86854500D01*
X154208996Y-86857378D01*
X154213640Y-86858389D01*
X154263529Y-86854820D01*
X154272516Y-86854500D01*
X154286080Y-86854500D01*
X154286083Y-86854500D01*
X154299523Y-86852567D01*
X154308439Y-86851608D01*
X154358342Y-86848040D01*
X154362792Y-86846379D01*
X154388900Y-86839716D01*
X154393596Y-86839042D01*
X154439099Y-86818260D01*
X154447373Y-86814832D01*
X154494267Y-86797343D01*
X154498070Y-86794495D01*
X154521238Y-86780749D01*
X154525558Y-86778777D01*
X154563364Y-86746016D01*
X154570343Y-86740392D01*
X154581221Y-86732250D01*
X154590831Y-86722639D01*
X154597370Y-86716550D01*
X154635196Y-86683775D01*
X154637767Y-86679773D01*
X154654665Y-86658804D01*
X159077429Y-82236041D01*
X159136364Y-82202800D01*
X159283793Y-82166463D01*
X159424529Y-82092599D01*
X159543498Y-81987201D01*
X159633787Y-81856395D01*
X159690149Y-81707782D01*
X159709307Y-81550000D01*
X159690149Y-81392218D01*
X159633787Y-81243605D01*
X159543498Y-81112799D01*
X159424529Y-81007401D01*
X159283793Y-80933537D01*
X159129471Y-80895500D01*
X158970529Y-80895500D01*
X158816207Y-80933537D01*
X158816206Y-80933537D01*
X158816204Y-80933538D01*
X158675472Y-81007400D01*
X158556501Y-81112799D01*
X158466213Y-81243604D01*
X158409850Y-81392219D01*
X158403418Y-81445190D01*
X158375350Y-81510402D01*
X158367432Y-81519095D01*
X154077934Y-85808595D01*
X154015622Y-85842620D01*
X153988839Y-85845500D01*
X143465320Y-85845500D01*
X143397199Y-85825498D01*
X143381767Y-85813812D01*
X143374532Y-85807403D01*
X143374530Y-85807402D01*
X143374529Y-85807401D01*
X143233793Y-85733537D01*
X143079471Y-85695500D01*
X142920529Y-85695500D01*
X142766207Y-85733537D01*
X142766206Y-85733537D01*
X142766204Y-85733538D01*
X142625472Y-85807400D01*
X142506501Y-85912799D01*
X142416212Y-86043605D01*
X142359850Y-86192219D01*
X142340693Y-86350000D01*
X129563471Y-86350000D01*
X127682566Y-84469095D01*
X127648540Y-84406783D01*
X127646580Y-84395186D01*
X127640149Y-84342219D01*
X127583787Y-84193605D01*
X127493498Y-84062799D01*
X127493497Y-84062799D01*
X127374529Y-83957401D01*
X127233793Y-83883537D01*
X127079471Y-83845500D01*
X126920529Y-83845500D01*
X126766207Y-83883537D01*
X126766206Y-83883537D01*
X126766204Y-83883538D01*
X126625472Y-83957400D01*
X126506501Y-84062799D01*
X126416212Y-84193605D01*
X126359850Y-84342219D01*
X126340693Y-84499999D01*
X111525500Y-84499999D01*
X111525500Y-71460000D01*
X115190517Y-71460000D01*
X115210411Y-71687389D01*
X115269487Y-71907870D01*
X115365954Y-72114742D01*
X115496880Y-72301722D01*
X115658276Y-72463118D01*
X115658279Y-72463120D01*
X115658281Y-72463122D01*
X115662800Y-72466286D01*
X115707129Y-72521741D01*
X115714440Y-72592360D01*
X115682411Y-72655721D01*
X115621210Y-72691708D01*
X115590532Y-72695500D01*
X115424932Y-72695500D01*
X115350699Y-72710265D01*
X115266515Y-72766515D01*
X115210266Y-72850698D01*
X115195500Y-72924933D01*
X115195500Y-75075068D01*
X115210265Y-75149300D01*
X115266515Y-75233484D01*
X115322765Y-75271068D01*
X115350699Y-75289734D01*
X115424933Y-75304500D01*
X117575066Y-75304499D01*
X117575068Y-75304499D01*
X117624555Y-75294655D01*
X117649301Y-75289734D01*
X117733484Y-75233484D01*
X117789734Y-75149301D01*
X117804500Y-75075067D01*
X117804499Y-72924934D01*
X117804499Y-72924933D01*
X117804499Y-72924931D01*
X117789734Y-72850699D01*
X117733484Y-72766515D01*
X117649301Y-72710266D01*
X117649296Y-72710265D01*
X117575067Y-72695500D01*
X117575066Y-72695500D01*
X117409470Y-72695500D01*
X117341349Y-72675498D01*
X117294856Y-72621842D01*
X117284752Y-72551568D01*
X117314246Y-72486988D01*
X117337198Y-72466288D01*
X117338804Y-72465162D01*
X117341719Y-72463122D01*
X117503122Y-72301719D01*
X117634046Y-72114742D01*
X117730512Y-71907870D01*
X117789589Y-71687389D01*
X117809483Y-71460000D01*
X117801974Y-71374169D01*
X125381649Y-71374169D01*
X125394065Y-71444580D01*
X125412277Y-71547867D01*
X125482136Y-71709819D01*
X125587459Y-71851292D01*
X125587460Y-71851293D01*
X125587461Y-71851294D01*
X125722573Y-71964667D01*
X125880189Y-72043824D01*
X126051812Y-72084500D01*
X130635853Y-72084500D01*
X130654113Y-72085830D01*
X130660125Y-72086710D01*
X130677906Y-72089315D01*
X130727468Y-72084978D01*
X130738448Y-72084500D01*
X130740272Y-72084500D01*
X130743941Y-72084500D01*
X130774886Y-72080882D01*
X130778446Y-72080518D01*
X130853612Y-72073943D01*
X130853616Y-72073941D01*
X130854995Y-72073821D01*
X130873880Y-72069634D01*
X130875181Y-72069160D01*
X130875184Y-72069160D01*
X130946020Y-72043377D01*
X130949458Y-72042183D01*
X130986738Y-72029828D01*
X131021036Y-72018464D01*
X131021037Y-72018462D01*
X131022350Y-72018028D01*
X131039763Y-72009598D01*
X131040918Y-72008837D01*
X131040924Y-72008836D01*
X131103972Y-71967367D01*
X131106947Y-71965472D01*
X131171154Y-71925870D01*
X131171156Y-71925867D01*
X131172331Y-71925143D01*
X131187331Y-71912924D01*
X131188279Y-71911918D01*
X131188285Y-71911915D01*
X131240069Y-71857025D01*
X131242556Y-71854466D01*
X137154583Y-65942441D01*
X137236539Y-65838791D01*
X137311079Y-65678940D01*
X137346746Y-65506206D01*
X137341616Y-65329904D01*
X137295966Y-65159537D01*
X137295965Y-65159535D01*
X137212257Y-65004290D01*
X137095002Y-64872532D01*
X136950527Y-64771370D01*
X136950524Y-64771368D01*
X136950523Y-64771368D01*
X136786608Y-64706248D01*
X136612094Y-64680685D01*
X136612093Y-64680685D01*
X136436384Y-64696057D01*
X136268966Y-64751534D01*
X136118842Y-64844132D01*
X130424381Y-70538595D01*
X130362069Y-70572621D01*
X130335286Y-70575500D01*
X126096059Y-70575500D01*
X126092431Y-70575923D01*
X126092414Y-70575925D01*
X125964814Y-70590840D01*
X125799078Y-70651162D01*
X125651712Y-70748086D01*
X125530678Y-70876376D01*
X125442490Y-71029121D01*
X125404955Y-71154500D01*
X125391905Y-71198091D01*
X125381649Y-71374169D01*
X117801974Y-71374169D01*
X117789589Y-71232611D01*
X117738676Y-71042599D01*
X117730512Y-71012129D01*
X117671999Y-70886650D01*
X117634046Y-70805259D01*
X117503122Y-70618281D01*
X117503121Y-70618280D01*
X117503119Y-70618277D01*
X117341722Y-70456880D01*
X117154742Y-70325954D01*
X116947870Y-70229487D01*
X116727389Y-70170411D01*
X116500000Y-70150517D01*
X116272610Y-70170411D01*
X116052129Y-70229487D01*
X115845258Y-70325954D01*
X115658277Y-70456880D01*
X115496880Y-70618277D01*
X115365954Y-70805258D01*
X115269487Y-71012129D01*
X115210411Y-71232610D01*
X115190517Y-71460000D01*
X111525500Y-71460000D01*
X111525500Y-63124335D01*
X112999500Y-63124335D01*
X113040429Y-63369614D01*
X113040430Y-63369616D01*
X113121170Y-63604806D01*
X113239527Y-63823510D01*
X113392262Y-64019744D01*
X113575217Y-64188166D01*
X113783389Y-64324171D01*
X113783391Y-64324172D01*
X113783393Y-64324173D01*
X114011119Y-64424063D01*
X114252179Y-64485108D01*
X114437933Y-64500500D01*
X114440547Y-64500500D01*
X114559453Y-64500500D01*
X114562067Y-64500500D01*
X114747821Y-64485108D01*
X114988881Y-64424063D01*
X115216607Y-64324173D01*
X115424785Y-64188164D01*
X115607738Y-64019744D01*
X115760474Y-63823509D01*
X115878828Y-63604810D01*
X115959571Y-63369614D01*
X116000500Y-63124335D01*
X216999500Y-63124335D01*
X217040429Y-63369614D01*
X217040430Y-63369616D01*
X217121170Y-63604806D01*
X217239527Y-63823510D01*
X217392262Y-64019744D01*
X217575217Y-64188166D01*
X217783389Y-64324171D01*
X217783391Y-64324172D01*
X217783393Y-64324173D01*
X218011119Y-64424063D01*
X218252179Y-64485108D01*
X218437933Y-64500500D01*
X218440547Y-64500500D01*
X218559453Y-64500500D01*
X218562067Y-64500500D01*
X218747821Y-64485108D01*
X218988881Y-64424063D01*
X219216607Y-64324173D01*
X219424785Y-64188164D01*
X219607738Y-64019744D01*
X219760474Y-63823509D01*
X219878828Y-63604810D01*
X219959571Y-63369614D01*
X220000500Y-63124335D01*
X220000500Y-62875665D01*
X219959571Y-62630386D01*
X219878828Y-62395190D01*
X219760474Y-62176491D01*
X219607738Y-61980256D01*
X219424785Y-61811836D01*
X219424782Y-61811833D01*
X219216610Y-61675828D01*
X218988876Y-61575935D01*
X218747826Y-61514893D01*
X218747824Y-61514892D01*
X218747821Y-61514892D01*
X218623361Y-61504578D01*
X218564665Y-61499715D01*
X218564658Y-61499714D01*
X218562067Y-61499500D01*
X218437933Y-61499500D01*
X218435342Y-61499714D01*
X218435334Y-61499715D01*
X218359028Y-61506038D01*
X218252179Y-61514892D01*
X218252176Y-61514892D01*
X218252173Y-61514893D01*
X218011123Y-61575935D01*
X217783389Y-61675828D01*
X217575217Y-61811833D01*
X217392262Y-61980255D01*
X217239527Y-62176489D01*
X217121170Y-62395193D01*
X217040430Y-62630383D01*
X217040429Y-62630386D01*
X216999500Y-62875665D01*
X216999500Y-63124335D01*
X116000500Y-63124335D01*
X116000500Y-62875665D01*
X115959571Y-62630386D01*
X115878828Y-62395190D01*
X115760474Y-62176491D01*
X115607738Y-61980256D01*
X115424785Y-61811836D01*
X115424782Y-61811833D01*
X115216610Y-61675828D01*
X114988876Y-61575935D01*
X114747826Y-61514893D01*
X114747824Y-61514892D01*
X114747821Y-61514892D01*
X114623361Y-61504578D01*
X114564665Y-61499715D01*
X114564658Y-61499714D01*
X114562067Y-61499500D01*
X114437933Y-61499500D01*
X114435342Y-61499714D01*
X114435334Y-61499715D01*
X114359028Y-61506038D01*
X114252179Y-61514892D01*
X114252176Y-61514892D01*
X114252173Y-61514893D01*
X114011123Y-61575935D01*
X113783389Y-61675828D01*
X113575217Y-61811833D01*
X113392262Y-61980255D01*
X113239527Y-62176489D01*
X113121170Y-62395193D01*
X113040430Y-62630383D01*
X113040429Y-62630386D01*
X112999500Y-62875665D01*
X112999500Y-63124335D01*
X111525500Y-63124335D01*
X111525500Y-60151500D01*
X111545502Y-60083379D01*
X111599158Y-60036886D01*
X111651500Y-60025500D01*
X161494928Y-60025500D01*
X221348500Y-60025500D01*
X221416621Y-60045502D01*
G37*
G04 #@! TD.AperFunction*
G04 #@! TA.AperFunction,Conductor*
G36*
X128218060Y-123501087D02*
G01*
X128323268Y-123514997D01*
X128355165Y-123523582D01*
X128445421Y-123561144D01*
X128473990Y-123577723D01*
X128551383Y-123637451D01*
X128574661Y-123660885D01*
X128638933Y-123745327D01*
X128648071Y-123759126D01*
X128790432Y-124008257D01*
X130500000Y-127000000D01*
X135491742Y-127000000D01*
X135508187Y-127001078D01*
X135536201Y-127004765D01*
X135612964Y-127014871D01*
X135644731Y-127023383D01*
X135734675Y-127060639D01*
X135763160Y-127077085D01*
X135840393Y-127136349D01*
X135863650Y-127159606D01*
X135922914Y-127236839D01*
X135939361Y-127265326D01*
X135976615Y-127355265D01*
X135985128Y-127387036D01*
X135998922Y-127491810D01*
X136000000Y-127508257D01*
X136000000Y-137991742D01*
X135998922Y-138008189D01*
X135985128Y-138112963D01*
X135976615Y-138144734D01*
X135939361Y-138234673D01*
X135922914Y-138263160D01*
X135863650Y-138340393D01*
X135840393Y-138363650D01*
X135763160Y-138422914D01*
X135734673Y-138439361D01*
X135644734Y-138476615D01*
X135612963Y-138485128D01*
X135535024Y-138495388D01*
X135508187Y-138498922D01*
X135491742Y-138500000D01*
X133180412Y-138500000D01*
X133159850Y-138498311D01*
X133029621Y-138476770D01*
X132990687Y-138463528D01*
X132874330Y-138401199D01*
X132857002Y-138390001D01*
X131417232Y-137282486D01*
X126634794Y-133603688D01*
X126634795Y-133603688D01*
X126500000Y-133500000D01*
X126329939Y-133500000D01*
X126329938Y-133500000D01*
X122508258Y-133500000D01*
X122491812Y-133498922D01*
X122387037Y-133485128D01*
X122355265Y-133476615D01*
X122265326Y-133439361D01*
X122236839Y-133422914D01*
X122159606Y-133363650D01*
X122136349Y-133340393D01*
X122077085Y-133263160D01*
X122060638Y-133234673D01*
X122023384Y-133144734D01*
X122014871Y-133112961D01*
X122001078Y-133008187D01*
X122000000Y-132991742D01*
X122000000Y-124008257D01*
X122001078Y-123991812D01*
X122001917Y-123985432D01*
X122014872Y-123887033D01*
X122023382Y-123855270D01*
X122060640Y-123765321D01*
X122077082Y-123736843D01*
X122136351Y-123659603D01*
X122159603Y-123636351D01*
X122236843Y-123577082D01*
X122265321Y-123560640D01*
X122355270Y-123523382D01*
X122387033Y-123514872D01*
X122468592Y-123504134D01*
X122491813Y-123501078D01*
X122508258Y-123500000D01*
X128201545Y-123500000D01*
X128218060Y-123501087D01*
G37*
G04 #@! TD.AperFunction*
M02*
