G04 #@! TF.GenerationSoftware,KiCad,Pcbnew,7.0.2-6a45011f42~172~ubuntu22.04.1*
G04 #@! TF.CreationDate,2023-04-26T17:53:44-03:00*
G04 #@! TF.ProjectId,envcity_aqm_v2,656e7663-6974-4795-9f61-716d5f76322e,rev?*
G04 #@! TF.SameCoordinates,Original*
G04 #@! TF.FileFunction,Copper,L2,Inr*
G04 #@! TF.FilePolarity,Positive*
%FSLAX46Y46*%
G04 Gerber Fmt 4.6, Leading zero omitted, Abs format (unit mm)*
G04 Created by KiCad (PCBNEW 7.0.2-6a45011f42~172~ubuntu22.04.1) date 2023-04-26 17:53:44*
%MOMM*%
%LPD*%
G01*
G04 APERTURE LIST*
G04 Aperture macros list*
%AMRoundRect*
0 Rectangle with rounded corners*
0 $1 Rounding radius*
0 $2 $3 $4 $5 $6 $7 $8 $9 X,Y pos of 4 corners*
0 Add a 4 corners polygon primitive as box body*
4,1,4,$2,$3,$4,$5,$6,$7,$8,$9,$2,$3,0*
0 Add four circle primitives for the rounded corners*
1,1,$1+$1,$2,$3*
1,1,$1+$1,$4,$5*
1,1,$1+$1,$6,$7*
1,1,$1+$1,$8,$9*
0 Add four rect primitives between the rounded corners*
20,1,$1+$1,$2,$3,$4,$5,0*
20,1,$1+$1,$4,$5,$6,$7,0*
20,1,$1+$1,$6,$7,$8,$9,0*
20,1,$1+$1,$8,$9,$2,$3,0*%
G04 Aperture macros list end*
G04 #@! TA.AperFunction,ComponentPad*
%ADD10C,1.500000*%
G04 #@! TD*
G04 #@! TA.AperFunction,ComponentPad*
%ADD11R,1.500000X1.500000*%
G04 #@! TD*
G04 #@! TA.AperFunction,ComponentPad*
%ADD12C,2.010000*%
G04 #@! TD*
G04 #@! TA.AperFunction,ComponentPad*
%ADD13C,2.100000*%
G04 #@! TD*
G04 #@! TA.AperFunction,ComponentPad*
%ADD14R,2.100000X2.100000*%
G04 #@! TD*
G04 #@! TA.AperFunction,ComponentPad*
%ADD15RoundRect,0.250000X0.620000X0.850000X-0.620000X0.850000X-0.620000X-0.850000X0.620000X-0.850000X0*%
G04 #@! TD*
G04 #@! TA.AperFunction,ComponentPad*
%ADD16O,1.740000X2.200000*%
G04 #@! TD*
G04 #@! TA.AperFunction,ComponentPad*
%ADD17RoundRect,0.250000X-0.625000X0.350000X-0.625000X-0.350000X0.625000X-0.350000X0.625000X0.350000X0*%
G04 #@! TD*
G04 #@! TA.AperFunction,ComponentPad*
%ADD18O,1.750000X1.200000*%
G04 #@! TD*
G04 #@! TA.AperFunction,ComponentPad*
%ADD19C,1.524000*%
G04 #@! TD*
G04 #@! TA.AperFunction,ComponentPad*
%ADD20C,1.000000*%
G04 #@! TD*
G04 #@! TA.AperFunction,ViaPad*
%ADD21C,0.800000*%
G04 #@! TD*
G04 APERTURE END LIST*
D10*
X159120000Y-155250000D03*
X156580000Y-155250000D03*
X154040000Y-155250000D03*
D11*
X151500000Y-155250000D03*
D12*
X115650000Y-105680000D03*
X115650000Y-114320000D03*
X119450000Y-105680000D03*
X119450000Y-114320000D03*
D13*
X116500000Y-71460000D03*
D14*
X116500000Y-74000000D03*
X116500000Y-90000000D03*
D13*
X116500000Y-87460000D03*
D15*
X210500000Y-146250000D03*
D16*
X207960000Y-146250000D03*
X205420000Y-146250000D03*
X202880000Y-146250000D03*
X200340000Y-146250000D03*
X197800000Y-146250000D03*
X176800000Y-146250000D03*
X179340000Y-146250000D03*
X181880000Y-146250000D03*
X184420000Y-146250000D03*
X186960000Y-146250000D03*
D15*
X189500000Y-146250000D03*
D16*
X197800000Y-155000000D03*
X200340000Y-155000000D03*
X202880000Y-155000000D03*
X205420000Y-155000000D03*
X207960000Y-155000000D03*
D15*
X210500000Y-155000000D03*
X189500000Y-155000000D03*
D16*
X186960000Y-155000000D03*
X184420000Y-155000000D03*
X181880000Y-155000000D03*
X179340000Y-155000000D03*
X176800000Y-155000000D03*
D15*
X171000000Y-155000000D03*
D16*
X168460000Y-155000000D03*
X165920000Y-155000000D03*
D17*
X218000000Y-112000000D03*
D18*
X218000000Y-114000000D03*
X218000000Y-116000000D03*
X218000000Y-118000000D03*
D16*
X130610000Y-155200000D03*
D15*
X133150000Y-155200000D03*
X141300000Y-155200000D03*
D16*
X138760000Y-155200000D03*
D19*
X153100000Y-94985000D03*
X155640000Y-94985000D03*
X158180000Y-94985000D03*
X160720000Y-94985000D03*
X163260000Y-94985000D03*
X165800000Y-94985000D03*
X168340000Y-94985000D03*
X170880000Y-94985000D03*
X173420000Y-94985000D03*
X175960000Y-94985000D03*
X178500000Y-94985000D03*
X181040000Y-94985000D03*
X183580000Y-94985000D03*
X186120000Y-94985000D03*
X188660000Y-94985000D03*
X191200000Y-94985000D03*
X193740000Y-94985000D03*
X196280000Y-94985000D03*
X196280000Y-118015000D03*
X193740000Y-118015000D03*
X191200000Y-118015000D03*
X188660000Y-118015000D03*
X186120000Y-118015000D03*
X183580000Y-118015000D03*
X181040000Y-118015000D03*
X178500000Y-118015000D03*
X175960000Y-118015000D03*
X173420000Y-118015000D03*
X170880000Y-118015000D03*
X168340000Y-118015000D03*
X165800000Y-118015000D03*
X163260000Y-118015000D03*
X160720000Y-118015000D03*
X158180000Y-118015000D03*
X155640000Y-118015000D03*
X153100000Y-118015000D03*
D20*
X216500000Y-88710000D03*
X216500000Y-91250000D03*
D21*
X216000000Y-95250000D03*
X200500000Y-79500000D03*
X188000000Y-136750008D03*
X198100000Y-122350000D03*
X219000000Y-105500000D03*
X122100000Y-92350000D03*
X142149990Y-122650000D03*
X141498952Y-118398952D03*
X135999999Y-92150000D03*
X195000000Y-127250000D03*
X192250000Y-128500000D03*
X165750000Y-100000000D03*
X186000000Y-108750000D03*
X190000000Y-108250000D03*
X201250000Y-69000000D03*
X207000000Y-70500000D03*
X206500000Y-77000000D03*
X126140000Y-71330000D03*
X136590000Y-65440000D03*
X159050000Y-81550000D03*
X143000000Y-86350000D03*
X114000000Y-135500000D03*
X130340000Y-91430000D03*
X139690000Y-96860000D03*
X134540000Y-92020000D03*
X140600000Y-92150000D03*
X124750000Y-121750000D03*
X127170000Y-132960000D03*
X130610000Y-127940000D03*
X132500000Y-128910000D03*
X124230000Y-131040000D03*
X123500000Y-130240000D03*
X127250000Y-125750000D03*
X131250000Y-135000000D03*
X136750000Y-90850000D03*
X198250000Y-132200000D03*
X200500000Y-139750000D03*
X199250000Y-139500000D03*
X193250000Y-112500002D03*
X205250000Y-71250000D03*
X200000000Y-97750000D03*
X182000000Y-109500000D03*
X203750000Y-79750000D03*
X206250000Y-80250000D03*
X196000000Y-111250000D03*
X142550000Y-100750000D03*
X140200000Y-98850000D03*
X143550000Y-90600000D03*
X137800000Y-109799978D03*
X127000000Y-84500000D03*
X129950000Y-98900000D03*
X131750000Y-146500004D03*
X190000000Y-138500000D03*
X178250000Y-109000000D03*
X213575000Y-129550000D03*
X203275000Y-122275000D03*
X211575000Y-133075000D03*
X204700000Y-123725000D03*
X201400000Y-130350000D03*
G04 #@! TA.AperFunction,Conductor*
G36*
X221416621Y-60045502D02*
G01*
X221463114Y-60099158D01*
X221474500Y-60151500D01*
X221474500Y-159848500D01*
X221454498Y-159916621D01*
X221400842Y-159963114D01*
X221348500Y-159974500D01*
X111651500Y-159974500D01*
X111583379Y-159954498D01*
X111536886Y-159900842D01*
X111525500Y-159848500D01*
X111525500Y-157124335D01*
X112999500Y-157124335D01*
X113040429Y-157369614D01*
X113040430Y-157369616D01*
X113121170Y-157604806D01*
X113239527Y-157823510D01*
X113392262Y-158019744D01*
X113575217Y-158188166D01*
X113783389Y-158324171D01*
X113783391Y-158324172D01*
X113783393Y-158324173D01*
X114011119Y-158424063D01*
X114252179Y-158485108D01*
X114437933Y-158500500D01*
X114440547Y-158500500D01*
X114559453Y-158500500D01*
X114562067Y-158500500D01*
X114747821Y-158485108D01*
X114988881Y-158424063D01*
X115216607Y-158324173D01*
X115424785Y-158188164D01*
X115607738Y-158019744D01*
X115760474Y-157823509D01*
X115878828Y-157604810D01*
X115959571Y-157369614D01*
X116000500Y-157124335D01*
X216999500Y-157124335D01*
X217040429Y-157369614D01*
X217040430Y-157369616D01*
X217121170Y-157604806D01*
X217239527Y-157823510D01*
X217392262Y-158019744D01*
X217575217Y-158188166D01*
X217783389Y-158324171D01*
X217783391Y-158324172D01*
X217783393Y-158324173D01*
X218011119Y-158424063D01*
X218252179Y-158485108D01*
X218437933Y-158500500D01*
X218440547Y-158500500D01*
X218559453Y-158500500D01*
X218562067Y-158500500D01*
X218747821Y-158485108D01*
X218988881Y-158424063D01*
X219216607Y-158324173D01*
X219424785Y-158188164D01*
X219607738Y-158019744D01*
X219760474Y-157823509D01*
X219878828Y-157604810D01*
X219959571Y-157369614D01*
X220000500Y-157124335D01*
X220000500Y-156875665D01*
X219959571Y-156630386D01*
X219878828Y-156395190D01*
X219760474Y-156176491D01*
X219607738Y-155980256D01*
X219572286Y-155947620D01*
X219424782Y-155811833D01*
X219216610Y-155675828D01*
X219008530Y-155584556D01*
X218988881Y-155575937D01*
X218988879Y-155575936D01*
X218988876Y-155575935D01*
X218747826Y-155514893D01*
X218747824Y-155514892D01*
X218747821Y-155514892D01*
X218623361Y-155504578D01*
X218564665Y-155499715D01*
X218564658Y-155499714D01*
X218562067Y-155499500D01*
X218437933Y-155499500D01*
X218435342Y-155499714D01*
X218435334Y-155499715D01*
X218359028Y-155506038D01*
X218252179Y-155514892D01*
X218252176Y-155514892D01*
X218252173Y-155514893D01*
X218011123Y-155575935D01*
X217783389Y-155675828D01*
X217575217Y-155811833D01*
X217392262Y-155980255D01*
X217239527Y-156176489D01*
X217121170Y-156395193D01*
X217056046Y-156584896D01*
X217040429Y-156630386D01*
X216999500Y-156875665D01*
X216999500Y-157124335D01*
X116000500Y-157124335D01*
X116000500Y-156875665D01*
X115959571Y-156630386D01*
X115878828Y-156395190D01*
X115760474Y-156176491D01*
X115607738Y-155980256D01*
X115572286Y-155947620D01*
X115424782Y-155811833D01*
X115216610Y-155675828D01*
X115008530Y-155584556D01*
X114988881Y-155575937D01*
X114988879Y-155575936D01*
X114988876Y-155575935D01*
X114747826Y-155514893D01*
X114747824Y-155514892D01*
X114747821Y-155514892D01*
X114623361Y-155504578D01*
X114564665Y-155499715D01*
X114564658Y-155499714D01*
X114562067Y-155499500D01*
X114437933Y-155499500D01*
X114435342Y-155499714D01*
X114435334Y-155499715D01*
X114359028Y-155506038D01*
X114252179Y-155514892D01*
X114252176Y-155514892D01*
X114252173Y-155514893D01*
X114011123Y-155575935D01*
X113783389Y-155675828D01*
X113575217Y-155811833D01*
X113392262Y-155980255D01*
X113239527Y-156176489D01*
X113121170Y-156395193D01*
X113056046Y-156584896D01*
X113040429Y-156630386D01*
X112999500Y-156875665D01*
X112999500Y-157124335D01*
X111525500Y-157124335D01*
X111525500Y-155483566D01*
X129485500Y-155483566D01*
X129485784Y-155486544D01*
X129485785Y-155486557D01*
X129500798Y-155643779D01*
X129561301Y-155849836D01*
X129651639Y-156025066D01*
X129659707Y-156040716D01*
X129792459Y-156209524D01*
X129954759Y-156350157D01*
X130140741Y-156457534D01*
X130343683Y-156527773D01*
X130449966Y-156543054D01*
X130556249Y-156558336D01*
X130556250Y-156558335D01*
X130556251Y-156558336D01*
X130770761Y-156548117D01*
X130979461Y-156497487D01*
X131174807Y-156408275D01*
X131349741Y-156283706D01*
X131497937Y-156128282D01*
X131519390Y-156094901D01*
X132025500Y-156094901D01*
X132025501Y-156098254D01*
X132025860Y-156101596D01*
X132025861Y-156101610D01*
X132031959Y-156158338D01*
X132031959Y-156158340D01*
X132031960Y-156158342D01*
X132060794Y-156235650D01*
X132082658Y-156294268D01*
X132169595Y-156410404D01*
X132285731Y-156497341D01*
X132285732Y-156497341D01*
X132285733Y-156497342D01*
X132421658Y-156548040D01*
X132467076Y-156552923D01*
X132478377Y-156554138D01*
X132481745Y-156554500D01*
X133818254Y-156554499D01*
X133878342Y-156548040D01*
X134014267Y-156497342D01*
X134130404Y-156410404D01*
X134217342Y-156294267D01*
X134268040Y-156158342D01*
X134274500Y-156098255D01*
X134274500Y-155483566D01*
X137635500Y-155483566D01*
X137635784Y-155486544D01*
X137635785Y-155486557D01*
X137650798Y-155643779D01*
X137711301Y-155849836D01*
X137801639Y-156025066D01*
X137809707Y-156040716D01*
X137942459Y-156209524D01*
X138104759Y-156350157D01*
X138290741Y-156457534D01*
X138493683Y-156527773D01*
X138599967Y-156543054D01*
X138706249Y-156558336D01*
X138706250Y-156558335D01*
X138706251Y-156558336D01*
X138920761Y-156548117D01*
X139129461Y-156497487D01*
X139324807Y-156408275D01*
X139499741Y-156283706D01*
X139647937Y-156128282D01*
X139669390Y-156094901D01*
X140175500Y-156094901D01*
X140175501Y-156098254D01*
X140175860Y-156101596D01*
X140175861Y-156101610D01*
X140181959Y-156158338D01*
X140181959Y-156158340D01*
X140181960Y-156158342D01*
X140210794Y-156235650D01*
X140232658Y-156294268D01*
X140319595Y-156410404D01*
X140435731Y-156497341D01*
X140435732Y-156497341D01*
X140435733Y-156497342D01*
X140571658Y-156548040D01*
X140617076Y-156552923D01*
X140628377Y-156554138D01*
X140631745Y-156554500D01*
X141968254Y-156554499D01*
X142028342Y-156548040D01*
X142164267Y-156497342D01*
X142280404Y-156410404D01*
X142367342Y-156294267D01*
X142418040Y-156158342D01*
X142424500Y-156098255D01*
X142424500Y-156025068D01*
X150495500Y-156025068D01*
X150510265Y-156099300D01*
X150566515Y-156183484D01*
X150603616Y-156208274D01*
X150650699Y-156239734D01*
X150724933Y-156254500D01*
X152275066Y-156254499D01*
X152275068Y-156254499D01*
X152324555Y-156244655D01*
X152349301Y-156239734D01*
X152433484Y-156183484D01*
X152489734Y-156099301D01*
X152504500Y-156025067D01*
X152504499Y-155250000D01*
X153030639Y-155250000D01*
X153050034Y-155446911D01*
X153050034Y-155446913D01*
X153050035Y-155446916D01*
X153107467Y-155636244D01*
X153107474Y-155636267D01*
X153200749Y-155810773D01*
X153326274Y-155963725D01*
X153479226Y-156089250D01*
X153498028Y-156099300D01*
X153653735Y-156182527D01*
X153843084Y-156239965D01*
X154040000Y-156259360D01*
X154236916Y-156239965D01*
X154426265Y-156182527D01*
X154600770Y-156089252D01*
X154600771Y-156089250D01*
X154600773Y-156089250D01*
X154753725Y-155963725D01*
X154879250Y-155810773D01*
X154927812Y-155719920D01*
X154972527Y-155636265D01*
X155029965Y-155446916D01*
X155049360Y-155250000D01*
X155570639Y-155250000D01*
X155590034Y-155446911D01*
X155590034Y-155446913D01*
X155590035Y-155446916D01*
X155647467Y-155636244D01*
X155647474Y-155636267D01*
X155740749Y-155810773D01*
X155866274Y-155963725D01*
X156019226Y-156089250D01*
X156038028Y-156099300D01*
X156193735Y-156182527D01*
X156383084Y-156239965D01*
X156580000Y-156259360D01*
X156776916Y-156239965D01*
X156966265Y-156182527D01*
X157140770Y-156089252D01*
X157140771Y-156089250D01*
X157140773Y-156089250D01*
X157293725Y-155963725D01*
X157419250Y-155810773D01*
X157467812Y-155719920D01*
X157512527Y-155636265D01*
X157569965Y-155446916D01*
X157589360Y-155250000D01*
X157857195Y-155250000D01*
X157876380Y-155469284D01*
X157933350Y-155681905D01*
X158026379Y-155881403D01*
X158068801Y-155941986D01*
X158721272Y-155289515D01*
X158734835Y-155375148D01*
X158792359Y-155488045D01*
X158881955Y-155577641D01*
X158994852Y-155635165D01*
X159080481Y-155648727D01*
X158428012Y-156301196D01*
X158428012Y-156301198D01*
X158488595Y-156343620D01*
X158688094Y-156436649D01*
X158900715Y-156493619D01*
X159120000Y-156512804D01*
X159339284Y-156493619D01*
X159551904Y-156436649D01*
X159751405Y-156343619D01*
X159811986Y-156301198D01*
X159811986Y-156301197D01*
X159159517Y-155648727D01*
X159245148Y-155635165D01*
X159358045Y-155577641D01*
X159447641Y-155488045D01*
X159505165Y-155375148D01*
X159518727Y-155289516D01*
X160171197Y-155941986D01*
X160171198Y-155941986D01*
X160213619Y-155881405D01*
X160306649Y-155681904D01*
X160363619Y-155469284D01*
X160379867Y-155283566D01*
X164795500Y-155283566D01*
X164795784Y-155286544D01*
X164795785Y-155286557D01*
X164810798Y-155443779D01*
X164871301Y-155649836D01*
X164954269Y-155810770D01*
X164969707Y-155840716D01*
X165102459Y-156009524D01*
X165264759Y-156150157D01*
X165450741Y-156257534D01*
X165653683Y-156327773D01*
X165752035Y-156341914D01*
X165866249Y-156358336D01*
X165866250Y-156358335D01*
X165866251Y-156358336D01*
X166080761Y-156348117D01*
X166289461Y-156297487D01*
X166484807Y-156208275D01*
X166659741Y-156083706D01*
X166807937Y-155928282D01*
X166924042Y-155747620D01*
X166935131Y-155719918D01*
X166979017Y-155664112D01*
X167046108Y-155640890D01*
X167115104Y-155657626D01*
X167164098Y-155709008D01*
X167166921Y-155714847D01*
X167252638Y-155904475D01*
X167383992Y-156098819D01*
X167546294Y-156268162D01*
X167734896Y-156407651D01*
X167944344Y-156513254D01*
X168168632Y-156581940D01*
X168205999Y-156586725D01*
X168206000Y-156586725D01*
X168206000Y-155544224D01*
X168303369Y-155584556D01*
X168420677Y-155600000D01*
X168499323Y-155600000D01*
X168616631Y-155584556D01*
X168714000Y-155544224D01*
X168714000Y-156584896D01*
X168864968Y-156552361D01*
X169082624Y-156464899D01*
X169282366Y-156341914D01*
X169458453Y-156186937D01*
X169605813Y-156004435D01*
X169648855Y-155927388D01*
X169699539Y-155877672D01*
X169769055Y-155863251D01*
X169835333Y-155888702D01*
X169876911Y-155944804D01*
X169932658Y-156094268D01*
X170019595Y-156210404D01*
X170135731Y-156297341D01*
X170135732Y-156297341D01*
X170135733Y-156297342D01*
X170271658Y-156348040D01*
X170317076Y-156352923D01*
X170328377Y-156354138D01*
X170331745Y-156354500D01*
X171668254Y-156354499D01*
X171728342Y-156348040D01*
X171864267Y-156297342D01*
X171980404Y-156210404D01*
X172067342Y-156094267D01*
X172118040Y-155958342D01*
X172124500Y-155898255D01*
X172124500Y-155285869D01*
X175422000Y-155285869D01*
X175422226Y-155291192D01*
X175436910Y-155463726D01*
X175496015Y-155690721D01*
X175592638Y-155904475D01*
X175723992Y-156098819D01*
X175886294Y-156268162D01*
X176074896Y-156407651D01*
X176284344Y-156513254D01*
X176508632Y-156581940D01*
X176545999Y-156586725D01*
X176546000Y-156586724D01*
X176546000Y-155544224D01*
X176643369Y-155584556D01*
X176760677Y-155600000D01*
X176839323Y-155600000D01*
X176956631Y-155584556D01*
X177054000Y-155544224D01*
X177054000Y-156584896D01*
X177204968Y-156552361D01*
X177422624Y-156464899D01*
X177622366Y-156341914D01*
X177798453Y-156186937D01*
X177945812Y-156004437D01*
X178060213Y-155799651D01*
X178088435Y-155719773D01*
X178129988Y-155662207D01*
X178196067Y-155636244D01*
X178265693Y-155650128D01*
X178316760Y-155699450D01*
X178319231Y-155704011D01*
X178327357Y-155719773D01*
X178389707Y-155840716D01*
X178522459Y-156009524D01*
X178684759Y-156150157D01*
X178870741Y-156257534D01*
X179073683Y-156327773D01*
X179172035Y-156341914D01*
X179286249Y-156358336D01*
X179286250Y-156358335D01*
X179286251Y-156358336D01*
X179500761Y-156348117D01*
X179709461Y-156297487D01*
X179904807Y-156208275D01*
X180079741Y-156083706D01*
X180227937Y-155928282D01*
X180344042Y-155747620D01*
X180355131Y-155719918D01*
X180399017Y-155664112D01*
X180466108Y-155640890D01*
X180535104Y-155657626D01*
X180584098Y-155709008D01*
X180586921Y-155714847D01*
X180672638Y-155904475D01*
X180803992Y-156098819D01*
X180966294Y-156268162D01*
X181154896Y-156407651D01*
X181364344Y-156513254D01*
X181588632Y-156581940D01*
X181626000Y-156586725D01*
X181626000Y-155544224D01*
X181723369Y-155584556D01*
X181840677Y-155600000D01*
X181919323Y-155600000D01*
X182036631Y-155584556D01*
X182134000Y-155544224D01*
X182134000Y-156584896D01*
X182284968Y-156552361D01*
X182502624Y-156464899D01*
X182702366Y-156341914D01*
X182878453Y-156186937D01*
X183025812Y-156004437D01*
X183140213Y-155799651D01*
X183168435Y-155719773D01*
X183209988Y-155662207D01*
X183276067Y-155636244D01*
X183345693Y-155650128D01*
X183396760Y-155699450D01*
X183399231Y-155704011D01*
X183407357Y-155719773D01*
X183469707Y-155840716D01*
X183602459Y-156009524D01*
X183764759Y-156150157D01*
X183950741Y-156257534D01*
X184153683Y-156327773D01*
X184252035Y-156341914D01*
X184366249Y-156358336D01*
X184366250Y-156358335D01*
X184366251Y-156358336D01*
X184580761Y-156348117D01*
X184789461Y-156297487D01*
X184984807Y-156208275D01*
X185159741Y-156083706D01*
X185307937Y-155928282D01*
X185424042Y-155747620D01*
X185435131Y-155719918D01*
X185479017Y-155664112D01*
X185546108Y-155640890D01*
X185615104Y-155657626D01*
X185664098Y-155709008D01*
X185666921Y-155714847D01*
X185752638Y-155904475D01*
X185883992Y-156098819D01*
X186046294Y-156268162D01*
X186234896Y-156407651D01*
X186444344Y-156513254D01*
X186668632Y-156581940D01*
X186705999Y-156586725D01*
X186706000Y-156586724D01*
X186706000Y-155544224D01*
X186803369Y-155584556D01*
X186920677Y-155600000D01*
X186999323Y-155600000D01*
X187116631Y-155584556D01*
X187214000Y-155544224D01*
X187214000Y-156584897D01*
X187364968Y-156552361D01*
X187582624Y-156464899D01*
X187782366Y-156341914D01*
X187958453Y-156186937D01*
X188105813Y-156004435D01*
X188148855Y-155927388D01*
X188199539Y-155877672D01*
X188269055Y-155863251D01*
X188335333Y-155888702D01*
X188376911Y-155944804D01*
X188432658Y-156094268D01*
X188519595Y-156210404D01*
X188635731Y-156297341D01*
X188635732Y-156297341D01*
X188635733Y-156297342D01*
X188771658Y-156348040D01*
X188817076Y-156352923D01*
X188828377Y-156354138D01*
X188831745Y-156354500D01*
X190168254Y-156354499D01*
X190228342Y-156348040D01*
X190364267Y-156297342D01*
X190480404Y-156210404D01*
X190567342Y-156094267D01*
X190618040Y-155958342D01*
X190624500Y-155898255D01*
X190624500Y-155285869D01*
X196422000Y-155285869D01*
X196422226Y-155291192D01*
X196436910Y-155463726D01*
X196496015Y-155690721D01*
X196592638Y-155904475D01*
X196723992Y-156098819D01*
X196886294Y-156268162D01*
X197074896Y-156407651D01*
X197284344Y-156513254D01*
X197508632Y-156581940D01*
X197545999Y-156586725D01*
X197546000Y-156586724D01*
X197546000Y-155544224D01*
X197643369Y-155584556D01*
X197760677Y-155600000D01*
X197839323Y-155600000D01*
X197956631Y-155584556D01*
X198054000Y-155544224D01*
X198054000Y-156584896D01*
X198204968Y-156552361D01*
X198422624Y-156464899D01*
X198622366Y-156341914D01*
X198798453Y-156186937D01*
X198945812Y-156004437D01*
X199060213Y-155799651D01*
X199088435Y-155719773D01*
X199129988Y-155662207D01*
X199196067Y-155636244D01*
X199265693Y-155650128D01*
X199316760Y-155699450D01*
X199319231Y-155704011D01*
X199327357Y-155719773D01*
X199389707Y-155840716D01*
X199522459Y-156009524D01*
X199684759Y-156150157D01*
X199870741Y-156257534D01*
X200073683Y-156327773D01*
X200172035Y-156341914D01*
X200286249Y-156358336D01*
X200286250Y-156358335D01*
X200286251Y-156358336D01*
X200500761Y-156348117D01*
X200709461Y-156297487D01*
X200904807Y-156208275D01*
X201079741Y-156083706D01*
X201227937Y-155928282D01*
X201344042Y-155747620D01*
X201355131Y-155719918D01*
X201399017Y-155664112D01*
X201466108Y-155640890D01*
X201535104Y-155657626D01*
X201584098Y-155709008D01*
X201586921Y-155714847D01*
X201672638Y-155904475D01*
X201803992Y-156098819D01*
X201966294Y-156268162D01*
X202154896Y-156407651D01*
X202364344Y-156513254D01*
X202588632Y-156581940D01*
X202625999Y-156586725D01*
X202626000Y-156586725D01*
X202625999Y-155544224D01*
X202723369Y-155584556D01*
X202840677Y-155600000D01*
X202919323Y-155600000D01*
X203036631Y-155584556D01*
X203133999Y-155544224D01*
X203133999Y-156584896D01*
X203284968Y-156552361D01*
X203502624Y-156464899D01*
X203702366Y-156341914D01*
X203878453Y-156186937D01*
X204025812Y-156004437D01*
X204140213Y-155799651D01*
X204168435Y-155719773D01*
X204209988Y-155662207D01*
X204276067Y-155636244D01*
X204345693Y-155650128D01*
X204396760Y-155699450D01*
X204399231Y-155704011D01*
X204407357Y-155719773D01*
X204469707Y-155840716D01*
X204602459Y-156009524D01*
X204764759Y-156150157D01*
X204950741Y-156257534D01*
X205153683Y-156327773D01*
X205252035Y-156341914D01*
X205366249Y-156358336D01*
X205366250Y-156358335D01*
X205366251Y-156358336D01*
X205580761Y-156348117D01*
X205789461Y-156297487D01*
X205984807Y-156208275D01*
X206159741Y-156083706D01*
X206307937Y-155928282D01*
X206424042Y-155747620D01*
X206435131Y-155719918D01*
X206479017Y-155664112D01*
X206546108Y-155640890D01*
X206615104Y-155657626D01*
X206664098Y-155709008D01*
X206666921Y-155714847D01*
X206752638Y-155904475D01*
X206883992Y-156098819D01*
X207046294Y-156268162D01*
X207234896Y-156407651D01*
X207444344Y-156513254D01*
X207668632Y-156581940D01*
X207705998Y-156586725D01*
X207705999Y-156586724D01*
X207705999Y-155544224D01*
X207803369Y-155584556D01*
X207920677Y-155600000D01*
X207999323Y-155600000D01*
X208116631Y-155584556D01*
X208214000Y-155544224D01*
X208214000Y-156584897D01*
X208364968Y-156552361D01*
X208582624Y-156464899D01*
X208782366Y-156341914D01*
X208958453Y-156186937D01*
X209105813Y-156004435D01*
X209148855Y-155927388D01*
X209199539Y-155877672D01*
X209269055Y-155863251D01*
X209335333Y-155888702D01*
X209376911Y-155944804D01*
X209432658Y-156094268D01*
X209519595Y-156210404D01*
X209635731Y-156297341D01*
X209635732Y-156297341D01*
X209635733Y-156297342D01*
X209771658Y-156348040D01*
X209817076Y-156352923D01*
X209828377Y-156354138D01*
X209831745Y-156354500D01*
X211168254Y-156354499D01*
X211228342Y-156348040D01*
X211364267Y-156297342D01*
X211480404Y-156210404D01*
X211567342Y-156094267D01*
X211618040Y-155958342D01*
X211624500Y-155898255D01*
X211624499Y-154101746D01*
X211618040Y-154041658D01*
X211567342Y-153905733D01*
X211567341Y-153905731D01*
X211480404Y-153789595D01*
X211364268Y-153702658D01*
X211261207Y-153664218D01*
X211228342Y-153651960D01*
X211228341Y-153651959D01*
X211228339Y-153651959D01*
X211171603Y-153645859D01*
X211171585Y-153645858D01*
X211168255Y-153645500D01*
X211164887Y-153645500D01*
X209835116Y-153645500D01*
X209835097Y-153645500D01*
X209831746Y-153645501D01*
X209828404Y-153645860D01*
X209828389Y-153645861D01*
X209771661Y-153651959D01*
X209635731Y-153702658D01*
X209519595Y-153789595D01*
X209432658Y-153905731D01*
X209418957Y-153942466D01*
X209401051Y-153990475D01*
X209378180Y-154051794D01*
X209335633Y-154108629D01*
X209269112Y-154133440D01*
X209199738Y-154118348D01*
X209155732Y-154078318D01*
X209036007Y-153901180D01*
X208873705Y-153731837D01*
X208685103Y-153592348D01*
X208475655Y-153486745D01*
X208251365Y-153418058D01*
X208214000Y-153413273D01*
X208214000Y-154455775D01*
X208116631Y-154415444D01*
X207999323Y-154400000D01*
X207920677Y-154400000D01*
X207803369Y-154415444D01*
X207706000Y-154455775D01*
X207706000Y-153415102D01*
X207555029Y-153447640D01*
X207337374Y-153535100D01*
X207137633Y-153658085D01*
X206961546Y-153813062D01*
X206814187Y-153995562D01*
X206699784Y-154200352D01*
X206671563Y-154280227D01*
X206630010Y-154337793D01*
X206563930Y-154363755D01*
X206494305Y-154349870D01*
X206443239Y-154300547D01*
X206440768Y-154295987D01*
X206390665Y-154198801D01*
X206370293Y-154159284D01*
X206237541Y-153990476D01*
X206236526Y-153989596D01*
X206075240Y-153849842D01*
X205889259Y-153742466D01*
X205774241Y-153702658D01*
X205686317Y-153672227D01*
X205686316Y-153672226D01*
X205686314Y-153672226D01*
X205473750Y-153641663D01*
X205259239Y-153651882D01*
X205050543Y-153702511D01*
X204855191Y-153791725D01*
X204680259Y-153916293D01*
X204532062Y-154071719D01*
X204415957Y-154252380D01*
X204404867Y-154280083D01*
X204360979Y-154335889D01*
X204293887Y-154359109D01*
X204224892Y-154342371D01*
X204175899Y-154290988D01*
X204173078Y-154285151D01*
X204087362Y-154095526D01*
X203956007Y-153901180D01*
X203793705Y-153731837D01*
X203605103Y-153592348D01*
X203395655Y-153486745D01*
X203171365Y-153418058D01*
X203134000Y-153413273D01*
X203134000Y-154455775D01*
X203036631Y-154415444D01*
X202919323Y-154400000D01*
X202840677Y-154400000D01*
X202723369Y-154415444D01*
X202625999Y-154455775D01*
X202626000Y-153415102D01*
X202475029Y-153447640D01*
X202257374Y-153535100D01*
X202057633Y-153658085D01*
X201881546Y-153813062D01*
X201734187Y-153995562D01*
X201619784Y-154200352D01*
X201591563Y-154280227D01*
X201550010Y-154337793D01*
X201483930Y-154363755D01*
X201414305Y-154349870D01*
X201363239Y-154300547D01*
X201360768Y-154295987D01*
X201310665Y-154198801D01*
X201290293Y-154159284D01*
X201157541Y-153990476D01*
X201156526Y-153989596D01*
X200995240Y-153849842D01*
X200809259Y-153742466D01*
X200694241Y-153702658D01*
X200606317Y-153672227D01*
X200606316Y-153672226D01*
X200606314Y-153672226D01*
X200393750Y-153641663D01*
X200179239Y-153651882D01*
X199970543Y-153702511D01*
X199775191Y-153791725D01*
X199600259Y-153916293D01*
X199452062Y-154071719D01*
X199335957Y-154252380D01*
X199324867Y-154280083D01*
X199280979Y-154335889D01*
X199213887Y-154359109D01*
X199144892Y-154342371D01*
X199095899Y-154290988D01*
X199093078Y-154285151D01*
X199007362Y-154095526D01*
X198876007Y-153901180D01*
X198713705Y-153731837D01*
X198525103Y-153592348D01*
X198315655Y-153486745D01*
X198091365Y-153418058D01*
X198054000Y-153413273D01*
X198054000Y-154455775D01*
X197956631Y-154415444D01*
X197839323Y-154400000D01*
X197760677Y-154400000D01*
X197643369Y-154415444D01*
X197545999Y-154455775D01*
X197545999Y-153415102D01*
X197395029Y-153447640D01*
X197177374Y-153535100D01*
X196977633Y-153658085D01*
X196801546Y-153813062D01*
X196654187Y-153995562D01*
X196539786Y-154200349D01*
X196461643Y-154421518D01*
X196422000Y-154652717D01*
X196422000Y-154746000D01*
X197255775Y-154746000D01*
X197215444Y-154843369D01*
X197194823Y-155000000D01*
X197215444Y-155156631D01*
X197255775Y-155254000D01*
X196422000Y-155254000D01*
X196422000Y-155285869D01*
X190624500Y-155285869D01*
X190624499Y-154101746D01*
X190618040Y-154041658D01*
X190567342Y-153905733D01*
X190567341Y-153905731D01*
X190480404Y-153789595D01*
X190364268Y-153702658D01*
X190261207Y-153664218D01*
X190228342Y-153651960D01*
X190228341Y-153651959D01*
X190228339Y-153651959D01*
X190171603Y-153645859D01*
X190171585Y-153645858D01*
X190168255Y-153645500D01*
X190164887Y-153645500D01*
X188835116Y-153645500D01*
X188835097Y-153645500D01*
X188831746Y-153645501D01*
X188828404Y-153645860D01*
X188828389Y-153645861D01*
X188771661Y-153651959D01*
X188635731Y-153702658D01*
X188519595Y-153789595D01*
X188432658Y-153905731D01*
X188418957Y-153942466D01*
X188401051Y-153990475D01*
X188378180Y-154051794D01*
X188335633Y-154108629D01*
X188269112Y-154133440D01*
X188199738Y-154118348D01*
X188155732Y-154078318D01*
X188036007Y-153901180D01*
X187873705Y-153731837D01*
X187685103Y-153592348D01*
X187475655Y-153486745D01*
X187251365Y-153418058D01*
X187214000Y-153413273D01*
X187214000Y-154455775D01*
X187116631Y-154415444D01*
X186999323Y-154400000D01*
X186920677Y-154400000D01*
X186803369Y-154415444D01*
X186706000Y-154455775D01*
X186706000Y-153415102D01*
X186555029Y-153447640D01*
X186337374Y-153535100D01*
X186137633Y-153658085D01*
X185961546Y-153813062D01*
X185814187Y-153995562D01*
X185699784Y-154200352D01*
X185671563Y-154280227D01*
X185630010Y-154337793D01*
X185563930Y-154363755D01*
X185494305Y-154349870D01*
X185443239Y-154300547D01*
X185440768Y-154295987D01*
X185390665Y-154198801D01*
X185370293Y-154159284D01*
X185237541Y-153990476D01*
X185236526Y-153989596D01*
X185075240Y-153849842D01*
X184889259Y-153742466D01*
X184774241Y-153702658D01*
X184686317Y-153672227D01*
X184686316Y-153672226D01*
X184686314Y-153672226D01*
X184473750Y-153641663D01*
X184259239Y-153651882D01*
X184050543Y-153702511D01*
X183855191Y-153791725D01*
X183680259Y-153916293D01*
X183532062Y-154071719D01*
X183415957Y-154252380D01*
X183404867Y-154280083D01*
X183360979Y-154335889D01*
X183293887Y-154359109D01*
X183224892Y-154342371D01*
X183175899Y-154290988D01*
X183173078Y-154285151D01*
X183087362Y-154095526D01*
X182956007Y-153901180D01*
X182793705Y-153731837D01*
X182605103Y-153592348D01*
X182395655Y-153486745D01*
X182171365Y-153418058D01*
X182134000Y-153413273D01*
X182134000Y-154455775D01*
X182036631Y-154415444D01*
X181919323Y-154400000D01*
X181840677Y-154400000D01*
X181723369Y-154415444D01*
X181626000Y-154455775D01*
X181626000Y-153415102D01*
X181475029Y-153447640D01*
X181257374Y-153535100D01*
X181057633Y-153658085D01*
X180881546Y-153813062D01*
X180734187Y-153995562D01*
X180619784Y-154200352D01*
X180591563Y-154280227D01*
X180550010Y-154337793D01*
X180483930Y-154363755D01*
X180414305Y-154349870D01*
X180363239Y-154300547D01*
X180360768Y-154295987D01*
X180310665Y-154198801D01*
X180290293Y-154159284D01*
X180157541Y-153990476D01*
X180156526Y-153989596D01*
X179995240Y-153849842D01*
X179809259Y-153742466D01*
X179694241Y-153702658D01*
X179606317Y-153672227D01*
X179606316Y-153672226D01*
X179606314Y-153672226D01*
X179393750Y-153641663D01*
X179179239Y-153651882D01*
X178970543Y-153702511D01*
X178775191Y-153791725D01*
X178600259Y-153916293D01*
X178452062Y-154071719D01*
X178335957Y-154252380D01*
X178324867Y-154280083D01*
X178280979Y-154335889D01*
X178213887Y-154359109D01*
X178144892Y-154342371D01*
X178095899Y-154290988D01*
X178093078Y-154285151D01*
X178007362Y-154095526D01*
X177876007Y-153901180D01*
X177713705Y-153731837D01*
X177525103Y-153592348D01*
X177315655Y-153486745D01*
X177091364Y-153418058D01*
X177053999Y-153413273D01*
X177053999Y-154455775D01*
X176956631Y-154415444D01*
X176839323Y-154400000D01*
X176760677Y-154400000D01*
X176643369Y-154415444D01*
X176546000Y-154455775D01*
X176546000Y-153415102D01*
X176395029Y-153447640D01*
X176177374Y-153535100D01*
X175977633Y-153658085D01*
X175801546Y-153813062D01*
X175654187Y-153995562D01*
X175539786Y-154200349D01*
X175461643Y-154421518D01*
X175422000Y-154652717D01*
X175422000Y-154746000D01*
X176255775Y-154746000D01*
X176215444Y-154843369D01*
X176194823Y-155000000D01*
X176215444Y-155156631D01*
X176255775Y-155254000D01*
X175422000Y-155254000D01*
X175422000Y-155285869D01*
X172124500Y-155285869D01*
X172124499Y-154101746D01*
X172118040Y-154041658D01*
X172067342Y-153905733D01*
X172067341Y-153905731D01*
X171980404Y-153789595D01*
X171864268Y-153702658D01*
X171761207Y-153664218D01*
X171728342Y-153651960D01*
X171728341Y-153651959D01*
X171728339Y-153651959D01*
X171671603Y-153645859D01*
X171671585Y-153645858D01*
X171668255Y-153645500D01*
X171664887Y-153645500D01*
X170335116Y-153645500D01*
X170335097Y-153645500D01*
X170331746Y-153645501D01*
X170328404Y-153645860D01*
X170328389Y-153645861D01*
X170271661Y-153651959D01*
X170135731Y-153702658D01*
X170019595Y-153789595D01*
X169932658Y-153905731D01*
X169918957Y-153942466D01*
X169901051Y-153990475D01*
X169878180Y-154051794D01*
X169835633Y-154108629D01*
X169769112Y-154133440D01*
X169699738Y-154118348D01*
X169655732Y-154078318D01*
X169536007Y-153901180D01*
X169373705Y-153731837D01*
X169185103Y-153592348D01*
X168975655Y-153486745D01*
X168751365Y-153418058D01*
X168714000Y-153413273D01*
X168714000Y-154455775D01*
X168616631Y-154415444D01*
X168499323Y-154400000D01*
X168420677Y-154400000D01*
X168303369Y-154415444D01*
X168206000Y-154455775D01*
X168206000Y-153415102D01*
X168055029Y-153447640D01*
X167837374Y-153535100D01*
X167637633Y-153658085D01*
X167461546Y-153813062D01*
X167314187Y-153995562D01*
X167199784Y-154200352D01*
X167171563Y-154280227D01*
X167130010Y-154337793D01*
X167063930Y-154363755D01*
X166994305Y-154349870D01*
X166943239Y-154300547D01*
X166940768Y-154295987D01*
X166890665Y-154198801D01*
X166870293Y-154159284D01*
X166737541Y-153990476D01*
X166736526Y-153989596D01*
X166575240Y-153849842D01*
X166389259Y-153742466D01*
X166274241Y-153702658D01*
X166186317Y-153672227D01*
X166186316Y-153672226D01*
X166186314Y-153672226D01*
X165973750Y-153641663D01*
X165759239Y-153651882D01*
X165550543Y-153702511D01*
X165355191Y-153791725D01*
X165180259Y-153916293D01*
X165032062Y-154071719D01*
X164915955Y-154252383D01*
X164836142Y-154451748D01*
X164803985Y-154618597D01*
X164795500Y-154662623D01*
X164795500Y-155283566D01*
X160379867Y-155283566D01*
X160382804Y-155249999D01*
X160363619Y-155030715D01*
X160306649Y-154818095D01*
X160213620Y-154618597D01*
X160171198Y-154558012D01*
X160171196Y-154558012D01*
X159518727Y-155210481D01*
X159505165Y-155124852D01*
X159447641Y-155011955D01*
X159358045Y-154922359D01*
X159245148Y-154864835D01*
X159159516Y-154851272D01*
X159811986Y-154198801D01*
X159811986Y-154198800D01*
X159751403Y-154156379D01*
X159551905Y-154063350D01*
X159339284Y-154006380D01*
X159119999Y-153987195D01*
X158900715Y-154006380D01*
X158688092Y-154063351D01*
X158488598Y-154156378D01*
X158428011Y-154198801D01*
X159080482Y-154851272D01*
X158994852Y-154864835D01*
X158881955Y-154922359D01*
X158792359Y-155011955D01*
X158734835Y-155124852D01*
X158721272Y-155210482D01*
X158068801Y-154558011D01*
X158026378Y-154618598D01*
X157933351Y-154818092D01*
X157876380Y-155030715D01*
X157857195Y-155250000D01*
X157589360Y-155250000D01*
X157569965Y-155053084D01*
X157512527Y-154863735D01*
X157419252Y-154689230D01*
X157419250Y-154689226D01*
X157293725Y-154536274D01*
X157140773Y-154410749D01*
X156966267Y-154317474D01*
X156966266Y-154317473D01*
X156966265Y-154317473D01*
X156776916Y-154260035D01*
X156776913Y-154260034D01*
X156776911Y-154260034D01*
X156580000Y-154240639D01*
X156383088Y-154260034D01*
X156383085Y-154260034D01*
X156383084Y-154260035D01*
X156234484Y-154305112D01*
X156193732Y-154317474D01*
X156019226Y-154410749D01*
X155866274Y-154536274D01*
X155740749Y-154689226D01*
X155647474Y-154863732D01*
X155590034Y-155053088D01*
X155570639Y-155250000D01*
X155049360Y-155250000D01*
X155029965Y-155053084D01*
X154972527Y-154863735D01*
X154879252Y-154689230D01*
X154879250Y-154689226D01*
X154753725Y-154536274D01*
X154600773Y-154410749D01*
X154426267Y-154317474D01*
X154426266Y-154317473D01*
X154426265Y-154317473D01*
X154236916Y-154260035D01*
X154236913Y-154260034D01*
X154236911Y-154260034D01*
X154040000Y-154240639D01*
X153843088Y-154260034D01*
X153843085Y-154260034D01*
X153843084Y-154260035D01*
X153694484Y-154305112D01*
X153653732Y-154317474D01*
X153479226Y-154410749D01*
X153326274Y-154536274D01*
X153200749Y-154689226D01*
X153107474Y-154863732D01*
X153050034Y-155053088D01*
X153030639Y-155250000D01*
X152504499Y-155250000D01*
X152504499Y-154474934D01*
X152504499Y-154474933D01*
X152504499Y-154474931D01*
X152489734Y-154400699D01*
X152433484Y-154316515D01*
X152349301Y-154260266D01*
X152309655Y-154252380D01*
X152275067Y-154245500D01*
X152275066Y-154245500D01*
X150724931Y-154245500D01*
X150650699Y-154260265D01*
X150566515Y-154316515D01*
X150510266Y-154400698D01*
X150495500Y-154474933D01*
X150495500Y-156025068D01*
X142424500Y-156025068D01*
X142424499Y-154301746D01*
X142418040Y-154241658D01*
X142367342Y-154105733D01*
X142367341Y-154105731D01*
X142280404Y-153989595D01*
X142164268Y-153902658D01*
X142028339Y-153851959D01*
X141971603Y-153845859D01*
X141971585Y-153845858D01*
X141968255Y-153845500D01*
X141964887Y-153845500D01*
X140635116Y-153845500D01*
X140635097Y-153845500D01*
X140631746Y-153845501D01*
X140628404Y-153845860D01*
X140628389Y-153845861D01*
X140571661Y-153851959D01*
X140435731Y-153902658D01*
X140319595Y-153989595D01*
X140232658Y-154105731D01*
X140181959Y-154241660D01*
X140175859Y-154298396D01*
X140175857Y-154298415D01*
X140175500Y-154301745D01*
X140175500Y-154305111D01*
X140175500Y-154305112D01*
X140175500Y-156094883D01*
X140175500Y-156094901D01*
X139669390Y-156094901D01*
X139764042Y-155947620D01*
X139765170Y-155944804D01*
X139843857Y-155748251D01*
X139843856Y-155748251D01*
X139843858Y-155748249D01*
X139884500Y-155537377D01*
X139884500Y-154916434D01*
X139869201Y-154756219D01*
X139841719Y-154662623D01*
X139808698Y-154550163D01*
X139736824Y-154410748D01*
X139710293Y-154359284D01*
X139577541Y-154190476D01*
X139494301Y-154118348D01*
X139415240Y-154049842D01*
X139229259Y-153942466D01*
X139114241Y-153902658D01*
X139026317Y-153872227D01*
X139026316Y-153872226D01*
X139026314Y-153872226D01*
X138813750Y-153841663D01*
X138599239Y-153851882D01*
X138390543Y-153902511D01*
X138195191Y-153991725D01*
X138020259Y-154116293D01*
X137872062Y-154271719D01*
X137755955Y-154452383D01*
X137676142Y-154651748D01*
X137644082Y-154818095D01*
X137635500Y-154862623D01*
X137635500Y-155483566D01*
X134274500Y-155483566D01*
X134274499Y-154301746D01*
X134268040Y-154241658D01*
X134217342Y-154105733D01*
X134217341Y-154105731D01*
X134130404Y-153989595D01*
X134014268Y-153902658D01*
X133878339Y-153851959D01*
X133821603Y-153845859D01*
X133821585Y-153845858D01*
X133818255Y-153845500D01*
X133814887Y-153845500D01*
X132485116Y-153845500D01*
X132485097Y-153845500D01*
X132481746Y-153845501D01*
X132478404Y-153845860D01*
X132478389Y-153845861D01*
X132421661Y-153851959D01*
X132285731Y-153902658D01*
X132169595Y-153989595D01*
X132082658Y-154105731D01*
X132031959Y-154241660D01*
X132025859Y-154298396D01*
X132025857Y-154298415D01*
X132025500Y-154301745D01*
X132025500Y-154305111D01*
X132025500Y-154305112D01*
X132025500Y-156094883D01*
X132025500Y-156094901D01*
X131519390Y-156094901D01*
X131614042Y-155947620D01*
X131615170Y-155944804D01*
X131693857Y-155748251D01*
X131693856Y-155748251D01*
X131693858Y-155748249D01*
X131734500Y-155537377D01*
X131734500Y-154916434D01*
X131719201Y-154756219D01*
X131691719Y-154662623D01*
X131658698Y-154550163D01*
X131586824Y-154410748D01*
X131560293Y-154359284D01*
X131427541Y-154190476D01*
X131344301Y-154118348D01*
X131265240Y-154049842D01*
X131079259Y-153942466D01*
X130964241Y-153902658D01*
X130876317Y-153872227D01*
X130876316Y-153872226D01*
X130876314Y-153872226D01*
X130663750Y-153841663D01*
X130449239Y-153851882D01*
X130240543Y-153902511D01*
X130045191Y-153991725D01*
X129870259Y-154116293D01*
X129722062Y-154271719D01*
X129605955Y-154452383D01*
X129526142Y-154651748D01*
X129494082Y-154818095D01*
X129485500Y-154862623D01*
X129485500Y-155483566D01*
X111525500Y-155483566D01*
X111525500Y-146500004D01*
X131090693Y-146500004D01*
X131109850Y-146657784D01*
X131166212Y-146806398D01*
X131230910Y-146900128D01*
X131256502Y-146937205D01*
X131375471Y-147042603D01*
X131516207Y-147116467D01*
X131670529Y-147154504D01*
X131670531Y-147154504D01*
X131829469Y-147154504D01*
X131829471Y-147154504D01*
X131983793Y-147116467D01*
X132124529Y-147042603D01*
X132243498Y-146937205D01*
X132333787Y-146806399D01*
X132390149Y-146657786D01*
X132404952Y-146535869D01*
X175422000Y-146535869D01*
X175422226Y-146541192D01*
X175436910Y-146713726D01*
X175496015Y-146940721D01*
X175592638Y-147154475D01*
X175723992Y-147348819D01*
X175886294Y-147518162D01*
X176074896Y-147657651D01*
X176284344Y-147763254D01*
X176508632Y-147831940D01*
X176545999Y-147836725D01*
X176546000Y-147836725D01*
X176546000Y-146794224D01*
X176643369Y-146834556D01*
X176760677Y-146850000D01*
X176839323Y-146850000D01*
X176956631Y-146834556D01*
X177054000Y-146794224D01*
X177054000Y-147834896D01*
X177204968Y-147802361D01*
X177422624Y-147714899D01*
X177622366Y-147591914D01*
X177798453Y-147436937D01*
X177945812Y-147254437D01*
X178060213Y-147049651D01*
X178088435Y-146969773D01*
X178129988Y-146912207D01*
X178196067Y-146886244D01*
X178265693Y-146900128D01*
X178316760Y-146949450D01*
X178319231Y-146954011D01*
X178327357Y-146969773D01*
X178389707Y-147090716D01*
X178522459Y-147259524D01*
X178684759Y-147400157D01*
X178870741Y-147507534D01*
X179073683Y-147577773D01*
X179172035Y-147591914D01*
X179286249Y-147608336D01*
X179286250Y-147608335D01*
X179286251Y-147608336D01*
X179500761Y-147598117D01*
X179709461Y-147547487D01*
X179904807Y-147458275D01*
X180079741Y-147333706D01*
X180227937Y-147178282D01*
X180344042Y-146997620D01*
X180355131Y-146969918D01*
X180399017Y-146914112D01*
X180466108Y-146890890D01*
X180535104Y-146907626D01*
X180584098Y-146959008D01*
X180586921Y-146964847D01*
X180672638Y-147154475D01*
X180803992Y-147348819D01*
X180966294Y-147518162D01*
X181154896Y-147657651D01*
X181364344Y-147763254D01*
X181588632Y-147831940D01*
X181625999Y-147836725D01*
X181626000Y-147836725D01*
X181626000Y-146794224D01*
X181723369Y-146834556D01*
X181840677Y-146850000D01*
X181919323Y-146850000D01*
X182036631Y-146834556D01*
X182134000Y-146794224D01*
X182134000Y-147834896D01*
X182284968Y-147802361D01*
X182502624Y-147714899D01*
X182702366Y-147591914D01*
X182878453Y-147436937D01*
X183025812Y-147254437D01*
X183140213Y-147049651D01*
X183168435Y-146969773D01*
X183209988Y-146912207D01*
X183276067Y-146886244D01*
X183345693Y-146900128D01*
X183396760Y-146949450D01*
X183399231Y-146954011D01*
X183407357Y-146969773D01*
X183469707Y-147090716D01*
X183602459Y-147259524D01*
X183764759Y-147400157D01*
X183950741Y-147507534D01*
X184153683Y-147577773D01*
X184252035Y-147591914D01*
X184366249Y-147608336D01*
X184366250Y-147608335D01*
X184366251Y-147608336D01*
X184580761Y-147598117D01*
X184789461Y-147547487D01*
X184984807Y-147458275D01*
X185159741Y-147333706D01*
X185307937Y-147178282D01*
X185424042Y-146997620D01*
X185435131Y-146969918D01*
X185479017Y-146914112D01*
X185546108Y-146890890D01*
X185615104Y-146907626D01*
X185664098Y-146959008D01*
X185666921Y-146964847D01*
X185752638Y-147154475D01*
X185883992Y-147348819D01*
X186046294Y-147518162D01*
X186234896Y-147657651D01*
X186444344Y-147763254D01*
X186668632Y-147831940D01*
X186706000Y-147836725D01*
X186706000Y-146794224D01*
X186803369Y-146834556D01*
X186920677Y-146850000D01*
X186999323Y-146850000D01*
X187116631Y-146834556D01*
X187214000Y-146794224D01*
X187214000Y-147834896D01*
X187364968Y-147802361D01*
X187582624Y-147714899D01*
X187782366Y-147591914D01*
X187958453Y-147436937D01*
X188105813Y-147254435D01*
X188148855Y-147177388D01*
X188199539Y-147127672D01*
X188269055Y-147113251D01*
X188335333Y-147138702D01*
X188376911Y-147194804D01*
X188432658Y-147344268D01*
X188519595Y-147460404D01*
X188635731Y-147547341D01*
X188635732Y-147547341D01*
X188635733Y-147547342D01*
X188771658Y-147598040D01*
X188817076Y-147602923D01*
X188828377Y-147604138D01*
X188831745Y-147604500D01*
X190168254Y-147604499D01*
X190228342Y-147598040D01*
X190364267Y-147547342D01*
X190480404Y-147460404D01*
X190567342Y-147344267D01*
X190618040Y-147208342D01*
X190624500Y-147148255D01*
X190624500Y-146535869D01*
X196422000Y-146535869D01*
X196422226Y-146541192D01*
X196436910Y-146713726D01*
X196496015Y-146940721D01*
X196592638Y-147154475D01*
X196723992Y-147348819D01*
X196886294Y-147518162D01*
X197074896Y-147657651D01*
X197284344Y-147763254D01*
X197508632Y-147831940D01*
X197545999Y-147836725D01*
X197546000Y-147836725D01*
X197546000Y-146794224D01*
X197643369Y-146834556D01*
X197760677Y-146850000D01*
X197839323Y-146850000D01*
X197956631Y-146834556D01*
X198054000Y-146794224D01*
X198054000Y-147834897D01*
X198204968Y-147802361D01*
X198422624Y-147714899D01*
X198622366Y-147591914D01*
X198798453Y-147436937D01*
X198945812Y-147254437D01*
X199060213Y-147049651D01*
X199088435Y-146969773D01*
X199129988Y-146912207D01*
X199196067Y-146886244D01*
X199265693Y-146900128D01*
X199316760Y-146949450D01*
X199319231Y-146954011D01*
X199327357Y-146969773D01*
X199389707Y-147090716D01*
X199522459Y-147259524D01*
X199684759Y-147400157D01*
X199870741Y-147507534D01*
X200073683Y-147577773D01*
X200172035Y-147591914D01*
X200286249Y-147608336D01*
X200286250Y-147608335D01*
X200286251Y-147608336D01*
X200500761Y-147598117D01*
X200709461Y-147547487D01*
X200904807Y-147458275D01*
X201079741Y-147333706D01*
X201227937Y-147178282D01*
X201344042Y-146997620D01*
X201355131Y-146969918D01*
X201399017Y-146914112D01*
X201466108Y-146890890D01*
X201535104Y-146907626D01*
X201584098Y-146959008D01*
X201586921Y-146964847D01*
X201672638Y-147154475D01*
X201803992Y-147348819D01*
X201966294Y-147518162D01*
X202154896Y-147657651D01*
X202364344Y-147763254D01*
X202588632Y-147831940D01*
X202625999Y-147836725D01*
X202626000Y-147836725D01*
X202625999Y-146794224D01*
X202723369Y-146834556D01*
X202840677Y-146850000D01*
X202919323Y-146850000D01*
X203036631Y-146834556D01*
X203133999Y-146794224D01*
X203133999Y-147834896D01*
X203284968Y-147802361D01*
X203502624Y-147714899D01*
X203702366Y-147591914D01*
X203878453Y-147436937D01*
X204025812Y-147254437D01*
X204140213Y-147049651D01*
X204168435Y-146969773D01*
X204209988Y-146912207D01*
X204276067Y-146886244D01*
X204345693Y-146900128D01*
X204396760Y-146949450D01*
X204399231Y-146954011D01*
X204407357Y-146969773D01*
X204469707Y-147090716D01*
X204602459Y-147259524D01*
X204764759Y-147400157D01*
X204950741Y-147507534D01*
X205153683Y-147577773D01*
X205252035Y-147591914D01*
X205366249Y-147608336D01*
X205366250Y-147608335D01*
X205366251Y-147608336D01*
X205580761Y-147598117D01*
X205789461Y-147547487D01*
X205984807Y-147458275D01*
X206159741Y-147333706D01*
X206307937Y-147178282D01*
X206424042Y-146997620D01*
X206435131Y-146969918D01*
X206479017Y-146914112D01*
X206546108Y-146890890D01*
X206615104Y-146907626D01*
X206664098Y-146959008D01*
X206666921Y-146964847D01*
X206752638Y-147154475D01*
X206883992Y-147348819D01*
X207046294Y-147518162D01*
X207234896Y-147657651D01*
X207444344Y-147763254D01*
X207668632Y-147831940D01*
X207705998Y-147836725D01*
X207705999Y-147836724D01*
X207705999Y-146794224D01*
X207803369Y-146834556D01*
X207920677Y-146850000D01*
X207999323Y-146850000D01*
X208116631Y-146834556D01*
X208214000Y-146794224D01*
X208214000Y-147834896D01*
X208364968Y-147802361D01*
X208582624Y-147714899D01*
X208782366Y-147591914D01*
X208958453Y-147436937D01*
X209105813Y-147254435D01*
X209148855Y-147177388D01*
X209199539Y-147127672D01*
X209269055Y-147113251D01*
X209335333Y-147138702D01*
X209376911Y-147194804D01*
X209432658Y-147344268D01*
X209519595Y-147460404D01*
X209635731Y-147547341D01*
X209635732Y-147547341D01*
X209635733Y-147547342D01*
X209771658Y-147598040D01*
X209817076Y-147602923D01*
X209828377Y-147604138D01*
X209831745Y-147604500D01*
X211168254Y-147604499D01*
X211228342Y-147598040D01*
X211364267Y-147547342D01*
X211480404Y-147460404D01*
X211567342Y-147344267D01*
X211618040Y-147208342D01*
X211624500Y-147148255D01*
X211624499Y-145351746D01*
X211618040Y-145291658D01*
X211567342Y-145155733D01*
X211525504Y-145099843D01*
X211480404Y-145039595D01*
X211364268Y-144952658D01*
X211261207Y-144914218D01*
X211228342Y-144901960D01*
X211228341Y-144901959D01*
X211228339Y-144901959D01*
X211171603Y-144895859D01*
X211171585Y-144895858D01*
X211168255Y-144895500D01*
X211164887Y-144895500D01*
X209835116Y-144895500D01*
X209835097Y-144895500D01*
X209831746Y-144895501D01*
X209828404Y-144895860D01*
X209828389Y-144895861D01*
X209771661Y-144901959D01*
X209635731Y-144952658D01*
X209519595Y-145039595D01*
X209432658Y-145155731D01*
X209401939Y-145238090D01*
X209401051Y-145240475D01*
X209378180Y-145301794D01*
X209335633Y-145358629D01*
X209269112Y-145383440D01*
X209199738Y-145368348D01*
X209155732Y-145328318D01*
X209036007Y-145151180D01*
X208873705Y-144981837D01*
X208685103Y-144842348D01*
X208475655Y-144736745D01*
X208251365Y-144668058D01*
X208214000Y-144663273D01*
X208214000Y-145705775D01*
X208116631Y-145665444D01*
X207999323Y-145650000D01*
X207920677Y-145650000D01*
X207803369Y-145665444D01*
X207706000Y-145705775D01*
X207706000Y-144665102D01*
X207555029Y-144697640D01*
X207337374Y-144785100D01*
X207137633Y-144908085D01*
X206961546Y-145063062D01*
X206814187Y-145245562D01*
X206699784Y-145450352D01*
X206671563Y-145530227D01*
X206630010Y-145587793D01*
X206563930Y-145613755D01*
X206494305Y-145599870D01*
X206443239Y-145550547D01*
X206440768Y-145545987D01*
X206391463Y-145450349D01*
X206370293Y-145409284D01*
X206237541Y-145240476D01*
X206134488Y-145151180D01*
X206075240Y-145099842D01*
X205889259Y-144992466D01*
X205774241Y-144952658D01*
X205686317Y-144922227D01*
X205686316Y-144922226D01*
X205686314Y-144922226D01*
X205473750Y-144891663D01*
X205259239Y-144901882D01*
X205050543Y-144952511D01*
X204855191Y-145041725D01*
X204680259Y-145166293D01*
X204532062Y-145321719D01*
X204415957Y-145502380D01*
X204404867Y-145530083D01*
X204360979Y-145585889D01*
X204293887Y-145609109D01*
X204224892Y-145592371D01*
X204175899Y-145540988D01*
X204173078Y-145535151D01*
X204087362Y-145345526D01*
X203956007Y-145151180D01*
X203793705Y-144981837D01*
X203605103Y-144842348D01*
X203395655Y-144736745D01*
X203171365Y-144668058D01*
X203134000Y-144663273D01*
X203134000Y-145705775D01*
X203036631Y-145665444D01*
X202919323Y-145650000D01*
X202840677Y-145650000D01*
X202723369Y-145665444D01*
X202625999Y-145705775D01*
X202626000Y-144665102D01*
X202475029Y-144697640D01*
X202257374Y-144785100D01*
X202057633Y-144908085D01*
X201881546Y-145063062D01*
X201734187Y-145245562D01*
X201619784Y-145450352D01*
X201591563Y-145530227D01*
X201550010Y-145587793D01*
X201483930Y-145613755D01*
X201414305Y-145599870D01*
X201363239Y-145550547D01*
X201360768Y-145545987D01*
X201311463Y-145450349D01*
X201290293Y-145409284D01*
X201157541Y-145240476D01*
X201054488Y-145151180D01*
X200995240Y-145099842D01*
X200809259Y-144992466D01*
X200694241Y-144952658D01*
X200606317Y-144922227D01*
X200606316Y-144922226D01*
X200606314Y-144922226D01*
X200393750Y-144891663D01*
X200179239Y-144901882D01*
X199970543Y-144952511D01*
X199775191Y-145041725D01*
X199600259Y-145166293D01*
X199452062Y-145321719D01*
X199335957Y-145502380D01*
X199324867Y-145530083D01*
X199280979Y-145585889D01*
X199213887Y-145609109D01*
X199144892Y-145592371D01*
X199095899Y-145540988D01*
X199093078Y-145535151D01*
X199007362Y-145345526D01*
X198876007Y-145151180D01*
X198713705Y-144981837D01*
X198525103Y-144842348D01*
X198315655Y-144736745D01*
X198091365Y-144668058D01*
X198054000Y-144663273D01*
X198054000Y-145705775D01*
X197956631Y-145665444D01*
X197839323Y-145650000D01*
X197760677Y-145650000D01*
X197643369Y-145665444D01*
X197545999Y-145705775D01*
X197545999Y-144665102D01*
X197395029Y-144697640D01*
X197177374Y-144785100D01*
X196977633Y-144908085D01*
X196801546Y-145063062D01*
X196654187Y-145245562D01*
X196539786Y-145450349D01*
X196461643Y-145671518D01*
X196422000Y-145902717D01*
X196422000Y-145996000D01*
X197255775Y-145996000D01*
X197215444Y-146093369D01*
X197194823Y-146250000D01*
X197215444Y-146406631D01*
X197255775Y-146504000D01*
X196422000Y-146504000D01*
X196422000Y-146535869D01*
X190624500Y-146535869D01*
X190624499Y-145351746D01*
X190618040Y-145291658D01*
X190567342Y-145155733D01*
X190525504Y-145099843D01*
X190480404Y-145039595D01*
X190364268Y-144952658D01*
X190261207Y-144914218D01*
X190228342Y-144901960D01*
X190228341Y-144901959D01*
X190228339Y-144901959D01*
X190171603Y-144895859D01*
X190171585Y-144895858D01*
X190168255Y-144895500D01*
X190164887Y-144895500D01*
X188835116Y-144895500D01*
X188835097Y-144895500D01*
X188831746Y-144895501D01*
X188828404Y-144895860D01*
X188828389Y-144895861D01*
X188771661Y-144901959D01*
X188635731Y-144952658D01*
X188519595Y-145039595D01*
X188432658Y-145155731D01*
X188401939Y-145238090D01*
X188401051Y-145240475D01*
X188378180Y-145301794D01*
X188335633Y-145358629D01*
X188269112Y-145383440D01*
X188199738Y-145368348D01*
X188155732Y-145328318D01*
X188036007Y-145151180D01*
X187873705Y-144981837D01*
X187685103Y-144842348D01*
X187475655Y-144736745D01*
X187251365Y-144668058D01*
X187214000Y-144663273D01*
X187214000Y-145705775D01*
X187116631Y-145665444D01*
X186999323Y-145650000D01*
X186920677Y-145650000D01*
X186803369Y-145665444D01*
X186706000Y-145705775D01*
X186706000Y-144665102D01*
X186555029Y-144697640D01*
X186337374Y-144785100D01*
X186137633Y-144908085D01*
X185961546Y-145063062D01*
X185814187Y-145245562D01*
X185699784Y-145450352D01*
X185671563Y-145530227D01*
X185630010Y-145587793D01*
X185563930Y-145613755D01*
X185494305Y-145599870D01*
X185443239Y-145550547D01*
X185440768Y-145545987D01*
X185391463Y-145450349D01*
X185370293Y-145409284D01*
X185237541Y-145240476D01*
X185134488Y-145151180D01*
X185075240Y-145099842D01*
X184889259Y-144992466D01*
X184774241Y-144952658D01*
X184686317Y-144922227D01*
X184686316Y-144922226D01*
X184686314Y-144922226D01*
X184473750Y-144891663D01*
X184259239Y-144901882D01*
X184050543Y-144952511D01*
X183855191Y-145041725D01*
X183680259Y-145166293D01*
X183532062Y-145321719D01*
X183415957Y-145502380D01*
X183404867Y-145530083D01*
X183360979Y-145585889D01*
X183293887Y-145609109D01*
X183224892Y-145592371D01*
X183175899Y-145540988D01*
X183173078Y-145535151D01*
X183087362Y-145345526D01*
X182956007Y-145151180D01*
X182793705Y-144981837D01*
X182605103Y-144842348D01*
X182395655Y-144736745D01*
X182171365Y-144668058D01*
X182134000Y-144663273D01*
X182134000Y-145705775D01*
X182036631Y-145665444D01*
X181919323Y-145650000D01*
X181840677Y-145650000D01*
X181723369Y-145665444D01*
X181626000Y-145705775D01*
X181626000Y-144665102D01*
X181475029Y-144697640D01*
X181257374Y-144785100D01*
X181057633Y-144908085D01*
X180881546Y-145063062D01*
X180734187Y-145245562D01*
X180619784Y-145450352D01*
X180591563Y-145530227D01*
X180550010Y-145587793D01*
X180483930Y-145613755D01*
X180414305Y-145599870D01*
X180363239Y-145550547D01*
X180360768Y-145545987D01*
X180311463Y-145450349D01*
X180290293Y-145409284D01*
X180157541Y-145240476D01*
X180054488Y-145151180D01*
X179995240Y-145099842D01*
X179809259Y-144992466D01*
X179694241Y-144952658D01*
X179606317Y-144922227D01*
X179606316Y-144922226D01*
X179606314Y-144922226D01*
X179393750Y-144891663D01*
X179179239Y-144901882D01*
X178970543Y-144952511D01*
X178775191Y-145041725D01*
X178600259Y-145166293D01*
X178452062Y-145321719D01*
X178335957Y-145502380D01*
X178324867Y-145530083D01*
X178280979Y-145585889D01*
X178213887Y-145609109D01*
X178144892Y-145592371D01*
X178095899Y-145540988D01*
X178093078Y-145535151D01*
X178007362Y-145345526D01*
X177876007Y-145151180D01*
X177713705Y-144981837D01*
X177525103Y-144842348D01*
X177315655Y-144736745D01*
X177091364Y-144668058D01*
X177053999Y-144663273D01*
X177053999Y-145705775D01*
X176956631Y-145665444D01*
X176839323Y-145650000D01*
X176760677Y-145650000D01*
X176643369Y-145665444D01*
X176546000Y-145705775D01*
X176546000Y-144665102D01*
X176395029Y-144697640D01*
X176177374Y-144785100D01*
X175977633Y-144908085D01*
X175801546Y-145063062D01*
X175654187Y-145245562D01*
X175539786Y-145450349D01*
X175461643Y-145671518D01*
X175422000Y-145902717D01*
X175422000Y-145996000D01*
X176255775Y-145996000D01*
X176215444Y-146093369D01*
X176194823Y-146250000D01*
X176215444Y-146406631D01*
X176255775Y-146504000D01*
X175422000Y-146504000D01*
X175422000Y-146535869D01*
X132404952Y-146535869D01*
X132409307Y-146500004D01*
X132390149Y-146342222D01*
X132333787Y-146193609D01*
X132243498Y-146062803D01*
X132124529Y-145957405D01*
X131983793Y-145883541D01*
X131829471Y-145845504D01*
X131670529Y-145845504D01*
X131516207Y-145883541D01*
X131516206Y-145883541D01*
X131516204Y-145883542D01*
X131375472Y-145957404D01*
X131256501Y-146062803D01*
X131166212Y-146193609D01*
X131109850Y-146342223D01*
X131090693Y-146500004D01*
X111525500Y-146500004D01*
X111525500Y-139500000D01*
X198590693Y-139500000D01*
X198609850Y-139657780D01*
X198666212Y-139806394D01*
X198666213Y-139806395D01*
X198756502Y-139937201D01*
X198875471Y-140042599D01*
X199016207Y-140116463D01*
X199170529Y-140154500D01*
X199170531Y-140154500D01*
X199329469Y-140154500D01*
X199329471Y-140154500D01*
X199483793Y-140116463D01*
X199624529Y-140042599D01*
X199702307Y-139973692D01*
X199766558Y-139943493D01*
X199836939Y-139952824D01*
X199891102Y-139998724D01*
X199903671Y-140023325D01*
X199916213Y-140056395D01*
X199957673Y-140116461D01*
X200006502Y-140187201D01*
X200125471Y-140292599D01*
X200266207Y-140366463D01*
X200420529Y-140404500D01*
X200420531Y-140404500D01*
X200579469Y-140404500D01*
X200579471Y-140404500D01*
X200733793Y-140366463D01*
X200874529Y-140292599D01*
X200993498Y-140187201D01*
X201083787Y-140056395D01*
X201140149Y-139907782D01*
X201159307Y-139750000D01*
X201140149Y-139592218D01*
X201083787Y-139443605D01*
X200993498Y-139312799D01*
X200874529Y-139207401D01*
X200733793Y-139133537D01*
X200579471Y-139095500D01*
X200420529Y-139095500D01*
X200266207Y-139133537D01*
X200266206Y-139133537D01*
X200266204Y-139133538D01*
X200125472Y-139207400D01*
X200047693Y-139276306D01*
X199983440Y-139306506D01*
X199913059Y-139297174D01*
X199858896Y-139251273D01*
X199846328Y-139226673D01*
X199833787Y-139193605D01*
X199743498Y-139062799D01*
X199720697Y-139042599D01*
X199624529Y-138957401D01*
X199483793Y-138883537D01*
X199329471Y-138845500D01*
X199170529Y-138845500D01*
X199016207Y-138883537D01*
X199016206Y-138883537D01*
X199016204Y-138883538D01*
X198875472Y-138957400D01*
X198756501Y-139062799D01*
X198666212Y-139193605D01*
X198609850Y-139342219D01*
X198590693Y-139500000D01*
X111525500Y-139500000D01*
X111525500Y-138500000D01*
X189340693Y-138500000D01*
X189359850Y-138657780D01*
X189416212Y-138806394D01*
X189416213Y-138806395D01*
X189506502Y-138937201D01*
X189625471Y-139042599D01*
X189766207Y-139116463D01*
X189920529Y-139154500D01*
X189920531Y-139154500D01*
X190079469Y-139154500D01*
X190079471Y-139154500D01*
X190233793Y-139116463D01*
X190374529Y-139042599D01*
X190493498Y-138937201D01*
X190583787Y-138806395D01*
X190640149Y-138657782D01*
X190659307Y-138500000D01*
X190640149Y-138342218D01*
X190583787Y-138193605D01*
X190493498Y-138062799D01*
X190374529Y-137957401D01*
X190233793Y-137883537D01*
X190079471Y-137845500D01*
X189920529Y-137845500D01*
X189766207Y-137883537D01*
X189766206Y-137883537D01*
X189766204Y-137883538D01*
X189625472Y-137957400D01*
X189506501Y-138062799D01*
X189416212Y-138193605D01*
X189359850Y-138342219D01*
X189340693Y-138500000D01*
X111525500Y-138500000D01*
X111525500Y-135500000D01*
X113340693Y-135500000D01*
X113359850Y-135657780D01*
X113416212Y-135806394D01*
X113416213Y-135806395D01*
X113506502Y-135937201D01*
X113625471Y-136042599D01*
X113766207Y-136116463D01*
X113920529Y-136154500D01*
X113920531Y-136154500D01*
X114079469Y-136154500D01*
X114079471Y-136154500D01*
X114233793Y-136116463D01*
X114374529Y-136042599D01*
X114493498Y-135937201D01*
X114583787Y-135806395D01*
X114640149Y-135657782D01*
X114659307Y-135500000D01*
X114640149Y-135342218D01*
X114583787Y-135193605D01*
X114493498Y-135062799D01*
X114422612Y-134999999D01*
X130590693Y-134999999D01*
X130609850Y-135157780D01*
X130666212Y-135306394D01*
X130690941Y-135342219D01*
X130756502Y-135437201D01*
X130875471Y-135542599D01*
X131016207Y-135616463D01*
X131170529Y-135654500D01*
X131170531Y-135654500D01*
X131329469Y-135654500D01*
X131329471Y-135654500D01*
X131483793Y-135616463D01*
X131624529Y-135542599D01*
X131743498Y-135437201D01*
X131833787Y-135306395D01*
X131890149Y-135157782D01*
X131909307Y-135000000D01*
X131890149Y-134842218D01*
X131833787Y-134693605D01*
X131743498Y-134562799D01*
X131624529Y-134457401D01*
X131483793Y-134383537D01*
X131329471Y-134345500D01*
X131170529Y-134345500D01*
X131016207Y-134383537D01*
X131016206Y-134383537D01*
X131016204Y-134383538D01*
X130875472Y-134457400D01*
X130756501Y-134562799D01*
X130666212Y-134693605D01*
X130609850Y-134842219D01*
X130590693Y-134999999D01*
X114422612Y-134999999D01*
X114374529Y-134957401D01*
X114233793Y-134883537D01*
X114079471Y-134845500D01*
X113920529Y-134845500D01*
X113766207Y-134883537D01*
X113766206Y-134883537D01*
X113766204Y-134883538D01*
X113625472Y-134957400D01*
X113506501Y-135062799D01*
X113416212Y-135193605D01*
X113359850Y-135342219D01*
X113340693Y-135500000D01*
X111525500Y-135500000D01*
X111525500Y-132960000D01*
X126510693Y-132960000D01*
X126529850Y-133117780D01*
X126586212Y-133266394D01*
X126586213Y-133266395D01*
X126676502Y-133397201D01*
X126795471Y-133502599D01*
X126936207Y-133576463D01*
X127090529Y-133614500D01*
X127090531Y-133614500D01*
X127249469Y-133614500D01*
X127249471Y-133614500D01*
X127403793Y-133576463D01*
X127544529Y-133502599D01*
X127663498Y-133397201D01*
X127753787Y-133266395D01*
X127810149Y-133117782D01*
X127815344Y-133075000D01*
X210915693Y-133075000D01*
X210934850Y-133232780D01*
X210991212Y-133381394D01*
X210991213Y-133381395D01*
X211081502Y-133512201D01*
X211200471Y-133617599D01*
X211341207Y-133691463D01*
X211495529Y-133729500D01*
X211495531Y-133729500D01*
X211654469Y-133729500D01*
X211654471Y-133729500D01*
X211808793Y-133691463D01*
X211949529Y-133617599D01*
X212068498Y-133512201D01*
X212158787Y-133381395D01*
X212215149Y-133232782D01*
X212234307Y-133075000D01*
X212215149Y-132917218D01*
X212158787Y-132768605D01*
X212068498Y-132637799D01*
X211949529Y-132532401D01*
X211808793Y-132458537D01*
X211654471Y-132420500D01*
X211495529Y-132420500D01*
X211341207Y-132458537D01*
X211341206Y-132458537D01*
X211341204Y-132458538D01*
X211200472Y-132532400D01*
X211081501Y-132637799D01*
X210991212Y-132768605D01*
X210934850Y-132917219D01*
X210915693Y-133075000D01*
X127815344Y-133075000D01*
X127829307Y-132960000D01*
X127810149Y-132802218D01*
X127753787Y-132653605D01*
X127663498Y-132522799D01*
X127544529Y-132417401D01*
X127403793Y-132343537D01*
X127249471Y-132305500D01*
X127090529Y-132305500D01*
X126936207Y-132343537D01*
X126936206Y-132343537D01*
X126936204Y-132343538D01*
X126795472Y-132417400D01*
X126676501Y-132522799D01*
X126586212Y-132653605D01*
X126529850Y-132802219D01*
X126510693Y-132960000D01*
X111525500Y-132960000D01*
X111525500Y-132199999D01*
X197590693Y-132199999D01*
X197609850Y-132357780D01*
X197666212Y-132506394D01*
X197684164Y-132532401D01*
X197756502Y-132637201D01*
X197875471Y-132742599D01*
X198016207Y-132816463D01*
X198170529Y-132854500D01*
X198170531Y-132854500D01*
X198329469Y-132854500D01*
X198329471Y-132854500D01*
X198483793Y-132816463D01*
X198624529Y-132742599D01*
X198743498Y-132637201D01*
X198833787Y-132506395D01*
X198890149Y-132357782D01*
X198909307Y-132200000D01*
X198890149Y-132042218D01*
X198833787Y-131893605D01*
X198743498Y-131762799D01*
X198624529Y-131657401D01*
X198483793Y-131583537D01*
X198329471Y-131545500D01*
X198170529Y-131545500D01*
X198016207Y-131583537D01*
X198016206Y-131583537D01*
X198016204Y-131583538D01*
X197875472Y-131657400D01*
X197756501Y-131762799D01*
X197666212Y-131893605D01*
X197609850Y-132042219D01*
X197590693Y-132199999D01*
X111525500Y-132199999D01*
X111525500Y-130240000D01*
X122840693Y-130240000D01*
X122843340Y-130261804D01*
X122859850Y-130397780D01*
X122916212Y-130546394D01*
X122992141Y-130656395D01*
X123006502Y-130677201D01*
X123125471Y-130782599D01*
X123266207Y-130856463D01*
X123420529Y-130894500D01*
X123420531Y-130894500D01*
X123446136Y-130894500D01*
X123514257Y-130914502D01*
X123560750Y-130968158D01*
X123571216Y-131035686D01*
X123570693Y-131039999D01*
X123570693Y-131040000D01*
X123589850Y-131197780D01*
X123646212Y-131346394D01*
X123646213Y-131346395D01*
X123736502Y-131477201D01*
X123855471Y-131582599D01*
X123996207Y-131656463D01*
X124150529Y-131694500D01*
X124150531Y-131694500D01*
X124309469Y-131694500D01*
X124309471Y-131694500D01*
X124463793Y-131656463D01*
X124604529Y-131582599D01*
X124723498Y-131477201D01*
X124813787Y-131346395D01*
X124870149Y-131197782D01*
X124889307Y-131040000D01*
X124870149Y-130882218D01*
X124813787Y-130733605D01*
X124723498Y-130602799D01*
X124604529Y-130497401D01*
X124463793Y-130423537D01*
X124309471Y-130385500D01*
X124283864Y-130385500D01*
X124215743Y-130365498D01*
X124202314Y-130350000D01*
X200740693Y-130350000D01*
X200759850Y-130507780D01*
X200816212Y-130656394D01*
X200830574Y-130677200D01*
X200906502Y-130787201D01*
X201025471Y-130892599D01*
X201166207Y-130966463D01*
X201320529Y-131004500D01*
X201320531Y-131004500D01*
X201479469Y-131004500D01*
X201479471Y-131004500D01*
X201633793Y-130966463D01*
X201774529Y-130892599D01*
X201893498Y-130787201D01*
X201983787Y-130656395D01*
X202040149Y-130507782D01*
X202059307Y-130350000D01*
X202040149Y-130192218D01*
X201983787Y-130043605D01*
X201893498Y-129912799D01*
X201774529Y-129807401D01*
X201633793Y-129733537D01*
X201479471Y-129695500D01*
X201320529Y-129695500D01*
X201166207Y-129733537D01*
X201166206Y-129733537D01*
X201166204Y-129733538D01*
X201025472Y-129807400D01*
X200906501Y-129912799D01*
X200816212Y-130043605D01*
X200759850Y-130192219D01*
X200740693Y-130350000D01*
X124202314Y-130350000D01*
X124169250Y-130311842D01*
X124158783Y-130244312D01*
X124159307Y-130240000D01*
X124140149Y-130082218D01*
X124083787Y-129933605D01*
X123993498Y-129802799D01*
X123874529Y-129697401D01*
X123733793Y-129623537D01*
X123579471Y-129585500D01*
X123420529Y-129585500D01*
X123266207Y-129623537D01*
X123266206Y-129623537D01*
X123266204Y-129623538D01*
X123125472Y-129697400D01*
X123006501Y-129802799D01*
X122916212Y-129933605D01*
X122859850Y-130082219D01*
X122845003Y-130204500D01*
X122840693Y-130240000D01*
X111525500Y-130240000D01*
X111525500Y-128910000D01*
X131840693Y-128910000D01*
X131859850Y-129067780D01*
X131916212Y-129216394D01*
X131934995Y-129243605D01*
X132006502Y-129347201D01*
X132125471Y-129452599D01*
X132266207Y-129526463D01*
X132420529Y-129564500D01*
X132420531Y-129564500D01*
X132579469Y-129564500D01*
X132579471Y-129564500D01*
X132638300Y-129550000D01*
X212915693Y-129550000D01*
X212934850Y-129707780D01*
X212991212Y-129856394D01*
X212991213Y-129856395D01*
X213081502Y-129987201D01*
X213200471Y-130092599D01*
X213341207Y-130166463D01*
X213495529Y-130204500D01*
X213495531Y-130204500D01*
X213654469Y-130204500D01*
X213654471Y-130204500D01*
X213808793Y-130166463D01*
X213949529Y-130092599D01*
X214068498Y-129987201D01*
X214158787Y-129856395D01*
X214215149Y-129707782D01*
X214234307Y-129550000D01*
X214215149Y-129392218D01*
X214158787Y-129243605D01*
X214068498Y-129112799D01*
X213949529Y-129007401D01*
X213808793Y-128933537D01*
X213654471Y-128895500D01*
X213495529Y-128895500D01*
X213341207Y-128933537D01*
X213341206Y-128933537D01*
X213341204Y-128933538D01*
X213200472Y-129007400D01*
X213081501Y-129112799D01*
X212991212Y-129243605D01*
X212934850Y-129392219D01*
X212915693Y-129550000D01*
X132638300Y-129550000D01*
X132733793Y-129526463D01*
X132874529Y-129452599D01*
X132993498Y-129347201D01*
X133083787Y-129216395D01*
X133140149Y-129067782D01*
X133159307Y-128910000D01*
X133140149Y-128752218D01*
X133083787Y-128603605D01*
X133012273Y-128499999D01*
X191590693Y-128499999D01*
X191609850Y-128657780D01*
X191666212Y-128806394D01*
X191753974Y-128933538D01*
X191756502Y-128937201D01*
X191875471Y-129042599D01*
X192016207Y-129116463D01*
X192170529Y-129154500D01*
X192170531Y-129154500D01*
X192329469Y-129154500D01*
X192329471Y-129154500D01*
X192483793Y-129116463D01*
X192624529Y-129042599D01*
X192743498Y-128937201D01*
X192833787Y-128806395D01*
X192890149Y-128657782D01*
X192909307Y-128500000D01*
X192890149Y-128342218D01*
X192833787Y-128193605D01*
X192743498Y-128062799D01*
X192624529Y-127957401D01*
X192483793Y-127883537D01*
X192329471Y-127845500D01*
X192170529Y-127845500D01*
X192016207Y-127883537D01*
X192016206Y-127883537D01*
X192016204Y-127883538D01*
X191875472Y-127957400D01*
X191756501Y-128062799D01*
X191666212Y-128193605D01*
X191609850Y-128342219D01*
X191590693Y-128499999D01*
X133012273Y-128499999D01*
X132993498Y-128472799D01*
X132874529Y-128367401D01*
X132733793Y-128293537D01*
X132579471Y-128255500D01*
X132420529Y-128255500D01*
X132266207Y-128293537D01*
X132266206Y-128293537D01*
X132266204Y-128293538D01*
X132125472Y-128367400D01*
X132006501Y-128472799D01*
X131916212Y-128603605D01*
X131859850Y-128752219D01*
X131840693Y-128910000D01*
X111525500Y-128910000D01*
X111525500Y-127939999D01*
X129950693Y-127939999D01*
X129969850Y-128097780D01*
X130026212Y-128246394D01*
X130109738Y-128367401D01*
X130116502Y-128377201D01*
X130235471Y-128482599D01*
X130376207Y-128556463D01*
X130530529Y-128594500D01*
X130530531Y-128594500D01*
X130689469Y-128594500D01*
X130689471Y-128594500D01*
X130843793Y-128556463D01*
X130984529Y-128482599D01*
X131103498Y-128377201D01*
X131193787Y-128246395D01*
X131250149Y-128097782D01*
X131269307Y-127940000D01*
X131250149Y-127782218D01*
X131193787Y-127633605D01*
X131103498Y-127502799D01*
X130984529Y-127397401D01*
X130843793Y-127323537D01*
X130689471Y-127285500D01*
X130530529Y-127285500D01*
X130376207Y-127323537D01*
X130376206Y-127323537D01*
X130376204Y-127323538D01*
X130235472Y-127397400D01*
X130116501Y-127502799D01*
X130026212Y-127633605D01*
X129969850Y-127782219D01*
X129950693Y-127939999D01*
X111525500Y-127939999D01*
X111525500Y-127250000D01*
X194340693Y-127250000D01*
X194359850Y-127407780D01*
X194416212Y-127556394D01*
X194416213Y-127556395D01*
X194506502Y-127687201D01*
X194625471Y-127792599D01*
X194766207Y-127866463D01*
X194920529Y-127904500D01*
X194920531Y-127904500D01*
X195079469Y-127904500D01*
X195079471Y-127904500D01*
X195233793Y-127866463D01*
X195374529Y-127792599D01*
X195493498Y-127687201D01*
X195583787Y-127556395D01*
X195640149Y-127407782D01*
X195659307Y-127250000D01*
X195640149Y-127092218D01*
X195583787Y-126943605D01*
X195493498Y-126812799D01*
X195374529Y-126707401D01*
X195233793Y-126633537D01*
X195079471Y-126595500D01*
X194920529Y-126595500D01*
X194766207Y-126633537D01*
X194766206Y-126633537D01*
X194766204Y-126633538D01*
X194625472Y-126707400D01*
X194506501Y-126812799D01*
X194416212Y-126943605D01*
X194359850Y-127092219D01*
X194340693Y-127250000D01*
X111525500Y-127250000D01*
X111525500Y-125750000D01*
X126590693Y-125750000D01*
X126609850Y-125907780D01*
X126666212Y-126056394D01*
X126666213Y-126056395D01*
X126756502Y-126187201D01*
X126875471Y-126292599D01*
X127016207Y-126366463D01*
X127170529Y-126404500D01*
X127170531Y-126404500D01*
X127329469Y-126404500D01*
X127329471Y-126404500D01*
X127483793Y-126366463D01*
X127624529Y-126292599D01*
X127743498Y-126187201D01*
X127833787Y-126056395D01*
X127890149Y-125907782D01*
X127909307Y-125750000D01*
X127890149Y-125592218D01*
X127833787Y-125443605D01*
X127743498Y-125312799D01*
X127624529Y-125207401D01*
X127483793Y-125133537D01*
X127329471Y-125095500D01*
X127170529Y-125095500D01*
X127016207Y-125133537D01*
X127016206Y-125133537D01*
X127016204Y-125133538D01*
X126875472Y-125207400D01*
X126756501Y-125312799D01*
X126666212Y-125443605D01*
X126609850Y-125592219D01*
X126590693Y-125750000D01*
X111525500Y-125750000D01*
X111525500Y-123724999D01*
X204040693Y-123724999D01*
X204059850Y-123882780D01*
X204116212Y-124031394D01*
X204116213Y-124031395D01*
X204206502Y-124162201D01*
X204325471Y-124267599D01*
X204466207Y-124341463D01*
X204620529Y-124379500D01*
X204620531Y-124379500D01*
X204779469Y-124379500D01*
X204779471Y-124379500D01*
X204933793Y-124341463D01*
X205074529Y-124267599D01*
X205193498Y-124162201D01*
X205283787Y-124031395D01*
X205340149Y-123882782D01*
X205359307Y-123725000D01*
X205340149Y-123567218D01*
X205283787Y-123418605D01*
X205193498Y-123287799D01*
X205074529Y-123182401D01*
X204933793Y-123108537D01*
X204779471Y-123070500D01*
X204620529Y-123070500D01*
X204466207Y-123108537D01*
X204466206Y-123108537D01*
X204466204Y-123108538D01*
X204325472Y-123182400D01*
X204206501Y-123287799D01*
X204116212Y-123418605D01*
X204059850Y-123567219D01*
X204040693Y-123724999D01*
X111525500Y-123724999D01*
X111525500Y-122650000D01*
X141490683Y-122650000D01*
X141509840Y-122807780D01*
X141566202Y-122956394D01*
X141599408Y-123004500D01*
X141656492Y-123087201D01*
X141775461Y-123192599D01*
X141916197Y-123266463D01*
X142070519Y-123304500D01*
X142070521Y-123304500D01*
X142229459Y-123304500D01*
X142229461Y-123304500D01*
X142383783Y-123266463D01*
X142524519Y-123192599D01*
X142643488Y-123087201D01*
X142733777Y-122956395D01*
X142790139Y-122807782D01*
X142809297Y-122650000D01*
X142790139Y-122492218D01*
X142736202Y-122350000D01*
X197440693Y-122350000D01*
X197459850Y-122507780D01*
X197516212Y-122656394D01*
X197516213Y-122656395D01*
X197606502Y-122787201D01*
X197725471Y-122892599D01*
X197866207Y-122966463D01*
X198020529Y-123004500D01*
X198020531Y-123004500D01*
X198179469Y-123004500D01*
X198179471Y-123004500D01*
X198333793Y-122966463D01*
X198474529Y-122892599D01*
X198593498Y-122787201D01*
X198683787Y-122656395D01*
X198740149Y-122507782D01*
X198759307Y-122350000D01*
X198750200Y-122275000D01*
X202615693Y-122275000D01*
X202634850Y-122432780D01*
X202691212Y-122581394D01*
X202738568Y-122650000D01*
X202781502Y-122712201D01*
X202900471Y-122817599D01*
X203041207Y-122891463D01*
X203195529Y-122929500D01*
X203195531Y-122929500D01*
X203354469Y-122929500D01*
X203354471Y-122929500D01*
X203508793Y-122891463D01*
X203649529Y-122817599D01*
X203768498Y-122712201D01*
X203858787Y-122581395D01*
X203915149Y-122432782D01*
X203934307Y-122275000D01*
X203915149Y-122117218D01*
X203858787Y-121968605D01*
X203768498Y-121837799D01*
X203649529Y-121732401D01*
X203508793Y-121658537D01*
X203354471Y-121620500D01*
X203195529Y-121620500D01*
X203041207Y-121658537D01*
X203041206Y-121658537D01*
X203041204Y-121658538D01*
X202900472Y-121732400D01*
X202781501Y-121837799D01*
X202691212Y-121968605D01*
X202634850Y-122117219D01*
X202615693Y-122275000D01*
X198750200Y-122275000D01*
X198740149Y-122192218D01*
X198683787Y-122043605D01*
X198593498Y-121912799D01*
X198474529Y-121807401D01*
X198333793Y-121733537D01*
X198179471Y-121695500D01*
X198020529Y-121695500D01*
X197866207Y-121733537D01*
X197866206Y-121733537D01*
X197866204Y-121733538D01*
X197725472Y-121807400D01*
X197606501Y-121912799D01*
X197516212Y-122043605D01*
X197459850Y-122192219D01*
X197440693Y-122350000D01*
X142736202Y-122350000D01*
X142733777Y-122343605D01*
X142643488Y-122212799D01*
X142524519Y-122107401D01*
X142383783Y-122033537D01*
X142229461Y-121995500D01*
X142070519Y-121995500D01*
X141916197Y-122033537D01*
X141916196Y-122033537D01*
X141916194Y-122033538D01*
X141775462Y-122107400D01*
X141656491Y-122212799D01*
X141566202Y-122343605D01*
X141509840Y-122492219D01*
X141490683Y-122650000D01*
X111525500Y-122650000D01*
X111525500Y-121750000D01*
X124090693Y-121750000D01*
X124109850Y-121907780D01*
X124166212Y-122056394D01*
X124166213Y-122056395D01*
X124256502Y-122187201D01*
X124375471Y-122292599D01*
X124516207Y-122366463D01*
X124670529Y-122404500D01*
X124670531Y-122404500D01*
X124829469Y-122404500D01*
X124829471Y-122404500D01*
X124983793Y-122366463D01*
X125124529Y-122292599D01*
X125243498Y-122187201D01*
X125333787Y-122056395D01*
X125390149Y-121907782D01*
X125409307Y-121750000D01*
X125390149Y-121592218D01*
X125333787Y-121443605D01*
X125243498Y-121312799D01*
X125124529Y-121207401D01*
X124983793Y-121133537D01*
X124829471Y-121095500D01*
X124670529Y-121095500D01*
X124516207Y-121133537D01*
X124516206Y-121133537D01*
X124516204Y-121133538D01*
X124375472Y-121207400D01*
X124256501Y-121312799D01*
X124166212Y-121443605D01*
X124109850Y-121592219D01*
X124090693Y-121750000D01*
X111525500Y-121750000D01*
X111525500Y-118398952D01*
X140839645Y-118398952D01*
X140858802Y-118556732D01*
X140915164Y-118705346D01*
X140966761Y-118780096D01*
X141005454Y-118836153D01*
X141124423Y-118941551D01*
X141265159Y-119015415D01*
X141419481Y-119053452D01*
X141419483Y-119053452D01*
X141578421Y-119053452D01*
X141578423Y-119053452D01*
X141732745Y-119015415D01*
X141873481Y-118941551D01*
X141992450Y-118836153D01*
X142082739Y-118705347D01*
X142139101Y-118556734D01*
X142158259Y-118398952D01*
X142139101Y-118241170D01*
X142082739Y-118092557D01*
X142029205Y-118015000D01*
X151825149Y-118015000D01*
X151844517Y-118236376D01*
X151902031Y-118451024D01*
X151995947Y-118652426D01*
X152040184Y-118715603D01*
X152040185Y-118715603D01*
X152655155Y-118100633D01*
X152656327Y-118116265D01*
X152705887Y-118242541D01*
X152790465Y-118348599D01*
X152902547Y-118425016D01*
X153014623Y-118459586D01*
X152399395Y-119074813D01*
X152399395Y-119074814D01*
X152462573Y-119119052D01*
X152663975Y-119212968D01*
X152878623Y-119270482D01*
X153100000Y-119289850D01*
X153321376Y-119270482D01*
X153536024Y-119212968D01*
X153737427Y-119119052D01*
X153800603Y-119074814D01*
X153800603Y-119074812D01*
X153183316Y-118457525D01*
X153234138Y-118449865D01*
X153356357Y-118391007D01*
X153455798Y-118298740D01*
X153523625Y-118181260D01*
X153542550Y-118098341D01*
X154159812Y-118715603D01*
X154159814Y-118715603D01*
X154204052Y-118652427D01*
X154297968Y-118451024D01*
X154355482Y-118236376D01*
X154371407Y-118054347D01*
X154386827Y-118014926D01*
X154607015Y-118014926D01*
X154620458Y-118040501D01*
X154622321Y-118052977D01*
X154638207Y-118214269D01*
X154696332Y-118405878D01*
X154696333Y-118405880D01*
X154790722Y-118582469D01*
X154824822Y-118624020D01*
X154917747Y-118737252D01*
X154969954Y-118780096D01*
X155072531Y-118864278D01*
X155249120Y-118958667D01*
X155344925Y-118987729D01*
X155440730Y-119016792D01*
X155640000Y-119036418D01*
X155839269Y-119016792D01*
X156030880Y-118958667D01*
X156207469Y-118864278D01*
X156362252Y-118737252D01*
X156489278Y-118582469D01*
X156583667Y-118405880D01*
X156641792Y-118214269D01*
X156661418Y-118015000D01*
X157158581Y-118015000D01*
X157178207Y-118214269D01*
X157236332Y-118405878D01*
X157236333Y-118405880D01*
X157330722Y-118582469D01*
X157364822Y-118624020D01*
X157457747Y-118737252D01*
X157509954Y-118780096D01*
X157612531Y-118864278D01*
X157789120Y-118958667D01*
X157884925Y-118987729D01*
X157980730Y-119016792D01*
X158179999Y-119036418D01*
X158179999Y-119036417D01*
X158180000Y-119036418D01*
X158379269Y-119016792D01*
X158570880Y-118958667D01*
X158747469Y-118864278D01*
X158902252Y-118737252D01*
X159029278Y-118582469D01*
X159123667Y-118405880D01*
X159181792Y-118214269D01*
X159201418Y-118015000D01*
X159201418Y-118014999D01*
X159698581Y-118014999D01*
X159718207Y-118214269D01*
X159776332Y-118405878D01*
X159776333Y-118405880D01*
X159870722Y-118582469D01*
X159904822Y-118624020D01*
X159997747Y-118737252D01*
X160049954Y-118780096D01*
X160152531Y-118864278D01*
X160329120Y-118958667D01*
X160424925Y-118987729D01*
X160520730Y-119016792D01*
X160720000Y-119036418D01*
X160919269Y-119016792D01*
X161110880Y-118958667D01*
X161287469Y-118864278D01*
X161442252Y-118737252D01*
X161569278Y-118582469D01*
X161663667Y-118405880D01*
X161721792Y-118214269D01*
X161741418Y-118015000D01*
X162238581Y-118015000D01*
X162258207Y-118214269D01*
X162316332Y-118405878D01*
X162316333Y-118405880D01*
X162410722Y-118582469D01*
X162444822Y-118624020D01*
X162537747Y-118737252D01*
X162589954Y-118780096D01*
X162692531Y-118864278D01*
X162869120Y-118958667D01*
X162964925Y-118987729D01*
X163060730Y-119016792D01*
X163260000Y-119036418D01*
X163459269Y-119016792D01*
X163650880Y-118958667D01*
X163827469Y-118864278D01*
X163982252Y-118737252D01*
X164109278Y-118582469D01*
X164203667Y-118405880D01*
X164261792Y-118214269D01*
X164281418Y-118015000D01*
X164281418Y-118014999D01*
X164778581Y-118014999D01*
X164798207Y-118214269D01*
X164856332Y-118405878D01*
X164856333Y-118405880D01*
X164950722Y-118582469D01*
X164984822Y-118624020D01*
X165077747Y-118737252D01*
X165129954Y-118780096D01*
X165232531Y-118864278D01*
X165409120Y-118958667D01*
X165504925Y-118987729D01*
X165600730Y-119016792D01*
X165799999Y-119036418D01*
X165799999Y-119036417D01*
X165800000Y-119036418D01*
X165999269Y-119016792D01*
X166190880Y-118958667D01*
X166367469Y-118864278D01*
X166522252Y-118737252D01*
X166649278Y-118582469D01*
X166743667Y-118405880D01*
X166801792Y-118214269D01*
X166821418Y-118015000D01*
X167318581Y-118015000D01*
X167338207Y-118214269D01*
X167396332Y-118405878D01*
X167396333Y-118405880D01*
X167490722Y-118582469D01*
X167524822Y-118624020D01*
X167617747Y-118737252D01*
X167669954Y-118780096D01*
X167772531Y-118864278D01*
X167949120Y-118958667D01*
X168044925Y-118987729D01*
X168140730Y-119016792D01*
X168340000Y-119036418D01*
X168539269Y-119016792D01*
X168730880Y-118958667D01*
X168907469Y-118864278D01*
X169062252Y-118737252D01*
X169189278Y-118582469D01*
X169283667Y-118405880D01*
X169341792Y-118214269D01*
X169361418Y-118015000D01*
X169361418Y-118014999D01*
X169858581Y-118014999D01*
X169878207Y-118214269D01*
X169936332Y-118405878D01*
X169936333Y-118405880D01*
X170030722Y-118582469D01*
X170064822Y-118624020D01*
X170157747Y-118737252D01*
X170209954Y-118780096D01*
X170312531Y-118864278D01*
X170489120Y-118958667D01*
X170584925Y-118987729D01*
X170680730Y-119016792D01*
X170880000Y-119036418D01*
X171079269Y-119016792D01*
X171270880Y-118958667D01*
X171447469Y-118864278D01*
X171602252Y-118737252D01*
X171729278Y-118582469D01*
X171823667Y-118405880D01*
X171881792Y-118214269D01*
X171901418Y-118015000D01*
X172398581Y-118015000D01*
X172418207Y-118214269D01*
X172476332Y-118405878D01*
X172476333Y-118405880D01*
X172570722Y-118582469D01*
X172604822Y-118624020D01*
X172697747Y-118737252D01*
X172749954Y-118780096D01*
X172852531Y-118864278D01*
X173029120Y-118958667D01*
X173124925Y-118987729D01*
X173220730Y-119016792D01*
X173419999Y-119036418D01*
X173419999Y-119036417D01*
X173420000Y-119036418D01*
X173619269Y-119016792D01*
X173810880Y-118958667D01*
X173987469Y-118864278D01*
X174142252Y-118737252D01*
X174269278Y-118582469D01*
X174363667Y-118405880D01*
X174421792Y-118214269D01*
X174441418Y-118015000D01*
X174938581Y-118015000D01*
X174958207Y-118214269D01*
X175016332Y-118405878D01*
X175016333Y-118405880D01*
X175110722Y-118582469D01*
X175144822Y-118624020D01*
X175237747Y-118737252D01*
X175289954Y-118780096D01*
X175392531Y-118864278D01*
X175569120Y-118958667D01*
X175664925Y-118987729D01*
X175760730Y-119016792D01*
X175960000Y-119036418D01*
X176159269Y-119016792D01*
X176350880Y-118958667D01*
X176527469Y-118864278D01*
X176682252Y-118737252D01*
X176809278Y-118582469D01*
X176903667Y-118405880D01*
X176961792Y-118214269D01*
X176981418Y-118015000D01*
X176981418Y-118014999D01*
X177478581Y-118014999D01*
X177498207Y-118214269D01*
X177556332Y-118405878D01*
X177556333Y-118405880D01*
X177650722Y-118582469D01*
X177684822Y-118624020D01*
X177777747Y-118737252D01*
X177829954Y-118780096D01*
X177932531Y-118864278D01*
X178109120Y-118958667D01*
X178204925Y-118987729D01*
X178300730Y-119016792D01*
X178500000Y-119036418D01*
X178699269Y-119016792D01*
X178890880Y-118958667D01*
X179067469Y-118864278D01*
X179222252Y-118737252D01*
X179349278Y-118582469D01*
X179443667Y-118405880D01*
X179501792Y-118214269D01*
X179521418Y-118015000D01*
X179521418Y-118014999D01*
X180018581Y-118014999D01*
X180038207Y-118214269D01*
X180096332Y-118405878D01*
X180096333Y-118405880D01*
X180190722Y-118582469D01*
X180224822Y-118624020D01*
X180317747Y-118737252D01*
X180369954Y-118780096D01*
X180472531Y-118864278D01*
X180649120Y-118958667D01*
X180744925Y-118987729D01*
X180840730Y-119016792D01*
X181039999Y-119036418D01*
X181039999Y-119036417D01*
X181040000Y-119036418D01*
X181239269Y-119016792D01*
X181430880Y-118958667D01*
X181607469Y-118864278D01*
X181762252Y-118737252D01*
X181889278Y-118582469D01*
X181983667Y-118405880D01*
X182041792Y-118214269D01*
X182061418Y-118015000D01*
X182558581Y-118015000D01*
X182578207Y-118214269D01*
X182636332Y-118405878D01*
X182636333Y-118405880D01*
X182730722Y-118582469D01*
X182764822Y-118624020D01*
X182857747Y-118737252D01*
X182909954Y-118780096D01*
X183012531Y-118864278D01*
X183189120Y-118958667D01*
X183284925Y-118987729D01*
X183380730Y-119016792D01*
X183580000Y-119036418D01*
X183779269Y-119016792D01*
X183970880Y-118958667D01*
X184147469Y-118864278D01*
X184302252Y-118737252D01*
X184429278Y-118582469D01*
X184523667Y-118405880D01*
X184581792Y-118214269D01*
X184601418Y-118015000D01*
X185098581Y-118015000D01*
X185118207Y-118214269D01*
X185176332Y-118405878D01*
X185176333Y-118405880D01*
X185270722Y-118582469D01*
X185304822Y-118624020D01*
X185397747Y-118737252D01*
X185449954Y-118780096D01*
X185552531Y-118864278D01*
X185729120Y-118958667D01*
X185824925Y-118987729D01*
X185920730Y-119016792D01*
X186120000Y-119036418D01*
X186319269Y-119016792D01*
X186510880Y-118958667D01*
X186687469Y-118864278D01*
X186842252Y-118737252D01*
X186969278Y-118582469D01*
X187063667Y-118405880D01*
X187121792Y-118214269D01*
X187141418Y-118015000D01*
X187141418Y-118014999D01*
X187638581Y-118014999D01*
X187658207Y-118214269D01*
X187716332Y-118405878D01*
X187716333Y-118405880D01*
X187810722Y-118582469D01*
X187844822Y-118624020D01*
X187937747Y-118737252D01*
X187989954Y-118780096D01*
X188092531Y-118864278D01*
X188269120Y-118958667D01*
X188364925Y-118987729D01*
X188460730Y-119016792D01*
X188659999Y-119036418D01*
X188659999Y-119036417D01*
X188660000Y-119036418D01*
X188859269Y-119016792D01*
X189050880Y-118958667D01*
X189227469Y-118864278D01*
X189382252Y-118737252D01*
X189509278Y-118582469D01*
X189603667Y-118405880D01*
X189661792Y-118214269D01*
X189681418Y-118015000D01*
X189681418Y-118014999D01*
X190178581Y-118014999D01*
X190198207Y-118214269D01*
X190256332Y-118405878D01*
X190256333Y-118405880D01*
X190350722Y-118582469D01*
X190384822Y-118624020D01*
X190477747Y-118737252D01*
X190529954Y-118780096D01*
X190632531Y-118864278D01*
X190809120Y-118958667D01*
X190904925Y-118987729D01*
X191000730Y-119016792D01*
X191199999Y-119036418D01*
X191199999Y-119036417D01*
X191200000Y-119036418D01*
X191399269Y-119016792D01*
X191590880Y-118958667D01*
X191767469Y-118864278D01*
X191922252Y-118737252D01*
X192049278Y-118582469D01*
X192143667Y-118405880D01*
X192201792Y-118214269D01*
X192221418Y-118015000D01*
X192718581Y-118015000D01*
X192738207Y-118214269D01*
X192796332Y-118405878D01*
X192796333Y-118405880D01*
X192890722Y-118582469D01*
X192924822Y-118624020D01*
X193017747Y-118737252D01*
X193069954Y-118780096D01*
X193172531Y-118864278D01*
X193349120Y-118958667D01*
X193444925Y-118987729D01*
X193540730Y-119016792D01*
X193740000Y-119036418D01*
X193939269Y-119016792D01*
X194130880Y-118958667D01*
X194307469Y-118864278D01*
X194462252Y-118737252D01*
X194589278Y-118582469D01*
X194683667Y-118405880D01*
X194741792Y-118214269D01*
X194761418Y-118015000D01*
X195258581Y-118015000D01*
X195278207Y-118214269D01*
X195336332Y-118405878D01*
X195336333Y-118405880D01*
X195430722Y-118582469D01*
X195464822Y-118624020D01*
X195557747Y-118737252D01*
X195609954Y-118780096D01*
X195712531Y-118864278D01*
X195889120Y-118958667D01*
X195984925Y-118987729D01*
X196080730Y-119016792D01*
X196280000Y-119036418D01*
X196479269Y-119016792D01*
X196670880Y-118958667D01*
X196847469Y-118864278D01*
X197002252Y-118737252D01*
X197129278Y-118582469D01*
X197223667Y-118405880D01*
X197281792Y-118214269D01*
X197301418Y-118015000D01*
X197295357Y-117953464D01*
X216866721Y-117953464D01*
X216876784Y-118139058D01*
X216926507Y-118318146D01*
X217013569Y-118482363D01*
X217133893Y-118624020D01*
X217171261Y-118652426D01*
X217281861Y-118736502D01*
X217450548Y-118814545D01*
X217563662Y-118839443D01*
X217632066Y-118854500D01*
X217632067Y-118854500D01*
X218317917Y-118854500D01*
X218321332Y-118854500D01*
X218459775Y-118839443D01*
X218549278Y-118809285D01*
X218635909Y-118780097D01*
X218635911Y-118780096D01*
X218795171Y-118684273D01*
X218930108Y-118556454D01*
X219034413Y-118402615D01*
X219103209Y-118229951D01*
X219133278Y-118046535D01*
X219123216Y-117860942D01*
X219073492Y-117681852D01*
X218986431Y-117517638D01*
X218986430Y-117517636D01*
X218866106Y-117375979D01*
X218718139Y-117263498D01*
X218718138Y-117263497D01*
X218549452Y-117185455D01*
X218549448Y-117185454D01*
X218367934Y-117145500D01*
X218367933Y-117145500D01*
X217678668Y-117145500D01*
X217675281Y-117145868D01*
X217675269Y-117145869D01*
X217540225Y-117160556D01*
X217364090Y-117219902D01*
X217204830Y-117315726D01*
X217069890Y-117443547D01*
X216965587Y-117597383D01*
X216896790Y-117770050D01*
X216866721Y-117953464D01*
X197295357Y-117953464D01*
X197281792Y-117815731D01*
X197271708Y-117782490D01*
X197233274Y-117655790D01*
X197223667Y-117624120D01*
X197129278Y-117447531D01*
X197065765Y-117370139D01*
X197002252Y-117292747D01*
X196907948Y-117215355D01*
X196847469Y-117165722D01*
X196670880Y-117071333D01*
X196670879Y-117071332D01*
X196670878Y-117071332D01*
X196479269Y-117013207D01*
X196280000Y-116993581D01*
X196080730Y-117013207D01*
X195889121Y-117071332D01*
X195712532Y-117165721D01*
X195557747Y-117292747D01*
X195430721Y-117447532D01*
X195336332Y-117624121D01*
X195278207Y-117815730D01*
X195258581Y-118015000D01*
X194761418Y-118015000D01*
X194761410Y-118014913D01*
X194741792Y-117815730D01*
X194693274Y-117655790D01*
X194683667Y-117624120D01*
X194589278Y-117447531D01*
X194525765Y-117370139D01*
X194462252Y-117292747D01*
X194367948Y-117215355D01*
X194307469Y-117165722D01*
X194130880Y-117071333D01*
X194130879Y-117071332D01*
X194130878Y-117071332D01*
X193939269Y-117013207D01*
X193740000Y-116993581D01*
X193540730Y-117013207D01*
X193349121Y-117071332D01*
X193172532Y-117165721D01*
X193017747Y-117292747D01*
X192890721Y-117447532D01*
X192796332Y-117624121D01*
X192738207Y-117815730D01*
X192718581Y-118015000D01*
X192221418Y-118015000D01*
X192221410Y-118014913D01*
X192201792Y-117815730D01*
X192153274Y-117655790D01*
X192143667Y-117624120D01*
X192049278Y-117447531D01*
X191985764Y-117370139D01*
X191922252Y-117292747D01*
X191827948Y-117215355D01*
X191767469Y-117165722D01*
X191590880Y-117071333D01*
X191590879Y-117071332D01*
X191590878Y-117071332D01*
X191399269Y-117013207D01*
X191199999Y-116993581D01*
X191000730Y-117013207D01*
X190809121Y-117071332D01*
X190632532Y-117165721D01*
X190477747Y-117292747D01*
X190350721Y-117447532D01*
X190256332Y-117624121D01*
X190198207Y-117815730D01*
X190178581Y-118014999D01*
X189681418Y-118014999D01*
X189661792Y-117815731D01*
X189651708Y-117782490D01*
X189613274Y-117655790D01*
X189603667Y-117624120D01*
X189509278Y-117447531D01*
X189445765Y-117370139D01*
X189382252Y-117292747D01*
X189287948Y-117215355D01*
X189227469Y-117165722D01*
X189050880Y-117071333D01*
X189050879Y-117071332D01*
X189050878Y-117071332D01*
X188859269Y-117013207D01*
X188659999Y-116993581D01*
X188460730Y-117013207D01*
X188269121Y-117071332D01*
X188092532Y-117165721D01*
X187937747Y-117292747D01*
X187810721Y-117447532D01*
X187716332Y-117624121D01*
X187658207Y-117815730D01*
X187638581Y-118014999D01*
X187141418Y-118014999D01*
X187121792Y-117815731D01*
X187111708Y-117782490D01*
X187073274Y-117655790D01*
X187063667Y-117624120D01*
X186969278Y-117447531D01*
X186905765Y-117370139D01*
X186842252Y-117292747D01*
X186747948Y-117215355D01*
X186687469Y-117165722D01*
X186510880Y-117071333D01*
X186510879Y-117071332D01*
X186510878Y-117071332D01*
X186319269Y-117013207D01*
X186120000Y-116993581D01*
X185920730Y-117013207D01*
X185729121Y-117071332D01*
X185552532Y-117165721D01*
X185397747Y-117292747D01*
X185270721Y-117447532D01*
X185176332Y-117624121D01*
X185118207Y-117815730D01*
X185098581Y-118015000D01*
X184601418Y-118015000D01*
X184601410Y-118014913D01*
X184581792Y-117815730D01*
X184533274Y-117655790D01*
X184523667Y-117624120D01*
X184429278Y-117447531D01*
X184365765Y-117370139D01*
X184302252Y-117292747D01*
X184207948Y-117215355D01*
X184147469Y-117165722D01*
X183970880Y-117071333D01*
X183970879Y-117071332D01*
X183970878Y-117071332D01*
X183779269Y-117013207D01*
X183580000Y-116993581D01*
X183380730Y-117013207D01*
X183189121Y-117071332D01*
X183012532Y-117165721D01*
X182857747Y-117292747D01*
X182730721Y-117447532D01*
X182636332Y-117624121D01*
X182578207Y-117815730D01*
X182558581Y-118015000D01*
X182061418Y-118015000D01*
X182061410Y-118014913D01*
X182041792Y-117815730D01*
X181993274Y-117655790D01*
X181983667Y-117624120D01*
X181889278Y-117447531D01*
X181825764Y-117370139D01*
X181762252Y-117292747D01*
X181667948Y-117215355D01*
X181607469Y-117165722D01*
X181430880Y-117071333D01*
X181430879Y-117071332D01*
X181430878Y-117071332D01*
X181239269Y-117013207D01*
X181039999Y-116993581D01*
X180840730Y-117013207D01*
X180649121Y-117071332D01*
X180472532Y-117165721D01*
X180317747Y-117292747D01*
X180190721Y-117447532D01*
X180096332Y-117624121D01*
X180038207Y-117815730D01*
X180018581Y-118014999D01*
X179521418Y-118014999D01*
X179501792Y-117815731D01*
X179491708Y-117782490D01*
X179453274Y-117655790D01*
X179443667Y-117624120D01*
X179349278Y-117447531D01*
X179285765Y-117370139D01*
X179222252Y-117292747D01*
X179127948Y-117215355D01*
X179067469Y-117165722D01*
X178890880Y-117071333D01*
X178890879Y-117071332D01*
X178890878Y-117071332D01*
X178699269Y-117013207D01*
X178500000Y-116993581D01*
X178300730Y-117013207D01*
X178109121Y-117071332D01*
X177932532Y-117165721D01*
X177777747Y-117292747D01*
X177650721Y-117447532D01*
X177556332Y-117624121D01*
X177498207Y-117815730D01*
X177478581Y-118014999D01*
X176981418Y-118014999D01*
X176961792Y-117815731D01*
X176951708Y-117782490D01*
X176913274Y-117655790D01*
X176903667Y-117624120D01*
X176809278Y-117447531D01*
X176745765Y-117370139D01*
X176682252Y-117292747D01*
X176587948Y-117215355D01*
X176527469Y-117165722D01*
X176350880Y-117071333D01*
X176350879Y-117071332D01*
X176350878Y-117071332D01*
X176159269Y-117013207D01*
X175959999Y-116993581D01*
X175760730Y-117013207D01*
X175569121Y-117071332D01*
X175392532Y-117165721D01*
X175237747Y-117292747D01*
X175110721Y-117447532D01*
X175016332Y-117624121D01*
X174958207Y-117815730D01*
X174938581Y-118015000D01*
X174441418Y-118015000D01*
X174441410Y-118014913D01*
X174421792Y-117815730D01*
X174373274Y-117655790D01*
X174363667Y-117624120D01*
X174269278Y-117447531D01*
X174205765Y-117370139D01*
X174142252Y-117292747D01*
X174047948Y-117215355D01*
X173987469Y-117165722D01*
X173810880Y-117071333D01*
X173810879Y-117071332D01*
X173810878Y-117071332D01*
X173619269Y-117013207D01*
X173419999Y-116993581D01*
X173220730Y-117013207D01*
X173029121Y-117071332D01*
X172852532Y-117165721D01*
X172697747Y-117292747D01*
X172570721Y-117447532D01*
X172476332Y-117624121D01*
X172418207Y-117815730D01*
X172398581Y-118015000D01*
X171901418Y-118015000D01*
X171901410Y-118014913D01*
X171881792Y-117815730D01*
X171833274Y-117655790D01*
X171823667Y-117624120D01*
X171729278Y-117447531D01*
X171665764Y-117370139D01*
X171602252Y-117292747D01*
X171507948Y-117215355D01*
X171447469Y-117165722D01*
X171270880Y-117071333D01*
X171270879Y-117071332D01*
X171270878Y-117071332D01*
X171079269Y-117013207D01*
X170880000Y-116993581D01*
X170680730Y-117013207D01*
X170489121Y-117071332D01*
X170312532Y-117165721D01*
X170157747Y-117292747D01*
X170030721Y-117447532D01*
X169936332Y-117624121D01*
X169878207Y-117815730D01*
X169858581Y-118014999D01*
X169361418Y-118014999D01*
X169341792Y-117815731D01*
X169331708Y-117782490D01*
X169293274Y-117655790D01*
X169283667Y-117624120D01*
X169189278Y-117447531D01*
X169125765Y-117370139D01*
X169062252Y-117292747D01*
X168967948Y-117215355D01*
X168907469Y-117165722D01*
X168730880Y-117071333D01*
X168730879Y-117071332D01*
X168730878Y-117071332D01*
X168539269Y-117013207D01*
X168340000Y-116993581D01*
X168140730Y-117013207D01*
X167949121Y-117071332D01*
X167772532Y-117165721D01*
X167617747Y-117292747D01*
X167490721Y-117447532D01*
X167396332Y-117624121D01*
X167338207Y-117815730D01*
X167318581Y-118015000D01*
X166821418Y-118015000D01*
X166801792Y-117815731D01*
X166791708Y-117782490D01*
X166753274Y-117655790D01*
X166743667Y-117624120D01*
X166649278Y-117447531D01*
X166585765Y-117370139D01*
X166522252Y-117292747D01*
X166427948Y-117215355D01*
X166367469Y-117165722D01*
X166190880Y-117071333D01*
X166190879Y-117071332D01*
X166190878Y-117071332D01*
X165999269Y-117013207D01*
X165800000Y-116993581D01*
X165600730Y-117013207D01*
X165409121Y-117071332D01*
X165232532Y-117165721D01*
X165077747Y-117292747D01*
X164950721Y-117447532D01*
X164856332Y-117624121D01*
X164798207Y-117815730D01*
X164778581Y-118014999D01*
X164281418Y-118014999D01*
X164281410Y-118014913D01*
X164261792Y-117815730D01*
X164213274Y-117655790D01*
X164203667Y-117624120D01*
X164109278Y-117447531D01*
X164045765Y-117370139D01*
X163982252Y-117292747D01*
X163887948Y-117215355D01*
X163827469Y-117165722D01*
X163650880Y-117071333D01*
X163650879Y-117071332D01*
X163650878Y-117071332D01*
X163459269Y-117013207D01*
X163260000Y-116993581D01*
X163060730Y-117013207D01*
X162869121Y-117071332D01*
X162692532Y-117165721D01*
X162537747Y-117292747D01*
X162410721Y-117447532D01*
X162316332Y-117624121D01*
X162258207Y-117815730D01*
X162238581Y-118015000D01*
X161741418Y-118015000D01*
X161721792Y-117815731D01*
X161711708Y-117782490D01*
X161673274Y-117655790D01*
X161663667Y-117624120D01*
X161569278Y-117447531D01*
X161505764Y-117370139D01*
X161442252Y-117292747D01*
X161347948Y-117215355D01*
X161287469Y-117165722D01*
X161110880Y-117071333D01*
X161110879Y-117071332D01*
X161110878Y-117071332D01*
X160919269Y-117013207D01*
X160720000Y-116993581D01*
X160520730Y-117013207D01*
X160329121Y-117071332D01*
X160152532Y-117165721D01*
X159997747Y-117292747D01*
X159870721Y-117447532D01*
X159776332Y-117624121D01*
X159718207Y-117815730D01*
X159698581Y-118014999D01*
X159201418Y-118014999D01*
X159201410Y-118014913D01*
X159181792Y-117815730D01*
X159133274Y-117655790D01*
X159123667Y-117624120D01*
X159029278Y-117447531D01*
X158965765Y-117370139D01*
X158902252Y-117292747D01*
X158807948Y-117215355D01*
X158747469Y-117165722D01*
X158570880Y-117071333D01*
X158570879Y-117071332D01*
X158570878Y-117071332D01*
X158379269Y-117013207D01*
X158179999Y-116993581D01*
X157980730Y-117013207D01*
X157789121Y-117071332D01*
X157612532Y-117165721D01*
X157457747Y-117292747D01*
X157330721Y-117447532D01*
X157236332Y-117624121D01*
X157178207Y-117815730D01*
X157158581Y-118015000D01*
X156661418Y-118015000D01*
X156641792Y-117815731D01*
X156631708Y-117782490D01*
X156593274Y-117655790D01*
X156583667Y-117624120D01*
X156489278Y-117447531D01*
X156425765Y-117370139D01*
X156362252Y-117292747D01*
X156267948Y-117215355D01*
X156207469Y-117165722D01*
X156030880Y-117071333D01*
X156030879Y-117071332D01*
X156030878Y-117071332D01*
X155839269Y-117013207D01*
X155640000Y-116993581D01*
X155440730Y-117013207D01*
X155249121Y-117071332D01*
X155072532Y-117165721D01*
X154917747Y-117292747D01*
X154790721Y-117447532D01*
X154696332Y-117624121D01*
X154638207Y-117815730D01*
X154622321Y-117977022D01*
X154607015Y-118014926D01*
X154386827Y-118014926D01*
X154386832Y-118014913D01*
X154373134Y-117988148D01*
X154371407Y-117975652D01*
X154355482Y-117793623D01*
X154297968Y-117578975D01*
X154204051Y-117377571D01*
X154159815Y-117314395D01*
X154159813Y-117314395D01*
X153544844Y-117929364D01*
X153543673Y-117913735D01*
X153494113Y-117787459D01*
X153409535Y-117681401D01*
X153297453Y-117604984D01*
X153185376Y-117570413D01*
X153800603Y-116955185D01*
X153800603Y-116955184D01*
X153737426Y-116910947D01*
X153536024Y-116817031D01*
X153321376Y-116759517D01*
X153099999Y-116740149D01*
X152878623Y-116759517D01*
X152663975Y-116817031D01*
X152462572Y-116910948D01*
X152399394Y-116955185D01*
X153016683Y-117572474D01*
X152965862Y-117580135D01*
X152843643Y-117638993D01*
X152744202Y-117731260D01*
X152676375Y-117848740D01*
X152657449Y-117931658D01*
X152040185Y-117314394D01*
X151995948Y-117377572D01*
X151902031Y-117578975D01*
X151844517Y-117793623D01*
X151825149Y-118015000D01*
X142029205Y-118015000D01*
X141992450Y-117961751D01*
X141873481Y-117856353D01*
X141732745Y-117782489D01*
X141578423Y-117744452D01*
X141419481Y-117744452D01*
X141265159Y-117782489D01*
X141265158Y-117782489D01*
X141265156Y-117782490D01*
X141124424Y-117856352D01*
X141005453Y-117961751D01*
X140915164Y-118092557D01*
X140858802Y-118241171D01*
X140839645Y-118398952D01*
X111525500Y-118398952D01*
X111525500Y-115953464D01*
X216866721Y-115953464D01*
X216876784Y-116139058D01*
X216926507Y-116318146D01*
X217013569Y-116482363D01*
X217133893Y-116624020D01*
X217213155Y-116684273D01*
X217281861Y-116736502D01*
X217450548Y-116814545D01*
X217563662Y-116839443D01*
X217632066Y-116854500D01*
X217632067Y-116854500D01*
X218317917Y-116854500D01*
X218321332Y-116854500D01*
X218459775Y-116839443D01*
X218549278Y-116809285D01*
X218635909Y-116780097D01*
X218635911Y-116780096D01*
X218795171Y-116684273D01*
X218930108Y-116556454D01*
X219034413Y-116402615D01*
X219103209Y-116229951D01*
X219133278Y-116046535D01*
X219123216Y-115860942D01*
X219073492Y-115681852D01*
X218986431Y-115517638D01*
X218986430Y-115517636D01*
X218866106Y-115375979D01*
X218718139Y-115263498D01*
X218718138Y-115263497D01*
X218549452Y-115185455D01*
X218549448Y-115185454D01*
X218367934Y-115145500D01*
X218367933Y-115145500D01*
X217678668Y-115145500D01*
X217675281Y-115145868D01*
X217675269Y-115145869D01*
X217540225Y-115160556D01*
X217364090Y-115219902D01*
X217204830Y-115315726D01*
X217069890Y-115443547D01*
X216965587Y-115597383D01*
X216896790Y-115770050D01*
X216866721Y-115953464D01*
X111525500Y-115953464D01*
X111525500Y-114320000D01*
X114385689Y-114320000D01*
X114404897Y-114539546D01*
X114461935Y-114752420D01*
X114555075Y-114952156D01*
X114681484Y-115132686D01*
X114837313Y-115288515D01*
X114837316Y-115288517D01*
X114837317Y-115288518D01*
X115017844Y-115414925D01*
X115079222Y-115443546D01*
X115217579Y-115508064D01*
X115253311Y-115517638D01*
X115430455Y-115565103D01*
X115650000Y-115584311D01*
X115869545Y-115565103D01*
X116082420Y-115508064D01*
X116282156Y-115414925D01*
X116462683Y-115288518D01*
X116618518Y-115132683D01*
X116744925Y-114952156D01*
X116838064Y-114752420D01*
X116895103Y-114539545D01*
X116914311Y-114320000D01*
X118185689Y-114320000D01*
X118204897Y-114539546D01*
X118261935Y-114752420D01*
X118355075Y-114952156D01*
X118481484Y-115132686D01*
X118637313Y-115288515D01*
X118637316Y-115288517D01*
X118637317Y-115288518D01*
X118817844Y-115414925D01*
X118879222Y-115443546D01*
X119017579Y-115508064D01*
X119053311Y-115517638D01*
X119230455Y-115565103D01*
X119450000Y-115584311D01*
X119669545Y-115565103D01*
X119882420Y-115508064D01*
X120082156Y-115414925D01*
X120262683Y-115288518D01*
X120418518Y-115132683D01*
X120544925Y-114952156D01*
X120638064Y-114752420D01*
X120695103Y-114539545D01*
X120714311Y-114320000D01*
X120695103Y-114100455D01*
X120638064Y-113887580D01*
X120544925Y-113687845D01*
X120418518Y-113507317D01*
X120418517Y-113507316D01*
X120418515Y-113507313D01*
X120262686Y-113351484D01*
X120082156Y-113225075D01*
X119882420Y-113131935D01*
X119669546Y-113074897D01*
X119559772Y-113065292D01*
X119450000Y-113055689D01*
X119449999Y-113055689D01*
X119230453Y-113074897D01*
X119017580Y-113131935D01*
X118817844Y-113225075D01*
X118637313Y-113351484D01*
X118481484Y-113507313D01*
X118355075Y-113687844D01*
X118261935Y-113887580D01*
X118204897Y-114100453D01*
X118185689Y-114320000D01*
X116914311Y-114320000D01*
X116895103Y-114100455D01*
X116838064Y-113887580D01*
X116744925Y-113687845D01*
X116618518Y-113507317D01*
X116618517Y-113507316D01*
X116618515Y-113507313D01*
X116462686Y-113351484D01*
X116282156Y-113225075D01*
X116082420Y-113131935D01*
X115869546Y-113074897D01*
X115759772Y-113065292D01*
X115650000Y-113055689D01*
X115649999Y-113055689D01*
X115430453Y-113074897D01*
X115217580Y-113131935D01*
X115017844Y-113225075D01*
X114837313Y-113351484D01*
X114681484Y-113507313D01*
X114555075Y-113687844D01*
X114461935Y-113887580D01*
X114404897Y-114100453D01*
X114385689Y-114320000D01*
X111525500Y-114320000D01*
X111525500Y-112500001D01*
X192590693Y-112500001D01*
X192609850Y-112657782D01*
X192666212Y-112806396D01*
X192666213Y-112806397D01*
X192756502Y-112937203D01*
X192875471Y-113042601D01*
X193016207Y-113116465D01*
X193170529Y-113154502D01*
X193170531Y-113154502D01*
X193329469Y-113154502D01*
X193329471Y-113154502D01*
X193483793Y-113116465D01*
X193624529Y-113042601D01*
X193743498Y-112937203D01*
X193833787Y-112806397D01*
X193890149Y-112657784D01*
X193909307Y-112500002D01*
X193896837Y-112397302D01*
X216617000Y-112397302D01*
X216617325Y-112403692D01*
X216627606Y-112504327D01*
X216683340Y-112672522D01*
X216776367Y-112823342D01*
X216901657Y-112948632D01*
X217052474Y-113041656D01*
X217184227Y-113085315D01*
X217242598Y-113125729D01*
X217269854Y-113191286D01*
X217257341Y-113261171D01*
X217209557Y-113312882D01*
X217204832Y-113315724D01*
X217069890Y-113443547D01*
X216965587Y-113597383D01*
X216896790Y-113770050D01*
X216866721Y-113953464D01*
X216876784Y-114139058D01*
X216926507Y-114318146D01*
X217013569Y-114482363D01*
X217133893Y-114624020D01*
X217213155Y-114684273D01*
X217281861Y-114736502D01*
X217450548Y-114814545D01*
X217563662Y-114839443D01*
X217632066Y-114854500D01*
X217632067Y-114854500D01*
X218317917Y-114854500D01*
X218321332Y-114854500D01*
X218459775Y-114839443D01*
X218549278Y-114809285D01*
X218635909Y-114780097D01*
X218635911Y-114780096D01*
X218795171Y-114684273D01*
X218930108Y-114556454D01*
X219034413Y-114402615D01*
X219103209Y-114229951D01*
X219133278Y-114046535D01*
X219123216Y-113860942D01*
X219073492Y-113681852D01*
X218986431Y-113517638D01*
X218986430Y-113517636D01*
X218866103Y-113375976D01*
X218774892Y-113306639D01*
X218732766Y-113249491D01*
X218728225Y-113178639D01*
X218762710Y-113116580D01*
X218811512Y-113086727D01*
X218947524Y-113041657D01*
X219098342Y-112948632D01*
X219223632Y-112823342D01*
X219316659Y-112672522D01*
X219372393Y-112504327D01*
X219382674Y-112403692D01*
X219383000Y-112397302D01*
X219383000Y-112254000D01*
X218275878Y-112254000D01*
X218318278Y-112207941D01*
X218368551Y-112093330D01*
X218378886Y-111968605D01*
X218348163Y-111847281D01*
X218281992Y-111746000D01*
X219383000Y-111746000D01*
X219383000Y-111602697D01*
X219382674Y-111596307D01*
X219372393Y-111495672D01*
X219316659Y-111327477D01*
X219223632Y-111176657D01*
X219098342Y-111051367D01*
X218947522Y-110958340D01*
X218779327Y-110902606D01*
X218678692Y-110892325D01*
X218672303Y-110892000D01*
X218254000Y-110892000D01*
X218254000Y-111722496D01*
X218180948Y-111665637D01*
X218062576Y-111625000D01*
X217968927Y-111625000D01*
X217876554Y-111640414D01*
X217766486Y-111699981D01*
X217746000Y-111722234D01*
X217746000Y-110892000D01*
X217327697Y-110892000D01*
X217321307Y-110892325D01*
X217220672Y-110902606D01*
X217052477Y-110958340D01*
X216901657Y-111051367D01*
X216776367Y-111176657D01*
X216683340Y-111327477D01*
X216627606Y-111495672D01*
X216617325Y-111596307D01*
X216617000Y-111602697D01*
X216617000Y-111746000D01*
X217724122Y-111746000D01*
X217681722Y-111792059D01*
X217631449Y-111906670D01*
X217621114Y-112031395D01*
X217651837Y-112152719D01*
X217718008Y-112254000D01*
X216617000Y-112254000D01*
X216617000Y-112397302D01*
X193896837Y-112397302D01*
X193890149Y-112342220D01*
X193833787Y-112193607D01*
X193743498Y-112062801D01*
X193624529Y-111957403D01*
X193483793Y-111883539D01*
X193329471Y-111845502D01*
X193170529Y-111845502D01*
X193016207Y-111883539D01*
X193016206Y-111883539D01*
X193016204Y-111883540D01*
X192875472Y-111957402D01*
X192756501Y-112062801D01*
X192666212Y-112193607D01*
X192609850Y-112342221D01*
X192590693Y-112500001D01*
X111525500Y-112500001D01*
X111525500Y-111250000D01*
X195340693Y-111250000D01*
X195359850Y-111407780D01*
X195416212Y-111556394D01*
X195463568Y-111625000D01*
X195506502Y-111687201D01*
X195625471Y-111792599D01*
X195766207Y-111866463D01*
X195920529Y-111904500D01*
X195920531Y-111904500D01*
X196079469Y-111904500D01*
X196079471Y-111904500D01*
X196233793Y-111866463D01*
X196374529Y-111792599D01*
X196493498Y-111687201D01*
X196583787Y-111556395D01*
X196640149Y-111407782D01*
X196659307Y-111250000D01*
X196640149Y-111092218D01*
X196583787Y-110943605D01*
X196493498Y-110812799D01*
X196374529Y-110707401D01*
X196233793Y-110633537D01*
X196079471Y-110595500D01*
X195920529Y-110595500D01*
X195766207Y-110633537D01*
X195766206Y-110633537D01*
X195766204Y-110633538D01*
X195625472Y-110707400D01*
X195506501Y-110812799D01*
X195416212Y-110943605D01*
X195359850Y-111092219D01*
X195340693Y-111250000D01*
X111525500Y-111250000D01*
X111525500Y-109799978D01*
X137140693Y-109799978D01*
X137159850Y-109957758D01*
X137216212Y-110106372D01*
X137249433Y-110154500D01*
X137306502Y-110237179D01*
X137425471Y-110342577D01*
X137566207Y-110416441D01*
X137720529Y-110454478D01*
X137720531Y-110454478D01*
X137879469Y-110454478D01*
X137879471Y-110454478D01*
X138033793Y-110416441D01*
X138174529Y-110342577D01*
X138293498Y-110237179D01*
X138383787Y-110106373D01*
X138440149Y-109957760D01*
X138459307Y-109799978D01*
X138440149Y-109642196D01*
X138383787Y-109493583D01*
X138293498Y-109362777D01*
X138174529Y-109257379D01*
X138033793Y-109183515D01*
X137879471Y-109145478D01*
X137720529Y-109145478D01*
X137566207Y-109183515D01*
X137566206Y-109183515D01*
X137566204Y-109183516D01*
X137425472Y-109257378D01*
X137306501Y-109362777D01*
X137216212Y-109493583D01*
X137159850Y-109642197D01*
X137140693Y-109799978D01*
X111525500Y-109799978D01*
X111525500Y-109000000D01*
X177590693Y-109000000D01*
X177609850Y-109157780D01*
X177666212Y-109306394D01*
X177707674Y-109366461D01*
X177756502Y-109437201D01*
X177875471Y-109542599D01*
X178016207Y-109616463D01*
X178170529Y-109654500D01*
X178170531Y-109654500D01*
X178329469Y-109654500D01*
X178329471Y-109654500D01*
X178483793Y-109616463D01*
X178624529Y-109542599D01*
X178672614Y-109499999D01*
X181340693Y-109499999D01*
X181359850Y-109657780D01*
X181416212Y-109806394D01*
X181416213Y-109806395D01*
X181506502Y-109937201D01*
X181625471Y-110042599D01*
X181766207Y-110116463D01*
X181920529Y-110154500D01*
X181920531Y-110154500D01*
X182079469Y-110154500D01*
X182079471Y-110154500D01*
X182233793Y-110116463D01*
X182374529Y-110042599D01*
X182493498Y-109937201D01*
X182583787Y-109806395D01*
X182640149Y-109657782D01*
X182659307Y-109500000D01*
X182640149Y-109342218D01*
X182583787Y-109193605D01*
X182493498Y-109062799D01*
X182374529Y-108957401D01*
X182233793Y-108883537D01*
X182079471Y-108845500D01*
X181920529Y-108845500D01*
X181766207Y-108883537D01*
X181766206Y-108883537D01*
X181766204Y-108883538D01*
X181625472Y-108957400D01*
X181506501Y-109062799D01*
X181416212Y-109193605D01*
X181359850Y-109342219D01*
X181340693Y-109499999D01*
X178672614Y-109499999D01*
X178743498Y-109437201D01*
X178833787Y-109306395D01*
X178890149Y-109157782D01*
X178909307Y-109000000D01*
X178890149Y-108842218D01*
X178855175Y-108750000D01*
X185340693Y-108750000D01*
X185359850Y-108907780D01*
X185416212Y-109056394D01*
X185503958Y-109183515D01*
X185506502Y-109187201D01*
X185625471Y-109292599D01*
X185766207Y-109366463D01*
X185920529Y-109404500D01*
X185920531Y-109404500D01*
X186079469Y-109404500D01*
X186079471Y-109404500D01*
X186233793Y-109366463D01*
X186374529Y-109292599D01*
X186493498Y-109187201D01*
X186583787Y-109056395D01*
X186640149Y-108907782D01*
X186659307Y-108750000D01*
X186640149Y-108592218D01*
X186583787Y-108443605D01*
X186493498Y-108312799D01*
X186422612Y-108249999D01*
X189340693Y-108249999D01*
X189359850Y-108407780D01*
X189416212Y-108556394D01*
X189440941Y-108592219D01*
X189506502Y-108687201D01*
X189625471Y-108792599D01*
X189766207Y-108866463D01*
X189920529Y-108904500D01*
X189920531Y-108904500D01*
X190079469Y-108904500D01*
X190079471Y-108904500D01*
X190233793Y-108866463D01*
X190374529Y-108792599D01*
X190493498Y-108687201D01*
X190583787Y-108556395D01*
X190640149Y-108407782D01*
X190659307Y-108250000D01*
X190640149Y-108092218D01*
X190583787Y-107943605D01*
X190493498Y-107812799D01*
X190374529Y-107707401D01*
X190233793Y-107633537D01*
X190079471Y-107595500D01*
X189920529Y-107595500D01*
X189766207Y-107633537D01*
X189766206Y-107633537D01*
X189766204Y-107633538D01*
X189625472Y-107707400D01*
X189506501Y-107812799D01*
X189416212Y-107943605D01*
X189359850Y-108092219D01*
X189340693Y-108249999D01*
X186422612Y-108249999D01*
X186374529Y-108207401D01*
X186233793Y-108133537D01*
X186079471Y-108095500D01*
X185920529Y-108095500D01*
X185766207Y-108133537D01*
X185766206Y-108133537D01*
X185766204Y-108133538D01*
X185625472Y-108207400D01*
X185506501Y-108312799D01*
X185416212Y-108443605D01*
X185359850Y-108592219D01*
X185340693Y-108750000D01*
X178855175Y-108750000D01*
X178833787Y-108693605D01*
X178743498Y-108562799D01*
X178624529Y-108457401D01*
X178483793Y-108383537D01*
X178329471Y-108345500D01*
X178170529Y-108345500D01*
X178016207Y-108383537D01*
X178016206Y-108383537D01*
X178016204Y-108383538D01*
X177875472Y-108457400D01*
X177756501Y-108562799D01*
X177666212Y-108693605D01*
X177609850Y-108842219D01*
X177590693Y-109000000D01*
X111525500Y-109000000D01*
X111525500Y-105680000D01*
X114385689Y-105680000D01*
X114404897Y-105899546D01*
X114461935Y-106112420D01*
X114555075Y-106312156D01*
X114681484Y-106492686D01*
X114837313Y-106648515D01*
X114837316Y-106648517D01*
X114837317Y-106648518D01*
X115017844Y-106774925D01*
X115124439Y-106824631D01*
X115217579Y-106868064D01*
X115295495Y-106888941D01*
X115430455Y-106925103D01*
X115650000Y-106944311D01*
X115869545Y-106925103D01*
X116082420Y-106868064D01*
X116282156Y-106774925D01*
X116462683Y-106648518D01*
X116618518Y-106492683D01*
X116744925Y-106312156D01*
X116838064Y-106112420D01*
X116895103Y-105899545D01*
X116914311Y-105680000D01*
X118185689Y-105680000D01*
X118204897Y-105899546D01*
X118261935Y-106112420D01*
X118355075Y-106312156D01*
X118481484Y-106492686D01*
X118637313Y-106648515D01*
X118637316Y-106648517D01*
X118637317Y-106648518D01*
X118817844Y-106774925D01*
X118924439Y-106824631D01*
X119017579Y-106868064D01*
X119095495Y-106888941D01*
X119230455Y-106925103D01*
X119450000Y-106944311D01*
X119669545Y-106925103D01*
X119882420Y-106868064D01*
X120082156Y-106774925D01*
X120262683Y-106648518D01*
X120418518Y-106492683D01*
X120544925Y-106312156D01*
X120638064Y-106112420D01*
X120695103Y-105899545D01*
X120714311Y-105680000D01*
X120698563Y-105499999D01*
X218340693Y-105499999D01*
X218359850Y-105657780D01*
X218416212Y-105806394D01*
X218480511Y-105899546D01*
X218506502Y-105937201D01*
X218625471Y-106042599D01*
X218766207Y-106116463D01*
X218920529Y-106154500D01*
X218920531Y-106154500D01*
X219079469Y-106154500D01*
X219079471Y-106154500D01*
X219233793Y-106116463D01*
X219374529Y-106042599D01*
X219493498Y-105937201D01*
X219583787Y-105806395D01*
X219640149Y-105657782D01*
X219659307Y-105500000D01*
X219640149Y-105342218D01*
X219583787Y-105193605D01*
X219493498Y-105062799D01*
X219374529Y-104957401D01*
X219233793Y-104883537D01*
X219079471Y-104845500D01*
X218920529Y-104845500D01*
X218766207Y-104883537D01*
X218766206Y-104883537D01*
X218766204Y-104883538D01*
X218625472Y-104957400D01*
X218506501Y-105062799D01*
X218416212Y-105193605D01*
X218359850Y-105342219D01*
X218340693Y-105499999D01*
X120698563Y-105499999D01*
X120695103Y-105460455D01*
X120638064Y-105247580D01*
X120544925Y-105047845D01*
X120418518Y-104867317D01*
X120418517Y-104867316D01*
X120418515Y-104867313D01*
X120262686Y-104711484D01*
X120082156Y-104585075D01*
X119882420Y-104491935D01*
X119669546Y-104434897D01*
X119559772Y-104425292D01*
X119450000Y-104415689D01*
X119449999Y-104415689D01*
X119230453Y-104434897D01*
X119017580Y-104491935D01*
X118817844Y-104585075D01*
X118637313Y-104711484D01*
X118481484Y-104867313D01*
X118355075Y-105047844D01*
X118261935Y-105247580D01*
X118204897Y-105460453D01*
X118185689Y-105680000D01*
X116914311Y-105680000D01*
X116895103Y-105460455D01*
X116838064Y-105247580D01*
X116744925Y-105047845D01*
X116618518Y-104867317D01*
X116618517Y-104867316D01*
X116618515Y-104867313D01*
X116462686Y-104711484D01*
X116282156Y-104585075D01*
X116082420Y-104491935D01*
X115869546Y-104434897D01*
X115759772Y-104425292D01*
X115650000Y-104415689D01*
X115649999Y-104415689D01*
X115430453Y-104434897D01*
X115217580Y-104491935D01*
X115017844Y-104585075D01*
X114837313Y-104711484D01*
X114681484Y-104867313D01*
X114555075Y-105047844D01*
X114461935Y-105247580D01*
X114404897Y-105460453D01*
X114385689Y-105680000D01*
X111525500Y-105680000D01*
X111525500Y-100750000D01*
X141890693Y-100750000D01*
X141909850Y-100907780D01*
X141966212Y-101056394D01*
X141966213Y-101056395D01*
X142056502Y-101187201D01*
X142175471Y-101292599D01*
X142316207Y-101366463D01*
X142470529Y-101404500D01*
X142470531Y-101404500D01*
X142629469Y-101404500D01*
X142629471Y-101404500D01*
X142783793Y-101366463D01*
X142924529Y-101292599D01*
X143043498Y-101187201D01*
X143133787Y-101056395D01*
X143190149Y-100907782D01*
X143209307Y-100750000D01*
X143190149Y-100592218D01*
X143133787Y-100443605D01*
X143043498Y-100312799D01*
X142924529Y-100207401D01*
X142783793Y-100133537D01*
X142629471Y-100095500D01*
X142470529Y-100095500D01*
X142316207Y-100133537D01*
X142316206Y-100133537D01*
X142316204Y-100133538D01*
X142175472Y-100207400D01*
X142056501Y-100312799D01*
X141966212Y-100443605D01*
X141909850Y-100592219D01*
X141890693Y-100750000D01*
X111525500Y-100750000D01*
X111525500Y-100000000D01*
X165090693Y-100000000D01*
X165109850Y-100157780D01*
X165166212Y-100306394D01*
X165166213Y-100306395D01*
X165256502Y-100437201D01*
X165375471Y-100542599D01*
X165516207Y-100616463D01*
X165670529Y-100654500D01*
X165670531Y-100654500D01*
X165829469Y-100654500D01*
X165829471Y-100654500D01*
X165983793Y-100616463D01*
X166124529Y-100542599D01*
X166243498Y-100437201D01*
X166333787Y-100306395D01*
X166390149Y-100157782D01*
X166409307Y-100000000D01*
X166390149Y-99842218D01*
X166333787Y-99693605D01*
X166243498Y-99562799D01*
X166124529Y-99457401D01*
X165983793Y-99383537D01*
X165829471Y-99345500D01*
X165670529Y-99345500D01*
X165516207Y-99383537D01*
X165516206Y-99383537D01*
X165516204Y-99383538D01*
X165375472Y-99457400D01*
X165256501Y-99562799D01*
X165166212Y-99693605D01*
X165109850Y-99842219D01*
X165090693Y-100000000D01*
X111525500Y-100000000D01*
X111525500Y-98899999D01*
X129290693Y-98899999D01*
X129309850Y-99057780D01*
X129366212Y-99206394D01*
X129421989Y-99287200D01*
X129456502Y-99337201D01*
X129575471Y-99442599D01*
X129716207Y-99516463D01*
X129870529Y-99554500D01*
X129870531Y-99554500D01*
X130029469Y-99554500D01*
X130029471Y-99554500D01*
X130183793Y-99516463D01*
X130324529Y-99442599D01*
X130443498Y-99337201D01*
X130533787Y-99206395D01*
X130590149Y-99057782D01*
X130609307Y-98900000D01*
X130603236Y-98850000D01*
X139540693Y-98850000D01*
X139559850Y-99007780D01*
X139616212Y-99156394D01*
X139650726Y-99206395D01*
X139706502Y-99287201D01*
X139825471Y-99392599D01*
X139966207Y-99466463D01*
X140120529Y-99504500D01*
X140120531Y-99504500D01*
X140279469Y-99504500D01*
X140279471Y-99504500D01*
X140433793Y-99466463D01*
X140574529Y-99392599D01*
X140693498Y-99287201D01*
X140783787Y-99156395D01*
X140840149Y-99007782D01*
X140859307Y-98850000D01*
X140840149Y-98692218D01*
X140783787Y-98543605D01*
X140693498Y-98412799D01*
X140574529Y-98307401D01*
X140433793Y-98233537D01*
X140279471Y-98195500D01*
X140120529Y-98195500D01*
X139966207Y-98233537D01*
X139966206Y-98233537D01*
X139966204Y-98233538D01*
X139825472Y-98307400D01*
X139706501Y-98412799D01*
X139616212Y-98543605D01*
X139559850Y-98692219D01*
X139540693Y-98850000D01*
X130603236Y-98850000D01*
X130590149Y-98742218D01*
X130533787Y-98593605D01*
X130443498Y-98462799D01*
X130324529Y-98357401D01*
X130183793Y-98283537D01*
X130029471Y-98245500D01*
X129870529Y-98245500D01*
X129716207Y-98283537D01*
X129716206Y-98283537D01*
X129716204Y-98283538D01*
X129575472Y-98357400D01*
X129456501Y-98462799D01*
X129366212Y-98593605D01*
X129309850Y-98742219D01*
X129290693Y-98899999D01*
X111525500Y-98899999D01*
X111525500Y-97750000D01*
X199340693Y-97750000D01*
X199359850Y-97907780D01*
X199416212Y-98056394D01*
X199416213Y-98056395D01*
X199506502Y-98187201D01*
X199625471Y-98292599D01*
X199766207Y-98366463D01*
X199920529Y-98404500D01*
X199920531Y-98404500D01*
X200079469Y-98404500D01*
X200079471Y-98404500D01*
X200233793Y-98366463D01*
X200374529Y-98292599D01*
X200493498Y-98187201D01*
X200583787Y-98056395D01*
X200640149Y-97907782D01*
X200659307Y-97750000D01*
X200640149Y-97592218D01*
X200583787Y-97443605D01*
X200493498Y-97312799D01*
X200374529Y-97207401D01*
X200233793Y-97133537D01*
X200079471Y-97095500D01*
X199920529Y-97095500D01*
X199766207Y-97133537D01*
X199766206Y-97133537D01*
X199766204Y-97133538D01*
X199625472Y-97207400D01*
X199506501Y-97312799D01*
X199416212Y-97443605D01*
X199359850Y-97592219D01*
X199340693Y-97750000D01*
X111525500Y-97750000D01*
X111525500Y-96859999D01*
X139030693Y-96859999D01*
X139049850Y-97017780D01*
X139106212Y-97166394D01*
X139134517Y-97207400D01*
X139196502Y-97297201D01*
X139315471Y-97402599D01*
X139456207Y-97476463D01*
X139610529Y-97514500D01*
X139610531Y-97514500D01*
X139769469Y-97514500D01*
X139769471Y-97514500D01*
X139923793Y-97476463D01*
X140064529Y-97402599D01*
X140183498Y-97297201D01*
X140273787Y-97166395D01*
X140330149Y-97017782D01*
X140349307Y-96860000D01*
X140330149Y-96702218D01*
X140273787Y-96553605D01*
X140183498Y-96422799D01*
X140064529Y-96317401D01*
X139923793Y-96243537D01*
X139769471Y-96205500D01*
X139610529Y-96205500D01*
X139456207Y-96243537D01*
X139456206Y-96243537D01*
X139456204Y-96243538D01*
X139315472Y-96317400D01*
X139196501Y-96422799D01*
X139106212Y-96553605D01*
X139049850Y-96702219D01*
X139030693Y-96859999D01*
X111525500Y-96859999D01*
X111525500Y-94985000D01*
X151825149Y-94985000D01*
X151844517Y-95206376D01*
X151902031Y-95421024D01*
X151995947Y-95622426D01*
X152040184Y-95685603D01*
X152040186Y-95685603D01*
X152655155Y-95070633D01*
X152656327Y-95086265D01*
X152705887Y-95212541D01*
X152790465Y-95318599D01*
X152902547Y-95395016D01*
X153014623Y-95429586D01*
X152399395Y-96044813D01*
X152399395Y-96044814D01*
X152462573Y-96089052D01*
X152663975Y-96182968D01*
X152878623Y-96240482D01*
X153099999Y-96259850D01*
X153321376Y-96240482D01*
X153536024Y-96182968D01*
X153737427Y-96089052D01*
X153800603Y-96044814D01*
X153800603Y-96044812D01*
X153183316Y-95427525D01*
X153234138Y-95419865D01*
X153356357Y-95361007D01*
X153455798Y-95268740D01*
X153523625Y-95151260D01*
X153542550Y-95068339D01*
X154159813Y-95685603D01*
X154159814Y-95685603D01*
X154204052Y-95622427D01*
X154297968Y-95421024D01*
X154355482Y-95206376D01*
X154371407Y-95024347D01*
X154386827Y-94984926D01*
X154607015Y-94984926D01*
X154620458Y-95010501D01*
X154622321Y-95022977D01*
X154638207Y-95184269D01*
X154691821Y-95361007D01*
X154696333Y-95375880D01*
X154790722Y-95552469D01*
X154840355Y-95612948D01*
X154917747Y-95707252D01*
X154995139Y-95770764D01*
X155072531Y-95834278D01*
X155249120Y-95928667D01*
X155344925Y-95957729D01*
X155440730Y-95986792D01*
X155640000Y-96006418D01*
X155839269Y-95986792D01*
X156030880Y-95928667D01*
X156207469Y-95834278D01*
X156362252Y-95707252D01*
X156489278Y-95552469D01*
X156583667Y-95375880D01*
X156641792Y-95184269D01*
X156661418Y-94985000D01*
X156661418Y-94984999D01*
X157158581Y-94984999D01*
X157178207Y-95184269D01*
X157231821Y-95361007D01*
X157236333Y-95375880D01*
X157330722Y-95552469D01*
X157380355Y-95612948D01*
X157457747Y-95707252D01*
X157535139Y-95770764D01*
X157612531Y-95834278D01*
X157789120Y-95928667D01*
X157884925Y-95957729D01*
X157980730Y-95986792D01*
X158179999Y-96006418D01*
X158179999Y-96006417D01*
X158180000Y-96006418D01*
X158379269Y-95986792D01*
X158570880Y-95928667D01*
X158747469Y-95834278D01*
X158902252Y-95707252D01*
X159029278Y-95552469D01*
X159123667Y-95375880D01*
X159181792Y-95184269D01*
X159201418Y-94985000D01*
X159698581Y-94985000D01*
X159718207Y-95184269D01*
X159771821Y-95361007D01*
X159776333Y-95375880D01*
X159870722Y-95552469D01*
X159920355Y-95612948D01*
X159997747Y-95707252D01*
X160075139Y-95770764D01*
X160152531Y-95834278D01*
X160329120Y-95928667D01*
X160424925Y-95957729D01*
X160520730Y-95986792D01*
X160719999Y-96006418D01*
X160719999Y-96006417D01*
X160720000Y-96006418D01*
X160919269Y-95986792D01*
X161110880Y-95928667D01*
X161287469Y-95834278D01*
X161442252Y-95707252D01*
X161569278Y-95552469D01*
X161663667Y-95375880D01*
X161721792Y-95184269D01*
X161741418Y-94985000D01*
X161741418Y-94984999D01*
X162238581Y-94984999D01*
X162258207Y-95184269D01*
X162311821Y-95361007D01*
X162316333Y-95375880D01*
X162410722Y-95552469D01*
X162460355Y-95612948D01*
X162537747Y-95707252D01*
X162615139Y-95770764D01*
X162692531Y-95834278D01*
X162869120Y-95928667D01*
X162964925Y-95957729D01*
X163060730Y-95986792D01*
X163260000Y-96006418D01*
X163459269Y-95986792D01*
X163650880Y-95928667D01*
X163827469Y-95834278D01*
X163982252Y-95707252D01*
X164109278Y-95552469D01*
X164203667Y-95375880D01*
X164261792Y-95184269D01*
X164281418Y-94985000D01*
X164778581Y-94985000D01*
X164798207Y-95184269D01*
X164851821Y-95361007D01*
X164856333Y-95375880D01*
X164950722Y-95552469D01*
X165000355Y-95612948D01*
X165077747Y-95707252D01*
X165155139Y-95770764D01*
X165232531Y-95834278D01*
X165409120Y-95928667D01*
X165504925Y-95957729D01*
X165600730Y-95986792D01*
X165800000Y-96006418D01*
X165999269Y-95986792D01*
X166190880Y-95928667D01*
X166367469Y-95834278D01*
X166522252Y-95707252D01*
X166649278Y-95552469D01*
X166743667Y-95375880D01*
X166801792Y-95184269D01*
X166821418Y-94985000D01*
X166821418Y-94984999D01*
X167318581Y-94984999D01*
X167338207Y-95184269D01*
X167391821Y-95361007D01*
X167396333Y-95375880D01*
X167490722Y-95552469D01*
X167540355Y-95612948D01*
X167617747Y-95707252D01*
X167695139Y-95770764D01*
X167772531Y-95834278D01*
X167949120Y-95928667D01*
X168044925Y-95957729D01*
X168140730Y-95986792D01*
X168340000Y-96006418D01*
X168539269Y-95986792D01*
X168730880Y-95928667D01*
X168907469Y-95834278D01*
X169062252Y-95707252D01*
X169189278Y-95552469D01*
X169283667Y-95375880D01*
X169341792Y-95184269D01*
X169361418Y-94985000D01*
X169361418Y-94984999D01*
X169858581Y-94984999D01*
X169878207Y-95184269D01*
X169931821Y-95361007D01*
X169936333Y-95375880D01*
X170030722Y-95552469D01*
X170080355Y-95612948D01*
X170157747Y-95707252D01*
X170235139Y-95770764D01*
X170312531Y-95834278D01*
X170489120Y-95928667D01*
X170584925Y-95957729D01*
X170680730Y-95986792D01*
X170880000Y-96006418D01*
X171079269Y-95986792D01*
X171270880Y-95928667D01*
X171447469Y-95834278D01*
X171602252Y-95707252D01*
X171729278Y-95552469D01*
X171823667Y-95375880D01*
X171881792Y-95184269D01*
X171901418Y-94985000D01*
X171901418Y-94984999D01*
X172398581Y-94984999D01*
X172418207Y-95184269D01*
X172471821Y-95361007D01*
X172476333Y-95375880D01*
X172570722Y-95552469D01*
X172620355Y-95612948D01*
X172697747Y-95707252D01*
X172775139Y-95770764D01*
X172852531Y-95834278D01*
X173029120Y-95928667D01*
X173124925Y-95957729D01*
X173220730Y-95986792D01*
X173419999Y-96006418D01*
X173419999Y-96006417D01*
X173420000Y-96006418D01*
X173619269Y-95986792D01*
X173810880Y-95928667D01*
X173987469Y-95834278D01*
X174142252Y-95707252D01*
X174269278Y-95552469D01*
X174363667Y-95375880D01*
X174421792Y-95184269D01*
X174441418Y-94985000D01*
X174441418Y-94984999D01*
X174938581Y-94984999D01*
X174958207Y-95184269D01*
X175011821Y-95361007D01*
X175016333Y-95375880D01*
X175110722Y-95552469D01*
X175160355Y-95612948D01*
X175237747Y-95707252D01*
X175315139Y-95770764D01*
X175392531Y-95834278D01*
X175569120Y-95928667D01*
X175664925Y-95957729D01*
X175760730Y-95986792D01*
X175960000Y-96006418D01*
X176159269Y-95986792D01*
X176350880Y-95928667D01*
X176527469Y-95834278D01*
X176682252Y-95707252D01*
X176809278Y-95552469D01*
X176903667Y-95375880D01*
X176961792Y-95184269D01*
X176981418Y-94985000D01*
X176981418Y-94984999D01*
X177478581Y-94984999D01*
X177498207Y-95184269D01*
X177551821Y-95361007D01*
X177556333Y-95375880D01*
X177650722Y-95552469D01*
X177700355Y-95612948D01*
X177777747Y-95707252D01*
X177855139Y-95770764D01*
X177932531Y-95834278D01*
X178109120Y-95928667D01*
X178204925Y-95957729D01*
X178300730Y-95986792D01*
X178499999Y-96006418D01*
X178499999Y-96006417D01*
X178500000Y-96006418D01*
X178699269Y-95986792D01*
X178890880Y-95928667D01*
X179067469Y-95834278D01*
X179222252Y-95707252D01*
X179349278Y-95552469D01*
X179443667Y-95375880D01*
X179501792Y-95184269D01*
X179521418Y-94985000D01*
X180018581Y-94985000D01*
X180038207Y-95184269D01*
X180091821Y-95361007D01*
X180096333Y-95375880D01*
X180190722Y-95552469D01*
X180240355Y-95612948D01*
X180317747Y-95707252D01*
X180395139Y-95770764D01*
X180472531Y-95834278D01*
X180649120Y-95928667D01*
X180744925Y-95957729D01*
X180840730Y-95986792D01*
X181040000Y-96006418D01*
X181239269Y-95986792D01*
X181430880Y-95928667D01*
X181607469Y-95834278D01*
X181762252Y-95707252D01*
X181889278Y-95552469D01*
X181983667Y-95375880D01*
X182041792Y-95184269D01*
X182061418Y-94985000D01*
X182558581Y-94985000D01*
X182578207Y-95184269D01*
X182631821Y-95361007D01*
X182636333Y-95375880D01*
X182730722Y-95552469D01*
X182780355Y-95612948D01*
X182857747Y-95707252D01*
X182935139Y-95770764D01*
X183012531Y-95834278D01*
X183189120Y-95928667D01*
X183284925Y-95957729D01*
X183380730Y-95986792D01*
X183580000Y-96006418D01*
X183779269Y-95986792D01*
X183970880Y-95928667D01*
X184147469Y-95834278D01*
X184302252Y-95707252D01*
X184429278Y-95552469D01*
X184523667Y-95375880D01*
X184581792Y-95184269D01*
X184601418Y-94985000D01*
X184601418Y-94984999D01*
X185098581Y-94984999D01*
X185118207Y-95184269D01*
X185171821Y-95361007D01*
X185176333Y-95375880D01*
X185270722Y-95552469D01*
X185320355Y-95612948D01*
X185397747Y-95707252D01*
X185475139Y-95770764D01*
X185552531Y-95834278D01*
X185729120Y-95928667D01*
X185824925Y-95957729D01*
X185920730Y-95986792D01*
X186120000Y-96006418D01*
X186319269Y-95986792D01*
X186510880Y-95928667D01*
X186687469Y-95834278D01*
X186842252Y-95707252D01*
X186969278Y-95552469D01*
X187063667Y-95375880D01*
X187121792Y-95184269D01*
X187141418Y-94985000D01*
X187141418Y-94984999D01*
X187638581Y-94984999D01*
X187658207Y-95184269D01*
X187711821Y-95361007D01*
X187716333Y-95375880D01*
X187810722Y-95552469D01*
X187860355Y-95612948D01*
X187937747Y-95707252D01*
X188015139Y-95770764D01*
X188092531Y-95834278D01*
X188269120Y-95928667D01*
X188364925Y-95957729D01*
X188460730Y-95986792D01*
X188659999Y-96006418D01*
X188659999Y-96006417D01*
X188660000Y-96006418D01*
X188859269Y-95986792D01*
X189050880Y-95928667D01*
X189227469Y-95834278D01*
X189382252Y-95707252D01*
X189509278Y-95552469D01*
X189603667Y-95375880D01*
X189661792Y-95184269D01*
X189681418Y-94985000D01*
X190178581Y-94985000D01*
X190198207Y-95184269D01*
X190251821Y-95361007D01*
X190256333Y-95375880D01*
X190350722Y-95552469D01*
X190400355Y-95612948D01*
X190477747Y-95707252D01*
X190555139Y-95770764D01*
X190632531Y-95834278D01*
X190809120Y-95928667D01*
X190904925Y-95957729D01*
X191000730Y-95986792D01*
X191200000Y-96006418D01*
X191399269Y-95986792D01*
X191590880Y-95928667D01*
X191767469Y-95834278D01*
X191922252Y-95707252D01*
X192049278Y-95552469D01*
X192143667Y-95375880D01*
X192201792Y-95184269D01*
X192221418Y-94985000D01*
X192718581Y-94985000D01*
X192738207Y-95184269D01*
X192791821Y-95361007D01*
X192796333Y-95375880D01*
X192890722Y-95552469D01*
X192940355Y-95612948D01*
X193017747Y-95707252D01*
X193095139Y-95770764D01*
X193172531Y-95834278D01*
X193349120Y-95928667D01*
X193444925Y-95957729D01*
X193540730Y-95986792D01*
X193739999Y-96006418D01*
X193739999Y-96006417D01*
X193740000Y-96006418D01*
X193939269Y-95986792D01*
X194130880Y-95928667D01*
X194307469Y-95834278D01*
X194462252Y-95707252D01*
X194589278Y-95552469D01*
X194683667Y-95375880D01*
X194741792Y-95184269D01*
X194761418Y-94985000D01*
X194761418Y-94984999D01*
X195258581Y-94984999D01*
X195278207Y-95184269D01*
X195331821Y-95361007D01*
X195336333Y-95375880D01*
X195430722Y-95552469D01*
X195480355Y-95612948D01*
X195557747Y-95707252D01*
X195635139Y-95770764D01*
X195712531Y-95834278D01*
X195889120Y-95928667D01*
X195984925Y-95957729D01*
X196080730Y-95986792D01*
X196280000Y-96006418D01*
X196479269Y-95986792D01*
X196670880Y-95928667D01*
X196847469Y-95834278D01*
X197002252Y-95707252D01*
X197129278Y-95552469D01*
X197223667Y-95375880D01*
X197261853Y-95250000D01*
X215340693Y-95250000D01*
X215359850Y-95407780D01*
X215416212Y-95556394D01*
X215461792Y-95622427D01*
X215506502Y-95687201D01*
X215625471Y-95792599D01*
X215766207Y-95866463D01*
X215920529Y-95904500D01*
X215920531Y-95904500D01*
X216079469Y-95904500D01*
X216079471Y-95904500D01*
X216233793Y-95866463D01*
X216374529Y-95792599D01*
X216493498Y-95687201D01*
X216583787Y-95556395D01*
X216640149Y-95407782D01*
X216659307Y-95250000D01*
X216640149Y-95092218D01*
X216583787Y-94943605D01*
X216493498Y-94812799D01*
X216374529Y-94707401D01*
X216233793Y-94633537D01*
X216079471Y-94595500D01*
X215920529Y-94595500D01*
X215766207Y-94633537D01*
X215766206Y-94633537D01*
X215766204Y-94633538D01*
X215625472Y-94707400D01*
X215506501Y-94812799D01*
X215416212Y-94943605D01*
X215359850Y-95092219D01*
X215340693Y-95250000D01*
X197261853Y-95250000D01*
X197281792Y-95184269D01*
X197301418Y-94985000D01*
X197301410Y-94984913D01*
X197281792Y-94785730D01*
X197233274Y-94625790D01*
X197223667Y-94594120D01*
X197129278Y-94417531D01*
X197065764Y-94340139D01*
X197002252Y-94262747D01*
X196907948Y-94185355D01*
X196847469Y-94135722D01*
X196670880Y-94041333D01*
X196670879Y-94041332D01*
X196670878Y-94041332D01*
X196479269Y-93983207D01*
X196280000Y-93963581D01*
X196080730Y-93983207D01*
X195889121Y-94041332D01*
X195712532Y-94135721D01*
X195557747Y-94262747D01*
X195430721Y-94417532D01*
X195336332Y-94594121D01*
X195278207Y-94785730D01*
X195258581Y-94984999D01*
X194761418Y-94984999D01*
X194741792Y-94785731D01*
X194683667Y-94594120D01*
X194589278Y-94417531D01*
X194525765Y-94340139D01*
X194462252Y-94262747D01*
X194367948Y-94185355D01*
X194307469Y-94135722D01*
X194130880Y-94041333D01*
X194130879Y-94041332D01*
X194130878Y-94041332D01*
X193939269Y-93983207D01*
X193740000Y-93963581D01*
X193540730Y-93983207D01*
X193349121Y-94041332D01*
X193172532Y-94135721D01*
X193017747Y-94262747D01*
X192890721Y-94417532D01*
X192796332Y-94594121D01*
X192738207Y-94785730D01*
X192718581Y-94985000D01*
X192221418Y-94985000D01*
X192221410Y-94984913D01*
X192201792Y-94785730D01*
X192153274Y-94625790D01*
X192143667Y-94594120D01*
X192049278Y-94417531D01*
X191985764Y-94340139D01*
X191922252Y-94262747D01*
X191827948Y-94185355D01*
X191767469Y-94135722D01*
X191590880Y-94041333D01*
X191590879Y-94041332D01*
X191590878Y-94041332D01*
X191399269Y-93983207D01*
X191200000Y-93963581D01*
X191000730Y-93983207D01*
X190809121Y-94041332D01*
X190632532Y-94135721D01*
X190477747Y-94262747D01*
X190350721Y-94417532D01*
X190256332Y-94594121D01*
X190198207Y-94785730D01*
X190178581Y-94985000D01*
X189681418Y-94985000D01*
X189681410Y-94984913D01*
X189661792Y-94785730D01*
X189613274Y-94625790D01*
X189603667Y-94594120D01*
X189509278Y-94417531D01*
X189445765Y-94340139D01*
X189382252Y-94262747D01*
X189287948Y-94185355D01*
X189227469Y-94135722D01*
X189050880Y-94041333D01*
X189050879Y-94041332D01*
X189050878Y-94041332D01*
X188859269Y-93983207D01*
X188660000Y-93963581D01*
X188460730Y-93983207D01*
X188269121Y-94041332D01*
X188092532Y-94135721D01*
X187937747Y-94262747D01*
X187810721Y-94417532D01*
X187716332Y-94594121D01*
X187658207Y-94785730D01*
X187638581Y-94984999D01*
X187141418Y-94984999D01*
X187121792Y-94785731D01*
X187063667Y-94594120D01*
X186969278Y-94417531D01*
X186905765Y-94340139D01*
X186842252Y-94262747D01*
X186747948Y-94185355D01*
X186687469Y-94135722D01*
X186510880Y-94041333D01*
X186510879Y-94041332D01*
X186510878Y-94041332D01*
X186319269Y-93983207D01*
X186120000Y-93963581D01*
X185920730Y-93983207D01*
X185729121Y-94041332D01*
X185552532Y-94135721D01*
X185397747Y-94262747D01*
X185270721Y-94417532D01*
X185176332Y-94594121D01*
X185118207Y-94785730D01*
X185098581Y-94984999D01*
X184601418Y-94984999D01*
X184581792Y-94785731D01*
X184523667Y-94594120D01*
X184429278Y-94417531D01*
X184365765Y-94340139D01*
X184302252Y-94262747D01*
X184207948Y-94185355D01*
X184147469Y-94135722D01*
X183970880Y-94041333D01*
X183970879Y-94041332D01*
X183970878Y-94041332D01*
X183779269Y-93983207D01*
X183579999Y-93963581D01*
X183380730Y-93983207D01*
X183189121Y-94041332D01*
X183012532Y-94135721D01*
X182857747Y-94262747D01*
X182730721Y-94417532D01*
X182636332Y-94594121D01*
X182578207Y-94785730D01*
X182558581Y-94985000D01*
X182061418Y-94985000D01*
X182061410Y-94984913D01*
X182041792Y-94785730D01*
X181993274Y-94625790D01*
X181983667Y-94594120D01*
X181889278Y-94417531D01*
X181825764Y-94340139D01*
X181762252Y-94262747D01*
X181667948Y-94185355D01*
X181607469Y-94135722D01*
X181430880Y-94041333D01*
X181430879Y-94041332D01*
X181430878Y-94041332D01*
X181239269Y-93983207D01*
X181039999Y-93963581D01*
X180840730Y-93983207D01*
X180649121Y-94041332D01*
X180472532Y-94135721D01*
X180317747Y-94262747D01*
X180190721Y-94417532D01*
X180096332Y-94594121D01*
X180038207Y-94785730D01*
X180018581Y-94985000D01*
X179521418Y-94985000D01*
X179521410Y-94984913D01*
X179501792Y-94785730D01*
X179453274Y-94625790D01*
X179443667Y-94594120D01*
X179349278Y-94417531D01*
X179285765Y-94340139D01*
X179222252Y-94262747D01*
X179127948Y-94185355D01*
X179067469Y-94135722D01*
X178890880Y-94041333D01*
X178890879Y-94041332D01*
X178890878Y-94041332D01*
X178699269Y-93983207D01*
X178500000Y-93963581D01*
X178300730Y-93983207D01*
X178109121Y-94041332D01*
X177932532Y-94135721D01*
X177777747Y-94262747D01*
X177650721Y-94417532D01*
X177556332Y-94594121D01*
X177498207Y-94785730D01*
X177478581Y-94984999D01*
X176981418Y-94984999D01*
X176961792Y-94785731D01*
X176903667Y-94594120D01*
X176809278Y-94417531D01*
X176745765Y-94340139D01*
X176682252Y-94262747D01*
X176587948Y-94185355D01*
X176527469Y-94135722D01*
X176350880Y-94041333D01*
X176350879Y-94041332D01*
X176350878Y-94041332D01*
X176159269Y-93983207D01*
X175960000Y-93963581D01*
X175760730Y-93983207D01*
X175569121Y-94041332D01*
X175392532Y-94135721D01*
X175237747Y-94262747D01*
X175110721Y-94417532D01*
X175016332Y-94594121D01*
X174958207Y-94785730D01*
X174938581Y-94984999D01*
X174441418Y-94984999D01*
X174441410Y-94984913D01*
X174421792Y-94785730D01*
X174373274Y-94625790D01*
X174363667Y-94594120D01*
X174269278Y-94417531D01*
X174205765Y-94340139D01*
X174142252Y-94262747D01*
X174047948Y-94185355D01*
X173987469Y-94135722D01*
X173810880Y-94041333D01*
X173810879Y-94041332D01*
X173810878Y-94041332D01*
X173619269Y-93983207D01*
X173420000Y-93963581D01*
X173220730Y-93983207D01*
X173029121Y-94041332D01*
X172852532Y-94135721D01*
X172697747Y-94262747D01*
X172570721Y-94417532D01*
X172476332Y-94594121D01*
X172418207Y-94785730D01*
X172398581Y-94984999D01*
X171901418Y-94984999D01*
X171901410Y-94984913D01*
X171881792Y-94785730D01*
X171833274Y-94625790D01*
X171823667Y-94594120D01*
X171729278Y-94417531D01*
X171665764Y-94340139D01*
X171602252Y-94262747D01*
X171507948Y-94185355D01*
X171447469Y-94135722D01*
X171270880Y-94041333D01*
X171270879Y-94041332D01*
X171270878Y-94041332D01*
X171079269Y-93983207D01*
X170880000Y-93963581D01*
X170680730Y-93983207D01*
X170489121Y-94041332D01*
X170312532Y-94135721D01*
X170157747Y-94262747D01*
X170030721Y-94417532D01*
X169936332Y-94594121D01*
X169878207Y-94785730D01*
X169858581Y-94984999D01*
X169361418Y-94984999D01*
X169361410Y-94984913D01*
X169341792Y-94785730D01*
X169293274Y-94625790D01*
X169283667Y-94594120D01*
X169189278Y-94417531D01*
X169125765Y-94340139D01*
X169062252Y-94262747D01*
X168967948Y-94185355D01*
X168907469Y-94135722D01*
X168730880Y-94041333D01*
X168730879Y-94041332D01*
X168730878Y-94041332D01*
X168539269Y-93983207D01*
X168339999Y-93963581D01*
X168140730Y-93983207D01*
X167949121Y-94041332D01*
X167772532Y-94135721D01*
X167617747Y-94262747D01*
X167490721Y-94417532D01*
X167396332Y-94594121D01*
X167338207Y-94785730D01*
X167318581Y-94984999D01*
X166821418Y-94984999D01*
X166821410Y-94984913D01*
X166801792Y-94785730D01*
X166753274Y-94625790D01*
X166743667Y-94594120D01*
X166649278Y-94417531D01*
X166585765Y-94340139D01*
X166522252Y-94262747D01*
X166427948Y-94185355D01*
X166367469Y-94135722D01*
X166190880Y-94041333D01*
X166190879Y-94041332D01*
X166190878Y-94041332D01*
X165999269Y-93983207D01*
X165799999Y-93963581D01*
X165600730Y-93983207D01*
X165409121Y-94041332D01*
X165232532Y-94135721D01*
X165077747Y-94262747D01*
X164950721Y-94417532D01*
X164856332Y-94594121D01*
X164798207Y-94785730D01*
X164778581Y-94985000D01*
X164281418Y-94985000D01*
X164281410Y-94984913D01*
X164261792Y-94785730D01*
X164213274Y-94625790D01*
X164203667Y-94594120D01*
X164109278Y-94417531D01*
X164045765Y-94340139D01*
X163982252Y-94262747D01*
X163887948Y-94185355D01*
X163827469Y-94135722D01*
X163650880Y-94041333D01*
X163650879Y-94041332D01*
X163650878Y-94041332D01*
X163459269Y-93983207D01*
X163260000Y-93963581D01*
X163060730Y-93983207D01*
X162869121Y-94041332D01*
X162692532Y-94135721D01*
X162537747Y-94262747D01*
X162410721Y-94417532D01*
X162316332Y-94594121D01*
X162258207Y-94785730D01*
X162238581Y-94984999D01*
X161741418Y-94984999D01*
X161741410Y-94984913D01*
X161721792Y-94785730D01*
X161673274Y-94625790D01*
X161663667Y-94594120D01*
X161569278Y-94417531D01*
X161505764Y-94340139D01*
X161442252Y-94262747D01*
X161347948Y-94185355D01*
X161287469Y-94135722D01*
X161110880Y-94041333D01*
X161110879Y-94041332D01*
X161110878Y-94041332D01*
X160919269Y-93983207D01*
X160720000Y-93963581D01*
X160520730Y-93983207D01*
X160329121Y-94041332D01*
X160152532Y-94135721D01*
X159997747Y-94262747D01*
X159870721Y-94417532D01*
X159776332Y-94594121D01*
X159718207Y-94785730D01*
X159698581Y-94985000D01*
X159201418Y-94985000D01*
X159181792Y-94785731D01*
X159123667Y-94594120D01*
X159029278Y-94417531D01*
X158965765Y-94340139D01*
X158902252Y-94262747D01*
X158807948Y-94185355D01*
X158747469Y-94135722D01*
X158570880Y-94041333D01*
X158570879Y-94041332D01*
X158570878Y-94041332D01*
X158379269Y-93983207D01*
X158180000Y-93963581D01*
X157980730Y-93983207D01*
X157789121Y-94041332D01*
X157612532Y-94135721D01*
X157457747Y-94262747D01*
X157330721Y-94417532D01*
X157236332Y-94594121D01*
X157178207Y-94785730D01*
X157158581Y-94984999D01*
X156661418Y-94984999D01*
X156661410Y-94984913D01*
X156641792Y-94785730D01*
X156593274Y-94625790D01*
X156583667Y-94594120D01*
X156489278Y-94417531D01*
X156425765Y-94340139D01*
X156362252Y-94262747D01*
X156267948Y-94185355D01*
X156207469Y-94135722D01*
X156030880Y-94041333D01*
X156030879Y-94041332D01*
X156030878Y-94041332D01*
X155839269Y-93983207D01*
X155640000Y-93963581D01*
X155440730Y-93983207D01*
X155249121Y-94041332D01*
X155072532Y-94135721D01*
X154917747Y-94262747D01*
X154790721Y-94417532D01*
X154696332Y-94594121D01*
X154638207Y-94785730D01*
X154622321Y-94947022D01*
X154607015Y-94984926D01*
X154386827Y-94984926D01*
X154386832Y-94984913D01*
X154373134Y-94958148D01*
X154371407Y-94945652D01*
X154355482Y-94763623D01*
X154297968Y-94548975D01*
X154204051Y-94347571D01*
X154159815Y-94284395D01*
X154159812Y-94284395D01*
X153544844Y-94899363D01*
X153543673Y-94883735D01*
X153494113Y-94757459D01*
X153409535Y-94651401D01*
X153297453Y-94574984D01*
X153185376Y-94540413D01*
X153800603Y-93925185D01*
X153800603Y-93925184D01*
X153737426Y-93880947D01*
X153536024Y-93787031D01*
X153321376Y-93729517D01*
X153099999Y-93710149D01*
X152878623Y-93729517D01*
X152663975Y-93787031D01*
X152462572Y-93880948D01*
X152399394Y-93925185D01*
X153016683Y-94542474D01*
X152965862Y-94550135D01*
X152843643Y-94608993D01*
X152744202Y-94701260D01*
X152676375Y-94818740D01*
X152657449Y-94901658D01*
X152040184Y-94284394D01*
X151995948Y-94347572D01*
X151902031Y-94548975D01*
X151844517Y-94763623D01*
X151825149Y-94985000D01*
X111525500Y-94985000D01*
X111525500Y-92350000D01*
X121440693Y-92350000D01*
X121459850Y-92507780D01*
X121516212Y-92656394D01*
X121592188Y-92766463D01*
X121606502Y-92787201D01*
X121725471Y-92892599D01*
X121866207Y-92966463D01*
X122020529Y-93004500D01*
X122020531Y-93004500D01*
X122179469Y-93004500D01*
X122179471Y-93004500D01*
X122333793Y-92966463D01*
X122474529Y-92892599D01*
X122593498Y-92787201D01*
X122683787Y-92656395D01*
X122740149Y-92507782D01*
X122759307Y-92350000D01*
X122740149Y-92192218D01*
X122683787Y-92043605D01*
X122593498Y-91912799D01*
X122474529Y-91807401D01*
X122404160Y-91770468D01*
X122333795Y-91733538D01*
X122333794Y-91733537D01*
X122333793Y-91733537D01*
X122179471Y-91695500D01*
X122020529Y-91695500D01*
X121866207Y-91733537D01*
X121866206Y-91733537D01*
X121866204Y-91733538D01*
X121725472Y-91807400D01*
X121606501Y-91912799D01*
X121516212Y-92043605D01*
X121459850Y-92192219D01*
X121440693Y-92350000D01*
X111525500Y-92350000D01*
X111525500Y-91429999D01*
X129680693Y-91429999D01*
X129699850Y-91587780D01*
X129756212Y-91736394D01*
X129837041Y-91853494D01*
X129846502Y-91867201D01*
X129965471Y-91972599D01*
X130106207Y-92046463D01*
X130260529Y-92084500D01*
X130260531Y-92084500D01*
X130419469Y-92084500D01*
X130419471Y-92084500D01*
X130573793Y-92046463D01*
X130624216Y-92019999D01*
X133880693Y-92019999D01*
X133899850Y-92177780D01*
X133956212Y-92326394D01*
X134045946Y-92456395D01*
X134046502Y-92457201D01*
X134165471Y-92562599D01*
X134306207Y-92636463D01*
X134460529Y-92674500D01*
X134460531Y-92674500D01*
X134619469Y-92674500D01*
X134619471Y-92674500D01*
X134773793Y-92636463D01*
X134914529Y-92562599D01*
X135033498Y-92457201D01*
X135123787Y-92326395D01*
X135127536Y-92316509D01*
X135170393Y-92259909D01*
X135237048Y-92235463D01*
X135306338Y-92250934D01*
X135356265Y-92301410D01*
X135363158Y-92316505D01*
X135375861Y-92350000D01*
X135416211Y-92456394D01*
X135451681Y-92507780D01*
X135506501Y-92587201D01*
X135625470Y-92692599D01*
X135766206Y-92766463D01*
X135920528Y-92804500D01*
X135920530Y-92804500D01*
X136079468Y-92804500D01*
X136079470Y-92804500D01*
X136233792Y-92766463D01*
X136374528Y-92692599D01*
X136493497Y-92587201D01*
X136583786Y-92456395D01*
X136640148Y-92307782D01*
X136659306Y-92150000D01*
X139940693Y-92150000D01*
X139959850Y-92307780D01*
X140016212Y-92456394D01*
X140051682Y-92507780D01*
X140106502Y-92587201D01*
X140225471Y-92692599D01*
X140366207Y-92766463D01*
X140520529Y-92804500D01*
X140520531Y-92804500D01*
X140679469Y-92804500D01*
X140679471Y-92804500D01*
X140833793Y-92766463D01*
X140974529Y-92692599D01*
X141093498Y-92587201D01*
X141183787Y-92456395D01*
X141240149Y-92307782D01*
X141259307Y-92150000D01*
X141240149Y-91992218D01*
X141183787Y-91843605D01*
X141093498Y-91712799D01*
X140974529Y-91607401D01*
X140833793Y-91533537D01*
X140679471Y-91495500D01*
X140520529Y-91495500D01*
X140366207Y-91533537D01*
X140366206Y-91533537D01*
X140366204Y-91533538D01*
X140225472Y-91607400D01*
X140106501Y-91712799D01*
X140016212Y-91843605D01*
X139959850Y-91992219D01*
X139940693Y-92150000D01*
X136659306Y-92150000D01*
X136640148Y-91992218D01*
X136583786Y-91843605D01*
X136493497Y-91712799D01*
X136493495Y-91712797D01*
X136482149Y-91702745D01*
X136444423Y-91642601D01*
X136445203Y-91571609D01*
X136484240Y-91512308D01*
X136549141Y-91483526D01*
X136595852Y-91486093D01*
X136670529Y-91504500D01*
X136670531Y-91504500D01*
X136829469Y-91504500D01*
X136829471Y-91504500D01*
X136983793Y-91466463D01*
X137124529Y-91392599D01*
X137243498Y-91287201D01*
X137333787Y-91156395D01*
X137390149Y-91007782D01*
X137409307Y-90850000D01*
X137390149Y-90692218D01*
X137355175Y-90600000D01*
X142890693Y-90600000D01*
X142909850Y-90757780D01*
X142966212Y-90906394D01*
X142966213Y-90906395D01*
X143056502Y-91037201D01*
X143175471Y-91142599D01*
X143316207Y-91216463D01*
X143470529Y-91254500D01*
X143470531Y-91254500D01*
X143629469Y-91254500D01*
X143629471Y-91254500D01*
X143647728Y-91250000D01*
X215740726Y-91250000D01*
X215759763Y-91418956D01*
X215793886Y-91516473D01*
X215815918Y-91579437D01*
X215833489Y-91607401D01*
X215906377Y-91723402D01*
X216026597Y-91843622D01*
X216026599Y-91843623D01*
X216026600Y-91843624D01*
X216170563Y-91934082D01*
X216331046Y-91990237D01*
X216500000Y-92009274D01*
X216668954Y-91990237D01*
X216829437Y-91934082D01*
X216973400Y-91843624D01*
X217093624Y-91723400D01*
X217184082Y-91579437D01*
X217240237Y-91418954D01*
X217259274Y-91250000D01*
X217240237Y-91081046D01*
X217184082Y-90920563D01*
X217093624Y-90776600D01*
X217093623Y-90776599D01*
X217093622Y-90776597D01*
X216973402Y-90656377D01*
X216883678Y-90600000D01*
X216829437Y-90565918D01*
X216765670Y-90543605D01*
X216668956Y-90509763D01*
X216500000Y-90490726D01*
X216331043Y-90509763D01*
X216170563Y-90565918D01*
X216026597Y-90656377D01*
X215906377Y-90776597D01*
X215815918Y-90920563D01*
X215759763Y-91081043D01*
X215740726Y-91250000D01*
X143647728Y-91250000D01*
X143783793Y-91216463D01*
X143924529Y-91142599D01*
X144043498Y-91037201D01*
X144133787Y-90906395D01*
X144190149Y-90757782D01*
X144209307Y-90600000D01*
X144190149Y-90442218D01*
X144133787Y-90293605D01*
X144043498Y-90162799D01*
X143924529Y-90057401D01*
X143783793Y-89983537D01*
X143629471Y-89945500D01*
X143470529Y-89945500D01*
X143316207Y-89983537D01*
X143316206Y-89983537D01*
X143316204Y-89983538D01*
X143175472Y-90057400D01*
X143056501Y-90162799D01*
X142966212Y-90293605D01*
X142909850Y-90442219D01*
X142890693Y-90600000D01*
X137355175Y-90600000D01*
X137333787Y-90543605D01*
X137243498Y-90412799D01*
X137124529Y-90307401D01*
X136983793Y-90233537D01*
X136829471Y-90195500D01*
X136670529Y-90195500D01*
X136516207Y-90233537D01*
X136516206Y-90233537D01*
X136516204Y-90233538D01*
X136375472Y-90307400D01*
X136256501Y-90412799D01*
X136166212Y-90543605D01*
X136109850Y-90692219D01*
X136090693Y-90850000D01*
X136109850Y-91007780D01*
X136166212Y-91156394D01*
X136166213Y-91156395D01*
X136256502Y-91287201D01*
X136267849Y-91297254D01*
X136305575Y-91357397D01*
X136304795Y-91428390D01*
X136265758Y-91487691D01*
X136200857Y-91516473D01*
X136154143Y-91513905D01*
X136079470Y-91495500D01*
X135920528Y-91495500D01*
X135766206Y-91533537D01*
X135766205Y-91533537D01*
X135766203Y-91533538D01*
X135625471Y-91607400D01*
X135506500Y-91712799D01*
X135416211Y-91843605D01*
X135412461Y-91853494D01*
X135369600Y-91910094D01*
X135302944Y-91934537D01*
X135233654Y-91919062D01*
X135183730Y-91868583D01*
X135176840Y-91853494D01*
X135123787Y-91713605D01*
X135033498Y-91582799D01*
X134914529Y-91477401D01*
X134773793Y-91403537D01*
X134619471Y-91365500D01*
X134460529Y-91365500D01*
X134306207Y-91403537D01*
X134306206Y-91403537D01*
X134306204Y-91403538D01*
X134165472Y-91477400D01*
X134046501Y-91582799D01*
X133956212Y-91713605D01*
X133899850Y-91862219D01*
X133880693Y-92019999D01*
X130624216Y-92019999D01*
X130714529Y-91972599D01*
X130833498Y-91867201D01*
X130923787Y-91736395D01*
X130980149Y-91587782D01*
X130999307Y-91430000D01*
X130980149Y-91272218D01*
X130923787Y-91123605D01*
X130833498Y-90992799D01*
X130714529Y-90887401D01*
X130573793Y-90813537D01*
X130419471Y-90775500D01*
X130260529Y-90775500D01*
X130106207Y-90813537D01*
X130106206Y-90813537D01*
X130106204Y-90813538D01*
X129965472Y-90887400D01*
X129846501Y-90992799D01*
X129756212Y-91123605D01*
X129699850Y-91272219D01*
X129680693Y-91429999D01*
X111525500Y-91429999D01*
X111525500Y-87460000D01*
X114937182Y-87460000D01*
X114956423Y-87704479D01*
X115013672Y-87942937D01*
X115107520Y-88169508D01*
X115230536Y-88370251D01*
X115230538Y-88370251D01*
X115973097Y-87627692D01*
X115976884Y-87645915D01*
X116046442Y-87780156D01*
X116149638Y-87890652D01*
X116278819Y-87969209D01*
X116334421Y-87984788D01*
X115660612Y-88658596D01*
X115598300Y-88692621D01*
X115571518Y-88695500D01*
X115424932Y-88695500D01*
X115350699Y-88710265D01*
X115266515Y-88766515D01*
X115210266Y-88850698D01*
X115195500Y-88924933D01*
X115195500Y-91075068D01*
X115210265Y-91149300D01*
X115266515Y-91233484D01*
X115297968Y-91254500D01*
X115350699Y-91289734D01*
X115424933Y-91304500D01*
X117575066Y-91304499D01*
X117575068Y-91304499D01*
X117624556Y-91294655D01*
X117649301Y-91289734D01*
X117733484Y-91233484D01*
X117789734Y-91149301D01*
X117804500Y-91075067D01*
X117804499Y-88924934D01*
X117804499Y-88924933D01*
X117804499Y-88924931D01*
X117789734Y-88850699D01*
X117733484Y-88766515D01*
X117649301Y-88710266D01*
X117647964Y-88710000D01*
X215740726Y-88710000D01*
X215759763Y-88878956D01*
X215775852Y-88924934D01*
X215815918Y-89039437D01*
X215880141Y-89141647D01*
X215906377Y-89183402D01*
X216026597Y-89303622D01*
X216026599Y-89303623D01*
X216026600Y-89303624D01*
X216170563Y-89394082D01*
X216331046Y-89450237D01*
X216500000Y-89469274D01*
X216668954Y-89450237D01*
X216829437Y-89394082D01*
X216973400Y-89303624D01*
X217093624Y-89183400D01*
X217184082Y-89039437D01*
X217240237Y-88878954D01*
X217259274Y-88710000D01*
X217240237Y-88541046D01*
X217184082Y-88380563D01*
X217093624Y-88236600D01*
X217093623Y-88236599D01*
X217093622Y-88236597D01*
X216973402Y-88116377D01*
X216931647Y-88090141D01*
X216829437Y-88025918D01*
X216775942Y-88007199D01*
X216668956Y-87969763D01*
X216500000Y-87950726D01*
X216331043Y-87969763D01*
X216170563Y-88025918D01*
X216026597Y-88116377D01*
X215906377Y-88236597D01*
X215815918Y-88380563D01*
X215759763Y-88541043D01*
X215740726Y-88710000D01*
X117647964Y-88710000D01*
X117647959Y-88709999D01*
X117575067Y-88695500D01*
X117575066Y-88695500D01*
X117428480Y-88695500D01*
X117360359Y-88675498D01*
X117339384Y-88658595D01*
X116667624Y-87986834D01*
X116788458Y-87934349D01*
X116905739Y-87838934D01*
X116992928Y-87715415D01*
X117024837Y-87625628D01*
X117769461Y-88370252D01*
X117769462Y-88370251D01*
X117892479Y-88169508D01*
X117986327Y-87942937D01*
X118043576Y-87704479D01*
X118062817Y-87460000D01*
X118043576Y-87215520D01*
X117986327Y-86977062D01*
X117892479Y-86750491D01*
X117769462Y-86549747D01*
X117769460Y-86549747D01*
X117026902Y-87292305D01*
X117023116Y-87274085D01*
X116953558Y-87139844D01*
X116850362Y-87029348D01*
X116721181Y-86950791D01*
X116665578Y-86935211D01*
X117250789Y-86350000D01*
X142340693Y-86350000D01*
X142359850Y-86507780D01*
X142416212Y-86656394D01*
X142416213Y-86656395D01*
X142506502Y-86787201D01*
X142625471Y-86892599D01*
X142766207Y-86966463D01*
X142920529Y-87004500D01*
X142920531Y-87004500D01*
X143079469Y-87004500D01*
X143079471Y-87004500D01*
X143233793Y-86966463D01*
X143374529Y-86892599D01*
X143493498Y-86787201D01*
X143583787Y-86656395D01*
X143640149Y-86507782D01*
X143659307Y-86350000D01*
X143640149Y-86192218D01*
X143583787Y-86043605D01*
X143493498Y-85912799D01*
X143374529Y-85807401D01*
X143233793Y-85733537D01*
X143079471Y-85695500D01*
X142920529Y-85695500D01*
X142766207Y-85733537D01*
X142766206Y-85733537D01*
X142766204Y-85733538D01*
X142625472Y-85807400D01*
X142506501Y-85912799D01*
X142416212Y-86043605D01*
X142359850Y-86192219D01*
X142340693Y-86350000D01*
X117250789Y-86350000D01*
X117410251Y-86190538D01*
X117410251Y-86190536D01*
X117209508Y-86067520D01*
X116982937Y-85973672D01*
X116744479Y-85916423D01*
X116500000Y-85897182D01*
X116255520Y-85916423D01*
X116017062Y-85973672D01*
X115790493Y-86067519D01*
X115589747Y-86190536D01*
X115589747Y-86190538D01*
X116332375Y-86933165D01*
X116211542Y-86985651D01*
X116094261Y-87081066D01*
X116007072Y-87204585D01*
X115975162Y-87294371D01*
X115230538Y-86549747D01*
X115230536Y-86549747D01*
X115107519Y-86750493D01*
X115013672Y-86977062D01*
X114956423Y-87215520D01*
X114937182Y-87460000D01*
X111525500Y-87460000D01*
X111525500Y-84499999D01*
X126340693Y-84499999D01*
X126359850Y-84657780D01*
X126416212Y-84806394D01*
X126416213Y-84806395D01*
X126506502Y-84937201D01*
X126625471Y-85042599D01*
X126766207Y-85116463D01*
X126920529Y-85154500D01*
X126920531Y-85154500D01*
X127079469Y-85154500D01*
X127079471Y-85154500D01*
X127233793Y-85116463D01*
X127374529Y-85042599D01*
X127493498Y-84937201D01*
X127583787Y-84806395D01*
X127640149Y-84657782D01*
X127659307Y-84500000D01*
X127640149Y-84342218D01*
X127583787Y-84193605D01*
X127493498Y-84062799D01*
X127374529Y-83957401D01*
X127233793Y-83883537D01*
X127079471Y-83845500D01*
X126920529Y-83845500D01*
X126766207Y-83883537D01*
X126766206Y-83883537D01*
X126766204Y-83883538D01*
X126625472Y-83957400D01*
X126506501Y-84062799D01*
X126416212Y-84193605D01*
X126359850Y-84342219D01*
X126340693Y-84499999D01*
X111525500Y-84499999D01*
X111525500Y-81550000D01*
X158390693Y-81550000D01*
X158409850Y-81707780D01*
X158466212Y-81856394D01*
X158466213Y-81856395D01*
X158556502Y-81987201D01*
X158675471Y-82092599D01*
X158816207Y-82166463D01*
X158970529Y-82204500D01*
X158970531Y-82204500D01*
X159129469Y-82204500D01*
X159129471Y-82204500D01*
X159283793Y-82166463D01*
X159424529Y-82092599D01*
X159543498Y-81987201D01*
X159633787Y-81856395D01*
X159690149Y-81707782D01*
X159709307Y-81550000D01*
X159690149Y-81392218D01*
X159633787Y-81243605D01*
X159543498Y-81112799D01*
X159424529Y-81007401D01*
X159283793Y-80933537D01*
X159129471Y-80895500D01*
X158970529Y-80895500D01*
X158816207Y-80933537D01*
X158816206Y-80933537D01*
X158816204Y-80933538D01*
X158675472Y-81007400D01*
X158556501Y-81112799D01*
X158466212Y-81243605D01*
X158409850Y-81392219D01*
X158390693Y-81550000D01*
X111525500Y-81550000D01*
X111525500Y-79500000D01*
X199840693Y-79500000D01*
X199859850Y-79657780D01*
X199916212Y-79806394D01*
X199916213Y-79806395D01*
X200006502Y-79937201D01*
X200125471Y-80042599D01*
X200266207Y-80116463D01*
X200420529Y-80154500D01*
X200420531Y-80154500D01*
X200579469Y-80154500D01*
X200579471Y-80154500D01*
X200733793Y-80116463D01*
X200874529Y-80042599D01*
X200993498Y-79937201D01*
X201083787Y-79806395D01*
X201105175Y-79749999D01*
X203090693Y-79749999D01*
X203109850Y-79907780D01*
X203166212Y-80056394D01*
X203207674Y-80116461D01*
X203256502Y-80187201D01*
X203375471Y-80292599D01*
X203516207Y-80366463D01*
X203670529Y-80404500D01*
X203670531Y-80404500D01*
X203829469Y-80404500D01*
X203829471Y-80404500D01*
X203983793Y-80366463D01*
X204124529Y-80292599D01*
X204172614Y-80249999D01*
X205590693Y-80249999D01*
X205609850Y-80407780D01*
X205666212Y-80556394D01*
X205666213Y-80556395D01*
X205756502Y-80687201D01*
X205875471Y-80792599D01*
X206016207Y-80866463D01*
X206170529Y-80904500D01*
X206170531Y-80904500D01*
X206329469Y-80904500D01*
X206329471Y-80904500D01*
X206483793Y-80866463D01*
X206624529Y-80792599D01*
X206743498Y-80687201D01*
X206833787Y-80556395D01*
X206890149Y-80407782D01*
X206909307Y-80250000D01*
X206890149Y-80092218D01*
X206833787Y-79943605D01*
X206743498Y-79812799D01*
X206624529Y-79707401D01*
X206483793Y-79633537D01*
X206329471Y-79595500D01*
X206170529Y-79595500D01*
X206016207Y-79633537D01*
X206016206Y-79633537D01*
X206016204Y-79633538D01*
X205875472Y-79707400D01*
X205756501Y-79812799D01*
X205666212Y-79943605D01*
X205609850Y-80092219D01*
X205590693Y-80249999D01*
X204172614Y-80249999D01*
X204243498Y-80187201D01*
X204333787Y-80056395D01*
X204390149Y-79907782D01*
X204409307Y-79750000D01*
X204390149Y-79592218D01*
X204333787Y-79443605D01*
X204243498Y-79312799D01*
X204124529Y-79207401D01*
X203983793Y-79133537D01*
X203829471Y-79095500D01*
X203670529Y-79095500D01*
X203516207Y-79133537D01*
X203516206Y-79133537D01*
X203516204Y-79133538D01*
X203375472Y-79207400D01*
X203256501Y-79312799D01*
X203166212Y-79443605D01*
X203109850Y-79592219D01*
X203090693Y-79749999D01*
X201105175Y-79749999D01*
X201140149Y-79657782D01*
X201159307Y-79500000D01*
X201140149Y-79342218D01*
X201083787Y-79193605D01*
X200993498Y-79062799D01*
X200874529Y-78957401D01*
X200733793Y-78883537D01*
X200579471Y-78845500D01*
X200420529Y-78845500D01*
X200266207Y-78883537D01*
X200266206Y-78883537D01*
X200266204Y-78883538D01*
X200125472Y-78957400D01*
X200006501Y-79062799D01*
X199916212Y-79193605D01*
X199859850Y-79342219D01*
X199840693Y-79500000D01*
X111525500Y-79500000D01*
X111525500Y-77000000D01*
X205840693Y-77000000D01*
X205859850Y-77157780D01*
X205916212Y-77306394D01*
X205916213Y-77306395D01*
X206006502Y-77437201D01*
X206125471Y-77542599D01*
X206266207Y-77616463D01*
X206420529Y-77654500D01*
X206420531Y-77654500D01*
X206579469Y-77654500D01*
X206579471Y-77654500D01*
X206733793Y-77616463D01*
X206874529Y-77542599D01*
X206993498Y-77437201D01*
X207083787Y-77306395D01*
X207140149Y-77157782D01*
X207159307Y-77000000D01*
X207140149Y-76842218D01*
X207083787Y-76693605D01*
X206993498Y-76562799D01*
X206874529Y-76457401D01*
X206733793Y-76383537D01*
X206579471Y-76345500D01*
X206420529Y-76345500D01*
X206266207Y-76383537D01*
X206266206Y-76383537D01*
X206266204Y-76383538D01*
X206125472Y-76457400D01*
X206006501Y-76562799D01*
X205916212Y-76693605D01*
X205859850Y-76842219D01*
X205840693Y-77000000D01*
X111525500Y-77000000D01*
X111525500Y-71460000D01*
X114937182Y-71460000D01*
X114956423Y-71704479D01*
X115013672Y-71942937D01*
X115107520Y-72169508D01*
X115230536Y-72370251D01*
X115230538Y-72370251D01*
X115973097Y-71627691D01*
X115976884Y-71645915D01*
X116046442Y-71780156D01*
X116149638Y-71890652D01*
X116278819Y-71969209D01*
X116334421Y-71984788D01*
X115660612Y-72658596D01*
X115598300Y-72692621D01*
X115571518Y-72695500D01*
X115424932Y-72695500D01*
X115350699Y-72710265D01*
X115266515Y-72766515D01*
X115210266Y-72850698D01*
X115195500Y-72924933D01*
X115195500Y-75075068D01*
X115210265Y-75149300D01*
X115266515Y-75233484D01*
X115322765Y-75271068D01*
X115350699Y-75289734D01*
X115424933Y-75304500D01*
X117575066Y-75304499D01*
X117575068Y-75304499D01*
X117624555Y-75294655D01*
X117649301Y-75289734D01*
X117733484Y-75233484D01*
X117789734Y-75149301D01*
X117804500Y-75075067D01*
X117804499Y-72924934D01*
X117804499Y-72924933D01*
X117804499Y-72924931D01*
X117789734Y-72850699D01*
X117733484Y-72766515D01*
X117649301Y-72710266D01*
X117649296Y-72710265D01*
X117575067Y-72695500D01*
X117575066Y-72695500D01*
X117428480Y-72695500D01*
X117360359Y-72675498D01*
X117339384Y-72658595D01*
X116667624Y-71986834D01*
X116788458Y-71934349D01*
X116905739Y-71838934D01*
X116992928Y-71715415D01*
X117024837Y-71625628D01*
X117769461Y-72370252D01*
X117769462Y-72370251D01*
X117892479Y-72169508D01*
X117986327Y-71942937D01*
X118043576Y-71704479D01*
X118062817Y-71460000D01*
X118052586Y-71330000D01*
X125480693Y-71330000D01*
X125499850Y-71487780D01*
X125556212Y-71636394D01*
X125610757Y-71715415D01*
X125646502Y-71767201D01*
X125765471Y-71872599D01*
X125906207Y-71946463D01*
X126060529Y-71984500D01*
X126060531Y-71984500D01*
X126219469Y-71984500D01*
X126219471Y-71984500D01*
X126373793Y-71946463D01*
X126514529Y-71872599D01*
X126633498Y-71767201D01*
X126723787Y-71636395D01*
X126780149Y-71487782D01*
X126799307Y-71330000D01*
X126789593Y-71250000D01*
X204590693Y-71250000D01*
X204609850Y-71407780D01*
X204666212Y-71556394D01*
X204666213Y-71556395D01*
X204756502Y-71687201D01*
X204875471Y-71792599D01*
X205016207Y-71866463D01*
X205170529Y-71904500D01*
X205170531Y-71904500D01*
X205329469Y-71904500D01*
X205329471Y-71904500D01*
X205483793Y-71866463D01*
X205624529Y-71792599D01*
X205743498Y-71687201D01*
X205833787Y-71556395D01*
X205890149Y-71407782D01*
X205909307Y-71250000D01*
X205890149Y-71092218D01*
X205833787Y-70943605D01*
X205743498Y-70812799D01*
X205624529Y-70707401D01*
X205483793Y-70633537D01*
X205329471Y-70595500D01*
X205170529Y-70595500D01*
X205016207Y-70633537D01*
X205016206Y-70633537D01*
X205016204Y-70633538D01*
X204875472Y-70707400D01*
X204756501Y-70812799D01*
X204666212Y-70943605D01*
X204609850Y-71092219D01*
X204590693Y-71250000D01*
X126789593Y-71250000D01*
X126780149Y-71172218D01*
X126723787Y-71023605D01*
X126633498Y-70892799D01*
X126514529Y-70787401D01*
X126373793Y-70713537D01*
X126219471Y-70675500D01*
X126060529Y-70675500D01*
X125906207Y-70713537D01*
X125906206Y-70713537D01*
X125906204Y-70713538D01*
X125765472Y-70787400D01*
X125646501Y-70892799D01*
X125556212Y-71023605D01*
X125499850Y-71172219D01*
X125480693Y-71330000D01*
X118052586Y-71330000D01*
X118043576Y-71215520D01*
X117986327Y-70977062D01*
X117892479Y-70750491D01*
X117769462Y-70549747D01*
X117769460Y-70549747D01*
X117026902Y-71292305D01*
X117023116Y-71274085D01*
X116953558Y-71139844D01*
X116850362Y-71029348D01*
X116721181Y-70950791D01*
X116665578Y-70935211D01*
X117100789Y-70500000D01*
X206340693Y-70500000D01*
X206359850Y-70657780D01*
X206416212Y-70806394D01*
X206416213Y-70806395D01*
X206506502Y-70937201D01*
X206625471Y-71042599D01*
X206766207Y-71116463D01*
X206920529Y-71154500D01*
X206920531Y-71154500D01*
X207079469Y-71154500D01*
X207079471Y-71154500D01*
X207233793Y-71116463D01*
X207374529Y-71042599D01*
X207493498Y-70937201D01*
X207583787Y-70806395D01*
X207640149Y-70657782D01*
X207659307Y-70500000D01*
X207640149Y-70342218D01*
X207583787Y-70193605D01*
X207493498Y-70062799D01*
X207374529Y-69957401D01*
X207233793Y-69883537D01*
X207079471Y-69845500D01*
X206920529Y-69845500D01*
X206766207Y-69883537D01*
X206766206Y-69883537D01*
X206766204Y-69883538D01*
X206625472Y-69957400D01*
X206506501Y-70062799D01*
X206416212Y-70193605D01*
X206359850Y-70342219D01*
X206340693Y-70500000D01*
X117100789Y-70500000D01*
X117410251Y-70190538D01*
X117410251Y-70190536D01*
X117209508Y-70067520D01*
X116982937Y-69973672D01*
X116744479Y-69916423D01*
X116500000Y-69897182D01*
X116255520Y-69916423D01*
X116017062Y-69973672D01*
X115790493Y-70067519D01*
X115589747Y-70190536D01*
X115589747Y-70190538D01*
X116332375Y-70933165D01*
X116211542Y-70985651D01*
X116094261Y-71081066D01*
X116007072Y-71204585D01*
X115975162Y-71294371D01*
X115230538Y-70549747D01*
X115230536Y-70549747D01*
X115107519Y-70750493D01*
X115013672Y-70977062D01*
X114956423Y-71215520D01*
X114937182Y-71460000D01*
X111525500Y-71460000D01*
X111525500Y-69000000D01*
X200590693Y-69000000D01*
X200609850Y-69157780D01*
X200666212Y-69306394D01*
X200666213Y-69306395D01*
X200756502Y-69437201D01*
X200875471Y-69542599D01*
X201016207Y-69616463D01*
X201170529Y-69654500D01*
X201170531Y-69654500D01*
X201329469Y-69654500D01*
X201329471Y-69654500D01*
X201483793Y-69616463D01*
X201624529Y-69542599D01*
X201743498Y-69437201D01*
X201833787Y-69306395D01*
X201890149Y-69157782D01*
X201909307Y-69000000D01*
X201890149Y-68842218D01*
X201833787Y-68693605D01*
X201743498Y-68562799D01*
X201624529Y-68457401D01*
X201483793Y-68383537D01*
X201329471Y-68345500D01*
X201170529Y-68345500D01*
X201016207Y-68383537D01*
X201016206Y-68383537D01*
X201016204Y-68383538D01*
X200875472Y-68457400D01*
X200756501Y-68562799D01*
X200666212Y-68693605D01*
X200609850Y-68842219D01*
X200590693Y-69000000D01*
X111525500Y-69000000D01*
X111525500Y-65440000D01*
X135930693Y-65440000D01*
X135949850Y-65597780D01*
X136006212Y-65746394D01*
X136006213Y-65746395D01*
X136096502Y-65877201D01*
X136215471Y-65982599D01*
X136356207Y-66056463D01*
X136510529Y-66094500D01*
X136510531Y-66094500D01*
X136669469Y-66094500D01*
X136669471Y-66094500D01*
X136823793Y-66056463D01*
X136964529Y-65982599D01*
X137083498Y-65877201D01*
X137173787Y-65746395D01*
X137230149Y-65597782D01*
X137249307Y-65440000D01*
X137230149Y-65282218D01*
X137173787Y-65133605D01*
X137083498Y-65002799D01*
X136964529Y-64897401D01*
X136823793Y-64823537D01*
X136669471Y-64785500D01*
X136510529Y-64785500D01*
X136356207Y-64823537D01*
X136356206Y-64823537D01*
X136356204Y-64823538D01*
X136215472Y-64897400D01*
X136096501Y-65002799D01*
X136006212Y-65133605D01*
X135949850Y-65282219D01*
X135930693Y-65440000D01*
X111525500Y-65440000D01*
X111525500Y-63124335D01*
X112999500Y-63124335D01*
X113040429Y-63369614D01*
X113040430Y-63369616D01*
X113121170Y-63604806D01*
X113239527Y-63823510D01*
X113392262Y-64019744D01*
X113575217Y-64188166D01*
X113783389Y-64324171D01*
X113783391Y-64324172D01*
X113783393Y-64324173D01*
X114011119Y-64424063D01*
X114252179Y-64485108D01*
X114437933Y-64500500D01*
X114440547Y-64500500D01*
X114559453Y-64500500D01*
X114562067Y-64500500D01*
X114747821Y-64485108D01*
X114988881Y-64424063D01*
X115216607Y-64324173D01*
X115424785Y-64188164D01*
X115607738Y-64019744D01*
X115760474Y-63823509D01*
X115878828Y-63604810D01*
X115959571Y-63369614D01*
X116000500Y-63124335D01*
X216999500Y-63124335D01*
X217040429Y-63369614D01*
X217040430Y-63369616D01*
X217121170Y-63604806D01*
X217239527Y-63823510D01*
X217392262Y-64019744D01*
X217575217Y-64188166D01*
X217783389Y-64324171D01*
X217783391Y-64324172D01*
X217783393Y-64324173D01*
X218011119Y-64424063D01*
X218252179Y-64485108D01*
X218437933Y-64500500D01*
X218440547Y-64500500D01*
X218559453Y-64500500D01*
X218562067Y-64500500D01*
X218747821Y-64485108D01*
X218988881Y-64424063D01*
X219216607Y-64324173D01*
X219424785Y-64188164D01*
X219607738Y-64019744D01*
X219760474Y-63823509D01*
X219878828Y-63604810D01*
X219959571Y-63369614D01*
X220000500Y-63124335D01*
X220000500Y-62875665D01*
X219959571Y-62630386D01*
X219878828Y-62395190D01*
X219760474Y-62176491D01*
X219607738Y-61980256D01*
X219424785Y-61811836D01*
X219424782Y-61811833D01*
X219216610Y-61675828D01*
X218988876Y-61575935D01*
X218747826Y-61514893D01*
X218747824Y-61514892D01*
X218747821Y-61514892D01*
X218623361Y-61504578D01*
X218564665Y-61499715D01*
X218564658Y-61499714D01*
X218562067Y-61499500D01*
X218437933Y-61499500D01*
X218435342Y-61499714D01*
X218435334Y-61499715D01*
X218359028Y-61506038D01*
X218252179Y-61514892D01*
X218252176Y-61514892D01*
X218252173Y-61514893D01*
X218011123Y-61575935D01*
X217783389Y-61675828D01*
X217575217Y-61811833D01*
X217392262Y-61980255D01*
X217239527Y-62176489D01*
X217121170Y-62395193D01*
X217040430Y-62630383D01*
X217040429Y-62630386D01*
X216999500Y-62875665D01*
X216999500Y-63124335D01*
X116000500Y-63124335D01*
X116000500Y-62875665D01*
X115959571Y-62630386D01*
X115878828Y-62395190D01*
X115760474Y-62176491D01*
X115607738Y-61980256D01*
X115424785Y-61811836D01*
X115424782Y-61811833D01*
X115216610Y-61675828D01*
X114988876Y-61575935D01*
X114747826Y-61514893D01*
X114747824Y-61514892D01*
X114747821Y-61514892D01*
X114623361Y-61504578D01*
X114564665Y-61499715D01*
X114564658Y-61499714D01*
X114562067Y-61499500D01*
X114437933Y-61499500D01*
X114435342Y-61499714D01*
X114435334Y-61499715D01*
X114359028Y-61506038D01*
X114252179Y-61514892D01*
X114252176Y-61514892D01*
X114252173Y-61514893D01*
X114011123Y-61575935D01*
X113783389Y-61675828D01*
X113575217Y-61811833D01*
X113392262Y-61980255D01*
X113239527Y-62176489D01*
X113121170Y-62395193D01*
X113040430Y-62630383D01*
X113040429Y-62630386D01*
X112999500Y-62875665D01*
X112999500Y-63124335D01*
X111525500Y-63124335D01*
X111525500Y-60151500D01*
X111545502Y-60083379D01*
X111599158Y-60036886D01*
X111651500Y-60025500D01*
X161494928Y-60025500D01*
X221348500Y-60025500D01*
X221416621Y-60045502D01*
G37*
G04 #@! TD.AperFunction*
M02*
